<svg viewBox="0 0 281 268" fill="none" xmlns="http://www.w3.org/2000/svg">
<path fill-rule="evenodd" clip-rule="evenodd" d="M140.576 133.465C140.576 150.31 142.257 164.372 145.617 175.649C149.049 186.856 153.876 195.278 160.096 200.917C166.317 206.484 173.61 209.268 181.976 209.268C194.56 209.268 204.606 202.951 212.114 190.317C219.621 177.684 223.339 158.733 223.268 133.465C223.268 116.834 221.552 102.987 218.12 91.9231C214.759 80.8595 209.969 72.544 203.748 66.9765C197.599 61.409 190.341 58.6253 181.976 58.6253C169.463 58.6253 159.453 64.8709 151.945 77.362L145.304 73.3845C153.937 59.0226 166.247 50.8945 181.976 50.8945C192.241 50.8945 201.351 54.3767 208.934 61.2351C216.528 68.0391 221.907 77.7604 225.524 89.6587C229.257 101.702 231.011 116.371 231.012 133.455C231.084 159.231 227.339 179.849 218.774 194.262C210.151 208.772 197.801 216.999 181.976 216.999C171.705 216.999 162.57 213.514 154.927 206.673L154.908 206.657L154.89 206.64C147.306 199.766 141.897 189.943 138.211 177.91L138.203 177.882L138.194 177.853C134.551 165.625 132.832 150.764 132.832 133.465V133.454L132.832 133.443C132.905 108.009 136.734 87.6443 145.304 73.3845L151.945 77.362C144.437 89.8531 140.648 108.554 140.576 133.465Z" fill="url(#paint0_linear_21059_28781)"/>
<path fill-rule="evenodd" clip-rule="evenodd" d="M177.08 12.9171C176.459 12.9585 174.45 13.1448 172.627 13.3311C170.805 13.4967 167.967 13.8692 166.31 14.159C164.654 14.4281 162.417 14.842 161.34 15.0904C160.263 15.3181 158.212 15.8356 156.783 16.2081C155.354 16.6014 152.931 17.3465 151.398 17.864C149.866 18.4021 147.484 19.2922 146.117 19.8717C144.75 20.4513 142.368 21.5483 140.836 22.3141C139.303 23.08 137.211 24.1977 136.176 24.7979C135.14 25.3982 133.048 26.7435 131.516 27.7785C129.983 28.8134 127.705 30.4899 126.441 31.4835C125.199 32.477 123.045 34.3191 121.678 35.561C120.311 36.8029 118.198 38.9141 116.997 40.2595C116.341 40.982 115.685 41.7164 115.17 42.2929C114.726 42.7899 114.386 43.1695 114.243 43.3229L113.725 43.9438L113.704 15.6907H60.0623L0 53.672C0 107.156 0.0621334 113.159 0.269245 113.035C0.393512 112.973 11.9503 105.749 25.9511 96.9935C39.9311 88.2588 51.405 81.0972 51.4672 81.0972C51.5293 81.0972 51.5707 119.368 51.5707 166.167V251.237H113.704L113.808 224.495C116.707 227.807 118.696 229.938 120.125 231.346C121.554 232.753 123.915 234.885 125.365 236.107C126.835 237.307 129.134 239.087 130.48 240.06C131.826 241.033 134.146 242.544 135.596 243.413C137.046 244.282 139.407 245.607 140.836 246.331C142.265 247.056 144.584 248.132 146.014 248.732C147.443 249.333 150.239 250.368 152.227 251.051C154.215 251.713 157.156 252.582 158.751 252.976C160.346 253.369 162.872 253.928 164.343 254.218C165.813 254.487 168.527 254.921 170.349 255.149C172.172 255.377 175.237 255.666 177.184 255.811C179.379 255.956 182.879 256.018 186.504 255.935C189.693 255.873 193.649 255.666 195.306 255.48C196.963 255.315 199.759 254.921 201.519 254.631C203.28 254.342 206.407 253.7 208.458 253.203C210.508 252.707 213.635 251.837 215.396 251.237C217.156 250.657 219.642 249.747 220.884 249.229C222.127 248.732 224.571 247.615 226.269 246.766C227.988 245.918 230.556 244.51 232.027 243.62C233.477 242.751 235.755 241.26 237.101 240.329C238.427 239.398 240.684 237.68 242.113 236.5C243.542 235.299 245.531 233.561 246.545 232.588C247.56 231.636 249.341 229.814 250.48 228.572C251.64 227.31 253.359 225.302 254.333 224.102C255.306 222.88 256.839 220.852 257.771 219.548C258.703 218.244 260.028 216.257 260.753 215.118C261.457 213.98 262.824 211.641 263.777 209.944C264.73 208.226 266.2 205.349 267.029 203.527C267.878 201.706 269.141 198.808 269.825 197.111C270.508 195.393 271.564 192.599 272.144 190.902C272.724 189.184 273.656 186.203 274.195 184.278C274.754 182.332 275.603 179.083 276.059 177.034C276.535 174.985 277.239 171.549 277.633 169.375C278.006 167.202 278.565 163.621 278.855 161.406C279.145 159.192 279.517 155.88 279.704 154.059C279.87 152.237 280.118 148.988 280.263 146.814C280.408 144.62 280.512 138.68 280.512 133.36C280.512 127.896 280.408 122.204 280.263 120.01C280.118 117.899 279.87 114.69 279.683 112.869C279.517 111.048 279.207 108.108 278.979 106.349C278.73 104.59 278.316 101.733 278.026 100.036C277.736 98.3182 277.219 95.586 276.887 93.9301C276.535 92.2743 275.976 89.8112 275.645 88.4451C275.292 87.079 274.588 84.5124 274.07 82.7531C273.573 80.9937 272.641 78.1374 272.041 76.4401C271.419 74.7221 270.301 71.8451 269.555 70.0236C268.789 68.2022 267.484 65.3044 266.656 63.6072C265.807 61.8892 264.398 59.2398 263.529 57.7082C262.659 56.1765 261.25 53.8376 260.38 52.5336C259.531 51.2296 258.04 49.077 257.067 47.773C256.093 46.469 254.685 44.6476 253.919 43.7368C253.152 42.8261 251.661 41.1288 250.584 39.9904C249.507 38.8313 247.85 37.1548 246.877 36.2441C245.903 35.354 244.412 34.0086 243.563 33.2635C242.714 32.5391 241.078 31.2144 239.939 30.3657C238.799 29.4964 236.977 28.2131 235.9 27.4887C234.823 26.7642 232.855 25.5224 231.551 24.7565C230.246 23.97 227.864 22.6867 226.269 21.9209C224.674 21.1343 222.21 20.0373 220.781 19.4578C219.352 18.8782 217.032 18.0296 215.603 17.5535C214.174 17.0775 211.378 16.2909 209.39 15.7735C207.401 15.2767 204.088 14.573 202.037 14.2418C199.987 13.9106 196.963 13.476 195.306 13.2897C193.318 13.0827 189.942 12.9378 185.261 12.8964C181.388 12.8757 177.702 12.8757 177.08 12.9171ZM193.028 20.9692C190.895 20.7829 187.353 20.6794 183.604 20.6794C180.29 20.7001 176.293 20.8243 174.698 20.9692C173.104 21.1141 170.722 21.3832 169.417 21.5695C168.112 21.7557 165.648 22.2111 163.929 22.5423C162.23 22.8941 159.434 23.5772 157.715 24.0739C156.017 24.5707 153.449 25.3986 152.02 25.9368C150.591 26.4749 148.312 27.4064 146.946 28.0273C145.579 28.6483 143.383 29.7453 142.078 30.449C140.774 31.1528 138.35 32.6223 136.694 33.7193C135.037 34.7956 132.489 36.6585 130.998 37.859C129.527 39.0388 127.249 41.0258 125.944 42.2884C124.64 43.551 122.631 45.6415 121.492 46.9455C120.332 48.2495 118.696 50.2573 117.826 51.3957C116.956 52.5341 115.506 54.5832 114.595 55.9493C113.683 57.3154 112.42 59.3231 111.799 60.3994C111.177 61.4757 110.142 63.3386 109.5 64.5391C108.878 65.7396 107.822 67.8715 107.18 69.2997C106.538 70.7278 105.937 71.949 105.875 72.0318C105.793 72.1146 105.751 61.2273 105.793 47.877L105.834 23.5565H62.237L7.76671 58.0191C7.68386 89.8531 7.70457 99.1052 7.76671 99.1052C7.82675 99.1052 18.3678 92.5151 31.5047 84.3022L32.8893 83.4366C52.8549 70.9141 58.0533 67.7473 58.6747 67.7059L59.441 67.6438V243.372H105.937C105.668 206.239 105.627 195.497 105.689 195.559C105.73 195.621 106.352 196.967 107.077 198.56C107.781 200.154 108.941 202.534 109.624 203.838C110.308 205.142 111.488 207.254 112.213 208.496C112.959 209.737 114.388 211.973 115.382 213.463C116.376 214.953 118.198 217.416 119.42 218.948C120.663 220.48 123.293 223.378 125.302 225.365C127.291 227.372 129.859 229.753 130.998 230.663C132.137 231.574 134.001 232.961 135.14 233.768C136.279 234.575 138.33 235.921 139.697 236.749C141.064 237.577 143.673 238.963 145.496 239.853C147.318 240.743 149.7 241.82 150.777 242.234C151.854 242.668 153.967 243.413 155.437 243.89C156.908 244.386 159.476 245.111 161.133 245.525C162.79 245.918 165.482 246.498 167.139 246.767C168.796 247.056 171.488 247.45 173.145 247.657C175.548 247.946 177.764 248.029 184.122 248.029C190.48 248.029 192.696 247.946 195.099 247.657C196.756 247.45 199.448 247.056 201.105 246.767C202.762 246.498 205.454 245.918 207.111 245.504C208.768 245.111 211.606 244.262 213.428 243.641C215.251 243.02 217.633 242.13 218.71 241.675C219.787 241.219 221.754 240.309 223.059 239.646C224.364 238.984 226.269 237.97 227.305 237.37C228.34 236.749 230.101 235.652 231.24 234.886C232.379 234.12 234.264 232.754 235.403 231.864C236.563 230.974 238.634 229.194 240.021 227.952C241.388 226.71 243.563 224.516 244.847 223.109C246.131 221.701 247.954 219.569 248.906 218.348C249.859 217.147 251.599 214.705 252.759 212.946C253.939 211.186 255.451 208.765 256.135 207.564C256.818 206.364 257.999 204.19 258.744 202.7C259.469 201.21 260.691 198.622 261.416 196.904C262.162 195.207 263.28 192.413 263.922 190.695C264.543 188.998 265.475 186.203 265.993 184.486C266.532 182.788 267.319 179.891 267.795 178.069C268.251 176.248 268.996 172.895 269.452 170.618C269.887 168.341 270.508 164.843 270.777 162.856C271.067 160.869 271.502 157.371 271.73 155.094C271.958 152.817 272.227 149.568 272.351 147.85C272.476 146.152 272.621 141.247 272.704 136.983C272.766 132.16 272.724 127.193 272.579 123.84C272.434 120.88 272.186 116.926 272.02 115.043C271.854 113.159 271.544 110.096 271.316 108.212C271.088 106.329 270.653 103.41 270.363 101.692C270.073 99.9952 269.618 97.4286 269.328 96.0004C269.038 94.5723 268.396 91.778 267.878 89.7909C267.381 87.8039 266.552 84.8648 266.055 83.271C265.558 81.6772 264.709 79.152 264.171 77.6825C263.632 76.2129 262.638 73.7084 261.975 72.156C261.292 70.583 260.09 67.975 259.283 66.3605C258.475 64.7253 257.232 62.4278 256.549 61.2273C255.865 60.0268 254.457 57.75 253.401 56.1563C252.345 54.5625 250.77 52.3271 249.88 51.1887C248.989 50.0503 247.395 48.146 246.359 46.9455C245.303 45.745 243.335 43.6959 241.989 42.3919C240.622 41.0879 238.344 39.0802 236.935 37.9418C235.506 36.7827 233 34.9612 231.343 33.8642C229.687 32.7879 227.595 31.4632 226.683 30.9665C225.772 30.449 224.198 29.6004 223.163 29.0829C222.127 28.5862 220.18 27.6961 218.813 27.1166C217.446 26.537 215.127 25.647 213.635 25.1503C212.144 24.6535 209.638 23.9084 208.043 23.4944C206.449 23.0804 204.17 22.563 202.969 22.3353C201.768 22.0869 199.821 21.7557 198.62 21.5902C197.419 21.4039 194.913 21.1348 193.028 20.9692Z" fill="url(#paint1_linear_21059_28781)"/>
<defs>
<linearGradient id="paint0_linear_21059_28781" x1="168.124" y1="39.6447" x2="168.124" y2="234.102" gradientUnits="userSpaceOnUse">
<stop stop-color="white"/>
<stop offset="0.665" stop-color="white" stop-opacity="0.4"/>
</linearGradient>
<linearGradient id="paint1_linear_21059_28781" x1="100.831" y1="-3.58107" x2="100.831" y2="281.003" gradientUnits="userSpaceOnUse">
<stop stop-color="white"/>
<stop offset="0.665" stop-color="white" stop-opacity="0.4"/>
</linearGradient>
</defs>
</svg>
