<svg viewBox="0 0 222 268" fill="none" xmlns="http://www.w3.org/2000/svg">
<path fill-rule="evenodd" clip-rule="evenodd" d="M2.40172 266.047V217.537L92.3645 134.382C99.6782 127.314 105.744 121.019 110.594 115.486L110.614 115.463L110.634 115.441C115.388 110.102 118.814 105.071 121.074 100.359C123.201 95.849 124.289 90.9531 124.289 85.5722C124.289 79.5853 122.937 74.877 120.56 71.1154L120.546 71.093L120.532 71.0704C118.028 67.0469 114.648 63.9885 110.236 61.8174L110.197 61.7981L110.158 61.7784C105.694 59.5188 100.475 58.2985 94.3264 58.2985C87.8587 58.2985 82.6084 59.5971 78.3269 61.9173C74.0683 64.2251 70.8272 67.4797 68.4907 71.8378C66.1673 76.1713 64.8438 81.6165 64.8438 88.4492V96.18H0V88.4492C0 71.1843 3.92833 55.7893 12.0751 42.5626C20.1647 29.4287 31.501 19.3101 45.8646 12.2282C60.2276 5.14662 76.5663 1.71875 94.6866 1.71875C113.198 1.71875 129.708 4.99394 143.997 11.8145C158.262 18.5056 169.61 27.9392 177.752 40.1765C185.946 52.4906 189.974 66.5497 189.974 82.0957C189.974 92.4073 187.922 102.536 183.889 112.435C179.869 122.5 172.879 133.235 163.3 144.612L163.291 144.622L163.282 144.633C153.711 155.917 140.385 169.284 123.421 184.699L99.4494 208.149H193.216V266.047H2.40172ZM82.1976 215.88V214.201L118.103 179.077C134.996 163.733 148.085 150.586 157.372 139.637C166.658 128.608 173.103 118.579 176.705 109.548C180.388 100.517 182.229 91.3663 182.229 82.0957C182.229 67.9501 178.587 55.4028 171.302 44.4539C164.016 33.5051 153.809 24.9538 140.68 18.8C127.63 12.5664 112.299 9.44952 94.6866 9.44952C77.5543 9.44952 62.4234 12.6862 49.294 19.1596C36.1646 25.6331 25.9573 34.7838 18.672 46.6118C12.5813 56.5004 9.03663 67.8693 8.03797 80.7185C7.84211 83.2384 7.74419 85.8154 7.74419 88.4492H57.0996C57.0996 80.6172 58.6207 73.8641 61.6629 68.1898C64.7051 62.5156 69.0282 58.16 74.6322 55.1231C80.2362 52.0862 86.8009 50.5677 94.3264 50.5677C101.532 50.5677 107.976 52.0063 113.66 54.8833C119.344 57.6805 123.828 61.7164 127.11 66.991C130.392 72.1858 132.033 78.3795 132.033 85.5722C132.033 92.0456 130.712 98.0794 128.071 103.674C125.429 109.188 121.546 114.822 116.422 120.577C111.379 126.331 105.134 132.804 97.6888 139.997L10.1459 220.915V258.317H185.472V215.88H82.1976Z" fill="url(#paint0_linear_21059_28765)"/>
<defs>
<linearGradient id="paint0_linear_21059_28765" x1="69.4524" y1="-16.1836" x2="69.4524" y2="293.265" gradientUnits="userSpaceOnUse">
<stop stop-color="white"/>
<stop offset="0.665" stop-color="white" stop-opacity="0.4"/>
</linearGradient>
</defs>
</svg>
