<svg viewBox="0 0 222 268" fill="none" xmlns="http://www.w3.org/2000/svg">
<path fill-rule="evenodd" clip-rule="evenodd" d="M50.1243 257.789L50.0998 257.778C35.1152 251.073 22.9979 241.738 14.0267 229.679L14.0077 229.654L13.9888 229.628C4.9877 217.318 0.397325 203.124 0.131965 187.318L0 179.458H67.5748L67.9659 186.777C68.2025 191.207 69.6028 194.921 72.149 198.163C74.9076 201.495 78.6683 204.238 83.6923 206.284C88.7137 208.328 94.5435 209.427 101.302 209.427C108.312 209.427 114.178 208.193 119.078 205.94C124.046 203.656 127.674 200.628 130.244 196.928C132.72 193.364 134.027 189.212 134.027 184.191C134.027 179.188 132.656 175.009 129.993 171.368L129.952 171.312L129.912 171.256C127.282 167.522 123.33 164.356 117.616 161.94L117.601 161.933L117.585 161.927C112.047 159.557 105.129 158.236 96.6188 158.236H65.9381V104.654H96.6188C103.568 104.654 109.369 103.452 114.196 101.268L114.214 101.26L114.231 101.252C119.203 99.0312 122.749 96.12 125.202 92.6318C127.581 89.1723 128.863 85.0668 128.863 80.0173C128.863 75.1555 127.712 71.2403 125.635 67.9915L125.594 67.9264L125.554 67.8604C123.48 64.4682 120.528 61.7539 116.452 59.7196L116.431 59.709L116.41 59.6982C112.483 57.7083 107.643 56.5798 101.662 56.5798C95.5756 56.5798 90.2039 57.6797 85.4376 59.7655L85.3967 59.7834L85.3555 59.8008C80.64 61.7998 77.0825 64.5601 74.4482 68.0266C71.9562 71.3057 70.5566 75.185 70.3728 79.9548L70.0864 87.3884H4.92204L5.05552 79.5267C5.32089 63.8971 9.82223 49.868 18.6603 37.7142C27.3597 25.751 39.0175 16.5102 53.3974 9.93635C67.9162 3.2556 84.1338 0 101.903 0C119.813 0 135.859 3.24939 149.83 10.0036C163.632 16.6759 174.628 25.8333 182.525 37.5572C190.547 49.2651 194.508 62.4568 194.428 76.9011C194.508 92.4075 189.607 105.825 179.492 116.584C174.94 121.465 169.765 125.491 164.01 128.678C173.176 132.304 181.004 137.46 187.312 144.283C198.307 156.008 203.634 170.663 203.554 187.665C203.635 203.262 199.084 217.326 189.888 229.573C180.888 241.666 168.58 250.994 153.285 257.685C137.892 264.418 120.472 267.685 101.182 267.685C82.3576 267.685 65.2959 264.453 50.1488 257.8L50.1243 257.789ZM183.681 224.95C191.847 214.081 195.89 201.654 195.81 187.668C195.89 172.403 191.167 159.696 181.64 149.547C174.648 141.975 165.287 136.571 153.558 133.334C149.544 132.226 145.253 131.372 140.685 130.772C140.567 130.756 140.449 130.741 140.33 130.726V128.808C140.414 128.793 140.499 128.777 140.583 128.762C145.05 127.943 149.241 126.769 153.158 125.241C161.214 122.097 168.106 117.452 173.834 111.306C182.48 102.115 186.764 90.6465 186.683 76.9005C186.764 63.9536 183.241 52.2855 176.116 41.896C169.071 31.4267 159.184 23.1151 146.455 16.9614C133.725 10.8076 118.875 7.73077 101.903 7.73077C85.0905 7.73077 69.9997 10.8076 56.6301 16.9614C43.3405 23.0352 32.7729 31.4666 24.9273 42.2557C18.5432 51.0348 14.677 60.9252 13.3287 71.9269C13.02 74.4456 12.8433 77.0225 12.7986 79.6577H62.6344C62.8746 73.424 64.7559 67.9895 68.2784 63.3542C71.801 58.7189 76.4843 55.1626 82.3285 52.6851C88.1727 50.1277 94.6173 48.849 101.662 48.849C108.627 48.849 114.712 50.1676 119.916 52.805C125.199 55.4423 129.282 59.1185 132.164 63.8337C135.126 68.469 136.607 73.8636 136.607 80.0173C136.607 86.4907 134.926 92.165 131.564 97.04C128.201 101.835 123.478 105.591 117.394 108.309C111.389 111.026 104.464 112.384 96.6188 112.384H73.6823V150.506H96.6188C105.905 150.506 113.911 151.944 120.636 154.821C127.441 157.698 132.645 161.694 136.247 166.809C139.93 171.844 141.771 177.638 141.771 184.191C141.771 190.665 140.05 196.379 136.607 201.334C133.165 206.289 128.402 210.165 122.317 212.962C116.233 215.759 109.228 217.158 101.302 217.158C93.6967 217.158 86.8518 215.919 80.7674 213.442C74.683 210.964 69.7995 207.488 66.1169 203.012C62.5143 198.457 60.5529 193.182 60.2327 187.188H7.87506C7.91928 189.822 8.09512 192.399 8.40257 194.919C9.76503 206.087 13.7122 216.137 20.2439 225.07C28.3298 235.939 39.3377 244.49 53.2677 250.724C67.2777 256.878 83.2492 259.954 101.182 259.954C119.595 259.954 135.927 256.838 150.177 250.604C164.427 244.37 175.596 235.819 183.681 224.95Z" fill="url(#paint0_linear_21059_28767)"/>
<defs>
<linearGradient id="paint0_linear_21059_28767" x1="73.1689" y1="-18.1297" x2="73.1689" y2="295.248" gradientUnits="userSpaceOnUse">
<stop stop-color="white"/>
<stop offset="0.665" stop-color="white" stop-opacity="0.4"/>
</linearGradient>
</defs>
</svg>
