<svg viewBox="0 0 227 268" fill="none" xmlns="http://www.w3.org/2000/svg">
<path fill-rule="evenodd" clip-rule="evenodd" d="M48.2109 255.877L48.2028 255.873C33.8972 249.122 22.3309 239.705 13.7295 227.577C5.02199 215.301 0.532053 201.24 0.178964 185.643L0 177.738H65.6594L66.0882 185.015C66.5198 192.339 69.4704 198.014 75.1879 202.556C81.1539 207.295 88.265 209.745 96.9051 209.745C103.89 209.745 109.723 208.22 114.639 205.392C119.72 202.435 123.637 198.402 126.486 193.167L126.494 193.152L126.502 193.138C129.399 187.869 130.951 181.667 130.951 174.32C130.951 166.814 129.359 160.561 126.417 155.325L126.399 155.294L126.382 155.262C123.453 149.935 119.455 145.86 114.3 142.9C109.186 139.965 103.204 138.369 96.1461 138.295C90.0555 138.3 84.118 139.545 78.2754 142.082C72.6041 144.578 68.5193 147.824 65.68 151.683L62.823 155.567L4.85735 145.196L17.7735 1.63672H182.945V59.5351H74.7094L70.9836 95.5358C73.524 93.9494 76.2498 92.4966 79.1458 91.1705C89.0055 86.6555 99.894 84.4725 111.676 84.4725C127.754 84.4725 142.365 88.2629 155.288 96.0036C168.097 103.675 178.212 114.234 185.577 127.536C193.026 140.907 196.595 156.138 196.515 173.002C196.595 190.799 192.443 206.911 183.878 221.103C175.432 235.151 163.599 246.176 148.576 254.151L148.561 254.159C133.498 262.115 116.204 265.965 96.9051 265.965C78.9713 265.965 62.688 262.668 48.2191 255.881L48.2109 255.877ZM177.243 217.116C185.008 204.249 188.851 189.544 188.771 173.001C188.851 157.257 185.529 143.351 178.804 131.284C172.079 119.136 162.912 109.586 151.304 102.633C139.696 95.6798 126.486 92.2033 111.676 92.2033C100.868 92.2033 91.1009 94.2013 82.3746 98.1972C77.552 100.406 73.4018 102.931 69.924 105.774C67.109 108.076 64.7345 110.585 62.8006 113.302H61.3595L67.7241 51.8044H175.201V9.36749H24.8533L13.205 138.836L59.4382 147.108C63.2009 141.993 68.4446 137.957 75.1695 135C81.9743 132.043 88.9794 130.564 96.1845 130.564C104.43 130.644 111.756 132.522 118.16 136.199C124.565 139.875 129.569 144.99 133.171 151.543C136.854 158.096 138.695 165.689 138.695 174.32C138.695 182.791 136.894 190.304 133.291 196.857C129.769 203.33 124.845 208.405 118.521 212.081C112.276 215.678 105.071 217.476 96.9051 217.476C86.6577 217.476 77.8113 214.519 70.366 208.605C62.9207 202.691 58.9178 194.979 58.3574 185.469H7.92117C7.98076 188.101 8.16926 190.678 8.48666 193.199C9.87495 204.228 13.7294 214.199 20.0499 223.11C27.8155 234.059 38.303 242.65 51.5125 248.884C64.802 255.118 79.9329 258.235 96.9051 258.235C115.158 258.235 131.17 254.598 144.94 247.326C158.789 239.973 169.557 229.903 177.243 217.116Z" fill="url(#paint0_linear_21059_28771)"/>
<defs>
<linearGradient id="paint0_linear_21059_28771" x1="70.6388" y1="-16.2656" x2="70.6388" y2="293.182" gradientUnits="userSpaceOnUse">
<stop stop-color="white"/>
<stop offset="0.665" stop-color="white" stop-opacity="0.4"/>
</linearGradient>
</defs>
</svg>
