<svg viewBox="0 0 231 268" fill="none" xmlns="http://www.w3.org/2000/svg">
<path fill-rule="evenodd" clip-rule="evenodd" d="M105.933 267.685L105.926 267.685C92.425 267.6 79.3591 265.336 66.7658 260.889L66.7501 260.884C53.9005 256.315 42.4372 248.904 32.3864 238.784C22.1214 228.449 14.2209 214.997 8.48587 198.748L8.47993 198.731L8.47407 198.715C2.74242 182.233 0 162.377 0 139.357V139.342L5.82628e-05 139.327C0.0822803 118.15 2.50727 99.005 7.38305 81.9694L7.38649 81.9573L7.38997 81.9453C12.3328 64.8845 19.4477 50.1496 28.8607 37.908L28.8711 37.8945L28.8816 37.881C38.3731 25.6496 49.8174 16.2342 63.1959 9.77114C76.6178 3.20684 91.5281 0 107.776 0C125.203 0 140.928 3.39885 154.747 10.4246C168.378 17.2751 179.467 26.6825 187.847 38.6519C196.286 50.5926 201.381 64.0007 203.129 78.7491L204.154 87.3884H138.019L136.621 81.4166C134.988 74.441 131.697 69.3492 126.857 65.6657C122.026 61.9878 115.831 59.9363 107.776 59.9363C94.5403 59.9363 84.8767 65.416 77.926 77.0157C73.2482 84.9092 69.8919 94.8976 68.0474 107.158C68.786 106.495 69.5419 105.847 70.315 105.214C77.3775 99.4133 85.3625 95.0127 94.2133 92.0059C103.147 88.9181 112.526 87.3912 122.306 87.3912C138.143 87.3912 152.519 91.1412 165.207 98.8074C177.779 106.323 187.694 116.688 194.898 129.756C202.17 142.946 205.705 157.884 205.705 174.361C205.705 192.23 201.517 208.409 192.966 222.672C184.526 236.883 172.692 248.003 157.645 255.991L157.631 255.999C142.556 263.961 125.249 267.77 105.941 267.685L105.933 267.685ZM186.312 218.716C194.078 205.77 197.961 190.985 197.961 174.361C197.961 159.017 194.678 145.391 188.114 133.483C181.549 121.575 172.583 112.225 161.214 105.431C149.846 98.5585 136.877 95.1219 122.306 95.1219C113.34 95.1219 104.814 96.5205 96.7281 99.3177C88.7223 102.035 81.5572 105.991 75.2326 111.186C72.0732 113.773 69.2417 116.637 66.7381 119.778C64.2934 122.844 62.1614 126.174 60.3419 129.767H58.6607C58.6626 129.484 58.6651 129.203 58.6681 128.922C58.6933 126.578 58.7578 124.283 58.8616 122.036C58.9415 120.306 59.0447 118.604 59.1712 116.931C60.5273 99.0017 64.5601 84.3795 71.2698 73.0644C79.5958 59.1585 91.7645 52.2056 107.776 52.2056C117.223 52.2056 125.148 54.6431 131.553 59.5181C137.958 64.3932 142.161 71.1064 144.162 79.6577H195.439C195.128 77.0309 194.701 74.4539 194.16 71.9269C191.917 61.4606 187.7 51.8499 181.509 43.0948C173.904 32.2259 163.816 23.6346 151.247 17.321C138.678 10.9275 124.188 7.73077 107.776 7.73077C92.5651 7.73077 78.8352 10.7277 66.5864 16.7216C54.3376 22.6356 43.8101 31.2668 35.0038 42.6153C26.2775 53.9638 19.5527 67.7897 14.8293 84.0932C10.1859 100.317 7.82424 118.738 7.74419 139.357C7.74419 161.814 10.4261 180.755 15.79 196.179C21.2339 211.604 28.5992 223.991 37.8858 233.341C47.1725 242.692 57.66 249.445 69.3484 253.601C81.1169 257.757 93.3256 259.875 105.975 259.954C124.228 260.034 140.239 256.438 154.009 249.165C167.859 241.813 178.627 231.663 186.312 218.716ZM135.333 157.585L135.316 157.552C132.435 152.259 128.495 148.105 123.411 144.982C118.499 141.964 112.804 140.375 106.095 140.375C101.088 140.375 96.5963 141.3 92.5273 143.074C88.4266 144.897 84.8274 147.418 81.6878 150.676C78.6128 153.949 76.1659 157.764 74.3545 162.184L74.3466 162.203L74.3386 162.222C72.5881 166.429 71.6887 170.971 71.6887 175.92C71.6887 182.597 73.1923 188.528 76.12 193.867C79.1772 199.296 83.2322 203.556 88.3382 206.763C93.3398 209.855 99.0652 211.465 105.735 211.465C112.442 211.465 118.195 209.876 123.209 206.835C128.359 203.711 132.374 199.518 135.332 194.138C138.252 188.826 139.78 182.772 139.78 175.8C139.78 168.827 138.252 162.829 135.351 157.617L135.333 157.585ZM84.2391 213.322C77.9946 209.406 73.0311 204.171 69.3484 197.618C65.7458 191.064 63.9445 183.832 63.9445 175.92C63.9445 170.006 65.0253 164.451 67.1869 159.257C69.3484 153.982 72.3105 149.347 76.0732 145.351C79.916 141.355 84.3592 138.238 89.4028 136C94.5265 133.763 100.09 132.644 106.095 132.644C114.101 132.644 121.226 134.562 127.47 138.398C133.715 142.234 138.598 147.389 142.121 153.862C145.723 160.336 147.525 167.648 147.525 175.8C147.525 183.952 145.723 191.304 142.121 197.858C138.518 204.411 133.555 209.606 127.23 213.442C120.905 217.278 113.74 219.196 105.735 219.196C97.7288 219.196 90.5636 217.238 84.2391 213.322Z" fill="url(#paint0_linear_21059_28773)"/>
<defs>
<linearGradient id="paint0_linear_21059_28773" x1="73.9416" y1="-18.1298" x2="73.9416" y2="295.249" gradientUnits="userSpaceOnUse">
<stop stop-color="white"/>
<stop offset="0.665" stop-color="white" stop-opacity="0.4"/>
</linearGradient>
</defs>
</svg>
