<svg viewBox="0 0 222 268" fill="none" xmlns="http://www.w3.org/2000/svg">
<path fill-rule="evenodd" clip-rule="evenodd" d="M50.7346 258.09L50.7107 258.079C35.3764 251.58 22.9868 242.571 13.8826 230.898C4.65807 219.072 0 205.532 0 190.545C0 179.098 2.61133 168.431 7.9009 158.69L7.90693 158.678L7.913 158.667C13.2037 148.999 20.4042 140.957 29.4488 134.605C32.773 132.242 36.2436 130.191 39.8555 128.454C33.5235 124.775 27.9228 119.959 23.1004 114.012L23.091 114L23.0816 113.989C13.7745 102.42 9.12655 88.9107 9.12655 73.7836C9.12655 59.4554 13.3621 46.5137 21.8343 35.2318C30.1831 24.0343 41.5196 15.4226 55.5416 9.28602C69.7208 3.03551 85.62 0 103.093 0C120.565 0 136.432 3.03543 150.542 9.29405C164.628 15.5066 176.001 24.1528 184.351 35.352C192.806 46.6111 197.088 59.4914 197.179 73.7347L197.179 73.7821L197.179 73.8294C197.089 89.0298 192.354 102.546 182.941 114.041C178.087 119.969 172.495 124.78 166.205 128.459C169.78 130.198 173.217 132.251 176.512 134.616C185.537 140.958 192.726 148.984 198.012 158.63C203.468 168.359 206.215 179.025 206.305 190.485L206.306 190.538L206.305 190.592C206.215 205.563 201.517 219.084 192.303 230.898C183.191 242.58 170.753 251.589 155.34 258.086L155.33 258.09L155.321 258.094C139.88 264.552 122.422 267.685 103.093 267.685C83.7624 267.685 66.2701 264.552 50.7587 258.1L50.7346 258.09ZM191.236 162.374C186.513 153.742 180.108 146.59 172.022 140.915C167.293 137.517 162.244 134.843 156.872 132.894C153.26 131.583 149.502 130.6 145.6 129.946C145.481 129.926 145.362 129.906 145.243 129.887V128.208C145.337 128.189 145.432 128.169 145.526 128.15C149.444 127.329 153.147 126.163 156.634 124.652C164.503 121.243 171.274 116.074 176.946 109.148C185.192 99.0779 189.355 87.2899 189.435 73.7836C189.355 61.1565 185.592 49.8879 178.147 39.978C170.701 29.9881 160.454 22.1162 147.404 16.362C134.435 10.6078 119.665 7.73077 103.093 7.73077C86.5207 7.73077 71.7101 10.6078 58.6607 16.362C45.6914 22.0362 35.4841 29.8683 28.0388 39.8581C20.5934 49.768 16.8707 61.0766 16.8707 73.7836C16.8707 87.21 20.9537 98.998 29.1195 109.148C34.7403 116.079 41.5368 121.249 49.5092 124.659C53.0373 126.168 56.7957 127.332 60.7844 128.152C60.877 128.171 60.9697 128.19 61.0625 128.208V129.887C60.9458 129.905 60.8292 129.924 60.7127 129.943C56.7478 130.597 52.9343 131.579 49.2723 132.888C43.8201 134.838 38.7036 137.513 33.923 140.915C25.8372 146.59 19.4326 153.742 14.7092 162.374C10.0659 170.925 7.74418 180.315 7.74418 190.545C7.74418 203.811 11.8271 215.679 19.993 226.149C28.1588 236.618 39.4069 244.89 53.7372 250.964C68.1476 256.957 84.5994 259.954 103.093 259.954C121.586 259.954 137.998 256.957 152.328 250.964C166.738 244.89 178.026 236.618 186.192 226.149C194.358 215.679 198.481 203.811 198.561 190.545C198.481 180.315 196.039 170.925 191.236 162.374ZM132.638 200.698L132.645 200.687C135.268 196.701 136.658 192.048 136.658 186.469C136.658 180.729 135.227 175.968 132.54 171.915L132.526 171.893L132.512 171.871C129.689 167.55 125.86 164.132 120.849 161.598L120.813 161.58L120.778 161.562C115.874 159.018 110.046 157.637 103.093 157.637C96.2353 157.637 90.3877 159.012 85.3712 161.58L85.336 161.598L85.3007 161.616C80.215 164.154 76.3677 167.568 73.5609 171.86C70.9337 175.918 69.5272 180.699 69.5272 186.469C69.5272 192.074 70.8915 196.744 73.4501 200.733C76.044 204.698 79.7459 207.95 84.8332 210.43C89.8612 212.804 95.8861 214.102 103.093 214.102C110.395 214.102 116.4 212.798 121.318 210.447C126.334 207.969 130.02 204.71 132.63 200.71L132.638 200.698ZM124.708 217.398C118.544 220.355 111.339 221.833 103.093 221.833C94.9268 221.833 87.7216 220.355 81.4771 217.398C75.2326 214.361 70.3892 210.205 66.9467 204.93C63.5042 199.576 61.783 193.422 61.783 186.469C61.783 179.356 63.5442 173.083 67.0668 167.648C70.6694 162.134 75.5929 157.818 81.8374 154.701C88.0819 151.505 95.1669 149.906 103.093 149.906C111.098 149.906 118.183 151.505 124.348 154.701C130.512 157.818 135.396 162.134 138.998 167.648C142.601 173.083 144.402 179.356 144.402 186.469C144.402 193.422 142.641 199.576 139.119 204.93C135.676 210.205 130.873 214.361 124.708 217.398ZM127.517 66.5073L127.502 66.4828C125.224 62.832 122.124 59.9799 118.039 57.8793L117.998 57.8582L117.958 57.8366C113.975 55.7281 109.098 54.5418 103.093 54.5418C97.1868 54.5418 92.2855 55.7206 88.1851 57.859L88.1446 57.8801L88.1038 57.9007C83.946 60.007 80.8321 62.8531 78.5726 66.4681C76.4676 69.8823 75.2913 74.0273 75.2913 79.1782C75.2913 84.3928 76.5002 88.6767 78.7131 92.2809C80.9933 95.9949 84.132 98.9205 88.3052 101.097C92.418 103.242 97.2829 104.414 103.093 104.414C108.902 104.414 113.767 103.242 117.88 101.097C122.053 98.9205 125.192 95.9949 127.472 92.2809C129.685 88.6767 130.894 84.3928 130.894 79.1782C130.894 74.0587 129.693 69.9377 127.532 66.5316L127.517 66.5073ZM71.9903 62.3952C75.0325 57.5202 79.2355 53.724 84.5994 51.0068C89.9632 48.2096 96.1276 46.8111 103.093 46.8111C110.138 46.8111 116.302 48.2096 121.586 51.0068C126.87 53.724 131.033 57.5202 134.075 62.3952C137.117 67.1903 138.638 72.7847 138.638 79.1782C138.638 85.6516 137.117 91.3658 134.075 96.3207C131.033 101.276 126.83 105.152 121.466 107.949C116.102 110.746 109.978 112.145 103.093 112.145C96.2077 112.145 90.0833 110.746 84.7195 107.949C79.3556 105.152 75.1526 101.276 72.1104 96.3207C69.0682 91.3658 67.5471 85.6516 67.5471 79.1782C67.5471 72.7847 69.0282 67.1903 71.9903 62.3952Z" fill="url(#paint0_linear_21059_28777)"/>
<defs>
<linearGradient id="paint0_linear_21059_28777" x1="74.1575" y1="-18.1297" x2="74.1575" y2="295.248" gradientUnits="userSpaceOnUse">
<stop stop-color="white"/>
<stop offset="0.665" stop-color="white" stop-opacity="0.4"/>
</linearGradient>
</defs>
</svg>
