<svg viewBox="0 0 222 268" fill="none" xmlns="http://www.w3.org/2000/svg">
<path fill-rule="evenodd" clip-rule="evenodd" d="M61.424 187.31C63.4254 196.26 67.6284 203.213 74.033 208.168C80.4376 213.043 88.3633 215.481 97.8101 215.481C113.822 215.481 125.99 208.528 134.316 194.622C141.134 183.17 145.187 168.261 146.476 149.895C146.59 148.268 146.683 146.613 146.753 144.931C146.848 142.688 146.904 140.396 146.921 138.056C146.923 137.772 146.924 137.486 146.925 137.2H145.244C143.436 140.731 141.32 144.021 138.895 147.07C136.38 150.233 133.533 153.137 130.353 155.782C124.109 160.896 116.944 164.852 108.858 167.65C100.852 170.447 92.3262 171.845 83.2797 171.845C68.7893 171.845 55.86 168.449 44.4918 161.656C33.1236 154.863 24.1572 145.512 17.5925 133.604C11.0278 121.696 7.74542 108.11 7.74542 92.8456C7.66537 76.3823 11.4681 61.7172 19.1536 48.8503C26.8391 35.9833 37.5668 25.9136 51.3367 18.641C65.1867 11.2884 81.2782 7.65214 99.6114 7.73206C112.26 7.73206 124.429 9.8499 136.118 14.0856C147.886 18.3213 158.374 25.0744 167.58 34.345C176.867 43.6156 184.192 55.9231 189.556 71.2675C195 86.532 197.762 105.273 197.842 127.49C197.842 148.349 195.48 166.97 190.757 183.354C186.113 199.657 179.429 213.523 170.702 224.951C161.976 236.38 151.449 245.091 139.12 251.085C126.791 256.999 113.021 259.956 97.8101 259.956C81.3983 259.956 66.9079 256.799 54.3389 250.485C41.7699 244.092 31.6426 235.421 23.9571 224.472C17.8048 215.55 13.6171 205.74 11.3938 195.04C10.8686 192.513 10.4531 189.936 10.1471 187.31H61.424ZM173.069 28.891C183.342 39.1511 191.205 52.5288 196.86 68.6981C202.678 85.0243 205.504 104.683 205.586 127.463L205.586 127.476V127.49C205.586 148.913 203.162 168.271 198.202 185.482C193.34 202.546 186.268 217.319 176.861 229.638C167.44 241.977 155.981 251.486 142.511 258.035L142.492 258.044L142.474 258.053C128.986 264.523 114.051 267.687 97.8101 267.687C80.3903 267.687 64.6731 264.331 50.858 257.391L50.8404 257.382L50.8229 257.373C37.1873 250.437 26.0665 240.948 17.615 228.908L17.5965 228.882L17.5782 228.855C9.23164 216.752 4.19683 203.158 2.45479 188.202L1.4503 179.579H67.6301L68.9821 185.625C70.6434 193.055 73.9767 198.335 78.7523 202.039C83.5807 205.705 89.7687 207.75 97.8101 207.75C111.047 207.75 120.711 202.269 127.662 190.667C132.449 182.624 135.854 172.355 137.668 159.669C136.901 160.368 136.115 161.052 135.311 161.721L135.289 161.739L135.266 161.758C128.276 167.483 120.3 171.872 111.407 174.95C102.528 178.05 93.1354 179.576 83.2797 179.576C67.5238 179.576 53.1956 175.867 40.5143 168.289C27.9355 160.772 18.0148 150.404 10.8079 137.331C3.54212 124.152 0.00394073 109.262 0.00123848 92.8644C-0.0819756 75.1454 4.02763 59.0788 12.5021 44.891C20.9417 30.7617 32.7366 19.7203 47.7075 11.8117C62.8579 3.77039 80.242 -0.0809469 99.6283 0.00128914C113.154 0.00318309 126.21 2.27183 138.753 6.81619C151.644 11.4574 163.095 18.851 173.069 28.891ZM65.9258 91.3684V91.407C65.9258 98.2941 67.4124 104.262 70.2433 109.485C73.2034 114.72 77.1544 118.85 82.1625 121.977C87.0728 124.919 92.7742 126.473 99.4913 126.473C104.507 126.473 109.005 125.544 113.079 123.764C117.296 121.923 120.888 119.425 123.924 116.265L123.926 116.263C127.093 112.97 129.569 109.187 131.368 104.865C133.119 100.657 134.013 96.1668 134.017 91.3272C133.944 84.8154 132.409 78.9877 129.468 73.7032C126.509 68.3855 122.472 64.1583 117.265 60.9343C112.247 57.8271 106.553 56.2214 99.9716 56.2214C93.1767 56.2214 87.3932 57.8141 82.3959 60.8404C77.3012 63.9744 73.2619 68.1552 70.2178 73.4946C67.3298 78.6968 65.8578 84.5817 65.9254 91.3297L65.9258 91.3684ZM63.4654 69.7091C67.1481 63.2357 72.1116 58.0809 78.3561 54.2448C84.6807 50.4087 91.8858 48.4906 99.9716 48.4906C107.897 48.4906 115.022 50.4486 121.347 54.3647C127.672 58.2807 132.635 63.4754 136.238 69.9488C139.84 76.4223 141.682 83.535 141.762 91.2872C141.762 97.1212 140.681 102.636 138.519 107.83C136.358 113.025 133.356 117.62 129.513 121.616C125.75 125.532 121.307 128.609 116.183 130.847C111.06 133.085 105.496 134.204 99.4913 134.204C91.4855 134.204 84.3604 132.325 78.116 128.569C71.9515 124.733 67.068 119.618 63.4654 113.225C59.9429 106.751 58.1816 99.4788 58.1816 91.407C58.1016 83.4151 59.8628 76.1825 63.4654 69.7091Z" fill="url(#paint0_linear_21059_28779)"/>
<defs>
<linearGradient id="paint0_linear_21059_28779" x1="73.8989" y1="-18.1298" x2="73.8989" y2="295.249" gradientUnits="userSpaceOnUse">
<stop stop-color="white"/>
<stop offset="0.665" stop-color="white" stop-opacity="0.4"/>
</linearGradient>
</defs>
</svg>
