<svg viewBox="0 0 48 48" fill="none" xmlns="http://www.w3.org/2000/svg">
<path d="M36 13V35C36 35.2652 35.8946 35.5196 35.7071 35.7071C35.5196 35.8946 35.2652 36 35 36H33C32.7348 36 32.4804 35.8946 32.2929 35.7071C32.1054 35.5196 32 35.2652 32 35V13C32 12.7348 32.1054 12.4804 32.2929 12.2929C32.4804 12.1054 32.7348 12 33 12H35C35.2652 12 35.5196 12.1054 35.7071 12.2929C35.8946 12.4804 36 12.7348 36 13ZM14.58 11.8C14.3423 11.6443 14.0642 11.5613 13.78 11.5613C13.4958 11.5613 13.2177 11.6443 12.98 11.8L12.74 11.92C12.5262 12.0473 12.347 12.2251 12.2179 12.4378C12.0889 12.6505 12.0141 12.8916 12 13.14V34.84C12.0027 35.1017 12.0721 35.3584 12.2016 35.5859C12.331 35.8133 12.5163 36.004 12.74 36.14L12.98 36.26C13.2195 36.411 13.4969 36.4911 13.78 36.4911C14.0631 36.4911 14.3405 36.411 14.58 36.26L29.32 25.9C29.5164 25.7626 29.677 25.5801 29.7883 25.3678C29.8997 25.1556 29.9586 24.9197 29.96 24.68V23.44C29.9586 23.2003 29.8997 22.9644 29.7883 22.7522C29.677 22.5399 29.5164 22.3574 29.32 22.22L14.58 11.8Z" fill="white"/>
</svg>
