<svg viewBox="0 0 24 24" fill="none" xmlns="http://www.w3.org/2000/svg">
<path d="M9.5 4C6.8875 4 4.75 6.1375 4.75 8.75C4.75 11.3625 6.8875 13.5 9.5 13.5C12.1125 13.5 14.25 11.3625 14.25 8.75C14.25 6.1375 12.1125 4 9.5 4ZM9.5 11.2438C8.075 11.2438 7.00625 10.175 7.00625 8.75C7.00625 7.325 8.075 6.25625 9.5 6.25625C10.925 6.25625 11.9938 7.325 11.9938 8.75C11.9938 10.175 10.925 11.2438 9.5 11.2438ZM9.5 14.6875C6.29375 14.6875 0 16.2312 0 19.4375V23H19V19.4375C19 16.2312 12.7063 14.6875 9.5 14.6875ZM16.7438 20.7438H2.25625V19.4375C2.25625 18.725 5.9375 16.9437 9.5 16.9437C13.0625 16.9437 16.7438 18.725 16.7438 19.4375V20.7438Z" fill="white"/>
<path d="M17.6956 10.8707C19.7344 8.995 19.7344 6.16286 17.6956 4.12L16 5.68929C16.8478 6.785 16.8478 8.20571 16 9.30143L17.6956 10.8707Z" fill="white"/>
<path d="M21.0364 14C24.9727 10.3879 25.003 4.76071 21.0364 1L19.3913 2.51357C22.187 5.31786 22.187 9.53357 19.3913 12.4864L21.0364 14Z" fill="white"/>
</svg>
