<svg viewBox="0 0 48 48" fill="none" xmlns="http://www.w3.org/2000/svg">
<rect width="48" height="48" rx="12" fill="#1B1B1B"/>
<path fill-rule="evenodd" clip-rule="evenodd" d="M13.74 23.4997L17.68 27.4397C17.8274 27.577 17.9456 27.7426 18.0276 27.9266C18.1095 28.1106 18.1536 28.3092 18.1572 28.5106C18.1607 28.7121 18.1237 28.9121 18.0482 29.0989C17.9728 29.2857 17.8605 29.4553 17.7181 29.5978C17.5756 29.7402 17.406 29.8525 17.2192 29.9279C17.0324 30.0034 16.8324 30.0404 16.631 30.0369C16.4295 30.0333 16.2309 29.9892 16.0469 29.9073C15.8629 29.8253 15.6973 29.7071 15.56 29.5597L9.06 23.0597L8 21.9997L9.06 20.9397L15.56 14.4397C15.8443 14.1747 16.2204 14.0305 16.609 14.0373C16.9976 14.0442 17.3684 14.2016 17.6432 14.4764C17.9181 14.7513 18.0755 15.122 18.0823 15.5106C18.0892 15.8993 17.945 16.2753 17.68 16.5597L13.74 20.4997H33.5C35.2239 20.4997 36.8772 21.1845 38.0962 22.4035C39.3152 23.6225 40 25.2758 40 26.9997C40 28.7236 39.3152 30.3769 38.0962 31.5959C36.8772 32.8149 35.2239 33.4997 33.5 33.4997H29.5C29.1022 33.4997 28.7206 33.3417 28.4393 33.0604C28.158 32.779 28 32.3975 28 31.9997C28 31.6019 28.158 31.2203 28.4393 30.939C28.7206 30.6577 29.1022 30.4997 29.5 30.4997H33.5C34.4283 30.4997 35.3185 30.1309 35.9749 29.4746C36.6313 28.8182 37 27.928 37 26.9997C37 26.0714 36.6313 25.1812 35.9749 24.5248C35.3185 23.8684 34.4283 23.4997 33.5 23.4997H13.74Z" fill="white"/>
</svg>
