<svg viewBox="0 0 40 40" fill="none" xmlns="http://www.w3.org/2000/svg">
<path d="M4.99999 22.5C4.99999 25.4667 5.87973 28.3668 7.52795 30.8336C9.17617 33.3003 11.5188 35.2229 14.2597 36.3582C17.0006 37.4935 20.0166 37.7906 22.9263 37.2118C25.8361 36.633 28.5088 35.2044 30.6066 33.1066C32.7044 31.0088 34.133 28.3361 34.7118 25.4264C35.2906 22.5166 34.9935 19.5006 33.8582 16.7597C32.7229 14.0189 30.8003 11.6762 28.3335 10.028C25.8668 8.37973 22.9667 7.5 20 7.5H15M15 7.5L20 2.5M15 7.5L20 12.5" stroke="#1E1E1E" stroke-width="2" stroke-linecap="round" stroke-linejoin="round"/>
<path d="M20.035 27.6491C19.2821 27.6491 18.611 27.5106 18.0215 27.2336C17.4355 26.9566 16.9703 26.5748 16.6259 26.0883C16.2814 25.6018 16.1021 25.0443 16.0879 24.4157H18.3251C18.35 24.8383 18.5275 25.181 18.8578 25.4438C19.188 25.7066 19.5804 25.838 20.035 25.838C20.3972 25.838 20.7168 25.7581 20.9938 25.5983C21.2743 25.4349 21.4927 25.2094 21.649 24.9218C21.8088 24.6306 21.8887 24.2968 21.8887 23.9204C21.8887 23.5368 21.807 23.1995 21.6436 22.9083C21.4838 22.6171 21.2619 22.3898 20.9778 22.2265C20.6937 22.0631 20.3688 21.9797 20.003 21.9761C19.6834 21.9761 19.3727 22.0418 19.0708 22.1732C18.7725 22.3046 18.5399 22.4839 18.373 22.7112L16.3223 22.3437L16.839 16.5908H23.508V18.4765H18.7406L18.4583 21.2091H18.5222C18.714 20.9392 19.0034 20.7155 19.3904 20.5379C19.7775 20.3604 20.2108 20.2716 20.6902 20.2716C21.3471 20.2716 21.9331 20.426 22.448 20.735C22.9629 21.0439 23.3695 21.4683 23.6678 22.0081C23.9661 22.5443 24.1135 23.1622 24.1099 23.8618C24.1135 24.5969 23.943 25.2503 23.5985 25.822C23.2576 26.3902 22.78 26.8376 22.1657 27.1643C21.5549 27.4875 20.8446 27.6491 20.035 27.6491Z" fill="#1E1E1E"/>
</svg>
