<svg viewBox="0 0 40 40" fill="none" xmlns="http://www.w3.org/2000/svg">
<rect width="40" height="40" rx="12"/>
<path fill-rule="evenodd" clip-rule="evenodd" d="M12.305 19.6243L15.26 22.5793C15.3705 22.6823 15.4592 22.8065 15.5207 22.9445C15.5822 23.0825 15.6152 23.2314 15.6179 23.3825C15.6206 23.5336 15.5928 23.6836 15.5362 23.8237C15.4796 23.9638 15.3954 24.091 15.2886 24.1978C15.1817 24.3047 15.0545 24.3889 14.9144 24.4455C14.7743 24.502 14.6243 24.5298 14.4732 24.5272C14.3222 24.5245 14.1732 24.4914 14.0352 24.43C13.8972 24.3685 13.773 24.2798 13.67 24.1693L8.795 19.2943L8 18.4993L8.795 17.7043L13.67 12.8293C13.8833 12.6306 14.1653 12.5224 14.4568 12.5275C14.7482 12.5327 15.0263 12.6507 15.2324 12.8568C15.4386 13.063 15.5566 13.341 15.5618 13.6325C15.5669 13.9239 15.4587 14.206 15.26 14.4193L12.305 17.3743H27.125C28.4179 17.3743 29.6579 17.8879 30.5721 18.8021C31.4864 19.7164 32 20.9564 32 22.2493C32 23.5422 31.4864 24.7822 30.5721 25.6964C29.6579 26.6107 28.4179 27.1243 27.125 27.1243H24.125C23.8266 27.1243 23.5405 27.0058 23.3295 26.7948C23.1185 26.5838 23 26.2977 23 25.9993C23 25.7009 23.1185 25.4148 23.3295 25.2038C23.5405 24.9928 23.8266 24.8743 24.125 24.8743H27.125C27.8212 24.8743 28.4889 24.5977 28.9812 24.1054C29.4734 23.6132 29.75 22.9455 29.75 22.2493C29.75 21.5531 29.4734 20.8854 28.9812 20.3931C28.4889 19.9008 27.8212 19.6243 27.125 19.6243H12.305Z" fill="white"/>
</svg>