<svg viewBox="0 0 112 112" fill="none" xmlns="http://www.w3.org/2000/svg">
<path d="M38.36 59.36C37.7035 58.7043 37.3342 57.8146 37.3334 56.8867V55.1133C37.3441 54.1874 37.7119 53.3014 38.36 52.64L62.3467 28.7C62.5636 28.4813 62.8217 28.3077 63.106 28.1893C63.3904 28.0708 63.6953 28.0098 64.0034 28.0098C64.3114 28.0098 64.6164 28.0708 64.9007 28.1893C65.1851 28.3077 65.4431 28.4813 65.66 28.7L68.9734 32.0133C69.1907 32.2262 69.3633 32.4804 69.4812 32.7608C69.599 33.0413 69.6597 33.3424 69.6597 33.6467C69.6597 33.9509 69.599 34.252 69.4812 34.5325C69.3633 34.813 69.1907 35.0671 68.9734 35.28L48.2067 56L68.9734 76.72C69.1921 76.9369 69.3657 77.195 69.4841 77.4793C69.6026 77.7637 69.6636 78.0686 69.6636 78.3767C69.6636 78.6847 69.6026 78.9897 69.4841 79.274C69.3657 79.5583 69.1921 79.8164 68.9734 80.0333L65.66 83.3C65.4431 83.5187 65.1851 83.6923 64.9007 83.8108C64.6164 83.9292 64.3114 83.9902 64.0034 83.9902C63.6953 83.9902 63.3904 83.9292 63.106 83.8108C62.8217 83.6923 62.5636 83.5187 62.3467 83.3L38.36 59.36Z" fill="white"/>
</svg>
