<svg viewBox="0 0 71 30" fill="none" xmlns="http://www.w3.org/2000/svg">
<path fill-rule="evenodd" clip-rule="evenodd" d="M12.8885 1.90912C13.4385 1.41706 14.1506 1.14502 14.8886 1.14502H68C69.6569 1.14502 71 2.48817 71 4.14502V25.6289C71 27.2857 69.6569 28.6289 68 28.6289H14.9639C14.1809 28.6289 13.4289 28.3228 12.8686 27.7759L1.34688 16.5318C0.10387 15.3188 0.147523 13.3069 1.44198 12.1489L12.8885 1.90912Z" fill="#090909"/>
<path fill-rule="evenodd" clip-rule="evenodd" d="M48.7612 7.18506C48.3707 6.79454 47.7375 6.79454 47.347 7.18506L41.5762 12.9559L35.8053 7.18506C35.4148 6.79454 34.7816 6.79454 34.3911 7.18506L34.1858 7.39035C33.7953 7.78088 33.7953 8.41404 34.1858 8.80457L39.9567 14.5754L34.1857 20.3464C33.7952 20.7369 33.7952 21.3701 34.1857 21.7606L34.391 21.9659C34.7815 22.3564 35.4147 22.3564 35.8052 21.9659L41.5762 16.1949L47.3471 21.9659C47.7377 22.3564 48.3708 22.3564 48.7613 21.9659L48.9666 21.7606C49.3572 21.3701 49.3572 20.7369 48.9666 20.3464L43.1957 14.5754L48.9665 8.80457C49.357 8.41404 49.357 7.78088 48.9665 7.39035L48.7612 7.18506Z" fill="white" fill-opacity="0.6"/>
</svg>