<svg viewBox="0 0 48 28" fill="none" xmlns="http://www.w3.org/2000/svg">
<path fill-rule="evenodd" clip-rule="evenodd" d="M8.39145 1.21268C8.95734 0.449814 9.85107 0 10.8009 0H45.0002C46.6571 0 48.0002 1.34315 48.0002 3V25C48.0002 26.6569 46.6571 28 45.0002 28H10.8789C9.8856 28 8.95667 27.5083 8.39813 26.6869L0.55585 15.1538C-0.16177 14.0984 -0.133146 12.7045 0.627197 11.6795L8.39145 1.21268Z" fill="#8C8C92"/>
<path fill-rule="evenodd" clip-rule="evenodd" d="M32.6506 6.18296C32.2603 5.79265 31.6274 5.79265 31.2371 6.18296L25.4673 11.9528L19.6974 6.18296C19.3071 5.79265 18.6743 5.79265 18.284 6.18296L18.0779 6.38903C17.6876 6.77934 17.6876 7.41215 18.0779 7.80246L23.8478 13.5723L18.075 19.3451C17.6847 19.7354 17.6847 20.3682 18.075 20.7585L18.2811 20.9646C18.6714 21.3549 19.3042 21.3549 19.6945 20.9646L25.4673 15.1918L31.24 20.9646C31.6303 21.3549 32.2632 21.3549 32.6535 20.9646L32.8595 20.7585C33.2498 20.3682 33.2498 19.7354 32.8595 19.3451L27.0868 13.5723L32.8566 7.80246C33.2469 7.41215 33.2469 6.77934 32.8566 6.38903L32.6506 6.18296Z" fill="#121212"/>
</svg>