<svg viewBox="0 0 40 40" fill="none" xmlns="http://www.w3.org/2000/svg">
<path d="M16.2175 19.187L15.0794 20.0006L16.2175 20.8141L29.106 30.0269L30.6875 31.1574V29.2134V10.7877V8.84368L29.106 9.97417L16.2175 19.187ZM9 31.4585C9 31.4735 8.9986 31.4876 8.9963 31.5001H8.5037C8.5014 31.4876 8.5 31.4735 8.5 31.4585V8.5418C8.5 8.52673 8.5014 8.51271 8.5037 8.50013H8.9963C8.9986 8.51271 9 8.52673 9 8.5418V31.4585ZM14.5042 20.2039C14.3647 20.1042 14.3647 19.8969 14.5041 19.7972L30.7921 8.15429C30.9576 8.03602 31.1875 8.15429 31.1875 8.35767V31.6434C31.1875 31.8468 30.9576 31.9651 30.7921 31.8468L14.5042 20.2039Z" fill="white" stroke="white" stroke-width="2"/>
</svg>
