<svg viewBox="0 0 64 64" fill="none" xmlns="http://www.w3.org/2000/svg">
<path fill-rule="evenodd" clip-rule="evenodd" d="M25.1559 18C25.7081 18 26.1559 18.4477 26.1559 19V20.5H39.0559V19C39.0559 18.4477 39.5036 18 40.0559 18C40.6082 18 41.0559 18.4477 41.0559 19V20.5H44.6059C45.1581 20.5 45.6059 20.9477 45.6059 21.5V45.4C45.6059 45.9523 45.1581 46.4 44.6059 46.4H19.0059C18.4536 46.4 18.0059 45.9523 18.0059 45.4V21.5C18.0059 20.9477 18.4536 20.5 19.0059 20.5H24.1559V19C24.1559 18.4477 24.6036 18 25.1559 18ZM39.0559 22.5V24.6C39.0559 25.1523 39.5036 25.6 40.0559 25.6C40.6082 25.6 41.0559 25.1523 41.0559 24.6V22.5H43.6059V26L20.0059 26L20.0059 22.5H24.1559V24.6C24.1559 25.1523 24.6036 25.6 25.1559 25.6C25.7081 25.6 26.1559 25.1523 26.1559 24.6V22.5H39.0559ZM20.0059 28V44.4H43.6059V28L20.0059 28ZM24.4309 32.65C24.4309 32.0977 24.8786 31.65 25.4309 31.65H38.1809C38.7331 31.65 39.1809 32.0977 39.1809 32.65C39.1809 33.2023 38.7331 33.65 38.1809 33.65H25.4309C24.8786 33.65 24.4309 33.2023 24.4309 32.65ZM25.4309 35.55C24.8786 35.55 24.4309 35.9977 24.4309 36.55C24.4309 37.1023 24.8786 37.55 25.4309 37.55H38.1809C38.7331 37.55 39.1809 37.1023 39.1809 36.55C39.1809 35.9977 38.7331 35.55 38.1809 35.55H25.4309Z" fill="white"/>
</svg>
