<svg viewBox="0 0 33 32" fill="none" xmlns="http://www.w3.org/2000/svg">
<path d="M27.5261 21.6859L28.4669 16.2463C28.7018 14.8876 27.657 13.6449 26.2797 13.6449H19.3716C18.6869 13.6449 18.1655 13.0304 18.2764 12.354L19.1599 6.96124C19.3035 6.08515 19.2625 5.18868 19.0396 4.32938C18.8549 3.61754 18.3057 3.04595 17.5834 2.81392L17.3901 2.75182C16.9536 2.61159 16.4771 2.64422 16.0656 2.84254C15.6126 3.06083 15.2812 3.45899 15.1583 3.93253L14.5241 6.37767C14.3222 7.15566 14.0283 7.90662 13.6493 8.61617C13.0955 9.65291 12.2392 10.4826 11.3492 11.2496L9.43084 12.9027C8.88997 13.3687 8.60592 14.0668 8.66746 14.7786L9.75035 27.3021C9.84968 28.4508 10.8101 29.3327 11.9618 29.3327H18.1599C22.8017 29.3327 26.7631 26.0985 27.5261 21.6859Z" fill="white"/>
<path fill-rule="evenodd" clip-rule="evenodd" d="M4.45689 12.6474C4.99191 12.6243 5.45015 13.0268 5.49628 13.5604L6.79175 28.5424C6.87496 29.5048 6.11691 30.3342 5.14894 30.3342C4.23719 30.3342 3.5 29.5946 3.5 28.6846V13.6465C3.5 13.111 3.92187 12.6705 4.45689 12.6474Z" fill="white"/>
</svg>
