<svg viewBox="0 0 33 32" fill="none" xmlns="http://www.w3.org/2000/svg">
<path d="M27.4696 16.2259L26.2379 16.0129V16.0129L27.4696 16.2259ZM26.6073 21.2123L25.3756 20.9993L26.6073 21.2123ZM10.3128 26.3604L9.06748 26.4681L10.3128 26.3604ZM9.32019 14.8805L10.5655 14.7728L9.32019 14.8805ZM18.9383 7.71464L20.1718 7.91674V7.91674L18.9383 7.71464ZM18.1283 12.658L19.3619 12.8601V12.8601L18.1283 12.658ZM10.0199 13.1609L9.20396 12.214L9.20396 12.214L10.0199 13.1609ZM11.7784 11.6456L12.5944 12.5926L12.5944 12.5926L11.7784 11.6456ZM14.6887 7.1797L13.4788 6.86583V6.86583L14.6887 7.1797ZM15.2702 4.93832L16.4801 5.25218L16.4801 5.25218L15.2702 4.93832ZM17.3159 3.856L16.9336 5.0461L16.9336 5.0461L17.3159 3.856ZM17.4931 3.91292L17.8755 2.72282L17.8754 2.72282L17.4931 3.91292ZM13.8868 9.23165L14.9894 9.82061V9.82061L13.8868 9.23165ZM18.8279 5.3021L17.618 5.61596V5.61596L18.8279 5.3021ZM16.1018 3.93916L15.5592 2.81308V2.81308L16.1018 3.93916ZM6.68751 27.5749L5.44216 27.6826H5.44216L6.68751 27.5749ZM5.5 13.8414L6.74535 13.7337C6.68769 13.0668 6.11488 12.5637 5.44611 12.5925C4.77733 12.6214 4.25 13.172 4.25 13.8414H5.5ZM26.2379 16.0129L25.3756 20.9993L27.839 21.4253L28.7014 16.4389L26.2379 16.0129ZM18.0216 26.9718H12.34V29.4718H18.0216V26.9718ZM11.5582 26.2527L10.5655 14.7728L8.07483 14.9882L9.06748 26.4681L11.5582 26.2527ZM25.3756 20.9993C24.7853 24.4127 21.7016 26.9718 18.0216 26.9718V29.4718C22.8515 29.4718 27.0303 26.1016 27.839 21.4253L25.3756 20.9993ZM17.7047 7.51253L16.8948 12.4559L19.3619 12.8601L20.1718 7.91674L17.7047 7.51253ZM10.8359 14.1079L12.5944 12.5926L10.9624 10.6987L9.20396 12.214L10.8359 14.1079ZM15.8987 7.49356L16.4801 5.25218L14.0602 4.62445L13.4788 6.86583L15.8987 7.49356ZM16.9336 5.0461L17.1108 5.10302L17.8754 2.72282L17.6983 2.6659L16.9336 5.0461ZM14.9894 9.82061C15.383 9.08377 15.6887 8.30312 15.8987 7.49356L13.4788 6.86583C13.3188 7.48258 13.0855 8.07869 12.7843 8.64269L14.9894 9.82061ZM17.1108 5.10302C17.3808 5.18973 17.5603 5.39365 17.618 5.61596L20.0379 4.98823C19.757 3.90549 18.9297 3.0615 17.8755 2.72282L17.1108 5.10302ZM16.4801 5.25218C16.4975 5.18502 16.5496 5.11095 16.6444 5.06524L15.5592 2.81308C14.8235 3.16756 14.268 3.82346 14.0602 4.62445L16.4801 5.25218ZM16.6444 5.06524C16.7318 5.02313 16.8374 5.01518 16.9336 5.0461L17.6983 2.6659C16.9942 2.43973 16.2263 2.49161 15.5592 2.81308L16.6444 5.06524ZM19.1323 15.0914H25.4647V12.5914H19.1323V15.0914ZM7.93286 27.4672L6.74535 13.7337L4.25465 13.9491L5.44216 27.6826L7.93286 27.4672ZM6.75 27.6262V13.8414H4.25V27.6262H6.75ZM5.44216 27.6826C5.40923 27.3018 5.70928 26.9718 6.09486 26.9718V29.4718C7.178 29.4718 8.02594 28.5437 7.93286 27.4672L5.44216 27.6826ZM20.1718 7.91674C20.3315 6.9419 20.2859 5.9444 20.0379 4.98823L17.618 5.61596C17.7786 6.23517 17.8082 6.88119 17.7047 7.51253L20.1718 7.91674ZM12.34 26.9718C11.934 26.9718 11.5935 26.6607 11.5582 26.2527L9.06748 26.4681C9.2143 28.1662 10.6345 29.4718 12.34 29.4718V26.9718ZM12.5944 12.5926C13.4308 11.8718 14.3668 10.9862 14.9894 9.82061L12.7843 8.64269C12.3916 9.37783 11.7578 10.0133 10.9624 10.6987L12.5944 12.5926ZM28.7014 16.4389C29.0486 14.431 27.5045 12.5914 25.4647 12.5914V15.0914C25.9501 15.0914 26.3214 15.53 26.2379 16.0129L28.7014 16.4389ZM6.09486 26.9718C6.45802 26.9718 6.75 27.2661 6.75 27.6262H4.25C4.25 28.6442 5.07464 29.4718 6.09486 29.4718V26.9718ZM16.8948 12.4559C16.6688 13.8352 17.732 15.0914 19.1323 15.0914V12.5914C19.2774 12.5914 19.3847 12.7209 19.3619 12.8601L16.8948 12.4559ZM10.5655 14.7728C10.5437 14.5201 10.6446 14.2728 10.8359 14.1079L9.20396 12.214C8.40371 12.9036 7.98385 13.9359 8.07483 14.9882L10.5655 14.7728Z" fill="white"/>
</svg>
