<svg viewBox="0 0 40 40" fill="none" xmlns="http://www.w3.org/2000/svg">
<path d="M29.2584 37C28.7671 36.9996 28.2833 36.8777 27.8489 36.6449L20.4672 32.7127C20.323 32.6362 20.1627 32.5963 20 32.5963C19.8373 32.5963 19.677 32.6362 19.5329 32.7127L12.143 36.6449C11.6442 36.911 11.0818 37.0303 10.5196 36.9893C9.95733 36.9483 9.41762 36.7486 8.96151 36.413C8.5054 36.0773 8.15109 35.6189 7.93865 35.0898C7.72622 34.5606 7.66414 33.9818 7.75945 33.4188L9.16896 25.0891C9.19656 24.9264 9.18478 24.7593 9.13462 24.6022C9.08447 24.4451 8.99744 24.3027 8.88102 24.1872L2.91277 18.2878C2.5089 17.8891 2.22322 17.3838 2.08806 16.8291C1.9529 16.2743 1.97367 15.6923 2.148 15.1489C2.32234 14.6055 2.64328 14.1224 3.07451 13.7543C3.50574 13.3862 4.03004 13.1478 4.58806 13.066L12.8437 11.8416C13.005 11.8178 13.1582 11.7547 13.29 11.6576C13.4219 11.5606 13.5286 11.4326 13.6008 11.2845L17.2917 3.70581C17.5412 3.19376 17.927 2.76264 18.4056 2.4612C18.8842 2.15975 19.4365 2 20 2C20.5635 2 21.1158 2.15975 21.5944 2.4612C22.073 2.76264 22.4588 3.19376 22.7083 3.70581L26.3992 11.2845C26.4712 11.4329 26.5777 11.5614 26.7096 11.6588C26.8415 11.7562 26.9948 11.8196 27.1563 11.8437L35.4119 13.068C35.97 13.1498 36.4943 13.3882 36.9255 13.7564C37.3567 14.1245 37.6777 14.6076 37.852 15.151C38.0263 15.6944 38.0471 16.2764 37.9119 16.8311C37.7768 17.3858 37.4911 17.8912 37.0872 18.2899L31.117 24.1892C31.0002 24.3045 30.9128 24.4468 30.8623 24.604C30.8118 24.7611 30.7997 24.9282 30.827 25.0911L32.2365 33.4208C32.311 33.8603 32.2899 34.311 32.1746 34.7414C32.0592 35.1717 31.8525 35.5713 31.5688 35.9123C31.2852 36.2532 30.9314 36.5272 30.5323 36.7151C30.1333 36.903 29.6985 37.0002 29.2584 37ZM21.4055 30.9068L28.7832 34.8309C28.9495 34.9192 29.1368 34.9586 29.324 34.9448C29.5111 34.9309 29.6908 34.8643 29.8426 34.7525C29.9944 34.6406 30.1124 34.488 30.1831 34.3119C30.2539 34.1357 30.2747 33.943 30.2431 33.7555L28.8336 25.4258C28.7508 24.9365 28.7868 24.4341 28.9383 23.962C29.0899 23.4899 29.3525 23.0622 29.7034 22.7159L35.6737 16.8186C35.8083 16.6857 35.9035 16.5174 35.9486 16.3325C35.9937 16.1476 35.9869 15.9537 35.9288 15.7726C35.8708 15.5915 35.7639 15.4304 35.6202 15.3077C35.4766 15.1849 35.3019 15.1054 35.1159 15.078L26.8603 13.8536C26.3754 13.7824 25.9148 13.5926 25.5184 13.3007C25.122 13.0089 24.8016 12.6237 24.5849 12.1783L20.9001 4.61795C20.8098 4.45485 20.6782 4.31907 20.519 4.22457C20.3597 4.13007 20.1785 4.08025 19.994 4.08025C19.8094 4.08025 19.6282 4.13007 19.4689 4.22457C19.3097 4.31907 19.1782 4.45485 19.0878 4.61795L15.403 12.1967C15.186 12.6416 14.8655 13.0265 14.4691 13.318C14.0728 13.6095 13.6124 13.7989 13.1277 13.87L4.87198 15.0943C4.68602 15.1217 4.51134 15.2012 4.36768 15.324C4.22403 15.4467 4.11714 15.6078 4.0591 15.7889C4.00106 15.97 3.9942 16.164 4.03929 16.3488C4.08437 16.5337 4.17961 16.7021 4.31422 16.8349L10.2905 22.7261C10.6424 23.0735 10.9053 23.5026 11.0565 23.9762C11.2078 24.4499 11.2427 24.9537 11.1584 25.4442L9.74887 33.7738C9.71701 33.9616 9.73767 34.1547 9.8085 34.3312C9.87934 34.5076 9.99752 34.6605 10.1497 34.7724C10.3018 34.8843 10.4818 34.9509 10.6694 34.9644C10.8569 34.978 11.0444 34.9381 11.2107 34.8492L18.5865 30.9068C19.0209 30.6745 19.5047 30.5531 19.996 30.5531C20.4872 30.5531 20.971 30.6745 21.4055 30.9068Z" fill="white"/>
</svg>
