<svg width="40" height="40" viewBox="0 0 40 40" fill="none" xmlns="http://www.w3.org/2000/svg">
<path fill-rule="evenodd" clip-rule="evenodd" d="M19.3746 4.53091C19.8059 4.1859 19.8758 3.5566 19.5308 3.12534C19.1858 2.69408 18.5565 2.62416 18.1253 2.96917L11.8753 7.96917C11.638 8.15894 11.5 8.44625 11.5 8.75004C11.5 9.05382 11.638 9.34113 11.8753 9.53091L18.1253 14.5309C18.5565 14.8759 19.1858 14.806 19.5308 14.3747C19.8758 13.9435 19.8059 13.3142 19.3746 12.9692L14.1007 8.75004L19.3746 4.53091ZM28.1317 13.1183C25.8859 10.8725 22.9444 9.74995 19.9996 9.75004C19.4473 9.75005 18.9996 9.30235 18.9996 8.75007C18.9996 8.19778 19.4473 7.75005 19.9995 7.75004C23.4531 7.74993 26.9099 9.06815 29.5459 11.7041C34.818 16.9762 34.818 25.5239 29.5459 30.796C24.2738 36.0681 15.7261 36.0681 10.454 30.796C7.38773 27.7297 6.10544 23.5544 6.60506 19.5641C6.67367 19.0161 7.17354 18.6275 7.72154 18.6961C8.26955 18.7647 8.65817 19.2646 8.58956 19.8126C8.16334 23.2167 9.25692 26.7705 11.8682 29.3818C16.3593 33.8728 23.6407 33.8728 28.1317 29.3818C32.6227 24.8907 32.6227 17.6093 28.1317 13.1183Z" fill="white"/>
</svg>
