<svg viewBox="0 0 40 40" fill="none" xmlns="http://www.w3.org/2000/svg">
<path d="M33.712 20.2814L32.7267 20.111L33.712 20.2814ZM32.6341 26.5144L31.6488 26.344L32.6341 26.5144ZM12.266 32.9496L11.2698 33.0357L12.266 32.9496ZM11.0252 18.5997L12.0215 18.5135V18.5135L11.0252 18.5997ZM23.0478 9.64232L24.0347 9.80401V9.80401L23.0478 9.64232ZM22.0354 15.8215L23.0223 15.9832L22.0354 15.8215ZM11.8999 16.4502L11.2471 15.6927H11.2471L11.8999 16.4502ZM14.098 14.5561L14.7508 15.3136H14.7508L14.098 14.5561ZM17.7359 8.97364L16.768 8.72255H16.768L17.7359 8.97364ZM18.4627 6.17192L19.4307 6.42301V6.42301L18.4627 6.17192ZM21.0199 4.81902L20.7141 5.7711L20.7141 5.7711L21.0199 4.81902ZM21.2414 4.89017L21.5473 3.93809L21.5473 3.93809L21.2414 4.89017ZM16.7335 11.5386L17.6156 12.0098L16.7335 11.5386ZM22.9099 6.62664L21.942 6.87774V6.87774L22.9099 6.62664ZM19.5023 4.92297L19.0681 4.02211V4.02211L19.5023 4.92297ZM7.73439 34.4676L6.7381 34.5538L7.73439 34.4676ZM6.25 17.3007L7.24628 17.2146C7.20015 16.6811 6.74191 16.2786 6.20689 16.3017C5.67187 16.3248 5.25 16.7652 5.25 17.3007H6.25ZM32.7267 20.111L31.6488 26.344L33.6195 26.6848L34.6974 20.4518L32.7267 20.111ZM21.902 34.2763H14.8V36.2763H21.902V34.2763ZM13.2623 32.8634L12.0215 18.5135L10.029 18.6858L11.2698 33.0357L13.2623 32.8634ZM31.6488 26.344C30.8617 30.8949 26.7607 34.2763 21.902 34.2763V36.2763C27.6806 36.2763 32.6578 32.246 33.6195 26.6848L31.6488 26.344ZM22.061 9.48063L21.0486 15.6598L23.0223 15.9832L24.0347 9.80401L22.061 9.48063ZM12.5527 17.2077L14.7508 15.3136L13.4452 13.7985L11.2471 15.6927L12.5527 17.2077ZM18.7039 9.22474L19.4307 6.42301L17.4947 5.92083L16.768 8.72255L18.7039 9.22474ZM20.7141 5.7711L20.9356 5.84225L21.5473 3.93809L21.3258 3.86694L20.7141 5.7711ZM17.6156 12.0098C18.0868 11.1276 18.4526 10.1933 18.7039 9.22474L16.768 8.72255C16.5567 9.53687 16.2489 10.3235 15.8515 11.0674L17.6156 12.0098ZM20.9356 5.84225C21.4495 6.00734 21.8197 6.40625 21.942 6.87774L23.8779 6.37555C23.577 5.21572 22.6886 4.30475 21.5473 3.93809L20.9356 5.84225ZM19.4307 6.42301C19.4953 6.17395 19.6736 5.95045 19.9364 5.82383L19.0681 4.02211C18.2928 4.39574 17.7116 5.0847 17.4947 5.92083L19.4307 6.42301ZM19.9364 5.82383C20.176 5.70834 20.457 5.68852 20.7141 5.7711L21.3258 3.86694C20.5825 3.62816 19.7716 3.68312 19.0681 4.02211L19.9364 5.82383ZM23.2904 18.3007H31.2059V16.3007H23.2904V18.3007ZM8.73067 34.3815L7.24628 17.2146L5.25372 17.3869L6.7381 34.5538L8.73067 34.3815ZM7.25 34.5318V17.3007H5.25V34.5318H7.25ZM6.7381 34.5538C6.7253 34.4057 6.84207 34.2763 6.99358 34.2763V36.2763C8.01704 36.2763 8.81867 35.3992 8.73067 34.3815L6.7381 34.5538ZM24.0347 9.80401C24.2217 8.66274 24.1683 7.49495 23.8779 6.37555L21.942 6.87774C22.1624 7.72757 22.203 8.61417 22.061 9.48063L24.0347 9.80401ZM14.8 34.2763C14.0001 34.2763 13.3315 33.6636 13.2623 32.8634L11.2698 33.0357C11.4282 34.868 12.9605 36.2763 14.8 36.2763V34.2763ZM14.7508 15.3136C15.7871 14.4206 16.889 13.3699 17.6156 12.0098L15.8515 11.0674C15.3089 12.0832 14.4486 12.9339 13.4452 13.7985L14.7508 15.3136ZM34.6974 20.4518C35.0721 18.285 33.4058 16.3007 31.2059 16.3007V18.3007C32.1623 18.3007 32.8904 19.1642 32.7267 20.111L34.6974 20.4518ZM6.99358 34.2763C7.13627 34.2763 7.25 34.3918 7.25 34.5318H5.25C5.25 35.4942 6.02956 36.2763 6.99358 36.2763V34.2763ZM21.0486 15.6598C20.8221 17.0423 21.8877 18.3007 23.2904 18.3007V16.3007C23.124 16.3007 22.9948 16.1509 23.0223 15.9832L21.0486 15.6598ZM12.0215 18.5135C11.9786 18.0177 12.1765 17.5319 12.5527 17.2077L11.2471 15.6927C10.3838 16.4366 9.93077 17.5504 10.029 18.6858L12.0215 18.5135Z" fill="white"/>
</svg>
