<svg viewBox="0 0 40 40" fill="none" xmlns="http://www.w3.org/2000/svg">
<circle cx="20" cy="20" r="5" stroke="white" stroke-width="2"/>
<path d="M22.9411 3.58577C22.3285 3.33203 21.552 3.33203 19.9988 3.33203C18.4457 3.33203 17.6691 3.33203 17.0566 3.58577C16.2398 3.92408 15.5909 4.57299 15.2526 5.38975C15.0981 5.7626 15.0377 6.1962 15.014 6.82868C14.9793 7.75817 14.5026 8.61852 13.6971 9.08358C12.8916 9.54864 11.9082 9.53126 11.0859 9.09663C10.5263 8.80086 10.1205 8.6364 9.72042 8.58373C8.84393 8.46833 7.9575 8.70585 7.25613 9.24403C6.7301 9.64766 6.34182 10.3202 5.56525 11.6653C4.78868 13.0103 4.40039 13.6828 4.31385 14.3402C4.19846 15.2167 4.43598 16.1031 4.97415 16.8045C5.2198 17.1246 5.56503 17.3937 6.10084 17.7304C6.88852 18.2253 7.39534 19.0685 7.39529 19.9987C7.39524 20.9289 6.88844 21.7719 6.10083 22.2668C5.56494 22.6035 5.21966 22.8726 4.97399 23.1928C4.43581 23.8942 4.19829 24.7806 4.31369 25.6571C4.40023 26.3144 4.78852 26.987 5.56508 28.332C6.34165 29.6771 6.72994 30.3496 7.25596 30.7533C7.95733 31.2914 8.84376 31.5289 9.72026 31.4136C10.1204 31.3609 10.5261 31.1964 11.0856 30.9007C11.908 30.466 12.8915 30.4487 13.697 30.9138C14.5026 31.3789 14.9793 32.2393 15.0141 33.1688C15.0377 33.8012 15.0981 34.2348 15.2526 34.6076C15.5909 35.4244 16.2398 36.0733 17.0566 36.4116C17.6691 36.6654 18.4457 36.6654 19.9988 36.6654C21.552 36.6654 22.3285 36.6654 22.9411 36.4116C23.7579 36.0733 24.4068 35.4244 24.7451 34.6076C24.8996 34.2348 24.96 33.8012 24.9836 33.1687C25.0184 32.2392 25.495 31.3789 26.3005 30.9138C27.106 30.4486 28.0896 30.466 28.912 30.9006C29.4715 31.1963 29.8772 31.3608 30.2773 31.4134C31.1538 31.5288 32.0402 31.2913 32.7416 30.7531C33.2676 30.3495 33.6559 29.677 34.4324 28.3319C35.209 26.9869 35.5973 26.3143 35.6838 25.657C35.7992 24.7805 35.5617 23.894 35.0235 23.1927C34.7779 22.8725 34.4326 22.6034 33.8968 22.2667C33.1091 21.7718 32.6023 20.9287 32.6024 19.9985C32.6024 19.0684 33.1092 18.2255 33.8968 17.7307C34.4327 17.3939 34.778 17.1248 35.0237 16.8046C35.5619 16.1032 35.7994 15.2168 35.684 14.3403C35.5975 13.683 35.2092 13.0104 34.4326 11.6654C33.656 10.3203 33.2677 9.64778 32.7417 9.24414C32.0404 8.70597 31.1539 8.46845 30.2774 8.58384C29.8773 8.63651 29.4716 8.80096 28.9121 9.09669C28.0897 9.53135 27.1062 9.54873 26.3007 9.08363C25.4951 8.61854 25.0184 7.75813 24.9836 6.8286C24.96 6.19616 24.8995 5.76258 24.7451 5.38975C24.4068 4.57299 23.7579 3.92408 22.9411 3.58577Z" stroke="white" stroke-width="2"/>
</svg>
