<svg viewBox="0 0 42 39" fill="none" xmlns="http://www.w3.org/2000/svg">
<path d="M20.1405 0.344373C20.6195 -0.114791 21.3805 -0.114791 21.8595 0.344373L41.6242 19.2888C41.9856 19.6352 42.0985 20.1639 41.9096 20.6254C41.7208 21.0869 41.2679 21.3889 40.7647 21.3889H29.517V31.7778C29.517 32.4528 28.9639 33 28.2817 33H13.7183C13.036 33 12.483 32.4528 12.483 31.7778V21.3889H1.23533C0.732133 21.3889 0.279227 21.0869 0.090356 20.6254C-0.0985146 20.1639 0.0144041 19.6352 0.375822 19.2888L20.1405 0.344373Z" fill="#8C8C92"/>
<path fill-rule="evenodd" clip-rule="evenodd" d="M8.74229e-08 38C3.91406e-08 37.4477 0.55306 37 1.23529 37L40.7647 37C41.4469 37 42 37.4477 42 38C42 38.5523 41.4469 39 40.7647 39L1.23529 39C0.55306 39 1.35705e-07 38.5523 8.74229e-08 38Z" fill="#8C8C92"/>
</svg>
