<svg viewBox="0 0 64 64" fill="none" xmlns="http://www.w3.org/2000/svg">
    <path d="M38.2986 43.4169C38.5894 42.0732 38.3719 40.8229 38.3719 40.8229C37.5189 42.058 36.681 42.999 35.9056 43.7165C33.8163 43.8261 32.189 43.5558 32.189 43.5558C32.189 43.5558 33.1195 44.4947 34.1943 45.0352C32.776 45.9208 31.8271 45.9968 31.8271 45.9968C38.0337 46.1303 41.7611 42.0461 41.7611 42.0461C40.7132 42.7429 39.4994 43.1673 38.2986 43.4169ZM32.1869 43.5558C32.1869 43.5558 30.9247 43.0501 29.1175 42.0222C29.18 40.926 29.3491 39.5335 29.6926 37.7633C29.6926 37.7633 28.2549 39.1959 26.3939 40.3074C25.2296 39.4998 24.1214 38.6132 23.0768 37.6537C23.0768 37.6537 23.6131 39.3251 24.6481 41.1659C23.6648 41.5349 22.6546 41.7075 21.7274 41.4806C21.7274 41.4806 22.8194 42.8547 26.1903 43.4397C27.1251 44.5533 28.2635 45.4769 29.5935 45.7993C29.5935 45.7993 29.194 45.3543 29.1035 43.6958C30.0254 43.7089 31.0485 43.6698 32.1869 43.5558ZM24.7407 31.1317C23.2362 31.1784 22.0569 31.313 21.135 31.4812C20.9838 30.5571 20.8842 29.6251 20.8367 28.6897C20.171 29.6988 19.6578 30.802 19.3139 31.9631C18.2649 32.3538 18 32.7348 18 32.7348C18.1637 33.297 18.4911 33.8462 18.9025 34.3596C18.7733 36.7919 19.5551 38.3982 19.5551 38.3982C19.7307 37.5451 20.0807 36.7159 20.5223 35.9388C21.3242 36.5815 22.1787 37.1545 23.0768 37.6515C22.4759 36.5705 22.0375 35.3592 21.7112 34.1848C22.6082 33.0594 23.624 32.0357 24.7407 31.1317ZM21.2632 25.2686C22.0924 24.4651 22.9762 23.7209 23.9082 23.0415C23.9082 23.0415 22.9346 23.0415 21.904 23.3052C22.5857 21.6414 23.3407 20.7221 23.3407 20.7221C23.3407 20.7221 19.0027 23.8316 18.1799 29.419C18.1799 29.419 18.5428 28.4097 19.7802 26.8836C20.2702 27.9929 20.8356 28.6897 20.8356 28.6897C20.8443 27.4155 21.0144 26.2682 21.2632 25.2686ZM35.6945 20.6732C34.649 20.1403 33.5529 19.7148 32.4227 19.4034C33.7248 18.2952 34.9363 18.013 34.9363 18.013C33.0968 17.9317 31.2604 18.232 29.5408 18.8954C27.2931 18.7131 25.8608 19.1081 25.8608 19.1081C26.1989 19.3632 26.4822 19.819 26.7719 20.3672C24.8743 21.6761 23.9082 23.0415 23.9082 23.0415C25.0485 22.4813 26.2397 22.0335 27.4654 21.7043C27.5947 21.9474 27.7347 22.1884 27.8855 22.4239C28.3692 23.1821 28.9266 23.89 29.5494 24.5371C29.8595 23.0447 30.3959 21.8834 31.0097 20.9826C33.6817 20.6092 35.6945 20.6732 35.6945 20.6732ZM45.2709 27.1745C44.6279 25.7191 43.6521 24.4378 42.4234 23.4355C41.4714 21.4232 40.375 20.4931 40.375 20.4931C40.4676 20.9554 40.3966 21.4818 40.2264 22.0234C37.8571 20.8371 35.6956 20.6754 35.6956 20.6754C37.0741 21.5838 38.2954 22.7115 39.3444 23.8739C38.3783 25.4597 37.1053 26.7979 37.1053 26.7979C38.7897 26.4148 40.1467 26.2531 41.2334 26.2248C42.8962 28.5366 43.7933 30.4762 43.7933 30.4762C43.8308 29.0986 43.7032 27.7214 43.4131 26.3746C44.8229 26.646 45.2709 27.1745 45.2709 27.1745ZM46 32.9736C45.5854 33.627 44.9543 34.0915 44.2122 34.4182C44.1442 33.0964 44.0043 31.7793 43.7933 30.4729C43.2232 32.0265 42.5733 33.5492 41.8461 35.0347C39.6168 35.3234 37.4306 34.9934 37.4306 34.9934C38.6314 36.4413 39.5608 37.3009 40.3158 37.8827C39.1893 39.7983 38.3719 40.8229 38.3719 40.8229C39.9485 40.4593 41.2032 39.8558 42.1994 39.1373C42.6086 39.4217 42.9576 39.7365 43.3054 40.2694C43.3054 40.2694 43.9484 39.3512 44.1702 37.2195C45.7631 35.1248 46 32.9736 46 32.9736ZM32.1244 33.7496C31.268 35.0586 30.4562 36.3973 29.6926 37.7633C29.6926 37.7633 29.1003 35.7087 28.8795 32.7522C27.4744 32.2797 26.0928 31.7389 24.7396 31.1317C24.7396 31.1317 26.3131 30.3286 28.8267 29.3463C28.8989 27.8095 29.11 26.1717 29.5504 24.536C29.5504 24.536 30.3765 26.0707 31.8821 28.2479C33.5989 27.6767 35.3428 27.1921 37.1075 26.7957C37.1075 26.7957 35.7182 28.5345 33.9531 31.0503C35.0385 32.43 36.2002 33.7468 37.4327 34.9945C37.4295 34.9945 35.1657 34.5962 32.1244 33.7496Z" fill="white" fill-opacity="0.6"/>
</svg>
