<svg viewBox="0 0 41 40" fill="none" xmlns="http://www.w3.org/2000/svg">
<rect x="3.83398" y="3.33325" width="33.3333" height="33.3333" rx="4" fill="#ED2C25"/>
<path d="M16.4858 26.7719C16.5773 26.8694 16.6878 26.9471 16.8105 27.0002C16.9332 27.0533 17.0654 27.0807 17.1991 27.0807C17.3328 27.0807 17.4651 27.0533 17.5877 27.0002C17.7104 26.9471 17.8209 26.8694 17.9124 26.7719L29.3659 15.3184C29.4614 15.2237 29.5372 15.111 29.5889 14.9868C29.6407 14.8626 29.6673 14.7294 29.6673 14.5949C29.6673 14.4604 29.6407 14.3272 29.5889 14.203C29.5372 14.0789 29.4614 13.9662 29.3659 13.8714L28.2858 12.7913C28.0953 12.6046 27.8392 12.5 27.5725 12.5C27.3057 12.5 27.0497 12.6046 26.8592 12.7913L17.1991 22.4514L14.1421 19.4147C14.0506 19.3173 13.9401 19.2396 13.8175 19.1865C13.6948 19.1334 13.5625 19.106 13.4288 19.106C13.2951 19.106 13.1629 19.1334 13.0402 19.1865C12.9175 19.2396 12.807 19.3173 12.7155 19.4147L11.6354 20.4949C11.5399 20.5896 11.4641 20.7023 11.4124 20.8265C11.3606 20.9507 11.334 21.0838 11.334 21.2184C11.334 21.3529 11.3606 21.4861 11.4124 21.6103C11.4641 21.7344 11.5399 21.8471 11.6354 21.9419L16.4858 26.7719Z" fill="white"/>
</svg>
