<svg viewBox="0 0 24 24" fill="none" xmlns="http://www.w3.org/2000/svg">
<path fill-rule="evenodd" clip-rule="evenodd" d="M12 22C17.523 22 22 17.523 22 12C22 6.477 17.523 2 12 2C6.477 2 2 6.477 2 12C2 17.523 6.477 22 12 22ZM15.536 8.464C15.7238 8.27649 15.9783 8.17126 16.2437 8.17144C16.5091 8.17163 16.7635 8.27723 16.951 8.465C17.1385 8.65277 17.2437 8.90734 17.2436 9.17271C17.2434 9.43807 17.1378 9.69249 16.95 9.88L11.297 15.533L11.293 15.537C11.2003 15.6302 11.0902 15.7041 10.9689 15.7546C10.8475 15.8051 10.7174 15.831 10.586 15.831C10.4546 15.831 10.3245 15.8051 10.2031 15.7546C10.0818 15.7041 9.97165 15.6302 9.879 15.537L9.875 15.533L7.05 12.708C6.95449 12.6158 6.87831 12.5054 6.8259 12.3834C6.77349 12.2614 6.7459 12.1302 6.74475 11.9974C6.7436 11.8646 6.7689 11.7329 6.81918 11.61C6.86946 11.4872 6.94371 11.3755 7.0376 11.2816C7.1315 11.1877 7.24315 11.1135 7.36605 11.0632C7.48894 11.0129 7.62062 10.9876 7.7534 10.9887C7.88618 10.9899 8.0174 11.0175 8.1394 11.0699C8.26141 11.1223 8.37175 11.1985 8.464 11.294L10.586 13.415L15.536 8.465V8.464Z" fill="white"/>
</svg>