<svg viewBox="0 0 40 40" fill="none" xmlns="http://www.w3.org/2000/svg">
<rect width="40" height="40" rx="20" fill="#303032"/>
<path d="M13.6999 21.2C13.4654 20.9658 13.3335 20.6481 13.3333 20.3167V19.6834C13.3371 19.3527 13.4684 19.0362 13.6999 18.8L22.2666 10.25C22.3441 10.1719 22.4362 10.1099 22.5378 10.0676C22.6393 10.0253 22.7482 10.0035 22.8583 10.0035C22.9683 10.0035 23.0772 10.0253 23.1787 10.0676C23.2803 10.1099 23.3724 10.1719 23.4499 10.25L24.6333 11.4334C24.7109 11.5094 24.7725 11.6002 24.8146 11.7003C24.8567 11.8005 24.8784 11.9081 24.8784 12.0167C24.8784 12.1254 24.8567 12.2329 24.8146 12.3331C24.7725 12.4332 24.7109 12.524 24.6333 12.6L17.2166 20L24.6333 27.4C24.7114 27.4775 24.7734 27.5697 24.8157 27.6712C24.858 27.7728 24.8798 27.8817 24.8798 27.9917C24.8798 28.1017 24.858 28.2106 24.8157 28.3122C24.7734 28.4137 24.7114 28.5059 24.6333 28.5834L23.4499 29.75C23.3724 29.8281 23.2803 29.8901 23.1787 29.9324C23.0772 29.9748 22.9683 29.9965 22.8583 29.9965C22.7482 29.9965 22.6393 29.9748 22.5378 29.9324C22.4362 29.8901 22.3441 29.8281 22.2666 29.75L13.6999 21.2Z" fill="#8C8C92"/>
</svg>
