<svg viewBox="0 0 121 120" fill="none" xmlns="http://www.w3.org/2000/svg">
<path d="M97.0456 38.8119L101.452 34.4991C103.165 32.8231 103.165 30.1057 101.452 28.4306C99.7398 26.7546 96.9642 26.7546 95.2518 28.4306L90.8451 32.7434C83.4519 26.7143 74.468 23.0721 64.8848 22.2194V13.5828H69.1233C71.5448 13.5828 73.5076 11.661 73.5076 9.291C73.5076 6.92101 71.5448 5 69.1233 5H51.8767C49.4552 5 47.4924 6.92101 47.4924 9.291C47.4924 11.661 49.4552 13.5828 51.8767 13.5828H56.1152V22.2194C32.1262 24.3544 13 44.0781 13 68.5107C13 94.2046 34.2442 115 60.5004 115C86.7524 115 108 94.208 108 68.5107C108 57.5352 104.138 47.1413 97.0456 38.8119ZM60.4996 106.417C39.1439 106.417 21.7687 89.4126 21.7687 68.5107C21.7687 47.6096 39.1439 30.605 60.4996 30.605C81.8561 30.605 99.2305 47.6096 99.2305 68.5107C99.2305 89.4126 81.8561 106.417 60.4996 106.417ZM80.8194 48.6242C82.5318 50.3001 82.5318 53.0176 80.8194 54.6927L63.6002 71.5453C61.8878 73.2213 59.1113 73.2213 57.3998 71.5453C55.6874 69.8694 55.6874 67.1519 57.3998 65.4768L74.6181 48.6242C76.3305 46.9482 79.107 46.9482 80.8194 48.6242Z" fill="white"/>
</svg>
