<svg viewBox="0 0 172 172" fill="none" xmlns="http://www.w3.org/2000/svg">
<path d="M143.378 90.6371C142.979 90.7442 142.559 90.7914 142.133 90.7716L83.4546 88.0717C81.9197 88.0011 80.5539 87.0753 79.9196 85.6756C79.2853 84.276 79.4896 82.6389 80.4483 81.4381L111.648 42.366C112.465 41.343 113.722 40.7731 115.03 40.8335C116.337 40.8935 117.537 41.5766 118.256 42.6703L145.736 84.4423C146.58 85.7262 146.633 87.3752 145.873 88.7107C145.324 89.6751 144.418 90.3586 143.378 90.6371Z" fill="#F15B55"/>
<path d="M38.6869 118.954C37.6599 119.229 36.5472 119.097 35.5954 118.551C34.2621 117.787 33.4706 116.34 33.5459 114.805L36.0016 64.8649C36.066 63.5573 36.7527 62.3597 37.8484 61.6438C38.9442 60.9281 40.3167 60.7801 41.5399 61.2465L88.2598 79.0586C89.6956 79.6059 90.7031 80.9127 90.8675 82.4402C91.032 83.968 90.3257 85.4592 89.0394 86.2995L39.8641 118.427C39.4964 118.668 39.0983 118.843 38.6869 118.954Z" fill="#F15B55"/>
<path d="M152.808 113.804L41.7474 143.563C39.7591 144.095 37.685 143.066 36.9062 141.161L12.3315 81.0497C11.7633 79.66 12.0029 78.0705 12.9554 76.9097C13.908 75.7492 15.4208 75.2045 16.8941 75.4904L50.9871 82.1133L67.5704 31.057C67.9981 29.7403 69.0628 28.7297 70.3999 28.3715C71.737 28.0132 73.1644 28.356 74.1932 29.2824L114.083 65.2071L140.295 42.4257C141.429 41.4407 143.011 41.1568 144.416 41.6852C145.821 42.2139 146.824 43.4707 147.027 44.9586L155.8 109.304C156.078 111.343 154.796 113.271 152.808 113.804Z" fill="#F4E614"/>
<path d="M93.0496 112.897C92.3678 113.08 91.6392 113.086 90.9337 112.897L76.6493 109.07C75.2389 108.692 74.1371 107.59 73.7592 106.18L69.9316 91.8951C69.5537 90.4846 69.957 88.9796 70.9896 87.9472L81.4462 77.4901C82.479 76.4574 83.984 76.0541 85.3943 76.4323L99.6788 80.2599C101.089 80.6377 102.191 81.7395 102.569 83.15L106.396 97.4345C106.774 98.845 106.371 100.35 105.339 101.382L94.8816 111.839C94.3657 112.356 93.731 112.715 93.0496 112.897Z" fill="#D2C50A"/>
<path d="M144.417 41.6846C143.012 41.1561 141.43 41.4401 140.296 42.4251L114.084 65.2065L74.1939 29.2818C73.1652 28.3557 71.7378 28.0126 70.4007 28.3709C70.4004 28.371 70.4002 28.371 70.3999 28.3711L97.2783 128.683L152.809 113.803C154.797 113.271 156.079 111.343 155.801 109.303L147.027 44.9578C146.824 43.4701 145.822 42.2133 144.417 41.6846Z" fill="#D2C50A"/>
<path d="M59.4441 106.715C59.73 104.477 58.1473 102.43 55.9089 102.144C53.6706 101.858 51.6242 103.441 51.3382 105.679C51.0523 107.918 52.635 109.964 54.8734 110.25C57.1117 110.536 59.1581 108.953 59.4441 106.715Z" fill="#D2C509"/>
<path d="M123.337 92.227C125.517 91.6427 126.811 89.4015 126.227 87.221C125.643 85.0405 123.402 83.7465 121.221 84.3308C119.041 84.915 117.747 87.1563 118.331 89.3368C118.915 91.5172 121.156 92.8112 123.337 92.227Z" fill="#F7ED4F"/>
<path d="M157.049 129.601L45.9762 159.363C39.4452 161.113 32.7082 157.223 30.9582 150.692C29.2083 144.161 33.0979 137.424 39.6288 135.674L150.702 105.912C157.233 104.162 163.97 108.052 165.72 114.583C167.47 121.114 163.58 127.851 157.049 129.601Z" fill="#D2C50A"/>
<path d="M99.6787 80.2592L85.3942 76.4315C84.6888 76.2425 83.9596 76.2489 83.2776 76.4316L93.0483 112.896L93.0491 112.896C93.7305 112.714 94.3653 112.355 94.8814 111.838L105.338 101.381C106.371 100.349 106.774 98.844 106.396 97.4335L102.569 83.149C102.191 81.739 101.089 80.6373 99.6787 80.2592Z" fill="#ABA108"/>
<path d="M150.701 105.912L95.1642 120.793L101.512 144.482L157.049 129.6C163.58 127.85 167.469 121.113 165.719 114.582C163.969 108.051 157.232 104.162 150.701 105.912Z" fill="#F4E614"/>
</svg>
