<svg viewBox="0 0 32 32" fill="none" xmlns="http://www.w3.org/2000/svg">
<path d="M16 0C12.8355 0 9.74207 0.938384 7.11088 2.69649C4.4797 4.45459 2.42894 6.95345 1.21793 9.87706C0.00693253 12.8007 -0.309921 16.0177 0.307443 19.1214C0.924806 22.2251 2.44866 25.0761 4.6863 27.3137C6.92394 29.5513 9.77487 31.0752 12.8786 31.6926C15.9823 32.3099 19.1993 31.9931 22.1229 30.7821C25.0466 29.5711 27.5454 27.5203 29.3035 24.8891C31.0616 22.2579 32 19.1645 32 16C32 11.7565 30.3143 7.68687 27.3137 4.68629C24.3131 1.68571 20.2435 0 16 0ZM24.5486 17.0057L11.9771 23.8629C11.8034 23.9632 11.6063 24.016 11.4057 24.016C11.2051 24.016 11.008 23.9632 10.8343 23.8629C10.6624 23.7583 10.5212 23.6103 10.4249 23.4337C10.3286 23.2571 10.2806 23.0582 10.2857 22.8571V9.14286C10.2858 8.94452 10.3374 8.74961 10.4356 8.57728C10.5338 8.40496 10.6751 8.26115 10.8457 8.16C11.0195 8.05969 11.2165 8.00688 11.4171 8.00688C11.6178 8.00688 11.8148 8.05969 11.9886 8.16L24.56 15.0171C24.7414 15.1151 24.893 15.2602 24.9986 15.4373C25.1043 15.6144 25.16 15.8167 25.16 16.0229C25.16 16.229 25.1043 16.4314 24.9986 16.6084C24.893 16.7855 24.7414 16.9306 24.56 17.0286L24.5486 17.0057Z" fill="#E72432"/>
</svg>