<svg viewBox="0 0 41 40" fill="none" xmlns="http://www.w3.org/2000/svg">
<path d="M10.4997 3.33334H30.4997C30.9417 3.33334 31.3656 3.50894 31.6782 3.8215C31.9908 4.13406 32.1663 4.55798 32.1663 5.00001V35C32.1663 35.442 31.9908 35.866 31.6782 36.1785C31.3656 36.4911 30.9417 36.6667 30.4997 36.6667H10.4997C10.0576 36.6667 9.63372 36.4911 9.32116 36.1785C9.0086 35.866 8.83301 35.442 8.83301 35V5.00001C8.83301 4.55798 9.0086 4.13406 9.32116 3.8215C9.63372 3.50894 10.0576 3.33334 10.4997 3.33334ZM20.4997 28.3333C20.0576 28.3333 19.6337 28.5089 19.3212 28.8215C19.0086 29.1341 18.833 29.558 18.833 30C18.833 30.442 19.0086 30.866 19.3212 31.1785C19.6337 31.4911 20.0576 31.6667 20.4997 31.6667C20.9417 31.6667 21.3656 31.4911 21.6782 31.1785C21.9907 30.866 22.1663 30.442 22.1663 30C22.1663 29.558 21.9907 29.1341 21.6782 28.8215C21.3656 28.5089 20.9417 28.3333 20.4997 28.3333Z" fill="white"/>
</svg>
