<svg viewBox="0 0 68 68" fill="none" xmlns="http://www.w3.org/2000/svg">
<path d="M34 0.666656C27.4073 0.666656 20.9626 2.62162 15.481 6.28434C9.99936 9.94705 5.72694 15.153 3.20402 21.2439C0.681099 27.3347 0.0209882 34.037 1.30716 40.503C2.59334 46.969 5.76803 52.9085 10.4298 57.5702C15.0915 62.232 21.031 65.4067 27.497 66.6928C33.963 67.979 40.6653 67.3189 46.7561 64.796C52.847 62.2731 58.0529 58.0006 61.7157 52.519C65.3784 47.0374 67.3333 40.5927 67.3333 34C67.3333 29.6226 66.4711 25.2881 64.796 21.2439C63.1208 17.1997 60.6655 13.5251 57.5702 10.4298C54.4749 7.33448 50.8003 4.87916 46.7561 3.20401C42.7119 1.52885 38.3774 0.666656 34 0.666656V0.666656ZM44 26.5C44 26.942 43.8244 27.3659 43.5119 27.6785C43.1993 27.9911 42.7754 28.1667 42.3333 28.1667H39.8333C39.3913 28.1667 38.9674 27.9911 38.6548 27.6785C38.3423 27.3659 38.1667 26.942 38.1667 26.5V23.1667H29.8333V26.1C29.8265 26.2222 29.8504 26.3442 29.9028 26.4548C29.9552 26.5654 30.0344 26.6612 30.1333 26.7333L41.5667 36.1667C42.3253 36.7903 42.9368 37.5738 43.3575 38.4612C43.7781 39.3486 43.9975 40.3179 44 41.3V44C44 45.7681 43.2976 47.4638 42.0474 48.714C40.7971 49.9643 39.1014 50.6667 37.3333 50.6667V52.3333C37.3333 52.7754 37.1577 53.1993 36.8452 53.5118C36.5326 53.8244 36.1087 54 35.6667 54H32.3333C31.8913 54 31.4674 53.8244 31.1548 53.5118C30.8423 53.1993 30.6667 52.7754 30.6667 52.3333V50.6667C28.8986 50.6667 27.2029 49.9643 25.9526 48.714C24.7024 47.4638 24 45.7681 24 44V41.5C24 41.058 24.1756 40.634 24.4882 40.3215C24.8007 40.0089 25.2246 39.8333 25.6667 39.8333H28.1667C28.6087 39.8333 29.0326 40.0089 29.3452 40.3215C29.6577 40.634 29.8333 41.058 29.8333 41.5V44.8333H38.1667V41.9C38.1735 41.7778 38.1496 41.6558 38.0972 41.5452C38.0448 41.4345 37.9656 41.3388 37.8667 41.2667L26.4333 31.8333C25.6747 31.2097 25.0632 30.4262 24.6425 29.5388C24.2219 28.6514 24.0025 27.682 24 26.7V24C24 22.2319 24.7024 20.5362 25.9526 19.2859C27.2029 18.0357 28.8986 17.3333 30.6667 17.3333V15.6667C30.6667 15.2246 30.8423 14.8007 31.1548 14.4881C31.4674 14.1756 31.8913 14 32.3333 14H35.6667C36.1087 14 36.5326 14.1756 36.8452 14.4881C37.1577 14.8007 37.3333 15.2246 37.3333 15.6667V17.3333C39.1014 17.3333 40.7971 18.0357 42.0474 19.2859C43.2976 20.5362 44 22.2319 44 24V26.5Z" fill="white"/>
</svg>
