<svg viewBox="0 0 256 256" fill="none" xmlns="http://www.w3.org/2000/svg">
<rect width="256" height="256" fill="#121212"/>
<path d="M192.844 99.1448C179.081 99.1448 167.627 108.874 165.178 121.729C164.781 121.215 164.358 120.72 163.909 120.243C162.179 118.408 160.143 116.912 157.799 115.76C155.457 114.606 152.927 113.925 150.212 113.714L157.481 98.8477H142.627L130.089 124.728C129.8 125.297 129.535 125.877 129.294 126.466C128.77 125.359 128.135 124.294 127.388 123.273C125.179 120.258 122.397 117.989 119.041 116.469L127.666 98.8477H101.163L96.0407 112.063H106.343L98.7563 127.717H110.337C111.349 127.717 112.293 127.9 113.172 128.267C114.052 128.635 114.823 129.132 115.489 129.762C116.155 130.391 116.699 131.138 117.126 132.004C117.551 132.87 117.792 133.775 117.845 134.719C117.792 135.663 117.553 136.554 117.126 137.393C116.701 138.232 116.155 138.966 115.489 139.597C114.822 140.226 114.05 140.724 113.172 141.092C112.293 141.458 111.349 141.643 110.337 141.643C106.93 141.643 104.108 140.095 101.873 137.002L100.835 135.669L100.197 136.294L92.6094 143.374C94.6865 146.992 97.2826 149.81 100.395 151.829C103.51 153.848 106.825 154.857 110.339 154.857C112.787 154.857 115.129 154.451 117.367 153.638C119.604 152.824 121.626 151.71 123.436 150.294C125.247 148.879 126.777 147.186 128.028 145.22C128.58 144.352 129.058 143.448 129.47 142.515C130.486 144.731 131.819 146.71 133.485 148.446C135.269 150.307 137.357 151.802 139.755 152.929C142.15 154.057 144.731 154.7 147.502 154.857H149.737C152.453 154.7 155.008 154.058 157.403 152.929C159.799 151.802 161.889 150.307 163.673 148.446C165.456 146.585 166.867 144.447 167.906 142.035C168.098 141.587 168.267 141.132 168.424 140.674C173.282 148.999 182.4 154.605 192.848 154.605C208.396 154.605 221 142.19 221 126.876C221 111.562 208.392 99.1448 192.844 99.1448ZM155.523 137.156C155.124 138.047 154.592 138.821 153.926 139.475C153.165 140.225 152.231 140.801 151.125 141.209C150.481 141.445 149.801 141.585 149.116 141.623C147.856 141.693 146.705 141.503 145.66 141.049C144.755 140.655 143.956 140.13 143.265 139.475C142.573 138.821 142.026 138.047 141.627 137.156C141.246 136.304 141.047 135.38 141.03 134.383C141.013 133.353 141.216 132.322 141.627 131.375C142.027 130.456 142.573 129.67 143.265 129.016C143.956 128.36 144.755 127.836 145.66 127.443C146.699 126.991 147.842 126.8 149.092 126.867C149.781 126.904 150.466 127.042 151.113 127.279C152.225 127.685 153.162 128.266 153.926 129.016C154.571 129.652 155.09 130.41 155.486 131.291C155.885 132.183 156.104 133.153 156.119 134.129C156.137 135.223 155.937 136.231 155.523 137.156ZM207.923 133.19C207.058 135.125 205.901 136.803 204.456 138.225C202.769 139.887 200.688 141.163 198.212 142.048C196.896 142.518 195.513 142.799 194.117 142.884C191.347 143.052 188.814 142.639 186.518 141.641C184.554 140.787 182.82 139.649 181.32 138.225C179.816 136.803 178.632 135.125 177.765 133.19C176.9 131.254 176.466 129.15 176.466 126.873C176.466 124.595 176.9 122.632 177.765 120.641C178.634 118.65 179.816 116.942 181.32 115.518C182.821 114.095 184.554 112.957 186.518 112.104C188.818 111.105 191.356 110.692 194.132 110.862C195.527 110.948 196.908 111.23 198.222 111.701C200.693 112.586 202.771 113.859 204.456 115.518C205.9 116.94 207.057 118.648 207.922 120.641C208.791 122.632 209.221 124.709 209.221 126.873C209.221 129.15 208.791 131.256 207.923 133.19Z" fill="#474747"/>
<path d="M187.98 121.083V132.464C187.982 132.751 188.059 133.033 188.204 133.281C188.348 133.529 188.555 133.735 188.804 133.878C189.053 134.021 189.335 134.097 189.622 134.097C189.909 134.098 190.192 134.023 190.441 133.88L195.403 131.031L200.365 128.187C200.615 128.045 200.823 127.84 200.967 127.593C201.112 127.345 201.188 127.063 201.188 126.776C201.188 126.489 201.112 126.208 200.967 125.96C200.823 125.712 200.615 125.507 200.365 125.366L195.403 122.516L190.441 119.672C190.192 119.528 189.91 119.452 189.623 119.451C189.336 119.45 189.053 119.525 188.804 119.668C188.555 119.811 188.347 120.017 188.203 120.265C188.058 120.513 187.982 120.795 187.98 121.083Z" fill="#474747"/>
<path d="M89.3415 98.8477C87.9654 98.8477 86.7369 99.7036 86.2711 100.987L79.2612 120.312C79.0662 120.725 78.872 120.931 78.6779 120.931C78.4282 120.931 78.2336 120.724 78.0954 120.312L71.0591 100.916C70.609 99.6752 69.4217 98.8477 68.0917 98.8477H34V99.6499C34 102.399 36.2476 104.627 39.0204 104.627H44.826V127.741H52.3208V104.627H64.6684L72.6406 124.192C73.695 126.779 75.7073 128.072 78.6779 128.072C80.3989 128.072 81.7035 127.728 82.5919 127.04C83.48 126.352 84.1743 125.403 84.6736 124.192L95.0419 98.8477H89.341H89.3415Z" fill="#474747"/>
</svg>
