<svg viewBox="-208 -80 1041 400" fill="none" xmlns="http://www.w3.org/2000/svg">
<path d="M537.269 113.574C541.92 116.253 541.92 122.962 537.269 125.641L516.217 137.802L495.166 149.962C490.514 152.641 484.714 149.287 484.714 143.929V119.608V95.2872C484.714 89.9292 490.514 86.5746 495.166 89.2536L516.217 101.414L537.269 113.574Z" fill="white" fill-opacity="0.87"/>
<path d="M83.8878 0L82.824 2.86537L72.667 29.2516L61.4385 0H45.8304H45.5275H0V13.3562H15.3674V56.593H30.463V13.6047L50.6992 13.4416L67.278 56.593H78.0639L99.8065 0H83.8878Z" fill="white" fill-opacity="0.87"/>
<path d="M505.322 1.2735C447.23 1.2735 398.884 42.965 388.549 98.0516C386.871 95.8462 385.085 93.7263 383.19 91.6841C375.891 83.8179 367.295 77.4116 357.402 72.4729C347.517 67.5265 336.84 64.6067 325.378 63.706L356.059 0H293.362L240.442 110.903C239.223 113.341 238.105 115.826 237.088 118.35C234.875 113.605 232.196 109.039 229.043 104.668C219.717 91.7462 207.976 82.0241 193.812 75.5091L230.215 0H118.35L96.7312 56.6318H140.216L108.193 123.708H157.075C161.346 123.708 165.329 124.492 169.041 126.069C172.753 127.645 176.006 129.773 178.817 132.475C181.628 135.169 183.927 138.369 185.728 142.08C187.522 145.792 188.539 149.667 188.765 153.713C188.539 157.758 187.53 161.579 185.728 165.174C183.935 168.77 181.628 171.914 178.817 174.617C176.006 177.311 172.745 179.447 169.041 181.023C165.329 182.592 161.346 183.384 157.075 183.384C142.694 183.384 130.782 176.752 121.347 163.497L116.967 157.782L114.273 160.461L82.249 190.799C91.016 206.307 101.973 218.382 115.111 227.032C128.258 235.683 142.251 240.008 157.083 240.008C167.418 240.008 177.303 238.268 186.746 234.782C196.188 231.295 204.722 226.52 212.363 220.455C220.004 214.39 226.465 207.138 231.745 198.712C234.075 194.993 236.094 191.118 237.833 187.119C242.12 196.616 247.749 205.095 254.777 212.534C262.309 220.509 271.123 226.916 281.241 231.746C291.351 236.576 302.246 239.332 313.94 240.008H323.375C334.836 239.332 345.622 236.583 355.733 231.746C365.843 226.916 374.664 220.509 382.197 212.534C389.721 204.559 395.677 195.397 400.064 185.061C400.872 183.143 401.586 181.194 402.246 179.229C422.754 214.903 461.239 238.928 505.338 238.928C570.962 238.928 624.161 185.729 624.161 120.105C624.161 54.4809 570.946 1.2735 505.322 1.2735ZM347.797 164.157C346.112 167.977 343.867 171.293 341.056 174.096C338.245 176.907 334.875 179.152 330.946 180.837C327.017 182.522 322.909 183.36 318.638 183.36C314.142 183.36 309.988 182.522 306.167 180.837C302.347 179.152 298.977 176.9 296.057 174.096C293.137 171.293 290.831 167.977 289.146 164.157C287.461 160.336 286.622 156.182 286.622 151.686C286.622 147.415 287.469 143.315 289.146 139.386C290.831 135.449 293.137 132.079 296.057 129.276C298.977 126.465 302.347 124.22 306.167 122.535C309.988 120.85 314.142 120.012 318.638 120.012C322.909 120.012 327.009 120.85 330.946 122.535C334.875 124.22 338.245 126.472 341.056 129.276C343.867 132.087 346.112 135.457 347.797 139.386C349.482 143.315 350.32 147.423 350.32 151.686C350.328 156.182 349.482 160.336 347.797 164.157ZM568.966 147.159C565.316 155.452 560.432 162.643 554.336 168.738C548.24 174.834 540.926 179.719 532.392 183.376C523.858 187.033 514.951 188.858 505.687 188.858C495.934 188.858 486.911 187.033 478.625 183.376C470.332 179.719 463.017 174.842 456.681 168.738C450.336 162.643 445.336 155.452 441.678 147.159C438.029 138.866 436.196 129.85 436.196 120.089C436.196 110.825 438.029 101.919 441.678 93.3847C445.343 84.8507 450.336 77.5358 456.681 71.4324C463.017 65.3367 470.332 60.4601 478.625 56.8027C486.911 53.1452 495.934 51.3204 505.687 51.3204C514.951 51.3204 523.858 53.1452 532.392 56.8027C540.926 60.4601 548.24 65.3367 554.336 71.4324C560.432 77.5281 565.316 84.8429 568.966 93.3847C572.631 101.919 574.448 110.818 574.448 120.089C574.448 129.85 572.631 138.873 568.966 147.159Z" fill="white" fill-opacity="0.87"/>
</svg>