<svg viewBox="128 72 515 291" fill="none" xmlns="http://www.w3.org/2000/svg">
<path d="M527.869 155.678C497.987 155.678 473.118 176.891 467.802 204.919C466.94 203.798 466.021 202.719 465.046 201.68C461.291 197.678 456.869 194.417 451.781 191.905C446.696 189.388 441.203 187.903 435.308 187.445L451.09 155.03H418.84L391.618 211.459C390.992 212.699 390.416 213.964 389.893 215.248C388.755 212.834 387.376 210.511 385.755 208.286C380.958 201.712 374.918 196.765 367.633 193.45L386.358 155.03H328.816L317.696 183.845H340.064L323.592 217.974H348.736C350.933 217.974 352.982 218.373 354.891 219.175C356.801 219.976 358.474 221.059 359.92 222.434C361.366 223.806 362.548 225.433 363.474 227.322C364.397 229.211 364.921 231.182 365.036 233.241C364.921 235.299 364.401 237.243 363.474 239.072C362.552 240.902 361.366 242.502 359.92 243.877C358.473 245.248 356.796 246.335 354.891 247.137C352.982 247.934 350.933 248.338 348.736 248.338C341.338 248.338 335.212 244.964 330.358 238.22L328.105 235.312L326.719 236.675L310.246 252.112C314.756 260.002 320.392 266.146 327.15 270.547C333.912 274.949 341.11 277.149 348.739 277.149C354.055 277.149 359.14 276.265 363.997 274.49C368.855 272.716 373.244 270.287 377.175 267.201C381.106 264.115 384.428 260.424 387.144 256.138C388.343 254.246 389.381 252.274 390.276 250.24C392.481 255.071 395.376 259.386 398.991 263.171C402.866 267.229 407.399 270.489 412.604 272.946C417.805 275.404 423.409 276.806 429.424 277.149H434.278C440.173 276.806 445.722 275.407 450.922 272.946C456.122 270.488 460.66 267.229 464.535 263.171C468.405 259.114 471.469 254.452 473.725 249.192C474.141 248.217 474.508 247.225 474.848 246.225C485.397 264.376 505.193 276.6 527.876 276.6C561.632 276.6 588.998 249.532 588.998 216.142C588.998 182.751 561.625 155.678 527.869 155.678ZM446.84 238.555C445.972 240.499 444.818 242.186 443.372 243.612C441.72 245.246 439.693 246.503 437.29 247.391C435.893 247.907 434.417 248.212 432.929 248.295C430.194 248.448 427.695 248.032 425.425 247.042C423.46 246.184 421.726 245.038 420.225 243.612C418.723 242.186 417.536 240.499 416.67 238.555C415.841 236.697 415.411 234.683 415.374 232.51C415.336 230.264 415.777 228.015 416.67 225.951C417.537 223.948 418.723 222.233 420.225 220.807C421.726 219.377 423.46 218.235 425.425 217.377C427.682 216.393 430.162 215.976 432.877 216.121C434.373 216.202 435.859 216.504 437.264 217.02C439.678 217.905 441.714 219.172 443.371 220.807C444.773 222.194 445.9 223.847 446.758 225.768C447.626 227.713 448.1 229.828 448.134 231.956C448.172 234.341 447.738 236.539 446.84 238.555ZM560.605 229.907C558.728 234.127 556.215 237.785 553.08 240.886C549.417 244.51 544.897 247.292 539.523 249.22C536.666 250.246 533.663 250.859 530.631 251.044C524.618 251.411 519.117 250.509 514.134 248.334C509.868 246.472 506.106 243.991 502.847 240.886C499.583 237.785 497.011 234.127 495.13 229.907C493.252 225.687 492.31 221.1 492.31 216.134C492.31 211.168 493.252 206.888 495.13 202.546C497.015 198.205 499.583 194.482 502.847 191.377C506.107 188.275 509.868 185.794 514.134 183.934C519.126 181.754 524.637 180.854 530.664 181.226C533.693 181.412 536.691 182.028 539.545 183.055C544.909 184.985 549.421 187.759 553.079 191.377C556.214 194.478 558.727 198.201 560.604 202.546C562.49 206.888 563.424 211.416 563.424 216.134C563.424 221.1 562.491 225.691 560.605 229.907Z" fill="#474747"/>
<path d="M517.312 203.507V228.323C517.316 228.949 517.484 229.563 517.797 230.103C518.111 230.644 518.561 231.093 519.101 231.405C519.641 231.718 520.254 231.882 520.877 231.883C521.501 231.884 522.113 231.721 522.655 231.411L533.428 225.197L544.201 218.996C544.743 218.689 545.194 218.242 545.508 217.701C545.822 217.161 545.988 216.547 545.988 215.921C545.988 215.296 545.822 214.682 545.508 214.141C545.194 213.601 544.743 213.154 544.201 212.846L533.428 206.633L522.655 200.432C522.115 200.118 521.502 199.952 520.879 199.95C520.255 199.949 519.641 200.112 519.1 200.423C518.559 200.735 518.109 201.184 517.795 201.725C517.481 202.266 517.315 202.881 517.312 203.507" fill="#474747"/>
<path d="M303.153 155.03C300.165 155.03 297.498 156.896 296.487 159.696L281.268 201.829C280.844 202.729 280.423 203.179 280.001 203.179C279.459 203.179 279.037 202.728 278.737 201.829L263.46 159.54C262.483 156.835 259.905 155.03 257.017 155.03H183V156.779C183 162.773 187.88 167.63 193.9 167.63H206.505V218.028H222.777V167.63H249.585L266.893 210.29C269.183 215.929 273.552 218.748 280.001 218.748C283.738 218.748 286.57 217.999 288.499 216.498C290.427 215 291.935 212.929 293.019 210.29L315.529 155.03H303.152H303.153Z" fill="#474747"/>
</svg>
