<svg viewBox="0 0 80 80" fill="none" xmlns="http://www.w3.org/2000/svg">
<mask id="mask0" mask-type="alpha" maskUnits="userSpaceOnUse" x="0" y="0" width="80" height="80">
<path fill-rule="evenodd" clip-rule="evenodd" d="M40 80C62.0914 80 80 62.0914 80 40C80 17.9086 62.0914 0 40 0C17.9086 0 0 17.9086 0 40C0 62.0914 17.9086 80 40 80Z" fill="white"/>
</mask>
<g mask="url(#mask0)">
<rect width="80" height="80" fill="#4D4D4D"/>
<path fill-rule="evenodd" clip-rule="evenodd" d="M40.0002 58.5235C43.1181 58.5235 46.0514 57.744 48.8002 56.185C51.4668 54.7491 53.6617 52.7594 55.3848 50.2158C55.3437 48.6568 54.3797 47.2209 52.4925 45.9081C50.8514 44.8004 48.7591 43.8978 46.2155 43.2004C43.9181 42.585 41.8361 42.2773 39.9694 42.2773C38.1027 42.2773 36.0207 42.585 33.7232 43.2004C31.1796 43.8978 29.1079 44.8004 27.5078 45.9081C25.6207 47.2209 24.6566 48.6568 24.6155 50.2158C26.3386 52.7594 28.5335 54.7491 31.2002 56.185C33.9899 57.744 36.9232 58.5235 40.0002 58.5235ZM40.0006 22.0927C38.6468 22.0927 37.375 22.4414 36.1853 23.1389C34.9955 23.8363 34.0519 24.7799 33.3545 25.9697C32.6571 27.1594 32.3084 28.4312 32.3084 29.7851C32.3084 31.1389 32.6571 32.4107 33.3545 33.6005C34.0519 34.7902 34.9955 35.7338 36.1853 36.4312C37.375 37.1287 38.6468 37.4774 40.0006 37.4774C41.3545 37.4774 42.6263 37.1287 43.816 36.4312C45.0057 35.7338 45.9493 34.7902 46.6468 33.6005C47.3442 32.4107 47.6929 31.1389 47.6929 29.7851C47.6929 28.4312 47.3442 27.1594 46.6468 25.9697C45.9493 24.7799 45.0057 23.8363 43.816 23.1389C42.6263 22.4414 41.3545 22.0927 40.0006 22.0927ZM40.0004 14.4004C44.6773 14.4004 49.0055 15.5696 52.985 17.9081C56.8414 20.1235 59.8773 23.1593 62.0927 27.0158C64.4312 30.9953 65.6004 35.3234 65.6004 40.0004C65.6004 44.6773 64.4312 49.0055 62.0927 52.985C59.8773 56.8414 56.8414 59.8773 52.985 62.0927C49.0055 64.4312 44.6773 65.6004 40.0004 65.6004C35.3234 65.6004 30.9953 64.4312 27.0158 62.0927C23.1593 59.8363 20.1235 56.7799 17.9081 52.9235C15.5696 48.944 14.4004 44.6363 14.4004 40.0004C14.4004 35.3645 15.5696 31.0568 17.9081 27.0773C20.1645 23.2209 23.2209 20.1645 27.0773 17.9081C31.0568 15.5696 35.3645 14.4004 40.0004 14.4004Z" fill="white" fill-opacity="0.87"/>
</g>
</svg>