<svg viewBox="0 0 56 33" fill="none" xmlns="http://www.w3.org/2000/svg">
<path d="M31.3502 31.3035C30.6945 31.96 29.8048 32.3293 28.8769 32.3301H27.1035C26.1776 32.3194 25.2916 31.9516 24.6302 31.3035L0.690201 7.31678C0.471501 7.09988 0.297901 6.84178 0.179501 6.55748C0.0610006 6.27308 0 5.96818 0 5.66008C0 5.35208 0.0610006 5.04708 0.179501 4.76278C0.297901 4.47838 0.471501 4.22038 0.690201 4.00348L4.0035 0.690083C4.2164 0.472783 4.4706 0.300178 4.751 0.182278C5.0315 0.0644777 5.3326 0.00378036 5.6369 0.00378036C5.9411 0.00378036 6.2422 0.0644777 6.5227 0.182278C6.8032 0.300178 7.0573 0.472783 7.2702 0.690083L27.9902 21.4568L48.7102 0.690083C48.9271 0.471383 49.1852 0.297779 49.4695 0.179379C49.7539 0.0608785 50.0588 -0.000118256 50.3669 -0.000118256C50.6749 -0.000118256 50.9799 0.0608785 51.2642 0.179379C51.5485 0.297779 51.8066 0.471383 52.0235 0.690083L55.2902 4.00348C55.5089 4.22038 55.6825 4.47838 55.801 4.76278C55.9194 5.04708 55.9804 5.35208 55.9804 5.66008C55.9804 5.96818 55.9194 6.27308 55.801 6.55748C55.6825 6.84178 55.5089 7.09988 55.2902 7.31678L31.3502 31.3035Z" fill="white"/>
</svg>
