<svg viewBox="0 0 40 40" fill="none" xmlns="http://www.w3.org/2000/svg">
<path fill-rule="evenodd" clip-rule="evenodd" d="M20 40C8.9543 40 0 31.0457 0 20C0 8.9543 8.9543 0 20 0C31.0457 0 40 8.9543 40 20C40 31.0457 31.0457 40 20 40Z" fill="white"/>
<path d="M17.8193 21.5596C17.8193 22.667 17.6201 23.6484 17.2217 24.5039C16.8291 25.3535 16.2666 26.0127 15.5342 26.4814C14.8018 26.9443 13.958 27.1758 13.0029 27.1758C11.5615 27.1758 10.3955 26.6631 9.50488 25.6377C8.61426 24.6123 8.16895 23.2295 8.16895 21.4893V19.6436C8.16895 18.542 8.36523 17.5635 8.75781 16.708C9.15625 15.8525 9.72168 15.1934 10.4541 14.7305C11.1924 14.2617 12.0361 14.0273 12.9854 14.0273C13.9404 14.0273 14.7842 14.2617 15.5166 14.7305C16.2549 15.1934 16.8232 15.8555 17.2217 16.7168C17.6201 17.5723 17.8193 18.5479 17.8193 19.6436V21.5596ZM17.3447 19.626C17.3447 18.0791 16.9521 16.8398 16.167 15.9082C15.3818 14.9707 14.3213 14.502 12.9854 14.502C11.667 14.502 10.6152 14.9678 9.83008 15.8994C9.04492 16.8252 8.65234 18.0879 8.65234 19.6875V21.5596C8.65234 22.5791 8.82812 23.4814 9.17969 24.2666C9.53711 25.0459 10.0439 25.6465 10.7002 26.0684C11.3564 26.4902 12.124 26.7012 13.0029 26.7012C14.3389 26.7012 15.3965 26.2354 16.1758 25.3037C16.9551 24.3721 17.3447 23.1006 17.3447 21.4893V19.626ZM25.4686 20.2676L23.4207 22.1572V27H22.9461V14.2031H23.4207V21.6035L25.5301 19.5381L30.8387 14.2031H31.5242L25.8201 19.9424L31.9637 27H31.3484L25.4686 20.2676Z" fill="black"/>
<path d="M17.2217 24.5039L16.3152 24.0817L16.3139 24.0845L17.2217 24.5039ZM15.5342 26.4814L16.0684 27.3268L16.0732 27.3237L15.5342 26.4814ZM8.75781 16.708L7.8513 16.2858L7.84894 16.2909L8.75781 16.708ZM10.4541 14.7305L10.9884 15.5758L10.9901 15.5747L10.4541 14.7305ZM15.5166 14.7305L14.9775 15.5728L14.9854 15.5777L15.5166 14.7305ZM17.2217 16.7168L16.3141 17.1366L16.3152 17.139L17.2217 16.7168ZM16.167 15.9082L15.4003 16.5503L15.4023 16.5526L16.167 15.9082ZM9.83008 15.8994L10.5927 16.5462L10.5947 16.5438L9.83008 15.8994ZM9.17969 24.2666L8.26697 24.6753L8.27073 24.6835L9.17969 24.2666ZM16.8193 21.5596C16.8193 22.5462 16.6422 23.3795 16.3152 24.0817L18.1282 24.9261C18.598 23.9174 18.8193 22.7878 18.8193 21.5596H16.8193ZM16.3139 24.0845C15.995 24.7746 15.5545 25.2812 14.9951 25.6392L16.0732 27.3237C16.9787 26.7442 17.6632 25.9324 18.1295 24.9234L16.3139 24.0845ZM14.9999 25.6361C14.4435 25.9878 13.7889 26.1758 13.0029 26.1758V28.1758C14.1271 28.1758 15.16 27.9009 16.0684 27.3268L14.9999 25.6361ZM13.0029 26.1758C11.831 26.1758 10.9477 25.7739 10.2599 24.9819L8.74991 26.2934C9.84329 27.5523 11.292 28.1758 13.0029 28.1758V26.1758ZM10.2599 24.9819C9.56756 24.1849 9.16895 23.0581 9.16895 21.4893H7.16895C7.16895 23.4009 7.66096 25.0397 8.74991 26.2934L10.2599 24.9819ZM9.16895 21.4893V19.6436H7.16895V21.4893H9.16895ZM9.16895 19.6436C9.16895 18.6616 9.34353 17.8293 9.66668 17.1251L7.84894 16.2909C7.38694 17.2977 7.16895 18.4223 7.16895 19.6436H9.16895ZM9.66431 17.1302C9.98931 16.4324 10.4324 15.9271 10.9883 15.5758L9.91985 13.8851C9.01094 14.4596 8.32319 15.2726 7.85131 16.2858L9.66431 17.1302ZM10.9901 15.5747C11.5545 15.2164 12.2091 15.0273 12.9854 15.0273V13.0273C11.8632 13.0273 10.8303 13.3071 9.91809 13.8863L10.9901 15.5747ZM12.9854 15.0273C13.7689 15.0273 14.4217 15.217 14.9775 15.5727L16.0557 13.8882C15.1466 13.3064 14.112 13.0273 12.9854 13.0273V15.0273ZM14.9854 15.5777C15.5448 15.9285 15.9895 16.4349 16.3141 17.1366L18.1293 16.297C17.657 15.276 16.9649 14.4583 16.0478 13.8832L14.9854 15.5777ZM16.3152 17.139C16.6429 17.8426 16.8193 18.6703 16.8193 19.6436H18.8193C18.8193 18.4254 18.5974 17.302 18.1282 16.2946L16.3152 17.139ZM16.8193 19.6436V21.5596H18.8193V19.6436H16.8193ZM18.3447 19.626C18.3447 17.9084 17.9061 16.42 16.9317 15.2638L15.4023 16.5526C15.9982 17.2597 16.3447 18.2498 16.3447 19.626H18.3447ZM16.9336 15.2661C15.9394 14.079 14.5862 13.502 12.9854 13.502V15.502C14.0564 15.502 14.8242 15.8624 15.4003 16.5503L16.9336 15.2661ZM12.9854 13.502C11.3996 13.502 10.0576 14.0777 9.06542 15.255L10.5947 16.5438C11.1729 15.8579 11.9344 15.502 12.9854 15.502V13.502ZM9.06742 15.2526C8.08604 16.4098 7.65234 17.9272 7.65234 19.6875H9.65234C9.65234 18.2486 10.0038 17.2406 10.5927 16.5462L9.06742 15.2526ZM7.65234 19.6875V21.5596H9.65234V19.6875H7.65234ZM7.65234 21.5596C7.65234 22.6942 7.84822 23.74 8.267 24.6753L10.0924 23.8579C9.80803 23.2229 9.65234 22.464 9.65234 21.5596H7.65234ZM8.27073 24.6835C8.69964 25.6187 9.32669 26.3742 10.1594 26.9095L11.241 25.2272C10.7612 24.9188 10.3746 24.4731 10.0886 23.8497L8.27073 24.6835ZM10.1594 26.9095C10.9968 27.4478 11.9573 27.7012 13.0029 27.7012V25.7012C12.2908 25.7012 11.7161 25.5326 11.241 25.2272L10.1594 26.9095ZM13.0029 27.7012C14.6015 27.7012 15.953 27.1286 16.9428 25.9453L15.4087 24.6621C14.8399 25.3421 14.0762 25.7012 13.0029 25.7012V27.7012ZM16.9428 25.9453C17.9157 24.7822 18.3447 23.2579 18.3447 21.4893H16.3447C16.3447 22.9433 15.9945 23.9619 15.4087 24.6621L16.9428 25.9453ZM18.3447 21.4893V19.626H16.3447V21.4893H18.3447ZM25.4686 20.2676L26.2217 19.6098L25.5457 18.8357L24.7904 19.5327L25.4686 20.2676ZM23.4207 22.1572L22.7426 21.4223L22.4207 21.7193V22.1572H23.4207ZM23.4207 27V28H24.4207V27H23.4207ZM22.9461 27H21.9461V28H22.9461V27ZM22.9461 14.2031V13.2031H21.9461V14.2031H22.9461ZM23.4207 14.2031H24.4207V13.2031H23.4207V14.2031ZM23.4207 21.6035H22.4207V23.9822L24.1203 22.318L23.4207 21.6035ZM25.5301 19.5381L26.2298 20.2527L26.2389 20.2434L25.5301 19.5381ZM30.8387 14.2031V13.2031H30.423L30.1298 13.4978L30.8387 14.2031ZM31.5242 14.2031L32.2335 14.9081L33.928 13.2031H31.5242V14.2031ZM25.8201 19.9424L25.1108 19.2375L24.4551 19.8973L25.0659 20.599L25.8201 19.9424ZM31.9637 27V28H34.16L32.7179 26.3434L31.9637 27ZM31.3484 27L30.5953 27.6578L30.8941 28H31.3484V27ZM24.7904 19.5327L22.7426 21.4223L24.0989 22.8922L26.1467 21.0025L24.7904 19.5327ZM22.4207 22.1572V27H24.4207V22.1572H22.4207ZM23.4207 26H22.9461V28H23.4207V26ZM23.9461 27V14.2031H21.9461V27H23.9461ZM22.9461 15.2031H23.4207V13.2031H22.9461V15.2031ZM22.4207 14.2031V21.6035H24.4207V14.2031H22.4207ZM24.1203 22.318L26.2297 20.2526L24.8305 18.8236L22.7211 20.889L24.1203 22.318ZM26.2389 20.2434L31.5475 14.9085L30.1298 13.4978L24.8212 18.8327L26.2389 20.2434ZM30.8387 15.2031H31.5242V13.2031H30.8387V15.2031ZM30.8149 13.4982L25.1108 19.2375L26.5294 20.6473L32.2335 14.9081L30.8149 13.4982ZM25.0659 20.599L31.2094 27.6566L32.7179 26.3434L26.5744 19.2858L25.0659 20.599ZM31.9637 26H31.3484V28H31.9637V26ZM32.1016 26.3422L26.2217 19.6098L24.7154 20.9254L30.5953 27.6578L32.1016 26.3422Z" fill="black"/>
</svg>