<svg viewBox="0 0 140 140" fill="none" xmlns="http://www.w3.org/2000/svg">
<path d="M70.0002 134.4C105.567 134.4 134.4 105.567 134.4 70.0002C134.4 34.433 105.567 5.6001 70.0002 5.6001C34.433 5.6001 5.6001 34.433 5.6001 70.0002C5.6001 105.567 34.433 134.4 70.0002 134.4Z" fill="#ED2C25"/>
<path d="M134.4 70.0003C134.4 105.42 105.42 134.4 70.0001 134.4C49.4727 134.4 31.3602 125.143 19.6875 110.251C30.555 119.106 44.6426 124.338 59.9375 124.338C95.3576 124.338 124.338 95.3581 124.338 59.9379C124.338 44.6431 119.105 30.5555 110.25 19.688C125.143 31.3601 134.4 49.4726 134.4 70.0003Z" fill="#ED2C25"/>
<path d="M99.3825 99.3827C96.9676 101.798 92.9424 101.798 90.5275 99.3827L70 78.8553L49.4726 99.3827C47.0577 101.798 43.0325 101.798 40.6176 99.3827C38.2027 96.9678 38.2027 92.9426 40.6176 90.5277L61.145 70.0003L40.6176 49.4729C38.2027 47.058 38.2027 43.0327 40.6176 40.6178C43.0325 38.2029 47.0577 38.2029 49.4726 40.6178L70 61.1452L90.5275 40.6178C92.9424 38.2029 96.9676 38.2029 99.3825 40.6178C101.797 43.0327 101.797 47.058 99.3825 49.4729L78.8551 70.0003L99.3825 90.5277C101.797 92.9426 101.797 96.9676 99.3825 99.3827Z" fill="white"/>
</svg>
