<svg viewBox="0 0 64 64" fill="none" xmlns="http://www.w3.org/2000/svg">
<path fill-rule="evenodd" clip-rule="evenodd" d="M18.639 24.6448C18.124 24.8444 17.8683 25.4236 18.0678 25.9386L20.174 31.3744V46.9799C20.174 47.5322 20.6218 47.9799 21.174 47.9799H44.9136C45.4659 47.9799 45.9136 47.5322 45.9136 46.9799V31.1869C45.9136 30.6346 45.4659 30.1869 44.9136 30.1869H26.5227L43.6712 23.5425C44.1861 23.3429 44.4418 22.7637 44.2423 22.2487L42.0687 16.639C41.8692 16.124 41.2899 15.8683 40.775 16.0678L18.639 24.6448ZM21.745 29.8933L20.294 26.1484L27.0031 23.5489L24.7092 28.7447L21.745 29.8933ZM27.3466 27.7228L29.6404 22.527L35.9975 20.0638L33.7037 25.2596L27.3466 27.7228ZM36.3411 24.2377L42.0161 22.0388L40.5651 18.294L38.6349 19.0419L36.3411 24.2377ZM22.174 32.1869V45.9799H43.9136V32.1869H22.174ZM27.1112 36.7973C27.1112 36.245 27.5589 35.7973 28.1112 35.7973H37.976C38.5283 35.7973 38.976 36.245 38.976 36.7973C38.976 37.3496 38.5283 37.7973 37.976 37.7973H28.1112C27.5589 37.7973 27.1112 37.3496 27.1112 36.7973ZM28.1112 40.2466C27.5589 40.2466 27.1112 40.6943 27.1112 41.2466C27.1112 41.7989 27.5589 42.2466 28.1112 42.2466H30.5605C31.1128 42.2466 31.5605 41.7989 31.5605 41.2466C31.5605 40.6943 31.1128 40.2466 30.5605 40.2466H28.1112ZM33.7849 41.2465C33.7849 40.6942 34.2326 40.2465 34.7849 40.2465H37.9759C38.5281 40.2465 38.9759 40.6942 38.9759 41.2465C38.9759 41.7988 38.5281 42.2465 37.9759 42.2465H34.7849C34.2326 42.2465 33.7849 41.7988 33.7849 41.2465Z" fill="white"/>
</svg>
