<svg viewBox="0 0 216 48" fill="none" xmlns="http://www.w3.org/2000/svg">
<g clip-path="url(#clip0_16869_42844)">
<path fill-rule="evenodd" clip-rule="evenodd" d="M33.9676 47.7926H21.2457V29.6462H13.0237V47.7926H0.0146484V0.964041H13.0237V18.4265H21.2566V0.964041H33.9785L33.9676 47.7926ZM92.2667 48C105.294 48 115.919 37.1551 115.919 23.9636C115.946 20.8424 115.353 17.7469 114.175 14.8567C112.997 11.9665 111.258 9.3392 109.058 7.12718C106.857 4.91516 104.24 3.16249 101.358 1.97087C98.4754 0.779244 95.3853 0.172389 92.2667 0.185511C79.0868 0.185511 72.4169 9.77896 70.803 13.6862C70.803 7.90174 65.02 0.953128 58.2992 0.953128H36.5738V47.7926H56.7871C65.02 47.7926 70.803 40.7531 70.803 34.6012C72.6204 38.4065 79.0868 48 92.2667 48ZM55.1732 28.9695C57.0488 28.9695 58.5609 30.7885 58.5609 32.8804C58.5609 35.0632 57.0488 36.8822 55.1732 36.8822H48.7214V28.9695H55.1732ZM55.1732 11.3942C57.0488 11.3942 58.5609 13.2133 58.5609 15.3051C58.5609 17.397 57.0488 19.216 55.1732 19.216H48.7214V11.3942H55.1732ZM63.7187 23.9636C65.2272 23.8581 67.6771 22.1446 68.6149 21.0932C68.2514 22.3447 68.2514 26.3101 68.6149 27.5616C67.5717 26.0482 65.2272 24.2219 63.7187 23.9636ZM80.3881 23.9636C80.3974 21.6142 81.102 19.3203 82.4129 17.3713C83.7238 15.4224 85.5823 13.9059 87.7536 13.0133C89.9249 12.1207 92.3118 11.892 94.6129 12.3561C96.9141 12.8202 99.0262 13.9562 100.683 15.6208C102.339 17.2854 103.466 19.4039 103.92 21.7088C104.375 24.0137 104.137 26.4018 103.237 28.5715C102.336 30.7412 100.814 32.5952 98.8612 33.8995C96.9088 35.2038 94.6141 35.8999 92.2667 35.8999C90.7027 35.9004 89.1539 35.5917 87.7094 34.9914C86.265 34.3912 84.9532 33.5112 83.8494 32.4021C82.7457 31.293 81.8717 29.9766 81.2777 28.5284C80.6837 27.0803 80.3814 25.529 80.3881 23.9636ZM92.2667 33.3461C94.7471 33.3461 97.126 32.3598 98.8799 30.6044C100.634 28.8489 101.619 26.468 101.619 23.9854C101.619 21.5028 100.634 19.1219 98.8799 17.3665C97.126 15.611 94.7471 14.6248 92.2667 14.6248C89.7863 14.6248 87.4075 15.611 85.6535 17.3665C83.8996 19.1219 82.9143 21.5028 82.9143 23.9854C82.9143 26.468 83.8996 28.8489 85.6535 30.6044C87.4075 32.3598 89.7863 33.3461 92.2667 33.3461Z" fill="white"/>
<path d="M191.912 0C186.042 0.00354743 180.376 2.16126 175.989 6.06462C171.601 9.96798 168.796 15.346 168.104 21.1805H142.907V30.4939H156.443C155.353 35.0123 151.522 37.8172 146.389 37.8172C138.393 37.8172 133.129 32.131 133.129 23.6471C133.129 16.3274 138.462 10.8486 145.571 10.8486C147.626 10.8054 149.652 11.3412 151.418 12.3949C153.183 13.4485 154.617 14.9776 155.556 16.8076H168.613C166.017 7.43247 156.309 0.589357 145.917 0.589357C132.104 0.589357 121.509 10.8486 121.509 24.1273C121.509 37.4716 132.108 48.0073 145.644 48.0073C156.912 48.0073 165.956 41.0732 168.973 30.9995C170.265 35.2556 172.713 39.0688 176.044 42.0137C179.375 44.9586 183.457 46.9195 187.837 47.6777C192.216 48.4359 196.72 47.9616 200.846 46.3077C204.971 44.6538 208.557 41.8854 211.203 38.3111C213.848 34.7367 215.45 30.4971 215.829 26.0651C216.207 21.633 215.349 17.1827 213.348 13.2106C211.348 9.23839 208.284 5.90049 204.499 3.56915C200.714 1.23781 196.356 0.00468276 191.912 0.00728314V0ZM191.912 35.849C189.569 35.8497 187.279 35.1551 185.331 33.853C183.383 32.5509 181.865 30.6998 180.968 28.5339C180.071 26.3679 179.837 23.9844 180.293 21.6849C180.75 19.3854 181.878 17.2731 183.535 15.6153C185.191 13.9574 187.301 12.8285 189.599 12.3713C191.896 11.914 194.278 12.1491 196.442 13.0466C198.606 13.9442 200.455 15.4639 201.756 17.4136C203.057 19.3634 203.751 21.6554 203.751 24C203.75 27.1385 202.505 30.1485 200.29 32.3697C198.075 34.591 195.07 35.8423 191.934 35.849H191.912Z" fill="#B6B8BA"/>
<path d="M212.311 1.85546C212.311 1.36628 212.505 0.897133 212.85 0.551227C213.196 0.20532 213.665 0.0109863 214.153 0.0109863C214.642 0.0109863 215.111 0.20532 215.457 0.551227C215.802 0.897133 215.996 1.36628 215.996 1.85546C215.996 2.34465 215.802 2.8138 215.457 3.1597C215.111 3.50561 214.642 3.69994 214.153 3.69994C213.665 3.69994 213.196 3.50561 212.85 3.1597C212.505 2.8138 212.311 2.34465 212.311 1.85546ZM215.785 1.85546C215.785 1.42128 215.613 1.00487 215.306 0.697855C215 0.390838 214.584 0.218356 214.15 0.218356C213.716 0.218356 213.3 0.390838 212.993 0.697855C212.686 1.00487 212.514 1.42128 212.514 1.85546C212.514 2.28965 212.686 2.70606 212.993 3.01307C213.3 3.32009 213.716 3.49257 214.15 3.49257C214.584 3.49257 215 3.32009 215.306 3.01307C215.613 2.70606 215.785 2.28965 215.785 1.85546ZM213.397 0.822268H214.266C214.376 0.81571 214.487 0.831325 214.591 0.868188C214.696 0.90505 214.791 0.962414 214.873 1.03691C214.927 1.09343 214.97 1.16017 214.998 1.23326C215.026 1.30634 215.039 1.3843 215.037 1.46256C215.042 1.59649 215.004 1.72851 214.927 1.83829C214.85 1.94807 214.739 2.02953 214.611 2.07011L215.091 2.77224H214.586L214.172 2.14287H213.83V2.77224H213.397V0.822268ZM214.262 1.77907C214.481 1.77907 214.597 1.66265 214.597 1.49893C214.597 1.3134 214.466 1.21517 214.233 1.21517H213.812V1.7536L214.262 1.77907Z" fill="#B6B8BA"/>
<path d="M191.915 33.4153C197.113 33.4153 201.326 29.1983 201.326 23.9965C201.326 18.7946 197.113 14.5776 191.915 14.5776C186.718 14.5776 182.505 18.7946 182.505 23.9965C182.505 29.1983 186.718 33.4153 191.915 33.4153Z" fill="#4E84C4"/>
</g>
<defs>
<clipPath id="clip0_16869_42844">
<rect width="216" height="48" fill="white"/>
</clipPath>
</defs>
</svg>
