<svg viewBox="-6 -6 36 36" fill="none" xmlns="http://www.w3.org/2000/svg">
<path fill-rule="evenodd" clip-rule="evenodd" d="M7.66768 11.3491H5.16935V7.78552H3.55472V11.3491H1V2.15293H3.55472V5.58221H5.17149V2.15293H7.66982L7.66768 11.3491ZM19.1164 11.3898C21.6747 11.3898 23.7612 9.26011 23.7612 6.66958C23.7665 6.05663 23.6501 5.44874 23.4188 4.88117C23.1875 4.31359 22.8459 3.79764 22.4139 3.36324C21.9818 2.92885 21.4678 2.58466 20.9017 2.35065C20.3357 2.11664 19.7289 1.99746 19.1164 2.00004C16.5282 2.00004 15.2183 3.884 14.9014 4.6513C14.9014 3.51535 13.7657 2.15079 12.4459 2.15079H8.17948V11.3491H12.149C13.7657 11.3491 14.9014 9.96669 14.9014 8.75858C15.2583 9.50588 16.5282 11.3898 19.1164 11.3898ZM11.832 7.65264C12.2004 7.65264 12.4973 8.00985 12.4973 8.42065C12.4973 8.84931 12.2004 9.20653 11.832 9.20653H10.565V7.65264H11.832ZM11.832 4.20121C12.2004 4.20121 12.4973 4.55843 12.4973 4.96923C12.4973 5.38002 12.2004 5.73724 11.832 5.73724H10.565V4.20121H11.832ZM13.5102 6.66958C13.8064 6.64886 14.2875 6.31236 14.4717 6.10589C14.4003 6.35165 14.4003 7.13039 14.4717 7.37615C14.2668 7.07895 13.8064 6.7203 13.5102 6.66958ZM16.7837 6.66958C16.7855 6.2082 16.9239 5.75772 17.1813 5.37499C17.4388 4.99226 17.8037 4.69446 18.2302 4.51917C18.6566 4.34388 19.1253 4.29896 19.5772 4.3901C20.0291 4.48123 20.4439 4.70432 20.7692 5.03121C21.0945 5.3581 21.3157 5.77413 21.405 6.22678C21.4943 6.67942 21.4475 7.14839 21.2707 7.57447C21.0939 8.00056 20.7949 8.36465 20.4115 8.62079C20.028 8.87693 19.5774 9.01363 19.1164 9.01363C18.8093 9.01373 18.5051 8.9531 18.2215 8.83522C17.9378 8.71734 17.6802 8.54453 17.4635 8.32672C17.2467 8.10892 17.0751 7.8504 16.9584 7.56602C16.8418 7.28163 16.7824 6.97699 16.7837 6.66958ZM19.1164 8.5121C19.6035 8.5121 20.0707 8.31843 20.4151 7.97369C20.7596 7.62896 20.9531 7.16139 20.9531 6.67386C20.9531 6.18633 20.7596 5.71877 20.4151 5.37403C20.0707 5.0293 19.6035 4.83563 19.1164 4.83563C18.6293 4.83563 18.1622 5.0293 17.8177 5.37403C17.4733 5.71877 17.2798 6.18633 17.2798 6.67386C17.2798 7.16139 17.4733 7.62896 17.8177 7.97369C18.1622 8.31843 18.6293 8.5121 19.1164 8.5121Z" fill="white"/>
<path d="M16.5903 12.5684C15.4375 12.5691 14.325 12.9928 13.4633 13.7593C12.6017 14.5259 12.0508 15.582 11.9149 16.7278H6.96678V18.5567H9.625C9.41086 19.4441 8.6585 19.9949 7.65061 19.9949C6.08023 19.9949 5.04663 18.8782 5.04663 17.2122C5.04663 15.7747 6.09379 14.6988 7.49 14.6988C7.89357 14.6903 8.29139 14.7955 8.63809 15.0025C8.9848 15.2094 9.26642 15.5097 9.45083 15.869H12.0148C11.5052 14.0279 9.59859 12.6841 7.55781 12.6841C4.84534 12.6841 2.76459 14.6988 2.76459 17.3065C2.76459 19.927 4.84605 21.996 7.50427 21.996C9.71708 21.996 11.493 20.6343 12.0855 18.656C12.3393 19.4918 12.82 20.2407 13.4741 20.819C14.1283 21.3973 14.9301 21.7824 15.7901 21.9313C16.6501 22.0802 17.5345 21.9871 18.3447 21.6623C19.1549 21.3375 19.8591 20.7938 20.3786 20.0919C20.8982 19.39 21.2127 18.5574 21.2871 17.687C21.3615 16.8166 21.1929 15.9427 20.8 15.1626C20.4072 14.3826 19.8055 13.7271 19.0622 13.2693C18.3189 12.8114 17.4631 12.5693 16.5903 12.5698V12.5684ZM16.5903 19.6084C16.1303 19.6085 15.6806 19.4721 15.298 19.2164C14.9155 18.9607 14.6173 18.5972 14.4412 18.1718C14.2651 17.7465 14.219 17.2784 14.3087 16.8268C14.3984 16.3753 14.6199 15.9604 14.9452 15.6349C15.2705 15.3093 15.6849 15.0876 16.1361 14.9978C16.5873 14.908 17.0549 14.9542 17.4799 15.1305C17.9049 15.3067 18.2681 15.6052 18.5236 15.988C18.7791 16.3709 18.9154 16.8211 18.9152 17.2815C18.915 17.8978 18.6706 18.4889 18.2356 18.9251C17.8006 19.3613 17.2104 19.6071 16.5946 19.6084H16.5903Z" fill="white"/>
<path d="M16.591 19.13C17.6117 19.13 18.4391 18.3019 18.4391 17.2803C18.4391 16.2588 17.6117 15.4307 16.591 15.4307C15.5704 15.4307 14.743 16.2588 14.743 17.2803C14.743 18.3019 15.5704 19.13 16.591 19.13Z" fill="white"/>
</svg>
