<svg viewBox="0 0 29 25" xmlns="http://www.w3.org/2000/svg">
<path d="M8.69229 19.2827L7.30469 20.5108C7.74652 21.0077 8.22652 21.4693 8.7404 21.8914L9.91338 20.4581C9.47588 20.0992 9.06758 19.7062 8.69229 19.2827Z" fill="white"/>
<path d="M6.99528 16.1523L5.2168 16.9155C5.49178 17.5561 5.81829 18.1732 6.19312 18.761L7.82549 17.7241C7.50715 17.2232 7.2295 16.6976 6.99528 16.1523Z" fill="white"/>
<path d="M22.1928 2.11854C20.3656 1.0589 18.2911 0.500556 16.1789 0.5C10.1716 0.509666 5.09641 4.95948 4.29999 10.9152L1.2565 7.87097L0 9.12776L5.0713 14.2002L10.1426 9.12776L8.88611 7.87097L6.13763 10.6165C7.18192 5.07486 12.5199 1.42926 18.0602 2.47379C23.6006 3.51831 27.2454 8.8575 26.2011 14.3991C25.1568 19.9407 19.8189 23.5864 14.2785 22.5419C13.1428 22.3278 12.0517 21.9223 11.0517 21.3427L10.1586 22.8795C15.8902 26.2034 23.2306 24.2504 26.5537 18.5175C29.8769 12.7845 27.9244 5.44244 22.1928 2.11854Z" fill="white"/>
<path d="M14.6074 4.67383V14.3059L18.7068 17.1956L19.8248 15.7945L16.4708 13.4303V4.67383H14.6074Z" fill="white"/>
</svg>