<svg viewBox="0 0 61 60" fill="none" xmlns="http://www.w3.org/2000/svg">
<g opacity="0.4">
<path fill-rule="evenodd" clip-rule="evenodd" d="M30.5 4.95413C16.6675 4.95413 5.45413 16.1675 5.45413 30C5.45413 43.8325 16.6675 55.0459 30.5 55.0459C44.3325 55.0459 55.5459 43.8325 55.5459 30C55.5459 16.1675 44.3325 4.95413 30.5 4.95413ZM0.5 30C0.5 13.4315 13.9315 0 30.5 0C47.0685 0 60.5 13.4315 60.5 30C60.5 46.5685 47.0685 60 30.5 60C13.9315 60 0.5 46.5685 0.5 30Z" fill="white"/>
<path fill-rule="evenodd" clip-rule="evenodd" d="M30.5 27.523C31.8681 27.523 32.9771 28.632 32.9771 30V41.0092C32.9771 42.3773 31.8681 43.4863 30.5 43.4863C29.132 43.4863 28.0229 42.3773 28.0229 41.0092V30C28.0229 28.632 29.132 27.523 30.5 27.523Z" fill="white"/>
<path fill-rule="evenodd" clip-rule="evenodd" d="M30.5 16.5138C31.8681 16.5138 32.9771 17.6228 32.9771 18.9908V21.7431C32.9771 23.1112 31.8681 24.2202 30.5 24.2202C29.132 24.2202 28.0229 23.1112 28.0229 21.7431V18.9908C28.0229 17.6228 29.132 16.5138 30.5 16.5138Z" fill="white"/>
</g>
</svg>
