<svg viewBox="0 0 48 48" fill="none" xmlns="http://www.w3.org/2000/svg">
<path d="M13.623 14.0154C11.3281 16.3973 9.9231 19.4967 9.64423 22.7925C9.36535 26.0883 10.2296 29.3797 12.0917 32.1133C13.9537 34.847 16.7001 36.8563 19.8692 37.8035C23.0383 38.7507 26.4368 38.5781 29.4936 37.3146C29.7006 35.9646 29.247 34.6686 29.0616 34.215C28.6476 33.207 27.2832 31.4844 25.0062 29.0958C24.3978 28.4568 24.4374 27.9654 24.6552 26.5092L24.6786 26.3454C24.8262 25.3482 25.0746 24.7578 28.4316 24.225C30.138 23.955 30.5862 24.6354 31.2072 25.5804L31.416 25.89C32.0064 26.754 32.4438 26.952 33.1044 27.2508C33.4014 27.3858 33.7704 27.5568 34.2654 27.8358C35.439 28.5072 35.439 29.265 35.439 30.9246V31.1136C35.439 31.8174 35.3706 32.4366 35.2626 32.9748C36.6439 31.2413 37.6064 29.2123 38.0753 27.0459C38.5441 24.8796 38.5067 22.6342 37.9659 20.4847C37.425 18.3351 36.3954 16.3394 34.9571 14.6528C33.5189 12.9663 31.7108 11.6345 29.6736 10.761C28.6782 11.4324 27.312 12.3846 26.835 13.038C26.592 13.371 26.2464 15.0756 25.125 15.216C24.8334 15.252 24.4392 15.2268 24.0216 15.1998C22.902 15.1278 21.372 15.0288 20.8824 16.359C20.571 17.2014 20.517 19.491 21.5232 20.679C21.6852 20.868 21.7158 21.219 21.606 21.6132C21.462 22.1298 21.1722 22.4448 21.0804 22.5096C20.9076 22.4088 20.562 22.0074 20.3262 21.7356C19.7628 21.0786 19.0572 20.2596 18.1464 20.0076C17.8152 19.9158 17.4516 19.8402 17.097 19.7646C16.1088 19.5576 14.991 19.3218 14.73 18.7674C14.5392 18.3606 14.541 17.8008 14.541 17.2104C14.541 16.4598 14.541 15.612 14.1738 14.7894C14.0461 14.4958 13.8585 14.2322 13.623 14.0154ZM24 42C14.0586 42 6 33.9414 6 24C6 14.0586 14.0586 6 24 6C33.9414 6 42 14.0586 42 24C42 33.9414 33.9414 42 24 42Z" fill="white" fill-opacity="0.87"/>
</svg>
