<svg width="40" height="40" viewBox="0 0 40 40" fill="none" xmlns="http://www.w3.org/2000/svg">
<path d="M34.263 26.4054L35.1765 25.9986C35.0003 25.6029 34.5893 25.3656 34.1584 25.4108L34.263 26.4054ZM23.9342 35.7055L22.956 35.4975C22.8659 35.9213 23.059 36.3549 23.4342 36.5715L23.9342 35.7055ZM5.07027 12.5843L4.17502 12.1387L5.07027 12.5843ZM4.78452 26.8127L3.87205 27.2218L4.78452 26.8127ZM34.8145 27.6442L35.7028 28.1035L34.8145 27.6442ZM16.9126 9.82877L23.8619 14.8778L25.0375 13.2598L18.0881 8.21074L16.9126 9.82877ZM23.4987 13.7598L20.8442 21.9293L22.7464 22.5473L25.4008 14.3778L23.4987 13.7598ZM21.7953 21.2383H13.2054V23.2383H21.7953V21.2383ZM14.1564 21.9293L11.502 13.7598L9.5999 14.3778L12.2543 22.5473L14.1564 21.9293ZM11.1387 14.8778L18.0881 9.82877L16.9126 8.21074L9.96318 13.2598L11.1387 14.8778ZM34.1584 25.4108L25.6156 26.3087L25.8246 28.2978L34.3675 27.3999L34.1584 25.4108ZM24.7419 27.0953L22.956 35.4975L24.9123 35.9134L26.6982 27.5112L24.7419 27.0953ZM18.5003 9.01976V3.53949H16.5003V9.01976H18.5003ZM24.7112 15.034L30.5484 13.4528L30.0255 11.5223L24.1883 13.1036L24.7112 15.034ZM21.0048 22.8508L24.9296 27.9158L26.5106 26.6907L22.5858 21.6258L21.0048 22.8508ZM12.4019 21.6429L8.64873 26.7079L10.2556 27.8986L14.0088 22.8336L12.4019 21.6429ZM30.8926 8.11949L29.3534 12.1292L31.2206 12.8459L32.7597 8.83623L30.8926 8.11949ZM29.8051 13.3638L35.6209 16.5623L36.5847 14.8098L30.7689 11.6113L29.8051 13.3638ZM20 4.33398C27.2485 4.33398 33.3496 9.25744 35.1367 15.9442L37.0689 15.4278C35.0538 7.88812 28.1768 2.33398 20 2.33398V4.33398ZM35.1367 15.9442C35.4822 17.2369 35.6667 18.5965 35.6667 20.0007H37.6667C37.6667 18.4206 37.459 16.8875 37.0689 15.4278L35.1367 15.9442ZM10.8124 13.1036L5.33171 11.6191L4.80883 13.5495L10.2895 15.034L10.8124 13.1036ZM4.33337 20.0007C4.33337 17.4943 4.92117 15.1282 5.96552 13.0299L4.17502 12.1387C2.99598 14.5077 2.33337 17.1782 2.33337 20.0007H4.33337ZM5.96552 13.0299C8.53192 7.87342 13.8536 4.33398 20 4.33398V2.33398C13.0658 2.33398 7.06649 6.32917 4.17502 12.1387L5.96552 13.0299ZM4.67999 27.8072L9.34766 28.2978L9.55672 26.3087L4.88905 25.8181L4.67999 27.8072ZM5.69699 26.4035C4.82106 24.45 4.33337 22.2836 4.33337 20.0007H2.33337C2.33337 22.5712 2.88298 25.016 3.87205 27.2218L5.69699 26.4035ZM20 35.6673C16.8275 35.6673 13.8779 34.7254 11.4122 33.1061L10.3144 34.7778C13.0962 36.6047 16.4256 37.6673 20 37.6673V35.6673ZM11.4122 33.1061C8.92227 31.4709 6.92646 29.1455 5.69699 26.4035L3.87205 27.2218C5.25899 30.315 7.50859 32.9353 10.3144 34.7778L11.4122 33.1061ZM8.47404 27.5112L9.88514 34.1499L11.8414 33.7341L10.4303 27.0953L8.47404 27.5112ZM35.7281 27.2375L35.1765 25.9986L33.3494 26.8121L33.901 28.051L35.7281 27.2375ZM35.6667 20.0007C35.6667 22.5922 35.0382 25.0341 33.9262 27.185L35.7028 28.1035C36.9582 25.6754 37.6667 22.9193 37.6667 20.0007H35.6667ZM33.9262 27.185C31.9542 30.9994 28.4611 33.8994 24.2531 35.0834L24.7949 37.0086C29.5444 35.6722 33.4803 32.4023 35.7028 28.1035L33.9262 27.185ZM24.2531 35.0834C22.9019 35.4636 21.4756 35.6673 20 35.6673V37.6673C21.6605 37.6673 23.269 37.438 24.7949 37.0086L24.2531 35.0834ZM23.4342 36.5715L24.024 36.912L25.024 35.18L24.4342 34.8394L23.4342 36.5715Z" fill="white"/>
</svg>
