<svg viewBox="0 0 33 56" fill="none" xmlns="http://www.w3.org/2000/svg">
<path d="M1.0266 31.3502C0.3701 30.6945 0.0008 29.8048 0 28.8769V27.1035C0.0107 26.1776 0.3785 25.2916 1.0266 24.6302L25.0133 0.690201C25.2302 0.471501 25.4883 0.297901 25.7726 0.179501C26.057 0.0610006 26.3619 0 26.67 0C26.978 0 27.283 0.0610006 27.5673 0.179501C27.8517 0.297901 28.1097 0.471501 28.3266 0.690201L31.64 4.0035C31.8573 4.2164 32.0299 4.4706 32.1478 4.751C32.2656 5.0315 32.3263 5.3326 32.3263 5.6369C32.3263 5.9411 32.2656 6.2422 32.1478 6.5227C32.0299 6.8032 31.8573 7.0573 31.64 7.2702L10.8733 27.9902L31.64 48.7102C31.8587 48.9271 32.0323 49.1852 32.1507 49.4695C32.2692 49.7539 32.3302 50.0588 32.3302 50.3669C32.3302 50.6749 32.2692 50.9799 32.1507 51.2642C32.0323 51.5485 31.8587 51.8066 31.64 52.0235L28.3266 55.2902C28.1097 55.5089 27.8517 55.6825 27.5673 55.801C27.283 55.9194 26.978 55.9804 26.67 55.9804C26.3619 55.9804 26.057 55.9194 25.7726 55.801C25.4883 55.6825 25.2302 55.5089 25.0133 55.2902L1.0266 31.3502Z" fill="white"/>
</svg>
