<svg viewBox="0 0 40 40" fill="none" xmlns="http://www.w3.org/2000/svg">
<path fill-rule="evenodd" clip-rule="evenodd" d="M20.6376 6.00912C20.4413 5.94606 20.2266 5.96149 20.0449 6.04905C19.8462 6.14479 19.7182 6.3101 19.6726 6.48578L18.9459 9.28751C18.6896 10.2754 18.3165 11.2281 17.8361 12.1275C17.0866 13.5307 15.9544 14.6065 14.914 15.503L12.7159 17.3971C12.4006 17.6688 12.2346 18.0762 12.2706 18.492L13.5114 32.8419C13.5694 33.5131 14.1301 34.0263 14.8 34.0263H21.902C26.6457 34.0263 30.6372 30.726 31.4024 26.3014L32.4803 20.0684C32.6177 19.2741 32.0069 18.5507 31.2059 18.5507H23.2904C21.7331 18.5507 20.5505 17.1537 20.8019 15.6194L21.8143 9.44021C21.9506 8.6081 21.9117 7.75664 21.7 6.94051C21.6 6.55506 21.2946 6.22016 20.8591 6.08027L21.2414 4.89017L20.8591 6.08027L20.6376 6.00912L21.0182 4.82442L20.6376 6.00912ZM18.9596 3.79689C19.7211 3.42997 20.5982 3.37061 21.4023 3.62892L21.6237 3.70007L21.2432 4.88472L21.6237 3.70007C22.8435 4.09192 23.7967 5.06691 24.1199 6.31278C24.419 7.46587 24.474 8.66881 24.2814 9.84442L23.269 16.0236C23.2682 16.0281 23.2683 16.0305 23.2684 16.0313L23.2688 16.0336C23.2693 16.0354 23.2708 16.039 23.2743 16.0431C23.2777 16.0472 23.2809 16.0491 23.2821 16.0497L23.2836 16.0502C23.2841 16.0503 23.2861 16.0507 23.2904 16.0507H31.2059C33.5613 16.0507 35.3448 18.1751 34.9438 20.4944L33.8659 26.7274C32.8823 32.4149 27.7956 36.5263 21.902 36.5263H14.8C12.8305 36.5263 11.1903 35.0185 11.0207 33.0572L9.77988 18.7073C9.67479 17.4919 10.1597 16.2997 11.084 15.5033L13.282 13.6091C14.2813 12.748 15.1114 11.9223 15.631 10.9496C16.0191 10.223 16.3197 9.45482 16.526 8.65978L17.2527 5.85806C17.4887 4.94854 18.1202 4.2014 18.9596 3.79689ZM6.19611 16.0519C6.86488 16.023 7.43769 16.5261 7.49535 17.193L8.97974 34.36C9.08034 35.5234 8.16391 36.5263 6.99358 36.5263C5.89122 36.5263 5 35.632 5 34.5318V17.3007C5 16.6313 5.52733 16.0808 6.19611 16.0519Z" fill="white" fill-opacity="0.5"/>
</svg>
