<svg viewBox="0 0 60 60" fill="none" xmlns="http://www.w3.org/2000/svg">
<g opacity="0.4">
<path fill-rule="evenodd" clip-rule="evenodd" d="M33.8604 0.149189C32.5763 0.506506 31.3457 1.48362 30.6195 2.72274C30.3952 3.1055 29.4019 5.53731 28.4123 8.12669C27.4225 10.7161 26.4781 13.1547 26.3135 13.5458C25.1149 16.3934 22.0096 19.9041 17.5371 23.4681L16.0433 24.6583L16.0424 40.7285L16.0414 56.7987L17.6269 57.2949C21.2599 58.4322 25.3347 59.2771 29.3471 59.7252C32.007 60.0223 49.4849 60.1094 50.6829 59.8316C52.6877 59.3666 54.4091 57.814 55.1718 55.7829C55.6271 54.5702 55.5306 52.6224 54.9518 51.346C54.6198 50.6139 54.6119 50.5625 54.8102 50.4309C56.0645 49.5986 56.8888 48.7436 57.395 47.7502C58.2637 46.0456 58.2072 43.63 57.2602 41.9874L56.9778 41.4975L57.6042 40.9976C59.323 39.6262 60.2158 37.3892 59.8961 35.2556C59.6594 33.6751 58.4778 31.7834 57.2857 31.0759L56.9717 30.8897L57.3017 30.2358C58.0192 28.8143 58.2097 27.1786 57.8287 25.7087C57.3304 23.7859 55.6025 22.0292 53.555 21.3642C52.9719 21.1749 52.2362 21.1506 45.8645 21.1107L38.8187 21.0667L39.0992 19.6973C39.4674 17.8997 40.1317 13.8574 40.3261 12.232C40.4131 11.5042 40.4798 9.74235 40.479 8.18753C40.4778 5.71726 40.4503 5.3236 40.2123 4.37779C39.8652 2.99788 39.5048 2.23237 38.8868 1.56193C37.7429 0.320931 35.5043 -0.308242 33.8604 0.149189ZM0.917603 26.6219C0.704479 26.7671 0.419728 27.0347 0.284796 27.2167L0.0395508 27.5477V41.1878V54.8278L0.28632 55.1589C0.421955 55.341 0.712099 55.5953 0.931085 55.7243C1.31396 55.9498 1.53986 55.9588 6.89751 55.9588H12.4659L12.4957 41.1585L12.5255 26.3582H6.91533H1.30517L0.917603 26.6219Z" fill="white"/>
</g>
</svg>
