<svg viewBox="0 0 40 40" fill="none" xmlns="http://www.w3.org/2000/svg">
<path d="M33.7829 27.1089L34.9588 20.3093C35.2525 18.611 33.9465 17.0577 32.2249 17.0577H23.5897C22.7339 17.0577 22.0822 16.2895 22.2207 15.444L23.3251 8.70302C23.5046 7.6079 23.4533 6.48732 23.1747 5.41319C22.9439 4.52339 22.2574 3.8089 21.3545 3.51886L21.1129 3.44124C20.5672 3.26595 19.9717 3.30674 19.4572 3.55464C18.891 3.8275 18.4767 4.32521 18.3232 4.91713L17.5303 7.97356C17.2781 8.94604 16.9106 9.88474 16.4368 10.7717C15.7446 12.0676 14.6743 13.1048 13.5617 14.0635L11.1638 16.1298C10.4877 16.7124 10.1326 17.5849 10.2096 18.4747L11.5632 34.1291C11.6873 35.565 12.8878 36.6673 14.3275 36.6673H22.0752C27.8773 36.6673 32.8291 32.6246 33.7829 27.1089Z" fill="white"/>
<path fill-rule="evenodd" clip-rule="evenodd" d="M4.94611 15.8078C5.61488 15.779 6.18769 16.2821 6.24535 16.949L7.86468 35.6765C7.9687 36.8795 7.02114 37.9163 5.81118 37.9163C4.67148 37.9163 3.75 36.9918 3.75 35.8542V17.0567C3.75 16.3873 4.27733 15.8367 4.94611 15.8078Z" fill="white"/>
</svg>
