<svg viewBox="0 0 40 40" fill="none" xmlns="http://www.w3.org/2000/svg">
<path d="M33.4619 14.7584H24.6519L26.5802 9.93841C26.8559 9.25171 26.924 8.49915 26.7758 7.77414C26.6277 7.04913 26.2699 6.38357 25.7469 5.86008C25.4527 5.56622 25.0981 5.3399 24.7077 5.19686C24.3173 5.05381 23.9004 4.99746 23.486 5.03171C23.0716 5.06597 22.6697 5.19001 22.308 5.39522C21.9464 5.60043 21.6338 5.8819 21.3919 6.22008L16.2402 13.4284C15.4713 14.5022 14.6163 15.5117 13.6835 16.4467L12.0335 18.0967C11.9584 18.1718 11.8988 18.2609 11.8582 18.359C11.8176 18.4571 11.7968 18.5622 11.7969 18.6684V31.0701C11.7968 31.285 11.8819 31.4912 12.0335 31.6434L13.8819 33.5001C14.3527 33.9734 14.9127 34.3486 15.5295 34.6041C16.1463 34.8595 16.8076 34.9902 17.4752 34.9884H27.5185C28.3115 34.9878 29.0873 34.7575 29.7522 34.3254C30.4171 33.8932 30.9426 33.2778 31.2652 32.5534L36.1919 21.4684C36.5071 20.7615 36.669 19.9958 36.6669 19.2217V17.9651C36.666 17.1152 36.3281 16.3003 35.7273 15.6992C35.1265 15.0981 34.3118 14.7597 33.4619 14.7584Z" fill="white"/>
<path d="M6.24467 17.0117C5.47245 17.0117 4.73186 17.3185 4.18582 17.8645C3.63977 18.4106 3.33301 19.1512 3.33301 19.9234V30.8717C3.33301 31.6439 3.63977 32.3845 4.18582 32.9306C4.73186 33.4766 5.47245 33.7834 6.24467 33.7834C7.0169 33.7834 7.75749 33.4766 8.30353 32.9306C8.84958 32.3845 9.15634 31.6439 9.15634 30.8717V19.9234C9.15634 19.1512 8.84958 18.4106 8.30353 17.8645C7.75749 17.3185 7.0169 17.0117 6.24467 17.0117Z" fill="white"/>
</svg>
