<svg viewBox="0 0 40 40" fill="none" xmlns="http://www.w3.org/2000/svg">
<path d="M33.712 20.2824L32.7267 20.112L33.712 20.2824ZM32.6341 26.5154L31.6488 26.3449L32.6341 26.5154ZM12.266 32.9505L11.2698 33.0367L12.266 32.9505ZM11.0252 18.6006L12.0215 18.5145L11.0252 18.6006ZM23.0478 9.64329L24.0347 9.80498V9.80498L23.0478 9.64329ZM22.0354 15.8225L23.0223 15.9842V15.9842L22.0354 15.8225ZM11.8999 16.4512L11.2471 15.6936H11.2471L11.8999 16.4512ZM14.098 14.557L14.7508 15.3146H14.7508L14.098 14.557ZM17.7359 8.97462L16.768 8.72353L16.768 8.72353L17.7359 8.97462ZM18.4627 6.1729L19.4307 6.42399V6.42399L18.4627 6.1729ZM21.0199 4.82L20.7141 5.77208L20.7141 5.77208L21.0199 4.82ZM21.2414 4.89115L21.5473 3.93907L21.5473 3.93907L21.2414 4.89115ZM16.7335 11.5396L17.6156 12.0107L16.7335 11.5396ZM22.9099 6.62762L21.942 6.87871V6.87871L22.9099 6.62762ZM19.5023 4.92395L19.0681 4.02308V4.02308L19.5023 4.92395ZM7.73439 34.4686L6.7381 34.5548L7.73439 34.4686ZM6.25 17.3017L7.24628 17.2156C7.20015 16.682 6.74191 16.2796 6.20689 16.3026C5.67187 16.3257 5.25 16.7662 5.25 17.3017H6.25ZM32.7267 20.112L31.6488 26.3449L33.6195 26.6858L34.6974 20.4528L32.7267 20.112ZM21.902 34.2772H14.8V36.2772H21.902V34.2772ZM13.2623 32.8644L12.0215 18.5145L10.029 18.6868L11.2698 33.0367L13.2623 32.8644ZM31.6488 26.3449C30.8617 30.8959 26.7607 34.2772 21.902 34.2772V36.2772C27.6806 36.2772 32.6578 32.247 33.6195 26.6858L31.6488 26.3449ZM22.061 9.48161L21.0486 15.6608L23.0223 15.9842L24.0347 9.80498L22.061 9.48161ZM12.5527 17.2087L14.7508 15.3146L13.4452 13.7995L11.2471 15.6936L12.5527 17.2087ZM18.7039 9.22571L19.4307 6.42399L17.4947 5.92181L16.768 8.72353L18.7039 9.22571ZM20.7141 5.77208L20.9356 5.84323L21.5473 3.93907L21.3258 3.86792L20.7141 5.77208ZM17.6156 12.0107C18.0868 11.1286 18.4526 10.1943 18.7039 9.22571L16.768 8.72353C16.5567 9.53785 16.2489 10.3245 15.8515 11.0684L17.6156 12.0107ZM20.9356 5.84323C21.4495 6.00831 21.8197 6.40723 21.942 6.87871L23.8779 6.37653C23.577 5.2167 22.6886 4.30573 21.5473 3.93907L20.9356 5.84323ZM19.4307 6.42399C19.4953 6.17493 19.6736 5.95143 19.9364 5.82481L19.0681 4.02308C18.2928 4.39672 17.7116 5.08568 17.4947 5.92181L19.4307 6.42399ZM19.9364 5.82481C20.176 5.70931 20.457 5.68949 20.7141 5.77208L21.3258 3.86792C20.5825 3.62914 19.7716 3.6841 19.0681 4.02308L19.9364 5.82481ZM23.2904 18.3017H31.2059V16.3017H23.2904V18.3017ZM8.73067 34.3825L7.24628 17.2156L5.25372 17.3879L6.7381 34.5548L8.73067 34.3825ZM7.25 34.5328V17.3017H5.25V34.5328H7.25ZM6.7381 34.5548C6.7253 34.4067 6.84207 34.2772 6.99358 34.2772V36.2772C8.01704 36.2772 8.81867 35.4002 8.73067 34.3825L6.7381 34.5548ZM24.0347 9.80498C24.2217 8.66372 24.1683 7.49593 23.8779 6.37653L21.942 6.87871C22.1624 7.72854 22.203 8.61515 22.061 9.48161L24.0347 9.80498ZM14.8 34.2772C14.0001 34.2772 13.3315 33.6646 13.2623 32.8644L11.2698 33.0367C11.4282 34.869 12.9605 36.2772 14.8 36.2772V34.2772ZM14.7508 15.3146C15.7871 14.4216 16.889 13.3708 17.6156 12.0107L15.8515 11.0684C15.3089 12.0842 14.4486 12.9348 13.4452 13.7995L14.7508 15.3146ZM34.6974 20.4528C35.0721 18.286 33.4058 16.3017 31.2059 16.3017V18.3017C32.1623 18.3017 32.8904 19.1652 32.7267 20.112L34.6974 20.4528ZM6.99358 34.2772C7.13627 34.2772 7.25 34.3927 7.25 34.5328H5.25C5.25 35.4952 6.02956 36.2772 6.99358 36.2772V34.2772ZM21.0486 15.6608C20.8221 17.0432 21.8877 18.3017 23.2904 18.3017V16.3017C23.124 16.3017 22.9948 16.1518 23.0223 15.9842L21.0486 15.6608ZM12.0215 18.5145C11.9786 18.0187 12.1765 17.5329 12.5527 17.2087L11.2471 15.6936C10.3838 16.4376 9.93077 17.5513 10.029 18.6868L12.0215 18.5145Z" fill="white"/>
</svg>
