<svg viewBox="0 0 40 40" fill="none" xmlns="http://www.w3.org/2000/svg">
<path d="M33.4614 14.7584H24.6514L26.5797 9.93841C26.8555 9.25171 26.9235 8.49915 26.7753 7.77414C26.6272 7.04913 26.2694 6.38357 25.7464 5.86008C25.4522 5.56622 25.0976 5.3399 24.7072 5.19686C24.3168 5.05381 23.8999 4.99746 23.4855 5.03171C23.0711 5.06597 22.6692 5.19001 22.3076 5.39522C21.9459 5.60043 21.6333 5.8819 21.3914 6.22008L16.2397 13.4284C15.4708 14.5022 14.6158 15.5117 13.6831 16.4467L12.0331 18.0967C11.9579 18.1718 11.8983 18.2609 11.8577 18.359C11.8171 18.4571 11.7963 18.5622 11.7964 18.6684V31.0701C11.7963 31.285 11.8814 31.4912 12.0331 31.6434L13.8814 33.5001C14.3522 33.9734 14.9122 34.3486 15.529 34.6041C16.1458 34.8595 16.8071 34.9902 17.4747 34.9884H27.5181C28.311 34.9878 29.0868 34.7575 29.7517 34.3254C30.4166 33.8932 30.9421 33.2778 31.2647 32.5534L36.1914 21.4684C36.5066 20.7615 36.6685 19.9958 36.6664 19.2217V17.9651C36.6655 17.1152 36.3276 16.3003 35.7268 15.6992C35.126 15.0981 34.3113 14.7597 33.4614 14.7584Z" fill="#1E1E1E"/>
<path d="M6.24467 17.0117C5.47245 17.0117 4.73186 17.3185 4.18582 17.8645C3.63977 18.4106 3.33301 19.1512 3.33301 19.9234V30.8717C3.33301 31.6439 3.63977 32.3845 4.18582 32.9306C4.73186 33.4766 5.47245 33.7834 6.24467 33.7834C7.0169 33.7834 7.75749 33.4766 8.30353 32.9306C8.84958 32.3845 9.15634 31.6439 9.15634 30.8717V19.9234C9.15634 19.1512 8.84958 18.4106 8.30353 17.8645C7.75749 17.3185 7.0169 17.0117 6.24467 17.0117Z" fill="#1E1E1E"/>
</svg>
