<svg viewBox="0 0 62 62" fill="none" xmlns="http://www.w3.org/2000/svg">
<g opacity="0.4">
<path fill-rule="evenodd" clip-rule="evenodd" d="M34.8605 1.14919C33.5767 1.50639 32.3458 2.48361 31.6202 3.72179C31.3961 4.10407 30.3651 6.63764 29.3289 9.35185C28.2927 12.0662 27.2365 14.7112 26.9816 15.2297C25.4418 18.363 21.5204 22.381 16.2026 26.2737L14.7213 27.3581H8.51341H2.3054L1.91784 27.6218C1.70472 27.7668 1.41997 28.0346 1.28504 28.2165L1.03979 28.5476V42.1876V55.8276L1.28656 56.1587C1.4222 56.3407 1.71234 56.5951 1.93133 56.7241C2.31291 56.9489 2.59695 56.961 8.83556 57.0171L15.3418 57.0757L16.3969 57.5C18.8938 58.5041 22.9985 59.6019 26.4134 60.179C30.6 60.8865 32.8508 61.0007 42.5976 61C51.9283 60.9994 51.8447 61.0055 53.263 60.2157C54.557 59.4951 55.6277 58.2315 56.1718 56.7827C56.6271 55.5699 56.5306 53.6222 55.9518 52.3458C55.6199 51.6137 55.6119 51.5623 55.8102 51.4307C57.0645 50.5983 57.8888 49.7434 58.395 48.75C59.2637 47.0454 59.2072 44.6298 58.2602 42.9872L57.9778 42.4973L58.6042 41.9974C60.323 40.626 61.2158 38.389 60.8961 36.2554C60.6594 34.6749 59.4778 32.7832 58.2857 32.0757L57.9717 31.8896L58.3017 31.2357C58.8155 30.2178 59.0098 29.411 59.0098 28.2959C59.0098 27.076 58.7941 26.2726 58.1912 25.2462C57.4173 23.9289 56.0599 22.8529 54.5551 22.3641C53.972 22.1748 53.2362 22.1505 46.8646 22.1106L39.8187 22.0666L40.0993 20.6972C40.4675 18.8996 41.1318 14.8573 41.3262 13.2319C41.4132 12.5042 41.4799 10.7423 41.479 9.1875C41.4779 6.71724 41.4503 6.32358 41.2123 5.37777C40.8652 3.99787 40.5049 3.23236 39.8868 2.56192C38.743 1.32093 36.5044 0.691759 34.8605 1.14919ZM36.9413 4.74473C37.6721 5.02022 37.9702 6.3387 37.9589 9.24611C37.9454 12.6828 37.3401 16.9793 36.1327 22.2099C35.873 23.3345 35.7888 23.9295 35.8461 24.2346C35.9529 24.8036 36.53 25.4466 37.0682 25.5961C37.3401 25.6716 40.4275 25.7167 45.4698 25.7187C52.9498 25.7218 53.4703 25.7353 53.9103 25.9371C55.51 26.671 55.9928 28.6424 54.8978 29.9698C54.4329 30.5333 53.8061 30.8524 52.9272 30.9726C52.5456 31.0248 52.0937 31.1589 51.9233 31.2707C51.1529 31.7754 50.9127 32.9388 51.4215 33.7004C51.8571 34.3526 52.3144 34.5086 53.7931 34.5095C55.2444 34.5105 55.7392 34.6129 56.3032 35.029C57.8956 36.2038 57.7225 38.5445 55.9758 39.457C55.3897 39.7631 55.256 39.7844 53.9244 39.7844C52.7632 39.7844 52.4244 39.8245 52.0914 40.0015C51.4666 40.3335 51.1554 40.8728 51.1554 41.6234C51.1554 42.1929 51.1988 42.3011 51.595 42.7195C51.984 43.1301 52.1384 43.2032 52.9351 43.3525C54.322 43.6125 54.7921 43.9357 55.2486 44.9425C55.7613 46.0735 55.3788 47.4167 54.3382 48.1395L53.7931 48.518L51.8002 48.5826C50.6843 48.6188 49.7041 48.7046 49.5728 48.7777C49.02 49.0853 48.6611 49.6109 48.605 50.1959C48.4939 51.3507 49.0876 51.9834 50.4927 52.2079C51.9333 52.438 52.7647 53.2549 52.8827 54.556C52.9869 55.7046 52.4887 56.6199 51.4596 57.1706C50.9828 57.4257 50.9304 57.4277 43.7699 57.4641C34.3318 57.5123 30.9639 57.3521 26.9356 56.6634C24.1304 56.1839 20.7423 55.3085 18.2139 54.4102L17.1002 54.0145L17.0703 42.0428L17.0406 30.0711L18.0668 29.3322C22.5899 26.0759 27.1477 21.6371 29.1819 18.5072C30.1542 17.0112 30.5043 16.2166 32.5664 10.825C33.8005 7.59845 34.6355 5.5787 34.8428 5.31892C35.4461 4.56303 36.0328 4.40242 36.9413 4.74473ZM13.496 42.1583L13.5259 53.383H9.0706H4.61529V42.1276V30.8721L9.04071 30.9029L13.4661 30.9336L13.496 42.1583Z" fill="white" stroke="white"/>
</g>
</svg>
