<svg viewBox="0 0 207 96" fill="none" xmlns="http://www.w3.org/2000/svg">
<path d="M175.578 0.334218C160.232 0.334218 147.459 11.2776 144.729 25.7372C144.286 25.1586 143.814 24.6019 143.314 24.0662C141.385 22.0015 139.114 20.3194 136.501 19.0235C133.89 17.725 131.069 16.9588 128.041 16.7223L136.146 0H119.584L105.603 29.1108C105.282 29.7508 104.986 30.4033 104.717 31.0658C104.133 29.8202 103.425 28.622 102.592 27.4742C100.129 24.0826 97.027 21.5306 93.2852 19.8206L102.902 0H73.3499L67.6388 14.8652H79.1264L70.6667 32.472H83.58C84.7083 32.472 85.7604 32.678 86.7411 33.0915C87.7218 33.5051 88.5813 34.0638 89.3235 34.7731C90.0663 35.4804 90.6734 36.32 91.1492 37.2947C91.6231 38.2689 91.892 39.286 91.9514 40.348C91.892 41.41 91.6251 42.4127 91.1492 43.3565C90.6754 44.3003 90.0663 45.1259 89.3235 45.8352C88.5808 46.5425 87.7193 47.1032 86.7411 47.5168C85.7604 47.9283 84.7083 48.1363 83.58 48.1363C79.7809 48.1363 76.6342 46.3959 74.1416 42.9165L72.9848 41.4165L72.2729 42.1199L63.8127 50.0832C66.1288 54.1537 69.0235 57.3233 72.4939 59.594C75.9668 61.8647 79.6636 63 83.5815 63C86.3116 63 88.923 62.5436 91.4176 61.6282C93.9123 60.7129 96.1665 59.4598 98.1853 57.8675C100.204 56.2757 101.911 54.3717 103.305 52.1604C103.921 51.1842 104.454 50.1671 104.914 49.1175C106.046 51.6102 107.533 53.836 109.39 55.7889C111.379 57.882 113.707 59.564 116.381 60.8316C119.052 62.0996 121.93 62.8229 125.019 63H127.512C130.54 62.8229 133.389 62.1011 136.06 60.8316C138.73 59.5635 141.061 57.882 143.051 55.7889C145.039 53.6958 146.612 51.2904 147.771 48.5773C147.984 48.0739 148.173 47.5621 148.347 47.0464C153.765 56.4104 163.931 62.7167 175.581 62.7167C192.917 62.7167 206.971 48.7524 206.971 31.5267C206.971 14.301 192.913 0.334218 175.578 0.334218ZM133.964 43.0896C133.518 44.0923 132.925 44.9627 132.183 45.6985C131.334 46.5415 130.293 47.19 129.059 47.6479C128.342 47.9143 127.583 48.0715 126.819 48.1144C125.415 48.1932 124.132 47.9787 122.966 47.4679C121.957 47.0254 121.066 46.4343 120.295 45.6985C119.524 44.9627 118.914 44.0923 118.469 43.0896C118.044 42.1309 117.823 41.0918 117.804 39.9709C117.784 38.8121 118.011 37.6518 118.469 36.5873C118.915 35.5538 119.524 34.6693 120.295 33.9336C121.066 33.1958 121.957 32.6067 122.966 32.1642C124.125 31.6564 125.399 31.4414 126.793 31.5162C127.561 31.5576 128.324 31.7138 129.046 31.9796C130.286 32.4366 131.331 33.09 132.182 33.9336C132.902 34.6489 133.481 35.5019 133.922 36.4931C134.368 37.4962 134.611 38.5872 134.628 39.6851C134.648 40.9157 134.425 42.0496 133.964 43.0896ZM192.39 38.6281C191.426 40.805 190.135 42.6925 188.525 44.2923C186.644 46.1614 184.323 47.5971 181.563 48.5917C180.095 49.121 178.554 49.4373 176.996 49.5325C173.908 49.7216 171.083 49.2567 168.524 48.1343C166.333 47.1741 164.401 45.8941 162.727 44.2923C161.051 42.692 159.73 40.805 158.764 38.6281C157.8 36.4512 157.316 34.0847 157.316 31.5227C157.316 28.9607 157.8 26.7529 158.764 24.5131C159.732 22.2734 161.051 20.3528 162.727 18.7511C164.401 17.1508 166.333 15.8708 168.524 14.9111C171.088 13.7867 173.918 13.3223 177.013 13.5139C178.569 13.6101 180.108 13.9279 181.574 14.4577C184.329 15.4533 186.646 16.8845 188.525 18.7511C190.135 20.3509 191.425 22.2714 192.39 24.5131C193.358 26.7529 193.838 29.0889 193.838 31.5227C193.838 34.0847 193.358 36.4532 192.39 38.6281ZM184.016 32.9793L178.455 36.1713L172.893 39.3633C171.665 40.0667 170.132 39.1863 170.132 37.7795V25.0119C170.132 23.6057 171.665 22.7248 172.893 23.4282L178.455 26.6202L184.016 29.8122C185.245 30.5156 185.245 32.2759 184.016 32.9793Z" fill="url(#paint0_linear_15_1255)"/>
<path d="M61.1993 0C59.6775 0 58.319 0.954832 57.804 2.38708L50.052 23.9445C49.8363 24.4051 49.6216 24.6352 49.4069 24.6352C49.1308 24.6352 48.9156 24.4046 48.7627 23.9445L40.9821 2.30743C40.4844 0.923169 39.1714 0 37.7005 0H0V0.89497C0 3.96132 2.48553 6.44685 5.55188 6.44685H11.972V32.2328H20.2602V6.44685H33.9148L42.731 28.2734C43.897 31.1587 46.1223 32.6013 49.4074 32.6013C51.3106 32.6013 52.7532 32.2179 53.7358 31.4501C54.7178 30.6833 55.4856 29.624 56.0378 28.2734L67.5037 0H61.1993Z" fill="white"/>
<path d="M136.985 74.6707H141.934C141.977 74.6707 142.019 74.6882 142.05 74.7195C142.081 74.7508 142.098 74.7932 142.098 74.8374L142.075 77.4837C142.074 77.6175 142.021 77.7455 141.927 77.8398C141.833 77.9341 141.707 77.9871 141.575 77.9871H136.978C136.933 77.9871 136.889 78.0053 136.857 78.0379C136.825 78.0704 136.807 78.1145 136.807 78.1605C136.794 81.1674 136.792 84.1697 136.801 87.1675C136.807 89.0416 140.353 88.6641 141.501 88.477C141.573 88.4651 141.646 88.4693 141.716 88.4891C141.786 88.509 141.851 88.5442 141.906 88.5921C141.962 88.64 142.006 88.6996 142.036 88.7667C142.066 88.8337 142.082 88.9067 142.081 88.9804V91.7254C142.081 91.7711 142.063 91.8151 142.032 91.8481C142 91.8811 141.956 91.9005 141.91 91.9022C136.381 92.0655 133.372 91.7118 133.362 85.2797C133.355 80.4157 133.356 75.5528 133.365 70.691C133.365 70.6459 133.383 70.6027 133.414 70.5708C133.446 70.5389 133.488 70.521 133.533 70.521L136.505 70.5142C136.562 70.5142 136.617 70.5369 136.657 70.5775C136.698 70.6182 136.722 70.6735 136.723 70.7319L136.817 74.504C136.818 74.5485 136.836 74.5909 136.868 74.6221C136.899 74.6532 136.941 74.6707 136.985 74.6707Z" fill="white"/>
<path d="M146.61 78.1811V91.7664C146.61 91.8124 146.592 91.8565 146.56 91.889C146.528 91.9216 146.485 91.9398 146.439 91.9398L143.396 91.9739C143.34 91.9739 143.287 91.9516 143.247 91.9121C143.207 91.8725 143.185 91.8189 143.185 91.763C143.172 86.1756 143.166 80.595 143.168 75.0212C143.168 73.1414 143.335 71.7944 143.668 70.9804C145.238 67.1572 149.06 67.5041 152.529 67.5109C152.583 67.5118 152.635 67.5341 152.673 67.5729C152.712 67.6117 152.733 67.664 152.733 67.7184V70.5824C152.733 70.6058 152.729 70.6289 152.72 70.6504C152.711 70.6719 152.697 70.6913 152.681 70.7075C152.664 70.7237 152.644 70.7364 152.623 70.7447C152.601 70.753 152.578 70.7568 152.555 70.7559C149.902 70.6708 146.08 70.2082 146.674 74.477C146.681 74.5315 146.708 74.5815 146.75 74.6177C146.791 74.654 146.844 74.6741 146.899 74.6743L152.555 74.6777C152.599 74.6777 152.641 74.6951 152.673 74.7263C152.704 74.7575 152.722 74.7998 152.723 74.8444L152.77 77.6913C152.771 77.7296 152.764 77.7676 152.75 77.803C152.736 77.8385 152.715 77.8708 152.689 77.898C152.663 77.9252 152.631 77.9468 152.597 77.9615C152.563 77.9763 152.526 77.9839 152.488 77.9839L146.782 78.0077C146.736 78.0077 146.693 78.0259 146.661 78.0585C146.628 78.091 146.61 78.1351 146.61 78.1811Z" fill="white"/>
<path d="M103.039 91.9475L101.739 91.9013C101.693 91.8996 101.648 91.8797 101.616 91.8458C101.584 91.812 101.566 91.7668 101.566 91.7197C101.574 86.4291 101.57 82.9068 101.553 81.1528C101.517 77.3201 96.4562 76.9801 96.1126 80.6576C95.938 82.548 95.9304 86.2475 96.0896 91.7561C96.0905 91.7846 96.0857 91.8131 96.0753 91.8397C96.065 91.8663 96.0494 91.8906 96.0295 91.9109C96.0096 91.9313 95.9858 91.9474 95.9596 91.9582C95.9334 91.969 95.9052 91.9744 95.8769 91.9739L92.9932 91.9211C92.946 91.9202 92.9011 91.9004 92.868 91.8658C92.8349 91.8312 92.8164 91.7847 92.8165 91.7362C92.8099 88.3647 92.8066 84.9942 92.8066 81.6248C92.8088 80.2273 92.9572 79.16 93.2518 78.4227C94.8 74.5505 99.8636 73.778 102.986 76.3727C103.021 76.4017 103.065 76.4175 103.111 76.4175C103.156 76.4175 103.2 76.4017 103.235 76.3727C104.084 75.6662 105.028 75.1909 106.066 74.9466C108.97 74.326 111.997 75.6993 113.045 78.4524C113.357 79.2667 113.513 80.8105 113.513 83.0839C113.515 85.9647 113.513 88.8477 113.506 91.7329C113.506 91.7549 113.502 91.7766 113.494 91.7969C113.485 91.8171 113.473 91.8355 113.458 91.8508C113.443 91.8662 113.425 91.8783 113.405 91.8864C113.385 91.8945 113.364 91.8984 113.343 91.898L110.42 91.8683C110.399 91.8683 110.379 91.8642 110.36 91.8562C110.34 91.8483 110.323 91.8366 110.309 91.8219C110.294 91.8072 110.282 91.7897 110.275 91.7705C110.267 91.7513 110.263 91.7306 110.263 91.7098C110.239 88.4395 110.231 85.1714 110.24 81.9054C110.242 80.8226 110.108 80.0227 109.837 79.5055C108.934 77.7724 106.544 77.6634 105.399 79.2018C104.734 80.0964 104.787 81.09 104.777 82.1959C104.744 85.3716 104.744 88.5462 104.777 91.7197C104.777 91.7621 104.761 91.8027 104.732 91.833C104.703 91.8632 104.664 91.8806 104.623 91.8815L103.039 91.9475Z" fill="white"/>
<path d="M173.014 81.0667C173.45 77.6396 175.347 75.5591 178.704 74.8252C182.715 74.6352 185.269 76.1489 186.366 79.3663C186.682 80.288 186.842 81.674 186.847 83.524C186.853 86.1975 186.853 88.8754 186.847 91.5577C186.847 91.594 186.839 91.6299 186.825 91.6633C186.811 91.6967 186.79 91.727 186.763 91.7523C186.737 91.7777 186.706 91.7976 186.672 91.8109C186.637 91.8241 186.601 91.8305 186.564 91.8296L183.704 91.7641C183.657 91.7633 183.612 91.7482 183.574 91.7207C183.535 91.6933 183.506 91.6547 183.49 91.6101C183.437 91.4616 183.442 91.3109 183.506 91.158C183.548 91.0597 183.568 90.9559 183.565 90.8467C183.513 88.1972 183.485 85.5466 183.483 82.895C183.483 81.5363 183.331 80.5654 183.026 79.9822C181.426 76.9123 177.493 77.6036 176.473 80.7391C176.367 81.0667 176.306 81.675 176.288 82.564C176.229 85.5739 176.22 88.5849 176.262 91.597C176.262 91.6223 176.257 91.6472 176.247 91.6705C176.238 91.6938 176.223 91.7149 176.205 91.7326C176.187 91.7502 176.166 91.7642 176.142 91.7735C176.119 91.7829 176.093 91.7875 176.068 91.7871L173.122 91.7281C173.084 91.7272 173.047 91.7113 173.02 91.6837C172.993 91.6562 172.978 91.6192 172.978 91.5806L173.014 81.0667Z" fill="white"/>
<path d="M123.577 91.9739C114.638 91.6791 111.462 80.8998 119.147 75.9066C123.166 74.0019 126.782 74.5545 129.994 77.5644C130.508 78.0449 130.932 78.7264 131.268 79.6089C131.286 79.6545 131.288 79.7049 131.273 79.7519C131.258 79.7989 131.227 79.8398 131.186 79.8677L120.341 87.1773C120.295 87.2082 120.257 87.2497 120.23 87.2983C120.203 87.3469 120.189 87.4012 120.187 87.4568C120.185 87.5125 120.197 87.5678 120.221 87.6183C120.245 87.6688 120.281 87.713 120.325 87.7474C121.72 88.8384 123.741 89.0711 125.413 88.406C127.75 87.482 128.907 85.6047 128.885 82.7739C128.885 82.7348 128.901 82.6973 128.929 82.6696C128.956 82.642 128.994 82.6264 129.033 82.6264L132.022 82.6395C132.066 82.6395 132.109 82.6564 132.142 82.6869C132.174 82.7173 132.194 82.759 132.196 82.8033C132.539 87.9473 128.737 91.9838 123.577 91.9739ZM126.341 78.8881C122.007 76.7388 117.84 79.3861 118.265 84.2351C118.267 84.2641 118.277 84.2918 118.293 84.3157C118.31 84.3396 118.333 84.3587 118.359 84.3713C118.386 84.3839 118.415 84.3894 118.445 84.3873C118.474 84.3853 118.503 84.3757 118.528 84.3596L126.351 79.0584C126.365 79.0482 126.377 79.0346 126.384 79.0189C126.392 79.0033 126.395 78.986 126.394 78.9689C126.393 78.9518 126.388 78.9354 126.378 78.9212C126.369 78.9071 126.356 78.8957 126.341 78.8881Z" fill="white"/>
<path d="M193.14 91.287C185.788 87.4926 186.786 77.3676 194.599 74.9961C198.479 74.2154 202.821 75.7635 204.516 79.5382C204.545 79.6027 204.55 79.6754 204.531 79.7435C204.512 79.8117 204.47 79.8708 204.411 79.9104L193.467 87.3839C193.451 87.3947 193.437 87.4093 193.428 87.4263C193.418 87.4433 193.413 87.4623 193.412 87.4819C193.411 87.5014 193.414 87.5209 193.422 87.5388C193.43 87.5566 193.442 87.5724 193.457 87.5848C197.324 90.7765 202.307 87.6013 202.121 82.8451C202.12 82.8186 202.125 82.7922 202.134 82.7674C202.143 82.7427 202.158 82.7201 202.176 82.7011C202.194 82.682 202.216 82.6669 202.241 82.6565C202.265 82.6462 202.291 82.6409 202.317 82.6409H205.187C205.232 82.6408 205.276 82.658 205.31 82.6892C205.343 82.7204 205.363 82.7631 205.367 82.8089C205.933 89.7949 199.428 93.6256 193.14 91.287ZM198.123 78.2799C194.229 77.3676 190.974 80.3649 191.654 84.3075C191.658 84.3274 191.666 84.346 191.679 84.3618C191.692 84.3775 191.708 84.3899 191.726 84.3977C191.745 84.4055 191.765 84.4086 191.785 84.4067C191.805 84.4047 191.824 84.3978 191.841 84.3866L199.53 79.1166C199.547 79.1044 199.562 79.088 199.572 79.069C199.582 79.0499 199.588 79.0287 199.588 79.0071C199.588 78.9854 199.584 78.9641 199.574 78.9447C199.564 78.9254 199.55 78.9086 199.533 78.8959C199.162 78.6192 198.692 78.4139 198.123 78.2799Z" fill="white"/>
<path d="M162.097 73.3513C167.566 73.3513 172 77.7839 172 83.2526C172 88.7212 167.566 93.1545 162.097 93.1545C156.627 93.1545 152.193 88.7212 152.193 83.2526C152.193 77.7839 156.627 73.3513 162.097 73.3513Z" fill="white"/>
<path d="M156.504 83.314C161.468 86.161 168.948 83.6877 170.985 82.9229C170.811 78.1614 166.899 74.3533 162.093 74.3533C157.897 74.3533 154.382 77.2582 153.446 81.1627C162.902 77.6501 167.691 83.1876 167.691 83.1876C162.718 80.342 155.226 82.8251 153.201 83.5858C153.379 88.3459 157.292 92.1512 162.092 92.1512C166.288 92.1512 169.803 89.2525 170.746 85.3459C161.29 88.8509 156.503 83.314 156.503 83.314H156.504Z" fill="url(#paint1_linear_15_1255)"/>
<path d="M169.156 80.5626C169.156 83.5758 165.993 86.0184 162.093 86.0184C158.194 86.0184 155.035 83.5758 155.035 80.5626C155.035 77.5494 158.195 75.1089 162.093 75.1089C165.992 75.1089 169.156 77.5501 169.156 80.5626Z" fill="url(#paint2_linear_15_1255)"/>
<path d="M170.747 85.3452C170.712 85.3598 170.683 85.3675 170.651 85.3766C169.594 89.0094 166.167 91.6734 162.093 91.6734C157.377 91.6734 153.519 88.1014 153.219 83.5808C153.213 83.5808 153.207 83.5836 153.201 83.585C153.379 88.3451 157.292 92.1504 162.092 92.1504C166.46 92.1504 170.088 89.0087 170.845 84.8618C170.816 85.026 170.781 85.1873 170.746 85.3452H170.747Z" fill="url(#paint3_linear_15_1255)"/>
<path d="M167.692 83.187C167.692 83.187 162.903 77.6488 153.446 81.1614C153.284 81.8306 153.194 82.5318 153.194 83.252C153.194 83.3637 153.199 83.4748 153.202 83.5845C155.227 82.8238 162.719 80.3407 167.692 83.1863L167.692 83.187Z" fill="white"/>
<path d="M170.985 82.9219C168.948 83.6867 161.468 86.16 156.504 83.313C156.504 83.313 161.29 88.8499 170.747 85.3449C170.906 84.6716 171 83.9864 171 83.2683C171 83.1552 170.991 83.0301 170.985 82.9219Z" fill="white"/>
<path d="M170.985 82.9219C170.335 83.1663 169.125 83.5833 167.63 83.9458C166.334 85.2122 164.338 86.0175 162.092 86.0175C161.691 86.0175 161.304 85.9917 160.919 85.94C163.271 86.6713 166.543 86.9032 170.746 85.3449C170.905 84.6716 170.999 83.9864 170.999 83.2683C170.999 83.1552 170.99 83.0301 170.984 82.9219H170.985Z" fill="white"/>
<path d="M88.8762 81.2358L82.4886 95.4058H80.0831L81.7204 91.9088L76.95 81.2358H79.3958L82.8322 89.4629L86.4707 81.2358H88.8762Z" fill="white"/>
<path d="M72.3501 91.9498H68.6105C67.3977 91.9498 66.7913 91.3434 66.7913 90.1306V77.8H69.1563V81.2364H72.3501C73.9807 81.2364 75.1194 81.6879 75.7662 82.5908C76.4131 83.4936 76.7365 84.821 76.7365 86.5729C76.7365 88.3248 76.4064 89.6589 75.746 90.5753C75.0992 91.4916 73.9672 91.9498 72.3501 91.9498ZM69.1563 83.0557V89.5241C69.1563 89.9284 69.3584 90.1306 69.7627 90.1306H71.7639C72.8015 90.1306 73.4821 89.8341 73.8055 89.2411C74.1289 88.6482 74.2906 87.7588 74.2906 86.5729C74.2906 85.9934 74.2637 85.5218 74.2098 85.1579C74.1559 84.7806 74.0481 84.4167 73.8864 84.0664C73.7246 83.716 73.4686 83.46 73.1182 83.2982C72.7678 83.1365 72.3164 83.0557 71.7639 83.0557H69.1563Z" fill="white"/>
<defs>
<linearGradient id="paint0_linear_15_1255" x1="135.392" y1="-3.29529" x2="135.392" y2="64.1304" gradientUnits="userSpaceOnUse">
<stop stop-color="#ED2D24"/>
<stop offset="0.51" stop-color="#E92231"/>
<stop offset="1" stop-color="#B92032"/>
</linearGradient>
<linearGradient id="paint1_linear_15_1255" x1="162.09" y1="92.1456" x2="162.09" y2="74.3484" gradientUnits="userSpaceOnUse">
<stop stop-color="#F16522"/>
<stop offset="0.5" stop-color="#EC1C24"/>
<stop offset="1" stop-color="#A60E13"/>
</linearGradient>
<linearGradient id="paint2_linear_15_1255" x1="162.093" y1="75.1145" x2="162.093" y2="86.0219" gradientUnits="userSpaceOnUse">
<stop stop-color="#F59579"/>
<stop offset="1" stop-color="#E01B22"/>
</linearGradient>
<linearGradient id="paint3_linear_15_1255" x1="153.202" y1="87.866" x2="171.003" y2="87.866" gradientUnits="userSpaceOnUse">
<stop stop-color="#F16522"/>
<stop offset="0.5" stop-color="#EC1C24"/>
<stop offset="1" stop-color="#A60E13"/>
</linearGradient>
</defs>
</svg>
