<svg viewBox="0 0 256 129" fill="none" xmlns="http://www.w3.org/2000/svg">
<path d="M217.291 1.08993C198.481 1.08993 182.831 14.4999 179.491 32.2199C178.951 31.5099 178.371 30.8299 177.761 30.1699C175.401 27.6399 172.611 25.5799 169.411 23.9899C166.211 22.3999 162.751 21.4599 159.041 21.1699L168.971 0.679932H148.671L131.541 36.3499C131.151 37.1299 130.781 37.9299 130.451 38.7499C129.731 37.2199 128.871 35.7599 127.851 34.3499C124.831 30.1899 121.031 27.0699 116.441 24.9699L128.231 0.679932H92.0106L85.0106 18.8999H99.0905L88.7206 40.4699H104.541C105.921 40.4699 107.211 40.7199 108.411 41.2299C109.611 41.7399 110.671 42.4199 111.571 43.2899C112.481 44.1599 113.221 45.1899 113.811 46.3799C114.391 47.5699 114.721 48.8199 114.791 50.1199C114.721 51.4199 114.391 52.6499 113.811 53.8099C113.231 54.9699 112.481 55.9799 111.571 56.8499C110.661 57.7199 109.601 58.3999 108.411 58.9099C107.211 59.4099 105.921 59.6699 104.541 59.6699C99.8806 59.6699 96.0306 57.5399 92.9706 53.2699L91.5506 51.4299L90.6805 52.2899L80.3105 62.0499C83.1505 67.0399 86.7005 70.9199 90.9505 73.6999C95.2105 76.4799 99.7406 77.8699 104.541 77.8699C107.891 77.8699 111.091 77.3099 114.141 76.1899C117.201 75.0699 119.961 73.5299 122.431 71.5799C124.901 69.6299 126.991 67.2999 128.701 64.5899C129.451 63.3899 130.111 62.1499 130.671 60.8599C132.061 63.9099 133.881 66.6399 136.161 69.0399C138.601 71.6099 141.451 73.6699 144.731 75.2199C148.001 76.7699 151.531 77.6599 155.321 77.8799H158.371C162.081 77.6599 165.571 76.7799 168.851 75.2199C172.121 73.6699 174.981 71.6099 177.421 69.0399C179.861 66.4699 181.781 63.5299 183.201 60.1999C183.461 59.5799 183.691 58.9599 183.911 58.3199C190.551 69.7999 203.011 77.5199 217.281 77.5199C238.521 77.5199 255.751 60.4099 255.751 39.2999C255.751 18.1899 238.531 1.08993 217.291 1.08993ZM166.291 53.4799C165.741 54.7099 165.021 55.7799 164.111 56.6799C163.071 57.7099 161.791 58.5099 160.281 59.0699C159.401 59.3999 158.471 59.5899 157.541 59.6399C155.821 59.7399 154.251 59.4699 152.821 58.8499C151.581 58.3099 150.491 57.5799 149.551 56.6799C148.601 55.7799 147.861 54.7099 147.311 53.4799C146.791 52.3099 146.521 51.0299 146.491 49.6599C146.471 48.2399 146.741 46.8199 147.311 45.5099C147.861 44.2399 148.601 43.1599 149.551 42.2599C150.501 41.3599 151.591 40.6299 152.821 40.0899C154.241 39.4699 155.801 39.1999 157.511 39.2999C158.451 39.3499 159.391 39.5399 160.271 39.8699C161.791 40.4299 163.071 41.2299 164.111 42.2599C164.991 43.1399 165.701 44.1799 166.241 45.3999C166.791 46.6299 167.091 47.9699 167.111 49.3099C167.131 50.8199 166.861 52.2099 166.291 53.4799ZM237.891 48.0199C236.711 50.6899 235.131 52.9999 233.151 54.9599C230.841 57.2499 228.001 59.0099 224.621 60.2299C222.821 60.8799 220.931 61.2699 219.021 61.3799C215.241 61.6099 211.771 61.0399 208.641 59.6699C205.961 58.4899 203.591 56.9199 201.541 54.9599C199.491 52.9999 197.871 50.6899 196.681 48.0199C195.501 45.3499 194.911 42.4499 194.911 39.3099C194.911 36.3299 195.501 33.4599 196.681 30.7199C197.871 27.9699 199.481 25.6199 201.541 23.6599C203.591 21.6999 205.961 20.1299 208.641 18.9499C211.781 17.5699 215.251 16.9999 219.041 17.2399C220.951 17.3599 222.831 17.7499 224.631 18.3999C228.011 19.6199 230.851 21.3699 233.151 23.6599C235.121 25.6199 236.701 27.9699 237.891 30.7199C239.081 33.4699 239.661 36.3299 239.661 39.3099C239.671 42.4499 239.081 45.3499 237.891 48.0199ZM227.631 41.0899L220.811 44.9999L214.001 48.9199C212.491 49.7799 210.621 48.6999 210.621 46.9799V39.1599V31.3399C210.621 29.6199 212.501 28.5399 214.001 29.3999L220.821 33.3099L227.641 37.2199C229.131 38.0699 229.131 40.2299 227.631 41.0899Z" fill="url(#paint0_linear_321_38)"/>
<path d="M75.8602 0.679932C73.9802 0.679932 72.3002 1.85993 71.6602 3.62993L62.0802 30.2699C61.8102 30.8399 61.5502 31.1199 61.2802 31.1199C60.9402 31.1199 60.6702 30.8399 60.4802 30.2699L50.8802 3.52993C50.2602 1.81993 48.6402 0.679932 46.8302 0.679932H40.0702H38.9302H0.240234V1.78993C0.240234 5.57993 3.31023 8.64993 7.10023 8.64993H15.0302V40.5099H25.2702V8.63993H42.1402L53.0302 35.6099C54.4702 39.1799 57.2202 40.9599 61.2802 40.9599C63.6302 40.9599 65.4102 40.4899 66.6302 39.5399C67.8402 38.5899 68.7902 37.2799 69.4702 35.6099L83.6502 0.679932H75.8602Z" fill="white"/>
<path d="M123.351 110.44C125.481 108.71 125.881 105.52 124.011 103.4C123.081 102.2 121.621 101.54 120.161 101.54H115.511C114.451 101.54 113.251 101.94 112.451 102.6C111.251 103.53 110.591 104.99 110.591 106.45V113.36C110.591 113.36 111.651 111.63 114.441 111.37H115.371C115.501 111.37 115.641 111.37 115.771 111.37H119.891C121.091 111.64 122.291 111.24 123.351 110.44Z" fill="white"/>
<path d="M124.81 123.07C127.2 121.21 127.47 117.75 125.61 115.36C124.55 114.03 122.95 113.37 121.36 113.37H116.18C114.98 113.37 113.79 113.77 112.72 114.57C111.39 115.63 110.73 117.23 110.73 118.82V126.4C110.73 126.4 111.93 124.41 114.98 124.27H116.04C116.17 124.27 116.31 124.27 116.44 124.27H121.09C122.29 124.4 123.61 124 124.81 123.07Z" fill="white"/>
<path d="M130.661 105.66C130.661 105.26 130.931 104.86 131.461 104.86H134.251C134.651 104.86 135.051 105.13 135.051 105.66V109.91C136.111 109.64 137.041 109.25 138.641 109.25C142.631 109.25 145.291 111.64 145.291 116.29C145.291 120.94 142.631 123.33 137.451 123.33C135.061 123.33 132.131 122.67 130.801 122V105.65H130.661V105.66ZM134.911 120.01C135.441 120.14 136.501 120.28 137.571 120.28C139.961 120.28 140.761 119.08 140.761 116.29C140.761 113.5 139.961 112.17 137.701 112.17C137.041 112.17 136.111 112.3 135.041 112.7V120.01H134.911Z" fill="white"/>
<path d="M147.271 106.32C147.271 105.39 147.801 104.86 148.731 104.86H150.321C151.251 104.86 151.651 105.39 151.651 106.32V107.25C151.651 108.18 151.121 108.71 150.321 108.71H148.731C147.801 108.71 147.271 108.18 147.271 107.25V106.32ZM148.071 123.2C147.671 123.2 147.271 122.93 147.271 122.4V110.7C147.271 110.3 147.541 109.9 148.071 109.9H150.861C151.261 109.9 151.661 110.17 151.661 110.7V122.4C151.661 122.8 151.391 123.2 150.861 123.2H148.071Z" fill="white"/>
<path d="M159.101 123.2C155.511 123.2 153.781 121.47 153.781 117.62V105.53C153.781 105.13 154.051 104.73 154.581 104.73H157.371C157.771 104.73 158.171 105 158.171 105.53V109.92H161.761C162.161 109.92 162.561 110.19 162.561 110.72V112.45C162.561 112.85 162.291 113.25 161.761 113.25H158.171V117.64C158.171 119.37 159.101 120.3 160.301 120.3C160.961 120.3 161.501 120.17 162.031 120.17H162.431C162.831 120.17 163.231 120.44 163.231 120.97V122.3C163.231 122.7 162.961 122.96 162.431 123.1C161.621 123.2 160.301 123.2 159.101 123.2Z" fill="white"/>
<path d="M168.271 117.49C168.401 119.48 169.331 120.41 171.331 120.41C172.391 120.41 173.321 120.14 173.721 119.61C173.991 119.21 174.521 118.95 175.051 118.95H176.911C177.311 118.95 177.711 119.22 177.711 119.75C177.711 122.41 175.051 123.34 171.201 123.34C166.811 123.34 164.161 120.95 164.161 116.3C164.161 111.78 166.821 109.26 171.201 109.26C175.581 109.26 178.241 111.65 178.241 116.17V116.83C178.241 117.23 177.971 117.63 177.441 117.63H168.271V117.49ZM168.271 114.83H173.851C173.721 112.97 172.921 111.91 171.061 111.91C169.201 112.04 168.271 112.97 168.271 114.83Z" fill="white"/>
<path d="M180.902 123.2C180.502 123.2 180.102 122.93 180.102 122.4V105.52C180.102 105.12 180.372 104.72 180.902 104.72H183.692C184.092 104.72 184.492 104.99 184.492 105.52V122.4C184.492 122.8 184.092 123.2 183.692 123.2H180.902Z" fill="white"/>
<path d="M71.5205 106.32C71.5205 106.05 71.6505 105.92 71.7905 105.79C71.9205 105.66 72.0605 105.52 72.3205 105.52H74.9805C75.2505 105.52 75.3805 105.65 75.5105 105.79C75.6405 105.92 75.7805 106.06 75.7805 106.32V110.04C77.1105 109.64 78.3105 109.38 79.2405 109.38C81.2305 109.38 82.7005 109.91 83.8905 111.11C85.0905 112.31 85.6205 114.03 85.6205 116.16C85.6205 120.68 83.0905 122.94 78.0405 122.94C76.8405 122.94 75.6505 122.81 74.4505 122.54C73.2505 122.27 72.1905 122.01 71.6605 121.61V106.33H71.5205V106.32ZM75.7705 112.83V119.87C76.4305 120 77.3605 120.14 78.3005 120.14C79.5005 120.14 80.2905 119.87 80.6905 119.21C81.2205 118.55 81.3505 117.62 81.3505 116.15C81.3505 114.82 81.0805 113.76 80.6905 113.09C80.3005 112.42 79.4905 112.16 78.3005 112.16C77.6305 112.3 76.7005 112.44 75.7705 112.83Z" fill="white"/>
<path d="M85.7402 110.44V110.31C85.7402 110.18 85.7402 110.04 85.8702 110.04C86.0002 109.91 86.1402 109.77 86.4002 109.77H88.7902C89.0602 109.77 89.1902 109.9 89.4502 110.04C89.7202 110.17 89.8502 110.44 89.8502 110.57L91.4402 115.62C91.8402 116.82 92.2402 117.75 92.6402 118.28C93.0402 118.81 93.5702 118.94 94.1002 118.94L96.4902 110.43C96.4902 110.16 96.6202 110.03 96.8902 109.9C97.0202 109.77 97.2902 109.63 97.5502 109.63H100.08C100.35 109.63 100.48 109.76 100.61 109.9C100.74 110.03 100.74 110.17 100.74 110.3V110.43L97.5502 121.73C97.0202 123.72 96.3502 125.19 95.4202 125.98C94.6202 126.78 93.4302 127.31 92.1002 127.31C90.9002 127.31 89.8402 127.18 88.9102 127.04C88.6402 127.04 88.5102 126.91 88.3802 126.77C88.2502 126.64 88.1102 126.5 88.1102 126.24V124.91C88.1102 124.64 88.2402 124.51 88.3802 124.38C88.5102 124.25 88.6502 124.11 88.9102 124.11H89.3102C89.4402 124.11 89.7102 124.11 90.1102 124.24C90.5102 124.24 90.7702 124.37 90.9102 124.37C92.1102 124.37 92.7702 123.57 93.3002 121.98C91.9702 121.98 90.7702 121.58 89.8402 120.78C88.9102 119.98 88.1102 118.52 87.4502 116.39L85.7402 110.44Z" fill="white"/>
<defs>
<linearGradient id="paint0_linear_321_38" x1="168.042" y1="-3.35907" x2="168.042" y2="79.268" gradientUnits="userSpaceOnUse">
<stop stop-color="#CB3129"/>
<stop offset="0.5056" stop-color="#C72734"/>
<stop offset="1" stop-color="#9D2535"/>
</linearGradient>
</defs>
</svg>
