<svg viewBox="0 0 90 27" fill="none" xmlns="http://www.w3.org/2000/svg">
<g clip-path="url(#clip0_1372_13077)">
<path d="M76.4494 0.143237C69.8255 0.143237 64.3126 4.83329 63.1342 11.0303C62.943 10.7823 62.7394 10.5438 62.5232 10.3141C61.6908 9.42928 60.7107 8.70839 59.5826 8.15298C58.4555 7.59649 57.2379 7.26811 55.9311 7.16678L59.4296 0H52.2805L46.2461 12.4762C46.1072 12.7505 45.9796 13.0301 45.8637 13.314C45.6114 12.7802 45.3058 12.2667 44.9465 11.7747C43.8831 10.3212 42.5442 9.22747 40.9292 8.49461L45.0802 0H32.3246L29.8595 6.37085H34.8179L31.1664 13.9167H36.7402C37.2273 13.9167 37.6814 14.005 38.1047 14.1822C38.528 14.3594 38.899 14.5989 39.2194 14.9029C39.54 15.206 39.802 15.5658 40.0074 15.9836C40.212 16.4011 40.328 16.837 40.3536 17.2922C40.328 17.7473 40.2128 18.177 40.0074 18.5815C39.8029 18.986 39.54 19.3398 39.2194 19.6438C38.8988 19.947 38.5269 20.1873 38.1047 20.3645C37.6814 20.5409 37.2273 20.63 36.7402 20.63C35.1004 20.63 33.7422 19.8841 32.6663 18.3929L32.167 17.7501L31.8597 18.0515L28.208 21.4644C29.2077 23.2089 30.4572 24.5673 31.9551 25.5405C33.4541 26.5136 35.0498 27.0002 36.7409 27.0002C37.9193 27.0002 39.0465 26.8046 40.1232 26.4123C41.2 26.02 42.173 25.483 43.0444 24.8006C43.9158 24.1184 44.6524 23.3023 45.2544 22.3546C45.5201 21.9362 45.7503 21.5003 45.9486 21.0505C46.4373 22.1188 47.0792 23.0727 47.8806 23.9097C48.7395 24.8068 49.7443 25.5277 50.8982 26.0709C52.0512 26.6143 53.2933 26.9243 54.6268 27.0002H55.7027C57.0096 26.9243 58.2395 26.615 59.3923 26.0709C60.5451 25.5274 61.551 24.8068 62.4099 23.9097C63.268 23.0127 63.947 21.9818 64.4472 20.819C64.5394 20.6033 64.6208 20.3839 64.6961 20.1629C67.0346 24.1761 71.4227 26.8788 76.4512 26.8788C83.934 26.8788 90.0002 20.894 90.0002 13.5115C90.0002 6.12906 83.9324 0.143237 76.4494 0.143237ZM58.4873 18.4671C58.2951 18.8968 58.0393 19.2699 57.7187 19.5852C57.3524 19.9465 56.9031 20.2245 56.3704 20.4207C56.0608 20.5349 55.7335 20.6022 55.4036 20.6206C54.7975 20.6544 54.2435 20.5625 53.7403 20.3435C53.3047 20.1539 52.9204 19.9006 52.5875 19.5852C52.2547 19.2699 51.9915 18.8968 51.7995 18.4671C51.6158 18.0562 51.5204 17.6109 51.5123 17.1305C51.5039 16.6339 51.6016 16.1366 51.7995 15.6804C51.9918 15.2374 52.2547 14.8584 52.5875 14.5431C52.9204 14.2269 53.3047 13.9744 53.7403 13.7848C54.2405 13.5671 54.7904 13.475 55.3922 13.5071C55.7238 13.5248 56.0532 13.5917 56.3648 13.7057C56.8998 13.9015 57.3511 14.1816 57.7185 14.5431C58.0292 14.8496 58.2791 15.2152 58.4693 15.64C58.6617 16.0699 58.7668 16.5375 58.7744 17.008C58.7827 17.5354 58.6865 18.0214 58.4873 18.4671ZM83.7064 16.555C83.2902 17.488 82.7332 18.297 82.0381 18.9826C81.2262 19.7836 80.2243 20.3989 79.033 20.8252C78.3995 21.052 77.734 21.1876 77.0618 21.2284C75.7288 21.3094 74.5095 21.1102 73.4049 20.6292C72.4593 20.2176 71.6251 19.669 70.9028 18.9826C70.1793 18.2967 69.6091 17.488 69.1921 16.555C68.7759 15.622 68.567 14.6078 68.567 13.5098C68.567 12.4118 68.7759 11.4656 69.1921 10.5057C69.61 9.5458 70.1793 8.72272 70.9028 8.03625C71.6253 7.35042 72.4593 6.80184 73.4049 6.39052C74.5114 5.90864 75.7331 5.70961 77.0691 5.7917C77.7405 5.83296 78.4051 5.96914 79.0377 6.19618C80.2269 6.6229 81.227 7.23626 82.0379 8.03625C82.7329 8.72186 83.29 9.54494 83.7062 10.5057C84.1241 11.4656 84.3312 12.4668 84.3312 13.5098C84.3312 14.6078 84.1243 15.6229 83.7064 16.555Z" fill="url(#paint0_linear_1372_13077)"/>
<path d="M74.1084 10.7176V16.2043C74.1093 16.3427 74.1463 16.4784 74.2159 16.5979C74.2854 16.7175 74.3851 16.8168 74.5048 16.8858C74.6246 16.9549 74.7604 16.9913 74.8986 16.9915C75.0368 16.9917 75.1726 16.9557 75.2926 16.887L77.6807 15.5132L80.0688 14.1422C80.1891 14.0742 80.2891 13.9753 80.3587 13.8559C80.4283 13.7364 80.465 13.6006 80.465 13.4623C80.465 13.3241 80.4283 13.1882 80.3587 13.0688C80.2891 12.9493 80.1891 12.8505 80.0688 12.7825L77.6807 11.4087L75.2926 10.0377C75.173 9.96825 75.0372 9.9315 74.8989 9.93115C74.7606 9.93081 74.6246 9.96689 74.5047 10.0358C74.3847 10.1046 74.2849 10.2039 74.2154 10.3236C74.1458 10.4433 74.1089 10.5791 74.1084 10.7176Z" fill="white"/>
<path d="M26.6349 0C25.9726 0 25.3814 0.412609 25.1572 1.03152L21.7835 10.3471C21.6896 10.5461 21.5962 10.6455 21.5027 10.6455C21.3826 10.6455 21.2889 10.5459 21.2224 10.3471L17.8359 0.997102C17.6193 0.398926 17.0479 0 16.4078 0H0V0.386741C0 1.71179 1.08174 2.78586 2.41625 2.78586H5.21037V13.9286H8.81752V2.78586H14.7602L18.5971 12.2177C19.1046 13.4645 20.073 14.0879 21.5027 14.0879C22.331 14.0879 22.9589 13.9222 23.3865 13.5904C23.8139 13.2591 24.1481 12.8013 24.3884 12.2177L29.3785 0H26.6347H26.6349Z" fill="white"/>
</g>
<defs>
<linearGradient id="paint0_linear_1372_13077" x1="59.1042" y1="-1.41228" x2="59.1042" y2="27.4847" gradientUnits="userSpaceOnUse">
<stop stop-color="#ED2D24"/>
<stop offset="0.51" stop-color="#E92231"/>
<stop offset="1" stop-color="#B92032"/>
</linearGradient>
<clipPath id="clip0_1372_13077">
<rect width="90" height="27" fill="white"/>
</clipPath>
</defs>
</svg>
