<svg viewBox="0 0 181 80" fill="none" xmlns="http://www.w3.org/2000/svg">
<path d="M119.751 69.998C105.532 55.7792 41.177 62.9377 33.5179 53.602C32.0983 51.849 30.9808 49.9247 29.6076 48.1317C27.225 45.1349 24.5078 42.42 21.5091 40.0398C22.1357 39.2863 38.9822 40.8193 39.9071 40.4667C40.8319 40.1142 40.4789 36.904 39.9071 36.0917C38.6745 37.3919 21.9058 36.6734 20.2195 36.0917C18.5333 35.51 17.0665 35.808 15.7456 34.6115L11.183 30.5821C10.0965 29.5379 8.89504 28.6205 7.60157 27.8474C6.21963 27.1621 4.76318 26.6387 3.26115 26.2875L0.590541 25.2104C1.2443 26.8972 0.875061 30.7673 1.62659 32.4063C15.9204 34.8073 12.6378 36.3138 22.4078 47.0268C26.0253 50.9782 29.5089 55.5081 33.5179 59.0575C42.1137 66.6655 110.691 62.9213 119.751 69.998Z" fill="#804D00"/>
<path d="M48.8368 35.3947C49.0427 34.6802 49.1281 33.9365 49.0896 33.1939C49.0915 33.1001 49.0772 33.0067 49.0472 32.9179C48.9618 32.6616 48.662 32.55 48.3934 32.5125C47.6565 32.4033 46.9052 32.5703 46.2839 32.9815C46.036 33.8476 45.6993 34.734 45.4652 35.6045C45.679 35.6724 45.909 35.6693 46.1209 35.5957C47.0158 35.4266 47.9268 35.3592 48.8368 35.3947Z" fill="url(#paint0_linear_230_42993)"/>
<path d="M38.7994 43.7041C38.2209 43.8145 37.6241 43.7799 37.0622 43.6034C36.6193 43.5007 36.1132 43.3288 35.9744 42.8967C35.9255 42.7499 35.9018 42.5958 35.9043 42.441C35.9127 42.1111 35.9211 41.7813 35.9231 41.4524C35.9197 41.1529 35.9463 40.8538 36.0026 40.5596C36.0801 40.21 36.2393 39.8838 36.4673 39.6076C37.2248 40.2237 38.1471 40.6029 39.1189 40.6979C39.3332 40.7241 39.5954 40.7626 39.6601 40.9695C39.6738 41.0583 39.6676 41.1491 39.6418 41.2352C39.4644 42.0899 39.1814 42.9192 38.7994 43.7041Z" fill="url(#paint1_linear_230_42993)"/>
<path d="M48.3864 42.9698C48.6601 43.0752 48.9578 43.1022 49.2461 43.0478C49.3195 43.0423 49.3909 43.0214 49.4557 42.9865C49.5205 42.9517 49.5773 42.9036 49.6223 42.8454C49.6719 42.7474 49.6915 42.637 49.6786 42.5279C49.6761 41.8922 49.5789 41.2605 49.3903 40.6535C48.8946 40.5693 48.3917 40.5344 47.8892 40.5492C47.7608 40.569 47.6067 40.5927 47.5415 40.6816C47.4763 40.7705 47.586 40.9704 47.6571 41.0909C48.054 41.6461 48.3048 42.2922 48.3864 42.9698Z" fill="url(#paint2_linear_230_42993)"/>
<path d="M39.3414 40.993C38.9278 41.8745 38.6906 42.8285 38.6431 43.8011C38.626 44.2914 38.7512 44.7762 39.0036 45.1968C39.2561 45.6174 39.625 45.9559 40.0657 46.1714C40.2492 46.2468 40.4475 46.2793 40.6454 46.2662C40.9857 46.1868 41.3135 46.0612 41.6197 45.8929C42.0828 45.7578 42.5529 45.6482 43.028 45.5645C43.4931 45.4273 43.9904 45.1996 44.0783 44.7458C45.1465 45.535 46.4651 45.909 47.7886 45.7982C48.1866 45.7369 48.6686 45.6234 48.7802 45.2382C48.8125 44.9579 48.7689 44.6741 48.6538 44.4165C48.5461 43.7696 48.5178 43.112 48.5693 42.4582C48.5881 42.1372 48.5206 41.8171 48.3738 41.5312C48.2269 41.2452 48.0061 41.0038 47.7344 40.8321L48.1763 40.843C48.9492 40.9359 49.732 40.788 50.4176 40.4193C50.9474 39.9669 51.3411 39.3763 51.5549 38.7133C51.6327 38.5615 51.6722 38.393 51.6699 38.2224C51.631 38.0415 51.5416 37.8753 51.4122 37.743C50.9747 37.2057 50.5155 36.6981 50.0325 36.2073C49.7049 35.8372 49.3125 35.5302 48.8746 35.3011C47.8905 34.8414 46.7162 35.1535 45.7395 35.6388C45.8422 35.0308 46.0896 34.4563 46.461 33.9639C46.7818 33.5457 46.9356 33.0232 46.8926 32.4978C46.8417 32.2803 46.7586 32.0716 46.6462 31.8786C46.3292 31.2703 45.9993 30.6639 45.663 30.0585C45.5595 29.8569 45.4203 29.6757 45.2522 29.5237C44.995 29.3811 44.7031 29.3129 44.4093 29.3268C44.1155 29.3407 43.8313 29.436 43.5886 29.6022C42.3257 30.3607 41.408 31.5814 41.0303 33.0054C40.2462 32.4092 39.3057 32.0539 38.3233 31.9827C38.2708 31.9774 38.2177 31.9856 38.1692 32.0064C38.1299 32.0396 38.1002 32.0827 38.0833 32.1313C37.8442 32.658 37.7282 33.2323 37.7443 33.8106C37.7604 34.3888 37.9081 34.9558 38.1761 35.4684C37.6149 35.5248 37.0938 35.785 36.7115 36.1997C36.3252 36.6722 35.9899 37.1841 35.7111 37.727C35.6281 37.8505 35.5798 37.9941 35.5713 38.1427C35.5695 38.2365 35.5839 38.3299 35.6138 38.4188C35.902 39.1974 36.408 39.8769 37.0714 40.3762C37.3837 40.6353 37.7479 40.8244 38.1395 40.9308C38.5311 41.0372 38.9409 41.0584 39.3414 40.993Z" fill="url(#paint3_radial_230_42993)"/>
<path d="M43.7112 39.6325C44.1325 40.3903 44.3478 41.2453 44.3358 42.1123C44.3364 42.5426 44.3014 42.9721 44.2311 43.3966C44.1723 43.8262 44.0741 44.2553 43.9906 44.6953C44.195 44.3038 44.3519 43.8892 44.4577 43.4603C44.581 43.0232 44.6441 42.5714 44.6454 42.1172C44.6615 41.6619 44.5873 41.2078 44.4269 40.7814C44.2666 40.3549 44.0233 39.9644 43.7112 39.6325Z" fill="#EBB039"/>
<path d="M45.8178 35.5629C45.4513 35.6274 45.1135 35.8033 44.8504 36.0665C44.7159 36.1932 44.601 36.3394 44.5097 36.5001C44.41 36.6582 44.3411 36.8338 44.3068 37.0176C44.4483 36.9078 44.5838 36.7904 44.7127 36.666L45.0855 36.3129C45.3245 36.0725 45.5729 35.8503 45.8178 35.5629Z" fill="#EBB039"/>
<path d="M41.1096 32.7949C40.9461 33.2176 40.941 33.6852 41.0953 34.1114C41.226 34.5317 41.4357 34.9231 41.713 35.2649C41.9846 35.5942 42.2783 35.9047 42.592 36.1942C42.8927 36.4831 43.1914 36.7591 43.4734 37.0969C43.2963 36.7054 43.0654 36.3406 42.7875 36.013C42.5258 35.6787 42.236 35.375 41.9826 35.0526C41.4161 34.4378 41.1041 33.6309 41.1096 32.7949Z" fill="#EBB039"/>
<path d="M38.1509 35.4717C39.0442 35.4924 39.9304 35.6346 40.7853 35.8944C41.2045 36.0236 41.6149 36.18 42.0138 36.3626C42.4174 36.5596 42.809 36.7802 43.1866 37.0233C42.8839 36.677 42.5323 36.3769 42.1427 36.1325C41.7497 35.8854 41.3265 35.6899 40.8836 35.5507C39.9974 35.2728 39.0516 35.2454 38.1509 35.4717Z" fill="#EBB039"/>
<path d="M39.2396 41.1797C39.7393 40.5489 40.3566 40.021 41.0573 39.6253C41.4005 39.4213 41.7688 39.2529 42.1298 39.0791C42.4908 38.9053 42.874 38.7478 43.2458 38.5592C42.8349 38.6181 42.4292 38.7091 42.0325 38.8313C41.6336 38.955 41.2494 39.122 40.8869 39.3295C40.1396 39.7362 39.5572 40.3904 39.2396 41.1797Z" fill="#EBB039"/>
<path d="M47.9273 40.7848C47.2285 40.6428 46.5405 40.4522 45.8682 40.2144C45.5409 40.0939 45.2233 39.9522 44.8994 39.8114C44.5755 39.6707 44.2659 39.4949 43.9405 39.3018C44.1813 39.5771 44.4594 39.8174 44.7666 40.0159C45.0755 40.2197 45.4056 40.3892 45.7512 40.5215C46.443 40.7905 47.1914 40.881 47.9273 40.7848Z" fill="#EBB039"/>
<path d="M43.444 38.2414C43.5477 38.5453 43.7108 38.8254 43.9237 39.0657C44.1367 39.3059 44.3952 39.5014 44.6844 39.6409" stroke="#814210" stroke-width="0.0568749" stroke-miterlimit="10"/>
<path d="M45.8031 38.443C45.5626 38.6078 45.2913 38.7223 45.0054 38.7799C44.7196 38.8374 44.4251 38.8367 44.1395 38.7778C43.923 38.7429 43.722 38.6432 43.5633 38.4918" stroke="#814210" stroke-width="0.0568749" stroke-miterlimit="10"/>
<path d="M42.8466 35.8498C42.7024 36.504 42.7936 37.1881 43.1043 37.7815C43.1784 37.9501 43.2937 38.0973 43.4396 38.2097" stroke="#814210" stroke-width="0.0568749" stroke-miterlimit="10"/>
<path d="M43.4414 38.3378C43.2563 38.325 43.0761 38.2728 42.9129 38.1845C42.7497 38.0963 42.6073 37.9741 42.4953 37.8262C42.2751 37.5239 42.1038 37.1888 41.9877 36.8332" stroke="#814210" stroke-width="0.0568749" stroke-miterlimit="10"/>
<path d="M43.5375 38.4112C43.6464 38.6694 43.8257 38.8918 44.055 39.0529C44.2843 39.214 44.5543 39.3073 44.8341 39.3223" stroke="#814210" stroke-width="0.0568749" stroke-miterlimit="10"/>
<path d="M44.2581 35.8711C43.7164 36.5017 43.4371 37.3161 43.4779 38.1465" stroke="#814210" stroke-width="0.0568749" stroke-miterlimit="10"/>
<path d="M43.3075 36.1409C43.1566 36.4643 43.0839 36.8187 43.0954 37.1754C43.1069 37.5321 43.2022 37.8811 43.3736 38.1941" stroke="#814210" stroke-width="0.0568749" stroke-miterlimit="10"/>
<path d="M43.1297 38.3494C42.6677 38.3782 42.2054 38.2985 41.7796 38.1167" stroke="#814210" stroke-width="0.0568749" stroke-miterlimit="10"/>
<path d="M43.282 38.3624C43.208 38.5898 43.1982 38.8332 43.2537 39.0658C43.3092 39.2985 43.4278 39.5113 43.5965 39.6808" stroke="#814210" stroke-width="0.0568749" stroke-miterlimit="10"/>
<path d="M45.1492 37.379C45.0875 37.4513 45.0313 37.5281 44.9808 37.6086C44.8111 37.8426 44.5841 38.0291 44.3216 38.1503C44.0591 38.2742 43.7619 38.3037 43.4802 38.2337" stroke="#814210" stroke-width="0.0568749" stroke-miterlimit="10"/>
<path d="M44.9085 38.0871C44.7402 38.2862 44.5072 38.4198 44.2503 38.4644C43.9943 38.5077 43.7316 38.4871 43.4854 38.4046" stroke="#814210" stroke-width="0.0568749" stroke-miterlimit="10"/>
<path d="M44.3325 37.106C44.1235 37.2286 43.9415 37.3924 43.7975 37.5873C43.6536 37.7823 43.5507 38.0044 43.495 38.2402" stroke="#814210" stroke-width="0.0568749" stroke-miterlimit="10"/>
<path d="M43.1776 38.3021C42.9817 38.4483 42.828 38.6437 42.7322 38.8685C42.6363 39.0933 42.6017 39.3395 42.632 39.582" stroke="#814210" stroke-width="0.0568749" stroke-miterlimit="10"/>
<path d="M45.9297 38.181C45.8826 38.2232 45.8436 38.2738 45.8147 38.3301C45.8017 38.3596 45.7974 38.3922 45.8023 38.424C45.8072 38.4559 45.8211 38.4857 45.8423 38.5099C45.8791 38.5405 45.9245 38.5587 45.9722 38.562C46.0199 38.5653 46.0674 38.5535 46.108 38.5282C46.2497 38.4669 46.6526 38.1815 46.5292 37.977C46.4057 37.7725 46.0132 38.0827 45.9297 38.181Z" fill="#814210"/>
<path d="M44.8675 39.1815C44.8378 39.1909 44.8128 39.2112 44.7974 39.2383C44.7868 39.2614 44.7832 39.2871 44.7871 39.3122C44.791 39.3373 44.8021 39.3607 44.8191 39.3796C44.8584 39.4113 44.9046 39.4335 44.9539 39.4443C45.0711 39.481 45.1936 39.4977 45.3164 39.4937C45.4153 39.4991 45.513 39.4702 45.5929 39.4117C45.7559 39.2749 45.6467 39.1208 45.4838 39.0867C45.2738 39.0385 45.0533 39.0724 44.8675 39.1815Z" fill="#814210"/>
<path d="M43.7296 39.5482C43.6836 39.5426 43.637 39.5498 43.5948 39.5689C43.5712 39.5755 43.5499 39.5882 43.5329 39.6058C43.516 39.6235 43.5041 39.6454 43.4985 39.6692C43.4919 39.6907 43.4903 39.7134 43.4937 39.7356C43.4971 39.7579 43.5055 39.779 43.5183 39.7976C43.5518 39.8298 43.5914 39.8549 43.6348 39.8717C43.7346 39.9221 44.1266 40.1641 44.1523 39.9892C44.178 39.8144 43.8659 39.5798 43.7296 39.5482Z" fill="#814210"/>
<path d="M44.8332 39.6157C44.7631 39.587 44.6791 39.5539 44.6208 39.6023C44.5626 39.6507 44.5774 39.747 44.6534 39.8142C44.7215 39.9199 44.8214 40.0012 44.9388 40.0463C45.0546 40.0915 45.1742 40.1259 45.2963 40.149C45.4667 40.1885 45.6494 40.0947 45.4805 39.9366C45.2775 39.8056 45.0604 39.6979 44.8332 39.6157Z" fill="#814210"/>
<path d="M45.0476 37.1739C45.019 37.225 45.0095 37.2848 45.0209 37.3423C45.0264 37.3708 45.0405 37.3969 45.0612 37.4172C45.0819 37.4375 45.1084 37.451 45.1369 37.4559C45.1764 37.4604 45.2163 37.4543 45.2525 37.4381C45.3656 37.3616 45.7695 37.0825 45.5547 36.925C45.3399 36.7674 45.093 37.042 45.0476 37.1739Z" fill="#814210"/>
<path d="M44.8926 37.8934C44.847 37.9404 44.8214 38.0032 44.821 38.0687C44.832 38.102 44.8538 38.1306 44.883 38.15C44.9122 38.1693 44.9471 38.1783 44.982 38.1754C45.0522 38.1666 45.1184 38.1381 45.1731 38.0934C45.2766 38.0308 45.3606 37.9405 45.4156 37.8327C45.428 37.8008 45.4318 37.7662 45.4266 37.7324C45.4214 37.6986 45.4073 37.6667 45.3859 37.64C45.2743 37.4272 44.9697 37.7961 44.8926 37.8934Z" fill="#814210"/>
<path d="M42.8015 39.6102C42.755 39.5732 42.6991 39.5499 42.64 39.543C42.6109 39.5405 42.5818 39.5484 42.5579 39.5653C42.534 39.5822 42.5169 39.607 42.5097 39.6354C42.5057 39.6726 42.5114 39.7103 42.5265 39.7445C42.5642 39.8203 42.6083 39.8927 42.6583 39.9609C42.6942 40.0098 42.7408 40.0499 42.7946 40.0779C42.8198 40.0917 42.8482 40.0985 42.8768 40.0977C42.9055 40.0969 42.9335 40.0885 42.9578 40.0734C42.9822 40.0583 43.0022 40.037 43.0157 40.0117C43.0291 39.9864 43.0357 39.9579 43.0346 39.9293C43.0277 39.7989 42.8702 39.672 42.8015 39.6102Z" fill="#814210"/>
<path d="M44.2628 36.9522C44.254 36.97 44.2492 36.9894 44.2486 37.0092C44.248 37.0289 44.2518 37.0486 44.2596 37.0668C44.2674 37.085 44.2791 37.1012 44.2938 37.1145C44.3085 37.1277 44.3259 37.1376 44.3448 37.1434C44.4638 37.1908 44.7813 37.0762 44.7245 36.9207C44.6677 36.7651 44.3389 36.8485 44.2628 36.9522Z" fill="#814210"/>
<path d="M44.2296 35.6756C44.2134 35.7185 44.207 35.7644 44.2109 35.81C44.214 35.8324 44.2232 35.8534 44.2375 35.871C44.2517 35.8885 44.2705 35.9017 44.2918 35.9093C44.3156 35.9154 44.3404 35.9166 44.3647 35.9129C44.3889 35.9091 44.4122 35.9005 44.4331 35.8875C44.513 35.8493 44.5896 35.8045 44.6622 35.7537C44.7246 35.7101 44.7684 35.6447 44.7851 35.5705C44.8261 35.2815 44.276 35.5502 44.2296 35.6756Z" fill="#814210"/>
<path d="M43.2666 35.9173C43.2365 35.9518 43.2157 35.9934 43.2064 36.0383C43.1966 36.0592 43.1933 36.0826 43.1968 36.1055C43.2003 36.1283 43.2105 36.1496 43.2261 36.1667C43.2874 36.223 43.3871 36.1879 43.4572 36.1311C43.5251 36.091 43.584 36.0372 43.6301 35.9731C43.6987 35.864 43.6735 35.743 43.5412 35.737C43.4304 35.7608 43.3325 35.8251 43.2666 35.9173Z" fill="#814210"/>
<path d="M43.1303 35.4048C43.1511 35.3618 43.1627 35.3149 43.1644 35.2671C43.1661 35.2193 43.1579 35.1717 43.1402 35.1273C43.1257 35.1053 43.1068 35.0865 43.0847 35.0723C43.0626 35.058 43.0377 35.0486 43.0117 35.0445C42.9857 35.0405 42.9591 35.0419 42.9337 35.0488C42.9083 35.0556 42.8846 35.0677 42.8641 35.0843C42.8287 35.126 42.8026 35.1749 42.7876 35.2275C42.711 35.3991 42.6943 35.5914 42.7402 35.7737C42.7482 35.8044 42.764 35.8327 42.7859 35.8557C42.8078 35.8788 42.8353 35.8959 42.8656 35.9055C42.8973 35.9095 42.9295 35.9036 42.9578 35.8887C42.986 35.8737 43.009 35.8505 43.0236 35.822C43.0756 35.6877 43.1114 35.5476 43.1303 35.4048Z" fill="#814210"/>
<path d="M42.0711 36.4738C42.0507 36.3484 41.9815 36.2362 41.8786 36.1617C41.8599 36.1471 41.8381 36.1369 41.8149 36.132C41.7635 36.1399 41.7255 36.1918 41.7141 36.2461C41.6918 36.3602 41.7004 36.4783 41.7393 36.5879C41.7781 36.6975 41.8456 36.7947 41.9349 36.8693C42.1872 37.0999 42.0934 36.5755 42.0711 36.4738Z" fill="#814210"/>
<path d="M41.2653 37.7595C41.2416 37.7577 41.2178 37.7621 41.1963 37.7723C41.1748 37.7825 41.1564 37.7982 41.1428 37.8178C41.1068 37.8825 41.1636 37.9526 41.211 38.0044C41.3552 38.1222 41.534 38.1893 41.7201 38.1956C41.7726 38.2073 41.8276 38.1989 41.8742 38.1719C42.1255 37.9689 41.368 37.7437 41.2653 37.7595Z" fill="#814210"/>
<path d="M75.7176 76.7178C76.225 77.5336 76.8674 78.2571 77.6172 78.8575C77.6995 78.9476 77.7988 79.0205 77.9094 79.0718C78.0789 79.1161 78.2573 79.1138 78.4256 79.0651C78.5939 79.0164 78.7459 78.9231 78.8655 78.7951C79.6061 78.1815 80.0945 77.3166 80.2376 76.3656C79.612 75.3717 79.0523 74.2609 78.4188 73.3139C78.1662 73.4618 77.9682 73.6875 77.8545 73.9572C77.2498 74.9559 76.5329 75.8822 75.7176 76.7178Z" fill="url(#paint4_linear_230_42993)"/>
<path d="M76.4172 59.9001C76.809 59.2492 77.357 58.7063 78.0115 58.3207C78.2239 58.1196 78.4832 57.9747 78.7659 57.8993C79.0485 57.8238 79.3455 57.8202 79.6299 57.8888C79.8109 57.9753 79.9741 58.095 80.1111 58.2417L81.0082 59.1176C81.3016 59.371 81.5676 59.6546 81.8016 59.9637C82.0724 60.3398 82.2492 60.7753 82.3171 61.2338C81.0719 61.4259 79.9109 61.981 78.9796 62.8297C78.7728 63.0216 78.5001 63.2313 78.2612 63.1156C78.1605 63.0561 78.0767 62.9719 78.0178 62.871C77.3633 61.9507 76.8257 60.9528 76.4172 59.9001Z" fill="url(#paint5_linear_230_42993)"/>
<path d="M78.539 62.7679C78.056 61.6084 77.3474 60.5565 76.4543 59.6732C76.0009 59.2374 75.4309 58.9423 74.8133 58.8235C74.1957 58.7048 73.5569 58.7675 72.9742 59.0041C72.7422 59.1116 72.5396 59.2736 72.3835 59.4761C72.1624 59.8695 71.999 60.2925 71.8983 60.7324C71.6829 61.3144 71.3014 61.8077 71.0029 62.3949C70.829 62.6464 70.7277 62.9409 70.7101 63.2462C70.6925 63.5514 70.7593 63.8557 70.9032 64.1255C69.225 64.4724 67.7291 65.4147 66.6914 66.7784C66.374 67.1931 66.083 67.7792 66.3712 68.2151C66.5642 68.5285 66.948 68.6448 67.2751 68.8384C67.9743 69.2922 68.619 69.8249 69.1965 70.4259C69.4877 70.7216 69.8531 70.9335 70.2543 71.0394C70.6556 71.1454 71.0779 71.1414 71.4771 71.028L71.0841 71.4468C70.328 72.1101 69.7952 72.9908 69.5585 73.9685C69.5356 74.8658 69.7616 75.752 70.2116 76.5287C70.2895 76.7358 70.4174 76.9204 70.5839 77.066C70.793 77.1863 71.032 77.2447 71.2731 77.2345C72.1633 77.2728 73.0478 77.274 73.9341 77.2368C74.5716 77.2493 75.2065 77.1516 75.8108 76.9481C77.0974 76.3918 77.7987 75.0032 78.1911 73.6392C78.6823 74.2644 79.0217 74.9951 79.1827 75.7737C79.2972 76.4501 79.6631 77.0583 80.207 77.4763C80.4596 77.6153 80.732 77.7148 81.0147 77.7714C81.8643 77.9914 82.7178 78.1879 83.5703 78.3769C83.8543 78.4535 84.15 78.4778 84.4428 78.4485C85.1875 78.334 85.6166 77.5056 85.8091 76.7746C86.1692 74.9091 85.7871 72.9766 84.7442 71.3885C85.9976 71.1379 87.1513 70.5287 88.0651 69.635C88.1103 69.5852 88.1429 69.5253 88.1602 69.4603C88.1657 69.3968 88.1558 69.333 88.1316 69.2741C87.8326 68.5886 87.3818 67.98 86.8131 67.4943C86.2445 67.0086 85.5729 66.6585 84.8491 66.4704C85.2948 65.8474 85.4796 65.0749 85.3641 64.3176C85.2522 63.5374 85.0501 62.7729 84.7621 62.0393C84.7127 61.8529 84.6183 61.6816 84.4871 61.5403C84.3898 61.465 84.2804 61.4071 84.1634 61.369C83.1656 60.9777 82.0765 60.8807 81.0252 61.0894C80.5163 61.1792 80.0319 61.375 79.6036 61.6642C79.1752 61.9533 78.8125 62.3294 78.539 62.7679Z" fill="url(#paint6_radial_230_42993)"/>
<path d="M76.077 68.1275C74.9803 67.8923 73.9671 67.3661 73.1439 66.6042C72.7317 66.2299 72.3484 65.8251 71.9971 65.3931C71.6408 64.96 71.3171 64.4914 70.9785 64.0251C71.175 64.5676 71.4338 65.0855 71.7496 65.5684C72.0643 66.0672 72.4444 66.5215 72.8799 66.9193C73.7464 67.7248 74.8943 68.1586 76.077 68.1275Z" fill="#EBB039"/>
<path d="M78.1664 73.666C78.4078 73.2541 78.5231 72.7805 78.4981 72.3037C78.4922 72.0668 78.456 71.8315 78.3904 71.6037C78.326 71.3739 78.2204 71.1576 78.0788 70.9655C78.0697 71.2033 78.0817 71.4301 78.0851 71.6507L78.1103 72.31C78.1258 72.7574 78.1229 73.1848 78.1664 73.666Z" fill="#EBB039"/>
<path d="M84.8948 71.5415C84.6258 71.0412 84.1941 70.6477 83.6711 70.4261C83.1549 70.1937 82.599 70.0618 82.0333 70.0377C81.4809 70.0121 80.9275 70.0233 80.3766 70.0714C79.8409 70.1081 79.303 70.1299 78.7519 70.1155C79.2818 70.2767 79.8314 70.364 80.3852 70.3751C80.9311 70.4054 81.4702 70.3911 82.0024 70.4312C83.0728 70.4189 84.1075 70.8161 84.8948 71.5415Z" fill="#EBB039"/>
<path d="M84.8726 66.3859C83.7013 67.6592 82.2655 68.6607 80.666 69.3201C80.1285 69.5345 79.5785 69.7158 79.019 69.8631C79.6124 69.86 80.2021 69.7693 80.7691 69.5939C81.3429 69.4289 81.893 69.1905 82.4058 68.8847C83.4354 68.2856 84.2869 67.4231 84.8726 66.3859Z" fill="#EBB039"/>
<path d="M78.4579 62.5039C78.644 63.5181 78.62 64.5597 78.3874 65.5642C78.2799 66.0717 78.1458 66.5733 77.9858 67.0668C77.8345 67.5703 77.6512 68.0636 77.5023 68.582C77.8084 68.1454 78.0765 67.6833 78.3037 67.2009C78.5369 66.7127 78.7138 66.1995 78.8308 65.6713C79.0724 64.6039 78.9408 63.486 78.4579 62.5039Z" fill="#EBB039"/>
<path d="M71.3312 71.1836C72.059 70.63 72.829 70.1343 73.6342 69.701C74.0358 69.4868 74.4419 69.3023 74.8642 69.123C75.2864 68.9437 75.7131 68.7942 76.1611 68.6338C75.6893 68.6416 75.2208 68.7137 74.7685 68.8481C74.3114 68.9681 73.8698 69.141 73.4526 69.363C72.6115 69.7936 71.8845 70.4175 71.3312 71.1836Z" fill="#EBB039"/>
<path d="M77.64 69.0735C77.2593 68.9106 76.8499 68.8251 76.4359 68.822C76.0218 68.819 75.6112 68.8984 75.2282 69.0557" stroke="#814210" stroke-width="0.0568749" stroke-miterlimit="10"/>
<path d="M75.4155 71.1836C75.4648 70.8106 75.5888 70.4513 75.7799 70.1272C75.971 69.8031 76.2255 69.5208 76.528 69.2972C76.7522 69.1228 77.0211 69.0154 77.3037 68.9872" stroke="#814210" stroke-width="0.0568749" stroke-miterlimit="10"/>
<path d="M80.4606 70.5714C79.9473 69.8554 79.1994 69.342 78.3468 69.1203C78.1182 69.0463 77.8746 69.0313 77.6387 69.0768" stroke="#814210" stroke-width="0.0568749" stroke-miterlimit="10"/>
<path d="M77.5571 68.9883C77.7311 68.8199 77.9396 68.6913 78.1682 68.6113C78.3967 68.5314 78.64 68.5021 78.881 68.5254C79.3627 68.5818 79.8338 68.7071 80.2799 68.8973" stroke="#814210" stroke-width="0.0568749" stroke-miterlimit="10"/>
<path d="M77.3872 69.0226C77.0458 68.9003 76.6767 68.8778 76.3231 68.9579C75.9695 69.0379 75.6461 69.2172 75.3907 69.4746" stroke="#814210" stroke-width="0.0568749" stroke-miterlimit="10"/>
<path d="M79.2116 71.9163C79.0753 70.8505 78.5354 69.8776 77.7032 69.198" stroke="#814210" stroke-width="0.0568749" stroke-miterlimit="10"/>
<path d="M79.7902 70.7635C79.6087 70.3398 79.3305 69.9646 78.9776 69.668C78.6248 69.3714 78.2074 69.1617 77.7588 69.0558" stroke="#814210" stroke-width="0.0568749" stroke-miterlimit="10"/>
<path d="M77.8145 68.6875C78.179 68.2026 78.6552 67.8129 79.2026 67.5515" stroke="#814210" stroke-width="0.0568749" stroke-miterlimit="10"/>
<path d="M77.6756 68.8232C77.521 68.5554 77.2954 68.3354 77.0238 68.1876C76.7522 68.0397 76.4451 67.9696 76.1363 67.9851" stroke="#814210" stroke-width="0.0568749" stroke-miterlimit="10"/>
<path d="M77.026 71.427C77.0149 71.3043 76.9962 71.1825 76.9699 71.0621C76.8889 70.6964 76.9039 70.3159 77.0135 69.9576C77.1252 69.6107 77.3463 69.3092 77.6436 69.0983" stroke="#814210" stroke-width="0.0568749" stroke-miterlimit="10"/>
<path d="M76.5407 70.6191C76.4947 70.2836 76.5692 69.9426 76.7509 69.6567C76.9315 69.3744 77.178 69.1402 77.4693 68.9744" stroke="#814210" stroke-width="0.0568749" stroke-miterlimit="10"/>
<path d="M77.9758 70.9167C78.0371 70.609 78.0356 70.292 77.9713 69.9849C77.907 69.6777 77.7813 69.3867 77.6017 69.1294" stroke="#814210" stroke-width="0.0568749" stroke-miterlimit="10"/>
<path d="M77.7856 68.7799C77.8167 68.4657 77.7632 68.1489 77.6306 67.8623C77.4981 67.5757 77.2913 67.3298 77.0317 67.15" stroke="#814210" stroke-width="0.0568749" stroke-miterlimit="10"/>
<path d="M75.5719 71.492C75.5743 71.4085 75.5615 71.3252 75.5341 71.2463C75.5176 71.2085 75.4915 71.1758 75.4583 71.1515C75.4251 71.1272 75.386 71.112 75.3451 71.1076C75.2259 71.1259 75.1429 71.2302 75.1068 71.3425C75.0707 71.4548 74.9601 72.1731 75.2431 72.2287C75.5261 72.2843 75.5857 71.6805 75.5719 71.492Z" fill="#814210"/>
<path d="M75.522 69.6404C75.5269 69.6023 75.521 69.5635 75.5048 69.5287C75.49 69.4998 75.4671 69.4759 75.4389 69.4599C75.4107 69.4439 75.3785 69.4365 75.3461 69.4387C75.2784 69.443 75.2133 69.4662 75.1582 69.5057C75.0239 69.5886 74.9035 69.692 74.8013 69.8122C74.7161 69.9027 74.6618 70.0178 74.6461 70.141C74.6363 70.4246 74.8764 70.4487 75.0476 70.3232C75.2868 70.1641 75.4564 69.92 75.522 69.6404Z" fill="#814210"/>
<path d="M76.1732 68.2142C76.2271 68.1832 76.2705 68.1367 76.2975 68.0807C76.3117 68.0534 76.318 68.0226 76.3158 67.9919C76.3135 67.9612 76.3027 67.9317 76.2846 67.9068C76.2666 67.8819 76.2419 67.8625 76.2134 67.8508C76.1849 67.8391 76.1537 67.8356 76.1234 67.8406C76.0654 67.8423 76.0079 67.8511 75.9521 67.867C75.8106 67.8887 75.2257 68.1007 75.397 68.2726C75.5683 68.4445 75.9985 68.3173 76.1732 68.2142Z" fill="#814210"/>
<path d="M75.1118 69.2468C75.2086 69.2319 75.3111 69.1552 75.3111 69.056C75.3111 68.9569 75.2092 68.8887 75.1066 68.8664C74.9465 68.845 74.7837 68.8701 74.6374 68.9385C74.4922 69.0112 74.3549 69.0988 74.2278 69.1998C74.0417 69.3276 73.9901 69.5871 74.2828 69.5574C74.57 69.4855 74.8481 69.3813 75.1118 69.2468Z" fill="#814210"/>
<path d="M77.287 71.5428C77.2625 71.4689 77.2123 71.4063 77.1455 71.3664C77.1117 71.3492 77.0735 71.3431 77.0361 71.3488C76.9987 71.3546 76.964 71.3719 76.937 71.3984C76.9093 71.4401 76.8905 71.4872 76.882 71.5365C76.855 71.7084 76.7731 72.3156 77.1157 72.2629C77.4583 72.2102 77.3677 71.721 77.287 71.5428Z" fill="#814210"/>
<path d="M76.7253 70.7691C76.7241 70.7273 76.7143 70.6862 76.6967 70.6483C76.679 70.6104 76.6539 70.5765 76.6228 70.5486C76.5834 70.5268 76.5379 70.5187 76.4935 70.5256C76.449 70.5324 76.408 70.5538 76.377 70.5864C76.3268 70.6575 76.2974 70.7412 76.2922 70.8281C76.2712 70.9857 76.2958 71.1459 76.3633 71.2899C76.3791 71.3317 76.4051 71.369 76.4389 71.3984C76.4727 71.4278 76.5132 71.4484 76.5569 71.4583C76.8433 71.5362 76.7568 70.9244 76.7253 70.7691Z" fill="#814210"/>
<path d="M76.8805 67.2704C76.9551 67.2622 77.0251 67.2301 77.0798 67.1787C77.1084 67.1525 77.127 67.1172 77.1322 67.0788C77.1374 67.0403 77.129 67.0013 77.1085 66.9684C77.0752 66.9353 77.0349 66.9103 76.9905 66.8951C76.8856 66.8618 76.7775 66.8401 76.6679 66.8303C76.5892 66.8234 76.51 66.8355 76.4371 66.8658C76.4018 66.8781 76.3705 66.8994 76.3462 66.9277C76.3219 66.956 76.3055 66.9903 76.2988 67.027C76.292 67.0637 76.2951 67.1015 76.3077 67.1366C76.3204 67.1717 76.3421 67.2028 76.3706 67.2268C76.5324 67.2919 76.71 67.3071 76.8805 67.2704Z" fill="#814210"/>
<path d="M78.177 70.9825C78.161 70.8782 78.0177 70.8392 77.9267 70.8914C77.8356 70.9435 77.5938 71.3543 77.8144 71.45C78.035 71.5457 78.216 71.1366 78.177 70.9825Z" fill="#814210"/>
<path d="M79.4152 71.9907C79.3915 71.9381 79.3528 71.8937 79.3041 71.8629C79.2798 71.8451 79.2512 71.834 79.2213 71.8305C79.1914 71.8271 79.1611 71.8316 79.1334 71.8434C79.1076 71.861 79.0856 71.8835 79.0687 71.9097C79.0518 71.9358 79.0403 71.9651 79.0348 71.9958C78.9965 72.1051 78.973 72.2189 78.9649 72.3344C78.953 72.3808 78.9506 72.4291 78.9579 72.4765C78.9652 72.5239 78.982 72.5693 79.0073 72.6099C79.3218 72.9199 79.5155 72.1963 79.4152 71.9907Z" fill="#814210"/>
<path d="M80.0332 70.9179C80.0267 70.8581 80.0048 70.801 79.9696 70.7523C79.951 70.7286 79.9273 70.7095 79.9001 70.6965C79.873 70.6834 79.8433 70.6768 79.8132 70.6772C79.7015 70.6944 79.6516 70.8164 79.6379 70.9253C79.6159 71.0257 79.6163 71.1298 79.6391 71.2301C79.6631 71.3865 79.8207 71.4691 79.9398 71.3516C80.0222 71.223 80.0554 71.069 80.0332 70.9179Z" fill="#814210"/>
<path d="M80.637 71.2269C80.6873 71.341 80.7805 71.4308 80.8965 71.4767C80.9303 71.4818 80.9649 71.4795 80.9978 71.4702C81.0307 71.4609 81.0613 71.4447 81.0875 71.4226C81.1137 71.4006 81.1348 71.3732 81.1496 71.3423C81.1644 71.3114 81.1724 71.2778 81.1732 71.2435C81.1771 71.1751 81.1665 71.1066 81.1422 71.0425C81.0464 70.8202 80.8754 70.6387 80.6593 70.5297C80.621 70.5156 80.5797 70.5115 80.5393 70.5177C80.4989 70.5239 80.4608 70.5403 80.4285 70.5653C80.3992 70.5933 80.3784 70.629 80.3683 70.6683C80.3582 70.7075 80.3592 70.7488 80.3712 70.7875C80.446 70.9419 80.5349 71.089 80.637 71.2269Z" fill="#814210"/>
<path d="M80.5234 69.2827C80.6645 69.3682 80.8319 69.3994 80.9943 69.3704C80.9943 69.3704 81.0613 69.36 81.0837 69.3566C81.106 69.3532 81.0642 69.23 81.0539 69.1629C80.9618 69.0525 80.8438 68.9664 80.7105 68.9124C80.5772 68.8584 80.4327 68.8382 80.2897 68.8535C79.8325 68.8552 80.414 69.2156 80.5234 69.2827Z" fill="#814210"/>
<path d="M80.006 67.3743C80.0284 67.3516 80.0446 67.3236 80.0532 67.293C80.0619 67.2623 80.0626 67.2299 80.0553 67.1989C80.0415 67.1095 79.9103 67.0992 79.8198 67.1055C79.5797 67.1401 79.3583 67.2548 79.1914 67.431C79.156 67.4679 79.1314 67.5139 79.1204 67.5639C79.0671 68.0601 79.9126 67.5106 80.006 67.3743Z" fill="#814210"/>
<path d="M114.141 46.057C114.519 45.7887 114.85 45.4602 115.122 45.0848C115.163 45.0429 115.196 44.9932 115.218 44.9386C115.233 44.8552 115.226 44.7693 115.198 44.6894C115.17 44.6095 115.121 44.5386 115.056 44.4838C114.739 44.1438 114.309 43.9318 113.847 43.8878C113.385 44.2152 112.878 44.51 112.423 44.8428C112.502 44.9627 112.617 45.0535 112.752 45.101C113.25 45.3656 113.716 45.6864 114.141 46.057Z" fill="url(#paint7_linear_230_42993)"/>
<path d="M106.005 46.1721C105.68 46 105.404 45.7486 105.202 45.4413C105.121 45.388 105.052 45.3169 105.002 45.2335C104.951 45.1501 104.92 45.0564 104.911 44.9593C104.902 44.8623 104.914 44.7644 104.948 44.6729C104.982 44.5815 105.036 44.4988 105.106 44.431L105.507 43.9619C105.621 43.8139 105.75 43.6775 105.891 43.5545C106.071 43.4133 106.281 43.3158 106.504 43.2696C106.629 43.8663 106.928 44.4125 107.363 44.8394C107.457 44.9367 107.568 45.0577 107.522 45.1831C107.495 45.2328 107.456 45.275 107.409 45.3055C106.98 45.6536 106.508 45.9449 106.005 46.1721Z" fill="url(#paint8_linear_230_42993)"/>
<path d="M110.952 49.5492C111.045 49.7067 111.178 49.8361 111.338 49.9235C111.376 49.95 111.419 49.9678 111.465 49.9756C111.51 49.9834 111.557 49.9809 111.602 49.9685C111.663 49.9411 111.716 49.8965 111.753 49.8401C111.999 49.5295 112.198 49.1844 112.344 48.816C112.135 48.5802 111.904 48.365 111.654 48.173C111.587 48.1241 111.508 48.0772 111.434 48.1083C111.36 48.1395 111.338 48.2545 111.332 48.3473C111.306 48.7731 111.176 49.1859 110.952 49.5492Z" fill="url(#paint9_linear_230_42993)"/>
<path d="M107.333 45.0676C106.786 45.3309 106.298 45.7009 105.897 46.1559C105.698 46.3861 105.57 46.6692 105.529 46.9706C105.488 47.272 105.535 47.5789 105.665 47.854C105.725 47.9604 105.807 48.053 105.904 48.1261C106.101 48.2215 106.311 48.2888 106.527 48.3261C106.816 48.413 107.062 48.6051 107.343 48.7197C107.469 48.796 107.613 48.836 107.76 48.8354C107.907 48.8348 108.052 48.7936 108.177 48.7162C108.389 49.5185 108.884 50.2172 109.57 50.6835C109.782 50.8218 110.07 50.9418 110.246 50.803C110.422 50.6643 110.431 50.5117 110.499 50.3566C110.704 50.0013 110.954 49.6736 111.243 49.3814C111.377 49.2323 111.47 49.0498 111.51 48.8529C111.55 48.656 111.537 48.452 111.471 48.262L111.683 48.4397C112.021 48.7881 112.459 49.0236 112.936 49.1143C113.372 49.1026 113.795 48.9691 114.159 48.7291C114.257 48.6879 114.342 48.6202 114.404 48.5336C114.459 48.4322 114.48 48.3163 114.465 48.2023C114.464 47.7687 114.439 47.3455 114.396 46.8986C114.378 46.5908 114.307 46.2883 114.186 46.0044C114.007 45.7152 113.766 45.4699 113.479 45.2865C113.193 45.1031 112.869 44.9863 112.532 44.9447C112.817 44.6842 113.164 44.4998 113.54 44.4084C113.776 44.3808 113.996 44.2728 114.163 44.1024C114.329 43.9321 114.432 43.7098 114.454 43.4727C114.535 43.0594 114.608 42.6407 114.676 42.2229C114.706 42.0841 114.711 41.9408 114.689 41.8002C114.634 41.4408 114.206 41.2635 113.846 41.1874C112.935 41.0626 112.012 41.299 111.273 41.8461C111.135 41.2475 110.823 40.7033 110.375 40.2823C110.348 40.2629 110.317 40.2497 110.284 40.2438C110.253 40.2421 110.223 40.2468 110.194 40.2576C109.863 40.4251 109.574 40.6671 109.352 40.9646C109.13 41.2622 108.98 41.6072 108.914 41.9725C108.62 41.7827 108.267 41.7062 107.921 41.7572C107.548 41.8331 107.185 41.9507 106.838 42.1078C106.748 42.1341 106.667 42.1852 106.605 42.2554C106.569 42.3018 106.544 42.3549 106.53 42.4115C106.366 42.9046 106.345 43.4342 106.469 43.9388C106.53 44.1753 106.638 44.3971 106.786 44.591C106.935 44.785 107.121 44.947 107.333 45.0676Z" fill="url(#paint10_radial_230_42993)"/>
<path d="M109.991 46.1146C109.95 46.3841 109.871 46.6464 109.756 46.8933C109.647 47.139 109.506 47.3686 109.335 47.5757C108.98 47.9827 108.58 48.3484 108.142 48.666C108.661 48.4452 109.12 48.1044 109.481 47.6715C109.655 47.4549 109.793 47.2119 109.889 46.9516C109.985 46.6836 110.02 46.3977 109.991 46.1146Z" fill="#EBB039"/>
<path d="M112.598 44.9669C112.39 44.8599 112.154 44.8161 111.922 44.841C111.697 44.863 111.482 44.946 111.301 45.081C111.526 45.0464 111.731 45.0148 111.951 45.0336C112.171 45.0524 112.367 45.0025 112.598 44.9669Z" fill="#EBB039"/>
<path d="M111.385 41.7687C111.153 41.914 110.976 42.1333 110.883 42.3914C110.784 42.648 110.735 42.9209 110.737 43.1958C110.741 43.734 110.846 44.2436 110.862 44.7734C110.922 44.513 110.949 44.2461 110.943 43.9789C110.942 43.7162 110.915 43.4511 110.928 43.1928C110.922 42.9373 110.953 42.6823 111.021 42.4358C111.085 42.1865 111.21 41.9572 111.385 41.7687Z" fill="#EBB039"/>
<path d="M108.912 41.9232C109.782 42.629 110.42 43.5791 110.744 44.651C110.71 44.0743 110.52 43.5177 110.194 43.0402C109.874 42.5606 109.431 42.175 108.912 41.9232Z" fill="#EBB039"/>
<path d="M107.208 45.1164C107.454 45.0522 107.706 45.0135 107.959 45.0009C108.208 44.9946 108.457 45.0113 108.703 45.0508C109.2 45.1433 109.692 45.2606 110.177 45.4024C109.731 45.134 109.239 44.9512 108.727 44.8631C108.467 44.8248 108.204 44.8233 107.944 44.8587C107.684 44.8941 107.434 44.9818 107.208 45.1164Z" fill="#EBB039"/>
<path d="M111.586 48.3261C111.005 47.6575 110.547 46.8915 110.232 46.0635C110.266 46.5204 110.408 46.9625 110.648 47.3533C110.881 47.7458 111.202 48.0788 111.586 48.3261Z" fill="#EBB039"/>
<path d="M110.402 45.3362C110.333 45.5247 110.303 45.7251 110.312 45.9256C110.321 46.1261 110.371 46.3227 110.457 46.504" stroke="#814210" stroke-width="0.0328125" stroke-miterlimit="10"/>
<path d="M111.466 46.3617C111.283 46.3436 111.105 46.289 110.944 46.2009C110.782 46.1129 110.64 45.9932 110.526 45.8491C110.438 45.7464 110.38 45.621 110.359 45.4871" stroke="#814210" stroke-width="0.0328125" stroke-miterlimit="10"/>
<path d="M111.062 43.9396C110.728 44.203 110.501 44.5789 110.423 44.9973C110.391 45.1068 110.389 45.2228 110.416 45.3336" stroke="#814210" stroke-width="0.0328125" stroke-miterlimit="10"/>
<path d="M110.363 45.3802C110.278 45.3017 110.212 45.2058 110.168 45.099C110.124 44.9922 110.105 44.8772 110.11 44.7619C110.119 44.5298 110.166 44.3007 110.249 44.0835" stroke="#814210" stroke-width="0.0328125" stroke-miterlimit="10"/>
<path d="M110.384 45.4624C110.334 45.6302 110.332 45.8089 110.381 45.9774C110.429 46.1459 110.524 46.2971 110.655 46.413" stroke="#814210" stroke-width="0.0328125" stroke-miterlimit="10"/>
<path d="M111.735 44.5075C111.222 44.6005 110.765 44.8874 110.458 45.3086" stroke="#814210" stroke-width="0.0328125" stroke-miterlimit="10"/>
<path d="M111.159 44.2581C110.958 44.3556 110.784 44.4995 110.65 44.6777C110.517 44.856 110.427 45.0636 110.39 45.2832" stroke="#814210" stroke-width="0.0328125" stroke-miterlimit="10"/>
<path d="M110.207 45.2668C109.97 45.0965 109.774 44.8751 109.634 44.6189" stroke="#814210" stroke-width="0.0328125" stroke-miterlimit="10"/>
<path d="M110.275 45.3284C110.15 45.4103 110.051 45.5251 109.987 45.6601C109.923 45.7952 109.897 45.9452 109.913 46.0938" stroke="#814210" stroke-width="0.0328125" stroke-miterlimit="10"/>
<path d="M111.55 45.5693L111.377 45.5959C111.204 45.6453 111.021 45.6485 110.846 45.6053C110.668 45.5627 110.51 45.4591 110.4 45.3124" stroke="#814210" stroke-width="0.0328125" stroke-miterlimit="10"/>
<path d="M111.168 45.8354C111.01 45.87 110.844 45.8439 110.704 45.7623C110.563 45.6833 110.444 45.5706 110.357 45.4343" stroke="#814210" stroke-width="0.0328125" stroke-miterlimit="10"/>
<path d="M111.278 45.1298C111.128 45.107 110.974 45.1157 110.828 45.1552C110.681 45.1947 110.544 45.2642 110.426 45.3594" stroke="#814210" stroke-width="0.0328125" stroke-miterlimit="10"/>
<path d="M110.246 45.2624C110.094 45.2583 109.943 45.2943 109.809 45.3669C109.675 45.4394 109.562 45.5459 109.482 45.6758" stroke="#814210" stroke-width="0.0328125" stroke-miterlimit="10"/>
<path d="M111.625 46.2732C111.583 46.2731 111.542 46.2794 111.503 46.2919C111.485 46.3006 111.47 46.3141 111.46 46.3308C111.45 46.3474 111.445 46.3667 111.445 46.3863C111.45 46.4142 111.463 46.4399 111.484 46.4592C111.505 46.4786 111.532 46.4906 111.56 46.4934C111.657 46.5246 111.968 46.5424 111.99 46.4273C112.012 46.3122 111.715 46.2658 111.625 46.2732Z" fill="#814210"/>
<path d="M110.729 46.3408L110.671 46.3497C110.657 46.3571 110.646 46.3686 110.639 46.3826C110.632 46.3967 110.629 46.4125 110.631 46.4282C110.629 46.4588 110.634 46.4895 110.645 46.5181C110.687 46.5824 110.74 46.6388 110.802 46.6845C110.845 46.7264 110.903 46.7504 110.963 46.7517C111.098 46.731 111.11 46.6371 111.045 46.5551C110.966 46.4504 110.855 46.3749 110.729 46.3408Z" fill="#814210"/>
<path d="M110.03 46.0826C110.01 46.0592 109.985 46.0406 109.956 46.0282C109.943 46.0221 109.928 46.0201 109.913 46.0224C109.898 46.0247 109.884 46.0311 109.873 46.0411C109.856 46.063 109.846 46.0898 109.845 46.1176C109.844 46.146 109.848 46.1745 109.858 46.2011C109.868 46.2653 109.981 46.5305 110.062 46.4589C110.143 46.3873 110.087 46.1527 110.03 46.0826Z" fill="#814210"/>
<path d="M110.549 46.555C110.542 46.51 110.502 46.4636 110.456 46.4641C110.411 46.4646 110.372 46.5164 110.367 46.5634C110.356 46.6422 110.368 46.7226 110.402 46.7945C110.441 46.8618 110.486 46.9253 110.536 46.9842C110.609 47.0716 110.731 47.0923 110.71 46.9575C110.675 46.8166 110.621 46.6811 110.549 46.555Z" fill="#814210"/>
<path d="M111.6 45.4481C111.582 45.4531 111.566 45.4621 111.552 45.4745C111.538 45.4869 111.527 45.5024 111.519 45.5197C111.511 45.535 111.507 45.5529 111.51 45.5704C111.513 45.5879 111.521 45.604 111.534 45.616C111.555 45.6302 111.579 45.6379 111.603 45.6382C111.687 45.6254 111.99 45.6708 111.952 45.5123C111.914 45.3537 111.685 45.4021 111.6 45.4481Z" fill="#814210"/>
<path d="M111.246 45.7301C111.201 45.737 111.156 45.744 111.143 45.7919C111.133 45.8105 111.13 45.8318 111.133 45.8526C111.136 45.8734 111.146 45.8927 111.161 45.9074C111.2 45.9256 111.242 45.937 111.285 45.941C111.361 45.9521 111.439 45.9401 111.509 45.9065C111.529 45.898 111.547 45.8846 111.56 45.8676C111.574 45.8506 111.583 45.8305 111.586 45.8092C111.608 45.6546 111.335 45.7163 111.246 45.7301Z" fill="#814210"/>
<path d="M109.554 45.7548C109.548 45.7181 109.532 45.684 109.506 45.657C109.506 45.657 109.429 45.623 109.41 45.6718C109.391 45.7207 109.384 45.7153 109.374 45.7365C109.359 45.7868 109.352 45.8388 109.352 45.8911C109.347 45.9284 109.353 45.9661 109.368 46.0003C109.375 46.0165 109.387 46.0307 109.401 46.0415C109.415 46.0522 109.431 46.0592 109.449 46.0618C109.466 46.0644 109.484 46.0624 109.501 46.0562C109.517 46.0499 109.532 46.0395 109.543 46.026C109.584 45.9474 109.564 45.819 109.554 45.7548Z" fill="#814210"/>
<path d="M111.299 45.0234C111.288 45.0286 111.278 45.0362 111.27 45.0455C111.262 45.0548 111.257 45.0657 111.253 45.0774C111.25 45.0892 111.25 45.1014 111.252 45.1134C111.254 45.1254 111.258 45.1368 111.265 45.1469C111.277 45.2239 111.499 45.3015 111.535 45.1908C111.57 45.0802 111.381 45.0041 111.299 45.0234Z" fill="#814210"/>
<path d="M111.791 44.3966C111.765 44.4119 111.743 44.4333 111.728 44.4588C111.724 44.4717 111.722 44.4854 111.724 44.4988C111.726 44.5122 111.732 44.525 111.74 44.5359C111.76 44.5607 111.788 44.5774 111.819 44.5828C111.872 44.5966 111.926 44.6037 111.98 44.6041C112.003 44.6102 112.027 44.6115 112.05 44.6079C112.073 44.6043 112.095 44.596 112.115 44.5833C112.215 44.4233 111.863 44.3527 111.791 44.3966Z" fill="#814210"/>
<path d="M111.231 44.1351C111.203 44.1328 111.174 44.1372 111.148 44.148C111.13 44.1606 111.116 44.1791 111.11 44.2004C111.104 44.2217 111.105 44.2445 111.113 44.265C111.121 44.3164 111.184 44.3396 111.237 44.3445C111.288 44.3469 111.338 44.3392 111.385 44.3218C111.462 44.31 111.489 44.227 111.435 44.1761C111.374 44.138 111.302 44.1234 111.231 44.1351Z" fill="#814210"/>
<path d="M111.362 43.8312C111.413 43.8029 111.453 43.7572 111.473 43.7023C111.476 43.6859 111.475 43.6691 111.47 43.6532C111.465 43.6373 111.456 43.6227 111.445 43.6106C111.434 43.5984 111.42 43.589 111.404 43.583C111.389 43.577 111.372 43.5745 111.355 43.5759C111.323 43.5716 111.289 43.5767 111.259 43.5907C111.155 43.6453 111.072 43.7319 111.021 43.8376C111.014 43.8568 111.012 43.8775 111.015 43.8976C111.019 43.9178 111.027 43.9369 111.039 43.9532C111.053 43.9669 111.071 43.9762 111.09 43.9803C111.109 43.9843 111.129 43.9828 111.148 43.9759C111.222 43.932 111.293 43.8837 111.362 43.8312Z" fill="#814210"/>
<path d="M110.405 43.9423C110.425 43.9082 110.438 43.8705 110.443 43.8313C110.449 43.7921 110.446 43.7523 110.436 43.7142C110.437 43.701 110.435 43.6879 110.43 43.6756C110.415 43.6668 110.397 43.6634 110.379 43.6661C110.362 43.6688 110.346 43.6774 110.334 43.6904C110.283 43.7371 110.244 43.7959 110.222 43.8614C110.2 43.9268 110.195 43.9968 110.207 44.0648C110.242 44.2895 110.413 43.9937 110.405 43.9423Z" fill="#814210"/>
<path d="M109.518 44.2396C109.507 44.2303 109.494 44.2236 109.48 44.2201C109.465 44.2166 109.451 44.2163 109.436 44.2193C109.391 44.2262 109.388 44.2924 109.395 44.3374C109.416 44.4506 109.476 44.553 109.565 44.6268C109.587 44.6517 109.617 44.668 109.651 44.6727C109.861 44.6732 109.584 44.2821 109.518 44.2396Z" fill="#814210"/>
<path d="M22.6135 62.1643C23.9999 62.4592 25.4261 62.5186 26.8323 62.34C27.0125 62.3415 27.1917 62.3139 27.3631 62.2584C27.8371 62.0593 28.0085 61.4702 28.0464 60.9598C28.1483 59.5499 27.7223 58.1525 26.8514 57.0391C25.167 56.6869 23.447 56.1656 21.7634 55.8812C21.6614 56.2761 21.6849 56.693 21.8304 57.0741C22.2848 58.7354 22.5476 60.4432 22.6135 62.1643Z" fill="url(#paint11_linear_230_42993)"/>
<path d="M5.45463 44.2077C5.16706 43.1346 5.15029 42.0069 5.40582 40.9258C5.54583 40.0698 5.81052 39.0781 6.61186 38.7996C6.89333 38.7078 7.18788 38.6625 7.48393 38.6655L9.36149 38.5707C9.93162 38.5216 10.5053 38.5309 11.0735 38.5984C11.7467 38.7017 12.3871 38.9584 12.9452 39.3487C11.8745 40.8695 11.2776 42.673 11.2295 44.5322C11.2149 44.942 11.1675 45.4539 10.7781 45.572C10.6127 45.6148 10.439 45.6148 10.2736 45.572C8.61702 45.3182 6.99835 44.86 5.45463 44.2077Z" fill="url(#paint12_linear_230_42993)"/>
<path d="M8.14132 62.3283C7.98621 62.8642 7.97639 63.4316 8.11286 63.9725C8.13278 64.1113 8.18286 64.2439 8.25958 64.3612C8.3363 64.4785 8.43778 64.5776 8.5569 64.6514C8.74745 64.7304 8.95609 64.7554 9.15991 64.7236C10.3687 64.6287 11.5561 64.3512 12.6817 63.9004C12.7727 62.9486 12.7715 61.9901 12.6781 61.0385C12.6857 60.9146 12.662 60.7908 12.6091 60.6786C12.5562 60.5663 12.4759 60.4691 12.3755 60.3961C12.1152 60.2809 11.8352 60.4792 11.6135 60.6783C10.6092 61.5051 9.41665 62.0718 8.14132 62.3283Z" fill="url(#paint13_linear_230_42993)"/>
<path d="M10.6754 44.8824C8.9487 44.2183 7.10972 43.8949 5.26004 43.93C4.33268 43.9654 3.43549 44.269 2.6773 44.8042C1.91912 45.3394 1.33251 46.083 0.988647 46.945C0.871777 47.3001 0.836873 47.677 0.886553 48.0475C1.08061 48.6877 1.36386 49.2975 1.72797 49.8587C2.12753 50.6899 2.22449 51.6356 2.55114 52.4975C2.87779 53.3594 3.3736 54.3116 4.28576 54.3751C2.93948 56.5138 2.40566 59.0647 2.78143 61.5637C2.89955 62.3315 3.23859 63.2109 4.02971 63.3706C4.56493 63.3984 5.09728 63.2762 5.56676 63.0177C6.76379 62.7369 7.98956 62.5972 9.21907 62.6014C9.83118 62.5954 10.4303 62.4245 10.9535 62.1067C11.4767 61.7888 11.9044 61.3358 12.1918 60.7953L12.2348 61.6426C12.158 63.1228 12.5466 64.59 13.346 65.8381C14.2612 66.7751 15.4181 67.4402 16.6884 67.7595C17.0004 67.8961 17.3432 67.9472 17.6815 67.9075C18.024 67.8128 18.3316 67.6205 18.5667 67.3541C19.5146 66.4514 20.4268 65.5057 21.2952 64.528C21.9584 63.8562 22.4949 63.0702 22.8789 62.2078C23.6191 60.2698 22.8739 58.075 21.8145 56.2973C22.9862 56.4046 24.1147 56.7936 25.1036 57.4312C25.9371 58.0005 26.9528 58.2386 27.9524 58.0992C28.3603 57.9693 28.7464 57.7791 29.0979 57.5348C30.1975 56.8611 31.2832 56.1604 32.355 55.4327C32.7269 55.2127 33.0545 54.9254 33.3212 54.5855C33.9461 53.6645 33.5268 52.39 32.9428 51.4319C31.5028 49.0723 28.8159 47.6906 26.1341 47.0358C27.1581 45.4549 27.694 43.6074 27.6748 41.7239C27.6683 41.6254 27.637 41.53 27.5837 41.4468C27.5191 41.3779 27.4377 41.3269 27.3474 41.2988C26.3135 40.9125 25.2048 40.7681 24.1064 40.8765C23.0079 40.9849 21.9489 41.3434 21.0104 41.9244C20.8292 40.8684 20.2609 39.9179 19.4165 39.2586C18.4742 38.5813 17.459 38.0117 16.3898 37.5603C16.1437 37.4185 15.8645 37.3443 15.5805 37.3452C15.4011 37.363 15.2277 37.4195 15.0723 37.5107C13.6299 38.1656 12.4049 39.2193 11.5417 40.5476C11.1035 41.17 10.8 41.8771 10.6509 42.6235C10.5017 43.37 10.51 44.1393 10.6754 44.8824Z" fill="url(#paint14_radial_230_42993)"/>
<path d="M13.8496 52.9984C12.4895 53.9424 10.8955 54.4931 9.24282 54.5901C8.41973 54.6447 7.59355 54.6323 6.77247 54.5529C5.94562 54.4763 5.11949 54.3414 4.28389 54.208C5.0662 54.5376 5.88136 54.783 6.71559 54.9401C7.56027 55.1031 8.42287 55.1532 9.28074 55.0889C11.0169 55.0097 12.6546 54.2604 13.8496 52.9984Z" fill="#EBB039"/>
<path d="M21.8718 56.4412C21.662 55.7579 21.2655 55.1467 20.727 54.6767C20.4686 54.4449 20.1837 54.2445 19.8783 54.0795C19.5558 53.9146 19.2109 53.7977 18.8546 53.7324C19.1163 53.9832 19.3708 54.1867 19.6187 54.4105L20.3486 55.0551C20.8867 55.5254 21.3307 55.952 21.8718 56.4412Z" fill="#EBB039"/>
<path d="M26.5056 47.1191C25.6956 46.9059 24.8373 46.9729 24.0702 47.3094C23.303 47.6082 22.5974 48.0457 21.9885 48.5999C21.3966 49.1582 20.8399 49.7526 20.3216 50.3797C19.7953 50.9947 19.2379 51.5824 18.6518 52.1406C19.3552 51.7294 20.0023 51.2287 20.5768 50.651C21.1609 50.0954 21.7012 49.5077 22.2612 48.9849C22.8652 48.4507 23.5412 48.0038 24.2693 47.6572C24.9566 47.2899 25.7264 47.1046 26.5056 47.1191Z" fill="#EBB039"/>
<path d="M20.9956 41.8717C21.214 44.4308 20.8219 47.0053 19.8514 49.3834C19.525 50.175 19.1402 50.9413 18.7001 51.6758C19.3028 51.0286 19.808 50.2971 20.2 49.5044C20.6016 48.7242 20.9079 47.8984 21.1122 47.045C21.5237 45.3397 21.4835 43.5567 20.9956 41.8717Z" fill="#EBB039"/>
<path d="M10.3252 44.7209C11.6234 45.5429 12.7307 46.633 13.5728 47.9183C14.002 48.5568 14.3954 49.2187 14.7511 49.9009L15.8324 51.9469C15.6437 51.1814 15.3985 50.431 15.0989 49.7018C14.8024 48.9675 14.4279 48.2671 13.9819 47.6128C13.12 46.2676 11.8328 45.2496 10.3252 44.7209Z" fill="#EBB039"/>
<path d="M12.2344 61.1601C12.3588 59.8082 12.6078 58.4706 12.9782 57.1644C13.1597 56.5154 13.3836 55.8891 13.6548 55.2555C13.9261 54.6219 14.2017 54.0167 14.4948 53.3991C14.0289 53.9082 13.6302 54.475 13.3085 55.0856C12.9784 55.7015 12.714 56.3503 12.5195 57.0215C12.1082 58.3609 12.0106 59.777 12.2344 61.1601Z" fill="#EBB039"/>
<path d="M16.4656 52.3081C15.8965 52.5433 15.3804 52.8903 14.9478 53.3285C14.5152 53.7667 14.1749 54.2873 13.9471 54.8594" stroke="#814210" stroke-width="0.0568749" stroke-miterlimit="10"/>
<path d="M16.3969 56.818C16.0516 56.3825 15.7976 55.8819 15.6501 55.3461C15.5027 54.8103 15.4648 54.2502 15.5387 53.6994C15.5775 53.2842 15.7358 52.8891 15.9945 52.5619" stroke="#814210" stroke-width="0.0568749" stroke-miterlimit="10"/>
<path d="M20.937 50.8403C19.65 50.6398 18.334 50.9111 17.2314 51.6044C16.9211 51.7655 16.657 52.0032 16.4643 52.2949" stroke="#814210" stroke-width="0.0568749" stroke-miterlimit="10"/>
<path d="M16.2552 52.3125C16.2543 51.954 16.3321 51.5996 16.4833 51.2745C16.6346 50.9494 16.8554 50.6616 17.1302 50.4313C17.6796 49.9783 18.2932 49.6092 18.9509 49.3362" stroke="#814210" stroke-width="0.0568749" stroke-miterlimit="10"/>
<path d="M16.1374 52.5082C15.6665 52.7546 15.2731 53.1267 15.0007 53.583C14.7284 54.0394 14.5878 54.5623 14.5945 55.0938" stroke="#814210" stroke-width="0.0568749" stroke-miterlimit="10"/>
<path d="M21.0906 53.5371C19.8176 52.5936 18.2326 52.1711 16.6588 52.3558" stroke="#814210" stroke-width="0.0568749" stroke-miterlimit="10"/>
<path d="M20.4403 51.7469C19.8039 51.5061 19.1199 51.4182 18.4433 51.4903C17.7668 51.5623 17.1166 51.7923 16.5452 52.1617" stroke="#814210" stroke-width="0.0568749" stroke-miterlimit="10"/>
<path d="M16.215 51.709C16.0995 50.8285 16.184 49.9332 16.4622 49.0899" stroke="#814210" stroke-width="0.0568749" stroke-miterlimit="10"/>
<path d="M16.2022 52.001C15.7594 51.8949 15.2961 51.9121 14.8624 52.0507C14.4287 52.1892 14.0412 52.4439 13.742 52.7871" stroke="#814210" stroke-width="0.0568749" stroke-miterlimit="10"/>
<path d="M18.3166 55.3469C18.1744 55.2426 18.0162 55.1602 17.8551 55.0589C17.3754 54.776 16.9786 54.3719 16.7045 53.8871C16.4453 53.3992 16.359 52.8379 16.4595 52.2947" stroke="#814210" stroke-width="0.0568749" stroke-miterlimit="10"/>
<path d="M16.9539 55.0455C16.5411 54.7524 16.2525 54.3159 16.1446 53.8213C16.0262 53.3394 16.0287 52.8357 16.1519 52.3549" stroke="#814210" stroke-width="0.0568749" stroke-miterlimit="10"/>
<path d="M18.7433 53.8315C18.4823 53.4488 18.1455 53.124 17.7536 52.8771C17.3617 52.6302 16.9232 52.4666 16.4654 52.3965" stroke="#814210" stroke-width="0.0568749" stroke-miterlimit="10"/>
<path d="M16.3122 51.7985C16.0091 51.4468 15.6178 51.182 15.1786 51.0313C14.7394 50.8806 14.268 50.8494 13.8127 50.941" stroke="#814210" stroke-width="0.0568749" stroke-miterlimit="10"/>
<path d="M16.9081 56.974C16.8193 56.8889 16.7167 56.8193 16.6048 56.7684C16.5471 56.7437 16.4837 56.7357 16.4217 56.7452C16.3597 56.7547 16.3016 56.7815 16.2541 56.8223C16.1279 56.9485 16.1804 57.1636 16.2621 57.3159C16.3437 57.4683 16.989 58.32 17.3456 58.0517C17.7021 57.7833 17.1203 57.1548 16.9081 56.974Z" fill="#814210"/>
<path d="M14.8767 55.1214C14.8598 55.0948 14.8376 55.0719 14.8115 55.0542C14.7855 55.0365 14.756 55.0244 14.725 55.0186C14.6825 54.9952 14.6334 54.9865 14.5854 54.9939C14.5374 55.0013 14.4932 55.0243 14.4596 55.0594C14.4 55.1351 14.3604 55.2246 14.3444 55.3197C14.2932 55.5476 14.2801 55.7824 14.3058 56.0146C14.3058 56.2026 14.3715 56.3847 14.4917 56.5293C14.7797 56.8247 15.0553 56.5979 15.1035 56.28C15.1716 55.8791 15.0909 55.467 14.8767 55.1214Z" fill="#814210"/>
<path d="M14.0213 53.0094C14.0312 52.9189 14.0171 52.8274 13.9804 52.744C13.9666 52.7013 13.941 52.6633 13.9066 52.6345C13.8723 52.6056 13.8305 52.5869 13.786 52.5806C13.7416 52.5743 13.6963 52.5806 13.6552 52.5988C13.6142 52.617 13.5791 52.6463 13.5539 52.6835C13.4964 52.7491 13.4521 52.8251 13.4234 52.9073C13.3468 53.1035 12.9428 53.8837 13.2753 53.9004C13.6078 53.9172 13.9739 53.269 14.0213 53.0094Z" fill="#814210"/>
<path d="M14.0474 55.1247C14.1058 54.9992 14.1568 54.8264 14.054 54.7258C13.9512 54.6252 13.7726 54.6624 13.6559 54.7871C13.4602 54.9315 13.3148 55.1337 13.2403 55.3653C13.1714 55.5943 13.123 55.8291 13.0959 56.0667C13.0492 56.3941 13.2723 56.7091 13.5224 56.3795C13.7533 55.9869 13.9299 55.5647 14.0474 55.1247Z" fill="#814210"/>
<path d="M18.7154 55.2014C18.614 55.1537 18.499 55.1439 18.391 55.1736C18.3355 55.1859 18.2859 55.2168 18.2504 55.261C18.2149 55.3053 18.1955 55.3604 18.1955 55.4172C18.2057 55.4923 18.2403 55.562 18.294 55.6155C18.4427 55.8255 19.0297 56.5503 19.341 56.1143C19.6524 55.6782 18.9881 55.3341 18.7154 55.2014Z" fill="#814210"/>
<path d="M17.3248 55.0085C17.2169 54.9378 17.0981 54.859 16.9778 54.8969C16.916 54.9181 16.864 54.9612 16.8317 55.018C16.7993 55.0747 16.7888 55.1414 16.802 55.2053C16.8221 55.3373 16.8816 55.46 16.9727 55.5575C17.1062 55.7486 17.2906 55.8984 17.5049 55.9899C17.5682 56.0109 17.6356 56.0165 17.7015 56.0063C17.7674 55.9962 17.83 55.9706 17.8841 55.9316C18.2596 55.6604 17.5093 55.1354 17.3248 55.0085Z" fill="#814210"/>
<path d="M13.76 51.288C13.8339 51.2017 13.8754 51.0924 13.8774 50.9788C13.8772 50.9227 13.8582 50.8682 13.8232 50.8243C13.7883 50.7803 13.7396 50.7495 13.6849 50.7367C13.6498 50.7276 13.6132 50.7258 13.5774 50.7314C13.5415 50.7369 13.5072 50.7496 13.4764 50.7687C13.3332 50.8421 13.2006 50.9343 13.0819 51.0429C12.9966 51.119 12.9283 51.2122 12.8814 51.3164C12.8578 51.3657 12.8478 51.4205 12.8525 51.4749C12.8571 51.5294 12.8763 51.5816 12.9078 51.6262C12.9394 51.6709 12.9824 51.7062 13.0322 51.7287C13.082 51.7511 13.137 51.7599 13.1913 51.754C13.4013 51.7314 13.6543 51.4207 13.76 51.288Z" fill="#814210"/>
<path d="M19.0229 53.6836C18.8931 53.5968 18.7196 53.7303 18.6707 53.8543C18.6219 53.9782 18.8005 54.6981 19.1461 54.5478C19.4918 54.3976 19.2358 53.8061 19.0229 53.6836Z" fill="#814210"/>
<path d="M21.3729 53.4095C21.2914 53.3792 21.2029 53.3726 21.1177 53.3905C21.0753 53.4007 21.0361 53.421 21.0033 53.4497C20.9705 53.4784 20.9452 53.5146 20.9296 53.5553C20.9106 53.649 20.9256 53.7465 20.9719 53.8302C21.0549 53.9758 21.1508 54.1137 21.2584 54.2422C21.3012 54.2997 21.3554 54.3478 21.4176 54.3833C21.4799 54.4188 21.5488 54.441 21.6201 54.4485C22.2617 54.4565 21.6901 53.5159 21.3729 53.4095Z" fill="#814210"/>
<path d="M20.8717 51.6545C20.8004 51.5959 20.7139 51.5587 20.6223 51.5472C20.5779 51.5411 20.5326 51.5466 20.491 51.5632C20.4493 51.5798 20.4127 51.607 20.3846 51.642C20.2869 51.7638 20.3744 51.9542 20.4517 52.0782C20.5353 52.2057 20.648 52.3114 20.7806 52.3867C20.9826 52.5012 21.2152 52.4363 21.2166 52.1934C21.1667 51.9796 21.045 51.7893 20.8717 51.6545Z" fill="#814210"/>
<path d="M21.8046 51.3189C21.8909 51.354 21.9835 51.3708 22.0767 51.3682C22.1698 51.3655 22.2614 51.3436 22.3456 51.3036C22.3852 51.2728 22.4178 51.234 22.4413 51.1898C22.4648 51.1455 22.4787 51.0967 22.482 51.0467C22.4853 50.9967 22.4779 50.9465 22.4605 50.8995C22.443 50.8526 22.4158 50.8098 22.3806 50.7741C22.2978 50.7121 22.2017 50.6704 22.0999 50.6523C21.7657 50.5245 21.3976 50.516 21.0579 50.6282C21.0012 50.6493 20.9505 50.684 20.9101 50.7291C20.8697 50.7741 20.8408 50.8284 20.826 50.8871C20.8253 50.9456 20.8408 51.0031 20.8708 51.0533C20.9008 51.1035 20.9441 51.1444 20.9959 51.1715C21.2578 51.2562 21.5297 51.3058 21.8046 51.3189Z" fill="#814210"/>
<path d="M19.6271 49.4121C19.861 49.3526 20.0638 49.207 20.1951 49.0045C20.2208 48.9641 20.237 48.9185 20.2425 48.871C20.2264 48.7667 20.12 48.7055 20.0113 48.6931C19.7998 48.6778 19.5878 48.7156 19.3945 48.803C19.2013 48.8903 19.0329 49.0245 18.9045 49.1933C18.4655 49.7461 19.4463 49.4982 19.6271 49.4121Z" fill="#814210"/>
<path d="M17.0763 48.0369C17.0713 47.9912 17.0569 47.947 17.034 47.9071C17.0112 47.8673 16.9804 47.8325 16.9436 47.805C16.8182 47.7466 16.6782 47.8458 16.5995 47.9647C16.3857 48.259 16.2799 48.6179 16.2998 48.9811C16.2971 49.0812 16.3293 49.1792 16.3909 49.2582C16.8248 49.7445 17.1142 48.2833 17.0763 48.0369Z" fill="#814210"/>
<path d="M104.232 62.248C104.829 62.0296 105.386 61.715 105.882 61.3168C105.949 61.2693 106.01 61.2127 106.062 61.1486C106.111 61.0447 106.132 60.9299 106.123 60.8153C106.114 60.7008 106.076 60.5906 106.011 60.4956C105.712 59.9336 105.22 59.4988 104.625 59.2714C103.898 59.5402 103.121 59.7506 102.395 60.0275C102.457 60.2137 102.578 60.3749 102.739 60.4868C103.301 61.0163 103.802 61.6071 104.232 62.248Z" fill="url(#paint15_linear_230_42993)"/>
<path d="M93.4288 59.532C93.0587 59.1906 92.7798 58.7621 92.6175 58.2855C92.5185 58.1181 92.4618 57.9291 92.452 57.7349C92.4423 57.5407 92.4799 57.3471 92.5616 57.1706C92.6431 57.065 92.7446 56.9764 92.8602 56.9099L93.5585 56.4555C93.7631 56.3046 93.9804 56.1716 94.2079 56.0582C94.4947 55.9438 94.8038 55.8963 95.1117 55.9192C95.0671 56.7547 95.2666 57.5851 95.6859 58.3091C95.7846 58.4674 95.8827 58.6754 95.7641 58.8175C95.7154 58.8773 95.6505 58.9217 95.5772 58.9454C94.8882 59.2293 94.1665 59.4264 93.4288 59.532Z" fill="url(#paint16_linear_230_42993)"/>
<path d="M98.7745 65.7923C98.8455 66.0325 98.9757 66.2511 99.1532 66.4279C99.1951 66.4744 99.2458 66.5121 99.3024 66.5388C99.359 66.5656 99.4203 66.5808 99.4828 66.5837C99.5757 66.5634 99.6627 66.5218 99.7367 66.4621C100.172 66.1363 100.558 65.7486 100.881 65.3112C100.686 64.9266 100.456 64.561 100.193 64.2193C100.13 64.1299 100.041 64.0361 99.9279 64.0535C99.815 64.0709 99.7461 64.2137 99.7069 64.3353C99.5203 64.8901 99.2001 65.3904 98.7745 65.7923Z" fill="url(#paint17_linear_230_42993)"/>
<path d="M95.5742 58.5437C94.7597 58.7041 93.9837 59.0198 93.2886 59.4736C92.9497 59.7041 92.6832 60.0261 92.5203 60.4022C92.3573 60.7783 92.3045 61.1929 92.368 61.5978C92.4079 61.764 92.4854 61.9188 92.5945 62.0504C92.8205 62.2455 93.0735 62.4069 93.3457 62.5296C93.6945 62.7568 93.9521 63.0889 94.2967 63.3416C94.6412 63.5942 95.0397 63.8221 95.4084 63.6414C95.3965 64.7895 95.8058 65.9021 96.5587 66.7688C96.7809 67.032 97.1174 67.2859 97.4464 67.1692C97.6565 67.0527 97.8301 66.8801 97.9479 66.6708C98.3344 66.2787 98.7669 65.9348 99.236 65.6465C99.4679 65.4976 99.6559 65.2896 99.7807 65.0439C99.9056 64.7982 99.9627 64.5237 99.9462 64.2486L100.159 64.5546C100.485 65.1336 100.98 65.5992 101.578 65.8893C102.159 66.0263 102.767 66.0014 103.335 65.8173C103.479 65.7975 103.616 65.7395 103.73 65.6491C103.836 65.5317 103.906 65.3861 103.93 65.2301C104.082 64.6614 104.2 64.0817 104.303 63.5205C104.404 63.0983 104.424 62.6607 104.361 62.2312C104.224 61.7864 103.991 61.3771 103.678 61.0326C103.366 60.6881 102.981 60.4168 102.551 60.2379C103.024 60.0022 103.546 59.8822 104.075 59.8878C104.526 59.9043 104.968 59.754 105.315 59.4657C105.439 59.3187 105.541 59.1556 105.621 58.9809C105.878 58.4538 106.12 57.9293 106.361 57.4047C106.452 57.2329 106.507 57.0446 106.524 56.851C106.494 56.6004 106.394 56.3631 106.237 56.1656C106.08 55.9681 105.871 55.8181 105.633 55.7324C104.471 55.2478 103.166 55.2296 101.991 55.6815C101.997 54.8413 101.761 54.0171 101.311 53.3076C101.283 53.2733 101.248 53.245 101.208 53.2245C101.166 53.2181 101.124 53.2246 101.087 53.2431C100.603 53.3437 100.148 53.553 99.7563 53.855C99.3649 54.1571 99.0472 54.5441 98.8271 54.9868C98.5021 54.6317 98.0595 54.4064 97.5812 54.3523C97.0608 54.3222 96.5387 54.3499 96.0244 54.4349C95.8959 54.4373 95.7704 54.4737 95.6606 54.5404C95.5987 54.5936 95.547 54.6575 95.5079 54.7291C95.116 55.3217 94.9015 56.0139 94.8896 56.7242C94.8735 57.0582 94.9259 57.3919 95.0437 57.7048C95.1614 58.0177 95.342 58.3032 95.5742 58.5437Z" fill="url(#paint18_radial_230_42993)"/>
<path d="M98.715 60.8735C98.4141 61.554 97.9328 62.1394 97.3233 62.5663C96.7108 62.9943 96.0498 63.3483 95.3542 63.6209C96.1185 63.5101 96.8464 63.2227 97.4803 62.7817C97.8019 62.5608 98.0765 62.2785 98.2884 61.951C98.5003 61.6235 98.6453 61.2573 98.715 60.8735Z" fill="#EBB039"/>
<path d="M102.595 60.2801C102.362 60.0653 102.07 59.9258 101.756 59.8802C101.448 59.8189 101.128 59.848 100.836 59.964C101.138 60.0497 101.431 60.0708 101.689 60.1385C101.947 60.2062 102.275 60.2466 102.595 60.2801Z" fill="#EBB039"/>
<path d="M102.142 55.6205C101.779 55.7247 101.464 55.9513 101.249 56.2617C101.034 56.5713 100.872 56.9145 100.769 57.2773C100.591 57.9986 100.543 58.7082 100.371 59.4121C100.674 58.7528 100.895 58.0585 101.028 57.345C101.164 56.6486 101.563 56.0312 102.142 55.6205Z" fill="#EBB039"/>
<path d="M98.7972 54.9339C99.2409 55.5568 99.5935 56.2396 99.8444 56.962C100.091 57.6878 100.227 58.4465 100.249 59.2129C100.409 58.4362 100.353 57.6305 100.088 56.8831C99.8409 56.1292 99.3949 55.4559 98.7972 54.9339Z" fill="#EBB039"/>
<path d="M95.3967 58.5653C96.088 58.5791 96.7686 58.739 97.3937 59.0346C98.0281 59.2923 98.5992 59.6753 99.1976 60.0211C98.6996 59.5091 98.1119 59.0927 97.4638 58.7925C96.8194 58.4882 96.0918 58.4082 95.3967 58.5653Z" fill="#EBB039"/>
<path d="M100.049 64.3689C99.7876 63.8237 99.5733 63.2569 99.4087 62.6749C99.2439 62.0892 99.127 61.4911 99.0593 60.8864C98.9503 61.504 98.9828 62.1382 99.1543 62.7414C99.3258 63.3446 99.6318 63.9011 100.049 64.3689Z" fill="#EBB039"/>
<path d="M99.549 59.985C99.2344 60.4412 99.113 61.0033 99.2113 61.5487" stroke="#814210" stroke-width="0.035" stroke-miterlimit="10"/>
<path d="M100.597 61.7214C100.362 61.6407 100.145 61.5124 99.9618 61.3445C99.7783 61.1766 99.6312 60.9727 99.5298 60.7455C99.4498 60.5744 99.4205 60.384 99.4454 60.1968" stroke="#814210" stroke-width="0.035" stroke-miterlimit="10"/>
<path d="M100.902 58.3636C100.368 58.596 99.9339 59.0113 99.6781 59.5349C99.6003 59.6725 99.5561 59.8265 99.549 59.9844" stroke="#814210" stroke-width="0.035" stroke-miterlimit="10"/>
<path d="M99.4797 60.0252C99.3902 59.8931 99.3313 59.7428 99.307 59.5851C99.2827 59.4274 99.2938 59.2662 99.3394 59.1133C99.4373 58.7955 99.5832 58.4945 99.7721 58.2207" stroke="#814210" stroke-width="0.035" stroke-miterlimit="10"/>
<path d="M99.4711 60.1467C99.3482 60.3531 99.2849 60.5894 99.2883 60.8295C99.2917 61.0696 99.3617 61.3041 99.4904 61.5068" stroke="#814210" stroke-width="0.035" stroke-miterlimit="10"/>
<path d="M101.606 59.35C100.896 59.2971 100.192 59.5146 99.6349 59.959" stroke="#814210" stroke-width="0.035" stroke-miterlimit="10"/>
<path d="M100.931 58.8346C100.634 58.8886 100.354 59.0106 100.112 59.1911C99.8708 59.3716 99.6742 59.6057 99.5383 59.875" stroke="#814210" stroke-width="0.035" stroke-miterlimit="10"/>
<path d="M99.3186 59.8243C99.0612 59.5183 98.8807 59.1552 98.7922 58.7653" stroke="#814210" stroke-width="0.035" stroke-miterlimit="10"/>
<path d="M99.392 59.9297C99.1979 59.9952 99.0251 60.112 98.892 60.2678C98.7588 60.4235 98.6704 60.6124 98.6359 60.8145" stroke="#814210" stroke-width="0.035" stroke-miterlimit="10"/>
<path d="M100.98 60.7057L100.746 60.7417C100.499 60.7441 100.256 60.6818 100.041 60.561C99.821 60.4399 99.6488 60.248 99.5521 60.0166" stroke="#814210" stroke-width="0.035" stroke-miterlimit="10"/>
<path d="M100.394 60.9233C100.171 60.9082 99.9602 60.8147 99.7995 60.6594C99.6402 60.505 99.5225 60.3128 99.4575 60.1007" stroke="#814210" stroke-width="0.035" stroke-miterlimit="10"/>
<path d="M100.786 60.0258C100.596 59.9417 100.391 59.8978 100.183 59.8971C99.9757 59.8963 99.7701 59.9386 99.5795 60.0214" stroke="#814210" stroke-width="0.035" stroke-miterlimit="10"/>
<path d="M99.3762 59.8315C99.1754 59.7708 98.9622 59.7638 98.7579 59.8112C98.5535 59.8586 98.3652 59.9587 98.2116 60.1016" stroke="#814210" stroke-width="0.035" stroke-miterlimit="10"/>
<path d="M100.834 61.6629C100.779 61.6628 100.725 61.6712 100.673 61.6877C100.647 61.6942 100.623 61.7067 100.602 61.7242C100.582 61.7416 100.566 61.7636 100.556 61.7883C100.557 61.8288 100.569 61.8683 100.59 61.9028C100.611 61.9373 100.641 61.9655 100.677 61.9845C100.794 62.0491 101.195 62.1857 101.273 61.992C101.351 61.7983 100.976 61.6741 100.834 61.6629Z" fill="#814210"/>
<path d="M99.6162 61.4402C99.5943 61.4389 99.5723 61.4423 99.5517 61.4501C99.5306 61.4551 99.5113 61.4659 99.4962 61.4814C99.481 61.4969 99.4705 61.5164 99.466 61.5377C99.4645 61.5816 99.4713 61.6254 99.4859 61.6668C99.523 61.7647 99.5733 61.8571 99.6355 61.9413C99.6838 62.011 99.7526 62.0639 99.8323 62.0928C100.012 62.1313 100.063 61.9829 100.002 61.8519C99.9682 61.761 99.9167 61.6778 99.8505 61.6071C99.7843 61.5364 99.7047 61.4797 99.6162 61.4402Z" fill="#814210"/>
<path d="M98.7892 60.8494C98.7754 60.8081 98.7497 60.7718 98.7153 60.7451C98.6963 60.7398 98.6764 60.7386 98.6569 60.7416C98.6374 60.7446 98.6188 60.7518 98.6023 60.7625C98.5711 60.7875 98.5501 60.823 98.5434 60.8625C98.5448 60.9007 98.5506 60.9386 98.5607 60.9755C98.5756 61.0723 98.6352 61.4598 98.7408 61.394C98.8463 61.3282 98.8388 60.9575 98.7892 60.8494Z" fill="#814210"/>
<path d="M99.3176 61.6499C99.3077 61.5854 99.2965 61.5127 99.2282 61.4984C99.1599 61.4842 99.0991 61.5183 99.0793 61.604C99.0403 61.705 99.0342 61.8158 99.0619 61.9206C99.0842 62.0237 99.119 62.1238 99.1655 62.2185C99.2282 62.3576 99.3871 62.424 99.4082 62.239C99.4021 62.0397 99.3717 61.8419 99.3176 61.6499Z" fill="#814210"/>
<path d="M101.098 60.56C101.048 60.5662 101.002 60.591 100.969 60.6295C100.952 60.6475 100.941 60.6699 100.938 60.6941C100.934 60.7182 100.938 60.7428 100.948 60.7649C100.972 60.7917 101.004 60.81 101.039 60.817C101.144 60.8586 101.537 60.9965 101.539 60.7401C101.541 60.4836 101.226 60.532 101.098 60.56Z" fill="#814210"/>
<path d="M100.517 60.8124C100.465 60.7998 100.41 60.8083 100.364 60.836C100.35 60.8621 100.346 60.8918 100.35 60.9208C100.354 60.9498 100.368 60.9766 100.389 60.9974C100.432 61.0399 100.485 61.0714 100.543 61.0893C100.639 61.1307 100.744 61.1433 100.846 61.1254C100.875 61.1191 100.901 61.1066 100.924 61.0888C100.947 61.071 100.966 61.0483 100.979 61.0223C101.034 60.8404 100.626 60.8205 100.517 60.8124Z" fill="#814210"/>
<path d="M98.271 60.2402C98.2778 60.2158 98.2793 60.1902 98.2754 60.1651C98.2716 60.1401 98.2624 60.1162 98.2487 60.0949C98.2361 60.0722 98.2161 60.0545 98.192 60.0447C98.168 60.0349 98.1414 60.0335 98.1165 60.0409C98.1165 60.0409 98.0742 60.0887 98.0538 60.1166C98.0168 60.1776 97.988 60.2431 97.9681 60.3116C97.9679 60.3609 97.9755 60.4099 97.9904 60.4569C98.0066 60.5618 98.132 60.6251 98.2121 60.555C98.2921 60.4848 98.2835 60.3209 98.271 60.2402Z" fill="#814210"/>
<path d="M100.855 59.9027C100.837 59.9052 100.821 59.9114 100.806 59.9209C100.791 59.9304 100.779 59.943 100.769 59.9578C100.76 59.9726 100.754 59.9892 100.751 60.0066C100.749 60.024 100.75 60.0417 100.755 60.0585C100.771 60.1635 101.021 60.3398 101.109 60.2107C101.196 60.0815 100.962 59.9027 100.855 59.9027Z" fill="#814210"/>
<path d="M101.689 59.2361C101.651 59.234 101.612 59.2399 101.576 59.2535C101.563 59.2674 101.554 59.284 101.548 59.302C101.542 59.32 101.54 59.339 101.543 59.3578C101.563 59.397 101.593 59.4295 101.631 59.4516C101.694 59.4911 101.762 59.5197 101.834 59.536C101.866 59.5447 101.898 59.5466 101.93 59.5417C101.962 59.5368 101.993 59.5251 102.02 59.5075C102.28 59.4262 101.833 59.2057 101.689 59.2361Z" fill="#814210"/>
<path d="M101.071 58.6967C101.032 58.69 100.992 58.6961 100.958 58.7141C100.939 58.7205 100.923 58.7319 100.911 58.7469C100.899 58.7619 100.891 58.7799 100.888 58.7991C100.899 58.8718 100.958 58.9289 101.019 58.9525C101.084 58.978 101.153 58.9898 101.223 58.9873C101.328 58.9711 101.4 58.9022 101.336 58.8128C101.302 58.776 101.261 58.7467 101.216 58.7267C101.17 58.7068 101.12 58.6965 101.071 58.6967Z" fill="#814210"/>
<path d="M101.349 58.3394C101.389 58.3333 101.427 58.3186 101.46 58.2963C101.494 58.274 101.522 58.2447 101.544 58.2102C101.552 58.1891 101.555 58.1666 101.554 58.1441C101.553 58.1215 101.547 58.0995 101.537 58.0793C101.527 58.0591 101.513 58.0412 101.495 58.0268C101.478 58.0124 101.458 58.0017 101.436 57.9954C101.389 57.9903 101.342 57.9976 101.299 58.0165C101.141 58.0488 101 58.1348 100.899 58.2599C100.88 58.2804 100.868 58.3055 100.864 58.3325C100.859 58.3595 100.862 58.3873 100.873 58.4126C100.885 58.436 100.905 58.4548 100.929 58.466C100.953 58.4772 100.98 58.4802 101.006 58.4747C101.126 58.4475 101.242 58.4019 101.349 58.3394Z" fill="#814210"/>
<path d="M100.076 58.152C100.114 58.1139 100.144 58.0685 100.165 58.0185C100.186 57.9685 100.196 57.9149 100.196 57.8608C100.198 57.8513 100.199 57.8414 100.197 57.8317C100.196 57.822 100.192 57.8127 100.187 57.8043C100.167 57.7927 100.143 57.7884 100.119 57.792C100.096 57.7956 100.074 57.8069 100.058 57.8242C99.9743 57.8684 99.9028 57.9328 99.85 58.0116C99.7972 58.0904 99.7649 58.1811 99.7559 58.2755C99.7068 58.5475 100.02 58.2184 100.076 58.152Z" fill="#814210"/>
<path d="M98.7909 58.2187C98.7909 58.2187 98.7313 58.1535 98.6909 58.1597C98.6506 58.1659 98.604 58.2391 98.5978 58.3062C98.5886 58.4632 98.6299 58.619 98.7158 58.7508C98.7405 58.7889 98.7769 58.8181 98.8194 58.834C99.087 58.9085 98.8449 58.3012 98.7909 58.2187Z" fill="#814210"/>
<path d="M154.651 0.278517C141.771 0.278517 131.052 9.39807 128.76 21.4479C128.388 20.9657 127.992 20.5017 127.572 20.0553C125.953 18.3347 124.048 16.933 121.854 15.853C119.663 14.771 117.295 14.1324 114.754 13.9354L121.557 0H107.656L95.9222 24.2592C95.6522 24.7926 95.4039 25.3363 95.1786 25.8883C94.688 24.8503 94.0939 23.8518 93.3951 22.8953C91.3273 20.069 88.7241 17.9423 85.5837 16.5173L93.6551 0H68.8525L64.0592 12.3878H73.7007L66.6005 27.0602H77.4385C78.3856 27.0602 79.2685 27.2319 80.0916 27.5765C80.9147 27.9211 81.6361 28.3867 82.259 28.9778C82.8824 29.5673 83.392 30.2669 83.7914 31.0792C84.1891 31.891 84.4148 32.7386 84.4646 33.6236C84.4148 34.5086 84.1908 35.3442 83.7914 36.1307C83.3936 36.9172 82.8824 37.6052 82.259 38.1963C81.6357 38.7857 80.9126 39.253 80.0916 39.5976C79.2685 39.9406 78.3856 40.1139 77.4385 40.1139C74.25 40.1139 71.609 38.6635 69.517 35.7641L68.5461 34.5141L67.9487 35.1002L60.8481 41.7364C62.7919 45.1285 65.2215 47.7698 68.1341 49.662C71.0489 51.5543 74.1516 52.5004 77.4398 52.5004C79.7311 52.5004 81.9229 52.1201 84.0166 51.3573C86.1103 50.5944 88.0023 49.5502 89.6966 48.2233C91.391 46.8968 92.8232 45.3101 93.9938 43.4673C94.5105 42.6538 94.958 41.8062 95.3436 40.9316C96.294 43.0088 97.542 44.8637 99.1003 46.4911C100.77 48.2354 102.724 49.6371 104.968 50.6934C107.21 51.7501 109.625 52.3528 112.218 52.5004H114.31C116.851 52.3528 119.243 51.7513 121.484 50.6934C123.726 49.6367 125.682 48.2354 127.352 46.4911C129.02 44.7468 130.341 42.7424 131.313 40.4814C131.492 40.0619 131.651 39.6354 131.797 39.2056C136.344 47.0091 144.877 52.2643 154.654 52.2643C169.204 52.2643 181 40.6273 181 26.2724C181 11.9176 169.201 0.278517 154.651 0.278517ZM119.725 35.9083C119.351 36.7438 118.853 37.4692 118.23 38.0824C117.518 38.7849 116.644 39.3253 115.608 39.7069C115.006 39.9289 114.37 40.0599 113.728 40.0956C112.55 40.1613 111.473 39.9825 110.494 39.5569C109.647 39.1881 108.9 38.6955 108.253 38.0824C107.605 37.4692 107.094 36.7438 106.72 35.9083C106.363 35.1093 106.178 34.2434 106.162 33.3094C106.146 32.3437 106.336 31.3768 106.72 30.4897C107.094 29.6284 107.605 28.8913 108.253 28.2782C108.9 27.6634 109.647 27.1724 110.494 26.8037C111.467 26.3805 112.536 26.2014 113.706 26.2637C114.351 26.2982 114.992 26.4283 115.597 26.6499C116.638 27.0307 117.515 27.5752 118.23 28.2782C118.834 28.8743 119.32 29.5851 119.689 30.4111C120.064 31.2471 120.268 32.1562 120.283 33.0712C120.299 34.0967 120.112 35.0416 119.725 35.9083ZM168.762 32.1903C167.952 34.0044 166.869 35.5774 165.518 36.9105C163.939 38.4682 161.991 39.6645 159.674 40.4934C158.443 40.9345 157.149 41.198 155.842 41.2774C153.25 41.435 150.879 41.0476 148.731 40.1122C146.892 39.312 145.27 38.2453 143.866 36.9105C142.459 35.577 141.35 34.0044 140.539 32.1903C139.73 30.3762 139.324 28.4041 139.324 26.2691C139.324 24.1341 139.73 22.2942 140.539 20.4278C141.352 18.5613 142.459 16.9608 143.866 15.626C145.271 14.2925 146.892 13.2258 148.731 12.426C150.882 11.489 153.258 11.102 155.856 11.2616C157.161 11.3419 158.454 11.6067 159.684 12.0481C161.996 12.8779 163.941 14.0705 165.517 15.626C166.869 16.9592 167.952 18.5596 168.761 20.4278C169.574 22.2942 169.977 24.2409 169.977 26.2691C169.977 28.4041 169.574 30.3779 168.762 32.1903Z" fill="url(#paint19_linear_230_42993)"/>
<path d="M150.1 20.8417V31.5103C150.102 31.7793 150.174 32.0432 150.309 32.2757C150.444 32.5082 150.638 32.7012 150.871 32.8354C151.104 32.9697 151.368 33.0406 151.636 33.0409C151.905 33.0413 152.169 32.9713 152.403 32.8377L157.046 30.1664L161.69 27.5007C161.923 27.3683 162.118 27.1762 162.253 26.9439C162.389 26.7117 162.46 26.4476 162.46 26.1787C162.46 25.9098 162.389 25.6457 162.253 25.4135C162.118 25.1812 161.923 24.9891 161.69 24.8567L157.046 22.1855L152.403 19.5197C152.17 19.3846 151.906 19.3132 151.637 19.3125C151.368 19.3118 151.104 19.382 150.87 19.5159C150.637 19.6498 150.443 19.8428 150.308 20.0756C150.173 20.3083 150.101 20.5725 150.1 20.8417Z" fill="white"/>
<path d="M57.7901 0C56.5023 0 55.3527 0.802295 54.9169 2.00574L48.3568 20.1193C48.1742 20.5063 47.9925 20.6996 47.8108 20.6996C47.5772 20.6996 47.3951 20.5059 47.2657 20.1193L40.681 1.93881C40.2598 0.77569 39.1487 0 37.904 0H6V0.751995C6 3.32848 8.10337 5.41694 10.6983 5.41694H16.1313V27.0835H23.1452V5.41694H34.7003L42.161 23.7567C43.1477 26.181 45.0309 27.3932 47.8108 27.3932C49.4214 27.3932 50.6423 27.071 51.4737 26.4258C52.3048 25.7815 52.9546 24.8915 53.4218 23.7567L63.1248 0H57.7897H57.7901Z" fill="white"/>
<path d="M53.9212 65.2341C54.5312 65.6513 55.2067 65.9635 55.9197 66.1578C56.0068 66.1917 56.099 66.2102 56.1924 66.2126C56.3219 66.1889 56.4429 66.1313 56.5429 66.0457C56.643 65.9602 56.7186 65.8496 56.762 65.7253C57.0959 65.0652 57.1719 64.3043 56.9752 63.5912C56.2486 63.0584 55.5172 62.4941 54.7452 62.0005C54.6142 62.1837 54.5464 62.4045 54.5519 62.6297C54.4387 63.5185 54.2272 64.392 53.9212 65.2341Z" fill="url(#paint20_linear_230_42993)"/>
<path d="M49.1905 53.1441C49.2619 52.5627 49.4781 52.0086 49.8193 51.5326C50.0566 51.148 50.3782 50.7247 50.8306 50.7324C50.9844 50.7381 51.1359 50.7716 51.2777 50.8313L52.2048 51.1592C52.4889 51.2497 52.7638 51.3672 53.0258 51.5099C53.3316 51.6928 53.5909 51.9442 53.7833 52.2442C52.963 52.7645 52.3159 53.5169 51.9243 54.4059C51.8381 54.5996 51.7136 54.8379 51.5 54.8321C51.4103 54.8227 51.3249 54.789 51.2529 54.7348C50.5018 54.2927 49.8089 53.7583 49.1905 53.1441Z" fill="url(#paint21_linear_230_42993)"/>
<path d="M46.9098 62.4524C46.7312 62.6809 46.6151 62.952 46.5732 63.239C46.5537 63.3099 46.5494 63.3841 46.5606 63.4568C46.5718 63.5295 46.5982 63.5991 46.6381 63.6608C46.7161 63.7359 46.8133 63.7878 46.919 63.811C47.522 64.003 48.1501 64.104 48.7828 64.1109C49.014 63.6703 49.2042 63.2096 49.351 62.7343C49.3711 62.6733 49.3764 62.6084 49.3667 62.545C49.3569 62.4815 49.3323 62.4212 49.2948 62.3691C49.1946 62.262 49.0149 62.309 48.873 62.3502C48.2365 62.5426 47.5628 62.5776 46.9098 62.4524Z" fill="url(#paint22_linear_230_42993)"/>
<path d="M51.5817 54.5203C50.8786 53.8568 50.052 53.3378 49.1487 52.9931C48.6934 52.8322 48.2018 52.8041 47.7311 52.9119C47.2604 53.0196 46.83 53.2589 46.49 53.6019C46.3608 53.7487 46.2685 53.9242 46.2207 54.1139C46.1889 54.46 46.2056 54.8089 46.2706 55.1504C46.3002 55.6358 46.1602 56.1085 46.1437 56.588C46.1043 56.814 46.1267 57.0464 46.2085 57.2607C46.2902 57.4751 46.4283 57.6634 46.6082 57.8057C45.5364 58.5757 44.7749 59.7032 44.4609 60.9851C44.3733 61.3789 44.3587 61.871 44.69 62.0972C44.9433 62.2169 45.2251 62.2629 45.5033 62.2299C46.1352 62.3305 46.7529 62.506 47.3434 62.7526C47.6412 62.8698 47.9649 62.906 48.2812 62.8573C48.5976 62.8086 48.8954 62.6769 49.1443 62.4755L48.9956 62.8916C48.6651 63.5904 48.5604 64.3747 48.6962 65.1357C48.9578 65.7776 49.3939 66.3334 49.955 66.7404C50.074 66.8614 50.2206 66.9517 50.3822 67.0034C50.5648 67.0267 50.7503 66.9982 50.9175 66.9211C51.5249 66.6794 52.1841 66.3975 52.7944 66.0909C53.2459 65.8899 53.6569 65.6082 54.0073 65.2597C54.7479 64.5012 54.8157 63.2661 54.6573 62.1947C55.2022 62.4797 55.6702 62.8919 56.0218 63.3964C56.1944 63.7348 56.4786 64.0033 56.8263 64.1565C57.174 64.3097 57.5639 64.3383 57.9302 64.2373C58.5976 64.1346 59.2602 64.0004 59.9165 63.8673C60.1319 63.8333 60.3391 63.7599 60.5278 63.6507C60.7423 63.4519 60.8974 63.1974 60.9759 62.9156C61.0543 62.6339 61.053 62.3358 60.972 62.0548C60.6487 60.6187 59.7784 59.3653 58.5459 58.5605C59.3524 57.9993 59.9757 57.2129 60.338 56.2995C60.3592 56.2523 60.3646 56.1995 60.3535 56.1489C60.3357 56.1008 60.3046 56.0586 60.2639 56.0273C59.8403 55.6541 59.3382 55.3809 58.7947 55.2279C58.2513 55.075 57.6804 55.0462 57.1243 55.1438C57.2462 54.5965 57.158 54.0234 56.8773 53.5381C56.5645 53.0154 56.1935 52.5297 55.7715 52.0903C55.6798 51.9739 55.5593 51.8835 55.4218 51.8283C55.3303 51.8064 55.2356 51.8013 55.1423 51.8133C54.3093 51.84 53.502 52.1075 52.8178 52.5834C52.4891 52.8032 52.2095 53.0889 51.9967 53.4223C51.784 53.7557 51.6426 54.1296 51.5817 54.5203Z" fill="url(#paint23_radial_230_42993)"/>
<path d="M51.515 59.0713C50.67 59.2371 49.7963 59.1781 48.9813 58.9003C48.5745 58.7621 48.1782 58.5948 47.7956 58.3995C47.4115 58.2072 47.0351 57.9814 46.6481 57.7703C46.9553 58.0927 47.2978 58.3795 47.6692 58.6252C48.0425 58.8771 48.4484 59.0771 48.8757 59.2195C49.3032 59.3725 49.757 59.4382 50.2104 59.4128C50.6637 59.3873 51.1073 59.2712 51.515 59.0713Z" fill="#EBB039"/>
<path d="M54.7075 62.3211C54.764 61.9558 54.7065 61.582 54.5428 61.2506C54.4639 61.0851 54.3621 60.9316 54.2406 60.7943C54.1207 60.6534 53.9759 60.5359 53.8134 60.4475C53.8792 60.6243 53.9548 60.7803 54.0241 60.9372L54.2425 61.3935C54.3801 61.7011 54.5157 61.996 54.7075 62.3211Z" fill="#EBB039"/>
<path d="M58.7894 58.7577C58.4452 58.4849 58.0176 58.339 57.5785 58.3445C57.1503 58.3298 56.7231 58.3955 56.3192 58.5382C55.9245 58.691 55.5408 58.8707 55.1707 59.0759C54.7953 59.2754 54.4306 59.4605 54.0368 59.6242C54.4639 59.583 54.8823 59.4773 55.2778 59.3108C55.6808 59.165 56.0537 58.9916 56.4378 58.8487C57.1843 58.5322 58.0207 58.4998 58.7894 58.7577Z" fill="#EBB039"/>
<path d="M57.1699 55.1107C56.8738 55.9489 56.4646 56.7427 55.9536 57.4701C55.438 58.1926 54.8207 58.8369 54.1208 59.3828C54.5491 59.21 54.9474 58.9703 55.3007 58.6727C55.6574 58.3776 55.9734 58.0364 56.2404 57.658C56.7801 56.9114 57.1019 56.0295 57.1699 55.1107Z" fill="#EBB039"/>
<path d="M51.438 54.3747C51.8817 55.039 52.1893 55.7848 52.3428 56.5689C52.4038 56.9656 52.4638 57.356 52.5249 57.7527C52.5859 58.1494 52.6038 58.5591 52.6668 58.9684C52.7364 58.5673 52.7709 58.1608 52.77 57.7536C52.775 57.3398 52.7352 56.9267 52.6513 56.5214C52.5112 55.6857 52.0817 54.9258 51.438 54.3747Z" fill="#EBB039"/>
<path d="M49.1199 62.6992C49.4704 62.0901 49.863 61.5064 50.295 60.9521C50.5038 60.6751 50.7416 60.4193 50.9785 60.1573C51.2153 59.8953 51.4696 59.6628 51.7254 59.3978C51.3923 59.5411 51.0807 59.73 50.7998 59.9592C50.5079 60.194 50.2441 60.4616 50.0136 60.7569C49.5626 61.3223 49.2559 61.9889 49.1199 62.6992Z" fill="#EBB039"/>
<path d="M52.9116 59.251C52.5886 59.2546 52.2695 59.3221 51.9727 59.4496C51.6759 59.5772 51.4074 59.7622 51.1825 59.9941" stroke="#814210" stroke-width="0.0459955" stroke-miterlimit="10"/>
<path d="M51.9877 61.4192C51.9074 61.1409 51.8838 60.8493 51.9181 60.5617C51.9525 60.2741 52.0442 59.9963 52.1878 59.7447C52.2889 59.5528 52.4438 59.3946 52.6334 59.2894" stroke="#814210" stroke-width="0.0459955" stroke-miterlimit="10"/>
<path d="M55.3575 59.4297C54.7734 59.0896 54.0879 58.9667 53.422 59.0829C53.2407 59.1012 53.0667 59.1634 52.9149 59.264" stroke="#814210" stroke-width="0.0459955" stroke-miterlimit="10"/>
<path d="M52.8252 59.2168C52.8908 59.0389 52.9953 58.8779 53.131 58.7455C53.2668 58.6131 53.4304 58.5126 53.6099 58.4515C53.9663 58.3386 54.338 58.2814 54.7118 58.282" stroke="#814210" stroke-width="0.0459955" stroke-miterlimit="10"/>
<path d="M52.7134 59.2918C52.4354 59.3153 52.1695 59.416 51.9457 59.5826C51.7219 59.7491 51.5491 59.9749 51.4468 60.2344" stroke="#814210" stroke-width="0.0459955" stroke-miterlimit="10"/>
<path d="M54.8988 60.7628C54.471 60.0556 53.7898 59.5381 52.9938 59.3155" stroke="#814210" stroke-width="0.0459955" stroke-miterlimit="10"/>
<path d="M54.9393 59.766C54.6822 59.5257 54.3725 59.3489 54.0349 59.2497C53.6973 59.1506 53.3412 59.1318 52.995 59.1949" stroke="#814210" stroke-width="0.0459955" stroke-miterlimit="10"/>
<path d="M52.9081 58.9219C53.0252 58.4722 53.2432 58.0551 53.5456 57.7023" stroke="#814210" stroke-width="0.0459955" stroke-miterlimit="10"/>
<path d="M52.8538 59.0241C52.6598 58.8849 52.4314 58.8012 52.1934 58.7821C51.9553 58.7631 51.7166 58.8094 51.5029 58.916" stroke="#814210" stroke-width="0.0459955" stroke-miterlimit="10"/>
<path d="M53.2021 61.0911C53.1534 61.0116 53.0986 60.936 53.0384 60.8649C52.8702 60.6318 52.764 60.3598 52.7298 60.0744C52.6944 59.7859 52.7587 59.494 52.912 59.2471" stroke="#814210" stroke-width="0.0459955" stroke-miterlimit="10"/>
<path d="M52.5774 60.6816C52.4374 60.4631 52.3833 60.2005 52.4253 59.9444C52.4671 59.6945 52.5677 59.4581 52.7188 59.2547" stroke="#814210" stroke-width="0.0459955" stroke-miterlimit="10"/>
<path d="M53.714 60.4481C53.6643 60.208 53.5656 59.9808 53.4238 59.7807C53.2821 59.5807 53.1006 59.4121 52.8906 59.2856" stroke="#814210" stroke-width="0.0459955" stroke-miterlimit="10"/>
<path d="M52.9646 58.9806C52.8879 58.7507 52.7516 58.5453 52.5696 58.3853C52.3875 58.2254 52.1664 58.1165 51.9285 58.07" stroke="#814210" stroke-width="0.0459955" stroke-miterlimit="10"/>
<path d="M52.2064 61.6002C52.1785 61.5426 52.1421 61.4895 52.0984 61.4428C52.0746 61.4209 52.0453 61.406 52.0136 61.3995C51.982 61.393 51.9492 61.3952 51.9187 61.406C51.8305 61.4195 51.8121 61.5513 51.8266 61.6457C51.8412 61.7402 51.9802 62.2667 52.2132 62.2308C52.4461 62.195 52.2669 61.7005 52.2064 61.6002Z" fill="#814210"/>
<path d="M51.5906 60.3017C51.5857 60.2703 51.5809 60.2388 51.578 60.2199C51.5608 60.201 51.5378 60.1884 51.5126 60.1841C51.4874 60.1798 51.4615 60.1841 51.439 60.1961C51.3948 60.2216 51.3582 60.2584 51.3329 60.3027C51.2648 60.4045 51.2102 60.5147 51.1706 60.6306C51.1392 60.7226 51.1364 60.8219 51.1629 60.9154C51.2452 61.1155 51.423 61.0559 51.5044 60.9145C51.607 60.7276 51.6376 60.5097 51.5906 60.3017Z" fill="#814210"/>
<path d="M51.5896 59.1195C51.6177 59.0821 51.6332 59.0369 51.6342 58.9902C51.6349 58.9655 51.6293 58.9411 51.6181 58.9192C51.6068 58.8972 51.5902 58.8785 51.5698 58.8647C51.5475 58.8587 51.5243 58.8574 51.5015 58.8609C51.4787 58.8644 51.4569 58.8726 51.4375 58.885C51.3974 58.9061 51.3624 58.9357 51.3348 58.9718C51.2564 59.0483 50.9091 59.3467 51.0631 59.4262C51.2172 59.5056 51.5179 59.2402 51.5896 59.1195Z" fill="#814210"/>
<path d="M51.21 60.1491C51.2599 60.0963 51.3204 60.029 51.2899 59.9564C51.2594 59.8837 51.1674 59.8721 51.0865 59.891C50.9645 59.9216 50.8554 59.9903 50.775 60.0871C50.6958 60.1838 50.6255 60.2874 50.5648 60.3966C50.4781 60.5453 50.5217 60.7449 50.7106 60.632C50.896 60.4919 51.0637 60.3298 51.21 60.1491Z" fill="#814210"/>
<path d="M53.4209 61.1024C53.3819 61.0601 53.33 61.0318 53.2732 61.022C53.2441 61.0188 53.2147 61.0247 53.1892 61.0391C53.1636 61.0534 53.1432 61.0754 53.1308 61.1019C53.1243 61.1427 53.1307 61.1846 53.1492 61.2216C53.1695 61.3538 53.3216 61.8396 53.5396 61.6643C53.7576 61.4889 53.5338 61.2075 53.4209 61.1024Z" fill="#814210"/>
<path d="M52.792 60.737C52.7779 60.7065 52.7574 60.6795 52.7318 60.6578C52.7062 60.6361 52.6761 60.6203 52.6437 60.6115C52.6099 60.6118 52.5771 60.6237 52.5511 60.6453C52.525 60.667 52.5073 60.697 52.5009 60.7302C52.4921 60.7989 52.5028 60.8688 52.5319 60.9317C52.5594 61.0514 52.621 61.1605 52.7091 61.2461C52.7327 61.2695 52.7617 61.2869 52.7935 61.2966C52.8253 61.3063 52.8591 61.3081 52.8917 61.3018C53.1145 61.2417 52.8588 60.8363 52.792 60.737Z" fill="#814210"/>
<path d="M51.8172 58.2278C51.8668 58.1968 51.9068 58.1527 51.933 58.1004C51.9464 58.075 51.9512 58.046 51.9469 58.0177C51.9425 57.9893 51.9292 57.9631 51.9088 57.9429C51.8723 57.9363 51.8346 57.9421 51.8017 57.9594C51.7163 57.9597 51.6314 57.9728 51.5499 57.9982C51.4942 58.0145 51.4434 58.0445 51.4021 58.0854C51.381 58.1037 51.3648 58.1271 51.3552 58.1534C51.3456 58.1797 51.3427 58.208 51.347 58.2357C51.3512 58.2634 51.3624 58.2895 51.3795 58.3117C51.3966 58.3338 51.4191 58.3513 51.4448 58.3625C51.5801 58.3583 51.7105 58.3111 51.8172 58.2278Z" fill="#814210"/>
<path d="M53.8812 60.423C53.8656 60.4111 53.8478 60.4026 53.8287 60.3978C53.8097 60.393 53.79 60.392 53.7706 60.395C53.7512 60.398 53.7326 60.4048 53.7159 60.4151C53.6993 60.4254 53.6848 60.439 53.6735 60.4549C53.5989 60.5567 53.5863 60.8939 53.7403 60.8895C53.8943 60.8852 53.9554 60.5276 53.8812 60.423Z" fill="#814210"/>
<path d="M55.0655 60.7622C55.0317 60.7326 54.9908 60.7123 54.9469 60.7031C54.926 60.695 54.9034 60.6925 54.8813 60.6959C54.8592 60.6993 54.8384 60.7085 54.8209 60.7225C54.7932 60.7635 54.7824 60.8137 54.7909 60.8625C54.7913 60.95 54.8047 61.037 54.8306 61.1206C54.8386 61.1571 54.8543 61.1915 54.8767 61.2214C54.8991 61.2513 54.9276 61.2761 54.9604 61.294C55.2748 61.4519 55.1866 60.8789 55.0655 60.7622Z" fill="#814210"/>
<path d="M55.165 59.8063C55.1411 59.7686 55.1098 59.7361 55.073 59.7108C55.0512 59.7016 55.0273 59.6987 55.004 59.7022C54.9806 59.7058 54.9587 59.7159 54.9408 59.7312C54.8652 59.7428 54.8729 59.877 54.8918 59.9579C54.9093 60.0362 54.9426 60.1101 54.9897 60.175C55.0691 60.2723 55.1873 60.2864 55.2353 60.1372C55.253 60.022 55.228 59.9043 55.165 59.8063Z" fill="#814210"/>
<path d="M55.6748 59.8407C55.7478 59.9055 55.8432 59.9394 55.9407 59.9352C55.9656 59.9283 55.9888 59.9163 56.0088 59.9C56.0288 59.8837 56.0451 59.8633 56.0567 59.8403C56.0684 59.8172 56.0751 59.792 56.0764 59.7662C56.0776 59.7404 56.0735 59.7146 56.0642 59.6906C56.036 59.6426 55.9966 59.6022 55.9494 59.5729C55.813 59.4455 55.6375 59.3681 55.4515 59.3529C55.4198 59.3517 55.3883 59.3587 55.36 59.3732C55.3317 59.3877 55.3077 59.4093 55.2902 59.4358C55.277 59.4635 55.2725 59.4945 55.2771 59.5248C55.2818 59.5551 55.2955 59.5833 55.3164 59.6058C55.4094 59.7075 55.5847 59.7579 55.6748 59.8407Z" fill="#814210"/>
<path d="M55.0093 58.5041C55.1316 58.533 55.2603 58.5132 55.3682 58.4489C55.3793 58.4447 55.389 58.4377 55.3967 58.4286C55.4043 58.4196 55.4095 58.4087 55.4118 58.3971C55.405 58.353 55.3963 58.2963 55.3401 58.2663C55.24 58.2158 55.1288 58.1913 55.0167 58.195C54.9047 58.1987 54.7953 58.2305 54.6988 58.2876C54.384 58.4198 54.9037 58.4881 55.0093 58.5041Z" fill="#814210"/>
<path d="M54.0469 57.3139C54.0547 57.2908 54.0568 57.2661 54.0531 57.242C54.0494 57.2179 54.04 57.1951 54.0256 57.1754C53.9791 57.1245 53.8866 57.1516 53.8304 57.2054C53.6728 57.3032 53.5525 57.4511 53.4889 57.6253C53.4672 57.6747 53.4621 57.7298 53.4744 57.7823C53.5994 58.0918 54.015 57.4413 54.0469 57.3139Z" fill="#814210"/>
<defs>
<linearGradient id="paint0_linear_230_42993" x1="1910.29" y1="1370.12" x2="1895.17" y2="1385.41" gradientUnits="userSpaceOnUse">
<stop offset="0.21" stop-color="#F1D374"/>
<stop offset="0.47" stop-color="#EFCA64"/>
<stop offset="0.97" stop-color="#EBB13B"/>
<stop offset="1" stop-color="#EBB039"/>
</linearGradient>
<linearGradient id="paint1_linear_230_42993" x1="3031.19" y1="1734.94" x2="3049.84" y2="1720.18" gradientUnits="userSpaceOnUse">
<stop offset="0.21" stop-color="#F1D374"/>
<stop offset="0.47" stop-color="#EFCA64"/>
<stop offset="0.97" stop-color="#EBB13B"/>
<stop offset="1" stop-color="#EBB039"/>
</linearGradient>
<linearGradient id="paint2_linear_230_42993" x1="1708.86" y1="861.437" x2="1703.21" y2="854.051" gradientUnits="userSpaceOnUse">
<stop offset="0.21" stop-color="#F1D374"/>
<stop offset="0.47" stop-color="#EFCA64"/>
<stop offset="0.97" stop-color="#EBB13B"/>
<stop offset="1" stop-color="#EBB039"/>
</linearGradient>
<radialGradient id="paint3_radial_230_42993" cx="0" cy="0" r="1" gradientUnits="userSpaceOnUse" gradientTransform="translate(3413.3 235.939) rotate(143.169) scale(202.828 214.273)">
<stop stop-color="#FFAA00"/>
<stop offset="0.61" stop-color="#FFEDB4"/>
</radialGradient>
<linearGradient id="paint4_linear_230_42993" x1="3537.94" y1="-6824.09" x2="3530.53" y2="-6852.95" gradientUnits="userSpaceOnUse">
<stop offset="0.21" stop-color="#F1D374"/>
<stop offset="0.47" stop-color="#EFCA64"/>
<stop offset="0.97" stop-color="#EBB13B"/>
<stop offset="1" stop-color="#EBB039"/>
</linearGradient>
<linearGradient id="paint5_linear_230_42993" x1="2330.67" y1="-7478.21" x2="2325.51" y2="-7443.98" gradientUnits="userSpaceOnUse">
<stop offset="0.21" stop-color="#F1D374"/>
<stop offset="0.47" stop-color="#EFCA64"/>
<stop offset="0.97" stop-color="#EBB13B"/>
<stop offset="1" stop-color="#EBB039"/>
</linearGradient>
<radialGradient id="paint6_radial_230_42993" cx="0" cy="0" r="1" gradientUnits="userSpaceOnUse" gradientTransform="translate(4603.98 270.009) rotate(144.848) scale(268.987 272.522)">
<stop stop-color="#FFAA00"/>
<stop offset="0.61" stop-color="#FFEDB4"/>
</radialGradient>
<linearGradient id="paint7_linear_230_42993" x1="493.136" y1="-84.9012" x2="483.714" y2="-83.6584" gradientUnits="userSpaceOnUse">
<stop offset="0.21" stop-color="#F1D374"/>
<stop offset="0.47" stop-color="#EFCA64"/>
<stop offset="0.97" stop-color="#EBB13B"/>
<stop offset="1" stop-color="#EBB039"/>
</linearGradient>
<linearGradient id="paint8_linear_230_42993" x1="450.197" y1="-12.5085" x2="459.774" y2="-12.3946" gradientUnits="userSpaceOnUse">
<stop offset="0.21" stop-color="#F1D374"/>
<stop offset="0.47" stop-color="#EFCA64"/>
<stop offset="0.97" stop-color="#EBB13B"/>
<stop offset="1" stop-color="#EBB039"/>
</linearGradient>
<linearGradient id="paint9_linear_230_42993" x1="224.304" y1="91.6115" x2="224.158" y2="87.4009" gradientUnits="userSpaceOnUse">
<stop offset="0.21" stop-color="#F1D374"/>
<stop offset="0.47" stop-color="#EFCA64"/>
<stop offset="0.97" stop-color="#EBB13B"/>
<stop offset="1" stop-color="#EBB039"/>
</linearGradient>
<radialGradient id="paint10_radial_230_42993" cx="0" cy="0" r="1" gradientUnits="userSpaceOnUse" gradientTransform="translate(2207.94 169.299) rotate(143.142) scale(126.291 133.503)">
<stop stop-color="#FFAA00"/>
<stop offset="0.61" stop-color="#FFEDB4"/>
</radialGradient>
<linearGradient id="paint11_linear_230_42993" x1="24.5866" y1="60.4303" x2="21.0421" y2="57.593" gradientUnits="userSpaceOnUse">
<stop stop-color="#FFECBD"/>
<stop offset="1" stop-color="#E68A00"/>
</linearGradient>
<linearGradient id="paint12_linear_230_42993" x1="8.43785" y1="41.0458" x2="10.0529" y2="45.891" gradientUnits="userSpaceOnUse">
<stop stop-color="#FFECBD"/>
<stop offset="1" stop-color="#E9B600"/>
</linearGradient>
<linearGradient id="paint13_linear_230_42993" x1="9.94434" y1="62.0576" x2="11.7413" y2="60.5188" gradientUnits="userSpaceOnUse">
<stop stop-color="#FFECBD"/>
<stop offset="1" stop-color="#E68A00"/>
</linearGradient>
<radialGradient id="paint14_radial_230_42993" cx="0" cy="0" r="1" gradientUnits="userSpaceOnUse" gradientTransform="translate(6721.33 322.781) rotate(145.338) scale(396.943 396.89)">
<stop stop-color="#FFAA00"/>
<stop offset="0.61" stop-color="#FFEDB4"/>
</radialGradient>
<linearGradient id="paint15_linear_230_42993" x1="420.493" y1="-575.172" x2="407.291" y2="-576.828" gradientUnits="userSpaceOnUse">
<stop offset="0.21" stop-color="#F1D374"/>
<stop offset="0.47" stop-color="#EFCA64"/>
<stop offset="0.97" stop-color="#EBB13B"/>
<stop offset="1" stop-color="#EBB039"/>
</linearGradient>
<linearGradient id="paint16_linear_230_42993" x1="244.746" y1="-662.856" x2="256.97" y2="-659.166" gradientUnits="userSpaceOnUse">
<stop offset="0.21" stop-color="#F1D374"/>
<stop offset="0.47" stop-color="#EFCA64"/>
<stop offset="0.97" stop-color="#EBB13B"/>
<stop offset="1" stop-color="#EBB039"/>
</linearGradient>
<linearGradient id="paint17_linear_230_42993" x1="124.807" y1="-337.306" x2="125.949" y2="-343.361" gradientUnits="userSpaceOnUse">
<stop offset="0.21" stop-color="#F1D374"/>
<stop offset="0.47" stop-color="#EFCA64"/>
<stop offset="0.97" stop-color="#EBB13B"/>
<stop offset="1" stop-color="#EBB039"/>
</linearGradient>
<radialGradient id="paint18_radial_230_42993" cx="0" cy="0" r="1" gradientUnits="userSpaceOnUse" gradientTransform="translate(3200.9 147.092) rotate(146.821) scale(181.755 174.095)">
<stop stop-color="#FFAA00"/>
<stop offset="0.61" stop-color="#FFEDB4"/>
</radialGradient>
<linearGradient id="paint19_linear_230_42993" x1="120.924" y1="-2.74609" x2="120.924" y2="53.4424" gradientUnits="userSpaceOnUse">
<stop stop-color="#ED2D24"/>
<stop offset="0.51" stop-color="#E92231"/>
<stop offset="1" stop-color="#B92032"/>
</linearGradient>
<linearGradient id="paint20_linear_230_42993" x1="1344.6" y1="-4484.5" x2="1332.01" y2="-4500.09" gradientUnits="userSpaceOnUse">
<stop offset="0.21" stop-color="#F1D374"/>
<stop offset="0.47" stop-color="#EFCA64"/>
<stop offset="0.97" stop-color="#EBB13B"/>
<stop offset="1" stop-color="#EBB039"/>
</linearGradient>
<linearGradient id="paint21_linear_230_42993" x1="603.954" y1="-4746.33" x2="610.311" y2="-4720.98" gradientUnits="userSpaceOnUse">
<stop offset="0.21" stop-color="#F1D374"/>
<stop offset="0.47" stop-color="#EFCA64"/>
<stop offset="0.97" stop-color="#EBB13B"/>
<stop offset="1" stop-color="#EBB039"/>
</linearGradient>
<linearGradient id="paint22_linear_230_42993" x1="-118.556" y1="-1908.76" x2="-112.072" y2="-1913.67" gradientUnits="userSpaceOnUse">
<stop offset="0.21" stop-color="#F1D374"/>
<stop offset="0.47" stop-color="#EFCA64"/>
<stop offset="0.97" stop-color="#EBB13B"/>
<stop offset="1" stop-color="#EBB039"/>
</linearGradient>
<radialGradient id="paint23_radial_230_42993" cx="0" cy="0" r="1" gradientUnits="userSpaceOnUse" gradientTransform="translate(3543.73 135.276) rotate(147.595) scale(203.577 190.326)">
<stop stop-color="#FFAA00"/>
<stop offset="0.61" stop-color="#FFEDB4"/>
</radialGradient>
</defs>
</svg>
