<svg viewBox="0 0 80 27" fill="none" xmlns="http://www.w3.org/2000/svg">
<path d="M67.9545 0.949877C62.0666 0.949877 57.1663 5.2562 56.1188 10.9462C55.9488 10.7185 55.7678 10.4994 55.5756 10.2886C54.8357 9.47616 53.9645 8.81425 52.9618 8.30427C51.9599 7.79332 50.8776 7.49181 49.716 7.39876L52.8257 0.818359H46.471L41.1071 12.2738C40.9837 12.5256 40.8702 12.7824 40.7672 13.043C40.5429 12.5529 40.2713 12.0814 39.9519 11.6297C39.0066 10.2951 37.8166 9.29085 36.3809 8.61795L40.0707 0.818359H28.7324L26.5412 6.66796H30.9487L27.7029 13.5964H32.6574C33.0904 13.5964 33.494 13.6775 33.8703 13.8402C34.2466 14.0029 34.5763 14.2228 34.8611 14.5019C35.1461 14.7802 35.379 15.1106 35.5616 15.4942C35.7434 15.8775 35.8466 16.2778 35.8694 16.6957C35.8466 17.1136 35.7442 17.5082 35.5616 17.8796C35.3798 18.2509 35.1461 18.5758 34.8611 18.8549C34.5761 19.1333 34.2456 19.3539 33.8703 19.5167C33.494 19.6786 33.0904 19.7605 32.6574 19.7605C31.1998 19.7605 29.9925 19.0756 29.0362 17.7064L28.5923 17.1162L28.3192 17.3929L25.0732 20.5266C25.9619 22.1284 27.0725 23.3756 28.404 24.2692C29.7365 25.1627 31.1548 25.6095 32.658 25.6095C33.7055 25.6095 34.7074 25.4299 35.6646 25.0697C36.6217 24.7095 37.4866 24.2164 38.2612 23.5898C39.0357 22.9634 39.6904 22.2141 40.2256 21.344C40.4618 20.9598 40.6663 20.5596 40.8426 20.1466C41.2771 21.1275 41.8476 22.0033 42.56 22.7718C43.3234 23.5955 44.2166 24.2574 45.2423 24.7562C46.2672 25.2552 47.3713 25.5398 48.5566 25.6095H49.513C50.6747 25.5398 51.7679 25.2557 52.7926 24.7562C53.8173 24.2572 54.7115 23.5955 55.4749 22.7718C56.2376 21.9482 56.8413 21.0016 57.2859 19.934C57.3678 19.7359 57.4401 19.5345 57.5071 19.3316C59.5858 23.0164 63.4863 25.498 67.956 25.498C74.6074 25.498 79.9996 20.0029 79.9996 13.2244C79.9996 6.44595 74.6061 0.949877 67.9545 0.949877ZM51.9882 17.7745C51.8173 18.1691 51.5899 18.5116 51.3049 18.8012C50.9794 19.1329 50.58 19.3881 50.1065 19.5683C49.8312 19.6731 49.5403 19.7349 49.2471 19.7518C48.7084 19.7828 48.2159 19.6984 47.7686 19.4974C47.3814 19.3233 47.0398 19.0907 46.7439 18.8012C46.448 18.5116 46.2142 18.1691 46.0434 17.7745C45.8802 17.3973 45.7954 16.9884 45.7881 16.5473C45.7807 16.0913 45.8676 15.6347 46.0434 15.2158C46.2144 14.8091 46.448 14.4611 46.7439 14.1715C47.0398 13.8812 47.3814 13.6494 47.7686 13.4753C48.2132 13.2755 48.702 13.1908 49.237 13.2203C49.5317 13.2366 49.8245 13.298 50.1015 13.4027C50.5771 13.5825 50.9782 13.8396 51.3047 14.1715C51.5809 14.453 51.8031 14.7887 51.9721 15.1787C52.1432 15.5735 52.2366 16.0028 52.2433 16.4348C52.2508 16.9191 52.1652 17.3653 51.9882 17.7745ZM74.4051 16.0189C74.0352 16.8755 73.54 17.6183 72.9222 18.2478C72.2005 18.9833 71.31 19.5483 70.251 19.9397C69.6879 20.1479 69.0963 20.2724 68.4988 20.3099C67.3139 20.3843 66.2301 20.2013 65.2483 19.7597C64.4077 19.3818 63.6662 18.8781 63.0241 18.2478C62.3811 17.6181 61.8742 16.8755 61.5035 16.0189C61.1336 15.1622 60.9479 14.231 60.9479 13.2228C60.9479 12.2147 61.1336 11.3459 61.5035 10.4645C61.875 9.58314 62.3811 8.8274 63.0241 8.1971C63.6664 7.56738 64.4077 7.06369 65.2483 6.68602C66.2318 6.24357 67.3178 6.06082 68.5053 6.13619C69.1021 6.17408 69.6929 6.29912 70.2552 6.50758C71.3123 6.89939 72.2013 7.46256 72.922 8.1971C73.5398 8.82662 74.035 9.58235 74.4049 10.4645C74.7764 11.3459 74.9605 12.2651 74.9605 13.2228C74.9605 14.231 74.7766 15.163 74.4051 16.0189Z" fill="url(#paint0_linear_39_2428)"/>
<path d="M65.874 10.6591V15.6969C65.8748 15.8239 65.9077 15.9486 65.9696 16.0583C66.0314 16.1681 66.12 16.2593 66.2264 16.3227C66.3329 16.386 66.4535 16.4195 66.5764 16.4197C66.6993 16.4199 66.82 16.3868 66.9267 16.3237L69.0494 15.0623L71.1722 13.8035C71.2791 13.741 71.368 13.6503 71.4298 13.5406C71.4917 13.431 71.5243 13.3063 71.5243 13.1793C71.5243 13.0523 71.4917 12.9276 71.4298 12.8179C71.368 12.7083 71.2791 12.6175 71.1722 12.555L69.0494 11.2937L66.9267 10.0349C66.8203 9.97108 66.6996 9.93733 66.5767 9.93701C66.4538 9.9367 66.3329 9.96982 66.2263 10.0331C66.1196 10.0963 66.0309 10.1874 65.9691 10.2973C65.9073 10.4072 65.8745 10.532 65.874 10.6591" fill="#989898"/>
<path d="M23.6755 0.818359C23.0868 0.818359 22.5612 1.19721 22.362 1.76548L19.3631 10.3189C19.2797 10.5016 19.1966 10.5929 19.1135 10.5929C19.0067 10.5929 18.9235 10.5014 18.8643 10.3189L15.8542 1.73388C15.6616 1.18465 15.1537 0.818359 14.5847 0.818359H0V1.17346C0 2.3901 0.961543 3.37628 2.14778 3.37628H4.63144V13.6074H7.8378V3.37628H13.1202L16.5307 12.0364C16.9818 13.1812 17.8427 13.7536 19.1135 13.7536C19.8498 13.7536 20.4079 13.6015 20.788 13.2968C21.1679 12.9926 21.4649 12.5723 21.6785 12.0364L26.1142 0.818359H23.6753H23.6755Z" fill="#989898"/>
<defs>
<linearGradient id="paint0_linear_39_2428" x1="52.5365" y1="-0.478367" x2="52.5365" y2="26.0543" gradientUnits="userSpaceOnUse">
<stop stop-color="#ED2D24"/>
<stop offset="0.51" stop-color="#E92231"/>
<stop offset="1" stop-color="#B92032"/>
</linearGradient>
</defs>
</svg>
