<svg viewBox="0 0 33 33" fill="none" xmlns="http://www.w3.org/2000/svg">
<path d="M16.5 0.5C13.3355 0.5 10.2421 1.43838 7.61088 3.19649C4.9797 4.95459 2.92894 7.45345 1.71793 10.3771C0.506933 13.3007 0.190079 16.5177 0.807443 19.6214C1.42481 22.7251 2.94866 25.5761 5.1863 27.8137C7.42394 30.0513 10.2749 31.5752 13.3786 32.1926C16.4823 32.8099 19.6993 32.4931 22.6229 31.2821C25.5466 30.0711 28.0454 28.0203 29.8035 25.3891C31.5616 22.7579 32.5 19.6645 32.5 16.5C32.5 12.2565 30.8143 8.18687 27.8137 5.18629C24.8131 2.18571 20.7435 0.5 16.5 0.5ZM25.0486 17.5057L12.4771 24.3629C12.3034 24.4632 12.1063 24.516 11.9057 24.516C11.7051 24.516 11.508 24.4632 11.3343 24.3629C11.1624 24.2583 11.0212 24.1103 10.9249 23.9337C10.8286 23.7571 10.7806 23.5582 10.7857 23.3571V9.64286C10.7858 9.44452 10.8374 9.24961 10.9356 9.07728C11.0338 8.90496 11.1751 8.76115 11.3457 8.66C11.5195 8.55969 11.7165 8.50688 11.9171 8.50688C12.1178 8.50688 12.3148 8.55969 12.4886 8.66L25.06 15.5171C25.2414 15.6151 25.393 15.7602 25.4986 15.9373C25.6043 16.1144 25.66 16.3167 25.66 16.5229C25.66 16.729 25.6043 16.9314 25.4986 17.1084C25.393 17.2855 25.2414 17.4306 25.06 17.5286L25.0486 17.5057Z" fill="white"/>
</svg>
