<svg viewBox="0 0 64 64" fill="none" xmlns="http://www.w3.org/2000/svg">
<circle cx="32" cy="32" r="32" fill="#202020"/>
<path d="M31.9997 39.2858C36.1311 39.2858 39.4802 36.0239 39.4802 32.0001V19.8572C39.4802 15.8334 36.1311 12.5715 31.9997 12.5715C27.8683 12.5715 24.5192 15.8334 24.5192 19.8572V32.0001C24.5192 36.0239 27.8683 39.2858 31.9997 39.2858ZM44.4672 27.143H43.2205C42.5316 27.143 41.9737 27.6864 41.9737 28.3572V32.0001C41.9737 37.6769 36.9485 42.232 31.0031 41.6673C25.8212 41.1748 22.0257 36.6379 22.0257 31.5675V28.3572C22.0257 27.6864 21.4677 27.143 20.7789 27.143H19.5322C18.8433 27.143 18.2854 27.6864 18.2854 28.3572V31.4051C18.2854 38.2081 23.2701 44.2727 30.1296 45.1941V47.7858H25.7659C25.0771 47.7858 24.5192 48.3292 24.5192 49.0001V50.2144C24.5192 50.8853 25.0771 51.4287 25.7659 51.4287H38.2335C38.9223 51.4287 39.4802 50.8853 39.4802 50.2144V49.0001C39.4802 48.3292 38.9223 47.7858 38.2335 47.7858H33.8698V45.2229C40.5485 44.3304 45.714 38.747 45.714 32.0001V28.3572C45.714 27.6864 45.156 27.143 44.4672 27.143Z" fill="white" fill-opacity="0.4"/>
</svg>