<svg viewBox="0 0 48 48" fill="none" xmlns="http://www.w3.org/2000/svg">
<path d="M33.3333 5.33203H14.6667C13.9594 5.33203 13.2811 5.61298 12.781 6.11308C12.281 6.61318 12 7.29145 12 7.9987V39.9987C12 40.7059 12.281 41.3842 12.781 41.8843C13.2811 42.3844 13.9594 42.6654 14.6667 42.6654H33.3333C34.0406 42.6654 34.7189 42.3844 35.219 41.8843C35.719 41.3842 36 40.7059 36 39.9987V7.9987C36 7.29145 35.719 6.61318 35.219 6.11308C34.7189 5.61298 34.0406 5.33203 33.3333 5.33203ZM25.3333 39.9987H22.6667V37.332H25.3333V39.9987ZM14.6667 34.6654V7.9987H33.3333V34.6654H14.6667Z" fill="white" fill-opacity="0.87"/>
</svg>
