<svg viewBox="0 0 64 64" fill="none" xmlns="http://www.w3.org/2000/svg">
<path d="M43.9532 36.6593V20.1707C43.9522 19.9456 43.9004 19.7235 43.8018 19.5211C43.7032 19.3187 43.5603 19.1411 43.3836 19.0015C43.2095 18.8607 43.006 18.7606 42.7881 18.7087C42.5702 18.6568 42.3434 18.6545 42.1245 18.7017L28.6339 21.6997C28.3008 21.7748 28.0034 21.9613 27.7908 22.2284C27.5782 22.4955 27.4632 22.8272 27.4647 23.1686V35.67C26.4414 35.1869 25.289 35.0486 24.1805 35.2759C23.072 35.5032 22.0671 36.0838 21.3165 36.9307C20.5659 37.7775 20.1101 38.8449 20.0175 39.9727C19.925 41.1005 20.2006 42.2279 20.803 43.1858C21.4055 44.1437 22.3023 44.8804 23.3589 45.2854C24.4155 45.6905 25.575 45.742 26.6634 45.4322C27.7517 45.1225 28.7103 44.4682 29.3953 43.5674C30.0803 42.6667 30.4548 41.5682 30.4626 40.4366C30.4781 40.1771 30.4781 39.9168 30.4626 39.6572V24.3678L40.9553 22.0444V32.672C39.9314 32.1887 38.7784 32.0505 37.6693 32.2783C36.5602 32.5061 35.555 33.0876 34.8046 33.9355C34.0542 34.7833 33.5991 35.8517 33.5076 36.9803C33.4162 38.1088 33.6934 39.2365 34.2975 40.1941C34.9017 41.1517 35.8002 41.8874 36.8581 42.2908C37.9161 42.6942 39.0763 42.7434 40.1646 42.4312C41.253 42.1189 42.2106 41.462 42.8938 40.5591C43.5769 39.6562 43.9487 38.556 43.9532 37.4237C43.9674 37.1691 43.9674 36.9139 43.9532 36.6593Z" fill="#ED1B2F"/>
</svg>
