<svg viewBox="0 0 40 40" fill="none" xmlns="http://www.w3.org/2000/svg">
<path d="M23.7825 20.8141L24.9206 20.0006L23.7825 19.187L10.894 9.97418L9.3125 8.84368V10.7877V29.2134V31.1574L10.894 30.0269L23.7825 20.8141ZM31.5 31.4589C31.5 31.474 31.4986 31.488 31.4963 31.5006H31.0037C31.0014 31.488 31 31.474 31 31.4589V8.54222C31 8.52715 31.0014 8.51313 31.0037 8.50055H31.4963C31.4986 8.51313 31.5 8.52715 31.5 8.54222V31.4589ZM25.4958 19.7972C25.6353 19.8969 25.6353 20.1042 25.4959 20.2039L9.20788 31.8468C9.04242 31.9651 8.8125 31.8468 8.8125 31.6434V8.35767C8.8125 8.15429 9.04242 8.03602 9.20788 8.15429L25.4958 19.7972Z" fill="white" stroke="white" stroke-width="2"/>
</svg>
