<svg viewBox="0 0 75 75" fill="none" xmlns="http://www.w3.org/2000/svg">
<path d="M56.2514 34.3751C56.2514 24.7813 51.1264 16.7501 42.1889 14.6251V12.5001C42.1889 9.90634 40.0952 7.81259 37.5014 7.81259C34.9077 7.81259 32.8139 9.90634 32.8139 12.5001V14.6251C23.8452 16.7501 18.7514 24.7501 18.7514 34.3751V50.0001L12.5014 56.2501V59.3751H62.5014V56.2501L56.2514 50.0001V34.3751Z" fill="white"/>
<path d="M37.5014 68.7501C37.9389 68.7501 38.3452 68.7188 38.7514 68.6251C40.7827 68.1876 42.4389 66.8126 43.2514 64.9376C43.5639 64.1876 43.7202 63.3751 43.7202 62.5001H31.2202C31.2514 65.9376 34.0327 68.7501 37.5014 68.7501Z" fill="white"/>
</svg>
