<svg version="1.0" xmlns="http://www.w3.org/2000/svg" viewBox="0 0 376 376" preserveAspectRatio="xMidYMid meet">
<g transform="translate(0,376) scale(0.1,-0.1)" fill="#FFFFFF" stroke="none">
<path d="M1641 3555 c-182 -28 -324 -72 -489 -150 -279 -134 -505 -329 -677 -585 -381 -568 -381 -1313 0 -1880 233 -347 579 -592 989 -699 217 -57 516 -66 739 -21 678 134 1201 659 1339 1342 33 164 33 472 0 636 -138 683 -660 1207 -1339 1343 -141 28 -424 35 -562 14z m159 -515 l0 -370 -22 0 c-124 1 -488 47 -488 62 0 18 74 206 107 273 89 177 210 317 322 373 35 18 68 32 73 32 4 0 8 -166 8 -370z m241 339 c100 -50 199 -158 288 -314 47 -82 120 -252 136 -316 l6 -25 -113 -17 c-102 -15 -317 -36 -375 -37 l-23 0 0 371 0 370 23 -7 c12 -3 38 -15 58 -25z m-656 -106 c-73 -99 -168 -284 -215 -418 -17 -49 -32 -91 -34 -92 -7 -7 -246 76 -322 112 l-79 36 95 92 c147 142 324 251 526 327 44 16 82 29 86 30 4 0 -21 -39 -57 -87z m1072 35 c178 -69 365 -192 502 -332 l65 -65 -85 -39 c-80 -38 -308 -117 -315 -110 -2 2 -17 44 -34 93 -47 135 -142 319 -216 418 -74 100 -79 98 83 35z m-1724 -563 c52 -24 151 -63 218 -85 68 -22 129 -43 135 -45 9 -2 8 -19 -2 -62 -25 -105 -54 -326 -61 -460 l-6 -133 -340 0 -339 0 7 63 c26 255 112 498 245 700 24 37 45 67 46 67 0 0 44 -20 97 -45z m2437 -22 c133 -202 219 -445 245 -700 l7 -63 -339 0 -340 0 -6 133 c-7 134 -36 355 -61 460 -10 43 -11 60 -2 62 6 2 66 23 134 45 68 22 165 60 215 84 51 25 94 45 97 45 3 1 26 -29 50 -66z m-1772 -168 c53 -8 165 -20 249 -26 l153 -12 0 -279 0 -278 -315 0 -315 0 0 68 c0 118 55 510 77 545 3 5 16 6 30 2 13 -3 68 -12 121 -20z m1139 -90 c26 -126 53 -356 53 -445 l0 -60 -315 0 -315 0 0 279 0 278 103 7 c122 8 338 34 387 46 62 15 63 14 87 -105z m-1514 -797 c7 -135 36 -356 61 -461 10 -43 11 -60 2 -62 -6 -2 -67 -23 -135 -45 -67 -22 -166 -61 -218 -85 -111 -52 -93 -59 -173 72 -118 192 -190 409 -215 651 l-7 62 339 0 340 0 6 -132z m777 -146 l0 -279 -152 -12 c-84 -6 -200 -19 -258 -28 -58 -8 -114 -16 -125 -17 -18 -1 -23 12 -42 109 -27 135 -53 347 -53 438 l0 67 315 0 315 0 0 -278z m787 158 c-7 -130 -28 -288 -55 -415 -20 -92 -4 -86 -162 -62 -58 9 -174 22 -257 28 l-153 12 0 279 0 278 317 0 316 0 -6 -120z m828 58 c-25 -242 -97 -459 -215 -651 -80 -131 -62 -124 -173 -72 -52 24 -151 63 -218 85 -68 22 -129 43 -135 45 -9 2 -8 19 2 62 25 105 54 326 61 461 l6 132 340 0 339 0 -7 -62z m-1615 -1019 l0 -370 -22 7 c-121 37 -242 155 -347 339 -47 82 -120 252 -136 316 l-6 26 118 17 c115 17 262 32 351 35 l42 1 0 -371z m325 361 c158 -13 345 -41 345 -52 0 -17 -73 -203 -102 -263 -106 -210 -256 -370 -385 -410 l-23 -6 0 370 0 371 23 0 c12 0 76 -5 142 -10z m-956 -172 c47 -136 141 -321 216 -421 75 -100 80 -99 -84 -34 -180 71 -362 190 -495 325 l-69 70 61 31 c50 25 310 120 333 121 4 0 21 -42 38 -92z m1574 56 c61 -20 150 -54 197 -76 l85 -39 -97 -94 c-108 -104 -239 -195 -373 -260 -86 -41 -235 -99 -240 -93 -2 2 26 41 61 88 73 96 168 281 215 418 17 50 33 92 35 92 3 0 55 -16 117 -36z"/>
<path d="M3560 3760 l200 -200 -3560 -3560 -200 200z"/>
</g>
</svg>
