<svg viewBox="-5 -5 210 210" fill="none" xmlns="http://www.w3.org/2000/svg">
<rect x="70" y="60" width="25" height="80" rx="1" fill="white"/>
<rect x="105" y="60" width="25" height="80" rx="1" fill="white"/>
<path d="M100 198C45.8761 198 2 154.124 2 100H-2C-2 156.333 43.667 202 100 202V198ZM198 100C198 154.124 154.124 198 100 198V202C156.333 202 202 156.333 202 100H198ZM100 2C154.124 2 198 45.8761 198 100H202C202 43.667 156.333 -2 100 -2V2ZM100 -2C43.667 -2 -2 43.667 -2 100H2C2 45.8761 45.8761 2 100 2V-2Z" fill="white"/>
</svg>
