<svg viewBox="-5 -5 210 210" fill="none" xmlns="http://www.w3.org/2000/svg">
<path d="M73.6364 145C72.672 145 71.747 144.605 71.0651 143.902C70.3831 143.198 70 142.245 70 141.25V58.7494C70.0001 58.0977 70.1649 57.4574 70.4781 56.8914C70.7913 56.3254 71.2421 55.8534 71.786 55.5218C72.33 55.1902 72.9484 55.0105 73.5802 55.0004C74.212 54.9904 74.8355 55.1503 75.3892 55.4644L148.117 96.7147C148.688 97.0384 149.163 97.514 149.494 98.0918C149.825 98.6696 150 99.3285 150 99.9997C150 100.671 149.825 101.33 149.494 101.908C149.163 102.485 148.688 102.961 148.117 103.285L75.3892 144.535C74.8523 144.84 74.2493 145 73.6364 145Z" fill="white"/>
<path d="M100 198C45.8761 198 2 154.124 2 100H-2C-2 156.333 43.667 202 100 202V198ZM198 100C198 154.124 154.124 198 100 198V202C156.333 202 202 156.333 202 100H198ZM100 2C154.124 2 198 45.8761 198 100H202C202 43.667 156.333 -2 100 -2V2ZM100 -2C43.667 -2 -2 43.667 -2 100H2C2 45.8761 45.8761 2 100 2V-2Z" fill="white"/>
</svg>
