<svg viewBox="0 0 20 20" fill="none" xmlns="http://www.w3.org/2000/svg">
<path d="M1.66699 7.49959C1.66699 4.74959 1.66699 3.37459 2.52116 2.52043C3.37533 1.66626 4.75033 1.66626 7.50033 1.66626H9.16699C11.917 1.66626 13.292 1.66626 14.1462 2.52043C15.0003 3.37459 15.0003 4.74959 15.0003 7.49959V9.16626C15.0003 11.9163 15.0003 13.2913 14.1462 14.1454C13.292 14.9996 11.917 14.9996 9.16699 14.9996H7.50033C4.75033 14.9996 3.37533 14.9996 2.52116 14.1454C1.66699 13.2913 1.66699 11.9163 1.66699 9.16626V7.49959Z" stroke="white" stroke-width="1.25" stroke-linecap="round" stroke-linejoin="round"/>
<path d="M15.198 5.83374C16.3105 5.90124 17.0188 6.08791 17.5297 6.59791C18.333 7.40124 18.333 8.69457 18.333 11.2812V12.8479C18.333 15.4337 18.333 16.7271 17.5297 17.5304C16.7263 18.3337 15.433 18.3337 12.8472 18.3337H11.2805C8.69384 18.3337 7.40051 18.3337 6.59717 17.5304C6.08717 17.0196 5.90051 16.3112 5.83301 15.1987" stroke="white" stroke-width="1.25" stroke-linecap="round" stroke-linejoin="round"/>
<path d="M9.21337 6.69559C10.2344 7.35229 10.7443 7.68098 10.8196 8.15407C10.8383 8.27258 10.8383 8.39383 10.8196 8.51233C10.7449 8.9868 10.2344 9.31481 9.21337 9.97081C8.19235 10.6275 7.68246 10.9562 7.27627 10.7919C7.17478 10.7506 7.08056 10.6898 6.99787 10.6124C6.66699 10.3029 6.66699 9.64694 6.66699 8.33355C6.66699 7.02016 6.66699 6.36346 6.99787 6.05471C7.0806 5.9775 7.17482 5.91699 7.27627 5.87593C7.68184 5.71089 8.19235 6.03958 9.21337 6.69559Z" stroke="white" stroke-width="1.25" stroke-linecap="round" stroke-linejoin="round"/>
</svg>
