<svg viewBox="0 0 18 20" fill="none" xmlns="http://www.w3.org/2000/svg">
<path d="M16.7936 11.8851L3.02391 19.7451C2.71386 19.9204 2.3656 20.008 2.01341 19.9994C1.66122 19.9908 1.31723 19.8862 1.01532 19.696C0.713405 19.5058 0.463966 19.2364 0.291553 18.9145C0.11914 18.5926 0.0296969 18.2292 0.0320268 17.86V2.13999C0.0296969 1.77084 0.11914 1.40741 0.291553 1.08548C0.463966 0.763551 0.713405 0.494217 1.01532 0.303987C1.31723 0.113758 1.66122 0.00919104 2.01341 0.000578728C2.3656 -0.00803358 2.71386 0.0796057 3.02391 0.25487L16.7936 8.11488C17.1154 8.30079 17.3837 8.57376 17.5706 8.90533C17.7575 9.23689 17.8561 9.61492 17.8561 10C17.8561 10.3851 17.7575 10.7631 17.5706 11.0947C17.3837 11.4262 17.1154 11.6992 16.7936 11.8851Z" fill="white"/>
</svg>
