<svg viewBox="0 0 40 40" fill="none" xmlns="http://www.w3.org/2000/svg">
<path d="M40 20C40 25.3421 37.9196 30.3647 34.1422 34.1422C30.3647 37.9196 25.3421 40 20 40C14.6579 40 9.63531 37.9196 5.85785 34.1422C2.08038 30.3647 0 25.3421 0 20H3.125C3.125 29.3048 10.6952 36.875 20 36.875C29.3048 36.875 36.875 29.3048 36.875 20C36.875 10.6952 29.3048 3.125 20 3.125C13.9139 3.125 8.41949 6.33942 5.42419 11.4844H10.1562V14.6094H0V4.45312H3.125V9.2572C4.56818 6.99066 6.45905 5.03113 8.70941 3.48938C12.0419 1.20667 15.946 0 20 0C25.3421 0 30.3647 2.08038 34.1422 5.85785C37.9196 9.63531 40 14.6579 40 20ZM28.2791 20.0443L15 27.7176V12.3706L28.2791 20.0443ZM18.125 22.3029L22.0334 20.0443L18.125 17.7856V22.3029Z" fill="#E72432"/>
</svg>
