<svg viewBox="0 0 48 48" fill="none" xmlns="http://www.w3.org/2000/svg">
<path d="M40.253 33.503C37.5338 36.2223 33.8456 37.75 30 37.75C26.1544 37.75 22.4662 36.2223 19.747 33.503C17.0277 30.7838 15.5 27.0956 15.5 23.25C15.5 19.4044 17.0277 15.7162 19.747 12.997C22.4662 10.2777 26.1544 8.75 30 8.75C33.8456 8.75 37.5338 10.2777 40.253 12.997C42.9723 15.7162 44.5 19.4044 44.5 23.25C44.5 27.0956 42.9723 30.7838 40.253 33.503Z" stroke="white" stroke-width="2.5" stroke-linecap="round" stroke-linejoin="round"/>
<path d="M29.25 16.5V23.5L35.25 27" stroke="white" stroke-width="2.5" stroke-linecap="round" stroke-linejoin="round"/>
<path d="M3 16L11 16" stroke="white" stroke-width="2.5" stroke-linecap="round"/>
<path d="M5 24H11" stroke="white" stroke-width="2.5" stroke-linecap="round"/>
<path d="M6.99902 32H10.999" stroke="white" stroke-width="2.5" stroke-linecap="round"/>
</svg>
