<svg viewBox="0 0 40 40" fill="none" xmlns="http://www.w3.org/2000/svg">
<path fill-rule="evenodd" clip-rule="evenodd" d="M11.6663 12.5L9.99959 12.5C8.15864 12.5 6.66626 13.9924 6.66626 15.8333V17.4976H4.99959C3.15864 17.4976 1.66626 18.9899 1.66626 20.8309V29.1642C1.66626 31.0052 3.15865 32.4976 4.9996 32.4976H24.9996C26.8405 32.4976 28.3329 31.0052 28.3329 29.1642V27.5H29.9996C31.8405 27.5 33.3329 26.0076 33.3329 24.1667L33.3329 22.5H34.9996C36.8405 22.5 38.3329 21.0076 38.3329 19.1667V10.8333C38.3329 8.99238 36.8405 7.5 34.9996 7.5H14.9996C13.1586 7.5 11.6663 8.99238 11.6663 10.8333V12.5ZM14.9996 10H34.9996C35.4598 10 35.8329 10.3731 35.8329 10.8333V19.1667C35.8329 19.6269 35.4598 20 34.9996 20H33.3329L33.3329 15.8333C33.3329 13.9924 31.8405 12.5 29.9996 12.5L14.1663 12.5V10.8333C14.1663 10.3731 14.5394 10 14.9996 10ZM28.3329 25H29.9996C30.4598 25 30.8329 24.6269 30.8329 24.1667V15.8333C30.8329 15.3731 30.4598 15 29.9996 15H9.99959C9.53936 15 9.16626 15.3731 9.16626 15.8333V17.4976H24.9996C26.8405 17.4976 28.3329 18.9899 28.3329 20.8309V25ZM4.16626 20.8309C4.16626 20.3707 4.53936 19.9976 4.99959 19.9976H24.9996C25.4598 19.9976 25.8329 20.3707 25.8329 20.8309V29.1642C25.8329 29.6245 25.4598 29.9976 24.9996 29.9976H4.9996C4.53936 29.9976 4.16626 29.6245 4.16626 29.1642V20.8309Z" fill="black"/>
</svg>
