<svg viewBox="0 0 25 24" fill="none" xmlns="http://www.w3.org/2000/svg">
<path d="M21.7483 14.1196L5.52505 22.9569C5.15975 23.1539 4.74943 23.2525 4.33449 23.2428C3.91954 23.2331 3.51427 23.1156 3.15855 22.9017C2.80284 22.6878 2.50896 22.385 2.30582 22.023C2.10269 21.6611 1.99731 21.2524 2.00005 20.8374V3.16289C1.99731 2.74784 2.10269 2.33923 2.30582 1.97728C2.50896 1.61532 2.80284 1.3125 3.15855 1.09862C3.51427 0.884738 3.91954 0.76717 4.33449 0.757487C4.74943 0.747804 5.15975 0.846339 5.52505 1.04339L21.7483 9.88064C22.1275 10.0897 22.4436 10.3966 22.6638 10.7694C22.8839 11.1422 23.0001 11.5672 23.0001 12.0001C23.0001 12.4331 22.8839 12.8581 22.6638 13.2309C22.4436 13.6037 22.1275 13.9106 21.7483 14.1196Z" fill="white"/>
</svg>
