<svg viewBox="0 0 33 32" fill="none" xmlns="http://www.w3.org/2000/svg">
<path fill-rule="evenodd" clip-rule="evenodd" d="M9.833 10L8.49967 10C7.02692 10 5.83301 11.1939 5.83301 12.6667V13.998H4.49967C3.02692 13.998 1.83301 15.192 1.83301 16.6647V23.3314C1.83301 24.8041 3.02692 25.998 4.49968 25.998H20.4997C21.9724 25.998 23.1663 24.8041 23.1663 23.3314V22H24.4997C25.9724 22 27.1663 20.8061 27.1663 19.3333L27.1663 18H28.4997C29.9724 18 31.1663 16.8061 31.1663 15.3333V8.66667C31.1663 7.19391 29.9724 6 28.4997 6H12.4997C11.0269 6 9.833 7.19391 9.833 8.66667V10ZM12.4997 8H28.4997C28.8679 8 29.1663 8.29848 29.1663 8.66667V15.3333C29.1663 15.7015 28.8679 16 28.4997 16H27.1663L27.1663 12.6667C27.1663 11.1939 25.9724 10 24.4997 10L11.833 10V8.66667C11.833 8.29848 12.1315 8 12.4997 8ZM23.1663 20H24.4997C24.8679 20 25.1663 19.7015 25.1663 19.3333V12.6667C25.1663 12.2985 24.8679 12 24.4997 12H8.49967C8.13148 12 7.83301 12.2985 7.83301 12.6667V13.998H20.4997C21.9724 13.998 23.1663 15.192 23.1663 16.6647V20ZM3.83301 16.6647C3.83301 16.2965 4.13149 15.998 4.49967 15.998H20.4997C20.8679 15.998 21.1663 16.2965 21.1663 16.6647V23.3314C21.1663 23.6996 20.8679 23.998 20.4997 23.998H4.49968C4.13148 23.998 3.83301 23.6996 3.83301 23.3314V16.6647Z" fill="white"/>
</svg>
