<svg viewBox="0 0 21 24" fill="none" xmlns="http://www.w3.org/2000/svg">
<path d="M19.7483 14.1194L3.52505 22.9567C3.15975 23.1537 2.74943 23.2522 2.33449 23.2426C1.91954 23.2329 1.51427 23.1153 1.15855 22.9014C0.802843 22.6875 0.508957 22.3847 0.305823 22.0228C0.102688 21.6608 -0.00269278 21.2522 5.22893e-05 20.8372V3.16265C-0.00269278 2.7476 0.102688 2.33899 0.305823 1.97703C0.508957 1.61508 0.802843 1.31225 1.15855 1.09837C1.51427 0.884493 1.91954 0.766926 2.33449 0.757242C2.74943 0.747559 3.15975 0.846095 3.52505 1.04315L19.7483 9.8804C20.1275 10.0894 20.4436 10.3963 20.6638 10.7691C20.8839 11.1419 21.0001 11.5669 21.0001 11.9999C21.0001 12.4329 20.8839 12.8579 20.6638 13.2307C20.4436 13.6035 20.1275 13.9104 19.7483 14.1194Z" fill="white"/>
</svg>
