<svg viewBox="0 0 23 23" xmlns="http://www.w3.org/2000/svg">
<path d="M11.12 0.379883C4.97427 0.379883 0 5.35331 0 11.4999C0 17.6456 4.97342 22.6199 11.12 22.6199C17.2657 22.6199 22.24 17.6465 22.24 11.4999C22.24 5.35416 17.2666 0.379883 11.12 0.379883ZM11.12 20.8824C5.93448 20.8824 1.7375 16.6859 1.7375 11.4999C1.7375 6.31436 5.93397 2.11738 11.12 2.11738C16.3055 2.11738 20.5025 6.31385 20.5025 11.4999C20.5025 16.6854 16.306 20.8824 11.12 20.8824ZM18.9387 9.18327V12.4845C18.9387 12.9644 18.5498 13.3533 18.07 13.3533C17.5902 13.3533 17.2013 12.9644 17.2013 12.4845V11.2807L14.051 14.4309C13.7117 14.7701 13.1616 14.7701 12.8224 14.4309L8.80339 10.4119L4.7844 14.4309C4.44505 14.7701 3.89512 14.7703 3.55577 14.4309C3.21658 14.0915 3.21658 13.5414 3.55577 13.2023L8.18916 8.56887C8.52851 8.22968 9.07844 8.22968 9.41779 8.56887L13.4368 12.588L15.9726 10.052H14.7688C14.2889 10.052 13.9 9.66312 13.9 9.18327C13.9 8.70342 14.2889 8.31452 14.7688 8.31452H18.07C18.557 8.31452 18.9387 8.71377 18.9387 9.18327Z" fill="#FFFFFF"/>
</svg>