<svg viewBox="0 0 64 64" fill="none" xmlns="http://www.w3.org/2000/svg">
<path fill-rule="evenodd" clip-rule="evenodd" d="M37.474 25.4031C37.474 28.3871 35.0549 30.8062 32.0709 30.8062C29.0868 30.8062 26.6678 28.3871 26.6678 25.4031C26.6678 22.419 29.0868 20 32.0709 20C35.0549 20 37.474 22.419 37.474 25.4031ZM36.039 31.654C38.104 30.3404 39.474 28.0317 39.474 25.4031C39.474 21.3145 36.1595 18 32.0709 18C27.9823 18 24.6678 21.3145 24.6678 25.4031C24.6678 28.0317 26.0378 30.3404 28.1028 31.654C22.267 33.3669 18.0059 38.7616 18.0059 45.1515C18.0059 45.7038 18.4536 46.1515 19.0059 46.1515C19.5581 46.1515 20.0059 45.7038 20.0059 45.1515C20.0059 38.4882 25.4076 33.0864 32.0709 33.0864C38.7343 33.0864 44.136 38.4882 44.136 45.1515C44.136 45.7038 44.5837 46.1515 45.136 46.1515C45.6883 46.1515 46.136 45.7038 46.136 45.1515C46.136 38.7615 41.8748 33.3668 36.039 31.654Z" fill="white" fill-opacity="0.6"/>
</svg>
