<svg viewBox="0 0 1024 1024" fill="none" xmlns="http://www.w3.org/2000/svg">
<path d="M746.841 0L277.159 0C124.088 0 0 124.088 0 277.159L0 746.841C0 899.912 124.088 1024 277.159 1024H746.841C899.912 1024 1024 899.912 1024 746.841V277.159C1024 124.088 899.912 0 746.841 0Z" fill="url(#paint0_linear_306_1588)"/>
<g clip-path="url(#clip0_306_1588)">
<path d="M829.34 392.448C763.027 392.448 707.837 439.87 696.04 502.529C694.126 500.021 692.087 497.609 689.923 495.287C681.589 486.341 671.777 479.052 660.485 473.436C649.2 467.809 637.011 464.489 623.929 463.464L658.952 391H587.382L526.971 517.148C525.581 519.921 524.303 522.749 523.143 525.619C520.617 520.222 517.558 515.03 513.96 510.056C503.314 495.359 489.911 484.3 473.743 476.89L515.299 391H387.601L362.923 455.416H412.562L376.007 531.713H431.807C436.683 531.713 441.229 532.606 445.466 534.398C449.704 536.19 453.418 538.611 456.626 541.685C459.835 544.75 462.458 548.388 464.515 552.612C466.563 556.833 467.724 561.241 467.981 565.843C467.724 570.445 466.571 574.79 464.515 578.88C462.467 582.969 459.835 586.547 456.626 589.621C453.416 592.686 449.693 595.116 445.466 596.908C441.229 598.691 436.683 599.592 431.807 599.592C415.39 599.592 401.793 592.05 391.022 576.973L386.023 570.473L382.947 573.521L346.39 608.029C356.398 625.668 368.906 639.403 383.902 649.243C398.909 659.082 414.884 664.002 431.813 664.002C443.61 664.002 454.895 662.024 465.674 658.058C476.454 654.091 486.195 648.661 494.919 641.761C503.642 634.863 511.016 626.613 517.043 617.03C519.703 612.8 522.007 608.392 523.992 603.844C528.885 614.646 535.311 624.291 543.334 632.754C551.932 641.824 561.992 649.113 573.544 654.606C585.086 660.1 597.522 663.235 610.871 664.002H621.642C634.726 663.235 647.038 660.107 658.579 654.606C670.12 649.111 680.19 641.824 688.789 632.754C697.379 623.684 704.177 613.26 709.184 601.503C710.107 599.322 710.922 597.104 711.676 594.869C735.087 635.447 779.017 662.774 829.357 662.774C904.268 662.774 964.998 602.262 964.998 527.617C964.998 452.972 904.253 392.448 829.34 392.448ZM649.519 577.723C647.595 582.068 645.034 585.84 641.824 589.028C638.158 592.682 633.659 595.492 628.326 597.476C625.227 598.63 621.95 599.311 618.648 599.497C612.58 599.839 607.034 598.909 601.996 596.696C597.636 594.778 593.788 592.217 590.456 589.028C587.123 585.84 584.489 582.068 582.567 577.723C580.728 573.569 579.773 569.066 579.691 564.209C579.607 559.187 580.586 554.159 582.567 549.546C584.491 545.068 587.123 541.235 590.456 538.047C593.788 534.85 597.636 532.297 601.996 530.379C607.004 528.179 612.509 527.247 618.534 527.571C621.853 527.751 625.151 528.427 628.27 529.579C633.627 531.56 638.145 534.391 641.822 538.047C644.932 541.146 647.435 544.843 649.338 549.138C651.265 553.485 652.317 558.212 652.393 562.97C652.477 568.303 651.513 573.216 649.519 577.723ZM901.99 558.39C897.823 567.823 892.247 576.002 885.289 582.935C877.16 591.034 867.131 597.256 855.204 601.566C848.863 603.859 842.2 605.23 835.47 605.643C822.126 606.462 809.919 604.447 798.861 599.584C789.394 595.423 781.043 589.876 773.812 582.935C766.569 576 760.861 567.823 756.686 558.39C752.519 548.956 750.428 538.702 750.428 527.599C750.428 516.497 752.519 506.93 756.686 497.224C760.87 487.519 766.569 479.196 773.812 472.255C781.045 465.321 789.394 459.774 798.861 455.615C809.938 450.743 822.169 448.73 835.544 449.561C842.265 449.978 848.919 451.355 855.252 453.65C867.157 457.965 877.169 464.167 885.287 472.255C892.245 479.188 897.821 487.51 901.988 497.224C906.172 506.93 908.245 517.053 908.245 527.599C908.245 538.702 906.174 548.965 901.99 558.39Z" fill="#A91F26"/>
<path d="M805.909 499.366V554.842C805.918 556.241 806.289 557.614 806.985 558.823C807.682 560.032 808.679 561.035 809.878 561.733C811.077 562.431 812.436 562.8 813.82 562.802C815.203 562.804 816.563 562.44 817.765 561.745L841.672 547.855L865.58 533.993C866.783 533.304 867.785 532.305 868.482 531.098C869.178 529.89 869.546 528.517 869.546 527.118C869.546 525.72 869.178 524.347 868.482 523.139C867.785 521.931 866.783 520.932 865.58 520.244L841.672 506.354L817.765 492.492C816.567 491.789 815.208 491.418 813.823 491.414C812.438 491.411 811.077 491.775 809.876 492.472C808.675 493.168 807.676 494.172 806.98 495.382C806.284 496.592 805.914 497.966 805.909 499.366" fill="#A91F26"/>
<path d="M330.645 391C324.015 391 318.096 395.172 315.852 401.43L282.077 495.62C281.137 497.633 280.202 498.638 279.266 498.638C278.063 498.638 277.126 497.631 276.46 495.62L242.557 401.082C240.389 395.034 234.668 391 228.26 391H64V394.91C64 408.308 74.8294 419.168 88.1893 419.168H116.162V531.834H152.273V419.168H211.766L250.177 514.535C255.258 527.141 264.953 533.444 279.266 533.444C287.558 533.444 293.844 531.769 298.125 528.414C302.404 525.064 305.749 520.436 308.154 514.535L358.111 391H330.643H330.645Z" fill="#A91F26"/>
</g>
<path d="M815.256 378.454C748.901 378.454 693.676 426.049 681.872 488.937C679.956 486.42 677.916 483.999 675.75 481.669C667.412 472.689 657.594 465.373 646.294 459.737C635.002 454.09 622.805 450.757 609.715 449.729L644.76 377H573.145L512.696 503.609C511.305 506.393 510.026 509.23 508.865 512.111C506.337 506.694 503.277 501.483 499.677 496.491C489.024 481.74 475.612 470.641 459.434 463.204L501.016 377H373.238L348.543 441.652H398.214L361.636 518.227H417.471C422.35 518.227 426.899 519.123 431.139 520.922C435.38 522.72 439.096 525.15 442.306 528.235C445.517 531.312 448.142 534.963 450.2 539.202C452.249 543.439 453.411 547.863 453.668 552.482C453.411 557.101 452.258 561.462 450.2 565.566C448.151 569.671 445.517 573.262 442.306 576.347C439.094 579.423 435.369 581.862 431.139 583.66C426.899 585.45 422.35 586.355 417.471 586.355C401.044 586.355 387.439 578.785 376.661 563.653L371.659 557.129L368.581 560.188L332 594.822C342.014 612.526 354.531 626.311 369.536 636.187C384.553 646.062 400.537 651 417.478 651C429.282 651 440.574 649.015 451.36 645.034C462.147 641.053 471.894 635.603 480.623 628.678C489.352 621.755 496.73 613.474 502.761 603.856C505.423 599.611 507.728 595.187 509.715 590.622C514.611 601.463 521.041 611.144 529.069 619.637C537.673 628.741 547.739 636.056 559.298 641.569C570.848 647.084 583.291 650.23 596.649 651H607.427C620.519 650.23 632.839 647.091 644.387 641.569C655.935 636.054 666.012 628.741 674.616 619.637C683.211 610.534 690.014 600.073 695.024 588.273C695.947 586.084 696.763 583.858 697.518 581.614C720.944 622.341 764.901 649.768 815.273 649.768C890.232 649.768 951 589.034 951 514.116C951 439.198 890.217 378.454 815.256 378.454ZM635.322 564.406C633.395 568.766 630.833 572.552 627.621 575.752C623.953 579.419 619.451 582.239 614.115 584.231C611.013 585.389 607.735 586.073 604.431 586.259C598.359 586.602 592.809 585.669 587.769 583.448C583.405 581.523 579.555 578.952 576.221 575.752C572.886 572.552 570.25 568.766 568.326 564.406C566.487 560.236 565.531 555.717 565.449 550.842C565.365 545.802 566.344 540.756 568.326 536.126C570.252 531.631 572.886 527.784 576.221 524.584C579.555 521.375 583.405 518.813 587.769 516.889C592.779 514.68 598.288 513.745 604.316 514.071C607.638 514.251 610.938 514.93 614.059 516.086C619.419 518.073 623.94 520.915 627.619 524.584C630.732 527.695 633.236 531.405 635.14 535.716C637.069 540.079 638.121 544.824 638.197 549.599C638.281 554.951 637.317 559.882 635.322 564.406ZM887.952 545.001C883.783 554.469 878.203 562.679 871.24 569.636C863.107 577.766 853.071 584.009 841.137 588.336C834.791 590.637 828.124 592.013 821.39 592.427C808.037 593.249 795.822 591.227 784.758 586.346C775.284 582.17 766.929 576.603 759.692 569.636C752.445 562.677 746.734 554.469 742.556 545.001C738.386 535.534 736.294 525.241 736.294 514.099C736.294 502.956 738.386 493.354 742.556 483.613C746.742 473.871 752.445 465.519 759.692 458.552C766.931 451.593 775.284 446.026 784.758 441.851C795.842 436.961 808.08 434.941 821.464 435.775C828.189 436.193 834.847 437.575 841.184 439.879C853.097 444.21 863.115 450.434 871.238 458.552C878.201 465.51 883.781 473.863 887.95 483.613C892.136 493.354 894.211 503.514 894.211 514.099C894.211 525.241 892.138 535.542 887.952 545.001Z" fill="white"/>
<path d="M792 484.909V540.084C792.009 541.475 792.382 542.84 793.082 544.042C793.783 545.245 794.786 546.243 795.992 546.937C797.197 547.632 798.564 547.998 799.956 548C801.347 548.002 802.715 547.64 803.923 546.949L827.967 533.134L852.011 519.347C853.222 518.663 854.229 517.669 854.93 516.468C855.631 515.267 856 513.901 856 512.51C856 511.12 855.631 509.754 854.93 508.553C854.229 507.351 853.222 506.358 852.011 505.673L827.967 491.858L803.923 478.072C802.719 477.373 801.352 477.003 799.959 477C798.567 476.997 797.198 477.359 795.99 478.052C794.782 478.745 793.777 479.743 793.077 480.946C792.377 482.15 792.005 483.516 792 484.909" fill="white"/>
<path d="M316.545 377C309.917 377 304 381.188 301.757 387.471L267.995 482.028C267.055 484.049 266.12 485.058 265.185 485.058C263.983 485.058 263.045 484.047 262.379 482.028L228.49 387.121C226.322 381.049 220.604 377 214.198 377H50V380.926C50 394.376 60.8253 405.278 74.1802 405.278H102.142V518.383H138.24V405.278H197.71L236.107 501.016C241.186 513.672 250.878 520 265.185 520C273.474 520 279.757 518.318 284.036 514.95C288.314 511.587 291.658 506.941 294.062 501.016L344 377H316.542H316.545Z" fill="white"/>
<defs>
<linearGradient id="paint0_linear_306_1588" x1="512" y1="30.9333" x2="512" y2="1079.47" gradientUnits="userSpaceOnUse">
<stop stop-color="#EC2F26"/>
<stop offset="0.51" stop-color="#E72432"/>
<stop offset="1" stop-color="#B82032"/>
</linearGradient>
<clipPath id="clip0_306_1588">
<rect width="901" height="273" fill="white" transform="translate(64 391)"/>
</clipPath>
</defs>
</svg>
