<svg viewBox="0 0 1024 1024" fill="none" xmlns="http://www.w3.org/2000/svg">
<rect width="1024" height="1024" rx="275" fill="url(#paint0_linear_308_89)"/>
<path d="M770.427 363.509C710.482 363.509 660.59 406.256 649.926 462.739C648.196 460.479 646.352 458.305 644.396 456.212C636.863 448.147 627.993 441.576 617.784 436.514C607.584 431.442 596.565 428.449 584.739 427.525L616.399 362.203H551.701L497.09 475.918C495.834 478.418 494.678 480.966 493.63 483.554C491.346 478.688 488.581 474.008 485.329 469.524C475.705 456.276 463.589 446.307 448.973 439.628L486.537 362.203H371.1L348.791 420.271H393.665L360.619 489.047H411.061C415.469 489.047 419.579 489.852 423.409 491.467C427.24 493.083 430.598 495.265 433.497 498.036C436.399 500.799 438.77 504.078 440.629 507.886C442.48 511.691 443.53 515.664 443.762 519.813C443.53 523.961 442.488 527.878 440.629 531.565C438.778 535.251 436.399 538.476 433.497 541.247C430.596 544.01 427.231 546.2 423.409 547.816C419.579 549.423 415.469 550.236 411.061 550.236C396.221 550.236 383.93 543.437 374.193 529.846L369.674 523.987L366.893 526.734L333.846 557.841C342.893 573.741 354.2 586.122 367.757 594.992C381.322 603.862 395.763 608.297 411.067 608.297C421.732 608.297 431.932 606.514 441.677 602.939C451.422 599.363 460.228 594.468 468.113 588.248C475.999 582.031 482.665 574.593 488.113 565.955C490.518 562.142 492.601 558.168 494.396 554.069C498.819 563.806 504.627 572.5 511.88 580.129C519.653 588.305 528.747 594.875 539.189 599.827C549.624 604.78 560.865 607.605 572.932 608.297H582.669C594.497 607.605 605.627 604.786 616.06 599.827C626.493 594.873 635.596 588.305 643.369 580.129C651.134 571.953 657.28 562.557 661.806 551.958C662.64 549.992 663.377 547.993 664.059 545.978C685.222 582.557 724.934 607.19 770.441 607.19C838.159 607.19 893.058 552.642 893.058 485.355C893.058 418.067 838.146 363.509 770.427 363.509ZM607.872 530.522C606.132 534.439 603.817 537.839 600.916 540.713C597.601 544.006 593.535 546.539 588.714 548.328C585.912 549.369 582.95 549.982 579.965 550.15C574.48 550.458 569.466 549.62 564.912 547.625C560.97 545.896 557.492 543.587 554.48 540.713C551.467 537.839 549.086 534.439 547.348 530.522C545.686 526.777 544.822 522.718 544.748 518.34C544.672 513.813 545.557 509.281 547.348 505.123C549.088 501.085 551.467 497.63 554.48 494.756C557.492 491.874 560.97 489.573 564.912 487.845C569.439 485.861 574.415 485.021 579.862 485.314C582.862 485.475 585.844 486.085 588.663 487.124C593.505 488.909 597.59 491.461 600.914 494.756C603.726 497.551 605.988 500.883 607.708 504.754C609.45 508.673 610.401 512.934 610.47 517.223C610.546 522.03 609.673 526.459 607.87 530.522H607.872ZM836.101 513.094C832.335 521.598 827.294 528.971 821.004 535.22C813.656 542.521 804.589 548.129 793.808 552.015C788.075 554.082 782.052 555.318 775.969 555.69C763.905 556.428 752.871 554.612 742.874 550.228C734.316 546.477 726.768 541.477 720.23 535.22C713.683 528.969 708.523 521.598 704.749 513.094C700.982 504.591 699.092 495.347 699.092 485.339C699.092 475.331 700.982 466.707 704.749 457.958C708.531 449.209 713.683 441.707 720.23 435.45C726.77 429.199 734.316 424.199 742.874 420.45C752.888 416.058 763.944 414.244 776.035 414.992C782.111 415.368 788.126 416.609 793.851 418.679C804.613 422.568 813.664 428.158 821.002 435.45C827.292 441.699 832.333 449.201 836.099 457.958C839.882 466.707 841.756 475.832 841.756 485.339C841.756 495.347 839.882 504.599 836.099 513.094H836.101ZM803.391 491.029L781.666 503.498L759.942 515.966C755.143 518.714 749.157 515.275 749.157 509.78V459.906C749.157 454.413 755.143 450.972 759.942 453.72L781.666 466.188L803.391 478.657C808.19 481.405 808.19 488.283 803.391 491.031V491.029Z" fill="#A91F26"/>
<path d="M323.637 362.203C317.692 362.203 312.386 365.933 310.374 371.528L280.093 455.737C279.25 457.536 278.411 458.434 277.573 458.434C276.494 458.434 275.654 457.534 275.057 455.737L244.663 371.217C242.719 365.809 237.59 362.203 231.845 362.203H84.5771V365.699C84.5771 377.677 94.2863 387.386 106.264 387.386H131.343V488.113H163.719V387.386H217.057L251.495 472.646C256.05 483.917 264.743 489.552 277.575 489.552C285.009 489.552 290.644 488.055 294.482 485.055C298.319 482.06 301.318 477.922 303.475 472.646L348.263 362.203H323.637Z" fill="#A91F26"/>
<path d="M755.224 350.306C695.278 350.306 645.387 393.053 634.723 449.536C632.992 447.276 631.149 445.101 629.193 443.008C621.66 434.943 612.79 428.373 602.581 423.31C592.381 418.238 581.361 415.245 569.536 414.322L601.196 349H536.498L481.887 462.714C480.63 465.214 479.475 467.763 478.427 470.351C476.143 465.485 473.378 460.805 470.126 456.321C460.502 443.073 448.386 433.104 433.77 426.424L471.334 349H355.897L333.588 407.067H378.462L345.416 475.844H395.858C400.266 475.844 404.375 476.648 408.206 478.264C412.037 479.879 415.395 482.062 418.294 484.832C421.195 487.595 423.567 490.875 425.426 494.682C427.277 498.488 428.327 502.461 428.559 506.609C428.327 510.758 427.285 514.675 425.426 518.361C423.575 522.048 421.195 525.273 418.294 528.044C415.393 530.807 412.027 532.997 408.206 534.612C404.375 536.22 400.266 537.032 395.858 537.032C381.018 537.032 368.726 530.234 358.99 516.643L354.471 510.783L351.69 513.531L318.643 544.638C327.69 560.538 338.997 572.919 352.553 581.789C366.119 590.659 380.56 595.094 395.864 595.094C406.529 595.094 416.729 593.311 426.474 589.735C436.219 586.16 445.024 581.265 452.91 575.045C460.796 568.827 467.462 561.389 472.91 552.751C475.315 548.938 477.398 544.965 479.192 540.865C483.616 550.602 489.424 559.297 496.677 566.925C504.45 575.101 513.544 581.672 523.986 586.623C534.421 591.577 545.662 594.402 557.729 595.094H567.466C579.294 594.402 590.424 591.582 600.857 586.623C611.289 581.67 620.393 575.101 628.166 566.925C635.931 558.749 642.077 549.353 646.603 538.755C647.437 536.789 648.174 534.79 648.856 532.775C670.019 569.353 709.731 593.987 755.238 593.987C822.956 593.987 877.855 539.439 877.855 472.151C877.855 404.863 822.942 350.306 755.224 350.306ZM592.669 517.319C590.929 521.235 588.614 524.636 585.713 527.51C582.398 530.803 578.331 533.336 573.511 535.125C570.709 536.165 567.747 536.779 564.762 536.947C559.276 537.255 554.263 536.417 549.709 534.421C545.767 532.693 542.289 530.384 539.276 527.51C536.264 524.636 533.883 521.235 532.145 517.319C530.483 513.574 529.619 509.515 529.545 505.136C529.469 500.61 530.354 496.078 532.145 491.919C533.885 487.882 536.264 484.427 539.276 481.553C542.289 478.671 545.767 476.37 549.709 474.641C554.236 472.658 559.212 471.818 564.658 472.11C567.659 472.272 570.64 472.882 573.46 473.92C578.302 475.705 582.386 478.258 585.711 481.553C588.522 484.347 590.785 487.679 592.505 491.551C594.247 495.47 595.198 499.731 595.266 504.02C595.342 508.827 594.469 513.256 592.667 517.319H592.669ZM820.898 499.891C817.132 508.394 812.091 515.768 805.801 522.017C798.453 529.318 789.386 534.926 778.605 538.811C772.872 540.879 766.849 542.114 760.766 542.486C748.702 543.225 737.667 541.409 727.671 537.025C719.113 533.274 711.564 528.274 705.027 522.017C698.48 515.766 693.32 508.394 689.546 499.891C685.779 491.387 683.889 482.143 683.889 472.136C683.889 462.128 685.779 453.503 689.546 444.754C693.328 436.005 698.48 428.503 705.027 422.246C711.566 415.995 719.113 410.995 727.671 407.246C737.685 402.854 748.741 401.04 760.832 401.789C766.907 402.165 772.923 403.406 778.648 405.475C789.409 409.365 798.461 414.955 805.799 422.246C812.089 428.496 817.13 435.997 820.896 444.754C824.678 453.503 826.553 462.628 826.553 472.136C826.553 482.143 824.678 491.395 820.896 499.891H820.898ZM788.188 477.825L766.463 490.294L744.739 502.763C739.939 505.511 733.953 502.071 733.953 496.576V446.703C733.953 441.21 739.939 437.769 744.739 440.516L766.463 452.985L788.188 465.454C792.987 468.201 792.987 475.08 788.188 477.827V477.825Z" fill="#FFFAFA"/>
<path d="M308.435 349C302.49 349 297.183 352.73 295.172 358.325L264.891 442.533C264.048 444.332 263.209 445.231 262.371 445.231C261.292 445.231 260.452 444.331 259.854 442.533L229.461 358.013C227.517 352.606 222.388 349 216.643 349H69.375V352.496C69.375 364.474 79.0841 374.183 91.062 374.183H116.141V474.909H148.517V374.183H201.855L236.293 459.443C240.848 470.714 249.54 476.349 262.372 476.349C269.807 476.349 275.442 474.851 279.28 471.852C283.116 468.856 286.116 464.719 288.272 459.443L333.061 349H308.435Z" fill="white"/>
<path d="M642.073 654.395V707.462C642.073 707.642 642.002 707.814 641.877 707.942C641.751 708.069 641.581 708.14 641.404 708.14L629.518 708.273C629.299 708.273 629.089 708.186 628.934 708.032C628.779 707.877 628.692 707.668 628.692 707.449C628.64 685.623 628.618 663.824 628.627 642.052C628.627 634.709 629.277 629.447 630.579 626.267C636.712 611.333 651.639 612.688 665.19 612.715C665.404 612.718 665.607 612.805 665.756 612.957C665.906 613.108 665.99 613.312 665.99 613.525V624.712C665.99 624.804 665.972 624.894 665.937 624.978C665.901 625.062 665.85 625.138 665.785 625.201C665.72 625.265 665.643 625.314 665.559 625.346C665.475 625.379 665.385 625.394 665.295 625.39C654.929 625.058 640.002 623.251 642.322 639.926C642.35 640.139 642.455 640.334 642.616 640.476C642.777 640.617 642.985 640.696 643.2 640.696L665.295 640.71C665.467 640.71 665.632 640.778 665.754 640.9C665.877 641.021 665.947 641.187 665.951 641.361L666.134 652.482C666.136 652.631 666.109 652.78 666.054 652.918C665.999 653.057 665.919 653.183 665.816 653.289C665.714 653.395 665.592 653.48 665.457 653.537C665.323 653.595 665.179 653.624 665.033 653.624L642.741 653.717C642.564 653.717 642.394 653.789 642.268 653.916C642.143 654.043 642.073 654.215 642.073 654.395ZM604.473 640.683H623.804C623.974 640.683 624.137 640.752 624.258 640.874C624.378 640.996 624.446 641.162 624.446 641.334L624.354 651.671C624.351 652.194 624.143 652.694 623.778 653.063C623.412 653.431 622.917 653.638 622.401 653.638H604.447C604.27 653.638 604.1 653.709 603.975 653.836C603.849 653.963 603.779 654.136 603.779 654.315C603.726 666.061 603.718 677.789 603.753 689.499C603.779 696.82 617.631 695.345 622.113 694.614C622.394 694.568 622.681 694.584 622.954 694.661C623.228 694.739 623.481 694.876 623.697 695.064C623.913 695.251 624.086 695.484 624.204 695.746C624.322 696.008 624.382 696.293 624.38 696.581V707.303C624.38 707.482 624.311 707.654 624.186 707.782C624.061 707.911 623.892 707.987 623.712 707.994C602.114 708.632 590.359 707.25 590.32 682.125C590.293 663.124 590.298 644.129 590.333 625.138C590.333 624.961 590.402 624.792 590.525 624.668C590.647 624.543 590.814 624.473 590.988 624.473L602.599 624.447C602.821 624.447 603.034 624.536 603.193 624.694C603.352 624.853 603.444 625.069 603.451 625.297L603.818 640.032C603.822 640.206 603.892 640.372 604.015 640.493C604.137 640.615 604.302 640.683 604.473 640.683Z" fill="white"/>
<path d="M471.87 708.17L466.794 707.989C466.612 707.983 466.44 707.905 466.313 707.773C466.187 707.641 466.116 707.464 466.116 707.28C466.151 686.614 466.133 672.855 466.065 666.003C465.925 651.032 446.158 649.704 444.815 664.069C444.133 671.453 444.103 685.904 444.726 707.422C444.729 707.534 444.71 707.645 444.67 707.749C444.629 707.853 444.568 707.947 444.491 708.027C444.413 708.107 444.32 708.169 444.218 708.212C444.115 708.254 444.005 708.275 443.895 708.273L432.63 708.067C432.446 708.063 432.27 707.986 432.141 707.851C432.012 707.716 431.94 707.534 431.94 707.345C431.914 694.174 431.901 681.009 431.901 667.847C431.91 662.388 432.49 658.219 433.64 655.339C439.688 640.213 459.468 637.195 471.665 647.331C471.803 647.444 471.974 647.506 472.151 647.506C472.328 647.506 472.5 647.444 472.637 647.331C475.953 644.571 479.64 642.714 483.697 641.76C495.038 639.336 506.865 644.7 510.957 655.455C512.175 658.636 512.785 664.666 512.785 673.547C512.793 684.8 512.785 696.061 512.759 707.332C512.759 707.418 512.743 707.502 512.71 707.582C512.678 707.661 512.631 707.732 512.571 707.792C512.512 707.852 512.441 707.9 512.364 707.931C512.286 707.963 512.203 707.978 512.12 707.977L500.702 707.86C500.622 707.86 500.542 707.844 500.467 707.813C500.393 707.782 500.325 707.737 500.268 707.679C500.211 707.622 500.166 707.553 500.135 707.478C500.104 707.403 500.089 707.323 500.089 707.242C499.995 694.467 499.965 681.701 499.999 668.943C500.008 664.713 499.483 661.589 498.426 659.568C494.897 652.798 485.564 652.373 481.089 658.382C478.493 661.877 478.698 665.758 478.659 670.078C478.532 682.483 478.532 694.884 478.659 707.28C478.659 707.446 478.597 707.604 478.484 707.723C478.372 707.841 478.219 707.909 478.058 707.912L471.87 708.17Z" fill="white"/>
<path d="M552.096 708.273C517.178 707.121 504.771 665.015 534.791 645.51C550.493 638.07 564.618 640.229 577.165 651.986C579.171 653.863 580.829 656.525 582.141 659.972C582.21 660.15 582.217 660.347 582.158 660.531C582.1 660.715 581.98 660.874 581.819 660.983L539.458 689.536C539.277 689.657 539.129 689.819 539.024 690.009C538.919 690.199 538.861 690.411 538.855 690.628C538.849 690.845 538.894 691.062 538.988 691.259C539.082 691.456 539.221 691.629 539.393 691.763C544.845 696.025 552.738 696.934 559.269 694.336C568.397 690.727 572.918 683.393 572.833 672.335C572.833 672.183 572.894 672.036 573.002 671.928C573.111 671.82 573.258 671.759 573.411 671.759L585.085 671.811C585.259 671.81 585.427 671.877 585.553 671.996C585.68 672.115 585.756 672.277 585.766 672.451C587.103 692.544 572.254 708.312 552.096 708.273ZM562.895 657.157C545.963 648.761 529.687 659.102 531.345 678.043C531.354 678.156 531.393 678.265 531.458 678.358C531.523 678.452 531.611 678.526 531.715 678.575C531.819 678.624 531.934 678.646 532.05 678.638C532.165 678.63 532.277 678.593 532.374 678.53L562.933 657.822C562.989 657.782 563.033 657.729 563.063 657.668C563.092 657.606 563.105 657.539 563.102 657.472C563.098 657.406 563.077 657.341 563.04 657.286C563.004 657.231 562.954 657.186 562.895 657.157ZM745.21 665.667C746.916 652.28 754.325 644.153 767.438 641.287C783.106 640.544 793.083 646.457 797.368 659.025C798.602 662.626 799.228 668.039 799.245 675.266C799.271 685.71 799.271 696.17 799.245 706.648C799.245 706.789 799.216 706.93 799.16 707.06C799.105 707.191 799.023 707.309 798.92 707.408C798.817 707.507 798.695 707.585 798.561 707.637C798.427 707.689 798.283 707.713 798.139 707.71L786.967 707.454C786.786 707.451 786.609 707.392 786.46 707.285C786.31 707.177 786.196 707.027 786.132 706.853C785.926 706.272 785.947 705.684 786.196 705.086C786.359 704.702 786.436 704.297 786.427 703.871C786.222 693.521 786.114 683.167 786.106 672.809C786.106 667.502 785.51 663.709 784.319 661.431C778.071 649.439 762.707 652.14 758.722 664.388C758.311 665.667 758.071 668.044 758.002 671.516C757.771 683.274 757.736 695.035 757.899 706.801C757.899 706.9 757.879 706.998 757.841 707.088C757.803 707.179 757.747 707.262 757.676 707.331C757.606 707.4 757.522 707.454 757.43 707.491C757.338 707.527 757.24 707.545 757.141 707.544L745.634 707.313C745.483 707.31 745.339 707.248 745.233 707.14C745.128 707.032 745.069 706.888 745.069 706.737L745.21 665.667Z" fill="white"/>
<path d="M823.828 705.59C795.11 690.768 799.008 651.217 829.528 641.953C844.686 638.904 861.646 644.951 868.266 659.696C868.38 659.948 868.401 660.232 868.326 660.498C868.251 660.764 868.085 660.995 867.857 661.15L825.106 690.343C825.043 690.386 824.991 690.442 824.953 690.509C824.916 690.575 824.894 690.65 824.891 690.726C824.887 690.802 824.901 690.878 824.932 690.948C824.962 691.018 825.009 691.08 825.068 691.128C840.175 703.596 859.639 691.192 858.911 672.614C858.907 672.51 858.925 672.407 858.962 672.31C858.999 672.214 859.055 672.125 859.126 672.051C859.198 671.977 859.284 671.917 859.378 671.877C859.473 671.837 859.575 671.816 859.678 671.816H870.886C871.064 671.815 871.236 671.883 871.366 672.005C871.497 672.126 871.576 672.293 871.589 672.472C873.8 699.761 848.392 714.725 823.828 705.59ZM843.293 654.781C828.084 651.217 815.367 662.925 818.026 678.326C818.04 678.404 818.073 678.477 818.122 678.538C818.171 678.6 818.235 678.648 818.307 678.678C818.379 678.709 818.458 678.721 818.536 678.714C818.614 678.706 818.689 678.679 818.754 678.635L848.789 658.049C848.858 658.001 848.915 657.938 848.955 657.863C848.994 657.789 849.016 657.706 849.017 657.621C849.018 657.537 848.999 657.453 848.962 657.378C848.924 657.302 848.869 657.237 848.801 657.187C847.353 656.106 845.517 655.304 843.293 654.781Z" fill="white"/>
<path d="M702.565 635.529C723.929 635.529 741.251 652.843 741.251 674.205C741.251 695.567 723.929 712.885 702.565 712.885C681.202 712.885 663.88 695.567 663.88 674.205C663.88 652.843 681.199 635.529 702.565 635.529Z" fill="white"/>
<path d="M680.718 674.445C700.108 685.567 729.329 675.905 737.286 672.917C736.604 654.318 721.326 639.442 702.55 639.442C686.162 639.442 672.432 650.79 668.772 666.042C705.71 652.321 724.418 673.952 724.418 673.952C704.993 662.836 675.728 672.536 667.817 675.507C668.51 694.101 683.796 708.966 702.548 708.966C718.939 708.966 732.669 697.643 736.353 682.382C699.412 696.074 680.716 674.445 680.716 674.445H680.718Z" fill="url(#paint1_linear_308_89)"/>
<path d="M730.141 663.697C730.141 675.467 717.786 685.008 702.555 685.008C687.323 685.008 674.981 675.467 674.981 663.697C674.981 651.926 687.326 642.393 702.555 642.393C717.783 642.393 730.141 651.929 730.141 663.697Z" fill="url(#paint2_linear_308_89)"/>
<path d="M736.356 682.38C736.219 682.437 736.105 682.467 735.979 682.502C731.851 696.693 718.464 707.099 702.55 707.099C684.129 707.099 669.059 693.146 667.886 675.488C667.864 675.488 667.839 675.498 667.817 675.504C668.51 694.098 683.796 708.963 702.548 708.963C719.61 708.963 733.783 696.69 736.74 680.491C736.626 681.133 736.489 681.763 736.353 682.38H736.356Z" fill="url(#paint3_linear_308_89)"/>
<path d="M724.426 673.949C724.426 673.949 705.716 652.316 668.778 666.037C668.142 668.651 667.79 671.39 667.79 674.203C667.79 674.64 667.812 675.073 667.823 675.502C675.733 672.53 704.998 662.831 724.423 673.947L724.426 673.949Z" fill="white"/>
<path d="M737.286 672.914C729.33 675.901 700.109 685.563 680.719 674.441C680.719 674.441 699.413 696.07 736.356 682.378C736.978 679.748 737.344 677.072 737.344 674.267C737.344 673.825 737.308 673.336 737.286 672.914Z" fill="white"/>
<path d="M737.286 672.914C734.748 673.869 730.022 675.497 724.18 676.913C719.121 681.86 711.323 685.006 702.547 685.006C700.981 685.006 699.47 684.905 697.969 684.703C707.153 687.56 719.937 688.466 736.353 682.378C736.975 679.748 737.341 677.072 737.341 674.267C737.341 673.825 737.305 673.336 737.283 672.914H737.286Z" fill="white"/>
<path d="M416.545 666.327L391.593 721.679H382.197L388.593 708.019L369.958 666.327H379.512L392.936 698.464L407.148 666.327H416.545Z" fill="white"/>
<path d="M351.992 708.179H337.384C332.646 708.179 330.277 705.81 330.277 701.073V652.906H339.516V666.33H351.992C358.361 666.33 362.809 668.093 365.336 671.62C367.863 675.147 369.126 680.332 369.126 687.175C369.126 694.019 367.836 699.23 365.257 702.81C362.73 706.389 358.308 708.179 351.992 708.179ZM339.516 673.436V698.704C339.516 700.283 340.305 701.073 341.885 701.073H349.702C353.755 701.073 356.413 699.914 357.677 697.598C358.94 695.282 359.572 691.808 359.572 687.175C359.572 684.912 359.466 683.069 359.256 681.648C359.045 680.174 358.624 678.753 357.993 677.384C357.361 676.016 356.361 675.015 354.992 674.384C353.623 673.752 351.86 673.436 349.702 673.436H339.516Z" fill="white"/>
<defs>
<linearGradient id="paint0_linear_308_89" x1="512" y1="30.9333" x2="512" y2="1079.47" gradientUnits="userSpaceOnUse">
<stop stop-color="#EC2F26"/>
<stop offset="0.51" stop-color="#E72432"/>
<stop offset="1" stop-color="#B82032"/>
</linearGradient>
<linearGradient id="paint1_linear_308_89" x1="702.54" y1="708.944" x2="702.54" y2="639.423" gradientUnits="userSpaceOnUse">
<stop stop-color="#F16522"/>
<stop offset="0.5" stop-color="#EC1C24"/>
<stop offset="1" stop-color="#A60E13"/>
</linearGradient>
<linearGradient id="paint2_linear_308_89" x1="702.555" y1="642.415" x2="702.555" y2="685.022" gradientUnits="userSpaceOnUse">
<stop stop-color="#F59579"/>
<stop offset="1" stop-color="#E01B22"/>
</linearGradient>
<linearGradient id="paint3_linear_308_89" x1="667.82" y1="692.226" x2="737.354" y2="692.226" gradientUnits="userSpaceOnUse">
<stop stop-color="#F16522"/>
<stop offset="0.5" stop-color="#EC1C24"/>
<stop offset="1" stop-color="#A60E13"/>
</linearGradient>
</defs>
</svg>
