<svg viewBox="0 0 1024 1024" fill="none" xmlns="http://www.w3.org/2000/svg">
<g clip-path="url(#clip0_307_44)">
<path d="M1024 1024H0V0H1024V1024Z" fill="black"/>
<path fill-rule="evenodd" clip-rule="evenodd" d="M974.2 422.7C974.2 499.1 911.9 561 835 561C783.4 561 738.3 533 714.3 491.5C713.5 493.767 712.633 496.033 711.7 498.3C706.567 510.3 699.6 520.967 690.8 530.3C682 539.567 671.667 547 659.8 552.6C647.933 558.2 635.3 561.4 621.9 562.2H610.9C597.167 561.4 584.4 558.2 572.6 552.6C560.733 547 550.4 539.567 541.6 530.3C533.4 521.6 526.8 511.7 521.7 500.7C519.7 505.367 517.333 509.867 514.6 514.2C508.4 524 500.833 532.433 491.9 539.5C482.967 546.567 472.967 552.1 461.9 556.1C450.833 560.167 439.267 562.2 427.2 562.2C409.8 562.2 393.4 557.167 378 547.1C362.6 537.033 349.767 523 339.5 505L377 469.7L380.2 466.5L385.3 473.2C396.367 488.6 410.333 496.3 427.2 496.3C432.2 496.3 436.867 495.4 441.2 493.6C445.533 491.733 449.333 489.233 452.6 486.1C455.933 482.967 458.633 479.3 460.7 475.1C462.833 470.967 464.033 466.533 464.3 461.8C464.033 457.067 462.833 452.567 460.7 448.3C458.633 443.967 455.933 440.233 452.6 437.1C449.333 433.967 445.533 431.467 441.2 429.6C436.867 427.8 432.2 426.9 427.2 426.9H369.9L407.4 348.8H356.5L381.8 282.9H512.8L470.2 370.8C486.8 378.4 500.533 389.7 511.4 404.7C515.133 409.833 518.3 415.167 520.9 420.7C522.1 417.7 523.4 414.8 524.8 412L586.8 282.9H660.2L624.3 357.1C637.7 358.1 650.2 361.5 661.8 367.3C673.333 373.033 683.4 380.467 692 389.6C694.2 392 696.267 394.467 698.2 397C710.3 332.9 767 284.4 835 284.4C911.8 284.4 974.2 346.3 974.2 422.7ZM653.5 458.9C653.4 454 652.3 449.2 650.3 444.7C648.367 440.3 645.8 436.533 642.6 433.4C638.867 429.667 634.233 426.767 628.7 424.7C625.5 423.5 622.1 422.8 618.7 422.7C612.567 422.367 606.933 423.3 601.8 425.5C597.333 427.5 593.367 430.133 589.9 433.4C586.5 436.667 583.8 440.567 581.8 445.1C579.8 449.9 578.8 455 578.9 460.1C578.967 465.1 579.933 469.733 581.8 474C583.8 478.4 586.5 482.233 589.9 485.5C593.367 488.767 597.333 491.4 601.8 493.4C606.933 495.667 612.6 496.6 618.8 496.2C622.2 496 625.6 495.3 628.8 494.2C634.267 492.133 638.867 489.233 642.6 485.5C645.933 482.233 648.567 478.4 650.5 474C652.567 469.333 653.567 464.3 653.5 458.9ZM915.9 422.7C915.967 411.9 913.833 401.533 909.5 391.6C905.233 381.667 899.533 373.167 892.4 366.1C884.067 357.767 873.8 351.4 861.6 347C855.1 344.7 848.3 343.3 841.4 342.8C827.667 342 815.1 344.067 803.7 349C794.033 353.267 785.467 358.967 778 366.1C770.6 373.167 764.767 381.667 760.5 391.6C756.167 401.533 754 411.9 754 422.7C754 434.033 756.167 444.533 760.5 454.2C764.767 463.867 770.6 472.233 778 479.3C785.467 486.367 794.033 492.033 803.7 496.3C815.033 501.3 827.567 503.367 841.3 502.5C848.2 502.1 855 500.7 861.5 498.3C873.767 493.9 884.067 487.567 892.4 479.3C899.533 472.233 905.233 463.867 909.5 454.2C913.833 444.533 915.967 434.033 915.9 422.7ZM872.4 429.1L847.7 443.3L823.1 457.4C817.6 460.6 810.9 456.7 810.9 450.4V393.8C810.9 387.6 817.6 383.7 823.1 386.8L872.4 415.1C877.8 418.2 877.8 426 872.4 429.1Z" fill="url(#paint0_linear_307_44)"/>
<path d="M323.4 282.9C316.6 282.9 310.5 287.2 308.2 293.6L273.6 390C272.6 392.067 271.633 393.1 270.7 393.1C269.433 393.1 268.466 392.067 267.8 390L233 293.3C230.8 287.1 224.9 282.9 218.4 282.9H193.9H189.8H49.7998V286.9C49.7998 300.6 60.8998 311.8 74.6998 311.8H103.4V427H140.4V311.8H201.4L240.8 409.3C246.066 422.233 256.033 428.7 270.7 428.7C279.166 428.7 285.6 426.967 290 423.5C294.4 420.1 297.833 415.367 300.3 409.3L351.6 282.9H323.4Z" fill="white"/>
<path d="M495.2 680C502.9 673.8 504.3 662.2 497.6 654.5C494.2 650.2 488.9 647.8 483.6 647.8H466.8C463 647.8 458.6 649.2 455.7 651.6C451.4 655 449 660.3 449 665.6V690.6C449 690.6 452.9 684.3 463 683.4H466.3C466.767 683.4 467.267 683.4 467.8 683.4H482.7C487 684.3 491.3 682.9 495.2 680Z" fill="white"/>
<path d="M500.5 725.7C509.1 718.9 510.1 706.4 503.3 697.8C499.5 693 493.7 690.6 488 690.6H469.2C464.9 690.6 460.6 692 456.7 694.9C451.9 698.8 449.5 704.5 449.5 710.3V737.7C449.5 737.7 453.8 730.5 464.9 730H468.7C469.233 730 469.733 730 470.2 730H487C491.3 730.5 496.1 729 500.5 725.7Z" fill="white"/>
<path fill-rule="evenodd" clip-rule="evenodd" d="M521.6 662.7C521.6 661.3 522.6 659.8 524.5 659.8H534.6C536 659.8 537.5 660.8 537.5 662.7V678.1C541.3 677.1 544.7 675.7 550.5 675.7C564.9 675.7 574.5 684.3 574.5 701.2C574.5 718 564.9 726.6 546.1 726.6C537.5 726.6 526.9 724.2 522.1 721.8V662.7H521.6ZM537 714.6C538.9 715.1 542.8 715.6 546.6 715.6C555.3 715.6 558.1 711.3 558.1 701.2C558.1 691.1 555.3 686.3 547.1 686.3C544.7 686.3 541.3 686.7 537.5 688.2V714.6H537Z" fill="white"/>
<path d="M581.699 665.1C581.699 661.7 583.599 659.8 586.999 659.8H592.799C596.099 659.8 597.599 661.7 597.599 665.1V668.5C597.599 671.8 595.699 673.8 592.799 673.8H586.999C583.599 673.8 581.699 671.8 581.699 668.5V665.1ZM584.599 726.1C583.199 726.1 581.699 725.2 581.699 723.2V680.9C581.699 679.5 582.699 678 584.599 678H594.699C596.099 678 597.599 679 597.599 680.9V723.2C597.599 724.7 596.599 726.1 594.699 726.1H584.599Z" fill="white"/>
<path d="M624.5 726.2C611.5 726.2 605.3 719.9 605.3 706V662.2C605.3 660.8 606.2 659.3 608.2 659.3H618.3C619.7 659.3 621.1 660.3 621.1 662.2V678.1H634.1C635.6 678.1 637 679 637 681V687.2C637 688.7 636 690.1 634.1 690.1H621.1V706C621.1 712.2 624.5 715.6 628.8 715.6C631.2 715.6 633.2 715.1 635.1 715.1H636.5C638 715.1 639.4 716.1 639.4 718V722.8C639.4 724.267 638.433 725.233 636.5 725.7C633.6 726.2 628.8 726.2 624.5 726.2Z" fill="white"/>
<path fill-rule="evenodd" clip-rule="evenodd" d="M657.7 706C657.7 705.8 657.7 705.634 657.7 705.5V706ZM668.7 716.1C672.6 716.1 675.9 715.1 677.4 713.2C678.3 711.8 680.3 710.8 682.2 710.8H688.9C690.4 710.8 691.8 711.8 691.8 713.7C691.8 723.3 682.2 726.7 668.3 726.7C652.4 726.7 642.8 718 642.8 701.2C642.8 684.8 652.4 675.7 668.3 675.7C684.1 675.7 693.7 684.3 693.7 700.7V703.1C693.7 704.5 692.8 706 690.8 706H657.7C658.3 712.9 661.7 716.1 668.7 716.1ZM657.7 695.9H677.9C677.4 689.2 674.5 685.3 667.8 685.3C661 685.8 657.7 689.2 657.7 695.9Z" fill="white"/>
<path d="M703.3 726.2C701.9 726.2 700.5 725.2 700.5 723.3V662.2C700.5 660.8 701.4 659.3 703.3 659.3H713.4C714.9 659.3 716.3 660.3 716.3 662.2V723.3C716.3 724.7 714.9 726.2 713.4 726.2H703.3Z" fill="white"/>
<path fill-rule="evenodd" clip-rule="evenodd" d="M307.7 665.1C307.7 664.1 308.2 663.7 308.6 663.2C309.1 662.7 309.6 662.2 310.6 662.2H320.2C321.1 662.2 321.6 662.7 322.1 663.2C322.6 663.7 323.1 664.1 323.1 665.1V678.6C327.9 677.1 332.2 676.2 335.6 676.2C342.8 676.2 348.1 678.1 352.4 682.4C356.7 686.7 358.6 693 358.6 700.7C358.6 717.034 349.467 725.2 331.2 725.2C326.867 725.2 322.534 724.734 318.2 723.8C313.9 722.8 310.1 721.8 308.2 720.4V665.1H307.7ZM323 688.7V714.1C325.4 714.6 328.8 715.1 332.2 715.1C336.5 715.1 339.4 714.1 340.8 711.7C342.7 709.3 343.2 706 343.2 700.7C343.2 695.9 342.3 692 340.8 689.6C339.4 687.2 336.5 686.3 332.2 686.3C329.8 686.7 326.4 687.2 323 688.7Z" fill="white"/>
<path d="M359.101 680V679.5C359.101 679 359.101 678.6 359.601 678.6C360.101 678.1 360.601 677.6 361.501 677.6H370.201C371.101 677.6 371.601 678.1 372.601 678.6C373.501 679 374.001 680 374.001 680.5L379.801 698.8C381.201 703.1 382.701 706.4 384.101 708.4C385.601 710.3 387.501 710.8 389.401 710.8L398.101 680C398.101 679 398.501 678.6 399.501 678.1C400.001 677.6 400.901 677.1 401.901 677.1H411.001C412.001 677.1 412.501 677.6 413.001 678.1C413.401 678.6 413.401 679 413.401 679.5V680L401.901 720.9C400.001 728.1 397.601 733.4 394.201 736.3C391.301 739.1 387.001 741.1 382.201 741.1C377.901 741.1 374.001 740.6 370.701 740.1C369.701 740.1 369.201 739.6 368.701 739.1C368.201 738.7 367.801 738.2 367.801 737.2V732.4C367.801 731.4 368.201 731 368.701 730.5C369.201 730 369.701 729.5 370.701 729.5H372.101C372.601 729.5 373.501 729.5 375.001 730C376.401 730 377.401 730.5 377.901 730.5C382.201 730.5 384.601 727.6 386.501 721.8C381.701 721.8 377.401 720.4 374.001 717.5C370.667 714.633 367.801 709.333 365.401 701.6L359.101 680Z" fill="white"/>
<path d="M872.399 429.1L847.699 443.3L823.099 457.4C817.599 460.6 810.899 456.7 810.899 450.4V422.1V393.8C810.899 387.6 817.599 383.7 823.099 386.8L847.699 400.9L872.399 415.1C877.799 418.2 877.799 426 872.399 429.1Z" fill="white"/>
</g>
<defs>
<linearGradient id="paint0_linear_307_44" x1="718.3" y1="268.332" x2="718.3" y2="567.232" gradientUnits="userSpaceOnUse">
<stop stop-color="#EB2D24"/>
<stop offset="0.506" stop-color="#E72231"/>
<stop offset="1" stop-color="#B62032"/>
</linearGradient>
<clipPath id="clip0_307_44">
<rect width="1024" height="1024" rx="275" fill="white"/>
</clipPath>
</defs>
</svg>
