<svg viewBox="0 0 345 238" fill="none" xmlns="http://www.w3.org/2000/svg">
<path d="M25.7897 86.6375C25.7897 83.2689 25.7901 80.7726 25.9515 78.7966C26.1125 76.8265 26.431 75.4178 27.0431 74.2166C28.1456 72.0527 29.9049 70.2935 32.0688 69.1909C33.27 68.5789 34.6787 68.2603 36.6488 68.0993C38.6248 67.9379 41.1211 67.9375 44.4897 67.9375H48.2384C51.607 67.9375 54.1034 67.9379 56.0793 68.0993C58.0494 68.2603 59.4581 68.5789 60.6593 69.1909C62.8232 70.2935 64.5825 72.0527 65.685 74.2166C66.2971 75.4178 66.6156 76.8265 66.7766 78.7966C66.938 80.7726 66.9384 83.2689 66.9384 86.6375V90.3863C66.9384 93.7548 66.938 96.2512 66.7766 98.2271C66.6156 100.197 66.2971 101.606 65.685 102.807C64.5825 104.971 62.8232 106.73 60.6593 107.833C59.4581 108.445 58.0494 108.763 56.0793 108.924C54.1034 109.086 51.607 109.086 48.2384 109.086H44.4897C41.1211 109.086 38.6248 109.086 36.6488 108.924C34.6787 108.763 33.27 108.445 32.0688 107.833C29.9049 106.73 28.1456 104.971 27.0431 102.807C26.431 101.606 26.1125 100.197 25.9515 98.2271C25.7901 96.2512 25.7897 93.7548 25.7897 90.3863V86.6375Z" stroke="#4D4D4D"/>
<path d="M48.7214 88.3629H43.6305V89.6129H48.7214V88.3629Z" fill="white" fill-opacity="0.87"/>
<path d="M76.368 86.6375C76.368 83.2689 76.3683 80.7726 76.5298 78.7966C76.6907 76.8265 77.0093 75.4178 77.6214 74.2166C78.7239 72.0527 80.4832 70.2935 82.6471 69.1909C83.8483 68.5789 85.257 68.2603 87.2271 68.0993C89.203 67.9379 91.6994 67.9375 95.0679 67.9375H98.8167C102.185 67.9375 104.682 67.9379 106.658 68.0993C108.628 68.2603 110.036 68.5789 111.238 69.1909C113.401 70.2935 115.161 72.0527 116.263 74.2166C116.875 75.4178 117.194 76.8265 117.355 78.7966C117.516 80.7726 117.517 83.2689 117.517 86.6375V90.3863C117.517 93.7548 117.516 96.2512 117.355 98.2271C117.194 100.197 116.875 101.606 116.263 102.807C115.161 104.971 113.401 106.73 111.238 107.833C110.036 108.445 108.628 108.763 106.658 108.924C104.682 109.086 102.185 109.086 98.8167 109.086H95.0679C91.6994 109.086 89.203 109.086 87.2271 108.924C85.257 108.763 83.8483 108.445 82.6471 107.833C80.4832 106.73 78.7239 104.971 77.6214 102.807C77.0093 101.606 76.6907 100.197 76.5298 98.2271C76.3683 96.2512 76.368 93.7548 76.368 90.3863V86.6375Z" stroke="#4D4D4D"/>
<path d="M99.3005 88.3629H94.2096V89.6129H99.3005V88.3629Z" fill="white" fill-opacity="0.87"/>
<path d="M126.947 86.6375C126.947 83.2689 126.948 80.7726 127.109 78.7966C127.27 76.8265 127.589 75.4178 128.201 74.2166C129.303 72.0527 131.062 70.2935 133.226 69.1909C134.428 68.5789 135.836 68.2603 137.806 68.0993C139.782 67.9379 142.279 67.9375 145.647 67.9375H149.396C152.765 67.9375 155.261 67.9379 157.237 68.0993C159.207 68.2603 160.616 68.5789 161.817 69.1909C163.981 70.2935 165.74 72.0527 166.843 74.2166C167.455 75.4178 167.773 76.8265 167.934 78.7966C168.096 80.7726 168.096 83.2689 168.096 86.6375V90.3863C168.096 93.7548 168.096 96.2512 167.934 98.2271C167.773 100.197 167.455 101.606 166.843 102.807C165.74 104.971 163.981 106.73 161.817 107.833C160.616 108.445 159.207 108.763 157.237 108.924C155.261 109.086 152.765 109.086 149.396 109.086H145.647C142.279 109.086 139.782 109.086 137.806 108.924C135.836 108.763 134.428 108.445 133.226 107.833C131.062 106.73 129.303 104.971 128.201 102.807C127.589 101.606 127.27 100.197 127.109 98.2271C126.948 96.2512 126.947 93.7548 126.947 90.3863V86.6375Z" stroke="#4D4D4D"/>
<path d="M149.878 88.3629H144.787V89.6129H149.878V88.3629Z" fill="white" fill-opacity="0.87"/>
<path d="M177.525 86.6375C177.525 83.2689 177.526 80.7726 177.687 78.7966C177.848 76.8265 178.167 75.4178 178.779 74.2166C179.881 72.0527 181.64 70.2935 183.804 69.1909C185.005 68.5789 186.414 68.2603 188.384 68.0993C190.36 67.9379 192.857 67.9375 196.225 67.9375H199.974C203.342 67.9375 205.839 67.9379 207.815 68.0993C209.785 68.2603 211.194 68.5789 212.395 69.1909C214.559 70.2935 216.318 72.0527 217.42 74.2166C218.033 75.4178 218.351 76.8265 218.512 78.7966C218.674 80.7726 218.674 83.2689 218.674 86.6375V90.3863C218.674 93.7548 218.674 96.2512 218.512 98.2271C218.351 100.197 218.033 101.606 217.42 102.807C216.318 104.971 214.559 106.73 212.395 107.833C211.194 108.445 209.785 108.763 207.815 108.924C205.839 109.086 203.342 109.086 199.974 109.086H196.225C192.857 109.086 190.36 109.086 188.384 108.924C186.414 108.763 185.005 108.445 183.804 107.833C181.64 106.73 179.881 104.971 178.779 102.807C178.167 101.606 177.848 100.197 177.687 98.2271C177.526 96.2512 177.525 93.7548 177.525 90.3863V86.6375Z" stroke="#4D4D4D"/>
<path d="M200.457 88.3629H195.366V89.6129H200.457V88.3629Z" fill="white" fill-opacity="0.87"/>
<path d="M228.104 86.6375C228.104 83.2689 228.104 80.7726 228.266 78.7966C228.427 76.8265 228.745 75.4178 229.357 74.2166C230.46 72.0527 232.219 70.2935 234.383 69.1909C235.584 68.5789 236.993 68.2603 238.963 68.0993C240.939 67.9379 243.435 67.9375 246.804 67.9375H250.553C253.921 67.9375 256.417 67.9379 258.393 68.0993C260.364 68.2603 261.772 68.5789 262.973 69.1909C265.137 70.2935 266.897 72.0527 267.999 74.2166C268.611 75.4178 268.93 76.8265 269.091 78.7966C269.252 80.7726 269.253 83.2689 269.253 86.6375V90.3863C269.253 93.7548 269.252 96.2512 269.091 98.2271C268.93 100.197 268.611 101.606 267.999 102.807C266.897 104.971 265.137 106.73 262.973 107.833C261.772 108.445 260.364 108.763 258.393 108.924C256.417 109.086 253.921 109.086 250.553 109.086H246.804C243.435 109.086 240.939 109.086 238.963 108.924C236.993 108.763 235.584 108.445 234.383 107.833C232.219 106.73 230.46 104.971 229.357 102.807C228.745 101.606 228.427 100.197 228.266 98.2271C228.104 96.2512 228.104 93.7548 228.104 90.3863V86.6375Z" stroke="#4D4D4D"/>
<path d="M251.035 88.3629H245.944V89.6129H251.035V88.3629Z" fill="white" fill-opacity="0.87"/>
<path d="M278.682 86.6375C278.682 83.2689 278.682 80.7726 278.844 78.7966C279.005 76.8265 279.323 75.4178 279.935 74.2166C281.038 72.0527 282.797 70.2935 284.961 69.1909C286.162 68.5789 287.571 68.2603 289.541 68.0993C291.517 67.9379 294.013 67.9375 297.382 67.9375H301.131C304.499 67.9375 306.996 67.9379 308.972 68.0993C310.942 68.2603 312.35 68.5789 313.552 69.1909C315.716 70.2935 317.475 72.0527 318.577 74.2166C319.189 75.4178 319.508 76.8265 319.669 78.7966C319.83 80.7726 319.831 83.2689 319.831 86.6375V90.3863C319.831 93.7548 319.83 96.2512 319.669 98.2271C319.508 100.197 319.189 101.606 318.577 102.807C317.475 104.971 315.716 106.73 313.552 107.833C312.35 108.445 310.942 108.763 308.972 108.924C306.996 109.086 304.499 109.086 301.131 109.086H297.382C294.013 109.086 291.517 109.086 289.541 108.924C287.571 108.763 286.162 108.445 284.961 107.833C282.797 106.73 281.038 104.971 279.935 102.807C279.323 101.606 279.005 100.197 278.844 98.2271C278.682 96.2512 278.682 93.7548 278.682 90.3863V86.6375Z" stroke="#4D4D4D"/>
<path d="M301.614 88.3629H296.523V89.6129H301.614V88.3629Z" fill="white" fill-opacity="0.87"/>
<path d="M14.1983 8.81818V19H13.0051L7.45679 11.0057H7.35736V19H6.1244V8.81818H7.31759L12.8858 16.8324H12.9852V8.81818H14.1983ZM17.6796 14.4062V19H16.5063V8.81818H17.6796V12.5568H17.7791C17.958 12.1624 18.2265 11.8492 18.5845 11.6172C18.9457 11.3819 19.4263 11.2642 20.0262 11.2642C20.5466 11.2642 21.0023 11.3686 21.3934 11.5774C21.7845 11.7829 22.0878 12.0994 22.3032 12.527C22.522 12.9512 22.6313 13.4915 22.6313 14.1477V19H21.458V14.2273C21.458 13.6207 21.3006 13.1518 20.9857 12.8203C20.6742 12.4856 20.2417 12.3182 19.6881 12.3182C19.3037 12.3182 18.959 12.3994 18.6541 12.5618C18.3524 12.7242 18.1138 12.9612 17.9381 13.2727C17.7658 13.5843 17.6796 13.9621 17.6796 14.4062ZM27.025 19.179C26.5411 19.179 26.1019 19.0878 25.7075 18.9055C25.3131 18.7199 24.9999 18.4531 24.7679 18.1051C24.5359 17.7538 24.4199 17.3295 24.4199 16.8324C24.4199 16.3949 24.506 16.0402 24.6784 15.7685C24.8507 15.4934 25.0811 15.2779 25.3694 15.1222C25.6578 14.9664 25.976 14.8504 26.324 14.7741C26.6753 14.6946 27.0283 14.6316 27.3829 14.5852C27.8469 14.5256 28.2231 14.4808 28.5115 14.451C28.8031 14.4179 29.0153 14.3632 29.1478 14.2869C29.2837 14.2107 29.3517 14.0781 29.3517 13.8892V13.8494C29.3517 13.3589 29.2174 12.9777 28.949 12.706C28.6838 12.4342 28.2811 12.2983 27.7409 12.2983C27.1807 12.2983 26.7416 12.4209 26.4234 12.6662C26.1052 12.9115 25.8815 13.1733 25.7522 13.4517L24.6386 13.054C24.8375 12.59 25.1026 12.2287 25.4341 11.9702C25.7688 11.7083 26.1334 11.526 26.5278 11.4233C26.9255 11.3172 27.3166 11.2642 27.7011 11.2642C27.9464 11.2642 28.2281 11.294 28.5463 11.3537C28.8678 11.41 29.1777 11.5277 29.476 11.7067C29.7776 11.8857 30.0278 12.1558 30.2267 12.517C30.4255 12.8783 30.525 13.3622 30.525 13.9688V19H29.3517V17.9659H29.292C29.2125 18.1316 29.0799 18.3089 28.8943 18.4979C28.7087 18.6868 28.4618 18.8475 28.1535 18.9801C27.8453 19.1127 27.4691 19.179 27.025 19.179ZM27.2039 18.125C27.668 18.125 28.0591 18.0339 28.3772 17.8516C28.6987 17.6693 28.9407 17.4339 29.1031 17.1456C29.2688 16.8572 29.3517 16.554 29.3517 16.2358V15.1619C29.302 15.2216 29.1926 15.2763 29.0236 15.326C28.8578 15.3724 28.6656 15.4138 28.4468 15.4503C28.2314 15.4834 28.0209 15.5133 27.8155 15.5398C27.6133 15.563 27.4492 15.5829 27.3233 15.5994C27.0183 15.6392 26.7333 15.7038 26.4682 15.7933C26.2063 15.8795 25.9942 16.0104 25.8318 16.1861C25.6727 16.3584 25.5932 16.5937 25.5932 16.892C25.5932 17.2997 25.744 17.608 26.0456 17.8168C26.3505 18.0223 26.7366 18.125 27.2039 18.125ZM28.8147 10.4489L27.7807 9.05682L26.7466 10.4489H25.6329V10.3693L27.2437 8.30114H28.3176L29.9284 10.3693V10.4489H28.8147ZM27.721 21.5256C27.4923 21.5256 27.2951 21.4477 27.1294 21.2919C26.967 21.1361 26.8858 20.9489 26.8858 20.7301C26.8858 20.5114 26.967 20.3241 27.1294 20.1683C27.2951 20.0125 27.4923 19.9347 27.721 19.9347C27.9497 19.9347 28.1452 20.0125 28.3076 20.1683C28.4734 20.3241 28.5562 20.5114 28.5562 20.7301C28.5562 20.9489 28.4734 21.1361 28.3076 21.2919C28.1452 21.4477 27.9497 21.5256 27.721 21.5256ZM32.6665 21.8636V11.3636H33.8V12.5767H33.9392C34.0254 12.4441 34.1447 12.2751 34.2972 12.0696C34.4529 11.8608 34.675 11.6752 34.9634 11.5128C35.255 11.3471 35.6494 11.2642 36.1466 11.2642C36.7896 11.2642 37.3564 11.425 37.8469 11.7464C38.3374 12.0679 38.7202 12.5237 38.9953 13.1136C39.2704 13.7036 39.408 14.3996 39.408 15.2017C39.408 16.0104 39.2704 16.7114 38.9953 17.3047C38.7202 17.8946 38.3391 18.352 37.8519 18.6768C37.3646 18.9983 36.8028 19.1591 36.1665 19.1591C35.676 19.1591 35.2832 19.0779 34.9882 18.9155C34.6932 18.7498 34.4662 18.5625 34.3071 18.3537C34.148 18.1416 34.0254 17.9659 33.9392 17.8267H33.8398V21.8636H32.6665ZM33.8199 15.1818C33.8199 15.7585 33.9044 16.2673 34.0734 16.7081C34.2425 17.1456 34.4894 17.4886 34.8142 17.7372C35.139 17.9825 35.5367 18.1051 36.0074 18.1051C36.4979 18.1051 36.9073 17.9759 37.2354 17.7173C37.5668 17.4555 37.8154 17.1042 37.9811 16.6634C38.1501 16.2192 38.2347 15.7254 38.2347 15.1818C38.2347 14.6449 38.1518 14.161 37.9861 13.7301C37.8237 13.2959 37.5768 12.9529 37.2453 12.701C36.9172 12.4458 36.5046 12.3182 36.0074 12.3182C35.5301 12.3182 35.1291 12.4392 34.8043 12.6811C34.4795 12.9197 34.2342 13.2545 34.0685 13.6854C33.9028 14.1129 33.8199 14.6117 33.8199 15.1818ZM48.496 19.1392C48.0784 19.1326 47.6608 19.053 47.2432 18.9006C46.8256 18.7481 46.4444 18.4912 46.0997 18.13C45.755 17.7654 45.4783 17.2732 45.2695 16.6534C45.0607 16.0303 44.9563 15.2481 44.9563 14.3068C44.9563 13.4053 45.0408 12.6065 45.2098 11.9105C45.3788 11.2112 45.6241 10.6229 45.9456 10.1456C46.2671 9.66501 46.6549 9.30043 47.109 9.05185C47.5663 8.80327 48.0817 8.67898 48.6551 8.67898C49.2252 8.67898 49.7323 8.79332 50.1764 9.02202C50.6239 9.2474 50.9885 9.56226 51.2702 9.96662C51.5519 10.371 51.7342 10.8366 51.8171 11.3636H50.604C50.4913 10.9062 50.2725 10.5268 49.9477 10.2251C49.6229 9.92353 49.1921 9.77273 48.6551 9.77273C47.8663 9.77273 47.2448 10.1158 46.7908 10.8018C46.34 11.4879 46.113 12.4508 46.1097 13.6903H46.1892C46.3748 13.4086 46.5952 13.1683 46.8504 12.9695C47.109 12.7673 47.394 12.6115 47.7055 12.5021C48.0171 12.3928 48.3469 12.3381 48.6949 12.3381C49.2782 12.3381 49.8118 12.4839 50.2957 12.7756C50.7796 13.0639 51.1674 13.4633 51.4591 13.9737C51.7508 14.4808 51.8966 15.0625 51.8966 15.7188C51.8966 16.3485 51.7557 16.9252 51.474 17.4489C51.1923 17.9692 50.7962 18.3835 50.2858 18.6918C49.7787 18.9967 49.1821 19.1458 48.496 19.1392ZM48.496 18.0455C48.9136 18.0455 49.2882 17.9411 49.6196 17.7322C49.9544 17.5234 50.2179 17.2434 50.4101 16.892C50.6056 16.5407 50.7034 16.1496 50.7034 15.7188C50.7034 15.2978 50.609 14.915 50.42 14.5703C50.2344 14.2223 49.9776 13.9455 49.6494 13.7401C49.3246 13.5346 48.9534 13.4318 48.5358 13.4318C48.2209 13.4318 47.9276 13.4948 47.6558 13.6207C47.3841 13.7434 47.1454 13.9124 46.9399 14.1278C46.7377 14.3433 46.5787 14.5902 46.4626 14.8686C46.3466 15.1437 46.2886 15.4337 46.2886 15.7386C46.2886 16.143 46.3831 16.5208 46.572 16.8722C46.7643 17.2235 47.0261 17.5069 47.3575 17.7223C47.6923 17.9377 48.0718 18.0455 48.496 18.0455ZM58.9028 16.2159L58.8829 14.7642H59.1216L62.4625 11.3636H63.9142L60.3545 14.9631H60.2551L58.9028 16.2159ZM57.8091 19V8.81818H58.9824V19H57.8091ZM62.6613 19L59.6784 15.2216L60.5136 14.4062L64.1528 19H62.6613ZM66.18 21.8636C65.9811 21.8636 65.8038 21.8471 65.648 21.8139C65.4922 21.7841 65.3845 21.7543 65.3249 21.7244L65.6232 20.6903C65.9082 20.7633 66.1601 20.7898 66.3788 20.7699C66.5976 20.75 66.7915 20.6522 66.9605 20.4766C67.1329 20.3042 67.2903 20.0241 67.4328 19.6364L67.6516 19.0398L64.8277 11.3636H66.1004L68.2084 17.4489H68.2879L70.3959 11.3636H71.6686L68.4271 20.1136C68.2813 20.508 68.1007 20.8345 67.8852 21.093C67.6698 21.3549 67.4196 21.5488 67.1345 21.6747C66.8528 21.8007 66.5346 21.8636 66.18 21.8636ZM67.7112 10.3295L68.9243 8.02273H70.2965L68.7453 10.3295H67.7112ZM80.4758 11.3636V12.358H76.5184V11.3636H80.4758ZM77.6718 9.53409H78.8451V16.8125C78.8451 17.1439 78.8932 17.3925 78.9893 17.5582C79.0887 17.7206 79.2147 17.83 79.3671 17.8864C79.5229 17.9394 79.687 17.9659 79.8593 17.9659C79.9886 17.9659 80.0946 17.9593 80.1775 17.946C80.2604 17.9295 80.3266 17.9162 80.3764 17.9062L80.615 18.9602C80.5354 18.9901 80.4244 19.0199 80.2819 19.0497C80.1394 19.0829 79.9587 19.0994 79.74 19.0994C79.4086 19.0994 79.0837 19.0282 78.7656 18.8857C78.4507 18.7431 78.1889 18.526 77.98 18.2344C77.7746 17.9427 77.6718 17.5748 77.6718 17.1307V9.53409ZM89.1214 11.0256H90.1555C90.1555 11.5294 90.0892 11.9519 89.9566 12.2933C89.824 12.6314 89.592 12.8866 89.2606 13.0589C88.9292 13.228 88.4651 13.3125 87.8685 13.3125V12.4972C88.2795 12.4972 88.5712 12.4474 88.7435 12.348C88.9192 12.2453 89.0253 12.0862 89.0617 11.8707C89.1015 11.652 89.1214 11.3703 89.1214 11.0256ZM87.0532 15.8778V11.3636H88.2265V19H87.0532V17.7074H86.9737C86.7947 18.0952 86.5163 18.425 86.1384 18.6967C85.7606 18.9652 85.2833 19.0994 84.7066 19.0994C84.2293 19.0994 83.8051 18.995 83.4339 18.7862C83.0627 18.5741 82.771 18.2559 82.5589 17.8317C82.3468 17.4041 82.2407 16.8655 82.2407 16.2159V11.3636H83.414V16.1364C83.414 16.6932 83.5698 17.1373 83.8813 17.4688C84.1962 17.8002 84.5972 17.9659 85.0845 17.9659C85.3761 17.9659 85.6728 17.8913 85.9744 17.7422C86.2793 17.593 86.5345 17.3643 86.74 17.0561C86.9488 16.7479 87.0532 16.3551 87.0532 15.8778ZM85.2435 21.5256C85.0149 21.5256 84.8176 21.4477 84.6519 21.2919C84.4895 21.1361 84.4083 20.9489 84.4083 20.7301C84.4083 20.5114 84.4895 20.3241 84.6519 20.1683C84.8176 20.0125 85.0149 19.9347 85.2435 19.9347C85.4722 19.9347 85.6678 20.0125 85.8302 20.1683C85.9959 20.3241 86.0788 20.5114 86.0788 20.7301C86.0788 20.9489 85.9959 21.1361 85.8302 21.2919C85.6678 21.4477 85.4722 21.5256 85.2435 21.5256ZM100.296 13.0739L99.2423 13.3722C99.176 13.1965 99.0782 13.0258 98.949 12.8601C98.823 12.6911 98.6507 12.5518 98.4319 12.4425C98.2132 12.3331 97.9331 12.2784 97.5917 12.2784C97.1244 12.2784 96.735 12.3861 96.4234 12.6016C96.1152 12.8137 95.9611 13.0838 95.9611 13.4119C95.9611 13.7036 96.0671 13.9339 96.2792 14.103C96.4914 14.272 96.8228 14.4129 97.2736 14.5256L98.4071 14.804C99.0898 14.9697 99.5986 15.2232 99.9334 15.5646C100.268 15.9027 100.435 16.3385 100.435 16.8722C100.435 17.3097 100.31 17.7008 100.058 18.0455C99.8091 18.3902 99.4611 18.6619 99.0136 18.8608C98.5662 19.0597 98.0458 19.1591 97.4525 19.1591C96.6736 19.1591 96.029 18.9901 95.5186 18.652C95.0082 18.3139 94.685 17.8201 94.5491 17.1705L95.6628 16.892C95.7688 17.303 95.9693 17.6113 96.2643 17.8168C96.5626 18.0223 96.9521 18.125 97.4326 18.125C97.9795 18.125 98.4137 18.009 98.7352 17.777C99.06 17.5417 99.2224 17.2599 99.2224 16.9318C99.2224 16.6667 99.1296 16.4446 98.944 16.2656C98.7584 16.0833 98.4734 15.9474 98.0889 15.858L96.8162 15.5597C96.1168 15.3939 95.6031 15.1371 95.275 14.7891C94.9502 14.4377 94.7878 13.9986 94.7878 13.4716C94.7878 13.0407 94.9087 12.6596 95.1507 12.3281C95.3959 11.9967 95.729 11.7365 96.15 11.5476C96.5742 11.3587 97.0548 11.2642 97.5917 11.2642C98.3474 11.2642 98.9407 11.4299 99.3716 11.7614C99.8057 12.0928 100.114 12.5303 100.296 13.0739ZM105.304 19.1591C104.615 19.1591 104.01 18.995 103.489 18.6669C102.972 18.3388 102.568 17.8797 102.276 17.2898C101.988 16.6998 101.844 16.0104 101.844 15.2216C101.844 14.4261 101.988 13.7318 102.276 13.1385C102.568 12.5452 102.972 12.0845 103.489 11.7564C104.01 11.4283 104.615 11.2642 105.304 11.2642C105.993 11.2642 106.597 11.4283 107.114 11.7564C107.634 12.0845 108.038 12.5452 108.327 13.1385C108.618 13.7318 108.764 14.4261 108.764 15.2216C108.764 16.0104 108.618 16.6998 108.327 17.2898C108.038 17.8797 107.634 18.3388 107.114 18.6669C106.597 18.995 105.993 19.1591 105.304 19.1591ZM105.304 18.1051C105.828 18.1051 106.258 17.9709 106.597 17.7024C106.935 17.4339 107.185 17.081 107.347 16.6435C107.51 16.206 107.591 15.732 107.591 15.2216C107.591 14.7112 107.51 14.2356 107.347 13.7947C107.185 13.3539 106.935 12.9976 106.597 12.7259C106.258 12.4541 105.828 12.3182 105.304 12.3182C104.78 12.3182 104.349 12.4541 104.011 12.7259C103.673 12.9976 103.423 13.3539 103.261 13.7947C103.098 14.2356 103.017 14.7112 103.017 15.2216C103.017 15.732 103.098 16.206 103.261 16.6435C103.423 17.081 103.673 17.4339 104.011 17.7024C104.349 17.9709 104.78 18.1051 105.304 18.1051ZM102.739 10.4091L104.767 8.59943H105.861L107.889 10.4091H106.457L105.324 9.35511L104.19 10.4091H102.739ZM107.352 9.19602L108.327 7.40625H109.778L108.386 9.19602H107.352ZM117.376 19.1591C116.74 19.1591 116.178 18.9983 115.691 18.6768C115.204 18.352 114.822 17.8946 114.547 17.3047C114.272 16.7114 114.135 16.0104 114.135 15.2017C114.135 14.3996 114.272 13.7036 114.547 13.1136C114.822 12.5237 115.205 12.0679 115.696 11.7464C116.186 11.425 116.753 11.2642 117.396 11.2642C117.893 11.2642 118.286 11.3471 118.574 11.5128C118.866 11.6752 119.088 11.8608 119.241 12.0696C119.396 12.2751 119.517 12.4441 119.603 12.5767H119.703V8.81818H120.876V19H119.743V17.8267H119.603C119.517 17.9659 119.395 18.1416 119.236 18.3537C119.076 18.5625 118.849 18.7498 118.554 18.9155C118.259 19.0779 117.867 19.1591 117.376 19.1591ZM117.535 18.1051C118.006 18.1051 118.404 17.9825 118.728 17.7372C119.053 17.4886 119.3 17.1456 119.469 16.7081C119.638 16.2673 119.723 15.7585 119.723 15.1818C119.723 14.6117 119.64 14.1129 119.474 13.6854C119.308 13.2545 119.063 12.9197 118.738 12.6811C118.414 12.4392 118.013 12.3182 117.535 12.3182C117.038 12.3182 116.624 12.4458 116.292 12.701C115.964 12.9529 115.717 13.2959 115.552 13.7301C115.389 14.161 115.308 14.6449 115.308 15.1818C115.308 15.7254 115.391 16.2192 115.557 16.6634C115.726 17.1042 115.974 17.4555 116.302 17.7173C116.634 17.9759 117.045 18.1051 117.535 18.1051ZM117.595 10.7074V9.79261H121.97V10.7074H117.595ZM125.435 19.179C124.951 19.179 124.512 19.0878 124.118 18.9055C123.723 18.7199 123.41 18.4531 123.178 18.1051C122.946 17.7538 122.83 17.3295 122.83 16.8324C122.83 16.3949 122.916 16.0402 123.089 15.7685C123.261 15.4934 123.491 15.2779 123.78 15.1222C124.068 14.9664 124.386 14.8504 124.734 14.7741C125.085 14.6946 125.438 14.6316 125.793 14.5852C126.257 14.5256 126.633 14.4808 126.922 14.451C127.213 14.4179 127.425 14.3632 127.558 14.2869C127.694 14.2107 127.762 14.0781 127.762 13.8892V13.8494C127.762 13.3589 127.628 12.9777 127.359 12.706C127.094 12.4342 126.691 12.2983 126.151 12.2983C125.591 12.2983 125.152 12.4209 124.834 12.6662C124.515 12.9115 124.292 13.1733 124.162 13.4517L123.049 13.054C123.248 12.59 123.513 12.2287 123.844 11.9702C124.179 11.7083 124.544 11.526 124.938 11.4233C125.336 11.3172 125.727 11.2642 126.111 11.2642C126.357 11.2642 126.638 11.294 126.956 11.3537C127.278 11.41 127.588 11.5277 127.886 11.7067C128.188 11.8857 128.438 12.1558 128.637 12.517C128.836 12.8783 128.935 13.3622 128.935 13.9688V19H127.762V17.9659H127.702C127.623 18.1316 127.49 18.3089 127.304 18.4979C127.119 18.6868 126.872 18.8475 126.564 18.9801C126.255 19.1127 125.879 19.179 125.435 19.179ZM125.614 18.125C126.078 18.125 126.469 18.0339 126.787 17.8516C127.109 17.6693 127.351 17.4339 127.513 17.1456C127.679 16.8572 127.762 16.554 127.762 16.2358V15.1619C127.712 15.2216 127.603 15.2763 127.434 15.326C127.268 15.3724 127.076 15.4138 126.857 15.4503C126.642 15.4834 126.431 15.5133 126.226 15.5398C126.023 15.563 125.859 15.5829 125.733 15.5994C125.428 15.6392 125.143 15.7038 124.878 15.7933C124.616 15.8795 124.404 16.0104 124.242 16.1861C124.083 16.3584 124.003 16.5937 124.003 16.892C124.003 17.2997 124.154 17.608 124.456 17.8168C124.761 18.0223 125.147 18.125 125.614 18.125ZM132.25 14.4062V19H131.077V11.3636H132.21V12.5568H132.31C132.489 12.169 132.76 11.8575 133.125 11.6222C133.49 11.3835 133.96 11.2642 134.537 11.2642C135.054 11.2642 135.506 11.3703 135.894 11.5824C136.282 11.7912 136.584 12.1094 136.799 12.5369C137.014 12.9612 137.122 13.4981 137.122 14.1477V19H135.949V14.2273C135.949 13.6274 135.793 13.16 135.481 12.8253C135.17 12.4872 134.742 12.3182 134.199 12.3182C133.824 12.3182 133.49 12.3994 133.195 12.5618C132.903 12.7242 132.673 12.9612 132.503 13.2727C132.334 13.5843 132.25 13.9621 132.25 14.4062ZM142.348 22.0227C141.782 22.0227 141.295 21.9498 140.887 21.804C140.479 21.6615 140.139 21.4725 139.868 21.2372C139.599 21.0052 139.385 20.7566 139.226 20.4915L140.161 19.8352C140.267 19.9744 140.401 20.1335 140.564 20.3125C140.726 20.4948 140.948 20.6522 141.23 20.7848C141.515 20.9207 141.888 20.9886 142.348 20.9886C142.965 20.9886 143.474 20.8395 143.875 20.5412C144.276 20.2429 144.476 19.7756 144.476 19.1392V17.5881H144.377C144.291 17.7273 144.168 17.8996 144.009 18.1051C143.853 18.3073 143.628 18.4879 143.333 18.647C143.041 18.8028 142.647 18.8807 142.15 18.8807C141.533 18.8807 140.98 18.7348 140.489 18.4432C140.002 18.1515 139.616 17.7273 139.331 17.1705C139.049 16.6136 138.908 15.9375 138.908 15.142C138.908 14.3598 139.046 13.6787 139.321 13.0987C139.596 12.5154 139.979 12.0646 140.469 11.7464C140.96 11.425 141.527 11.2642 142.17 11.2642C142.667 11.2642 143.061 11.3471 143.353 11.5128C143.648 11.6752 143.873 11.8608 144.029 12.0696C144.188 12.2751 144.311 12.4441 144.397 12.5767H144.516V11.3636H145.65V19.2188C145.65 19.875 145.5 20.4086 145.202 20.8196C144.907 21.2339 144.509 21.5372 144.009 21.7294C143.512 21.925 142.958 22.0227 142.348 22.0227ZM142.309 17.8267C142.779 17.8267 143.177 17.719 143.502 17.5036C143.827 17.2881 144.074 16.9782 144.243 16.5739C144.412 16.1695 144.496 15.6856 144.496 15.1222C144.496 14.572 144.413 14.0864 144.248 13.6655C144.082 13.2446 143.837 12.9148 143.512 12.6761C143.187 12.4375 142.786 12.3182 142.309 12.3182C141.812 12.3182 141.397 12.4441 141.066 12.696C140.738 12.9479 140.491 13.286 140.325 13.7102C140.163 14.1345 140.081 14.6051 140.081 15.1222C140.081 15.6525 140.164 16.1214 140.33 16.5291C140.499 16.9335 140.748 17.2517 141.076 17.4837C141.407 17.7124 141.818 17.8267 142.309 17.8267ZM152.908 14.4062V19H151.735V8.81818H152.908V12.5568H153.008C153.187 12.1624 153.455 11.8492 153.813 11.6172C154.174 11.3819 154.655 11.2642 155.255 11.2642C155.775 11.2642 156.231 11.3686 156.622 11.5774C157.013 11.7829 157.316 12.0994 157.532 12.527C157.75 12.9512 157.86 13.4915 157.86 14.1477V19H156.687V14.2273C156.687 13.6207 156.529 13.1518 156.214 12.8203C155.903 12.4856 155.47 12.3182 154.917 12.3182C154.532 12.3182 154.187 12.3994 153.883 12.5618C153.581 12.7242 153.342 12.9612 153.167 13.2727C152.994 13.5843 152.908 13.9621 152.908 14.4062ZM160.006 19V11.3636H161.18V19H160.006ZM160.603 10.0909C160.374 10.0909 160.177 10.013 160.011 9.85724C159.849 9.70147 159.768 9.5142 159.768 9.29545C159.768 9.0767 159.849 8.88944 160.011 8.73366C160.177 8.57789 160.374 8.5 160.603 8.5C160.832 8.5 161.027 8.57789 161.19 8.73366C161.355 8.88944 161.438 9.0767 161.438 9.29545C161.438 9.5142 161.355 9.70147 161.19 9.85724C161.027 10.013 160.832 10.0909 160.603 10.0909ZM166.53 19.1591C165.795 19.1591 165.16 18.9967 164.626 18.6719C164.096 18.3438 163.687 17.8864 163.398 17.2997C163.113 16.7098 162.971 16.0237 162.971 15.2415C162.971 14.4593 163.113 13.7699 163.398 13.1733C163.687 12.5734 164.088 12.1061 164.601 11.7713C165.118 11.4332 165.722 11.2642 166.411 11.2642C166.809 11.2642 167.201 11.3305 167.589 11.4631C167.977 11.5956 168.33 11.8111 168.648 12.1094C168.966 12.4044 169.22 12.7955 169.409 13.2827C169.598 13.7699 169.692 14.3698 169.692 15.0824V15.5795H163.806V14.5653H168.499C168.499 14.1345 168.413 13.75 168.241 13.4119C168.071 13.0739 167.83 12.8071 167.515 12.6115C167.203 12.416 166.835 12.3182 166.411 12.3182C165.944 12.3182 165.539 12.4342 165.198 12.6662C164.86 12.8949 164.6 13.1932 164.417 13.5611C164.235 13.929 164.144 14.3234 164.144 14.7443V15.4205C164.144 15.9972 164.243 16.486 164.442 16.8871C164.644 17.2848 164.924 17.5881 165.282 17.7969C165.64 18.0024 166.056 18.1051 166.53 18.1051C166.839 18.1051 167.117 18.062 167.366 17.9759C167.617 17.8864 167.835 17.7538 168.017 17.5781C168.199 17.3991 168.34 17.1771 168.439 16.9119L169.573 17.2301C169.454 17.6146 169.253 17.9527 168.971 18.2443C168.69 18.5327 168.342 18.758 167.927 18.9205C167.513 19.0795 167.047 19.1591 166.53 19.1591ZM167.027 8.73864L168.917 10.5483H167.684L166.331 9.29545L164.999 10.5483H163.766L165.655 8.73864H167.027ZM169.116 9.59375H168.28V8.67898C168.559 8.65909 168.764 8.62263 168.897 8.5696C169.029 8.51326 169.096 8.41051 169.096 8.26136C169.096 8.10227 169.006 7.98958 168.827 7.9233C168.652 7.85701 168.429 7.82386 168.161 7.82386L168.201 7.16761C168.797 7.16761 169.248 7.2687 169.553 7.47088C169.858 7.67306 170.01 7.94318 170.01 8.28125C170.01 8.57955 169.918 8.79664 169.732 8.93253C169.55 9.0651 169.344 9.14631 169.116 9.17614V9.59375ZM172.65 14.4062V19H171.477V11.3636H172.611V12.5568H172.71C172.889 12.169 173.161 11.8575 173.525 11.6222C173.89 11.3835 174.361 11.2642 174.937 11.2642C175.454 11.2642 175.907 11.3703 176.295 11.5824C176.682 11.7912 176.984 12.1094 177.199 12.5369C177.415 12.9612 177.522 13.4981 177.522 14.1477V19H176.349V14.2273C176.349 13.6274 176.193 13.16 175.882 12.8253C175.57 12.4872 175.143 12.3182 174.599 12.3182C174.225 12.3182 173.89 12.3994 173.595 12.5618C173.303 12.7242 173.073 12.9612 172.904 13.2727C172.735 13.5843 172.65 13.9621 172.65 14.4062ZM186.925 11.3636V12.358H182.968V11.3636H186.925ZM184.121 9.53409H185.294V16.8125C185.294 17.1439 185.342 17.3925 185.439 17.5582C185.538 17.7206 185.664 17.83 185.816 17.8864C185.972 17.9394 186.136 17.9659 186.309 17.9659C186.438 17.9659 186.544 17.9593 186.627 17.946C186.71 17.9295 186.776 17.9162 186.826 17.9062L187.064 18.9602C186.985 18.9901 186.874 19.0199 186.731 19.0497C186.589 19.0829 186.408 19.0994 186.189 19.0994C185.858 19.0994 185.533 19.0282 185.215 18.8857C184.9 18.7431 184.638 18.526 184.429 18.2344C184.224 17.9427 184.121 17.5748 184.121 17.1307V9.53409ZM190.027 14.4062V19H188.854V8.81818H190.027V12.5568H190.127C190.306 12.1624 190.574 11.8492 190.932 11.6172C191.293 11.3819 191.774 11.2642 192.374 11.2642C192.894 11.2642 193.35 11.3686 193.741 11.5774C194.132 11.7829 194.435 12.0994 194.651 12.527C194.87 12.9512 194.979 13.4915 194.979 14.1477V19H193.806V14.2273C193.806 13.6207 193.648 13.1518 193.333 12.8203C193.022 12.4856 192.589 12.3182 192.036 12.3182C191.651 12.3182 191.307 12.3994 191.002 12.5618C190.7 12.7242 190.461 12.9612 190.286 13.2727C190.113 13.5843 190.027 13.9621 190.027 14.4062ZM197.125 19V11.3636H198.299V19H197.125ZM197.722 10.0909C197.493 10.0909 197.296 10.013 197.13 9.85724C196.968 9.70147 196.887 9.5142 196.887 9.29545C196.887 9.0767 196.968 8.88944 197.13 8.73366C197.296 8.57789 197.493 8.5 197.722 8.5C197.951 8.5 198.146 8.57789 198.309 8.73366C198.474 8.88944 198.557 9.0767 198.557 9.29545C198.557 9.5142 198.474 9.70147 198.309 9.85724C198.146 10.013 197.951 10.0909 197.722 10.0909ZM197.722 21.5256C197.493 21.5256 197.296 21.4477 197.13 21.2919C196.968 21.1361 196.887 20.9489 196.887 20.7301C196.887 20.5114 196.968 20.3241 197.13 20.1683C197.296 20.0125 197.493 19.9347 197.722 19.9347C197.951 19.9347 198.146 20.0125 198.309 20.1683C198.474 20.3241 198.557 20.5114 198.557 20.7301C198.557 20.9489 198.474 21.1361 198.309 21.2919C198.146 21.4477 197.951 21.5256 197.722 21.5256ZM207.706 11.3636V12.358H203.749V11.3636H207.706ZM204.902 9.53409H206.076V16.8125C206.076 17.1439 206.124 17.3925 206.22 17.5582C206.319 17.7206 206.445 17.83 206.598 17.8864C206.753 17.9394 206.917 17.9659 207.09 17.9659C207.219 17.9659 207.325 17.9593 207.408 17.946C207.491 17.9295 207.557 17.9162 207.607 17.9062L207.845 18.9602C207.766 18.9901 207.655 19.0199 207.512 19.0497C207.37 19.0829 207.189 19.0994 206.97 19.0994C206.639 19.0994 206.314 19.0282 205.996 18.8857C205.681 18.7431 205.419 18.526 205.211 18.2344C205.005 17.9427 204.902 17.5748 204.902 17.1307V9.53409ZM209.471 19V11.3636H210.605V12.517H210.684C210.823 12.1392 211.075 11.8326 211.44 11.5973C211.805 11.362 212.215 11.2443 212.673 11.2443C212.759 11.2443 212.867 11.246 212.996 11.2493C213.125 11.2526 213.223 11.2576 213.289 11.2642V12.4574C213.25 12.4474 213.158 12.4325 213.016 12.4126C212.877 12.3894 212.729 12.3778 212.573 12.3778C212.202 12.3778 211.871 12.4557 211.579 12.6115C211.291 12.764 211.062 12.9761 210.893 13.2479C210.727 13.5163 210.644 13.8229 210.644 14.1676V19H209.471ZM217.649 19.1591C216.914 19.1591 216.279 18.9967 215.745 18.6719C215.215 18.3438 214.806 17.8864 214.517 17.2997C214.232 16.7098 214.09 16.0237 214.09 15.2415C214.09 14.4593 214.232 13.7699 214.517 13.1733C214.806 12.5734 215.207 12.1061 215.72 11.7713C216.238 11.4332 216.841 11.2642 217.53 11.2642C217.928 11.2642 218.321 11.3305 218.708 11.4631C219.096 11.5956 219.449 11.8111 219.767 12.1094C220.086 12.4044 220.339 12.7955 220.528 13.2827C220.717 13.7699 220.811 14.3698 220.811 15.0824V15.5795H214.925V14.5653H219.618C219.618 14.1345 219.532 13.75 219.36 13.4119C219.191 13.0739 218.949 12.8071 218.634 12.6115C218.322 12.416 217.954 12.3182 217.53 12.3182C217.063 12.3182 216.658 12.4342 216.317 12.6662C215.979 12.8949 215.719 13.1932 215.537 13.5611C215.354 13.929 215.263 14.3234 215.263 14.7443V15.4205C215.263 15.9972 215.363 16.486 215.561 16.8871C215.764 17.2848 216.044 17.5881 216.402 17.7969C216.76 18.0024 217.175 18.1051 217.649 18.1051C217.958 18.1051 218.236 18.062 218.485 17.9759C218.737 17.8864 218.954 17.7538 219.136 17.5781C219.318 17.3991 219.459 17.1771 219.559 16.9119L220.692 17.2301C220.573 17.6146 220.372 17.9527 220.09 18.2443C219.809 18.5327 219.461 18.758 219.046 18.9205C218.632 19.0795 218.166 19.1591 217.649 19.1591ZM218.505 10.4489L217.47 9.05682L216.436 10.4489H215.323V10.3693L216.934 8.30114H218.007L219.618 10.3693V10.4489H218.505ZM223.769 14.4062V19H222.596V11.3636H223.73V12.5568H223.829C224.008 12.169 224.28 11.8575 224.644 11.6222C225.009 11.3835 225.48 11.2642 226.056 11.2642C226.573 11.2642 227.026 11.3703 227.414 11.5824C227.801 11.7912 228.103 12.1094 228.318 12.5369C228.534 12.9612 228.642 13.4981 228.642 14.1477V19H227.468V14.2273C227.468 13.6274 227.313 13.16 227.001 12.8253C226.689 12.4872 226.262 12.3182 225.718 12.3182C225.344 12.3182 225.009 12.3994 224.714 12.5618C224.422 12.7242 224.192 12.9612 224.023 13.2727C223.854 13.5843 223.769 13.9621 223.769 14.4062ZM234.723 19V11.3636H235.857V12.5568H235.956C236.115 12.1491 236.372 11.8326 236.727 11.6072C237.081 11.3786 237.507 11.2642 238.004 11.2642C238.508 11.2642 238.927 11.3786 239.262 11.6072C239.6 11.8326 239.864 12.1491 240.053 12.5568H240.132C240.328 12.1624 240.621 11.8492 241.012 11.6172C241.403 11.3819 241.872 11.2642 242.419 11.2642C243.102 11.2642 243.66 11.478 244.095 11.9055C244.529 12.3298 244.746 12.991 244.746 13.8892V19H243.573V13.8892C243.573 13.3258 243.418 12.9231 243.11 12.6811C242.802 12.4392 242.439 12.3182 242.021 12.3182C241.484 12.3182 241.069 12.4806 240.774 12.8054C240.479 13.1269 240.331 13.5346 240.331 14.0284V19H239.138V13.7699C239.138 13.3357 238.997 12.986 238.715 12.7209C238.434 12.4524 238.071 12.3182 237.627 12.3182C237.322 12.3182 237.037 12.3994 236.771 12.5618C236.51 12.7242 236.297 12.9496 236.135 13.2379C235.976 13.523 235.896 13.8527 235.896 14.2273V19H234.723ZM249.138 19.179C248.654 19.179 248.215 19.0878 247.821 18.9055C247.426 18.7199 247.113 18.4531 246.881 18.1051C246.649 17.7538 246.533 17.3295 246.533 16.8324C246.533 16.3949 246.619 16.0402 246.792 15.7685C246.964 15.4934 247.194 15.2779 247.483 15.1222C247.771 14.9664 248.089 14.8504 248.437 14.7741C248.789 14.6946 249.142 14.6316 249.496 14.5852C249.96 14.5256 250.336 14.4808 250.625 14.451C250.916 14.4179 251.129 14.3632 251.261 14.2869C251.397 14.2107 251.465 14.0781 251.465 13.8892V13.8494C251.465 13.3589 251.331 12.9777 251.062 12.706C250.797 12.4342 250.394 12.2983 249.854 12.2983C249.294 12.2983 248.855 12.4209 248.537 12.6662C248.219 12.9115 247.995 13.1733 247.866 13.4517L246.752 13.054C246.951 12.59 247.216 12.2287 247.547 11.9702C247.882 11.7083 248.247 11.526 248.641 11.4233C249.039 11.3172 249.43 11.2642 249.814 11.2642C250.06 11.2642 250.341 11.294 250.66 11.3537C250.981 11.41 251.291 11.5277 251.589 11.7067C251.891 11.8857 252.141 12.1558 252.34 12.517C252.539 12.8783 252.638 13.3622 252.638 13.9688V19H251.465V17.9659H251.405C251.326 18.1316 251.193 18.3089 251.008 18.4979C250.822 18.6868 250.575 18.8475 250.267 18.9801C249.959 19.1127 249.582 19.179 249.138 19.179ZM249.317 18.125C249.781 18.125 250.172 18.0339 250.491 17.8516C250.812 17.6693 251.054 17.4339 251.216 17.1456C251.382 16.8572 251.465 16.554 251.465 16.2358V15.1619C251.415 15.2216 251.306 15.2763 251.137 15.326C250.971 15.3724 250.779 15.4138 250.56 15.4503C250.345 15.4834 250.134 15.5133 249.929 15.5398C249.727 15.563 249.562 15.5829 249.437 15.5994C249.132 15.6392 248.847 15.7038 248.581 15.7933C248.32 15.8795 248.107 16.0104 247.945 16.1861C247.786 16.3584 247.706 16.5937 247.706 16.892C247.706 17.2997 247.857 17.608 248.159 17.8168C248.464 18.0223 248.85 18.125 249.317 18.125ZM249.397 10.3295L247.846 8.02273H249.218L250.431 10.3295H249.397ZM255.953 14.4062V19H254.78V11.3636H255.913V12.5568H256.013C256.192 12.169 256.463 11.8575 256.828 11.6222C257.193 11.3835 257.663 11.2642 258.24 11.2642C258.757 11.2642 259.209 11.3703 259.597 11.5824C259.985 11.7912 260.287 12.1094 260.502 12.5369C260.718 12.9612 260.825 13.4981 260.825 14.1477V19H259.652V14.2273C259.652 13.6274 259.496 13.16 259.185 12.8253C258.873 12.4872 258.445 12.3182 257.902 12.3182C257.527 12.3182 257.193 12.3994 256.898 12.5618C256.606 12.7242 256.376 12.9612 256.207 13.2727C256.038 13.5843 255.953 13.9621 255.953 14.4062ZM270.208 19H267.762V17.9062H270.128C270.97 17.9062 271.668 17.7438 272.221 17.419C272.775 17.0942 273.187 16.6319 273.459 16.032C273.731 15.4321 273.867 14.7178 273.867 13.8892C273.867 13.0672 273.733 12.3596 273.464 11.7663C273.196 11.1697 272.795 10.7124 272.261 10.3942C271.728 10.0727 271.063 9.91193 270.268 9.91193H267.702V8.81818H270.347C271.335 8.81818 272.18 9.02202 272.883 9.42969C273.585 9.83404 274.124 10.4157 274.498 11.1747C274.873 11.9304 275.06 12.8352 275.06 13.8892C275.06 14.9498 274.871 15.8629 274.493 16.6286C274.116 17.3909 273.565 17.9775 272.843 18.3885C272.12 18.7962 271.242 19 270.208 19ZM268.299 8.81818V19H267.066V8.81818H268.299ZM265.495 14.2074V13.2926H269.87V14.2074H265.495ZM279.216 19.179C278.732 19.179 278.293 19.0878 277.899 18.9055C277.504 18.7199 277.191 18.4531 276.959 18.1051C276.727 17.7538 276.611 17.3295 276.611 16.8324C276.611 16.3949 276.697 16.0402 276.87 15.7685C277.042 15.4934 277.272 15.2779 277.561 15.1222C277.849 14.9664 278.167 14.8504 278.515 14.7741C278.867 14.6946 279.22 14.6316 279.574 14.5852C280.038 14.5256 280.415 14.4808 280.703 14.451C280.995 14.4179 281.207 14.3632 281.339 14.2869C281.475 14.2107 281.543 14.0781 281.543 13.8892V13.8494C281.543 13.3589 281.409 12.9777 281.14 12.706C280.875 12.4342 280.473 12.2983 279.932 12.2983C279.372 12.2983 278.933 12.4209 278.615 12.6662C278.297 12.9115 278.073 13.1733 277.944 13.4517L276.83 13.054C277.029 12.59 277.294 12.2287 277.625 11.9702C277.96 11.7083 278.325 11.526 278.719 11.4233C279.117 11.3172 279.508 11.2642 279.893 11.2642C280.138 11.2642 280.42 11.294 280.738 11.3537C281.059 11.41 281.369 11.5277 281.667 11.7067C281.969 11.8857 282.219 12.1558 282.418 12.517C282.617 12.8783 282.716 13.3622 282.716 13.9688V19H281.543V17.9659H281.483C281.404 18.1316 281.271 18.3089 281.086 18.4979C280.9 18.6868 280.653 18.8475 280.345 18.9801C280.037 19.1127 279.661 19.179 279.216 19.179ZM279.395 18.125C279.859 18.125 280.25 18.0339 280.569 17.8516C280.89 17.6693 281.132 17.4339 281.295 17.1456C281.46 16.8572 281.543 16.554 281.543 16.2358V15.1619C281.493 15.2216 281.384 15.2763 281.215 15.326C281.049 15.3724 280.857 15.4138 280.638 15.4503C280.423 15.4834 280.212 15.5133 280.007 15.5398C279.805 15.563 279.641 15.5829 279.515 15.5994C279.21 15.6392 278.925 15.7038 278.66 15.7933C278.398 15.8795 278.186 16.0104 278.023 16.1861C277.864 16.3584 277.785 16.5937 277.785 16.892C277.785 17.2997 277.935 17.608 278.237 17.8168C278.542 18.0223 278.928 18.125 279.395 18.125ZM280.946 8.81818H282.04C282.04 9.35511 281.855 9.79427 281.483 10.1357C281.112 10.477 280.608 10.6477 279.972 10.6477C279.346 10.6477 278.847 10.477 278.476 10.1357C278.108 9.79427 277.924 9.35511 277.924 8.81818H279.018C279.018 9.0767 279.089 9.30374 279.231 9.49929C279.377 9.69484 279.624 9.79261 279.972 9.79261C280.32 9.79261 280.569 9.69484 280.718 9.49929C280.87 9.30374 280.946 9.0767 280.946 8.81818ZM286.031 14.4062V19H284.858V11.3636H285.991V12.5568H286.091C286.27 12.169 286.542 11.8575 286.906 11.6222C287.271 11.3835 287.741 11.2642 288.318 11.2642C288.835 11.2642 289.288 11.3703 289.675 11.5824C290.063 11.7912 290.365 12.1094 290.58 12.5369C290.796 12.9612 290.903 13.4981 290.903 14.1477V19H289.73V14.2273C289.73 13.6274 289.574 13.16 289.263 12.8253C288.951 12.4872 288.524 12.3182 287.98 12.3182C287.606 12.3182 287.271 12.3994 286.976 12.5618C286.684 12.7242 286.454 12.9612 286.285 13.2727C286.116 13.5843 286.031 13.9621 286.031 14.4062ZM296.13 22.0227C295.563 22.0227 295.076 21.9498 294.668 21.804C294.26 21.6615 293.921 21.4725 293.649 21.2372C293.38 21.0052 293.167 20.7566 293.008 20.4915L293.942 19.8352C294.048 19.9744 294.183 20.1335 294.345 20.3125C294.507 20.4948 294.729 20.6522 295.011 20.7848C295.296 20.9207 295.669 20.9886 296.13 20.9886C296.746 20.9886 297.255 20.8395 297.656 20.5412C298.057 20.2429 298.258 19.7756 298.258 19.1392V17.5881H298.158C298.072 17.7273 297.949 17.8996 297.79 18.1051C297.634 18.3073 297.409 18.4879 297.114 18.647C296.822 18.8028 296.428 18.8807 295.931 18.8807C295.314 18.8807 294.761 18.7348 294.27 18.4432C293.783 18.1515 293.397 17.7273 293.112 17.1705C292.83 16.6136 292.689 15.9375 292.689 15.142C292.689 14.3598 292.827 13.6787 293.102 13.0987C293.377 12.5154 293.76 12.0646 294.25 11.7464C294.741 11.425 295.308 11.2642 295.951 11.2642C296.448 11.2642 296.842 11.3471 297.134 11.5128C297.429 11.6752 297.654 11.8608 297.81 12.0696C297.969 12.2751 298.092 12.4441 298.178 12.5767H298.297V11.3636H299.431V19.2188C299.431 19.875 299.282 20.4086 298.983 20.8196C298.688 21.2339 298.291 21.5372 297.79 21.7294C297.293 21.925 296.74 22.0227 296.13 22.0227ZM296.09 17.8267C296.561 17.8267 296.958 17.719 297.283 17.5036C297.608 17.2881 297.855 16.9782 298.024 16.5739C298.193 16.1695 298.277 15.6856 298.277 15.1222C298.277 14.572 298.195 14.0864 298.029 13.6655C297.863 13.2446 297.618 12.9148 297.293 12.6761C296.968 12.4375 296.567 12.3182 296.09 12.3182C295.593 12.3182 295.178 12.4441 294.847 12.696C294.519 12.9479 294.272 13.286 294.106 13.7102C293.944 14.1345 293.863 14.6051 293.863 15.1222C293.863 15.6525 293.946 16.1214 294.111 16.5291C294.28 16.9335 294.529 17.2517 294.857 17.4837C295.188 17.7124 295.599 17.8267 296.09 17.8267ZM313.749 8.81818V19H312.556L307.008 11.0057H306.908V19H305.675V8.81818H306.868L312.437 16.8324H312.536V8.81818H313.749ZM317.23 14.4062V19H316.057V8.81818H317.23V12.5568H317.33C317.509 12.1624 317.777 11.8492 318.135 11.6172C318.497 11.3819 318.977 11.2642 319.577 11.2642C320.097 11.2642 320.553 11.3686 320.944 11.5774C321.335 11.7829 321.639 12.0994 321.854 12.527C322.073 12.9512 322.182 13.4915 322.182 14.1477V19H321.009V14.2273C321.009 13.6207 320.851 13.1518 320.537 12.8203C320.225 12.4856 319.792 12.3182 319.239 12.3182C318.854 12.3182 318.51 12.3994 318.205 12.5618C317.903 12.7242 317.665 12.9612 317.489 13.2727C317.317 13.5843 317.23 13.9621 317.23 14.4062ZM326.576 19.179C326.092 19.179 325.653 19.0878 325.258 18.9055C324.864 18.7199 324.551 18.4531 324.319 18.1051C324.087 17.7538 323.971 17.3295 323.971 16.8324C323.971 16.3949 324.057 16.0402 324.229 15.7685C324.402 15.4934 324.632 15.2779 324.92 15.1222C325.209 14.9664 325.527 14.8504 325.875 14.7741C326.226 14.6946 326.579 14.6316 326.934 14.5852C327.398 14.5256 327.774 14.4808 328.062 14.451C328.354 14.4179 328.566 14.3632 328.699 14.2869C328.835 14.2107 328.902 14.0781 328.902 13.8892V13.8494C328.902 13.3589 328.768 12.9777 328.5 12.706C328.235 12.4342 327.832 12.2983 327.292 12.2983C326.732 12.2983 326.292 12.4209 325.974 12.6662C325.656 12.9115 325.432 13.1733 325.303 13.4517L324.189 13.054C324.388 12.59 324.653 12.2287 324.985 11.9702C325.32 11.7083 325.684 11.526 326.079 11.4233C326.476 11.3172 326.867 11.2642 327.252 11.2642C327.497 11.2642 327.779 11.294 328.097 11.3537C328.419 11.41 328.728 11.5277 329.027 11.7067C329.328 11.8857 329.579 12.1558 329.777 12.517C329.976 12.8783 330.076 13.3622 330.076 13.9688V19H328.902V17.9659H328.843C328.763 18.1316 328.631 18.3089 328.445 18.4979C328.259 18.6868 328.013 18.8475 327.704 18.9801C327.396 19.1127 327.02 19.179 326.576 19.179ZM326.755 18.125C327.219 18.125 327.61 18.0339 327.928 17.8516C328.25 17.6693 328.491 17.4339 328.654 17.1456C328.82 16.8572 328.902 16.554 328.902 16.2358V15.1619C328.853 15.2216 328.743 15.2763 328.574 15.326C328.409 15.3724 328.216 15.4138 327.998 15.4503C327.782 15.4834 327.572 15.5133 327.366 15.5398C327.164 15.563 327 15.5829 326.874 15.5994C326.569 15.6392 326.284 15.7038 326.019 15.7933C325.757 15.8795 325.545 16.0104 325.383 16.1861C325.223 16.3584 325.144 16.5937 325.144 16.892C325.144 17.2997 325.295 17.608 325.596 17.8168C325.901 18.0223 326.287 18.125 326.755 18.125ZM328.366 10.4489L327.331 9.05682L326.297 10.4489H325.184V10.3693L326.795 8.30114H327.868L329.479 10.3693V10.4489H328.366ZM327.272 21.5256C327.043 21.5256 326.846 21.4477 326.68 21.2919C326.518 21.1361 326.437 20.9489 326.437 20.7301C326.437 20.5114 326.518 20.3241 326.68 20.1683C326.846 20.0125 327.043 19.9347 327.272 19.9347C327.5 19.9347 327.696 20.0125 327.858 20.1683C328.024 20.3241 328.107 20.5114 328.107 20.7301C328.107 20.9489 328.024 21.1361 327.858 21.2919C327.696 21.4477 327.5 21.5256 327.272 21.5256ZM332.217 21.8636V11.3636H333.351V12.5767H333.49C333.576 12.4441 333.695 12.2751 333.848 12.0696C334.004 11.8608 334.226 11.6752 334.514 11.5128C334.806 11.3471 335.2 11.2642 335.697 11.2642C336.34 11.2642 336.907 11.425 337.398 11.7464C337.888 12.0679 338.271 12.5237 338.546 13.1136C338.821 13.7036 338.959 14.3996 338.959 15.2017C338.959 16.0104 338.821 16.7114 338.546 17.3047C338.271 17.8946 337.89 18.352 337.403 18.6768C336.915 18.9983 336.354 19.1591 335.717 19.1591C335.227 19.1591 334.834 19.0779 334.539 18.9155C334.244 18.7498 334.017 18.5625 333.858 18.3537C333.699 18.1416 333.576 17.9659 333.49 17.8267H333.391V21.8636H332.217ZM333.371 15.1818C333.371 15.7585 333.455 16.2673 333.624 16.7081C333.793 17.1456 334.04 17.4886 334.365 17.7372C334.69 17.9825 335.088 18.1051 335.558 18.1051C336.049 18.1051 336.458 17.9759 336.786 17.7173C337.118 17.4555 337.366 17.1042 337.532 16.6634C337.701 16.2192 337.785 15.7254 337.785 15.1818C337.785 14.6449 337.703 14.161 337.537 13.7301C337.374 13.2959 337.128 12.9529 336.796 12.701C336.468 12.4458 336.055 12.3182 335.558 12.3182C335.081 12.3182 334.68 12.4392 334.355 12.6811C334.03 12.9197 333.785 13.2545 333.619 13.6854C333.454 14.1129 333.371 14.6117 333.371 15.1818ZM51.0607 31.9119V30.8182H58.6971V31.9119H55.4954V41H54.2625V31.9119H51.0607ZM65.8102 33.3636L62.9864 41H61.7932L58.9693 33.3636H60.242L62.35 39.4489H62.4295L64.5375 33.3636H65.8102ZM70.7793 41.1392C70.1231 41.1392 69.5381 41.0265 69.0244 40.8011C68.5139 40.5758 68.1079 40.2625 67.8063 39.8615C67.508 39.4571 67.3456 38.9882 67.3191 38.4545H68.5719C68.5985 38.7827 68.7111 39.0661 68.91 39.3047C69.1089 39.54 69.369 39.7223 69.6905 39.8516C70.012 39.9808 70.3683 40.0455 70.7594 40.0455C71.1969 40.0455 71.5847 39.9692 71.9228 39.8168C72.2609 39.6643 72.526 39.4522 72.7182 39.1804C72.9105 38.9086 73.0066 38.5938 73.0066 38.2358C73.0066 37.8613 72.9138 37.5315 72.7282 37.2464C72.5426 36.9581 72.2708 36.7327 71.9128 36.5703C71.5549 36.4079 71.1174 36.3267 70.6003 36.3267H69.785V35.233H70.6003C71.0047 35.233 71.3593 35.16 71.6643 35.0142C71.9725 34.8684 72.2128 34.6629 72.3851 34.3977C72.5608 34.1326 72.6486 33.821 72.6486 33.4631C72.6486 33.1184 72.5724 32.8184 72.4199 32.5632C72.2675 32.308 72.052 32.1091 71.7736 31.9666C71.4985 31.8241 71.1737 31.7528 70.7992 31.7528C70.4479 31.7528 70.1164 31.8175 69.8049 31.9467C69.4967 32.0727 69.2448 32.2566 69.0492 32.4986C68.8537 32.7372 68.7476 33.0256 68.731 33.3636H67.5378C67.5577 32.83 67.7185 32.3627 68.0201 31.9616C68.3217 31.5573 68.7161 31.2424 69.2033 31.017C69.6939 30.7917 70.2324 30.679 70.8191 30.679C71.4488 30.679 71.9891 30.8066 72.4398 31.0618C72.8906 31.3137 73.2369 31.6468 73.4789 32.0611C73.7208 32.4754 73.8418 32.9228 73.8418 33.4034C73.8418 33.9768 73.691 34.4657 73.3894 34.87C73.0911 35.2744 72.6851 35.5545 72.1714 35.7102V35.7898C72.8144 35.8958 73.3165 36.1693 73.6778 36.6101C74.039 37.0476 74.2197 37.5895 74.2197 38.2358C74.2197 38.7893 74.0689 39.2865 73.7672 39.7273C73.469 40.1648 73.0613 40.5095 72.5442 40.7614C72.0272 41.0133 71.4389 41.1392 70.7793 41.1392ZM79.6337 41.1392C79.2161 41.1326 78.7985 41.053 78.3809 40.9006C77.9633 40.7481 77.5821 40.4912 77.2374 40.13C76.8927 39.7654 76.616 39.2732 76.4072 38.6534C76.1984 38.0303 76.094 37.2481 76.094 36.3068C76.094 35.4053 76.1785 34.6065 76.3475 33.9105C76.5165 33.2112 76.7618 32.6229 77.0833 32.1456C77.4048 31.665 77.7926 31.3004 78.2467 31.0518C78.704 30.8033 79.2194 30.679 79.7928 30.679C80.3629 30.679 80.87 30.7933 81.3141 31.022C81.7616 31.2474 82.1261 31.5623 82.4079 31.9666C82.6896 32.371 82.8719 32.8366 82.9547 33.3636H81.7417C81.629 32.9062 81.4102 32.5268 81.0854 32.2251C80.7606 31.9235 80.3297 31.7727 79.7928 31.7727C79.004 31.7727 78.3825 32.1158 77.9285 32.8018C77.4777 33.4879 77.2507 34.4508 77.2474 35.6903H77.3269C77.5125 35.4086 77.7329 35.1683 77.9881 34.9695C78.2467 34.7673 78.5317 34.6115 78.8432 34.5021C79.1548 34.3928 79.4846 34.3381 79.8326 34.3381C80.4159 34.3381 80.9495 34.4839 81.4334 34.7756C81.9173 35.0639 82.3051 35.4633 82.5968 35.9737C82.8885 36.4808 83.0343 37.0625 83.0343 37.7188C83.0343 38.3485 82.8934 38.9252 82.6117 39.4489C82.33 39.9692 81.9339 40.3835 81.4235 40.6918C80.9164 40.9967 80.3198 41.1458 79.6337 41.1392ZM79.6337 40.0455C80.0513 40.0455 80.4259 39.9411 80.7573 39.7322C81.0921 39.5234 81.3556 39.2434 81.5478 38.892C81.7433 38.5407 81.8411 38.1496 81.8411 37.7188C81.8411 37.2978 81.7467 36.915 81.5577 36.5703C81.3721 36.2223 81.1153 35.9455 80.7871 35.7401C80.4623 35.5346 80.0911 35.4318 79.6735 35.4318C79.3586 35.4318 79.0653 35.4948 78.7935 35.6207C78.5217 35.7434 78.2831 35.9124 78.0776 36.1278C77.8754 36.3433 77.7163 36.5902 77.6003 36.8686C77.4843 37.1437 77.4263 37.4337 77.4263 37.7386C77.4263 38.143 77.5208 38.5208 77.7097 38.8722C77.902 39.2235 78.1638 39.5069 78.4952 39.7223C78.83 39.9377 79.2095 40.0455 79.6337 40.0455ZM88.3104 41.1392C87.5613 41.1392 86.9233 40.9354 86.3963 40.5277C85.8693 40.1167 85.4666 39.5218 85.1882 38.7429C84.9098 37.9607 84.7706 37.0161 84.7706 35.9091C84.7706 34.8087 84.9098 33.8691 85.1882 33.0902C85.47 32.308 85.8743 31.7114 86.4013 31.3004C86.9316 30.8861 87.568 30.679 88.3104 30.679C89.0528 30.679 89.6875 30.8861 90.2145 31.3004C90.7448 31.7114 91.1492 32.308 91.4276 33.0902C91.7093 33.8691 91.8502 34.8087 91.8502 35.9091C91.8502 37.0161 91.711 37.9607 91.4326 38.7429C91.1541 39.5218 90.7514 40.1167 90.2245 40.5277C89.6975 40.9354 89.0594 41.1392 88.3104 41.1392ZM88.3104 40.0455C89.0528 40.0455 89.6295 39.6875 90.0405 38.9716C90.4515 38.2557 90.657 37.2348 90.657 35.9091C90.657 35.0275 90.5625 34.2768 90.3736 33.657C90.188 33.0372 89.9195 32.5649 89.5682 32.2401C89.2202 31.9152 88.8009 31.7528 88.3104 31.7528C87.5746 31.7528 86.9996 32.1158 86.5853 32.8416C86.171 33.5642 85.9638 34.5866 85.9638 35.9091C85.9638 36.7907 86.0566 37.5398 86.2422 38.1562C86.4278 38.7727 86.6946 39.2417 87.0426 39.5632C87.394 39.8847 87.8165 40.0455 88.3104 40.0455ZM101.018 33.3636V34.358H97.0604V33.3636H101.018ZM98.2138 31.5341H99.3871V38.8125C99.3871 39.1439 99.4352 39.3925 99.5313 39.5582C99.6307 39.7206 99.7567 39.83 99.9091 39.8864C100.065 39.9394 100.229 39.9659 100.401 39.9659C100.531 39.9659 100.637 39.9593 100.719 39.946C100.802 39.9295 100.869 39.9162 100.918 39.9062L101.157 40.9602C101.077 40.9901 100.966 41.0199 100.824 41.0497C100.681 41.0829 100.501 41.0994 100.282 41.0994C99.9505 41.0994 99.6257 41.0282 99.3076 40.8857C98.9927 40.7431 98.7308 40.526 98.522 40.2344C98.3165 39.9427 98.2138 39.5748 98.2138 39.1307V31.5341ZM105.03 41.179C104.546 41.179 104.107 41.0878 103.712 40.9055C103.318 40.7199 103.005 40.4531 102.773 40.1051C102.541 39.7538 102.425 39.3295 102.425 38.8324C102.425 38.3949 102.511 38.0402 102.683 37.7685C102.856 37.4934 103.086 37.2779 103.374 37.1222C103.663 36.9664 103.981 36.8504 104.329 36.7741C104.68 36.6946 105.033 36.6316 105.388 36.5852C105.852 36.5256 106.228 36.4808 106.516 36.451C106.808 36.4179 107.02 36.3632 107.153 36.2869C107.289 36.2107 107.357 36.0781 107.357 35.8892V35.8494C107.357 35.3589 107.222 34.9777 106.954 34.706C106.689 34.4342 106.286 34.2983 105.746 34.2983C105.186 34.2983 104.746 34.4209 104.428 34.6662C104.11 34.9115 103.886 35.1733 103.757 35.4517L102.643 35.054C102.842 34.59 103.108 34.2287 103.439 33.9702C103.774 33.7083 104.138 33.526 104.533 33.4233C104.93 33.3172 105.322 33.2642 105.706 33.2642C105.951 33.2642 106.233 33.294 106.551 33.3537C106.873 33.41 107.183 33.5277 107.481 33.7067C107.782 33.8857 108.033 34.1558 108.232 34.517C108.43 34.8783 108.53 35.3622 108.53 35.9688V41H107.357V39.9659H107.297C107.217 40.1316 107.085 40.3089 106.899 40.4979C106.714 40.6868 106.467 40.8475 106.158 40.9801C105.85 41.1127 105.474 41.179 105.03 41.179ZM105.209 40.125C105.673 40.125 106.064 40.0339 106.382 39.8516C106.704 39.6693 106.946 39.4339 107.108 39.1456C107.274 38.8572 107.357 38.554 107.357 38.2358V37.1619C107.307 37.2216 107.197 37.2763 107.028 37.326C106.863 37.3724 106.67 37.4138 106.452 37.4503C106.236 37.4834 106.026 37.5133 105.82 37.5398C105.618 37.563 105.454 37.5829 105.328 37.5994C105.023 37.6392 104.738 37.7038 104.473 37.7933C104.211 37.8795 103.999 38.0104 103.837 38.1861C103.678 38.3584 103.598 38.5937 103.598 38.892C103.598 39.2997 103.749 39.608 104.05 39.8168C104.355 40.0223 104.742 40.125 105.209 40.125ZM105.726 43.5256C105.497 43.5256 105.3 43.4477 105.134 43.2919C104.972 43.1361 104.891 42.9489 104.891 42.7301C104.891 42.5114 104.972 42.3241 105.134 42.1683C105.3 42.0125 105.497 41.9347 105.726 41.9347C105.955 41.9347 106.15 42.0125 106.313 42.1683C106.478 42.3241 106.561 42.5114 106.561 42.7301C106.561 42.9489 106.478 43.1361 106.313 43.2919C106.15 43.4477 105.955 43.5256 105.726 43.5256ZM110.671 41V33.3636H111.845V41H110.671ZM111.268 32.0909C111.039 32.0909 110.842 32.013 110.676 31.8572C110.514 31.7015 110.433 31.5142 110.433 31.2955C110.433 31.0767 110.514 30.8894 110.676 30.7337C110.842 30.5779 111.039 30.5 111.268 30.5C111.497 30.5 111.692 30.5779 111.855 30.7337C112.02 30.8894 112.103 31.0767 112.103 31.2955C112.103 31.5142 112.02 31.7015 111.855 31.8572C111.692 32.013 111.497 32.0909 111.268 32.0909ZM121.252 33.3636V34.358H117.295V33.3636H121.252ZM118.448 31.5341H119.621V38.8125C119.621 39.1439 119.67 39.3925 119.766 39.5582C119.865 39.7206 119.991 39.83 120.143 39.8864C120.299 39.9394 120.463 39.9659 120.636 39.9659C120.765 39.9659 120.871 39.9593 120.954 39.946C121.037 39.9295 121.103 39.9162 121.153 39.9062L121.391 40.9602C121.312 40.9901 121.201 41.0199 121.058 41.0497C120.916 41.0829 120.735 41.0994 120.516 41.0994C120.185 41.0994 119.86 41.0282 119.542 40.8857C119.227 40.7431 118.965 40.526 118.756 40.2344C118.551 39.9427 118.448 39.5748 118.448 39.1307V31.5341ZM124.354 36.4062V41H123.181V30.8182H124.354V34.5568H124.454C124.633 34.1624 124.901 33.8492 125.259 33.6172C125.621 33.3819 126.101 33.2642 126.701 33.2642C127.221 33.2642 127.677 33.3686 128.068 33.5774C128.459 33.7829 128.763 34.0994 128.978 34.527C129.197 34.9512 129.306 35.4915 129.306 36.1477V41H128.133V36.2273C128.133 35.6207 127.975 35.1518 127.661 34.8203C127.349 34.4856 126.916 34.3182 126.363 34.3182C125.978 34.3182 125.634 34.3994 125.329 34.5618C125.027 34.7242 124.789 34.9612 124.613 35.2727C124.441 35.5843 124.354 35.9621 124.354 36.4062ZM131.453 41V33.3636H132.626V41H131.453ZM132.049 32.0909C131.821 32.0909 131.623 32.013 131.458 31.8572C131.295 31.7015 131.214 31.5142 131.214 31.2955C131.214 31.0767 131.295 30.8894 131.458 30.7337C131.623 30.5779 131.821 30.5 132.049 30.5C132.278 30.5 132.473 30.5779 132.636 30.7337C132.802 30.8894 132.884 31.0767 132.884 31.2955C132.884 31.5142 132.802 31.7015 132.636 31.8572C132.473 32.013 132.278 32.0909 132.049 32.0909ZM137.977 41.1591C137.241 41.1591 136.606 40.9967 136.072 40.6719C135.542 40.3438 135.133 39.8864 134.844 39.2997C134.559 38.7098 134.417 38.0237 134.417 37.2415C134.417 36.4593 134.559 35.7699 134.844 35.1733C135.133 34.5734 135.534 34.1061 136.048 33.7713C136.565 33.4332 137.168 33.2642 137.857 33.2642C138.255 33.2642 138.648 33.3305 139.036 33.4631C139.423 33.5956 139.776 33.8111 140.094 34.1094C140.413 34.4044 140.666 34.7955 140.855 35.2827C141.044 35.7699 141.139 36.3698 141.139 37.0824V37.5795H135.252V36.5653H139.945C139.945 36.1345 139.859 35.75 139.687 35.4119C139.518 35.0739 139.276 34.8071 138.961 34.6115C138.649 34.416 138.282 34.3182 137.857 34.3182C137.39 34.3182 136.986 34.4342 136.644 34.6662C136.306 34.8949 136.046 35.1932 135.864 35.5611C135.681 35.929 135.59 36.3234 135.59 36.7443V37.4205C135.59 37.9972 135.69 38.486 135.889 38.8871C136.091 39.2848 136.371 39.5881 136.729 39.7969C137.087 40.0024 137.503 40.1051 137.977 40.1051C138.285 40.1051 138.563 40.062 138.812 39.9759C139.064 39.8864 139.281 39.7538 139.463 39.5781C139.645 39.3991 139.786 39.1771 139.886 38.9119L141.019 39.2301C140.9 39.6146 140.699 39.9527 140.418 40.2443C140.136 40.5327 139.788 40.758 139.374 40.9205C138.959 41.0795 138.494 41.1591 137.977 41.1591ZM135.232 32.4091L137.261 30.5994H138.354L140.383 32.4091H138.951L137.817 31.3551L136.684 32.4091H135.232ZM139.846 31.196L140.82 29.4062H142.272L140.88 31.196H139.846ZM146.244 33.3636V34.358H142.287V33.3636H146.244ZM143.44 31.5341H144.614V38.8125C144.614 39.1439 144.662 39.3925 144.758 39.5582C144.857 39.7206 144.983 39.83 145.136 39.8864C145.291 39.9394 145.456 39.9659 145.628 39.9659C145.757 39.9659 145.863 39.9593 145.946 39.946C146.029 39.9295 146.095 39.9162 146.145 39.9062L146.384 40.9602C146.304 40.9901 146.193 41.0199 146.05 41.0497C145.908 41.0829 145.727 41.0994 145.509 41.0994C145.177 41.0994 144.852 41.0282 144.534 40.8857C144.219 40.7431 143.957 40.526 143.749 40.2344C143.543 39.9427 143.44 39.5748 143.44 39.1307V31.5341ZM152.106 41V30.8182H153.279V34.5767H153.379C153.465 34.4441 153.584 34.2751 153.737 34.0696C153.892 33.8608 154.114 33.6752 154.403 33.5128C154.694 33.3471 155.089 33.2642 155.586 33.2642C156.229 33.2642 156.796 33.425 157.286 33.7464C157.777 34.0679 158.16 34.5237 158.435 35.1136C158.71 35.7036 158.847 36.3996 158.847 37.2017C158.847 38.0104 158.71 38.7114 158.435 39.3047C158.16 39.8946 157.778 40.352 157.291 40.6768C156.804 40.9983 156.242 41.1591 155.606 41.1591C155.115 41.1591 154.723 41.0779 154.428 40.9155C154.133 40.7498 153.906 40.5625 153.746 40.3537C153.587 40.1416 153.465 39.9659 153.379 39.8267H153.239V41H152.106ZM153.259 37.1818C153.259 37.7585 153.344 38.2673 153.513 38.7081C153.682 39.1456 153.929 39.4886 154.254 39.7372C154.578 39.9825 154.976 40.1051 155.447 40.1051C155.937 40.1051 156.347 39.9759 156.675 39.7173C157.006 39.4555 157.255 39.1042 157.42 38.6634C157.59 38.2192 157.674 37.7254 157.674 37.1818C157.674 36.6449 157.591 36.161 157.425 35.7301C157.263 35.2959 157.016 34.9529 156.685 34.701C156.357 34.4458 155.944 34.3182 155.447 34.3182C154.969 34.3182 154.568 34.4392 154.244 34.6811C153.919 34.9197 153.674 35.2545 153.508 35.6854C153.342 36.1129 153.259 36.6117 153.259 37.1818ZM160.642 41V33.3636H161.815V41H160.642ZM161.239 32.0909C161.01 32.0909 160.813 32.013 160.647 31.8572C160.485 31.7015 160.403 31.5142 160.403 31.2955C160.403 31.0767 160.485 30.8894 160.647 30.7337C160.813 30.5779 161.01 30.5 161.239 30.5C161.467 30.5 161.663 30.5779 161.825 30.7337C161.991 30.8894 162.074 31.0767 162.074 31.2955C162.074 31.5142 161.991 31.7015 161.825 31.8572C161.663 32.013 161.467 32.0909 161.239 32.0909ZM161.239 43.5256C161.01 43.5256 160.813 43.4477 160.647 43.2919C160.485 43.1361 160.403 42.9489 160.403 42.7301C160.403 42.5114 160.485 42.3241 160.647 42.1683C160.813 42.0125 161.01 41.9347 161.239 41.9347C161.467 41.9347 161.663 42.0125 161.825 42.1683C161.991 42.3241 162.074 42.5114 162.074 42.7301C162.074 42.9489 161.991 43.1361 161.825 43.2919C161.663 43.4477 161.467 43.5256 161.239 43.5256ZM173.629 33.3636C173.569 32.8598 173.327 32.4688 172.903 32.1903C172.479 31.9119 171.959 31.7727 171.342 31.7727C170.891 31.7727 170.497 31.8456 170.159 31.9915C169.824 32.1373 169.562 32.3378 169.373 32.593C169.188 32.8482 169.095 33.1383 169.095 33.4631C169.095 33.7348 169.16 33.9685 169.289 34.1641C169.421 34.3563 169.591 34.517 169.796 34.6463C170.002 34.7723 170.217 34.8767 170.442 34.9595C170.668 35.0391 170.875 35.1037 171.064 35.1534L172.098 35.4318C172.363 35.5014 172.658 35.5975 172.983 35.7202C173.311 35.8428 173.624 36.0102 173.922 36.2223C174.224 36.4311 174.473 36.6996 174.668 37.0277C174.864 37.3558 174.961 37.7585 174.961 38.2358C174.961 38.786 174.817 39.2831 174.529 39.7273C174.244 40.1714 173.826 40.5244 173.276 40.7862C172.729 41.0481 172.065 41.179 171.283 41.179C170.553 41.179 169.922 41.0613 169.388 40.826C168.858 40.5907 168.44 40.2625 168.136 39.8416C167.834 39.4207 167.663 38.9318 167.623 38.375H168.896C168.929 38.7595 169.059 39.0777 169.284 39.3295C169.513 39.5781 169.801 39.7637 170.149 39.8864C170.5 40.0057 170.878 40.0653 171.283 40.0653C171.753 40.0653 172.176 39.9891 172.55 39.8366C172.925 39.6809 173.221 39.4654 173.44 39.1903C173.659 38.9119 173.768 38.5871 173.768 38.2159C173.768 37.8778 173.674 37.6027 173.485 37.3906C173.296 37.1785 173.047 37.0062 172.739 36.8736C172.431 36.741 172.098 36.625 171.74 36.5256L170.487 36.1676C169.692 35.9389 169.062 35.6125 168.598 35.1882C168.134 34.764 167.902 34.2088 167.902 33.5227C167.902 32.9527 168.056 32.4555 168.364 32.0312C168.676 31.6037 169.093 31.2723 169.617 31.0369C170.144 30.7983 170.732 30.679 171.382 30.679C172.038 30.679 172.622 30.7966 173.132 31.032C173.642 31.264 174.047 31.5821 174.345 31.9865C174.647 32.3909 174.806 32.8499 174.822 33.3636H173.629ZM176.83 41V33.3636H177.963V34.5568H178.063C178.222 34.1491 178.478 33.8326 178.833 33.6072C179.188 33.3786 179.614 33.2642 180.111 33.2642C180.615 33.2642 181.034 33.3786 181.369 33.6072C181.707 33.8326 181.97 34.1491 182.159 34.5568H182.239C182.434 34.1624 182.728 33.8492 183.119 33.6172C183.51 33.3819 183.979 33.2642 184.526 33.2642C185.208 33.2642 185.767 33.478 186.201 33.9055C186.635 34.3298 186.852 34.991 186.852 35.8892V41H185.679V35.8892C185.679 35.3258 185.525 34.9231 185.217 34.6811C184.908 34.4392 184.545 34.3182 184.128 34.3182C183.591 34.3182 183.175 34.4806 182.88 34.8054C182.585 35.1269 182.438 35.5346 182.438 36.0284V41H181.244V35.7699C181.244 35.3357 181.103 34.986 180.822 34.7209C180.54 34.4524 180.177 34.3182 179.733 34.3182C179.428 34.3182 179.143 34.3994 178.878 34.5618C178.616 34.7242 178.404 34.9496 178.242 35.2379C178.082 35.523 178.003 35.8527 178.003 36.2273V41H176.83ZM191.245 41.179C190.761 41.179 190.322 41.0878 189.927 40.9055C189.533 40.7199 189.22 40.4531 188.988 40.1051C188.756 39.7538 188.64 39.3295 188.64 38.8324C188.64 38.3949 188.726 38.0402 188.898 37.7685C189.07 37.4934 189.301 37.2779 189.589 37.1222C189.878 36.9664 190.196 36.8504 190.544 36.7741C190.895 36.6946 191.248 36.6316 191.603 36.5852C192.067 36.5256 192.443 36.4808 192.731 36.451C193.023 36.4179 193.235 36.3632 193.368 36.2869C193.503 36.2107 193.571 36.0781 193.571 35.8892V35.8494C193.571 35.3589 193.437 34.9777 193.169 34.706C192.904 34.4342 192.501 34.2983 191.961 34.2983C191.4 34.2983 190.961 34.4209 190.643 34.6662C190.325 34.9115 190.101 35.1733 189.972 35.4517L188.858 35.054C189.057 34.59 189.322 34.2287 189.654 33.9702C189.989 33.7083 190.353 33.526 190.748 33.4233C191.145 33.3172 191.536 33.2642 191.921 33.2642C192.166 33.2642 192.448 33.294 192.766 33.3537C193.088 33.41 193.397 33.5277 193.696 33.7067C193.997 33.8857 194.248 34.1558 194.446 34.517C194.645 34.8783 194.745 35.3622 194.745 35.9688V41H193.571V39.9659H193.512C193.432 40.1316 193.3 40.3089 193.114 40.4979C192.928 40.6868 192.681 40.8475 192.373 40.9801C192.065 41.1127 191.689 41.179 191.245 41.179ZM191.424 40.125C191.888 40.125 192.279 40.0339 192.597 39.8516C192.918 39.6693 193.16 39.4339 193.323 39.1456C193.489 38.8572 193.571 38.554 193.571 38.2358V37.1619C193.522 37.2216 193.412 37.2763 193.243 37.326C193.078 37.3724 192.885 37.4138 192.667 37.4503C192.451 37.4834 192.241 37.5133 192.035 37.5398C191.833 37.563 191.669 37.5829 191.543 37.5994C191.238 37.6392 190.953 37.7038 190.688 37.7933C190.426 37.8795 190.214 38.0104 190.052 38.1861C189.892 38.3584 189.813 38.5937 189.813 38.892C189.813 39.2997 189.964 39.608 190.265 39.8168C190.57 40.0223 190.956 40.125 191.424 40.125ZM196.886 41V33.3636H198.02V34.517H198.099C198.238 34.1392 198.49 33.8326 198.855 33.5973C199.22 33.362 199.631 33.2443 200.088 33.2443C200.174 33.2443 200.282 33.246 200.411 33.2493C200.54 33.2526 200.638 33.2576 200.704 33.2642V34.4574C200.665 34.4474 200.573 34.4325 200.431 34.4126C200.292 34.3894 200.144 34.3778 199.988 34.3778C199.617 34.3778 199.286 34.4557 198.994 34.6115C198.706 34.764 198.477 34.9761 198.308 35.2479C198.142 35.5163 198.06 35.8229 198.06 36.1676V41H196.886ZM205.895 33.3636V34.358H201.937V33.3636H205.895ZM203.091 31.5341H204.264V38.8125C204.264 39.1439 204.312 39.3925 204.408 39.5582C204.508 39.7206 204.634 39.83 204.786 39.8864C204.942 39.9394 205.106 39.9659 205.278 39.9659C205.408 39.9659 205.514 39.9593 205.596 39.946C205.679 39.9295 205.746 39.9162 205.795 39.9062L206.034 40.9602C205.954 40.9901 205.843 41.0199 205.701 41.0497C205.558 41.0829 205.378 41.0994 205.159 41.0994C204.827 41.0994 204.503 41.0282 204.185 40.8857C203.87 40.7431 203.608 40.526 203.399 40.2344C203.194 39.9427 203.091 39.5748 203.091 39.1307V31.5341ZM206.783 31.9119V30.8182H214.42V31.9119H211.218V41H209.985V31.9119H206.783ZM216.74 30.8182L219.763 39.3892H219.882L222.905 30.8182H224.198L220.459 41H219.186L215.448 30.8182H216.74ZM230.735 36.4062V41H229.562V30.8182H230.735V34.5568H230.835C231.014 34.1624 231.282 33.8492 231.64 33.6172C232.001 33.3819 232.482 33.2642 233.082 33.2642C233.602 33.2642 234.058 33.3686 234.449 33.5774C234.84 33.7829 235.143 34.0994 235.359 34.527C235.578 34.9512 235.687 35.4915 235.687 36.1477V41H234.514V36.2273C234.514 35.6207 234.356 35.1518 234.041 34.8203C233.73 34.4856 233.297 34.3182 232.744 34.3182C232.359 34.3182 232.015 34.3994 231.71 34.5618C231.408 34.7242 231.169 34.9612 230.994 35.2727C230.821 35.5843 230.735 35.9621 230.735 36.4062ZM240.936 41.1591C240.246 41.1591 239.641 40.995 239.121 40.6669C238.604 40.3388 238.2 39.8797 237.908 39.2898C237.62 38.6998 237.476 38.0104 237.476 37.2216C237.476 36.4261 237.62 35.7318 237.908 35.1385C238.2 34.5452 238.604 34.0845 239.121 33.7564C239.641 33.4283 240.246 33.2642 240.936 33.2642C241.625 33.2642 242.228 33.4283 242.745 33.7564C243.266 34.0845 243.67 34.5452 243.958 35.1385C244.25 35.7318 244.396 36.4261 244.396 37.2216C244.396 38.0104 244.25 38.6998 243.958 39.2898C243.67 39.8797 243.266 40.3388 242.745 40.6669C242.228 40.995 241.625 41.1591 240.936 41.1591ZM240.936 40.1051C241.459 40.1051 241.89 39.9709 242.228 39.7024C242.566 39.4339 242.817 39.081 242.979 38.6435C243.141 38.206 243.223 37.732 243.223 37.2216C243.223 36.7112 243.141 36.2356 242.979 35.7947C242.817 35.3539 242.566 34.9976 242.228 34.7259C241.89 34.4541 241.459 34.3182 240.936 34.3182C240.412 34.3182 239.981 34.4541 239.643 34.7259C239.305 34.9976 239.055 35.3539 238.892 35.7947C238.73 36.2356 238.649 36.7112 238.649 37.2216C238.649 37.732 238.73 38.206 238.892 38.6435C239.055 39.081 239.305 39.4339 239.643 39.7024C239.981 39.9709 240.412 40.1051 240.936 40.1051ZM248.434 41.179C247.95 41.179 247.511 41.0878 247.117 40.9055C246.722 40.7199 246.409 40.4531 246.177 40.1051C245.945 39.7538 245.829 39.3295 245.829 38.8324C245.829 38.3949 245.915 38.0402 246.088 37.7685C246.26 37.4934 246.49 37.2779 246.779 37.1222C247.067 36.9664 247.385 36.8504 247.733 36.7741C248.084 36.6946 248.437 36.6316 248.792 36.5852C249.256 36.5256 249.632 36.4808 249.921 36.451C250.212 36.4179 250.424 36.3632 250.557 36.2869C250.693 36.2107 250.761 36.0781 250.761 35.8892V35.8494C250.761 35.3589 250.627 34.9777 250.358 34.706C250.093 34.4342 249.69 34.2983 249.15 34.2983C248.59 34.2983 248.151 34.4209 247.833 34.6662C247.514 34.9115 247.291 35.1733 247.161 35.4517L246.048 35.054C246.247 34.59 246.512 34.2287 246.843 33.9702C247.178 33.7083 247.543 33.526 247.937 33.4233C248.335 33.3172 248.726 33.2642 249.11 33.2642C249.356 33.2642 249.637 33.294 249.955 33.3537C250.277 33.41 250.587 33.5277 250.885 33.7067C251.187 33.8857 251.437 34.1558 251.636 34.517C251.835 34.8783 251.934 35.3622 251.934 35.9688V41H250.761V39.9659H250.701C250.622 40.1316 250.489 40.3089 250.303 40.4979C250.118 40.6868 249.871 40.8475 249.563 40.9801C249.254 41.1127 248.878 41.179 248.434 41.179ZM248.613 40.125C249.077 40.125 249.468 40.0339 249.786 39.8516C250.108 39.6693 250.35 39.4339 250.512 39.1456C250.678 38.8572 250.761 38.554 250.761 38.2358V37.1619C250.711 37.2216 250.602 37.2763 250.433 37.326C250.267 37.3724 250.075 37.4138 249.856 37.4503C249.641 37.4834 249.43 37.5133 249.225 37.5398C249.022 37.563 248.858 37.5829 248.732 37.5994C248.428 37.6392 248.142 37.7038 247.877 37.7933C247.615 37.8795 247.403 38.0104 247.241 38.1861C247.082 38.3584 247.002 38.5937 247.002 38.892C247.002 39.2997 247.153 39.608 247.455 39.8168C247.76 40.0223 248.146 40.125 248.613 40.125ZM250.164 30.8182H251.258C251.258 31.3551 251.072 31.7943 250.701 32.1357C250.33 32.477 249.826 32.6477 249.19 32.6477C248.563 32.6477 248.065 32.477 247.693 32.1357C247.325 31.7943 247.142 31.3551 247.142 30.8182H248.235C248.235 31.0767 248.307 31.3037 248.449 31.4993C248.595 31.6948 248.842 31.7926 249.19 31.7926C249.538 31.7926 249.786 31.6948 249.936 31.4993C250.088 31.3037 250.164 31.0767 250.164 30.8182ZM249.13 43.5256C248.901 43.5256 248.704 43.4477 248.539 43.2919C248.376 43.1361 248.295 42.9489 248.295 42.7301C248.295 42.5114 248.376 42.3241 248.539 42.1683C248.704 42.0125 248.901 41.9347 249.13 41.9347C249.359 41.9347 249.554 42.0125 249.717 42.1683C249.883 42.3241 249.965 42.5114 249.965 42.7301C249.965 42.9489 249.883 43.1361 249.717 43.2919C249.554 43.4477 249.359 43.5256 249.13 43.5256ZM257.178 41.1591C256.462 41.1591 255.846 40.9901 255.329 40.652C254.811 40.3139 254.414 39.8482 254.135 39.255C253.857 38.6617 253.718 37.9839 253.718 37.2216C253.718 36.446 253.86 35.7616 254.145 35.1683C254.434 34.5717 254.835 34.1061 255.348 33.7713C255.865 33.4332 256.469 33.2642 257.158 33.2642C257.695 33.2642 258.179 33.3636 258.61 33.5625C259.041 33.7614 259.394 34.0398 259.669 34.3977C259.944 34.7557 260.114 35.1733 260.181 35.6506H259.007C258.918 35.3026 258.719 34.9943 258.411 34.7259C258.106 34.4541 257.695 34.3182 257.178 34.3182C256.721 34.3182 256.32 34.4375 255.975 34.6761C255.633 34.9115 255.367 35.2446 255.174 35.6754C254.985 36.103 254.891 36.6051 254.891 37.1818C254.891 37.7718 254.984 38.2855 255.169 38.723C255.358 39.1605 255.623 39.5002 255.965 39.7422C256.31 39.9841 256.714 40.1051 257.178 40.1051C257.483 40.1051 257.76 40.0521 258.008 39.946C258.257 39.84 258.467 39.6875 258.64 39.4886C258.812 39.2898 258.935 39.0511 259.007 38.7727H260.181C260.114 39.2235 259.95 39.6295 259.689 39.9908C259.43 40.3487 259.087 40.6338 258.659 40.8459C258.235 41.0547 257.741 41.1591 257.178 41.1591ZM267.842 41L265.058 30.8182H266.311L268.439 39.1108H268.538L270.706 30.8182H272.098L274.265 39.1108H274.365L276.493 30.8182H277.745L274.961 41H273.689L271.441 32.8864H271.362L269.115 41H267.842ZM281.613 41.1591C280.878 41.1591 280.243 40.9967 279.709 40.6719C279.179 40.3438 278.77 39.8864 278.481 39.2997C278.196 38.7098 278.054 38.0237 278.054 37.2415C278.054 36.4593 278.196 35.7699 278.481 35.1733C278.77 34.5734 279.171 34.1061 279.684 33.7713C280.201 33.4332 280.805 33.2642 281.494 33.2642C281.892 33.2642 282.284 33.3305 282.672 33.4631C283.06 33.5956 283.413 33.8111 283.731 34.1094C284.049 34.4044 284.303 34.7955 284.492 35.2827C284.681 35.7699 284.775 36.3698 284.775 37.0824V37.5795H278.889V36.5653H283.582C283.582 36.1345 283.496 35.75 283.324 35.4119C283.154 35.0739 282.913 34.8071 282.598 34.6115C282.286 34.416 281.918 34.3182 281.494 34.3182C281.027 34.3182 280.622 34.4342 280.281 34.6662C279.943 34.8949 279.683 35.1932 279.5 35.5611C279.318 35.929 279.227 36.3234 279.227 36.7443V37.4205C279.227 37.9972 279.326 38.486 279.525 38.8871C279.727 39.2848 280.007 39.5881 280.365 39.7969C280.723 40.0024 281.139 40.1051 281.613 40.1051C281.922 40.1051 282.2 40.062 282.449 39.9759C282.7 39.8864 282.918 39.7538 283.1 39.5781C283.282 39.3991 283.423 39.1771 283.522 38.9119L284.656 39.2301C284.537 39.6146 284.336 39.9527 284.054 40.2443C283.773 40.5327 283.425 40.758 283.01 40.9205C282.596 41.0795 282.13 41.1591 281.613 41.1591ZM286.719 41V30.8182H287.892V34.5767H287.992C288.078 34.4441 288.197 34.2751 288.35 34.0696C288.506 33.8608 288.728 33.6752 289.016 33.5128C289.308 33.3471 289.702 33.2642 290.199 33.2642C290.842 33.2642 291.409 33.425 291.9 33.7464C292.39 34.0679 292.773 34.5237 293.048 35.1136C293.323 35.7036 293.461 36.3996 293.461 37.2017C293.461 38.0104 293.323 38.7114 293.048 39.3047C292.773 39.8946 292.392 40.352 291.904 40.6768C291.417 40.9983 290.855 41.1591 290.219 41.1591C289.729 41.1591 289.336 41.0779 289.041 40.9155C288.746 40.7498 288.519 40.5625 288.36 40.3537C288.201 40.1416 288.078 39.9659 287.992 39.8267H287.853V41H286.719ZM287.873 37.1818C287.873 37.7585 287.957 38.2673 288.126 38.7081C288.295 39.1456 288.542 39.4886 288.867 39.7372C289.192 39.9825 289.589 40.1051 290.06 40.1051C290.551 40.1051 290.96 39.9759 291.288 39.7173C291.619 39.4555 291.868 39.1042 292.034 38.6634C292.203 38.2192 292.287 37.7254 292.287 37.1818C292.287 36.6449 292.204 36.161 292.039 35.7301C291.876 35.2959 291.629 34.9529 291.298 34.701C290.97 34.4458 290.557 34.3182 290.06 34.3182C289.583 34.3182 289.182 34.4392 288.857 34.6811C288.532 34.9197 288.287 35.2545 288.121 35.6854C287.955 36.1129 287.873 36.6117 287.873 37.1818Z" fill="#8C8C92"/>
<path d="M29.6242 171.844H30.8571V167.29H36.2861V171.844H37.519V161.662H36.2861V166.196H30.8571V161.662H29.6242V171.844ZM43.1966 172.003C45.2648 172.003 46.6568 170.432 46.6568 168.065C46.6568 165.679 45.2648 164.108 43.1966 164.108C41.1284 164.108 39.7364 165.679 39.7364 168.065C39.7364 170.432 41.1284 172.003 43.1966 172.003ZM43.1966 170.949C41.6256 170.949 40.9097 169.597 40.9097 168.065C40.9097 166.534 41.6256 165.162 43.1966 165.162C44.7676 165.162 45.4836 166.534 45.4836 168.065C45.4836 169.597 44.7676 170.949 43.1966 170.949ZM50.961 172.023C52.2934 172.023 52.9894 171.307 53.2281 170.81H53.2877V171.844H54.461V166.812C54.461 164.386 52.6116 164.108 51.6372 164.108C50.4837 164.108 49.1712 164.506 48.5747 165.898L49.6883 166.295C49.9468 165.739 50.5583 165.142 51.6769 165.142C52.7558 165.142 53.2877 165.714 53.2877 166.693V166.733C53.2877 167.3 52.711 167.25 51.319 167.429C49.9021 167.613 48.3559 167.926 48.3559 169.676C48.3559 171.168 49.5093 172.023 50.961 172.023ZM51.14 170.969C50.2053 170.969 49.5292 170.551 49.5292 169.736C49.5292 168.841 50.3445 168.562 51.2593 168.443C51.7565 168.384 53.0889 168.244 53.2877 168.006V169.08C53.2877 170.034 52.532 170.969 51.14 170.969ZM52.6911 161.662C52.6911 162.179 52.4127 162.636 51.7167 162.636C51.0207 162.636 50.7622 162.179 50.7622 161.662H49.6684C49.6684 162.736 50.4639 163.491 51.7167 163.491C52.9894 163.491 53.7849 162.736 53.7849 161.662H52.6911ZM51.657 174.369C52.1144 174.369 52.4923 174.011 52.4923 173.574C52.4923 173.136 52.1144 172.778 51.657 172.778C51.1997 172.778 50.8218 173.136 50.8218 173.574C50.8218 174.011 51.1997 174.369 51.657 174.369ZM59.9708 172.003C61.6612 172.003 62.7748 170.969 62.9737 169.616H61.8004C61.5816 170.452 60.8856 170.949 59.9708 170.949C58.5788 170.949 57.6839 169.795 57.6839 168.026C57.6839 166.295 58.5987 165.162 59.9708 165.162C61.0049 165.162 61.6214 165.798 61.8004 166.494H62.9737C62.7748 165.062 61.5617 164.108 59.9509 164.108C57.8827 164.108 56.5106 165.739 56.5106 168.065C56.5106 170.352 57.8231 172.003 59.9708 172.003ZM75.5419 174.707V164.207H74.4084V165.42H74.2691C74.0106 165.023 73.5532 164.108 72.0618 164.108C70.1328 164.108 68.8004 165.639 68.8004 168.045C68.8004 170.472 70.1328 172.003 72.0419 172.003C73.5135 172.003 74.0106 171.088 74.2691 170.67H74.3686V174.707H75.5419ZM74.3885 168.026C74.3885 169.756 73.6129 170.949 72.201 170.949C70.7294 170.949 69.9737 169.656 69.9737 168.026C69.9737 166.415 70.7095 165.162 72.201 165.162C73.6328 165.162 74.3885 166.315 74.3885 168.026ZM82.7681 168.722C82.7681 170.153 81.6744 170.81 80.7994 170.81C79.8249 170.81 79.1289 170.094 79.1289 168.98V164.207H77.9556V169.06C77.9556 171.009 78.9897 171.943 80.4215 171.943C81.5749 171.943 82.3306 171.327 82.6886 170.551H82.7681V171.844H83.9414V164.207H82.7681V168.722ZM89.5581 172.003C91.1092 172.003 92.2427 171.227 92.6007 170.074L91.4672 169.756C91.1689 170.551 90.4778 170.949 89.5581 170.949C88.1809 170.949 87.2314 170.059 87.1767 168.423H92.72V167.926C92.72 165.082 91.0297 164.108 89.4388 164.108C87.3706 164.108 85.9984 165.739 85.9984 168.085C85.9984 170.432 87.3507 172.003 89.5581 172.003ZM87.1767 167.409C87.2562 166.221 88.0964 165.162 89.4388 165.162C90.7115 165.162 91.5268 166.116 91.5268 167.409H87.1767ZM88.8422 163.173H89.8763L91.4274 160.866H90.0552L88.8422 163.173ZM98.0918 164.207H96.4611V162.378H95.2878V164.207H94.1344V165.202H95.2878V169.974C95.2878 171.307 96.3617 171.943 97.356 171.943C97.7935 171.943 98.0719 171.864 98.231 171.804L97.9924 170.75C97.893 170.77 97.7339 170.81 97.4753 170.81C96.9583 170.81 96.4611 170.651 96.4611 169.656V165.202H98.0918V164.207ZM110.571 164.207H109.298L107.19 170.293H107.11L105.002 164.207H103.73L106.554 171.844H107.747L110.571 164.207ZM114.4 172.023C115.732 172.023 116.428 171.307 116.667 170.81H116.727V171.844H117.9V166.812C117.9 164.386 116.051 164.108 115.076 164.108C113.923 164.108 112.61 164.506 112.014 165.898L113.127 166.295C113.386 165.739 113.997 165.142 115.116 165.142C116.195 165.142 116.727 165.714 116.727 166.693V166.733C116.727 167.3 116.15 167.25 114.758 167.429C113.341 167.613 111.795 167.926 111.795 169.676C111.795 171.168 112.948 172.023 114.4 172.023ZM114.579 170.969C113.644 170.969 112.968 170.551 112.968 169.736C112.968 168.841 113.783 168.562 114.698 168.443C115.195 168.384 116.528 168.244 116.727 168.006V169.08C116.727 170.034 115.971 170.969 114.579 170.969ZM114.658 163.173H115.693L114.479 160.866H113.107L114.658 163.173ZM127.832 164.207H126.201V162.378H125.028V164.207H123.875V165.202H125.028V169.974C125.028 171.307 126.102 171.943 127.096 171.943C127.534 171.943 127.812 171.864 127.971 171.804L127.733 170.75C127.633 170.77 127.474 170.81 127.216 170.81C126.698 170.81 126.201 170.651 126.201 169.656V165.202H127.832V164.207ZM129.863 171.844H131.036V167.011C131.036 165.977 131.852 165.222 132.965 165.222C133.278 165.222 133.602 165.281 133.681 165.301V164.108C133.547 164.098 133.239 164.088 133.065 164.088C132.15 164.088 131.354 164.605 131.076 165.361H130.996V164.207H129.863V171.844ZM138.208 172.003C140.276 172.003 141.668 170.432 141.668 168.065C141.668 165.679 140.276 164.108 138.208 164.108C136.14 164.108 134.748 165.679 134.748 168.065C134.748 170.432 136.14 172.003 138.208 172.003ZM138.208 170.949C136.637 170.949 135.921 169.597 135.921 168.065C135.921 166.534 136.637 165.162 138.208 165.162C139.779 165.162 140.495 166.534 140.495 168.065C140.495 169.597 139.779 170.949 138.208 170.949ZM138.725 163.173V162.676C139.242 162.597 139.759 162.318 139.759 161.642C139.759 160.847 139.043 160.33 137.671 160.33L137.631 161.085C138.228 161.085 138.705 161.244 138.705 161.602C138.705 161.92 138.446 162.06 137.75 162.099V163.173H138.725ZM151.031 172.003C152.721 172.003 153.835 170.969 154.034 169.616H152.86C152.642 170.452 151.946 170.949 151.031 170.949C149.639 170.949 148.744 169.795 148.744 168.026C148.744 166.295 149.659 165.162 151.031 165.162C152.065 165.162 152.681 165.798 152.86 166.494H154.034C153.835 165.062 152.622 164.108 151.011 164.108C148.943 164.108 147.571 165.739 147.571 168.065C147.571 170.352 148.883 172.003 151.031 172.003ZM158.262 172.023C159.594 172.023 160.29 171.307 160.529 170.81H160.589V171.844H161.762V166.812C161.762 164.386 159.913 164.108 158.938 164.108C157.785 164.108 156.472 164.506 155.876 165.898L156.989 166.295C157.248 165.739 157.859 165.142 158.978 165.142C160.057 165.142 160.589 165.714 160.589 166.693V166.733C160.589 167.3 160.012 167.25 158.62 167.429C157.203 167.613 155.657 167.926 155.657 169.676C155.657 171.168 156.81 172.023 158.262 172.023ZM158.441 170.969C157.506 170.969 156.83 170.551 156.83 169.736C156.83 168.841 157.645 168.562 158.56 168.443C159.057 168.384 160.39 168.244 160.589 168.006V169.08C160.589 170.034 159.833 170.969 158.441 170.969ZM164.169 171.844H165.343V167.071C165.343 165.952 166.158 165.162 167.073 165.162C167.963 165.162 168.584 165.744 168.584 166.614V171.844H169.777V166.872C169.777 165.888 170.394 165.162 171.468 165.162C172.303 165.162 173.019 165.604 173.019 166.733V171.844H174.192V166.733C174.192 164.938 173.228 164.108 171.865 164.108C170.772 164.108 169.971 164.61 169.579 165.401H169.499C169.121 164.585 168.455 164.108 167.451 164.108C166.456 164.108 165.721 164.585 165.402 165.401H165.303V164.207H164.169V171.844ZM179.805 172.003C181.356 172.003 182.49 171.227 182.848 170.074L181.714 169.756C181.416 170.551 180.725 170.949 179.805 170.949C178.428 170.949 177.478 170.059 177.424 168.423H182.967V167.926C182.967 165.082 181.277 164.108 179.686 164.108C177.618 164.108 176.245 165.739 176.245 168.085C176.245 170.432 177.598 172.003 179.805 172.003ZM177.424 167.409C177.503 166.221 178.343 165.162 179.686 165.162C180.959 165.162 181.774 166.116 181.774 167.409H177.424ZM185.018 171.844H186.191V167.011C186.191 165.977 187.007 165.222 188.12 165.222C188.433 165.222 188.757 165.281 188.836 165.301V164.108C188.702 164.098 188.394 164.088 188.22 164.088C187.305 164.088 186.509 164.605 186.231 165.361H186.151V164.207H185.018V171.844ZM192.74 172.023C194.072 172.023 194.768 171.307 195.007 170.81H195.067V171.844H196.24V166.812C196.24 164.386 194.391 164.108 193.416 164.108C192.263 164.108 190.95 164.506 190.354 165.898L191.467 166.295C191.726 165.739 192.337 165.142 193.456 165.142C194.535 165.142 195.067 165.714 195.067 166.693V166.733C195.067 167.3 194.49 167.25 193.098 167.429C191.681 167.613 190.135 167.926 190.135 169.676C190.135 171.168 191.288 172.023 192.74 172.023ZM192.919 170.969C191.984 170.969 191.308 170.551 191.308 169.736C191.308 168.841 192.124 168.562 193.038 168.443C193.535 168.384 194.868 168.244 195.067 168.006V169.08C195.067 170.034 194.311 170.969 192.919 170.969ZM209.095 164.207H207.823L205.715 170.293H205.635L203.527 164.207H202.254L205.078 171.844H206.271L209.095 164.207ZM212.925 172.023C214.257 172.023 214.953 171.307 215.192 170.81H215.251V171.844H216.425V166.812C216.425 164.386 214.575 164.108 213.601 164.108C212.447 164.108 211.135 164.506 210.538 165.898L211.652 166.295C211.911 165.739 212.522 165.142 213.641 165.142C214.719 165.142 215.251 165.714 215.251 166.693V166.733C215.251 167.3 214.675 167.25 213.283 167.429C211.866 167.613 210.32 167.926 210.32 169.676C210.32 171.168 211.473 172.023 212.925 172.023ZM213.104 170.969C212.169 170.969 211.493 170.551 211.493 169.736C211.493 168.841 212.308 168.562 213.223 168.443C213.72 168.384 215.053 168.244 215.251 168.006V169.08C215.251 170.034 214.496 170.969 213.104 170.969ZM213.183 163.173H214.217L213.004 160.866H211.632L213.183 163.173ZM221.935 172.003C224.003 172.003 225.395 170.432 225.395 168.065C225.395 165.679 224.003 164.108 221.935 164.108C219.866 164.108 218.474 165.679 218.474 168.065C218.474 170.432 219.866 172.003 221.935 172.003ZM221.935 170.949C220.363 170.949 219.648 169.597 219.648 168.065C219.648 166.534 220.363 165.162 221.935 165.162C223.506 165.162 224.221 166.534 224.221 168.065C224.221 169.597 223.506 170.949 221.935 170.949ZM231.655 171.844H232.829V167.071C232.829 165.952 233.644 165.162 234.559 165.162C235.449 165.162 236.07 165.744 236.07 166.614V171.844H237.263V166.872C237.263 165.888 237.88 165.162 238.954 165.162C239.789 165.162 240.505 165.604 240.505 166.733V171.844H241.678V166.733C241.678 164.938 240.713 164.108 239.351 164.108C238.258 164.108 237.457 164.61 237.064 165.401H236.985C236.607 164.585 235.941 164.108 234.937 164.108C233.942 164.108 233.206 164.585 232.888 165.401H232.789V164.207H231.655V171.844ZM246.336 172.023C247.669 172.023 248.365 171.307 248.603 170.81H248.663V171.844H249.836V166.812C249.836 164.386 247.987 164.108 247.013 164.108C245.859 164.108 244.547 164.506 243.95 165.898L245.064 166.295C245.322 165.739 245.934 165.142 247.052 165.142C248.131 165.142 248.663 165.714 248.663 166.693V166.733C248.663 167.3 248.086 167.25 246.694 167.429C245.277 167.613 243.731 167.926 243.731 169.676C243.731 171.168 244.885 172.023 246.336 172.023ZM246.515 170.969C245.581 170.969 244.905 170.551 244.905 169.736C244.905 168.841 245.72 168.562 246.635 168.443C247.132 168.384 248.464 168.244 248.663 168.006V169.08C248.663 170.034 247.907 170.969 246.515 170.969ZM245.561 163.293C245.561 162.875 245.839 162.537 246.217 162.537C246.973 162.537 247.112 163.173 248.027 163.173C248.882 163.173 249.538 162.517 249.538 161.483L248.643 161.403C248.643 161.821 248.345 162.159 247.967 162.159C247.251 162.159 246.913 161.523 246.157 161.523C245.302 161.523 244.646 162.239 244.646 163.253L245.561 163.293ZM265.197 166.753C265.197 163.531 263.308 161.523 260.703 161.523C258.098 161.523 256.209 163.531 256.209 166.753C256.209 169.974 258.098 171.983 260.703 171.983C261.369 171.983 261.986 171.854 262.538 171.605L263.428 172.798H264.78L263.452 171.033C264.536 170.143 265.197 168.662 265.197 166.753ZM260.305 168.662L261.817 170.641C261.469 170.765 261.096 170.83 260.703 170.83C258.854 170.83 257.402 169.398 257.402 166.753C257.402 164.108 258.854 162.676 260.703 162.676C262.553 162.676 264.004 164.108 264.004 166.753C264.004 168.289 263.517 169.413 262.741 170.089L261.658 168.662H260.305ZM267.537 171.844H268.769V167.866H270.997C271.086 167.866 271.171 167.866 271.255 167.862L273.403 171.844H274.835L272.533 167.638C273.831 167.195 274.437 166.136 274.437 164.784C274.437 162.984 273.363 161.662 270.977 161.662H267.537V171.844ZM268.769 166.753V162.756H270.937C272.588 162.756 273.224 163.561 273.224 164.784C273.224 166.007 272.588 166.753 270.957 166.753H268.769ZM289.154 164.844C288.776 162.756 287.106 161.523 285.058 161.523C282.453 161.523 280.563 163.531 280.563 166.753C280.563 169.974 282.453 171.983 285.058 171.983C287.106 171.983 288.776 170.75 289.154 168.662H287.921C287.623 170.074 286.41 170.83 285.058 170.83C283.208 170.83 281.757 169.398 281.757 166.753C281.757 164.108 283.208 162.676 285.058 162.676C286.41 162.676 287.623 163.432 287.921 164.844H289.154ZM294.356 172.003C296.424 172.003 297.816 170.432 297.816 168.065C297.816 165.679 296.424 164.108 294.356 164.108C292.288 164.108 290.896 165.679 290.896 168.065C290.896 170.432 292.288 172.003 294.356 172.003ZM294.356 170.949C292.785 170.949 292.069 169.597 292.069 168.065C292.069 166.534 292.785 165.162 294.356 165.162C295.927 165.162 296.643 166.534 296.643 168.065C296.643 169.597 295.927 170.949 294.356 170.949ZM302.757 172.003C304.228 172.003 304.725 171.088 304.984 170.67H305.123V171.844H306.257V161.662H305.083V165.42H304.984C304.725 165.023 304.268 164.108 302.776 164.108C300.848 164.108 299.515 165.639 299.515 168.045C299.515 170.472 300.848 172.003 302.757 172.003ZM302.916 170.949C301.444 170.949 300.688 169.656 300.688 168.026C300.688 166.415 301.424 165.162 302.916 165.162C304.348 165.162 305.103 166.315 305.103 168.026C305.103 169.756 304.328 170.949 302.916 170.949ZM312.036 172.003C313.587 172.003 314.721 171.227 315.079 170.074L313.945 169.756C313.647 170.551 312.956 170.949 312.036 170.949C310.659 170.949 309.709 170.059 309.655 168.423H315.198V167.926C315.198 165.082 313.508 164.108 311.917 164.108C309.849 164.108 308.476 165.739 308.476 168.085C308.476 170.432 309.829 172.003 312.036 172.003ZM309.655 167.409C309.734 166.221 310.574 165.162 311.917 165.162C313.19 165.162 314.005 166.116 314.005 167.409H309.655Z" fill="white" fill-opacity="0.87"/>
<rect x="0.75" y="190.75" width="341.5" height="46.5" rx="7.25" stroke="white" stroke-width="1.5"/>
<path d="M113.782 219.251H107.219C106.133 219.251 105.25 218.367 105.25 217.282V210.719C105.25 209.634 106.133 208.751 107.219 208.751H113.781C114.867 208.751 115.75 209.634 115.75 210.719V217.282C115.751 218.367 114.867 219.251 113.782 219.251ZM103.281 210.063C103.643 210.063 103.938 209.769 103.938 209.407V208.094C103.938 207.733 104.232 207.438 104.594 207.438H105.906C106.269 207.438 106.562 207.144 106.562 206.782C106.562 206.42 106.269 206.126 105.906 206.126H104.594C103.508 206.126 102.625 207.009 102.625 208.094V209.407C102.625 209.769 102.919 210.063 103.281 210.063ZM116.406 206.126H115.094C114.731 206.126 114.438 206.42 114.438 206.782C114.438 207.144 114.731 207.438 115.094 207.438H116.406C116.769 207.438 117.062 207.733 117.062 208.094V209.407C117.062 209.769 117.356 210.063 117.719 210.063C118.082 210.063 118.375 209.769 118.375 209.407V208.094C118.375 207.009 117.492 206.126 116.406 206.126ZM105.906 220.562H104.594C104.232 220.562 103.938 220.268 103.938 219.906V218.594C103.938 218.231 103.643 217.937 103.281 217.937C102.919 217.937 102.625 218.231 102.625 218.594V219.906C102.625 220.992 103.508 221.875 104.594 221.875H105.906C106.269 221.875 106.562 221.582 106.562 221.219C106.562 220.856 106.269 220.562 105.906 220.562ZM117.719 217.937C117.356 217.937 117.062 218.231 117.062 218.594V219.906C117.062 220.268 116.769 220.562 116.406 220.562H115.094C114.731 220.562 114.438 220.856 114.438 221.219C114.438 221.582 114.731 221.875 115.094 221.875H116.406C117.492 221.875 118.375 220.992 118.375 219.906V218.594C118.375 218.231 118.082 217.937 117.719 217.937Z" fill="white"/>
<path d="M138.483 216.091H140.392L141.523 217.557L142.33 218.511L144.267 221H142.222L140.903 219.33L140.341 218.534L138.483 216.091ZM144.545 214.182C144.545 215.436 144.311 216.509 143.841 217.403C143.375 218.294 142.739 218.975 141.932 219.449C141.129 219.922 140.218 220.159 139.199 220.159C138.18 220.159 137.267 219.922 136.46 219.449C135.657 218.972 135.021 218.288 134.551 217.398C134.085 216.504 133.852 215.432 133.852 214.182C133.852 212.928 134.085 211.856 134.551 210.966C135.021 210.072 135.657 209.388 136.46 208.915C137.267 208.441 138.18 208.205 139.199 208.205C140.218 208.205 141.129 208.441 141.932 208.915C142.739 209.388 143.375 210.072 143.841 210.966C144.311 211.856 144.545 212.928 144.545 214.182ZM142.426 214.182C142.426 213.299 142.288 212.555 142.011 211.949C141.739 211.339 141.36 210.879 140.875 210.568C140.39 210.254 139.831 210.097 139.199 210.097C138.566 210.097 138.008 210.254 137.523 210.568C137.038 210.879 136.657 211.339 136.381 211.949C136.108 212.555 135.972 213.299 135.972 214.182C135.972 215.064 136.108 215.811 136.381 216.42C136.657 217.027 137.038 217.487 137.523 217.801C138.008 218.112 138.566 218.267 139.199 218.267C139.831 218.267 140.39 218.112 140.875 217.801C141.36 217.487 141.739 217.027 142.011 216.42C142.288 215.811 142.426 215.064 142.426 214.182ZM152.026 216.33V211.273H154.082V220H152.088V218.449H151.997C151.8 218.937 151.476 219.337 151.026 219.648C150.579 219.958 150.027 220.114 149.372 220.114C148.8 220.114 148.295 219.987 147.855 219.733C147.42 219.475 147.079 219.102 146.832 218.614C146.586 218.121 146.463 217.527 146.463 216.83V211.273H148.52V216.511C148.52 217.064 148.671 217.504 148.974 217.83C149.277 218.155 149.675 218.318 150.168 218.318C150.471 218.318 150.764 218.244 151.048 218.097C151.332 217.949 151.565 217.729 151.747 217.438C151.933 217.142 152.026 216.773 152.026 216.33ZM160.061 220.17C159.186 220.17 158.43 219.989 157.794 219.625C157.161 219.258 156.675 218.739 156.334 218.068C155.993 217.394 155.822 216.6 155.822 215.688C155.822 214.79 155.993 214.002 156.334 213.324C156.679 212.642 157.16 212.112 157.777 211.733C158.394 211.35 159.12 211.159 159.953 211.159C160.491 211.159 160.999 211.246 161.476 211.42C161.957 211.591 162.381 211.856 162.749 212.216C163.12 212.576 163.411 213.034 163.624 213.591C163.836 214.144 163.942 214.803 163.942 215.568V216.199H156.788V214.812H161.97C161.966 214.419 161.881 214.068 161.714 213.761C161.548 213.451 161.315 213.206 161.016 213.028C160.72 212.85 160.375 212.761 159.982 212.761C159.561 212.761 159.192 212.864 158.874 213.068C158.555 213.269 158.307 213.534 158.129 213.864C157.955 214.189 157.866 214.547 157.862 214.938V216.148C157.862 216.655 157.955 217.091 158.141 217.455C158.326 217.814 158.586 218.091 158.919 218.284C159.252 218.473 159.643 218.568 160.089 218.568C160.389 218.568 160.66 218.527 160.902 218.443C161.144 218.356 161.355 218.229 161.533 218.062C161.711 217.896 161.845 217.689 161.936 217.443L163.857 217.659C163.735 218.167 163.504 218.61 163.163 218.989C162.826 219.364 162.394 219.655 161.868 219.864C161.341 220.068 160.739 220.17 160.061 220.17ZM159.107 210.125L160.379 207.528H162.391L160.646 210.125H159.107ZM170.04 211.273V212.864H165.023V211.273H170.04ZM166.261 209.182H168.318V217.375C168.318 217.652 168.36 217.864 168.443 218.011C168.53 218.155 168.644 218.254 168.784 218.307C168.924 218.36 169.08 218.386 169.25 218.386C169.379 218.386 169.496 218.377 169.602 218.358C169.712 218.339 169.795 218.322 169.852 218.307L170.199 219.915C170.089 219.953 169.932 219.994 169.727 220.04C169.527 220.085 169.28 220.112 168.989 220.119C168.473 220.134 168.009 220.057 167.597 219.886C167.184 219.712 166.856 219.443 166.614 219.08C166.375 218.716 166.258 218.261 166.261 217.716V209.182ZM180.155 216.091H182.064L183.195 217.557L184.001 218.511L185.939 221H183.893L182.575 219.33L182.013 218.534L180.155 216.091ZM186.217 214.182C186.217 215.436 185.982 216.509 185.513 217.403C185.047 218.294 184.411 218.975 183.604 219.449C182.801 219.922 181.89 220.159 180.871 220.159C179.852 220.159 178.939 219.922 178.132 219.449C177.329 218.972 176.693 218.288 176.223 217.398C175.757 216.504 175.524 215.432 175.524 214.182C175.524 212.928 175.757 211.856 176.223 210.966C176.693 210.072 177.329 209.388 178.132 208.915C178.939 208.441 179.852 208.205 180.871 208.205C181.89 208.205 182.801 208.441 183.604 208.915C184.411 209.388 185.047 210.072 185.513 210.966C185.982 211.856 186.217 212.928 186.217 214.182ZM184.098 214.182C184.098 213.299 183.96 212.555 183.683 211.949C183.411 211.339 183.032 210.879 182.547 210.568C182.062 210.254 181.503 210.097 180.871 210.097C180.238 210.097 179.679 210.254 179.195 210.568C178.71 210.879 178.329 211.339 178.053 211.949C177.78 212.555 177.643 213.299 177.643 214.182C177.643 215.064 177.78 215.811 178.053 216.42C178.329 217.027 178.71 217.487 179.195 217.801C179.679 218.112 180.238 218.267 180.871 218.267C181.503 218.267 182.062 218.112 182.547 217.801C183.032 217.487 183.411 217.027 183.683 216.42C183.96 215.811 184.098 215.064 184.098 214.182ZM188.226 220V208.364H192.589C193.483 208.364 194.233 208.519 194.839 208.83C195.449 209.14 195.91 209.576 196.22 210.136C196.535 210.693 196.692 211.343 196.692 212.085C196.692 212.831 196.533 213.479 196.214 214.028C195.9 214.574 195.436 214.996 194.822 215.295C194.209 215.591 193.455 215.739 192.561 215.739H189.453V213.989H192.277C192.8 213.989 193.228 213.917 193.561 213.773C193.894 213.625 194.141 213.411 194.3 213.131C194.463 212.847 194.544 212.498 194.544 212.085C194.544 211.672 194.463 211.32 194.3 211.028C194.137 210.733 193.889 210.509 193.555 210.358C193.222 210.203 192.792 210.125 192.266 210.125H190.334V220H188.226ZM194.237 214.727L197.118 220H194.766L191.936 214.727H194.237ZM212.561 212.29H210.436C210.375 211.941 210.264 211.633 210.101 211.364C209.938 211.091 209.735 210.86 209.493 210.67C209.25 210.481 208.974 210.339 208.663 210.244C208.357 210.146 208.025 210.097 207.669 210.097C207.036 210.097 206.476 210.256 205.987 210.574C205.499 210.888 205.116 211.35 204.839 211.96C204.563 212.566 204.425 213.307 204.425 214.182C204.425 215.072 204.563 215.822 204.839 216.432C205.12 217.038 205.502 217.496 205.987 217.807C206.476 218.114 207.035 218.267 207.663 218.267C208.012 218.267 208.338 218.222 208.641 218.131C208.947 218.036 209.222 217.898 209.464 217.716C209.711 217.534 209.917 217.311 210.084 217.045C210.254 216.78 210.372 216.477 210.436 216.136L212.561 216.148C212.482 216.701 212.309 217.22 212.044 217.705C211.783 218.189 211.44 218.617 211.016 218.989C210.591 219.356 210.095 219.644 209.527 219.852C208.959 220.057 208.328 220.159 207.635 220.159C206.612 220.159 205.699 219.922 204.896 219.449C204.093 218.975 203.461 218.292 202.999 217.398C202.536 216.504 202.305 215.432 202.305 214.182C202.305 212.928 202.538 211.856 203.004 210.966C203.47 210.072 204.105 209.388 204.908 208.915C205.711 208.441 206.62 208.205 207.635 208.205C208.283 208.205 208.885 208.295 209.442 208.477C209.999 208.659 210.495 208.926 210.93 209.278C211.366 209.627 211.724 210.055 212.004 210.562C212.288 211.066 212.474 211.642 212.561 212.29ZM218.207 220.17C217.355 220.17 216.616 219.983 215.991 219.608C215.366 219.233 214.882 218.708 214.537 218.034C214.196 217.36 214.026 216.572 214.026 215.67C214.026 214.769 214.196 213.979 214.537 213.301C214.882 212.623 215.366 212.097 215.991 211.722C216.616 211.347 217.355 211.159 218.207 211.159C219.06 211.159 219.798 211.347 220.423 211.722C221.048 212.097 221.531 212.623 221.872 213.301C222.217 213.979 222.389 214.769 222.389 215.67C222.389 216.572 222.217 217.36 221.872 218.034C221.531 218.708 221.048 219.233 220.423 219.608C219.798 219.983 219.06 220.17 218.207 220.17ZM218.219 218.523C218.681 218.523 219.067 218.396 219.378 218.142C219.688 217.884 219.92 217.54 220.071 217.108C220.226 216.676 220.304 216.195 220.304 215.665C220.304 215.131 220.226 214.648 220.071 214.216C219.92 213.78 219.688 213.434 219.378 213.176C219.067 212.919 218.681 212.79 218.219 212.79C217.745 212.79 217.351 212.919 217.037 213.176C216.726 213.434 216.493 213.78 216.338 214.216C216.187 214.648 216.111 215.131 216.111 215.665C216.111 216.195 216.187 216.676 216.338 217.108C216.493 217.54 216.726 217.884 217.037 218.142C217.351 218.396 217.745 218.523 218.219 218.523ZM227.374 220.153C226.688 220.153 226.074 219.977 225.533 219.625C224.991 219.273 224.563 218.761 224.249 218.091C223.934 217.42 223.777 216.606 223.777 215.648C223.777 214.678 223.936 213.86 224.254 213.193C224.576 212.523 225.01 212.017 225.555 211.676C226.101 211.331 226.709 211.159 227.379 211.159C227.891 211.159 228.311 211.246 228.641 211.42C228.97 211.591 229.232 211.797 229.425 212.04C229.618 212.278 229.768 212.504 229.874 212.716H229.959V208.364H232.021V220H229.999V218.625H229.874C229.768 218.837 229.614 219.062 229.413 219.301C229.213 219.536 228.947 219.737 228.618 219.903C228.288 220.07 227.874 220.153 227.374 220.153ZM227.947 218.466C228.383 218.466 228.754 218.348 229.061 218.114C229.368 217.875 229.601 217.544 229.76 217.119C229.919 216.695 229.999 216.201 229.999 215.636C229.999 215.072 229.919 214.581 229.76 214.165C229.605 213.748 229.374 213.424 229.067 213.193C228.764 212.962 228.391 212.847 227.947 212.847C227.489 212.847 227.107 212.966 226.8 213.205C226.493 213.443 226.262 213.773 226.107 214.193C225.951 214.614 225.874 215.095 225.874 215.636C225.874 216.182 225.951 216.669 226.107 217.097C226.266 217.521 226.499 217.856 226.805 218.102C227.116 218.345 227.497 218.466 227.947 218.466ZM238.077 220.17C237.202 220.17 236.446 219.989 235.81 219.625C235.177 219.258 234.69 218.739 234.349 218.068C234.009 217.394 233.838 216.6 233.838 215.688C233.838 214.79 234.009 214.002 234.349 213.324C234.694 212.642 235.175 212.112 235.793 211.733C236.41 211.35 237.135 211.159 237.969 211.159C238.507 211.159 239.014 211.246 239.491 211.42C239.973 211.591 240.397 211.856 240.764 212.216C241.135 212.576 241.427 213.034 241.639 213.591C241.851 214.144 241.957 214.803 241.957 215.568V216.199H234.804V214.812H239.986C239.982 214.419 239.897 214.068 239.73 213.761C239.563 213.451 239.33 213.206 239.031 213.028C238.736 212.85 238.391 212.761 237.997 212.761C237.577 212.761 237.207 212.864 236.889 213.068C236.571 213.269 236.323 213.534 236.145 213.864C235.971 214.189 235.882 214.547 235.878 214.938V216.148C235.878 216.655 235.971 217.091 236.156 217.455C236.342 217.814 236.601 218.091 236.935 218.284C237.268 218.473 237.658 218.568 238.105 218.568C238.404 218.568 238.675 218.527 238.918 218.443C239.16 218.356 239.37 218.229 239.548 218.062C239.726 217.896 239.861 217.689 239.952 217.443L241.872 217.659C241.751 218.167 241.52 218.61 241.179 218.989C240.842 219.364 240.41 219.655 239.884 219.864C239.357 220.068 238.755 220.17 238.077 220.17Z" fill="white"/>
</svg>
