<svg viewBox="0 0 20 20" fill="none" xmlns="http://www.w3.org/2000/svg">
<path fill-rule="evenodd" clip-rule="evenodd" d="M10 7.75C8.75736 7.75 7.75 8.75736 7.75 10C7.75 11.2426 8.75736 12.25 10 12.25C11.2426 12.25 12.25 11.2426 12.25 10C12.25 8.75736 11.2426 7.75 10 7.75ZM6.25 10C6.25 7.92893 7.92893 6.25 10 6.25C12.0711 6.25 13.75 7.92893 13.75 10C13.75 12.0711 12.0711 13.75 10 13.75C7.92893 13.75 6.25 12.0711 6.25 10Z" fill="white"/>
<path d="M11.6848 1.1368C11.3345 1 10.8897 1 10 1C9.11033 1 8.66549 1 8.31516 1.1368C8.08337 1.22726 7.87276 1.35991 7.69537 1.52715C7.51798 1.6944 7.37729 1.89296 7.28134 2.1115C7.19352 2.3122 7.1582 2.5471 7.14484 2.8882C7.13889 3.13479 7.06656 3.37591 6.93465 3.58891C6.80274 3.80192 6.61557 3.97981 6.39072 4.1059C6.16247 4.22654 5.90545 4.29049 5.64379 4.29175C5.38213 4.29301 5.12442 4.23153 4.89488 4.1131C4.57414 3.9529 4.34218 3.8647 4.11212 3.8359C3.61032 3.77368 3.10284 3.90188 2.70125 4.1923C2.40151 4.411 2.17813 4.7737 1.7333 5.5C1.28846 6.2263 1.06509 6.589 1.0164 6.9445C0.9836 7.17891 1.0001 7.41711 1.06496 7.64551C1.12982 7.8739 1.24177 8.08801 1.39442 8.2756C1.5357 8.4484 1.7333 8.5933 2.03972 8.7751C2.49124 9.0424 2.78143 9.4978 2.78143 10C2.78143 10.5022 2.49124 10.9576 2.03972 11.224C1.7333 11.4067 1.53474 11.5516 1.39442 11.7244C1.24177 11.912 1.12982 12.1261 1.06496 12.3545C1.0001 12.5829 0.9836 12.8211 1.0164 13.0555C1.06604 13.4101 1.28846 13.7737 1.73234 14.5C2.17813 15.2263 2.40055 15.589 2.70125 15.8077C2.90022 15.9516 3.12731 16.0572 3.36956 16.1183C3.6118 16.1795 3.86445 16.195 4.11308 16.1641C4.34218 16.1353 4.57414 16.0471 4.89488 15.8869C5.12442 15.7685 5.38213 15.707 5.64379 15.7082C5.90545 15.7095 6.16247 15.7735 6.39072 15.8941C6.85178 16.1461 7.12575 16.6096 7.14484 17.1118C7.1582 17.4538 7.19257 17.6878 7.28134 17.8885C7.37729 18.107 7.51798 18.3056 7.69537 18.4728C7.87276 18.6401 8.08337 18.7727 8.31516 18.8632C8.66549 19 9.11033 19 10 19C10.8897 19 11.3345 19 11.6848 18.8632C11.9166 18.7727 12.1272 18.6401 12.3046 18.4728C12.482 18.3056 12.6227 18.107 12.7187 17.8885C12.8065 17.6878 12.8418 17.4538 12.8552 17.1118C12.8743 16.6096 13.1482 16.1452 13.6093 15.8941C13.8375 15.7735 14.0946 15.7095 14.3562 15.7082C14.6179 15.707 14.8756 15.7685 15.1051 15.8869C15.4259 16.0471 15.6578 16.1353 15.8869 16.1641C16.1355 16.195 16.3882 16.1795 16.6304 16.1183C16.8727 16.0572 17.0998 15.9516 17.2988 15.8077C17.5994 15.5899 17.8219 15.2263 18.2667 14.5C18.7115 13.7737 18.9349 13.411 18.9836 13.0555C19.0164 12.8211 18.9999 12.5829 18.935 12.3545C18.8702 12.1261 18.7582 11.912 18.6056 11.7244C18.4643 11.5516 18.2667 11.4067 17.9603 11.2249C17.7367 11.0967 17.5513 10.9171 17.4215 10.7028C17.2918 10.4886 17.2219 10.2467 17.2186 10C17.2186 9.4978 17.5088 9.0424 17.9603 8.776C18.2667 8.5933 18.4653 8.4484 18.6056 8.2756C18.7582 8.08801 18.8702 7.8739 18.935 7.64551C18.9999 7.41711 19.0164 7.17891 18.9836 6.9445C18.934 6.5899 18.7115 6.2263 18.2677 5.5C17.8219 4.7737 17.5994 4.411 17.2988 4.1923C17.0998 4.04838 16.8727 3.94283 16.6304 3.88168C16.3882 3.82053 16.1355 3.80497 15.8869 3.8359C15.6578 3.8647 15.4259 3.9529 15.1042 4.1131C14.8747 4.23137 14.6172 4.29276 14.3557 4.2915C14.0943 4.29024 13.8374 4.22638 13.6093 4.1059C13.3844 3.97981 13.1973 3.80192 13.0654 3.58891C12.9334 3.37591 12.8611 3.13479 12.8552 2.8882C12.8418 2.5462 12.8074 2.3122 12.7187 2.1115C12.6227 1.89296 12.482 1.6944 12.3046 1.52715C12.1272 1.35991 11.9166 1.22726 11.6848 1.1368Z" stroke="white" stroke-width="1.5"/>
</svg>
