<svg viewBox="0 0 33 32" fill="none" xmlns="http://www.w3.org/2000/svg">
<g clip-path="url(#clip0_21675_7250)">
<path fill-rule="evenodd" clip-rule="evenodd" d="M25.3741 30.5278C25.1211 30.5276 24.8719 30.4658 24.6481 30.3478L16.4681 26.0478L8.28813 30.3478C8.03063 30.4822 7.7407 30.5421 7.451 30.5207C7.16131 30.4992 6.88335 30.3973 6.64844 30.2265C6.41353 30.0556 6.23099 29.8225 6.1214 29.5535C6.01181 29.2845 5.9795 28.9902 6.02813 28.7038L7.58813 19.5958L0.97013 13.1458C0.761919 12.9425 0.614727 12.685 0.54519 12.4024C0.475653 12.1198 0.486545 11.8234 0.576633 11.5467C0.666721 11.27 0.832415 11.024 1.05499 10.8365C1.27756 10.649 1.54813 10.5275 1.83613 10.4858L10.9801 9.15578L15.0701 0.869783C15.1989 0.608707 15.3982 0.388882 15.6455 0.235172C15.8927 0.081462 16.178 0 16.4691 0C16.7603 0 17.0456 0.081462 17.2928 0.235172C17.54 0.388882 17.7393 0.608707 17.8681 0.869783L21.9581 9.15578L31.1021 10.4858C31.39 10.5279 31.6603 10.6496 31.8826 10.8372C32.1049 11.0248 32.2704 11.2708 32.3602 11.5475C32.4501 11.8241 32.4608 12.1204 32.3912 12.4028C32.3215 12.6853 32.1743 12.9426 31.9661 13.1458L25.3501 19.5958L26.9101 28.7038C26.9486 28.9276 26.9377 29.1571 26.8782 29.3762C26.8187 29.5954 26.7122 29.7989 26.5659 29.9726C26.4196 30.1463 26.2372 30.286 26.0313 30.3819C25.8255 30.4778 25.6012 30.5276 25.3741 30.5278ZM16.4681 22.7278C16.7181 22.7278 16.9681 22.7878 17.1941 22.9058L23.3041 26.1178L22.1361 19.3158C22.0937 19.0665 22.1125 18.8107 22.1909 18.5703C22.2692 18.3299 22.4049 18.1121 22.5861 17.9358L27.5261 13.1158L20.6981 12.1258C20.4479 12.0893 20.2103 11.9924 20.0057 11.8437C19.8012 11.6949 19.6359 11.4986 19.5241 11.2718L16.4681 5.08378L13.4141 11.2718C13.3023 11.4986 13.137 11.6949 12.9325 11.8437C12.728 11.9924 12.4904 12.0893 12.2401 12.1258L5.41013 13.1178L10.3521 17.9338C10.5334 18.1101 10.669 18.3279 10.7474 18.5683C10.8258 18.8087 10.8446 19.0645 10.8021 19.3138L9.63413 26.1178L15.7441 22.9058C15.9674 22.7881 16.2158 22.7263 16.4681 22.7258V22.7278Z" fill="white"/>
</g>
<defs>
<clipPath id="clip0_21675_7250">
<rect width="32" height="32" fill="white" transform="translate(0.5)"/>
</clipPath>
</defs>
</svg>
