<svg viewBox="0 0 24 24" fill="none" xmlns="http://www.w3.org/2000/svg">
<path d="M2.18011 9.85994C2.09762 9.79988 2.03593 9.71557 2.00366 9.61876C1.97139 9.52195 1.97015 9.41749 2.00011 9.31994L2.08011 9.06994C2.10866 8.9735 2.1662 8.88818 2.24492 8.82556C2.32364 8.76294 2.41971 8.72607 2.52011 8.71994L8.91011 8.20994L11.3601 2.31994C11.4002 2.21939 11.4712 2.13418 11.5629 2.07666C11.6545 2.01913 11.7621 1.99226 11.8701 1.99994H12.1301C12.232 1.99778 12.332 2.02744 12.4163 2.0848C12.5005 2.14216 12.5648 2.22435 12.6001 2.31994L15.0601 8.20994L21.4501 8.71994C21.5505 8.72607 21.6466 8.76294 21.7253 8.82556C21.804 8.88818 21.8616 8.9735 21.8901 9.06994L21.9701 9.31994C22.0033 9.41449 22.0068 9.51695 21.9799 9.61351C21.9531 9.71006 21.8973 9.79607 21.8201 9.85994L17.0001 13.9999L18.4801 20.2099C18.504 20.3072 18.4987 20.4093 18.4649 20.5035C18.4311 20.5978 18.3703 20.68 18.2901 20.7399L18.0001 20.8999C17.9174 20.9558 17.8199 20.9857 17.7201 20.9857C17.6203 20.9857 17.5228 20.9558 17.4401 20.8999L12.0001 17.5999L6.53011 20.9299C6.44743 20.9858 6.34991 21.0157 6.25011 21.0157C6.15031 21.0157 6.05279 20.9858 5.97011 20.9299L5.75011 20.7799C5.66991 20.72 5.60913 20.6378 5.57535 20.5435C5.54156 20.4493 5.53626 20.3472 5.56011 20.2499L7.00011 13.9999L2.18011 9.85994Z" fill="white"/>
</svg>
