<svg viewBox="0 0 48 48" fill="none" xmlns="http://www.w3.org/2000/svg">
<path d="M38.8532 28.8348L35.4922 21.2727L38.8825 13.6447C38.9748 13.437 39.0137 13.2097 38.9958 12.9832C38.9779 12.7567 38.9036 12.5382 38.7798 12.3477C38.656 12.1572 38.4865 12.0006 38.2868 11.8923C38.0871 11.7839 37.8635 11.7272 37.6363 11.7272H25.3636V10.3636C25.3636 9.61053 24.7531 9 24 9H10.3636C9.61053 8.99994 9 9.61053 9 10.3636V37.6364C9 38.3895 9.61053 39 10.3636 39C11.1167 39 11.7272 38.3895 11.7272 37.6364V28.0909H22.6364V29.4545C22.6364 30.2076 23.2469 30.8181 24 30.8181H37.6381C38.3912 30.8181 39.0018 30.2076 39.0018 29.4545C39.0021 29.2391 38.9512 29.0266 38.8532 28.8348ZM22.6364 13.0909V25.3636H11.7273V11.7272H22.6364V13.0909H22.6364ZM25.3636 28.0909V14.4545H35.538L32.7539 20.7189C32.6764 20.8932 32.6364 21.0819 32.6364 21.2727C32.6364 21.4635 32.6764 21.6522 32.7539 21.8265L35.538 28.0909H25.3636Z" fill="white"/>
</svg>
