<svg viewBox="0 0 36 36" fill="none" xmlns="http://www.w3.org/2000/svg">
<path d="M30.7329 5.27206C27.3362 1.87234 22.82 0 18.0165 0C13.6868 0 9.56744 1.53342 6.30753 4.33823L2.81992 0.911316L2.12119 12.7595L14.1658 11.8688L10.7479 8.70282C12.8167 7.07849 15.3583 6.19492 18.0165 6.19492C24.5198 6.19492 29.8109 11.4906 29.8109 18C29.8109 24.5094 24.5198 29.8054 18.0165 29.8054C15.0307 29.8054 12.1822 28.6861 9.99536 26.6542C7.82034 24.6327 6.49402 21.8949 6.26111 18.9448L6.1842 17.9734H0L0.066742 19.0909C0.633911 28.5727 8.51825 36 18.0165 36C22.82 36 27.3362 34.1277 30.7329 30.7279C34.1293 27.3282 36 22.8079 36 18C36 13.1921 34.1293 8.67178 30.7329 5.27206Z" fill="white"/>
</svg>
