<svg viewBox="0 0 100 129" fill="none" xmlns="http://www.w3.org/2000/svg">
<path d="M0.327983 68.8074C-0.457435 62.0004 0.19708 55.4291 1.97736 49.3552C7.89418 29.1699 26.4562 14.3255 48.4741 14.0637V0.868668C48.4741 0.135611 49.3905 -0.257098 49.9926 0.187972L77.1419 20.1376C77.587 20.4779 77.587 21.1586 77.1419 21.4728L50.0188 41.4224C49.3905 41.8675 48.5003 41.4748 48.5003 40.7417V27.5729C34.0224 27.8085 21.6652 36.7361 16.3505 49.3552C14.3346 54.12 13.3136 59.3823 13.6016 64.9065C13.9943 72.4988 16.848 79.4891 21.351 85.1441C23.7596 88.1548 23.1837 92.5532 20.0682 94.8309C17.1098 97.0039 12.9732 96.4017 10.6955 93.5219C5.11904 86.5578 1.40139 78.0753 0.327983 68.8074ZM78.7127 43.4645C83.242 49.0934 86.0957 56.1098 86.4622 63.7021C86.7502 69.2524 85.703 74.5147 83.7132 79.2534C78.3986 91.8725 66.0413 100.826 51.5634 101.036V87.8669C51.5634 87.1338 50.6471 86.7411 50.045 87.1862L22.8957 107.136C22.4506 107.476 22.4506 108.157 22.8957 108.471L50.0188 128.421C50.6471 128.866 51.5373 128.473 51.5373 127.74V114.545C73.5552 114.309 92.1434 99.4649 98.034 79.2534C99.8143 73.1795 100.443 66.6082 99.6834 59.8012C98.6362 50.5333 94.9185 42.0508 89.3421 35.0867C87.0382 32.2069 82.9278 31.6047 79.9694 33.7777C76.8801 36.0554 76.3041 40.4538 78.7127 43.4645Z" fill="#141415"/>
</svg>
