<svg viewBox="0 0 40 40" fill="none" xmlns="http://www.w3.org/2000/svg">
<path d="M35 21.6665C35 24.6332 34.1203 27.5333 32.4721 30.0001C30.8238 32.4668 28.4812 34.3894 25.7403 35.5247C22.9994 36.66 19.9834 36.9571 17.0737 36.3783C14.1639 35.7995 11.4912 34.3709 9.39341 32.2731C7.29562 30.1753 5.86701 27.5026 5.28823 24.5929C4.70945 21.6831 5.0065 18.6671 6.14181 15.9263C7.27713 13.1854 9.19972 10.8427 11.6665 9.19446C14.1332 7.54624 17.0333 6.6665 20 6.6665H25M25 6.6665L20 1.6665M25 6.6665L20 11.6665" stroke="white" stroke-width="2" stroke-linecap="round" stroke-linejoin="round"/>
<path d="M20.035 27.6495C19.2821 27.6495 18.611 27.5111 18.0215 27.2341C17.4355 26.9571 16.9703 26.5753 16.6259 26.0888C16.2814 25.6023 16.1021 25.0448 16.0879 24.4162H18.3251C18.35 24.8388 18.5275 25.1815 18.8578 25.4443C19.188 25.7071 19.5804 25.8385 20.035 25.8385C20.3972 25.8385 20.7168 25.7586 20.9938 25.5988C21.2743 25.4354 21.4927 25.2099 21.649 24.9223C21.8088 24.6311 21.8887 24.2973 21.8887 23.9209C21.8887 23.5373 21.807 23.2 21.6436 22.9088C21.4838 22.6176 21.2619 22.3903 20.9778 22.227C20.6937 22.0636 20.3688 21.9802 20.003 21.9766C19.6834 21.9766 19.3727 22.0423 19.0708 22.1737C18.7725 22.3051 18.5399 22.4844 18.373 22.7117L16.3223 22.3441L16.839 16.5913H23.508V18.477H18.7406L18.4583 21.2096H18.5222C18.714 20.9397 19.0034 20.716 19.3904 20.5384C19.7775 20.3608 20.2108 20.2721 20.6902 20.2721C21.3471 20.2721 21.9331 20.4265 22.448 20.7355C22.9629 21.0444 23.3695 21.4688 23.6678 22.0086C23.9661 22.5448 24.1135 23.1627 24.1099 23.8623C24.1135 24.5973 23.943 25.2508 23.5985 25.8225C23.2576 26.3907 22.78 26.8381 22.1657 27.1648C21.5549 27.488 20.8446 27.6495 20.035 27.6495Z" fill="white"/>
</svg>
