<svg viewBox="0 0 40 40" fill="none" xmlns="http://www.w3.org/2000/svg">
<path d="M35 21.6665C35 24.6332 34.1203 27.5333 32.4721 30.0001C30.8238 32.4668 28.4812 34.3894 25.7403 35.5247C22.9994 36.66 19.9834 36.9571 17.0737 36.3783C14.1639 35.7995 11.4912 34.3709 9.39341 32.2731C7.29562 30.1753 5.86701 27.5026 5.28823 24.5929C4.70945 21.6831 5.0065 18.6671 6.14181 15.9263C7.27713 13.1854 9.19972 10.8427 11.6665 9.19446C14.1332 7.54624 17.0333 6.6665 20 6.6665H25M25 6.6665L20 1.6665M25 6.6665L20 11.6665" stroke="white" stroke-width="2" stroke-linecap="round" stroke-linejoin="round"/>
<path d="M23.518 27.7398C22.6018 27.7363 21.8135 27.5108 21.153 27.0633C20.496 26.6159 19.99 25.9678 19.6349 25.1191C19.2833 24.2704 19.1093 23.2494 19.1128 22.0562C19.1128 20.8666 19.2886 19.8528 19.6402 19.0147C19.9953 18.1766 20.5013 17.5392 21.1583 17.1024C21.8188 16.6621 22.6054 16.4419 23.518 16.4419C24.4307 16.4419 25.2155 16.6621 25.8724 17.1024C26.5329 17.5427 27.0408 18.182 27.3959 19.02C27.751 19.8545 27.9268 20.8666 27.9232 22.0562C27.9232 23.253 27.7457 24.2757 27.3905 25.1244C27.039 25.9731 26.5347 26.6212 25.8778 27.0687C25.2208 27.5161 24.4342 27.7398 23.518 27.7398ZM23.518 25.8275C24.143 25.8275 24.642 25.5133 25.0148 24.8847C25.3877 24.2562 25.5724 23.3133 25.5688 22.0562C25.5688 21.2288 25.4836 20.5399 25.3131 19.9895C25.1462 19.4391 24.9083 19.0253 24.5994 18.7484C24.294 18.4714 23.9335 18.3329 23.518 18.3329C22.8966 18.3329 22.3994 18.6436 22.0266 19.265C21.6537 19.8865 21.4655 20.8169 21.4619 22.0562C21.4619 22.8943 21.5454 23.5939 21.7123 24.155C21.8827 24.7125 22.1224 25.1315 22.4314 25.4121C22.7403 25.6891 23.1025 25.8275 23.518 25.8275Z" fill="white"/>
<path d="M16.9477 16.5908V27.4999H14.6412V18.7801H14.5773L12.0791 20.3461V18.3007L14.7797 16.5908H16.9477Z" fill="white"/>
</svg>
