<svg viewBox="0 0 34 57" fill="none" xmlns="http://www.w3.org/2000/svg">
<path d="M32.1287 24.8051C32.7852 25.4608 33.1545 26.3505 33.1553 27.2784V29.0518C33.1446 29.9777 32.7768 30.8637 32.1287 31.5251L8.14198 55.4651C7.92508 55.6838 7.66698 55.8574 7.38268 55.9758C7.09828 56.0943 6.79337 56.1553 6.48527 56.1553C6.17727 56.1553 5.87227 56.0943 5.58797 55.9758C5.30357 55.8574 5.04557 55.6838 4.82867 55.4651L1.51528 52.1518C1.29798 51.9389 1.12537 51.6847 1.00747 51.4043C0.889673 51.1238 0.828976 50.8227 0.828976 50.5184C0.828976 50.2142 0.889673 49.9131 1.00747 49.6326C1.12537 49.3521 1.29798 49.098 1.51528 48.8851L22.282 28.1651L1.51528 7.44507C1.29658 7.22817 1.12297 6.97007 1.00457 6.68577C0.886074 6.40137 0.825077 6.09647 0.825077 5.78837C0.825077 5.48037 0.886074 5.17537 1.00457 4.89107C1.12297 4.60677 1.29658 4.34867 1.51528 4.13177L4.82867 0.86507C5.04557 0.64637 5.30357 0.472775 5.58797 0.354275C5.87227 0.235875 6.17727 0.174877 6.48527 0.174877C6.79337 0.174877 7.09828 0.235875 7.38268 0.354275C7.66698 0.472775 7.92508 0.64637 8.14198 0.86507L32.1287 24.8051Z" fill="white"/>
</svg>
