<svg viewBox="0 0 49 48" fill="none" xmlns="http://www.w3.org/2000/svg">
<path d="M32.5 6V14M16.5 6V14M8.5 22H40.5M14.5 28H14.526M20.52 28H20.53M26.52 28H26.53M32.53 28H32.54M26.53 34H26.54M14.52 34H14.53M20.52 34H20.53M8.5 14C8.5 12.9391 8.92143 11.9217 9.67157 11.1716C10.4217 10.4214 11.4391 10 12.5 10H36.5C37.5609 10 38.5783 10.4214 39.3284 11.1716C40.0786 11.9217 40.5 12.9391 40.5 14V38C40.5 39.0609 40.0786 40.0783 39.3284 40.8284C38.5783 41.5786 37.5609 42 36.5 42H12.5C11.4391 42 10.4217 41.5786 9.67157 40.8284C8.92143 40.0783 8.5 39.0609 8.5 38V14Z" stroke="white" stroke-width="3" stroke-linecap="round" stroke-linejoin="round"/>
</svg>
