<svg viewBox="0 0 64 64" fill="none" xmlns="http://www.w3.org/2000/svg">
<path fill-rule="evenodd" clip-rule="evenodd" d="M36.2739 22.9637C40.2256 26.9154 40.2256 33.3223 36.2739 37.2739C32.3223 41.2256 25.9154 41.2256 21.9638 37.2739C18.0121 33.3223 18.0121 26.9154 21.9638 22.9637C25.9154 19.0121 32.3223 19.0121 36.2739 22.9637ZM38.8301 37.3711C42.384 32.6246 42.0034 25.8647 37.6882 21.5495C32.9555 16.8168 25.2822 16.8168 20.5495 21.5495C15.8168 26.2822 15.8168 33.9554 20.5495 38.6881C25.2208 43.3594 32.7567 43.42 37.5024 38.8701L44.6227 45.8405C45.0174 46.2268 45.6505 46.2201 46.0369 45.8254C46.4232 45.4308 46.4165 44.7976 46.0218 44.4113L38.8301 37.3711Z" fill="white"/>
</svg>
