<svg viewBox="0 0 53 53" fill="none" xmlns="http://www.w3.org/2000/svg">
<circle cx="26.5" cy="26.5" r="26.5" transform="rotate(-90 26.5 26.5)" fill="url(#paint0_linear_13116_6813)"/>
<circle cx="26.5" cy="26.5" r="26.5" transform="rotate(-90 26.5 26.5)" fill="url(#paint1_linear_13116_6813)"/>
<circle cx="26.5" cy="26.5" r="26" transform="rotate(-90 26.5 26.5)" stroke="white" stroke-opacity="0.5"/>
<path d="M24.9261 26.8182C24.9261 28.9924 24.5284 30.8617 23.733 32.4261C22.9375 33.9839 21.8471 35.1837 20.4616 36.0256C19.0829 36.8608 17.5152 37.2784 15.7585 37.2784C13.9953 37.2784 12.4209 36.8608 11.0355 36.0256C9.65672 35.1837 8.5696 33.9806 7.77415 32.4162C6.97869 30.8518 6.58097 28.9858 6.58097 26.8182C6.58097 24.6439 6.97869 22.7779 7.77415 21.2202C8.5696 19.6558 9.65672 18.456 11.0355 17.6207C12.4209 16.7789 13.9953 16.358 15.7585 16.358C17.5152 16.358 19.0829 16.7789 20.4616 17.6207C21.8471 18.456 22.9375 19.6558 23.733 21.2202C24.5284 22.7779 24.9261 24.6439 24.9261 26.8182ZM21.8835 26.8182C21.8835 25.161 21.6151 23.7656 21.0781 22.6321C20.5478 21.492 19.8187 20.6302 18.8906 20.0469C17.9692 19.4569 16.9252 19.1619 15.7585 19.1619C14.5852 19.1619 13.5379 19.4569 12.6165 20.0469C11.6951 20.6302 10.9659 21.492 10.429 22.6321C9.89867 23.7656 9.63352 25.161 9.63352 26.8182C9.63352 28.4754 9.89867 29.8741 10.429 31.0142C10.9659 32.1477 11.6951 33.0095 12.6165 33.5994C13.5379 34.1828 14.5852 34.4744 15.7585 34.4744C16.9252 34.4744 17.9692 34.1828 18.8906 33.5994C19.8187 33.0095 20.5478 32.1477 21.0781 31.0142C21.6151 29.8741 21.8835 28.4754 21.8835 26.8182ZM28.7567 37V16.6364H31.8292V26.3608H32.0778L40.619 16.6364H44.4869L36.2738 25.804L44.5167 37H40.8178L34.2354 27.902L31.8292 30.6662V37H28.7567Z" fill="white"/>
<defs>
<linearGradient id="paint0_linear_13116_6813" x1="17.877" y1="-1.94132e-06" x2="26.5" y2="53" gradientUnits="userSpaceOnUse">
<stop stop-color="#525252"/>
<stop offset="1" stop-color="#1B1B1B"/>
</linearGradient>
<linearGradient id="paint1_linear_13116_6813" x1="17.877" y1="-1.94132e-06" x2="26.5" y2="53" gradientUnits="userSpaceOnUse">
<stop stop-color="#525252"/>
<stop offset="1" stop-color="#1B1B1B"/>
</linearGradient>
</defs>
</svg>
