<svg viewBox="0 0 40 40" fill="none" xmlns="http://www.w3.org/2000/svg">
<path fill-rule="evenodd" clip-rule="evenodd" d="M20 16.25C17.9289 16.25 16.25 17.9289 16.25 20C16.25 22.0711 17.9289 23.75 20 23.75C22.0711 23.75 23.75 22.0711 23.75 20C23.75 17.9289 22.0711 16.25 20 16.25ZM13.75 20C13.75 16.5482 16.5482 13.75 20 13.75C23.4518 13.75 26.25 16.5482 26.25 20C26.25 23.4518 23.4518 26.25 20 26.25C16.5482 26.25 13.75 23.4518 13.75 20Z" fill="black"/>
<path fill-rule="evenodd" clip-rule="evenodd" d="M19.9575 2.08252H20.0417C20.7824 2.08251 21.4008 2.0825 21.9085 2.11714C22.437 2.1532 22.9362 2.23093 23.4202 2.43141C24.5433 2.89659 25.4355 3.78884 25.9007 4.91189C26.1429 5.49652 26.2084 6.11266 26.2335 6.78237C26.2536 7.32081 26.5254 7.77006 26.9264 8.00159C27.3274 8.23312 27.8523 8.24383 28.3287 7.99205C28.9212 7.67888 29.4876 7.42762 30.115 7.34502C31.3202 7.18636 32.539 7.51295 33.5034 8.25294C33.919 8.57185 34.2359 8.96531 34.5314 9.40497C34.8152 9.8273 35.1244 10.3628 35.4948 11.0043L35.5369 11.0774C35.9073 11.7188 36.2165 12.2544 36.4404 12.7114C36.6734 13.1871 36.8557 13.6583 36.924 14.1777C37.0827 15.3828 36.7561 16.6017 36.0161 17.5661C35.6309 18.0681 35.13 18.433 34.5625 18.7896C34.1063 19.0762 33.8532 19.5361 33.8531 19.9991C33.8531 20.4622 34.1063 20.9221 34.5625 21.2088C35.13 21.5653 35.6307 21.9302 36.016 22.4322C36.756 23.3966 37.0825 24.6154 36.9239 25.8206C36.8555 26.34 36.6732 26.8112 36.4402 27.2869C36.2164 27.7439 35.9072 28.2794 35.5368 28.9209L35.4946 28.994C35.1242 29.6355 34.8151 30.171 34.5313 30.5933C34.2358 31.033 33.9188 31.4264 33.5032 31.7453C32.5389 32.4853 31.32 32.8119 30.1148 32.6532C29.4875 32.5706 28.9211 32.3194 28.3286 32.0062C27.8522 31.7545 27.3273 31.7652 26.9263 31.9967C26.5253 32.2283 26.2536 32.6775 26.2335 33.2158C26.2085 33.8856 26.1429 34.5018 25.9007 35.0865C25.4355 36.2095 24.5433 37.1018 23.4202 37.567C22.9362 37.7674 22.437 37.8452 21.9085 37.8812C21.4008 37.9159 20.7824 37.9159 20.0417 37.9158H19.9575C19.2167 37.9159 18.5983 37.9159 18.0906 37.8812C17.5621 37.8452 17.0629 37.7674 16.5789 37.567C15.4559 37.1018 14.5636 36.2095 14.0985 35.0865C13.8563 34.5019 13.7907 33.8857 13.7657 33.216C13.7455 32.6776 13.4738 32.2283 13.0728 31.9968C12.6717 31.7653 12.1468 31.7545 11.6704 32.0063C11.0779 32.3195 10.5115 32.5708 9.88415 32.6533C8.67898 32.812 7.46013 32.4854 6.49575 31.7454C6.08015 31.4265 5.76322 31.0331 5.46774 30.5934C5.18389 30.171 4.87469 29.6355 4.50431 28.9939L4.46228 28.9211C4.09187 28.2796 3.78265 27.744 3.5588 27.287C3.32578 26.8113 3.14349 26.3401 3.07512 25.8207C2.91645 24.6155 3.24304 23.3967 3.98304 22.4323C4.36827 21.9303 4.86908 21.5654 5.43655 21.2088C5.89279 20.9222 6.14601 20.4622 6.14603 19.9992C6.14606 19.536 5.89284 19.076 5.43654 18.7893C4.86914 18.4328 4.3684 18.0679 3.9832 17.5659C3.24321 16.6016 2.91662 15.3827 3.07528 14.1775C3.14366 13.6582 3.32594 13.187 3.55896 12.7112C3.78281 12.2542 4.09202 11.7187 4.46241 11.0772L4.5045 11.0043C4.87487 10.3628 5.18406 9.8272 5.4679 9.40486C5.76338 8.96519 6.08031 8.57173 6.49591 8.25283C7.46029 7.51283 8.67914 7.18624 9.88431 7.34491C10.5117 7.42751 11.0782 7.6788 11.6707 7.99199C12.147 8.24374 12.6719 8.23303 13.0728 8.00154C13.4738 7.77004 13.7455 7.32084 13.7657 6.78246C13.7907 6.11272 13.8563 5.49655 14.0985 4.91189C14.5636 3.78884 15.4559 2.89659 16.5789 2.43141C17.0629 2.23093 17.5621 2.1532 18.0906 2.11714C18.5983 2.0825 19.2167 2.08251 19.9575 2.08252ZM18.2608 4.61134C17.8596 4.63871 17.6642 4.68784 17.5357 4.7411C17.0252 4.95255 16.6196 5.35812 16.4082 5.8686C16.3415 6.02963 16.2862 6.28066 16.2639 6.87588C16.2145 8.19647 15.5329 9.46799 14.3228 10.1666C13.1128 10.8652 11.6708 10.8198 10.5025 10.2022C9.97586 9.92391 9.73081 9.84627 9.558 9.82352C9.01019 9.7514 8.45617 9.89985 8.01782 10.2362C7.9074 10.3209 7.76717 10.4656 7.54286 10.7993C7.31227 11.1424 7.04535 11.6034 6.64852 12.2907C6.25168 12.9781 5.98594 13.4397 5.80409 13.811C5.62719 14.1721 5.57206 14.3659 5.55389 14.5039C5.48177 15.0517 5.63022 15.6057 5.96658 16.044C6.07268 16.1823 6.2624 16.3557 6.76661 16.6725C7.88568 17.3756 8.64611 18.6019 8.64603 19.9993C8.64596 21.3966 7.88557 22.6226 6.76659 23.3257C6.26227 23.6426 6.07252 23.8159 5.96642 23.9542C5.63006 24.3926 5.48161 24.9466 5.55373 25.4944C5.5719 25.6324 5.62703 25.8261 5.80393 26.1873C5.98578 26.5585 6.25152 27.0202 6.64835 27.7075C7.04519 28.3949 7.3121 28.8558 7.54269 29.1989C7.767 29.5327 7.90723 29.6773 8.01765 29.762C8.45601 30.0984 9.01003 30.2469 9.55784 30.1747C9.73064 30.152 9.97568 30.0744 10.5022 29.7961C11.6706 29.1785 13.1127 29.1331 14.3228 29.8317C15.5329 30.5304 16.2145 31.8019 16.2639 33.1226C16.2862 33.7177 16.3415 33.9688 16.4082 34.1298C16.6196 34.6403 17.0252 35.0458 17.5357 35.2573C17.6642 35.3105 17.8596 35.3597 18.2608 35.387C18.6733 35.4152 19.2059 35.4158 19.9996 35.4158C20.7933 35.4158 21.3259 35.4152 21.7383 35.387C22.1396 35.3597 22.3349 35.3105 22.4635 35.2573C22.974 35.0458 23.3796 34.6403 23.591 34.1298C23.6577 33.9687 23.713 33.7177 23.7352 33.1224C23.7846 31.8019 24.4662 30.5304 25.6762 29.8318C26.8863 29.133 28.3284 29.1784 29.4968 29.796C30.0233 30.0742 30.2684 30.1519 30.4412 30.1746C30.989 30.2467 31.543 30.0983 31.9813 29.7619C32.0918 29.6772 32.232 29.5326 32.4563 29.1988C32.6869 28.8557 32.9538 28.3947 33.3506 27.7074C33.7475 27.0201 34.0132 26.5584 34.1951 26.1872C34.372 25.826 34.4271 25.6323 34.4453 25.4943C34.5174 24.9465 34.3689 24.3925 34.0326 23.9541C33.9265 23.8158 33.7367 23.6424 33.2325 23.3256C32.1134 22.6225 31.3531 21.3963 31.3531 19.999C31.3532 18.6018 32.1135 17.3758 33.2325 16.6727C33.7369 16.3558 33.9266 16.1824 34.0327 16.0441C34.3691 15.6058 34.5175 15.0518 34.4454 14.504C34.4273 14.366 34.3721 14.1722 34.1952 13.8111C34.0134 13.4398 33.7476 12.9782 33.3508 12.2909C32.954 11.6035 32.6871 11.1426 32.4565 10.7994C32.2322 10.4657 32.0919 10.3211 31.9815 10.2363C31.5431 9.89996 30.9891 9.75151 30.4413 9.82364C30.2685 9.84638 30.0235 9.92401 29.4969 10.2023C28.3285 10.8199 26.8865 10.8653 25.6764 10.1667C24.4663 9.468 23.7846 8.19643 23.7352 6.8758C23.713 6.28064 23.6577 6.02962 23.591 5.8686C23.3796 5.35812 22.974 4.95255 22.4635 4.74111C22.3349 4.68784 22.1396 4.63871 21.7383 4.61134C21.3259 4.5832 20.7933 4.58252 19.9996 4.58252C19.2059 4.58252 18.6733 4.5832 18.2608 4.61134Z" fill="black"/>
</svg>
