<svg viewBox="0 0 40 40" fill="none" xmlns="http://www.w3.org/2000/svg">
<path fill-rule="evenodd" clip-rule="evenodd" d="M20 16.25C17.9289 16.25 16.25 17.9289 16.25 20C16.25 22.0711 17.9289 23.75 20 23.75C22.0711 23.75 23.75 22.0711 23.75 20C23.75 17.9289 22.0711 16.25 20 16.25ZM13.75 20C13.75 16.5482 16.5482 13.75 20 13.75C23.4518 13.75 26.25 16.5482 26.25 20C26.25 23.4518 23.4518 26.25 20 26.25C16.5482 26.25 13.75 23.4518 13.75 20Z" fill="white"/>
<path fill-rule="evenodd" clip-rule="evenodd" d="M19.9568 2.08203H20.0409C20.7817 2.08202 21.4001 2.08201 21.9078 2.11665C22.4363 2.15271 22.9355 2.23045 23.4195 2.43092C24.5425 2.8961 25.4348 3.78835 25.9 4.9114C26.1421 5.49603 26.2077 6.11217 26.2328 6.78188C26.2529 7.32032 26.5246 7.76957 26.9257 8.0011C27.3267 8.23263 27.8516 8.24334 28.328 7.99156C28.9205 7.6784 29.4869 7.42713 30.1143 7.34453C31.3194 7.18587 32.5383 7.51246 33.5027 8.25245C33.9183 8.57136 34.2352 8.96482 34.5307 9.40448C34.8145 9.82682 35.1237 10.3623 35.494 11.0038L35.5362 11.0769C35.9066 11.7184 36.2158 12.2539 36.4396 12.7109C36.6727 13.1866 36.8549 13.6578 36.9233 14.1772C37.082 15.3823 36.7554 16.6012 36.0154 17.5656C35.6301 18.0676 35.1293 18.4325 34.5618 18.7891C34.1056 19.0757 33.8524 19.5356 33.8524 19.9986C33.8524 20.4617 34.1055 20.9216 34.5618 21.2083C35.1292 21.5648 35.63 21.9297 36.0152 22.4317C36.7552 23.3961 37.0818 24.6149 36.9231 25.8201C36.8548 26.3395 36.6725 26.8107 36.4395 27.2864C36.2156 27.7434 35.9064 28.2789 35.5361 28.9204L35.4938 28.9935C35.1235 29.635 34.8143 30.1705 34.5305 30.5928C34.235 31.0325 33.9181 31.4259 33.5025 31.7448C32.5381 32.4848 31.3193 32.8114 30.1141 32.6527C29.4867 32.5702 28.9204 32.3189 28.3279 32.0058C27.8515 31.754 27.3266 31.7647 26.9256 31.9963C26.5246 32.2278 26.2529 32.677 26.2328 33.2154C26.2077 33.8851 26.1421 34.5013 25.9 35.086C25.4348 36.209 24.5425 37.1013 23.4195 37.5665C22.9355 37.7669 22.4363 37.8447 21.9078 37.8807C21.4001 37.9154 20.7817 37.9154 20.0409 37.9154H19.9568C19.216 37.9154 18.5976 37.9154 18.0899 37.8807C17.5614 37.8447 17.0622 37.7669 16.5782 37.5665C15.4552 37.1013 14.5629 36.209 14.0977 35.086C13.8556 34.5014 13.79 33.8852 13.7649 33.2155C13.7448 32.6771 13.4731 32.2278 13.072 31.9963C12.671 31.7648 12.1461 31.7541 11.6697 32.0058C11.0772 32.319 10.5108 32.5703 9.88342 32.6529C8.67824 32.8115 7.4594 32.4849 6.49502 31.7449C6.07941 31.426 5.76249 31.0326 5.46701 30.5929C5.18316 30.1706 4.87396 29.635 4.50357 28.9934L4.46155 28.9206C4.09114 28.2791 3.78192 27.7435 3.55807 27.2865C3.32504 26.8108 3.14276 26.3396 3.07439 25.8202C2.91572 24.6151 3.24231 23.3962 3.9823 22.4318C4.36754 21.9298 4.86834 21.5649 5.43582 21.2084C5.89206 20.9217 6.14527 20.4617 6.1453 19.9987C6.14532 19.5356 5.89211 19.0755 5.43581 18.7888C4.86841 18.4323 4.36766 18.0674 3.98247 17.5654C3.24247 16.6011 2.91588 15.3822 3.07455 14.177C3.14293 13.6577 3.32521 13.1865 3.55823 12.7108C3.78208 12.2538 4.09128 11.7182 4.46168 11.0767L4.50377 11.0038C4.87414 10.3623 5.18333 9.82672 5.46717 9.40437C5.76265 8.9647 6.07958 8.57124 6.49518 8.25234C7.45956 7.51234 8.67841 7.18576 9.88358 7.34442C10.511 7.42702 11.0774 7.67831 11.67 7.9915C12.1463 8.24325 12.6711 8.23255 13.0721 8.00105C13.4731 7.76955 13.7448 7.32035 13.7649 6.78197C13.79 6.11223 13.8556 5.49606 14.0977 4.9114C14.5629 3.78835 15.4552 2.8961 16.5782 2.43092C17.0622 2.23045 17.5614 2.15271 18.0899 2.11665C18.5976 2.08201 19.216 2.08202 19.9568 2.08203ZM18.2601 4.61085C17.8589 4.63822 17.6635 4.68735 17.5349 4.74062C17.0244 4.95206 16.6189 5.35763 16.4074 5.86811C16.3407 6.02914 16.2854 6.28018 16.2632 6.8754C16.2138 8.19598 15.5322 9.4675 14.3221 10.1661C13.112 10.8647 11.6701 10.8193 10.5017 10.2018C9.97513 9.92342 9.73008 9.84578 9.55727 9.82303C9.00946 9.75091 8.45544 9.89936 8.01708 10.2357C7.90666 10.3205 7.76644 10.4651 7.54212 10.7988C7.31153 11.142 7.04462 11.6029 6.64778 12.2903C6.25095 12.9776 5.98521 13.4392 5.80336 13.8105C5.62646 14.1716 5.57133 14.3654 5.55316 14.5034C5.48104 15.0512 5.62949 15.6052 5.96585 16.0435C6.07194 16.1818 6.26167 16.3552 6.76588 16.672C7.88495 17.3752 8.64537 18.6014 8.6453 19.9988C8.64522 21.3961 7.88483 22.6221 6.76586 23.3252C6.26154 23.6421 6.07179 23.8155 5.96569 23.9537C5.62933 24.3921 5.48088 24.9461 5.553 25.4939C5.57116 25.6319 5.6263 25.8257 5.8032 26.1868C5.98505 26.5581 6.25079 27.0197 6.64762 27.707C7.04446 28.3944 7.31137 28.8553 7.54196 29.1984C7.76627 29.5322 7.9065 29.6768 8.01692 29.7616C8.45528 30.0979 9.0093 30.2464 9.55711 30.1742C9.72991 30.1515 9.97494 30.0739 10.5015 29.7956C11.6699 29.178 13.1119 29.1326 14.322 29.8312C15.5321 30.5299 16.2138 31.8015 16.2632 33.1221C16.2854 33.7172 16.3407 33.9683 16.4074 34.1293C16.6189 34.6398 17.0244 35.0453 17.5349 35.2568C17.6635 35.31 17.8589 35.3592 18.2601 35.3865C18.6725 35.4147 19.2052 35.4154 19.9988 35.4154C20.7925 35.4154 21.3252 35.4147 21.7376 35.3865C22.1388 35.3592 22.3342 35.31 22.4628 35.2568C22.9732 35.0453 23.3788 34.6398 23.5903 34.1293C23.657 33.9682 23.7123 33.7172 23.7345 33.1219C23.7839 31.8014 24.4655 30.5299 25.6754 29.8313C26.8855 29.1325 28.3276 29.1779 29.4961 29.7955C30.0226 30.0738 30.2676 30.1514 30.4404 30.1741C30.9882 30.2463 31.5423 30.0978 31.9806 29.7614C32.091 29.6767 32.2313 29.5321 32.4556 29.1983C32.6862 28.8552 32.9531 28.3943 33.3499 27.7069C33.7467 27.0196 34.0125 26.5579 34.1943 26.1867C34.3712 25.8255 34.4264 25.6318 34.4445 25.4938C34.5167 24.946 34.3682 24.392 34.0318 23.9536C33.9257 23.8153 33.736 23.642 33.2317 23.3251C32.1127 22.622 31.3523 21.3958 31.3524 19.9985C31.3525 18.6013 32.1128 17.3753 33.2317 16.6723C33.7361 16.3554 33.9259 16.1819 34.032 16.0437C34.3684 15.6053 34.5168 15.0513 34.4447 14.5035C34.4265 14.3655 34.3714 14.1717 34.1945 13.8106C34.0126 13.4393 33.7469 12.9777 33.3501 12.2904C32.9532 11.603 32.6863 11.1421 32.4557 10.799C32.2314 10.4652 32.0912 10.3206 31.9808 10.2358C31.5424 9.89948 30.9884 9.75103 30.4406 9.82315C30.2678 9.8459 30.0228 9.92353 29.4962 10.2018C28.3278 10.8194 26.8858 10.8648 25.6757 10.1662C24.4656 9.46751 23.7839 8.19595 23.7345 6.87532C23.7122 6.28015 23.657 6.02913 23.5903 5.86811C23.3788 5.35763 22.9732 4.95206 22.4628 4.74062C22.3342 4.68735 22.1388 4.63822 21.7376 4.61085C21.3252 4.58271 20.7925 4.58203 19.9988 4.58203C19.2052 4.58203 18.6725 4.58271 18.2601 4.61085Z" fill="white"/>
</svg>
