<svg viewBox="0 0 32 32" fill="none" xmlns="http://www.w3.org/2000/svg">
<path d="M10.6668 17.3334V25.3334C10.6668 25.687 10.5264 26.0261 10.2763 26.2762C10.0263 26.5262 9.68712 26.6667 9.3335 26.6667H6.66683C6.31321 26.6667 5.97407 26.5262 5.72402 26.2762C5.47397 26.0261 5.3335 25.687 5.3335 25.3334V17.3334C5.3335 16.9798 5.47397 16.6406 5.72402 16.3906C5.97407 16.1405 6.31321 16 6.66683 16H9.3335C9.68712 16 10.0263 16.1405 10.2763 16.3906C10.5264 16.6406 10.6668 16.9798 10.6668 17.3334ZM17.3335 5.33337H14.6668C14.3132 5.33337 13.9741 5.47385 13.724 5.7239C13.474 5.97395 13.3335 6.31309 13.3335 6.66671V25.3334C13.3335 25.687 13.474 26.0261 13.724 26.2762C13.9741 26.5262 14.3132 26.6667 14.6668 26.6667H17.3335C17.6871 26.6667 18.0263 26.5262 18.2763 26.2762C18.5264 26.0261 18.6668 25.687 18.6668 25.3334V6.66671C18.6668 6.31309 18.5264 5.97395 18.2763 5.7239C18.0263 5.47385 17.6871 5.33337 17.3335 5.33337ZM25.3335 10.6667H22.6668C22.3132 10.6667 21.9741 10.8072 21.724 11.0572C21.474 11.3073 21.3335 11.6464 21.3335 12V25.3334C21.3335 25.687 21.474 26.0261 21.724 26.2762C21.9741 26.5262 22.3132 26.6667 22.6668 26.6667H25.3335C25.6871 26.6667 26.0263 26.5262 26.2763 26.2762C26.5264 26.0261 26.6668 25.687 26.6668 25.3334V12C26.6668 11.6464 26.5264 11.3073 26.2763 11.0572C26.0263 10.8072 25.6871 10.6667 25.3335 10.6667Z" fill="white"/>
</svg>
