<svg viewBox="0 0 64 64" fill="none" xmlns="http://www.w3.org/2000/svg">
<path fill-rule="evenodd" clip-rule="evenodd" d="M28.3574 18.4786C25.0156 19.3766 22.1677 21.4805 20.309 24.2951L23.0701 25.043L28.3574 21.2015V18.4786ZM19.3027 26.0946C18.4668 27.889 18 29.89 18 32C18 33.5144 18.2405 34.9727 18.6853 36.3387L21.8448 36.6708L24.4852 33.1075L22.4868 26.9571L19.3027 26.0946ZM22.1926 41.9908C21.1414 40.9587 20.2523 39.762 19.5671 38.4424L21.4812 38.6436L22.1926 41.9908ZM24.6464 43.9155C26.7835 45.2372 29.3026 46 32 46C32.7853 46 33.5555 45.9353 34.3056 45.8111C34.0562 45.5754 33.9408 45.2226 34.0144 44.8764L35.4822 37.9709L32.629 34.2888H26.0992L23.3801 37.9581L24.6464 43.9155ZM43.9759 39.255C42.3715 41.8977 39.917 43.9672 36.9919 45.0839L36.1218 44.5815L37.3839 38.6436L43.4212 38.0091L43.9759 39.255ZM45.1177 36.9022C45.6881 35.3765 46 33.7247 46 32C46 30.8501 45.8614 29.7325 45.5999 28.6631L40.4286 25.8191L36.228 26.957L34.2338 33.0945L37.0062 36.6723L43.9347 35.9441C44.3656 35.8988 44.7766 36.1361 44.9528 36.5319L45.1177 36.9022ZM42.4295 22.6603C43.2746 23.6034 43.9936 24.6617 44.5601 25.8088L41.803 24.2925L42.4295 22.6603ZM40.8625 21.1617C38.4487 19.1856 35.3628 18 32 18C31.4443 18 30.8962 18.0324 30.3574 18.0953V21.2015L35.6447 25.043L39.8052 23.9159L40.8625 21.1617ZM24.4462 26.5153L29.3574 22.9471L34.2686 26.5153L32.3927 32.2888H26.3221L24.4462 26.5153Z" fill="#ED1B2F"/>
</svg>
