<svg viewBox="0 0 64 64" fill="none" xmlns="http://www.w3.org/2000/svg">
    <path d="M43.4105 37.1249L44.1614 36.7905C44.0166 36.4652 43.6787 36.2701 43.3245 36.3074L43.4105 37.1249ZM35.1474 44.565L34.3433 44.3941C34.2693 44.7424 34.428 45.0988 34.7364 45.2769L35.1474 44.565ZM29.5172 23.8814L35.0767 27.9207L36.0431 26.5906L30.4836 22.5513L29.5172 23.8814ZM34.7781 27.0016L32.6545 33.5372L34.2181 34.0452L36.3417 27.5097L34.7781 27.0016ZM33.4363 32.9692H26.5644V34.6133H33.4363V32.9692ZM27.3462 33.5372L25.2226 27.0016L23.659 27.5097L25.7826 34.0452L27.3462 33.5372ZM24.924 27.9207L30.4836 23.8814L29.5172 22.5513L23.9577 26.5906L24.924 27.9207ZM43.3245 36.3074L36.4902 37.0257L36.6621 38.6607L43.4964 37.9424L43.3245 36.3074ZM35.7721 37.6723L34.3433 44.3941L35.9515 44.7359L37.3802 38.0141L35.7721 37.6723ZM30.8224 23.2164V18.8322H29.1783V23.2164H30.8224ZM35.7748 28.0491L40.4446 26.7841L40.0147 25.1972L35.3449 26.4622L35.7748 28.0491ZM32.7865 34.2947L35.9264 38.3467L37.226 37.3397L34.0861 33.2877L32.7865 34.2947ZM25.9039 33.3018L22.9013 37.3538L24.2223 38.3326L27.2249 34.2806L25.9039 33.3018ZM40.6936 22.4883L39.4622 25.696L40.9971 26.2852L42.2285 23.0774L40.6936 22.4883ZM39.8335 26.7109L44.4862 29.2697L45.2785 27.8291L40.6258 25.2703L39.8335 26.7109ZM32.0001 19.4898C37.7887 19.4898 42.661 23.4216 44.0882 28.7617L45.6765 28.3372C44.0619 22.296 38.5518 17.8457 32.0001 17.8457V19.4898ZM44.0882 28.7617C44.3641 29.794 44.5114 30.8797 44.5114 32.0011H46.1555C46.1555 30.7351 45.9891 29.5067 45.6765 28.3372L44.0882 28.7617ZM24.6557 26.4622L20.2712 25.2745L19.8414 26.8615L24.2259 28.0491L24.6557 26.4622ZM19.4888 32.0011C19.4888 29.9996 19.9582 28.11 20.7922 26.4343L19.3204 25.7017C18.3756 27.5999 17.8447 29.7397 17.8447 32.0011H19.4888ZM20.7922 26.4343C22.8418 22.3163 27.0916 19.4898 32.0001 19.4898V17.8457C26.444 17.8457 21.6371 21.0469 19.3204 25.7017L20.7922 26.4343ZM19.7418 38.2683L23.4759 38.6607L23.6477 37.0257L19.9136 36.6332L19.7418 38.2683ZM20.5778 37.1144C19.8783 35.5544 19.4888 33.8243 19.4888 32.0011H17.8447C17.8447 34.0607 18.2851 36.0196 19.0776 37.7871L20.5778 37.1144ZM32.0001 44.5124C29.4665 44.5124 27.1111 43.7602 25.1419 42.4671L24.2395 43.8413C26.4684 45.3051 29.1361 46.1565 32.0001 46.1565V44.5124ZM25.1419 42.4671C23.1535 41.1612 21.5596 39.3041 20.5778 37.1144L19.0776 37.7871C20.1889 40.2655 21.9914 42.365 24.2395 43.8413L25.1419 42.4671ZM22.7577 38.0141L23.8866 43.3251L25.4948 42.9833L24.3659 37.6723L22.7577 38.0141ZM44.6027 37.7816L44.1614 36.7905L42.6595 37.4592L43.1007 38.4503L44.6027 37.7816ZM44.5114 32.0011C44.5114 34.0708 44.0095 36.0208 43.1215 37.7385L44.5819 38.4935C45.5878 36.548 46.1555 34.3397 46.1555 32.0011H44.5114ZM43.1215 37.7385C41.5466 40.7846 38.757 43.1006 35.3966 44.0461L35.842 45.6287C39.6475 44.5579 42.8012 41.9379 44.5819 38.4935L43.1215 37.7385ZM35.3966 44.0461C34.3175 44.3497 33.1785 44.5124 32.0001 44.5124V46.1565C33.3305 46.1565 34.6193 45.9727 35.842 45.6287L35.3966 44.0461ZM34.7364 45.2769L35.2083 45.5493L36.0303 44.1255L35.5584 43.8531L34.7364 45.2769Z" fill="white" fill-opacity="0.6"/>
</svg>