<svg viewBox="0 0 64 64" fill="none" xmlns="http://www.w3.org/2000/svg">
<path d="M31.5999 6.08185L31.6262 6.0838H32.3547L32.3625 6.08282C32.4783 6.08039 32.5921 6.11436 32.6877 6.1795C32.7834 6.24466 32.8566 6.33852 32.8967 6.44708L32.9016 6.46173L32.9075 6.4754L39.468 22.1824L39.6438 22.6043L40.0999 22.6414L57.1399 24.0008L57.1545 24.0018C57.2685 24.0088 57.3777 24.0508 57.467 24.1219C57.5564 24.193 57.6221 24.2898 57.6545 24.3992L57.6584 24.4149L57.8723 25.0818L57.8752 25.0916L57.8792 25.1024C57.9167 25.2096 57.9203 25.3258 57.8899 25.4354C57.8594 25.5451 57.796 25.6431 57.7083 25.7156L57.6975 25.7244L44.845 36.7645L44.4973 37.0623L44.6038 37.5076L48.55 54.0672L48.551 54.0721C48.5795 54.1882 48.5737 54.3101 48.5334 54.4227C48.4966 54.5253 48.4314 54.6148 48.3479 54.6844L47.6379 55.077L47.6077 55.0926L47.5803 55.1121C47.4839 55.1773 47.3696 55.2117 47.2532 55.2117C47.1369 55.2117 47.0234 55.1772 46.927 55.1121L46.9114 55.1014L46.8958 55.0916L32.3889 46.2918L31.9993 46.0555L31.6096 46.2928L17.0237 55.1727L17.0081 55.1824L16.9934 55.1922C16.8969 55.2574 16.7827 55.2918 16.6663 55.2918C16.551 55.2918 16.4388 55.2571 16.343 55.1932L15.7786 54.8094C15.6847 54.738 15.6134 54.6412 15.5735 54.5301C15.5331 54.4174 15.5264 54.2948 15.5549 54.1785L15.5579 54.1688L19.3977 37.5018L19.4993 37.0594L19.1555 36.7645L6.302 25.7244L6.27856 25.7049L6.25513 25.6873L6.18872 25.6307C6.12786 25.5698 6.08142 25.4953 6.05396 25.4129C6.01735 25.303 6.01603 25.1838 6.05005 25.0731L6.04907 25.0721L6.26099 24.4149L6.26294 24.407L6.26587 24.3992C6.29834 24.2898 6.36404 24.1929 6.45337 24.1219C6.54274 24.0509 6.65193 24.0087 6.76587 24.0018L6.77954 24.0008L23.8196 22.6414L24.2766 22.6043L24.4524 22.1815L30.9856 6.47443L30.9895 6.46466C31.0374 6.34441 31.123 6.24245 31.2327 6.17365C31.3423 6.10485 31.4708 6.07268 31.5999 6.08185Z" stroke="white" stroke-width="1.5"/>
</svg>
