<svg viewBox="0 0 64 64" fill="none" xmlns="http://www.w3.org/2000/svg">
<path d="M5.81322 26.2933C5.59324 26.1332 5.42874 25.9083 5.34269 25.6502C5.25664 25.392 5.25333 25.1134 5.33322 24.8533L5.54656 24.1867C5.62269 23.9295 5.77613 23.7019 5.98604 23.535C6.19595 23.368 6.45217 23.2697 6.71989 23.2533L23.7599 21.8933L30.2932 6.18666C30.4 5.91851 30.5894 5.6913 30.8339 5.53789C31.0784 5.38448 31.3653 5.31284 31.6532 5.33333H32.3466C32.6183 5.32756 32.885 5.40666 33.1096 5.55961C33.3343 5.71256 33.5057 5.93175 33.5999 6.18666L40.1599 21.8933L57.1999 23.2533C57.4676 23.2697 57.7238 23.368 57.9337 23.535C58.1436 23.7019 58.2971 23.9295 58.3732 24.1867L58.5866 24.8533C58.6751 25.1054 58.6843 25.3787 58.6127 25.6362C58.5412 25.8936 58.3925 26.123 58.1866 26.2933L45.3332 37.3333L49.2799 53.8933C49.3435 54.1526 49.3294 54.4249 49.2393 54.6762C49.1492 54.9276 48.9871 55.1468 48.7732 55.3067L47.9999 55.7333C47.7794 55.8824 47.5194 55.962 47.2532 55.962C46.9871 55.962 46.727 55.8824 46.5066 55.7333L31.9999 46.9333L17.4132 55.8133C17.1927 55.9624 16.9327 56.042 16.6666 56.042C16.4004 56.042 16.1404 55.9624 15.9199 55.8133L15.3332 55.4133C15.1194 55.2535 14.9573 55.0342 14.8672 54.7829C14.7771 54.5316 14.763 54.2593 14.8266 54L18.6666 37.3333L5.81322 26.2933Z" fill="url(#paint0_linear_21634_7479)"/>
<defs>
<linearGradient id="paint0_linear_21634_7479" x1="17.6685" y1="17.3925" x2="24.6325" y2="66.3188" gradientUnits="userSpaceOnUse">
<stop stop-color="#FFD96F"/>
<stop offset="1" stop-color="#C2862D"/>
</linearGradient>
</defs>
</svg>
