<svg viewBox="0 0 48 48" fill="none" xmlns="http://www.w3.org/2000/svg">
<path d="M4 24C4 16.458 4 12.686 6.344 10.344C8.688 8.002 12.458 8 20 8H28C35.542 8 39.314 8 41.656 10.344C43.998 12.688 44 16.458 44 24C44 31.542 44 35.314 41.656 37.656C39.312 39.998 35.542 40 28 40H20C12.458 40 8.686 40 6.344 37.656C4.002 35.312 4 31.542 4 24Z" stroke="white" stroke-width="2.5"/>
<path d="M20 32H12M28 26H36M28 32H25M19 26H23M36 32H33M12 26H14" stroke="white" stroke-width="2.5" stroke-linecap="round"/>
</svg>
