<svg viewBox="0 0 24 24" fill="none" xmlns="http://www.w3.org/2000/svg">
<path d="M4.8 16.5H14.4V14.25H4.8V16.5ZM16.8 16.5H19.2V14.25H16.8V16.5ZM4.8 12H7.2V9.75H4.8V12ZM9.6 12H19.2V9.75H9.6V12ZM2.4 21C1.74 21 1.1748 20.7795 0.704402 20.3385C0.234002 19.8975 -0.000797963 19.368 2.03735e-06 18.75V5.25C2.03735e-06 4.63125 0.235202 4.10138 0.705602 3.66038C1.176 3.21938 1.7408 2.99925 2.4 3H21.6C22.26 3 22.8252 3.2205 23.2956 3.6615C23.766 4.1025 24.0008 4.632 24 5.25V18.75C24 19.3687 23.7648 19.8986 23.2944 20.3396C22.824 20.7806 22.2592 21.0007 21.6 21H2.4ZM2.4 18.75H21.6V5.25H2.4V18.75Z" fill="white"/>
</svg>
