<svg viewBox="0 0 140 140" fill="none" xmlns="http://www.w3.org/2000/svg">
<path d="M70.0001 134.4C105.567 134.4 134.4 105.567 134.4 70.0002C134.4 34.433 105.567 5.6001 70.0001 5.6001C34.4329 5.6001 5.6 34.433 5.6 70.0002C5.6 105.567 34.4329 134.4 70.0001 134.4Z" fill="#5FAD41"/>
<path d="M134.4 70.0003C134.4 105.42 105.42 134.4 70.0001 134.4C49.4727 134.4 31.3602 125.143 19.6875 110.251C30.555 119.106 44.6426 124.338 59.9375 124.338C95.3576 124.338 124.338 95.3581 124.338 59.9379C124.338 44.6431 119.105 30.5555 110.25 19.688C125.143 31.3601 134.4 49.4726 134.4 70.0003Z" fill="#4E8D36"/>
<path d="M105.018 51.485L63.158 97.3702C60.3403 100.59 55.5105 100.59 52.6929 97.3702L34.9828 77.6477C32.5679 74.83 32.5679 70.4027 35.3853 67.585C38.2029 65.1701 42.6303 65.1701 45.4479 67.9875L57.9254 82.075L94.5529 42.2275C97.3705 39.4099 101.798 39.0075 104.616 41.8251C107.433 44.24 107.433 49.0701 105.018 51.485Z" fill="white"/>
</svg>
