<svg viewBox="0 0 48 48" fill="none" xmlns="http://www.w3.org/2000/svg">
<path fill-rule="evenodd" clip-rule="evenodd" d="M21.9136 2.875H26.0864C29.7844 2.87498 32.6747 2.87497 34.9281 3.17793C37.2313 3.48759 39.0369 4.13221 40.4524 5.54765C41.8678 6.96309 42.5124 8.76866 42.8221 11.0719C43.125 13.3253 43.125 16.2156 43.125 19.9136V28.0864C43.125 31.7844 43.125 34.6747 42.8221 36.9281C42.5124 39.2313 41.8678 41.0369 40.4524 42.4523C39.0369 43.8678 37.2313 44.5124 34.9281 44.8221C32.6747 45.125 29.7844 45.125 26.0864 45.125H21.9136C18.2156 45.125 15.3253 45.125 13.0719 44.8221C10.7687 44.5124 8.96309 43.8678 7.54765 42.4523C6.13221 41.0369 5.48759 39.2313 5.17793 36.9281C4.87497 34.6747 4.87498 31.7844 4.875 28.0864V19.9136C4.87498 16.2156 4.87497 13.3253 5.17793 11.0719C5.48759 8.76866 6.13221 6.96309 7.54765 5.54765C8.96309 4.13221 10.7687 3.48759 13.0719 3.17793C15.3253 2.87497 18.2156 2.87498 21.9136 2.875ZM13.3717 5.40786C11.318 5.68398 10.0663 6.21093 9.13864 7.13864C8.21093 8.06635 7.68398 9.31797 7.40786 11.3717C7.12739 13.4579 7.125 16.197 7.125 20V28C7.125 31.803 7.12739 34.5421 7.40786 36.6283C7.68398 38.682 8.21093 39.9336 9.13864 40.8614C10.0663 41.7891 11.318 42.316 13.3717 42.5921C15.4579 42.8726 18.197 42.875 22 42.875H26C29.803 42.875 32.5421 42.8726 34.6283 42.5921C36.682 42.316 37.9337 41.7891 38.8614 40.8614C39.7891 39.9336 40.316 38.682 40.5921 36.6283C40.8726 34.5421 40.875 31.803 40.875 28V20C40.875 16.197 40.8726 13.4579 40.5921 11.3717C40.316 9.31797 39.7891 8.06635 38.8614 7.13864C37.9337 6.21093 36.682 5.68398 34.6283 5.40786C32.5421 5.12739 29.803 5.125 26 5.125H22C18.197 5.125 15.4579 5.12739 13.3717 5.40786Z" fill="white"/>
<path fill-rule="evenodd" clip-rule="evenodd" d="M14.875 24C14.875 23.3787 15.3787 22.875 16 22.875H32C32.6213 22.875 33.125 23.3787 33.125 24C33.125 24.6213 32.6213 25.125 32 25.125H16C15.3787 25.125 14.875 24.6213 14.875 24Z" fill="white"/>
<path fill-rule="evenodd" clip-rule="evenodd" d="M14.875 16C14.875 15.3787 15.3787 14.875 16 14.875H32C32.6213 14.875 33.125 15.3787 33.125 16C33.125 16.6213 32.6213 17.125 32 17.125H16C15.3787 17.125 14.875 16.6213 14.875 16Z" fill="white"/>
<path fill-rule="evenodd" clip-rule="evenodd" d="M14.875 32C14.875 31.3787 15.3787 30.875 16 30.875H26C26.6213 30.875 27.125 31.3787 27.125 32C27.125 32.6213 26.6213 33.125 26 33.125H16C15.3787 33.125 14.875 32.6213 14.875 32Z" fill="white"/>
</svg>
