<svg viewBox="0 0 48 48" fill="none" xmlns="http://www.w3.org/2000/svg">
<path fill-rule="evenodd" clip-rule="evenodd" d="M0 12.8C0 8.31958 0 6.07937 0.871948 4.36808C1.63893 2.86278 2.86278 1.63893 4.36808 0.871948C6.07937 0 8.31958 0 12.8 0H35.2C39.6804 0 41.9206 0 43.6319 0.871948C45.1372 1.63893 46.3611 2.86278 47.1281 4.36808C48 6.07937 48 8.31958 48 12.8V35.2C48 39.6804 48 41.9206 47.1281 43.6319C46.3611 45.1372 45.1372 46.3611 43.6319 47.1281C41.9206 48 39.6804 48 35.2 48H12.8C8.31958 48 6.07937 48 4.36808 47.1281C2.86278 46.3611 1.63893 45.1372 0.871948 43.6319C0 41.9206 0 39.6804 0 35.2V12.8Z" fill="#E72432"/>
<path d="M17.9988 32.4012L9.59883 24.0012L6.79883 26.8012L17.9988 38.0012L41.9988 14.0012L39.1988 11.2012L17.9988 32.4012Z" fill="white" fill-opacity="0.87"/>
</svg>
