<svg viewBox="0 0 40 40" fill="none" xmlns="http://www.w3.org/2000/svg">
<rect width="40" height="40" rx="20" fill="#28282A"/>
<path d="M21.2 26.2999C20.9658 26.5344 20.6481 26.6663 20.3167 26.6666H19.6834C19.3527 26.6628 19.0362 26.5314 18.8 26.2999L10.25 17.7333C10.1719 17.6558 10.1099 17.5636 10.0676 17.4621C10.0253 17.3605 10.0035 17.2516 10.0035 17.1416C10.0035 17.0316 10.0253 16.9227 10.0676 16.8211C10.1099 16.7196 10.1719 16.6274 10.25 16.5499L11.4334 15.3666C11.5094 15.289 11.6002 15.2274 11.7003 15.1853C11.8005 15.1432 11.9081 15.1215 12.0167 15.1215C12.1254 15.1215 12.2329 15.1432 12.3331 15.1853C12.4332 15.2274 12.524 15.289 12.6 15.3666L20 22.7833L27.4 15.3666C27.4775 15.2885 27.5697 15.2265 27.6712 15.1842C27.7728 15.1419 27.8817 15.1201 27.9917 15.1201C28.1017 15.1201 28.2106 15.1419 28.3122 15.1842C28.4137 15.2265 28.5059 15.2885 28.5834 15.3666L29.75 16.5499C29.8281 16.6274 29.8901 16.7196 29.9324 16.8211C29.9748 16.9227 29.9965 17.0316 29.9965 17.1416C29.9965 17.2516 29.9748 17.3605 29.9324 17.4621C29.8901 17.5636 29.8281 17.6558 29.75 17.7333L21.2 26.2999Z" fill="#8C8C92"/>
</svg>
