<svg viewBox="0 0 40 40" fill="none" xmlns="http://www.w3.org/2000/svg">
<rect x="40" y="40" width="40" height="40" rx="20" transform="rotate(-180 40 40)" fill="#28282A"/>
<path d="M18.8 13.7C19.0342 13.4655 19.3519 13.3336 19.6833 13.3333H20.3167C20.6474 13.3372 20.9638 13.4685 21.2 13.7L29.75 22.2667C29.8281 22.3441 29.8901 22.4363 29.9324 22.5378C29.9747 22.6394 29.9965 22.7483 29.9965 22.8583C29.9965 22.9683 29.9747 23.0773 29.9324 23.1788C29.8901 23.2804 29.8281 23.3725 29.75 23.45L28.5667 24.6333C28.4906 24.7109 28.3999 24.7726 28.2997 24.8147C28.1995 24.8568 28.092 24.8784 27.9833 24.8784C27.8747 24.8784 27.7671 24.8568 27.667 24.8147C27.5668 24.7726 27.476 24.7109 27.4 24.6333L20 17.2167L12.6 24.6333C12.5225 24.7114 12.4304 24.7734 12.3288 24.8157C12.2273 24.858 12.1183 24.8798 12.0083 24.8798C11.8983 24.8798 11.7894 24.858 11.6879 24.8157C11.5863 24.7734 11.4941 24.7114 11.4167 24.6333L10.25 23.45C10.1719 23.3725 10.1099 23.2804 10.0676 23.1788C10.0253 23.0773 10.0035 22.9683 10.0035 22.8583C10.0035 22.7483 10.0253 22.6394 10.0676 22.5378C10.1099 22.4363 10.1719 22.3441 10.25 22.2667L18.8 13.7Z" fill="#8C8C92"/>
</svg>
