<svg viewBox="0 0 40 40" fill="none" xmlns="http://www.w3.org/2000/svg">
<rect width="40" height="40" rx="20" fill="#28282A"/>
<path d="M13.7007 21.2004C13.4662 20.9662 13.3343 20.6485 13.334 20.3171V19.6837C13.3378 19.353 13.4692 19.0366 13.7007 18.8004L22.2673 10.2504C22.3448 10.1723 22.437 10.1103 22.5385 10.068C22.6401 10.0257 22.749 10.0039 22.859 10.0039C22.969 10.0039 23.0779 10.0257 23.1795 10.068C23.281 10.1103 23.3732 10.1723 23.4507 10.2504L24.634 11.4337C24.7116 11.5098 24.7732 11.6005 24.8153 11.7007C24.8574 11.8009 24.8791 11.9084 24.8791 12.0171C24.8791 12.1257 24.8574 12.2333 24.8153 12.3334C24.7732 12.4336 24.7116 12.5244 24.634 12.6004L17.2173 20.0004L24.634 27.4004C24.7121 27.4779 24.7741 27.57 24.8164 27.6716C24.8587 27.7731 24.8805 27.8821 24.8805 27.9921C24.8805 28.1021 24.8587 28.211 24.8164 28.3125C24.7741 28.4141 24.7121 28.5063 24.634 28.5837L23.4507 29.7504C23.3732 29.8285 23.281 29.8905 23.1795 29.9328C23.0779 29.9751 22.969 29.9969 22.859 29.9969C22.749 29.9969 22.6401 29.9751 22.5385 29.9328C22.437 29.8905 22.3448 29.8285 22.2673 29.7504L13.7007 21.2004Z" fill="#8C8C92"/>
</svg>
