<svg viewBox="0 0 1103 522" fill="none" xmlns="http://www.w3.org/2000/svg">
<circle opacity="0.8" cx="536" cy="342" r="180" fill="#232323"/>
<g clip-path="url(#clip0_202_123)">
<path d="M672.601 344.395C672.833 344.163 673.018 343.888 673.143 343.585C673.269 343.281 673.334 342.956 673.333 342.628V341.363C673.326 340.673 673.048 340.05 672.601 339.595L655.468 322.495C655.314 322.338 655.129 322.214 654.926 322.129C654.723 322.044 654.505 322 654.284 322C654.064 322 653.846 322.044 653.643 322.129C653.44 322.214 653.255 322.338 653.101 322.495L650.733 324.863C650.577 325.014 650.454 325.196 650.369 325.396C650.284 325.596 650.241 325.812 650.241 326.029C650.241 326.246 650.284 326.462 650.369 326.662C650.454 326.862 650.577 327.044 650.733 327.195L665.568 341.995L650.733 356.795C650.576 356.95 650.452 357.134 650.367 357.337C650.282 357.541 650.238 357.759 650.238 357.979C650.238 358.199 650.282 358.417 650.367 358.62C650.452 358.824 650.576 359.008 650.733 359.163L653.101 361.495C653.255 361.652 653.44 361.777 653.643 361.862C653.846 361.947 654.064 361.99 654.284 361.99C654.505 361.99 654.723 361.947 654.926 361.862C655.129 361.777 655.314 361.652 655.468 361.495L672.601 344.395Z" fill="white"/>
</g>
<g clip-path="url(#clip1_202_123)">
<path d="M399.399 339.605C399.167 339.837 398.982 340.112 398.857 340.415C398.731 340.719 398.666 341.044 398.667 341.372L398.667 342.637C398.674 343.327 398.952 343.95 399.399 344.405L416.532 361.505C416.686 361.662 416.871 361.786 417.074 361.871C417.277 361.956 417.495 362 417.716 362C417.936 362 418.154 361.956 418.357 361.871C418.56 361.786 418.745 361.662 418.899 361.505L421.267 359.137C421.423 358.986 421.546 358.804 421.631 358.604C421.716 358.404 421.759 358.189 421.759 357.971C421.759 357.754 421.716 357.538 421.631 357.338C421.546 357.138 421.423 356.956 421.267 356.805L406.432 342.005L421.267 327.205C421.424 327.05 421.548 326.866 421.633 326.663C421.718 326.459 421.762 326.241 421.762 326.021C421.762 325.801 421.718 325.583 421.633 325.38C421.548 325.176 421.424 324.992 421.267 324.837L418.899 322.505C418.745 322.348 418.56 322.223 418.357 322.138C418.154 322.053 417.936 322.01 417.716 322.01C417.495 322.01 417.277 322.053 417.074 322.138C416.871 322.223 416.686 322.348 416.532 322.505L399.399 339.605Z" fill="white"/>
</g>
<g clip-path="url(#clip2_202_123)">
<path d="M538.395 205.399C538.163 205.167 537.888 204.982 537.585 204.856C537.281 204.731 536.956 204.666 536.628 204.667L535.363 204.667C534.673 204.674 534.05 204.952 533.595 205.399L516.495 222.532C516.338 222.686 516.214 222.87 516.129 223.074C516.044 223.277 516 223.495 516 223.715C516 223.936 516.044 224.154 516.129 224.357C516.214 224.56 516.338 224.744 516.495 224.899L518.863 227.267C519.014 227.422 519.196 227.546 519.396 227.631C519.596 227.715 519.812 227.759 520.029 227.759C520.246 227.759 520.462 227.715 520.662 227.631C520.862 227.546 521.044 227.422 521.195 227.267L535.995 212.432L550.795 227.267C550.95 227.423 551.134 227.548 551.337 227.633C551.541 227.718 551.759 227.762 551.979 227.762C552.199 227.762 552.417 227.718 552.62 227.633C552.824 227.548 553.008 227.423 553.163 227.267L555.495 224.899C555.652 224.744 555.777 224.56 555.862 224.357C555.947 224.154 555.99 223.936 555.99 223.715C555.99 223.495 555.947 223.277 555.862 223.074C555.777 222.87 555.652 222.686 555.495 222.532L538.395 205.399Z" fill="white"/>
</g>
<g clip-path="url(#clip3_202_123)">
<path d="M533.605 478.601C533.837 478.833 534.112 479.017 534.415 479.143C534.719 479.269 535.044 479.333 535.372 479.333L536.637 479.333C537.327 479.326 537.95 479.048 538.405 478.601L555.505 461.468C555.662 461.313 555.786 461.129 555.871 460.926C555.956 460.723 556 460.505 556 460.284C556 460.064 555.956 459.846 555.871 459.643C555.786 459.439 555.662 459.255 555.505 459.101L553.137 456.733C552.986 456.577 552.804 456.453 552.604 456.369C552.404 456.284 552.189 456.241 551.971 456.241C551.754 456.241 551.538 456.284 551.338 456.369C551.138 456.453 550.956 456.577 550.805 456.733L536.005 471.568L521.205 456.733C521.05 456.576 520.866 456.452 520.663 456.367C520.459 456.282 520.241 456.238 520.021 456.238C519.801 456.238 519.583 456.282 519.38 456.367C519.176 456.452 518.992 456.576 518.837 456.733L516.505 459.101C516.348 459.255 516.223 459.439 516.138 459.643C516.053 459.846 516.01 460.064 516.01 460.284C516.01 460.505 516.053 460.723 516.138 460.926C516.223 461.129 516.348 461.313 516.505 461.468L533.605 478.601Z" fill="white"/>
</g>
<circle cx="536" cy="342" r="60" fill="white"/>
<path d="M535.409 347.364C535.409 349.902 534.928 352.061 533.966 353.841C533.011 355.621 531.708 356.981 530.057 357.92C528.413 358.852 526.564 359.318 524.511 359.318C522.443 359.318 520.587 358.848 518.943 357.909C517.299 356.97 516 355.61 515.045 353.83C514.091 352.049 513.614 349.894 513.614 347.364C513.614 344.826 514.091 342.667 515.045 340.886C516 339.106 517.299 337.75 518.943 336.818C520.587 335.879 522.443 335.409 524.511 335.409C526.564 335.409 528.413 335.879 530.057 336.818C531.708 337.75 533.011 339.106 533.966 340.886C534.928 342.667 535.409 344.826 535.409 347.364ZM530.42 347.364C530.42 345.72 530.174 344.333 529.682 343.205C529.197 342.076 528.511 341.22 527.625 340.636C526.739 340.053 525.701 339.761 524.511 339.761C523.322 339.761 522.284 340.053 521.398 340.636C520.511 341.22 519.822 342.076 519.33 343.205C518.845 344.333 518.602 345.72 518.602 347.364C518.602 349.008 518.845 350.394 519.33 351.523C519.822 352.652 520.511 353.508 521.398 354.091C522.284 354.674 523.322 354.966 524.511 354.966C525.701 354.966 526.739 354.674 527.625 354.091C528.511 353.508 529.197 352.652 529.682 351.523C530.174 350.394 530.42 349.008 530.42 347.364ZM539.44 359V335.727H544.36V345.989H544.667L553.042 335.727H558.94L550.303 346.148L559.042 359H553.156L546.781 349.432L544.36 352.386V359H539.44Z" fill="#090909"/>
<mask id="path-8-inside-1_202_123" fill="white">
<path d="M596 4C596 1.79086 597.791 0 600 0H847C849.209 0 851 1.79086 851 4V116C851 118.209 849.209 120 847 120H600C597.791 120 596 118.209 596 116V4Z"/>
</mask>
<path d="M596 4C596 1.79086 597.791 0 600 0H847C849.209 0 851 1.79086 851 4V116C851 118.209 849.209 120 847 120H600C597.791 120 596 118.209 596 116V4Z" fill="#313131" fill-opacity="0.6"/>
<path d="M600 1H847V-1H600V1ZM850 4V116H852V4H850ZM847 119H600V121H847V119ZM597 116V4H595V116H597ZM600 119C598.343 119 597 117.657 597 116H595C595 118.761 597.239 121 600 121V119ZM850 116C850 117.657 848.657 119 847 119V121C849.761 121 852 118.761 852 116H850ZM847 1C848.657 1 850 2.34315 850 4H852C852 1.23858 849.761 -1 847 -1V1ZM600 -1C597.239 -1 595 1.23858 595 4H597C597 2.34315 598.343 1 600 1V-1Z" fill="white" mask="url(#path-8-inside-1_202_123)"/>
<path opacity="0.8" d="M635.598 36.9062C635.309 37.2344 635.09 37.5195 634.941 37.7617C634.793 38.0039 634.719 38.2109 634.719 38.3828C634.719 38.4766 634.793 38.5508 634.941 38.6055C635.09 38.6523 635.309 38.6758 635.598 38.6758V36.9062ZM637.648 43.0703C637.648 44.0469 637.281 44.7812 636.547 45.2734C635.812 45.7578 634.715 46 633.254 46H630.91C629.449 46 628.352 45.7578 627.617 45.2734C626.883 44.7812 626.516 44.0469 626.516 43.0703V33.6953L625.344 32.3477V31.6914L629.457 29.5938H629.926L632.434 31.1758L634.238 29.5938H634.707L637.039 31.0234C637.383 31.2344 637.75 31.3398 638.141 31.3398H638.809C638.363 32.5195 637.871 33.1094 637.332 33.1094C636.785 33.1094 636.246 32.9492 635.715 32.6289L633.863 31.4688L632.012 33.1094H631.637L628.742 31.2695L627.172 32.0898L628.566 33.6953V43.0703C628.566 43.6562 628.762 44.0938 629.152 44.3828C629.543 44.6797 630.129 44.8281 630.91 44.8281H633.254C634.035 44.8281 634.621 44.6797 635.012 44.3828C635.402 44.0938 635.598 43.6562 635.598 43.0703V39.8477C634.918 39.8477 634.406 39.7266 634.062 39.4844C633.719 39.2422 633.547 38.8789 633.547 38.3945C633.547 38.0742 633.641 37.7266 633.828 37.3516C634.016 36.9766 634.301 36.582 634.684 36.168L635.598 35.1602H637.648V43.0703ZM635.598 54.7891V49.5156C635.598 49.3203 635.547 49.1719 635.445 49.0703C635.352 48.9766 635.207 48.9297 635.012 48.9297C635.012 48.5391 635.121 48.2461 635.34 48.0508C635.559 47.8555 635.891 47.7578 636.336 47.7578C636.773 47.7578 637.102 47.8555 637.32 48.0508C637.539 48.2461 637.648 48.5391 637.648 48.9297V54.7891H635.598ZM653.762 36.9062C653.473 37.2344 653.254 37.5195 653.105 37.7617C652.957 38.0039 652.883 38.2109 652.883 38.3828C652.883 38.4766 652.957 38.5508 653.105 38.6055C653.254 38.6523 653.473 38.6758 653.762 38.6758V36.9062ZM655.812 43.0703C655.812 44.0469 655.445 44.7812 654.711 45.2734C653.977 45.7578 652.879 46 651.418 46H649.074C647.613 46 646.516 45.7578 645.781 45.2734C645.047 44.7812 644.68 44.0469 644.68 43.0703V33.6953L643.508 32.3477V31.6914L647.621 29.5938H648.09L650.598 31.1758L652.402 29.5938H652.871L655.203 31.0234C655.547 31.2344 655.914 31.3398 656.305 31.3398H656.973C656.527 32.5195 656.035 33.1094 655.496 33.1094C654.949 33.1094 654.41 32.9492 653.879 32.6289L652.027 31.4688L650.176 33.1094H649.801L646.906 31.2695L645.336 32.0898L646.73 33.6953V43.0703C646.73 43.6562 646.926 44.0938 647.316 44.3828C647.707 44.6797 648.293 44.8281 649.074 44.8281H651.418C652.199 44.8281 652.785 44.6797 653.176 44.3828C653.566 44.0938 653.762 43.6562 653.762 43.0703V39.8477C653.082 39.8477 652.57 39.7266 652.227 39.4844C651.883 39.2422 651.711 38.8789 651.711 38.3945C651.711 38.0742 651.805 37.7266 651.992 37.3516C652.18 36.9766 652.465 36.582 652.848 36.168L653.762 35.1602H655.812V43.0703Z" fill="white"/>
<g clip-path="url(#clip4_202_123)">
<path d="M684.198 33.6997C684.082 33.5835 683.944 33.4913 683.792 33.4284C683.641 33.3656 683.478 33.3333 683.314 33.3335L682.681 33.3335C682.336 33.3372 682.025 33.476 681.798 33.6997L673.248 42.266C673.169 42.3433 673.107 42.4355 673.064 42.5371C673.022 42.6387 673 42.7477 673 42.8579C673 42.968 673.022 43.0771 673.064 43.1787C673.107 43.2803 673.169 43.3724 673.248 43.4497L674.431 44.6335C674.507 44.7114 674.598 44.7733 674.698 44.8156C674.798 44.8579 674.906 44.8797 675.014 44.8797C675.123 44.8797 675.231 44.8579 675.331 44.8156C675.431 44.7733 675.522 44.7114 675.598 44.6335L682.998 37.216L690.398 44.6335C690.475 44.7119 690.567 44.7742 690.669 44.8167C690.77 44.8592 690.879 44.8811 690.989 44.8811C691.1 44.8811 691.209 44.8592 691.31 44.8167C691.412 44.7742 691.504 44.7119 691.581 44.6335L692.748 43.4497C692.826 43.3724 692.888 43.2803 692.931 43.1787C692.973 43.0771 692.995 42.968 692.995 42.8579C692.995 42.7477 692.973 42.6387 692.931 42.5371C692.888 42.4355 692.826 42.3433 692.748 42.266L684.198 33.6997Z" fill="white"/>
</g>
<path opacity="0.8" d="M717.668 46H716.496C714.832 46 713.586 45.7578 712.758 45.2734C711.93 44.7812 711.516 44.0469 711.516 43.0703V35.1484L709.465 33.8477V33.0977L712.195 29.5938L713.824 30.6016C714.301 30.9062 714.703 31.0586 715.031 31.0586H715.617C714.969 32.2305 714.449 32.8164 714.059 32.8164C713.676 32.8164 713.273 32.6836 712.852 32.418L711.926 31.8438L710.789 33.2969L713.566 35.0547V43.0703C713.566 43.6562 713.809 44.0938 714.293 44.3828C714.785 44.6797 715.52 44.8281 716.496 44.8281H717.668C718.645 44.8281 719.379 44.6797 719.871 44.3828C720.355 44.0938 720.598 43.6562 720.598 43.0703V35.1484L718.547 33.8477V33.0977L721.277 29.5938L722.906 30.6016C723.383 30.9062 723.785 31.0586 724.113 31.0586H724.699C724.051 32.2305 723.531 32.8164 723.141 32.8164C722.758 32.8164 722.355 32.6836 721.934 32.418L721.008 31.8438L719.871 33.2969L722.648 35.0547V43.0703C722.648 44.0469 722.234 44.7812 721.406 45.2734C720.57 45.7578 719.324 46 717.668 46ZM722.66 48.9297C722.66 49.4766 722.523 49.9609 722.25 50.3828C722.328 50.6797 722.547 50.9062 722.906 51.0625C723.266 51.2109 723.766 51.2852 724.406 51.2852C724.406 51.668 724.25 51.957 723.938 52.1523C723.617 52.3477 723.141 52.4453 722.508 52.4453C722.055 52.4453 721.66 52.3828 721.324 52.2578C720.996 52.1328 720.73 51.9492 720.527 51.707C719.926 51.9492 719.199 52.1328 718.348 52.2578C717.496 52.3828 716.516 52.4453 715.406 52.4453C714.203 52.4453 713.18 52.3203 712.336 52.0703C711.492 51.8125 710.832 51.4297 710.355 50.9219C711.801 51.1562 713.492 51.2734 715.43 51.2734C717.148 51.2734 718.441 51.0781 719.309 50.6875C720.168 50.2969 720.598 49.7109 720.598 48.9297C720.598 48.5391 720.305 48.3438 719.719 48.3438C719.719 47.9531 719.844 47.6602 720.094 47.4648C720.344 47.2695 720.715 47.1719 721.207 47.1719C721.691 47.1719 722.055 47.3203 722.297 47.6172C722.539 47.9062 722.66 48.3438 722.66 48.9297Z" fill="white"/>
<g clip-path="url(#clip5_202_123)">
<path d="M751.802 46.3003C751.918 46.4165 752.056 46.5087 752.208 46.5716C752.359 46.6344 752.522 46.6667 752.686 46.6665L753.319 46.6665C753.664 46.6628 753.975 46.524 754.202 46.3003L762.752 37.734C762.831 37.6567 762.893 37.5645 762.936 37.4629C762.978 37.3613 763 37.2523 763 37.1421C763 37.032 762.978 36.9229 762.936 36.8213C762.893 36.7197 762.831 36.6276 762.752 36.5503L761.569 35.3665C761.493 35.2886 761.402 35.2267 761.302 35.1844C761.202 35.1421 761.094 35.1203 760.986 35.1203C760.877 35.1203 760.769 35.1421 760.669 35.1844C760.569 35.2267 760.478 35.2886 760.402 35.3665L753.002 42.784L745.602 35.3665C745.525 35.2881 745.433 35.2258 745.331 35.1833C745.23 35.1408 745.121 35.1189 745.011 35.1189C744.9 35.1189 744.791 35.1408 744.69 35.1833C744.588 35.2258 744.496 35.2881 744.419 35.3665L743.252 36.5503C743.174 36.6276 743.112 36.7197 743.069 36.8213C743.027 36.9229 743.005 37.032 743.005 37.1421C743.005 37.2523 743.027 37.3613 743.069 37.4629C743.112 37.5645 743.174 37.6567 743.252 37.734L751.802 46.3003Z" fill="white"/>
</g>
<path opacity="0.8" d="M783.578 32.4531V40.4336C784.258 40.4336 784.77 40.582 785.113 40.8789C785.457 41.168 785.629 41.6055 785.629 42.1914C785.629 42.668 785.531 43.1406 785.336 43.6094C785.133 44.0781 784.836 44.5391 784.445 44.9922L783.566 46H781.516V29.5938H782.887L784.504 30.625C784.863 30.8516 785.25 30.9648 785.664 30.9648H786.297C785.844 32.332 785.422 33.0156 785.031 33.0156C784.648 33.0156 784.242 32.8789 783.812 32.6055L783.578 32.4531ZM783.578 44.1836C783.867 43.8555 784.086 43.5234 784.234 43.1875C784.375 42.8516 784.445 42.5156 784.445 42.1797C784.445 41.9922 784.375 41.8516 784.234 41.7578C784.086 41.6641 783.867 41.6172 783.578 41.6172V44.1836ZM799.703 33.0156C799.703 32.2656 799.41 31.7031 798.824 31.3281C798.23 30.9531 797.348 30.7656 796.176 30.7656C795.004 30.7656 794.125 30.9531 793.539 31.3281C792.953 31.7031 792.66 32.2656 792.66 33.0156V35.7461C792.66 36.6602 792.953 37.3477 793.539 37.8086C794.133 38.2617 795.016 38.4883 796.188 38.4883H796.902C796.902 37.8633 797.133 37.3945 797.594 37.082C798.055 36.7695 798.742 36.6133 799.656 36.6133C800.352 36.6133 800.871 36.7422 801.215 37C801.566 37.25 801.742 37.625 801.742 38.125C801.742 38.6406 801.566 39.0234 801.215 39.2734C800.871 39.5312 800.352 39.6602 799.656 39.6602H798.953V42.4609C798.953 43.6406 798.699 44.5273 798.191 45.1211C797.676 45.707 796.906 46 795.883 46C794.812 46 794.008 45.8281 793.469 45.4844C792.93 45.1484 792.66 44.6367 792.66 43.9492V42.4727C792.66 42.082 792.371 41.8867 791.793 41.8867C791.793 41.4961 791.922 41.2031 792.18 41.0078C792.445 40.8125 792.844 40.7148 793.375 40.7148C793.82 40.7148 794.156 40.8633 794.383 41.1602C794.602 41.4492 794.711 41.8867 794.711 42.4727V43.9492C794.711 44.2383 794.809 44.457 795.004 44.6055C795.199 44.7461 795.492 44.8164 795.883 44.8164C796.227 44.8164 796.484 44.6211 796.656 44.2305C796.82 43.8398 796.902 43.2539 796.902 42.4727V39.6602H796.188C794.328 39.6602 792.934 39.3359 792.004 38.6875C791.074 38.0312 790.609 37.0508 790.609 35.7461V33.0156C790.609 31.875 791.074 31.0195 792.004 30.4492C792.934 29.8789 794.324 29.5938 796.176 29.5938C798.027 29.5938 799.418 29.8789 800.348 30.4492C800.762 30.707 801.082 31.0195 801.309 31.3867L805.258 29.5938L809.371 31.457V26.6641C809.371 26.2734 809.273 25.9805 809.078 25.7852C808.883 25.5898 808.59 25.4922 808.199 25.4922C808.199 25.1016 808.332 24.8086 808.598 24.6133C808.863 24.418 809.266 24.3203 809.805 24.3203C810.344 24.3203 810.746 24.5156 811.012 24.9062C811.277 25.2969 811.41 25.8828 811.41 26.6641V31.3516C811.41 31.7422 811.215 32.3281 810.824 33.1094V46H808.773V33.4375L804.203 31.3633L801.707 32.4883C801.73 32.6523 801.742 32.8281 801.742 33.0156C801.742 34.25 800.93 34.8672 799.305 34.8672C798.203 34.8672 797.652 34.5742 797.652 33.9883C797.652 33.4023 798.039 33.1094 798.812 33.1094C798.812 33.4922 798.961 33.6836 799.258 33.6836C799.555 33.6836 799.703 33.4609 799.703 33.0156ZM799.656 37.7969C799.188 37.7969 798.953 38.0273 798.953 38.4883H799.656C800.266 38.4883 800.57 38.3711 800.57 38.1367C800.57 37.9102 800.266 37.7969 799.656 37.7969Z" fill="white"/>
<path opacity="0.8" d="M635.598 76.9062C635.309 77.2344 635.09 77.5195 634.941 77.7617C634.793 78.0039 634.719 78.2109 634.719 78.3828C634.719 78.4766 634.793 78.5508 634.941 78.6055C635.09 78.6523 635.309 78.6758 635.598 78.6758V76.9062ZM626.516 73.8359L625.344 72.9219V72.0312L629.211 69.5938H629.867L633.008 72.2305H633.547C634.227 72.2305 634.742 72.0938 635.094 71.8203C635.438 71.5547 635.609 71.2031 635.609 70.7656C635.609 70.1797 635.484 69.7422 635.234 69.4531C634.992 69.1562 634.625 69.0078 634.133 69.0078C634.133 68.6094 634.25 68.3125 634.484 68.1172C634.727 67.9297 635.082 67.8359 635.551 67.8359C636.246 67.8359 636.77 68.0781 637.121 68.5625C637.473 69.0469 637.648 69.7812 637.648 70.7656C637.648 71.625 637.289 72.2812 636.57 72.7344C635.852 73.1797 634.844 73.4023 633.547 73.4023H631.215L628.707 71.293L626.75 72.5352L628.566 73.9648V84.6055L632.082 82.3438L635.598 84.6055V79.8477C634.918 79.8477 634.406 79.7266 634.062 79.4844C633.719 79.2422 633.547 78.8789 633.547 78.3945C633.547 78.0742 633.641 77.7266 633.828 77.3516C634.016 76.9766 634.301 76.582 634.684 76.168L635.598 75.1602L641.504 69.5938L646.73 72.1133V86H644.68V73.4141L641.035 71.6562L637.648 74.8438V86H635.598L632.082 83.7383L628.566 86H626.516V73.8359ZM625.93 91.8594C625.93 90.2969 626.223 89.125 626.809 88.3438C627.395 87.5625 628.273 87.1719 629.445 87.1719C630.383 87.1719 631.172 87.4492 631.812 88.0039C632.453 88.5586 632.945 89.3906 633.289 90.5C633.617 91.3438 633.938 91.9766 634.25 92.3984C634.57 92.8203 634.883 93.0312 635.188 93.0312C635.492 93.0312 635.805 92.543 636.125 91.5664C636.438 90.5898 636.762 89.125 637.098 87.1719H638.879C638.34 89.5156 637.773 91.2734 637.18 92.4453C636.578 93.6172 635.945 94.2031 635.281 94.2031C634.422 94.2031 633.707 93.9727 633.137 93.5117C632.566 93.0508 632.141 92.3633 631.859 91.4492C631.562 90.4102 631.211 89.6328 630.805 89.1172C630.406 88.6016 629.953 88.3438 629.445 88.3438C628.859 88.3438 628.422 88.6367 628.133 89.2227C627.836 89.8086 627.688 90.6875 627.688 91.8594C627.688 92.6406 627.883 93.0312 628.273 93.0312C628.664 93.0312 628.859 92.6406 628.859 91.8594C629.25 91.8594 629.543 91.957 629.738 92.1523C629.934 92.3477 630.031 92.6406 630.031 93.0312C630.031 93.4219 629.883 93.7148 629.586 93.9102C629.297 94.1055 628.859 94.2031 628.273 94.2031C627.492 94.2031 626.906 94.0078 626.516 93.6172C626.125 93.2266 625.93 92.6406 625.93 91.8594ZM655.766 72.5938L658.449 74.2812H660.219C661.781 74.2812 662.953 74.5234 663.734 75.0078C664.516 75.5 664.906 76.2344 664.906 77.2109V83.0703C664.906 83.6562 665.152 84.0938 665.645 84.3828C666.129 84.6797 666.859 84.8281 667.836 84.8281H669.008C669.984 84.8281 670.715 84.6797 671.199 84.3828C671.691 84.0938 671.938 83.6562 671.938 83.0703V75.1484L669.887 73.8477V73.0977L672.617 69.5938L674.246 70.6016C674.723 70.9062 675.125 71.0586 675.453 71.0586H676.039C675.391 72.2305 674.871 72.8164 674.48 72.8164C674.098 72.8164 673.695 72.6836 673.273 72.418L672.348 71.8438L671.211 73.2969L673.988 75.0547V83.0703C673.988 84.0469 673.574 84.7812 672.746 85.2734C671.91 85.7578 670.664 86 669.008 86H667.836C666.172 86 664.926 85.7578 664.098 85.2734C663.27 84.7812 662.855 84.0469 662.855 83.0703V77.2109C662.855 76.625 662.637 76.1875 662.199 75.8984C661.754 75.6016 661.094 75.4531 660.219 75.4531H658.461C657.586 75.4531 656.926 75.6016 656.48 75.8984C656.043 76.1875 655.824 76.625 655.824 77.2109V80.4336H656.41C657.09 80.4336 657.602 80.5781 657.945 80.8672C658.289 81.1641 658.461 81.6055 658.461 82.1914C658.461 82.5898 658.383 82.9688 658.227 83.3281C658.07 83.6875 657.836 84.0195 657.523 84.3242L655.824 86H653.773V77.2109C653.773 76.2344 654.164 75.5 654.945 75.0078C655.352 74.7578 655.867 74.5703 656.492 74.4453L654.359 73.1094V72.2656L657.395 69.5938H657.863L660.195 71.0234C660.539 71.2344 660.906 71.3398 661.297 71.3398H661.965C661.52 72.5195 661.027 73.1094 660.488 73.1094C659.941 73.1094 659.402 72.9492 658.871 72.6289L657.02 71.4688L655.766 72.5938ZM655.824 84.3477L656.598 83.5859C656.824 83.3516 656.996 83.1211 657.113 82.8945C657.23 82.6602 657.289 82.4258 657.289 82.1914C657.289 81.9961 657.215 81.8516 657.066 81.7578C656.918 81.6562 656.699 81.6055 656.41 81.6055H655.824V84.3477ZM669.336 62.5625V66.4297L668.434 67.25L667.555 66.4297V62.5625H669.336ZM687.184 86H686.012C684.348 86 683.102 85.7578 682.273 85.2734C681.445 84.7812 681.031 84.0469 681.031 83.0703V75.1484L678.98 73.8477V73.0977L681.711 69.5938L683.34 70.6016C683.816 70.9062 684.219 71.0586 684.547 71.0586H685.133C684.484 72.2305 683.965 72.8164 683.574 72.8164C683.191 72.8164 682.789 72.6836 682.367 72.418L681.441 71.8438L680.305 73.2969L683.082 75.0547V83.0703C683.082 83.6562 683.324 84.0938 683.809 84.3828C684.301 84.6797 685.035 84.8281 686.012 84.8281H687.184C688.16 84.8281 688.895 84.6797 689.387 84.3828C689.871 84.0938 690.113 83.6562 690.113 83.0703V75.1484L688.062 73.8477V73.0977L690.793 69.5938L692.422 70.6016C692.898 70.9062 693.301 71.0586 693.629 71.0586H694.215C693.566 72.2305 693.047 72.8164 692.656 72.8164C692.273 72.8164 691.871 72.6836 691.449 72.418L690.523 71.8438L689.387 73.2969L692.164 75.0547V83.0703C692.164 84.0469 691.75 84.7812 690.922 85.2734C690.086 85.7578 688.84 86 687.184 86ZM683.668 93.1133C684.059 92.7305 684.254 92.3945 684.254 92.1055C684.254 91.9414 684.059 91.8594 683.668 91.8594V93.1133ZM683.668 90.6875C684.254 90.6875 684.695 90.8047 684.992 91.0391C685.281 91.2734 685.426 91.625 685.426 92.0938C685.426 92.7188 685.133 93.3242 684.547 93.9102L683.668 94.7891H681.91V89.5156C681.91 88.7344 682.301 88.1484 683.082 87.7578C683.863 87.3672 685.035 87.1719 686.598 87.1719C688.16 87.1719 689.332 87.3672 690.113 87.7578C690.895 88.1484 691.285 88.7344 691.285 89.5156V94.7891H689.527V89.5156C689.527 89.125 689.281 88.832 688.789 88.6367C688.305 88.4414 687.574 88.3438 686.598 88.3438C685.621 88.3438 684.891 88.4414 684.406 88.6367C683.914 88.832 683.668 89.125 683.668 89.5156V90.6875ZM687.242 95.375C687.516 95.375 687.719 95.4453 687.852 95.5859C687.992 95.7344 688.062 95.9531 688.062 96.2422C688.062 96.5156 687.91 96.8008 687.605 97.0977C687.449 97.2461 687.219 97.4336 686.914 97.6602C686.609 97.8945 686.211 98.1719 685.719 98.4922C685.719 98.7344 685.762 98.9141 685.848 99.0312C685.934 99.1562 686.062 99.2188 686.234 99.2188C687 99.0156 687.684 98.6953 688.285 98.2578C688.887 97.8203 689.406 97.2578 689.844 96.5703C690.062 96.1641 690.32 95.8633 690.617 95.668C690.914 95.4727 691.25 95.375 691.625 95.375C691.984 95.375 692.164 95.4453 692.164 95.5859C692.164 95.7109 692.109 95.8164 692 95.9023C691.891 95.9648 691.699 96.2539 691.426 96.7695C690.941 97.668 690.266 98.3906 689.398 98.9375C688.539 99.4844 687.484 99.8594 686.234 100.062C685.477 100.062 684.906 99.9297 684.523 99.6641C684.148 99.4062 683.961 99.0156 683.961 98.4922C683.961 98.0625 684.141 97.7773 684.5 97.6367C685.297 97.3867 685.895 97.1602 686.293 96.957C686.691 96.7461 686.891 96.5586 686.891 96.3945C686.891 96.2773 686.695 96.2188 686.305 96.2188C686.305 95.9375 686.383 95.7266 686.539 95.5859C686.695 95.4453 686.93 95.375 687.242 95.375ZM699.195 81.6055H698.902C698.707 81.6055 698.559 81.6562 698.457 81.7578C698.363 81.8516 698.316 81.9961 698.316 82.1914C698.316 82.3555 698.391 82.5859 698.539 82.8828C698.68 83.1797 698.898 83.5391 699.195 83.9609V81.6055ZM701.246 86H699.195L698.164 84.5234C697.828 84.0312 697.574 83.5898 697.402 83.1992C697.23 82.8164 697.145 82.4805 697.145 82.1914C697.145 81.6055 697.293 81.1641 697.59 80.8672C697.879 80.5781 698.316 80.4336 698.902 80.4336H699.195V75.1484L697.145 73.8477V73.0977L699.875 69.5938L701.504 70.6016C701.98 70.9062 702.383 71.0586 702.711 71.0586H703.297C702.648 72.2305 702.129 72.8164 701.738 72.8164C701.355 72.8164 700.953 72.6836 700.531 72.418L699.605 71.8438L698.469 73.2969L701.246 75.0547V86ZM707.703 82.7773C707.703 83.1367 707.75 83.4531 707.844 83.7266C707.945 83.9922 708.094 84.2148 708.289 84.3945V81.8984C708.094 81.8984 707.945 81.9727 707.844 82.1211C707.75 82.2695 707.703 82.4883 707.703 82.7773ZM717.371 76.9062C717.082 77.2344 716.863 77.5195 716.715 77.7617C716.566 78.0039 716.492 78.2109 716.492 78.3828C716.492 78.4766 716.566 78.5508 716.715 78.6055C716.863 78.6523 717.082 78.6758 717.371 78.6758V76.9062ZM726.453 86V73.5312L720.84 71.4805L717.84 73.4023L717.441 73.3906L711.723 71.2812L709.133 72.5L710.34 73.6953V80.7266H711.219C712.195 80.7266 712.93 80.9375 713.422 81.3594C713.906 81.7812 714.148 82.418 714.148 83.2695C714.148 83.793 714.297 84.1836 714.594 84.4414C714.883 84.6992 715.32 84.8281 715.906 84.8281C716.391 84.8281 716.758 84.6797 717.008 84.3828C717.25 84.0938 717.371 83.6562 717.371 83.0703V79.8477C716.691 79.8477 716.18 79.7266 715.836 79.4844C715.492 79.2422 715.32 78.8789 715.32 78.3945C715.32 78.0742 715.414 77.7266 715.602 77.3516C715.789 76.9766 716.074 76.582 716.457 76.168L717.371 75.1602H719.422V83.0703C719.422 84.0469 719.129 84.7812 718.543 85.2734C717.957 85.7578 717.078 86 715.906 86C714.93 86 714.195 85.7734 713.703 85.3203C713.219 84.8672 712.977 84.1836 712.977 83.2695C712.977 82.8086 712.828 82.4648 712.531 82.2383C712.242 82.0117 711.805 81.8984 711.219 81.8984H710.34V86H708.289L707.41 85.1797C707.121 84.8984 706.902 84.5586 706.754 84.1602C706.605 83.7617 706.531 83.3008 706.531 82.7773C706.531 82.0977 706.68 81.5859 706.977 81.2422C707.266 80.8984 707.703 80.7266 708.289 80.7266V73.6953L707.117 72.7695V72.125L712.543 69.5938H713.07L718.473 71.6094L721.637 69.5938L728.504 72.1133V86H726.453ZM736.367 66.6641C735.938 66.6641 735.723 66.7617 735.723 66.957C735.723 67.1523 736.152 67.25 737.012 67.25C737.496 67.25 737.859 67.1016 738.102 66.8047C738.344 66.5156 738.465 66.0781 738.465 65.4922C738.465 64.9062 738.289 64.4688 737.938 64.1797C737.594 63.8828 737.07 63.7344 736.367 63.7344C736.367 62.9531 736.797 62.5625 737.656 62.5625C738.609 62.5625 739.328 62.8047 739.812 63.2891C740.289 63.7812 740.527 64.5156 740.527 65.4922C740.527 66.4688 740.234 67.2031 739.648 67.6953C739.062 68.1797 738.184 68.4219 737.012 68.4219C735.941 68.4219 735.137 68.3008 734.598 68.0586C734.059 67.8164 733.789 67.4492 733.789 66.957C733.789 66.4648 733.898 66.0977 734.117 65.8555C734.328 65.6133 734.648 65.4922 735.078 65.4922C735.508 65.4922 735.828 65.5898 736.039 65.7852C736.258 65.9805 736.367 66.2734 736.367 66.6641ZM737.609 72.4531V80.4336C738.289 80.4336 738.801 80.582 739.145 80.8789C739.488 81.168 739.66 81.6055 739.66 82.1914C739.66 82.668 739.562 83.1406 739.367 83.6094C739.164 84.0781 738.867 84.5391 738.477 84.9922L737.598 86H735.547V69.5938H736.918L738.535 70.625C738.895 70.8516 739.281 70.9648 739.695 70.9648H740.328C739.875 72.332 739.453 73.0156 739.062 73.0156C738.68 73.0156 738.273 72.8789 737.844 72.6055L737.609 72.4531ZM737.609 84.1836C737.898 83.8555 738.117 83.5234 738.266 83.1875C738.406 82.8516 738.477 82.5156 738.477 82.1797C738.477 81.9922 738.406 81.8516 738.266 81.7578C738.117 81.6641 737.898 81.6172 737.609 81.6172V84.1836ZM753.723 73.9883C753.434 73.9883 753.215 74.0117 753.066 74.0586C752.918 74.1133 752.844 74.1875 752.844 74.2812C752.844 74.5781 752.918 74.7969 753.066 74.9375C753.215 75.0859 753.434 75.1602 753.723 75.1602V73.9883ZM744.641 72.3242C744.641 71.418 745.105 70.7344 746.035 70.2734C746.965 69.8203 748.355 69.5938 750.207 69.5938C752.059 69.5938 753.449 69.8203 754.379 70.2734C755.309 70.7344 755.773 71.418 755.773 72.3242V75.1719C755.773 75.5625 755.602 75.8516 755.258 76.0391C754.914 76.2344 754.402 76.332 753.723 76.332C753.043 76.332 752.531 76.1602 752.188 75.8164C751.844 75.4805 751.672 74.9688 751.672 74.2812C751.672 73.7969 751.844 73.4297 752.188 73.1797C752.531 72.9375 753.043 72.8164 753.723 72.8164V72.3242C753.723 71.8008 753.43 71.4102 752.844 71.1523C752.25 70.8945 751.371 70.7656 750.207 70.7656C749.035 70.7656 748.156 70.8945 747.57 71.1523C746.984 71.4102 746.691 71.8008 746.691 72.3242V75.0664C746.691 75.8398 746.984 76.3281 747.57 76.5312L755.773 79.3438V83.2695C755.773 84.1758 755.484 84.8594 754.906 85.3203C754.328 85.7734 753.457 86 752.293 86C751.598 86 750.969 85.8477 750.406 85.543C749.836 85.2383 749.336 84.7812 748.906 84.1719C748.641 83.8047 748.324 83.5273 747.957 83.3398C747.59 83.1602 747.168 83.0703 746.691 83.0703V86H744.641V79.168H746.691V81.8984C747.395 81.8984 748.008 82.0195 748.531 82.2617C749.062 82.5039 749.504 82.8711 749.855 83.3633C750.207 83.8477 750.586 84.2109 750.992 84.4531C751.398 84.6953 751.832 84.8164 752.293 84.8164C752.77 84.8164 753.129 84.6875 753.371 84.4297C753.613 84.1719 753.734 83.7852 753.734 83.2695V79.8711L747.254 77.6562C746.379 77.3594 745.727 76.9922 745.297 76.5547C744.859 76.125 744.641 75.6289 744.641 75.0664V72.3242ZM764.855 84.3477L765.629 83.5859C765.855 83.3516 766.027 83.1211 766.145 82.8945C766.262 82.6602 766.32 82.4258 766.32 82.1914C766.32 81.9961 766.246 81.8516 766.098 81.7578C765.949 81.6562 765.73 81.6055 765.441 81.6055H764.855V84.3477ZM778.039 86H776.867C775.203 86 773.957 85.7578 773.129 85.2734C772.301 84.7812 771.887 84.0469 771.887 83.0703V73.4375L767.316 71.3633L764.855 72.4648V80.4336H765.441C766.121 80.4336 766.633 80.5781 766.977 80.8672C767.32 81.1641 767.492 81.6055 767.492 82.1914C767.492 82.5898 767.414 82.9688 767.258 83.3281C767.102 83.6875 766.867 84.0195 766.555 84.3242L764.855 86H762.805V72.1016L768.371 69.5938L773.938 72.1133V83.0703C773.938 83.6562 774.184 84.0938 774.676 84.3828C775.16 84.6797 775.891 84.8281 776.867 84.8281H778.039C779.016 84.8281 779.746 84.6797 780.23 84.3828C780.723 84.0938 780.969 83.6562 780.969 83.0703V75.1484L778.918 73.8477V73.0977L781.648 69.5938L783.277 70.6016C783.754 70.9062 784.156 71.0586 784.484 71.0586H785.07C784.422 72.2305 783.902 72.8164 783.512 72.8164C783.129 72.8164 782.727 72.6836 782.305 72.418L781.379 71.8438L780.242 73.2969L783.02 75.0547V83.0703C783.02 84.0469 782.605 84.7812 781.777 85.2734C780.941 85.7578 779.695 86 778.039 86Z" fill="white"/>
<path d="M567.001 193.949C566.973 194.5 567.397 194.97 567.949 194.999L576.937 195.46C577.489 195.488 577.959 195.064 577.987 194.512C578.015 193.961 577.591 193.491 577.039 193.462L569.05 193.053L569.46 185.063C569.488 184.511 569.064 184.041 568.512 184.013C567.961 183.985 567.491 184.409 567.462 184.961L567.001 193.949ZM649.33 119.258L647.866 120.579L649.206 122.064L650.67 120.742L649.33 119.258ZM644.937 123.222L642.009 125.865L643.349 127.35L646.277 124.707L644.937 123.222ZM639.08 128.508L636.151 131.15L637.491 132.635L640.42 129.992L639.08 128.508ZM633.223 133.793L630.294 136.436L631.634 137.921L634.563 135.278L633.223 133.793ZM627.366 139.079L624.437 141.722L625.777 143.207L628.706 140.564L627.366 139.079ZM621.509 144.365L618.58 147.008L619.92 148.492L622.849 145.85L621.509 144.365ZM615.651 149.65L612.723 152.293L614.063 153.778L616.991 151.135L615.651 149.65ZM609.794 154.936L606.866 157.579L608.206 159.064L611.134 156.421L609.794 154.936ZM603.937 160.222L601.009 162.865L602.349 164.35L605.277 161.707L603.937 160.222ZM598.08 165.508L595.151 168.15L596.491 169.635L599.42 166.992L598.08 165.508ZM592.223 170.793L589.294 173.436L590.634 174.921L593.563 172.278L592.223 170.793ZM586.366 176.079L583.437 178.722L584.777 180.207L587.706 177.564L586.366 176.079ZM580.509 181.365L577.58 184.008L578.92 185.492L581.849 182.85L580.509 181.365ZM574.651 186.65L571.723 189.293L573.063 190.778L575.991 188.135L574.651 186.65ZM568.794 191.936L567.33 193.258L568.67 194.742L570.134 193.421L568.794 191.936ZM566.003 193.898C565.946 195.001 566.794 195.941 567.898 195.997L585.874 196.919C586.977 196.976 587.917 196.127 587.974 195.024C588.03 193.921 587.182 192.981 586.079 192.925L570.1 192.105L570.919 176.126C570.976 175.023 570.127 174.083 569.024 174.026C567.921 173.97 566.981 174.818 566.924 175.921L566.003 193.898ZM648.66 118.515L647.196 119.837L649.876 122.806L651.34 121.485L648.66 118.515ZM644.267 122.48L641.339 125.122L644.018 128.092L646.947 125.449L644.267 122.48ZM638.41 127.765L635.481 130.408L638.161 133.378L641.09 130.735L638.41 127.765ZM632.553 133.051L629.624 135.694L632.304 138.663L635.233 136.021L632.553 133.051ZM626.696 138.337L623.767 140.98L626.447 143.949L629.376 141.306L626.696 138.337ZM620.839 143.622L617.91 146.265L620.59 149.235L623.518 146.592L620.839 143.622ZM614.981 148.908L612.053 151.551L614.733 154.521L617.661 151.878L614.981 148.908ZM609.124 154.194L606.196 156.837L608.876 159.806L611.804 157.163L609.124 154.194ZM603.267 159.48L600.339 162.122L603.018 165.092L605.947 162.449L603.267 159.48ZM597.41 164.765L594.481 167.408L597.161 170.378L600.09 167.735L597.41 164.765ZM591.553 170.051L588.624 172.694L591.304 175.663L594.233 173.021L591.553 170.051ZM585.696 175.337L582.767 177.98L585.447 180.949L588.376 178.306L585.696 175.337ZM579.839 180.622L576.91 183.265L579.59 186.235L582.519 183.592L579.839 180.622ZM573.982 185.908L571.053 188.551L573.733 191.52L576.661 188.878L573.982 185.908ZM568.124 191.194L566.66 192.515L569.34 195.485L570.804 194.163L568.124 191.194Z" fill="#ED2C25"/>
<mask id="path-18-inside-2_202_123" fill="white">
<path d="M0 287C0 284.791 1.79086 283 4 283H256C258.209 283 260 284.791 260 287V399C260 401.209 258.209 403 256 403H4C1.79086 403 0 401.209 0 399V287Z"/>
</mask>
<path d="M0 287C0 284.791 1.79086 283 4 283H256C258.209 283 260 284.791 260 287V399C260 401.209 258.209 403 256 403H4C1.79086 403 0 401.209 0 399V287Z" fill="#313131" fill-opacity="0.6"/>
<path d="M4 284H256V282H4V284ZM259 287V399H261V287H259ZM256 402H4V404H256V402ZM1 399V287H-1V399H1ZM4 402C2.34315 402 1 400.657 1 399H-1C-1 401.761 1.23858 404 4 404V402ZM259 399C259 400.657 257.657 402 256 402V404C258.761 404 261 401.761 261 399H259ZM256 284C257.657 284 259 285.343 259 287H261C261 284.239 258.761 282 256 282V284ZM4 282C1.23858 282 -1 284.239 -1 287H1C1 285.343 2.34315 284 4 284V282Z" fill="white" mask="url(#path-18-inside-2_202_123)"/>
<path opacity="0.8" d="M32.4441 323.906C32.155 324.234 31.9363 324.52 31.7878 324.762C31.6394 325.004 31.5652 325.211 31.5652 325.383C31.5652 325.477 31.6394 325.551 31.7878 325.605C31.9363 325.652 32.155 325.676 32.4441 325.676V323.906ZM34.4949 330.07C34.4949 331.047 34.1277 331.781 33.3933 332.273C32.6589 332.758 31.5613 333 30.1003 333H27.7566C26.2957 333 25.198 332.758 24.4636 332.273C23.7292 331.781 23.3621 331.047 23.3621 330.07V320.695L22.1902 319.348V318.691L26.3035 316.594H26.7722L29.28 318.176L31.0847 316.594H31.5535L33.8855 318.023C34.2292 318.234 34.5964 318.34 34.9871 318.34H35.655C35.2097 319.52 34.7175 320.109 34.1785 320.109C33.6316 320.109 33.0925 319.949 32.5613 319.629L30.7097 318.469L28.8582 320.109H28.4832L25.5886 318.27L24.0183 319.09L25.4128 320.695V330.07C25.4128 330.656 25.6082 331.094 25.9988 331.383C26.3894 331.68 26.9753 331.828 27.7566 331.828H30.1003C30.8816 331.828 31.4675 331.68 31.8582 331.383C32.2488 331.094 32.4441 330.656 32.4441 330.07V326.848C31.7644 326.848 31.2527 326.727 30.9089 326.484C30.5652 326.242 30.3933 325.879 30.3933 325.395C30.3933 325.074 30.4871 324.727 30.6746 324.352C30.8621 323.977 31.1472 323.582 31.53 323.168L32.4441 322.16H34.4949V330.07ZM32.4441 341.789V336.516C32.4441 336.32 32.3933 336.172 32.2917 336.07C32.198 335.977 32.0535 335.93 31.8582 335.93C31.8582 335.539 31.9675 335.246 32.1863 335.051C32.405 334.855 32.7371 334.758 33.1824 334.758C33.6199 334.758 33.948 334.855 34.1667 335.051C34.3855 335.246 34.4949 335.539 34.4949 335.93V341.789H32.4441ZM50.6082 323.906C50.3191 324.234 50.1003 324.52 49.9519 324.762C49.8035 325.004 49.7292 325.211 49.7292 325.383C49.7292 325.477 49.8035 325.551 49.9519 325.605C50.1003 325.652 50.3191 325.676 50.6082 325.676V323.906ZM52.6589 330.07C52.6589 331.047 52.2917 331.781 51.5574 332.273C50.823 332.758 49.7253 333 48.2644 333H45.9207C44.4597 333 43.3621 332.758 42.6277 332.273C41.8933 331.781 41.5261 331.047 41.5261 330.07V320.695L40.3542 319.348V318.691L44.4675 316.594H44.9363L47.4441 318.176L49.2488 316.594H49.7175L52.0496 318.023C52.3933 318.234 52.7605 318.34 53.1511 318.34H53.8191C53.3738 319.52 52.8816 320.109 52.3425 320.109C51.7957 320.109 51.2566 319.949 50.7253 319.629L48.8738 318.469L47.0222 320.109H46.6472L43.7527 318.27L42.1824 319.09L43.5769 320.695V330.07C43.5769 330.656 43.7722 331.094 44.1628 331.383C44.5535 331.68 45.1394 331.828 45.9207 331.828H48.2644C49.0457 331.828 49.6316 331.68 50.0222 331.383C50.4128 331.094 50.6082 330.656 50.6082 330.07V326.848C49.9285 326.848 49.4167 326.727 49.073 326.484C48.7292 326.242 48.5574 325.879 48.5574 325.395C48.5574 325.074 48.6511 324.727 48.8386 324.352C49.0261 323.977 49.3113 323.582 49.6941 323.168L50.6082 322.16H52.6589V330.07Z" fill="white"/>
<g clip-path="url(#clip6_202_123)">
<path d="M79.5461 325.802C79.4298 325.918 79.3376 326.056 79.2748 326.208C79.2119 326.359 79.1796 326.522 79.1798 326.686L79.1798 327.319C79.1836 327.664 79.3223 327.975 79.5461 328.202L88.1123 336.752C88.1896 336.831 88.2818 336.893 88.3834 336.936C88.485 336.978 88.594 337 88.7042 337C88.8143 337 88.9234 336.978 89.025 336.936C89.1266 336.893 89.2187 336.831 89.2961 336.752L90.4798 335.569C90.5577 335.493 90.6196 335.402 90.6619 335.302C90.7042 335.202 90.726 335.094 90.726 334.986C90.726 334.877 90.7042 334.769 90.6619 334.669C90.6196 334.569 90.5577 334.478 90.4798 334.402L83.0623 327.002L90.4798 319.602C90.5582 319.525 90.6205 319.433 90.663 319.331C90.7055 319.23 90.7274 319.121 90.7274 319.011C90.7274 318.9 90.7055 318.791 90.663 318.69C90.6205 318.588 90.5582 318.496 90.4798 318.419L89.2961 317.252C89.2187 317.174 89.1266 317.112 89.025 317.069C88.9234 317.027 88.8143 317.005 88.7042 317.005C88.594 317.005 88.485 317.027 88.3834 317.069C88.2818 317.112 88.1896 317.174 88.1123 317.252L79.5461 325.802Z" fill="white"/>
</g>
<path opacity="0.8" d="M120.425 319.453V327.434C121.104 327.434 121.616 327.582 121.96 327.879C122.303 328.168 122.475 328.605 122.475 329.191C122.475 329.668 122.378 330.141 122.182 330.609C121.979 331.078 121.682 331.539 121.292 331.992L120.413 333H118.362V316.594H119.733L121.35 317.625C121.71 317.852 122.096 317.965 122.51 317.965H123.143C122.69 319.332 122.268 320.016 121.878 320.016C121.495 320.016 121.089 319.879 120.659 319.605L120.425 319.453ZM120.425 331.184C120.714 330.855 120.932 330.523 121.081 330.188C121.221 329.852 121.292 329.516 121.292 329.18C121.292 328.992 121.221 328.852 121.081 328.758C120.932 328.664 120.714 328.617 120.425 328.617V331.184ZM133.608 319.23C134.585 319.23 135.315 319.098 135.8 318.832C136.292 318.559 136.538 318.156 136.538 317.625C136.538 317.086 136.417 316.68 136.175 316.406C135.925 316.141 135.557 316.008 135.073 316.008C135.073 315.617 135.171 315.324 135.366 315.129C135.561 314.934 135.854 314.836 136.245 314.836C137.026 314.836 137.612 315.066 138.003 315.527C138.393 315.996 138.589 316.695 138.589 317.625C138.589 318.547 138.175 319.242 137.346 319.711C136.518 320.172 135.272 320.402 133.608 320.402H132.436C130.772 320.402 129.526 320.23 128.698 319.887C127.87 319.551 127.456 319.039 127.456 318.352C127.456 317.766 127.651 317.328 128.042 317.039C128.432 316.742 129.014 316.594 129.788 316.594C130.28 316.594 130.651 316.668 130.901 316.816C131.143 316.965 131.264 317.184 131.264 317.473C131.264 317.762 131.167 317.98 130.971 318.129C130.784 318.277 130.495 318.352 130.104 318.352C130.104 317.961 130.007 317.766 129.811 317.766C129.608 317.766 129.507 317.961 129.507 318.352C129.507 318.648 129.753 318.867 130.245 319.008C130.729 319.156 131.46 319.23 132.436 319.23H133.608ZM138.589 333H136.538L133.022 330.738L129.507 333H127.456V322.16H129.507V331.605L133.022 329.344L136.538 331.605V322.16H138.589V333ZM129.214 312.445C129.214 311.43 129.491 310.668 130.046 310.16C130.608 309.652 131.448 309.398 132.565 309.398C133.221 309.398 133.94 309.57 134.721 309.914C135.495 310.258 136.339 310.766 137.253 311.438V308.977H138.589V313.664H131.218C130.553 313.664 130.053 313.562 129.718 313.359C129.382 313.156 129.214 312.852 129.214 312.445ZM132.565 311.238C132.12 311.238 131.784 311.336 131.557 311.531C131.331 311.742 131.218 312.047 131.218 312.445H136.444C135.913 312.047 135.323 311.742 134.675 311.531C134.034 311.336 133.331 311.238 132.565 311.238ZM151.772 333H150.6C148.936 333 147.69 332.758 146.862 332.273C146.034 331.781 145.62 331.047 145.62 330.07V322.148L143.569 320.848V320.098L146.3 316.594L147.928 317.602C148.405 317.906 148.807 318.059 149.135 318.059H149.721C149.073 319.23 148.553 319.816 148.163 319.816C147.78 319.816 147.378 319.684 146.956 319.418L146.03 318.844L144.893 320.297L147.671 322.055V324.797H154.702V322.148L152.651 320.848V320.098L155.382 316.594L157.01 317.602C157.487 317.906 157.889 318.059 158.218 318.059H158.803C158.155 319.23 157.635 319.816 157.245 319.816C156.862 319.816 156.46 319.684 156.038 319.418L155.112 318.844L153.975 320.297L156.753 322.055V330.07C156.753 331.047 156.339 331.781 155.51 332.273C154.675 332.758 153.428 333 151.772 333ZM147.671 325.969V330.07C147.671 330.656 147.913 331.094 148.397 331.383C148.889 331.68 149.624 331.828 150.6 331.828H151.772C152.749 331.828 153.483 331.68 153.975 331.383C154.46 331.094 154.702 330.656 154.702 330.07V325.969H147.671ZM154.995 334.172H156.753L157.339 334.758C157.729 335.148 157.925 335.637 157.925 336.223C157.925 336.809 157.632 337.102 157.046 337.102H156.753V340.395L160.268 338.133L163.784 340.395V322.148L161.733 320.848V320.098L164.464 316.594L166.093 317.602C166.569 317.906 166.971 318.059 167.3 318.059H167.885C167.237 319.23 166.718 319.816 166.327 319.816C165.944 319.816 165.542 319.684 165.12 319.418L164.194 318.844L163.057 320.297L165.835 322.055V341.789H163.784L160.268 339.527L156.753 341.789H154.995V334.172ZM156.471 312.445C156.471 311.43 156.749 310.668 157.303 310.16C157.866 309.652 158.706 309.398 159.823 309.398C160.479 309.398 161.198 309.57 161.979 309.914C162.753 310.258 163.596 310.766 164.51 311.438V308.977H165.846V313.664H158.475C157.811 313.664 157.311 313.562 156.975 313.359C156.639 313.156 156.471 312.852 156.471 312.445ZM159.823 311.238C159.378 311.238 159.042 311.336 158.815 311.531C158.589 311.742 158.475 312.047 158.475 312.445H163.702C163.171 312.047 162.581 311.742 161.932 311.531C161.292 311.336 160.589 311.238 159.823 311.238ZM174.94 319.453V327.434C175.62 327.434 176.132 327.582 176.475 327.879C176.819 328.168 176.991 328.605 176.991 329.191C176.991 329.668 176.893 330.141 176.698 330.609C176.495 331.078 176.198 331.539 175.807 331.992L174.928 333H172.878V316.594H174.249L175.866 317.625C176.225 317.852 176.612 317.965 177.026 317.965H177.659C177.206 319.332 176.784 320.016 176.393 320.016C176.01 320.016 175.604 319.879 175.175 319.605L174.94 319.453ZM174.94 331.184C175.229 330.855 175.448 330.523 175.596 330.188C175.737 329.852 175.807 329.516 175.807 329.18C175.807 328.992 175.737 328.852 175.596 328.758C175.448 328.664 175.229 328.617 174.94 328.617V331.184ZM188.124 333H186.952C185.288 333 184.042 332.758 183.214 332.273C182.385 331.781 181.971 331.047 181.971 330.07V322.148L179.921 320.848V320.098L182.651 316.594L184.28 317.602C184.757 317.906 185.159 318.059 185.487 318.059H186.073C185.425 319.23 184.905 319.816 184.514 319.816C184.132 319.816 183.729 319.684 183.307 319.418L182.382 318.844L181.245 320.297L184.022 322.055V324.797H191.053V322.148L189.003 320.848V320.098L191.733 316.594L193.362 317.602C193.839 317.906 194.241 318.059 194.569 318.059H195.155C194.507 319.23 193.987 319.816 193.596 319.816C193.214 319.816 192.811 319.684 192.389 319.418L191.464 318.844L190.327 320.297L193.104 322.055V330.07C193.104 331.047 192.69 331.781 191.862 332.273C191.026 332.758 189.78 333 188.124 333ZM184.022 325.969V330.07C184.022 330.656 184.264 331.094 184.749 331.383C185.241 331.68 185.975 331.828 186.952 331.828H188.124C189.1 331.828 189.835 331.68 190.327 331.383C190.811 331.094 191.053 330.656 191.053 330.07V325.969H184.022ZM183.729 312.445C183.729 311.43 184.007 310.668 184.561 310.16C185.124 309.652 185.964 309.398 187.081 309.398C187.737 309.398 188.456 309.57 189.237 309.914C190.01 310.258 190.854 310.766 191.768 311.438V308.977H193.104V313.664H185.733C185.069 313.664 184.569 313.562 184.233 313.359C183.897 313.156 183.729 312.852 183.729 312.445ZM187.081 311.238C186.635 311.238 186.3 311.336 186.073 311.531C185.846 311.742 185.733 312.047 185.733 312.445H190.96C190.428 312.047 189.839 311.742 189.19 311.531C188.55 311.336 187.846 311.238 187.081 311.238ZM202.186 331.348L202.96 330.586C203.186 330.352 203.358 330.121 203.475 329.895C203.593 329.66 203.651 329.426 203.651 329.191C203.651 328.996 203.577 328.852 203.428 328.758C203.28 328.656 203.061 328.605 202.772 328.605H202.186V331.348ZM215.37 333H214.198C212.534 333 211.288 332.758 210.46 332.273C209.632 331.781 209.218 331.047 209.218 330.07V320.438L204.647 318.363L202.186 319.465V327.434H202.772C203.452 327.434 203.964 327.578 204.307 327.867C204.651 328.164 204.823 328.605 204.823 329.191C204.823 329.59 204.745 329.969 204.589 330.328C204.432 330.688 204.198 331.02 203.885 331.324L202.186 333H200.135V319.102L205.702 316.594L211.268 319.113V330.07C211.268 330.656 211.514 331.094 212.007 331.383C212.491 331.68 213.221 331.828 214.198 331.828H215.37C216.346 331.828 217.077 331.68 217.561 331.383C218.053 331.094 218.3 330.656 218.3 330.07V322.148L216.249 320.848V320.098L218.979 316.594L220.608 317.602C221.085 317.906 221.487 318.059 221.815 318.059H222.401C221.753 319.23 221.233 319.816 220.843 319.816C220.46 319.816 220.057 319.684 219.635 319.418L218.71 318.844L217.573 320.297L220.35 322.055V330.07C220.35 331.047 219.936 331.781 219.108 332.273C218.272 332.758 217.026 333 215.37 333Z" fill="white"/>
<path opacity="0.8" d="M29.5144 373H28.3425C26.6785 373 25.4324 372.758 24.6042 372.273C23.7761 371.781 23.3621 371.047 23.3621 370.07V362.148L21.3113 360.848V360.098L24.0417 356.594L25.6707 357.602C26.1472 357.906 26.5496 358.059 26.8777 358.059H27.4636C26.8152 359.23 26.2957 359.816 25.905 359.816C25.5222 359.816 25.1199 359.684 24.698 359.418L23.7722 358.844L22.6355 360.297L25.4128 362.055V370.07C25.4128 370.656 25.655 371.094 26.1394 371.383C26.6316 371.68 27.366 371.828 28.3425 371.828H29.5144C30.491 371.828 31.2253 371.68 31.7175 371.383C32.2019 371.094 32.4441 370.656 32.4441 370.07V362.148L30.3933 360.848V360.098L33.1238 356.594L34.7527 357.602C35.2292 357.906 35.6316 358.059 35.9597 358.059H36.5457C35.8972 359.23 35.3777 359.816 34.9871 359.816C34.6042 359.816 34.2019 359.684 33.78 359.418L32.8542 358.844L31.7175 360.297L34.4949 362.055V370.07C34.4949 371.047 34.0808 371.781 33.2527 372.273C32.4167 372.758 31.1707 373 29.5144 373ZM43.5769 371.348L44.3503 370.586C44.5769 370.352 44.7488 370.121 44.866 369.895C44.9832 369.66 45.0417 369.426 45.0417 369.191C45.0417 368.996 44.9675 368.852 44.8191 368.758C44.6707 368.656 44.4519 368.605 44.1628 368.605H43.5769V371.348ZM61.741 373H59.6902V360.906L55.2957 358.457L52.6589 359.922V373H50.6082V359.465L49.2253 358.234L47.1042 360.32L44.9714 358.234L43.5769 359.453V367.434H44.1628C44.8425 367.434 45.3542 367.578 45.698 367.867C46.0417 368.164 46.2136 368.605 46.2136 369.191C46.2136 369.59 46.1355 369.969 45.9792 370.328C45.823 370.688 45.5886 371.02 45.2761 371.324L43.5769 373H41.5261V359.711L45.0066 356.594L47.1042 358.645L49.1902 356.594L51.8621 359.031L56.1746 356.594L61.741 359.734V373ZM59.0691 381.789C58.6707 381.789 58.2644 381.688 57.8503 381.484C57.4363 381.273 57.0183 380.961 56.5964 380.547L56.1628 380.137L55.7058 380.547C55.2371 380.969 54.8074 381.281 54.4167 381.484C54.0261 381.688 53.6316 381.789 53.2332 381.789C52.4519 381.789 51.866 381.426 51.4753 380.699C51.0847 379.973 50.8894 378.887 50.8894 377.441C50.8894 376.355 51.0847 375.539 51.4753 374.992C51.866 374.445 52.4519 374.172 53.2332 374.172C53.6238 374.172 53.8191 374.367 53.8191 374.758C53.8191 375.148 53.6238 375.344 53.2332 375.344C53.0378 375.344 52.8933 375.52 52.7996 375.871C52.698 376.223 52.6472 376.746 52.6472 377.441C52.6472 378.496 52.698 379.289 52.7996 379.82C52.8933 380.352 53.0378 380.617 53.2332 380.617C53.4285 380.617 53.6746 380.539 53.9714 380.383C54.2605 380.227 54.5964 379.973 54.9792 379.621L56.1628 378.531L57.3113 379.621C58.0925 380.285 58.6863 380.617 59.0925 380.617C59.28 380.617 59.4246 380.371 59.5261 379.879C59.6199 379.387 59.6707 378.648 59.6785 377.664C59.5847 377.672 59.491 377.676 59.3972 377.676C59.2957 377.684 59.1941 377.688 59.0925 377.688C58.5066 377.688 58.0652 377.539 57.7683 377.242C57.4792 376.953 57.3347 376.516 57.3347 375.93C57.3347 375.344 57.4792 374.906 57.7683 374.617C58.0652 374.32 58.5066 374.172 59.0925 374.172C59.7175 374.172 60.2175 374.348 60.5925 374.699C60.9675 375.051 61.2175 375.574 61.3425 376.27C61.4519 376.238 61.5613 376.207 61.6707 376.176C61.78 376.152 61.8738 376.125 61.9519 376.094C62.0222 376.07 62.0886 376.051 62.1511 376.035C62.2136 376.027 62.2527 376.023 62.2683 376.023C62.4714 376.023 62.573 376.152 62.573 376.41C62.573 376.762 62.3777 377.016 61.9871 377.172C61.9011 377.203 61.8152 377.234 61.7292 377.266C61.6355 377.297 61.5378 377.328 61.4363 377.359V377.453C61.4363 378.898 61.2371 379.984 60.8386 380.711C60.448 381.43 59.8582 381.789 59.0691 381.789ZM59.0925 375.344C58.8972 375.344 58.7527 375.391 58.6589 375.484C58.5574 375.586 58.5066 375.734 58.5066 375.93C58.5066 376.32 58.6941 376.516 59.0691 376.516H59.5027C59.5886 376.516 59.6355 376.512 59.6433 376.504C59.5574 375.73 59.3738 375.344 59.0925 375.344ZM52.3777 352.445C52.3777 351.43 52.655 350.668 53.2097 350.16C53.7722 349.652 54.6121 349.398 55.7292 349.398C56.3855 349.398 57.1042 349.57 57.8855 349.914C58.6589 350.258 59.5027 350.766 60.4167 351.438V348.977H61.7527V353.664H54.3816C53.7175 353.664 53.2175 353.562 52.8816 353.359C52.5457 353.156 52.3777 352.852 52.3777 352.445ZM55.7292 351.238C55.2839 351.238 54.948 351.336 54.7214 351.531C54.4949 351.742 54.3816 352.047 54.3816 352.445H59.6082C59.0769 352.047 58.4871 351.742 57.8386 351.531C57.198 351.336 56.4949 351.238 55.7292 351.238ZM68.198 369.777C68.198 370.137 68.2449 370.453 68.3386 370.727C68.4402 370.992 68.5886 371.215 68.7839 371.395V368.898C68.5886 368.898 68.4402 368.973 68.3386 369.121C68.2449 369.27 68.198 369.488 68.198 369.777ZM77.866 363.906C77.5769 364.234 77.3582 364.52 77.2097 364.762C77.0613 365.004 76.9871 365.211 76.9871 365.383C76.9871 365.477 77.0613 365.551 77.2097 365.605C77.3582 365.652 77.5769 365.676 77.866 365.676V363.906ZM86.948 373V360.531L81.3347 358.48L78.3347 360.402L77.9363 360.391L72.2175 358.281L69.6277 359.5L70.8347 360.695V367.727H71.7136C72.6902 367.727 73.4246 367.938 73.9167 368.359C74.4011 368.781 74.6433 369.418 74.6433 370.27C74.6433 370.793 74.7917 371.184 75.0886 371.441C75.3777 371.699 75.8152 371.828 76.4011 371.828C76.8855 371.828 77.2527 371.68 77.5027 371.383C77.7449 371.094 77.866 370.656 77.866 370.07V366.848C77.1863 366.848 76.6746 366.727 76.3308 366.484C75.9871 366.242 75.8152 365.879 75.8152 365.395C75.8152 365.074 75.9089 364.727 76.0964 364.352C76.2839 363.977 76.5691 363.582 76.9519 363.168L77.866 362.16H79.9167V370.07C79.9167 371.047 79.6238 371.781 79.0378 372.273C78.4519 372.758 77.573 373 76.4011 373C75.4246 373 74.6902 372.773 74.198 372.32C73.7136 371.867 73.4714 371.184 73.4714 370.27C73.4714 369.809 73.323 369.465 73.0261 369.238C72.7371 369.012 72.2996 368.898 71.7136 368.898H70.8347V373H68.7839L67.905 372.18C67.616 371.898 67.3972 371.559 67.2488 371.16C67.1003 370.762 67.0261 370.301 67.0261 369.777C67.0261 369.098 67.1746 368.586 67.4714 368.242C67.7605 367.898 68.198 367.727 68.7839 367.727V360.695L67.6121 359.77V359.125L73.0378 356.594H73.5652L78.9675 358.609L82.1316 356.594L88.9988 359.113V373H86.948ZM96.8621 353.664C96.4324 353.664 96.2175 353.762 96.2175 353.957C96.2175 354.152 96.6472 354.25 97.5066 354.25C97.991 354.25 98.3542 354.102 98.5964 353.805C98.8386 353.516 98.9597 353.078 98.9597 352.492C98.9597 351.906 98.7839 351.469 98.4324 351.18C98.0886 350.883 97.5652 350.734 96.8621 350.734C96.8621 349.953 97.2917 349.562 98.1511 349.562C99.1042 349.562 99.823 349.805 100.307 350.289C100.784 350.781 101.022 351.516 101.022 352.492C101.022 353.469 100.729 354.203 100.143 354.695C99.5574 355.18 98.6785 355.422 97.5066 355.422C96.4363 355.422 95.6316 355.301 95.0925 355.059C94.5535 354.816 94.2839 354.449 94.2839 353.957C94.2839 353.465 94.3933 353.098 94.6121 352.855C94.823 352.613 95.1433 352.492 95.573 352.492C96.0027 352.492 96.323 352.59 96.5339 352.785C96.7527 352.98 96.8621 353.273 96.8621 353.664ZM98.1042 359.453V367.434C98.7839 367.434 99.2957 367.582 99.6394 367.879C99.9832 368.168 100.155 368.605 100.155 369.191C100.155 369.668 100.057 370.141 99.8621 370.609C99.6589 371.078 99.3621 371.539 98.9714 371.992L98.0925 373H96.0417V356.594H97.4128L99.03 357.625C99.3894 357.852 99.7761 357.965 100.19 357.965H100.823C100.37 359.332 99.948 360.016 99.5574 360.016C99.1746 360.016 98.7683 359.879 98.3386 359.605L98.1042 359.453ZM98.1042 371.184C98.3933 370.855 98.6121 370.523 98.7605 370.188C98.9011 369.852 98.9714 369.516 98.9714 369.18C98.9714 368.992 98.9011 368.852 98.7605 368.758C98.6121 368.664 98.3933 368.617 98.1042 368.617V371.184ZM114.218 360.988C113.928 360.988 113.71 361.012 113.561 361.059C113.413 361.113 113.339 361.188 113.339 361.281C113.339 361.578 113.413 361.797 113.561 361.938C113.71 362.086 113.928 362.16 114.218 362.16V360.988ZM105.135 359.324C105.135 358.418 105.6 357.734 106.53 357.273C107.46 356.82 108.85 356.594 110.702 356.594C112.553 356.594 113.944 356.82 114.874 357.273C115.803 357.734 116.268 358.418 116.268 359.324V362.172C116.268 362.562 116.096 362.852 115.753 363.039C115.409 363.234 114.897 363.332 114.218 363.332C113.538 363.332 113.026 363.16 112.682 362.816C112.339 362.48 112.167 361.969 112.167 361.281C112.167 360.797 112.339 360.43 112.682 360.18C113.026 359.938 113.538 359.816 114.218 359.816V359.324C114.218 358.801 113.925 358.41 113.339 358.152C112.745 357.895 111.866 357.766 110.702 357.766C109.53 357.766 108.651 357.895 108.065 358.152C107.479 358.41 107.186 358.801 107.186 359.324V362.066C107.186 362.84 107.479 363.328 108.065 363.531L116.268 366.344V370.27C116.268 371.176 115.979 371.859 115.401 372.32C114.823 372.773 113.952 373 112.788 373C112.093 373 111.464 372.848 110.901 372.543C110.331 372.238 109.831 371.781 109.401 371.172C109.135 370.805 108.819 370.527 108.452 370.34C108.085 370.16 107.663 370.07 107.186 370.07V373H105.135V366.168H107.186V368.898C107.889 368.898 108.503 369.02 109.026 369.262C109.557 369.504 109.999 369.871 110.35 370.363C110.702 370.848 111.081 371.211 111.487 371.453C111.893 371.695 112.327 371.816 112.788 371.816C113.264 371.816 113.624 371.688 113.866 371.43C114.108 371.172 114.229 370.785 114.229 370.27V366.871L107.749 364.656C106.874 364.359 106.221 363.992 105.792 363.555C105.354 363.125 105.135 362.629 105.135 362.066V359.324ZM125.35 371.348L126.124 370.586C126.35 370.352 126.522 370.121 126.639 369.895C126.757 369.66 126.815 369.426 126.815 369.191C126.815 368.996 126.741 368.852 126.593 368.758C126.444 368.656 126.225 368.605 125.936 368.605H125.35V371.348ZM138.534 373H137.362C135.698 373 134.452 372.758 133.624 372.273C132.796 371.781 132.382 371.047 132.382 370.07V360.438L127.811 358.363L125.35 359.465V367.434H125.936C126.616 367.434 127.128 367.578 127.471 367.867C127.815 368.164 127.987 368.605 127.987 369.191C127.987 369.59 127.909 369.969 127.753 370.328C127.596 370.688 127.362 371.02 127.05 371.324L125.35 373H123.3V359.102L128.866 356.594L134.432 359.113V370.07C134.432 370.656 134.678 371.094 135.171 371.383C135.655 371.68 136.385 371.828 137.362 371.828H138.534C139.51 371.828 140.241 371.68 140.725 371.383C141.218 371.094 141.464 370.656 141.464 370.07V362.148L139.413 360.848V360.098L142.143 356.594L143.772 357.602C144.249 357.906 144.651 358.059 144.979 358.059H145.565C144.917 359.23 144.397 359.816 144.007 359.816C143.624 359.816 143.221 359.684 142.8 359.418L141.874 358.844L140.737 360.297L143.514 362.055V370.07C143.514 371.047 143.1 371.781 142.272 372.273C141.436 372.758 140.19 373 138.534 373Z" fill="white"/>
<path d="M385.701 343.713C386.095 343.325 386.1 342.692 385.713 342.299L379.4 335.884C379.013 335.49 378.379 335.485 377.986 335.873C377.592 336.26 377.587 336.893 377.974 337.287L383.586 342.989L377.884 348.6C377.49 348.987 377.485 349.621 377.873 350.014C378.26 350.408 378.893 350.413 379.287 350.026L385.701 343.713ZM259.992 343L261.945 343.016L261.961 341.016L260.008 341L259.992 343ZM265.851 343.047L269.758 343.078L269.774 341.078L265.867 341.047L265.851 343.047ZM273.664 343.109L277.57 343.141L277.586 341.141L273.68 341.109L273.664 343.109ZM281.476 343.172L285.383 343.203L285.399 341.203L281.492 341.172L281.476 343.172ZM289.289 343.234L293.195 343.266L293.211 341.266L289.305 341.234L289.289 343.234ZM297.101 343.297L301.008 343.328L301.024 341.328L297.117 341.297L297.101 343.297ZM304.914 343.359L308.82 343.391L308.836 341.391L304.93 341.359L304.914 343.359ZM312.726 343.422L316.633 343.453L316.649 341.453L312.742 341.422L312.726 343.422ZM320.539 343.484L324.445 343.516L324.461 341.516L320.555 341.484L320.539 343.484ZM328.351 343.547L332.258 343.578L332.274 341.578L328.367 341.547L328.351 343.547ZM336.164 343.609L340.07 343.641L340.086 341.641L336.18 341.609L336.164 343.609ZM343.976 343.672L347.883 343.703L347.899 341.703L343.992 341.672L343.976 343.672ZM351.789 343.734L355.695 343.766L355.711 341.766L351.805 341.734L351.789 343.734ZM359.601 343.797L363.508 343.828L363.524 341.828L359.617 341.797L359.601 343.797ZM367.414 343.859L371.32 343.891L371.336 341.891L367.43 341.859L367.414 343.859ZM375.226 343.922L379.133 343.953L379.149 341.953L375.242 341.922L375.226 343.922ZM383.039 343.984L384.992 344L385.008 342L383.055 341.984L383.039 343.984ZM386.403 344.425C387.19 343.651 387.2 342.384 386.425 341.597L373.8 328.768C373.025 327.981 371.759 327.97 370.971 328.745C370.184 329.52 370.174 330.786 370.949 331.574L382.172 342.977L370.768 354.2C369.981 354.975 369.97 356.241 370.745 357.029C371.52 357.816 372.786 357.826 373.574 357.051L386.403 344.425ZM259.984 344L261.937 344.016L261.969 340.016L260.016 340L259.984 344ZM265.843 344.047L269.75 344.078L269.782 340.078L265.875 340.047L265.843 344.047ZM273.656 344.109L277.562 344.141L277.594 340.141L273.688 340.109L273.656 344.109ZM281.468 344.172L285.375 344.203L285.407 340.203L281.5 340.172L281.468 344.172ZM289.281 344.234L293.187 344.266L293.219 340.266L289.313 340.234L289.281 344.234ZM297.093 344.297L301 344.328L301.032 340.328L297.125 340.297L297.093 344.297ZM304.906 344.359L308.812 344.391L308.844 340.391L304.938 340.359L304.906 344.359ZM312.718 344.422L316.625 344.453L316.657 340.453L312.75 340.422L312.718 344.422ZM320.531 344.484L324.437 344.516L324.469 340.516L320.563 340.484L320.531 344.484ZM328.343 344.547L332.25 344.578L332.282 340.578L328.375 340.547L328.343 344.547ZM336.156 344.609L340.062 344.641L340.094 340.641L336.188 340.609L336.156 344.609ZM343.968 344.672L347.875 344.703L347.907 340.703L344 340.672L343.968 344.672ZM351.781 344.734L355.687 344.766L355.719 340.766L351.813 340.734L351.781 344.734ZM359.593 344.797L363.5 344.828L363.532 340.828L359.625 340.797L359.593 344.797ZM367.406 344.859L371.312 344.891L371.344 340.891L367.438 340.859L367.406 344.859ZM375.218 344.922L379.125 344.953L379.157 340.953L375.25 340.922L375.218 344.922ZM383.031 344.984L384.984 345L385.016 341L383.063 340.984L383.031 344.984Z" fill="#ED2C25"/>
<mask id="path-26-inside-3_202_123" fill="white">
<path d="M802 391C802 388.791 803.791 387 806 387H1099C1101.21 387 1103 388.791 1103 391V503C1103 505.209 1101.21 507 1099 507H806C803.791 507 802 505.209 802 503V391Z"/>
</mask>
<path d="M802 391C802 388.791 803.791 387 806 387H1099C1101.21 387 1103 388.791 1103 391V503C1103 505.209 1101.21 507 1099 507H806C803.791 507 802 505.209 802 503V391Z" fill="#313131" fill-opacity="0.6"/>
<path d="M806 388H1099V386H806V388ZM1102 391V503H1104V391H1102ZM1099 506H806V508H1099V506ZM803 503V391H801V503H803ZM806 506C804.343 506 803 504.657 803 503H801C801 505.761 803.239 508 806 508V506ZM1102 503C1102 504.657 1100.66 506 1099 506V508C1101.76 508 1104 505.761 1104 503H1102ZM1099 388C1100.66 388 1102 389.343 1102 391H1104C1104 388.239 1101.76 386 1099 386V388ZM806 386C803.239 386 801 388.239 801 391H803C803 389.343 804.343 388 806 388V386Z" fill="white" mask="url(#path-26-inside-3_202_123)"/>
<path opacity="0.8" d="M843.598 429.906C843.309 430.234 843.09 430.52 842.941 430.762C842.793 431.004 842.719 431.211 842.719 431.383C842.719 431.477 842.793 431.551 842.941 431.605C843.09 431.652 843.309 431.676 843.598 431.676V429.906ZM845.648 436.07C845.648 437.047 845.281 437.781 844.547 438.273C843.812 438.758 842.715 439 841.254 439H838.91C837.449 439 836.352 438.758 835.617 438.273C834.883 437.781 834.516 437.047 834.516 436.07V426.695L833.344 425.348V424.691L837.457 422.594H837.926L840.434 424.176L842.238 422.594H842.707L845.039 424.023C845.383 424.234 845.75 424.34 846.141 424.34H846.809C846.363 425.52 845.871 426.109 845.332 426.109C844.785 426.109 844.246 425.949 843.715 425.629L841.863 424.469L840.012 426.109H839.637L836.742 424.27L835.172 425.09L836.566 426.695V436.07C836.566 436.656 836.762 437.094 837.152 437.383C837.543 437.68 838.129 437.828 838.91 437.828H841.254C842.035 437.828 842.621 437.68 843.012 437.383C843.402 437.094 843.598 436.656 843.598 436.07V432.848C842.918 432.848 842.406 432.727 842.062 432.484C841.719 432.242 841.547 431.879 841.547 431.395C841.547 431.074 841.641 430.727 841.828 430.352C842.016 429.977 842.301 429.582 842.684 429.168L843.598 428.16H845.648V436.07ZM843.598 447.789V442.516C843.598 442.32 843.547 442.172 843.445 442.07C843.352 441.977 843.207 441.93 843.012 441.93C843.012 441.539 843.121 441.246 843.34 441.051C843.559 440.855 843.891 440.758 844.336 440.758C844.773 440.758 845.102 440.855 845.32 441.051C845.539 441.246 845.648 441.539 845.648 441.93V447.789H843.598ZM861.762 429.906C861.473 430.234 861.254 430.52 861.105 430.762C860.957 431.004 860.883 431.211 860.883 431.383C860.883 431.477 860.957 431.551 861.105 431.605C861.254 431.652 861.473 431.676 861.762 431.676V429.906ZM863.812 436.07C863.812 437.047 863.445 437.781 862.711 438.273C861.977 438.758 860.879 439 859.418 439H857.074C855.613 439 854.516 438.758 853.781 438.273C853.047 437.781 852.68 437.047 852.68 436.07V426.695L851.508 425.348V424.691L855.621 422.594H856.09L858.598 424.176L860.402 422.594H860.871L863.203 424.023C863.547 424.234 863.914 424.34 864.305 424.34H864.973C864.527 425.52 864.035 426.109 863.496 426.109C862.949 426.109 862.41 425.949 861.879 425.629L860.027 424.469L858.176 426.109H857.801L854.906 424.27L853.336 425.09L854.73 426.695V436.07C854.73 436.656 854.926 437.094 855.316 437.383C855.707 437.68 856.293 437.828 857.074 437.828H859.418C860.199 437.828 860.785 437.68 861.176 437.383C861.566 437.094 861.762 436.656 861.762 436.07V432.848C861.082 432.848 860.57 432.727 860.227 432.484C859.883 432.242 859.711 431.879 859.711 431.395C859.711 431.074 859.805 430.727 859.992 430.352C860.18 429.977 860.465 429.582 860.848 429.168L861.762 428.16H863.812V436.07Z" fill="white"/>
<path opacity="0.8" d="M897.046 431.273C897.046 433.176 896.685 434.795 895.963 436.131C895.248 437.466 894.27 438.486 893.032 439.19C891.799 439.889 890.412 440.239 888.873 440.239C887.321 440.239 885.929 439.886 884.696 439.182C883.463 438.477 882.489 437.457 881.773 436.122C881.057 434.787 880.699 433.17 880.699 431.273C880.699 429.369 881.057 427.75 881.773 426.415C882.489 425.08 883.463 424.062 884.696 423.364C885.929 422.659 887.321 422.307 888.873 422.307C890.412 422.307 891.799 422.659 893.032 423.364C894.27 424.062 895.248 425.08 895.963 426.415C896.685 427.75 897.046 429.369 897.046 431.273ZM893.304 431.273C893.304 430.04 893.12 429 892.75 428.153C892.387 427.307 891.873 426.665 891.208 426.227C890.543 425.79 889.765 425.571 888.873 425.571C887.98 425.571 887.202 425.79 886.537 426.227C885.873 426.665 885.355 427.307 884.986 428.153C884.623 429 884.441 430.04 884.441 431.273C884.441 432.506 884.623 433.545 884.986 434.392C885.355 435.239 885.873 435.881 886.537 436.318C887.202 436.756 887.98 436.974 888.873 436.974C889.765 436.974 890.543 436.756 891.208 436.318C891.873 435.881 892.387 435.239 892.75 434.392C893.12 433.545 893.304 432.506 893.304 431.273ZM899.779 440V422.545H903.47V430.241H903.7L909.981 422.545H914.404L907.927 430.361L914.481 440H910.066L905.285 432.824L903.47 435.04V440H899.779Z" fill="white"/>
<path opacity="0.8" d="M932.227 423.453V431.434C932.907 431.434 933.419 431.582 933.762 431.879C934.106 432.168 934.278 432.605 934.278 433.191C934.278 433.668 934.18 434.141 933.985 434.609C933.782 435.078 933.485 435.539 933.094 435.992L932.216 437H930.165V420.594H931.536L933.153 421.625C933.512 421.852 933.899 421.965 934.313 421.965H934.946C934.493 423.332 934.071 424.016 933.68 424.016C933.298 424.016 932.891 423.879 932.462 423.605L932.227 423.453ZM932.227 435.184C932.516 434.855 932.735 434.523 932.884 434.188C933.024 433.852 933.094 433.516 933.094 433.18C933.094 432.992 933.024 432.852 932.884 432.758C932.735 432.664 932.516 432.617 932.227 432.617V435.184ZM948.352 424.016C948.352 423.266 948.059 422.703 947.473 422.328C946.88 421.953 945.997 421.766 944.825 421.766C943.653 421.766 942.774 421.953 942.188 422.328C941.602 422.703 941.309 423.266 941.309 424.016V426.746C941.309 427.66 941.602 428.348 942.188 428.809C942.782 429.262 943.665 429.488 944.837 429.488H945.552C945.552 428.863 945.782 428.395 946.243 428.082C946.704 427.77 947.391 427.613 948.305 427.613C949.001 427.613 949.52 427.742 949.864 428C950.216 428.25 950.391 428.625 950.391 429.125C950.391 429.641 950.216 430.023 949.864 430.273C949.52 430.531 949.001 430.66 948.305 430.66H947.602V433.461C947.602 434.641 947.348 435.527 946.841 436.121C946.325 436.707 945.555 437 944.532 437C943.462 437 942.657 436.828 942.118 436.484C941.579 436.148 941.309 435.637 941.309 434.949V433.473C941.309 433.082 941.02 432.887 940.442 432.887C940.442 432.496 940.571 432.203 940.829 432.008C941.094 431.812 941.493 431.715 942.024 431.715C942.469 431.715 942.805 431.863 943.032 432.16C943.251 432.449 943.36 432.887 943.36 433.473V434.949C943.36 435.238 943.458 435.457 943.653 435.605C943.848 435.746 944.141 435.816 944.532 435.816C944.876 435.816 945.134 435.621 945.305 435.23C945.469 434.84 945.552 434.254 945.552 433.473V430.66H944.837C942.977 430.66 941.583 430.336 940.653 429.688C939.723 429.031 939.259 428.051 939.259 426.746V424.016C939.259 422.875 939.723 422.02 940.653 421.449C941.583 420.879 942.973 420.594 944.825 420.594C946.677 420.594 948.067 420.879 948.997 421.449C949.411 421.707 949.731 422.02 949.958 422.387L953.907 420.594L958.02 422.457V417.664C958.02 417.273 957.923 416.98 957.727 416.785C957.532 416.59 957.239 416.492 956.848 416.492C956.848 416.102 956.981 415.809 957.247 415.613C957.512 415.418 957.915 415.32 958.454 415.32C958.993 415.32 959.395 415.516 959.661 415.906C959.927 416.297 960.059 416.883 960.059 417.664V422.352C960.059 422.742 959.864 423.328 959.473 424.109V437H957.423V424.438L952.852 422.363L950.356 423.488C950.38 423.652 950.391 423.828 950.391 424.016C950.391 425.25 949.579 425.867 947.954 425.867C946.852 425.867 946.302 425.574 946.302 424.988C946.302 424.402 946.688 424.109 947.462 424.109C947.462 424.492 947.61 424.684 947.907 424.684C948.204 424.684 948.352 424.461 948.352 424.016ZM948.305 428.797C947.837 428.797 947.602 429.027 947.602 429.488H948.305C948.915 429.488 949.219 429.371 949.219 429.137C949.219 428.91 948.915 428.797 948.305 428.797Z" fill="white"/>
<path opacity="0.8" d="M835.336 459.664C834.906 459.664 834.691 459.762 834.691 459.957C834.691 460.152 835.121 460.25 835.98 460.25C836.465 460.25 836.828 460.102 837.07 459.805C837.312 459.516 837.434 459.078 837.434 458.492C837.434 457.906 837.258 457.469 836.906 457.18C836.562 456.883 836.039 456.734 835.336 456.734C835.336 455.953 835.766 455.562 836.625 455.562C837.578 455.562 838.297 455.805 838.781 456.289C839.258 456.781 839.496 457.516 839.496 458.492C839.496 459.469 839.203 460.203 838.617 460.695C838.031 461.18 837.152 461.422 835.98 461.422C834.91 461.422 834.105 461.301 833.566 461.059C833.027 460.816 832.758 460.449 832.758 459.957C832.758 459.465 832.867 459.098 833.086 458.855C833.297 458.613 833.617 458.492 834.047 458.492C834.477 458.492 834.797 458.59 835.008 458.785C835.227 458.98 835.336 459.273 835.336 459.664ZM836.578 465.453V473.434C837.258 473.434 837.77 473.582 838.113 473.879C838.457 474.168 838.629 474.605 838.629 475.191C838.629 475.668 838.531 476.141 838.336 476.609C838.133 477.078 837.836 477.539 837.445 477.992L836.566 479H834.516V462.594H835.887L837.504 463.625C837.863 463.852 838.25 463.965 838.664 463.965H839.297C838.844 465.332 838.422 466.016 838.031 466.016C837.648 466.016 837.242 465.879 836.812 465.605L836.578 465.453ZM836.578 477.184C836.867 476.855 837.086 476.523 837.234 476.188C837.375 475.852 837.445 475.516 837.445 475.18C837.445 474.992 837.375 474.852 837.234 474.758C837.086 474.664 836.867 474.617 836.578 474.617V477.184ZM845.602 465.594L848.285 467.281H850.055C851.617 467.281 852.789 467.523 853.57 468.008C854.352 468.5 854.742 469.234 854.742 470.211V476.07C854.742 476.656 854.988 477.094 855.48 477.383C855.965 477.68 856.695 477.828 857.672 477.828H858.844C859.82 477.828 860.551 477.68 861.035 477.383C861.527 477.094 861.773 476.656 861.773 476.07V468.148L859.723 466.848V466.098L862.453 462.594L864.082 463.602C864.559 463.906 864.961 464.059 865.289 464.059H865.875C865.227 465.23 864.707 465.816 864.316 465.816C863.934 465.816 863.531 465.684 863.109 465.418L862.184 464.844L861.047 466.297L863.824 468.055V476.07C863.824 477.047 863.41 477.781 862.582 478.273C861.746 478.758 860.5 479 858.844 479H857.672C856.008 479 854.762 478.758 853.934 478.273C853.105 477.781 852.691 477.047 852.691 476.07V470.211C852.691 469.625 852.473 469.188 852.035 468.898C851.59 468.602 850.93 468.453 850.055 468.453H848.297C847.422 468.453 846.762 468.602 846.316 468.898C845.879 469.188 845.66 469.625 845.66 470.211V473.434H846.246C846.926 473.434 847.438 473.578 847.781 473.867C848.125 474.164 848.297 474.605 848.297 475.191C848.297 475.59 848.219 475.969 848.062 476.328C847.906 476.688 847.672 477.02 847.359 477.324L845.66 479H843.609V470.211C843.609 469.234 844 468.5 844.781 468.008C845.188 467.758 845.703 467.57 846.328 467.445L844.195 466.109V465.266L847.23 462.594H847.699L850.031 464.023C850.375 464.234 850.742 464.34 851.133 464.34H851.801C851.355 465.52 850.863 466.109 850.324 466.109C849.777 466.109 849.238 465.949 848.707 465.629L846.855 464.469L845.602 465.594ZM845.66 477.348L846.434 476.586C846.66 476.352 846.832 476.121 846.949 475.895C847.066 475.66 847.125 475.426 847.125 475.191C847.125 474.996 847.051 474.852 846.902 474.758C846.754 474.656 846.535 474.605 846.246 474.605H845.66V477.348ZM861.316 486.266C860.23 487.281 858.824 487.789 857.098 487.789C855.926 487.789 855.047 487.578 854.461 487.156C853.875 486.742 853.582 486.117 853.582 485.281V484.215C854.988 484.207 856.328 483.867 857.602 483.195C858.867 482.523 860.066 481.516 861.199 480.172H862.957V481.344C862.957 483.602 862.41 485.242 861.316 486.266ZM860.496 482.773C859.676 483.43 858.836 483.965 857.977 484.379C857.117 484.793 856.238 485.094 855.34 485.281C855.34 485.75 855.484 486.105 855.773 486.348C856.07 486.582 856.512 486.699 857.098 486.699C858.504 486.699 859.539 486.262 860.203 485.387C860.758 484.668 861.082 483.613 861.176 482.223L861.117 482.27C861.016 482.355 860.914 482.438 860.812 482.516C860.711 482.602 860.605 482.688 860.496 482.773ZM877.301 464.586C877.301 464.789 877.359 464.945 877.477 465.055C877.602 465.172 877.785 465.23 878.027 465.23C878.27 465.23 878.449 465.172 878.566 465.055C878.684 464.945 878.742 464.781 878.742 464.562C878.742 464.359 878.684 464.203 878.566 464.094C878.449 463.984 878.27 463.926 878.027 463.918C877.785 463.926 877.602 463.984 877.477 464.094C877.359 464.211 877.301 464.375 877.301 464.586ZM870.867 470.199C870.57 470.52 870.352 470.805 870.211 471.055C870.062 471.305 869.988 471.512 869.988 471.676C869.988 471.777 870.062 471.852 870.211 471.898C870.352 471.945 870.57 471.969 870.867 471.969V470.199ZM882 479H879.949L876.434 476.738L872.918 479H870.867V473.141C870.18 473.141 869.668 473.02 869.332 472.777C868.988 472.535 868.816 472.172 868.816 471.688C868.816 471.359 868.91 471.012 869.098 470.645C869.293 470.277 869.578 469.883 869.953 469.461L870.867 468.453H872.918V477.605L876.434 475.344L879.949 477.605V467.527L877.512 466.402H874.383C873.211 466.402 872.332 466.246 871.746 465.934C871.16 465.621 870.867 465.094 870.867 464.352V462.582C870.867 462.301 870.77 462.086 870.574 461.938C870.379 461.789 870.086 461.715 869.695 461.715C869.695 461.223 869.816 460.855 870.059 460.613C870.309 460.371 870.676 460.25 871.16 460.25C871.754 460.25 872.195 460.445 872.484 460.836C872.781 461.227 872.93 461.809 872.93 462.582V464.352C872.93 464.664 873.051 464.887 873.293 465.02C873.535 465.16 873.898 465.23 874.383 465.23H876.047C875.922 465.074 875.859 464.855 875.859 464.574C875.859 463.926 876.043 463.434 876.41 463.098C876.77 462.762 877.309 462.594 878.027 462.594C878.746 462.594 879.285 462.762 879.645 463.098C880.004 463.434 880.184 463.938 880.184 464.609C880.184 465.031 879.953 465.469 879.492 465.922L882 466.836V479ZM889.031 474.605H888.738C888.543 474.605 888.395 474.656 888.293 474.758C888.199 474.852 888.152 474.996 888.152 475.191C888.152 475.355 888.227 475.586 888.375 475.883C888.516 476.18 888.734 476.539 889.031 476.961V474.605ZM891.082 479H889.031L888 477.523C887.664 477.031 887.41 476.59 887.238 476.199C887.066 475.816 886.98 475.48 886.98 475.191C886.98 474.605 887.129 474.164 887.426 473.867C887.715 473.578 888.152 473.434 888.738 473.434H889.031V468.148L886.98 466.848V466.098L889.711 462.594L891.34 463.602C891.816 463.906 892.219 464.059 892.547 464.059H893.133C892.484 465.23 891.965 465.816 891.574 465.816C891.191 465.816 890.789 465.684 890.367 465.418L889.441 464.844L888.305 466.297L891.082 468.055V479ZM907.207 470.211C907.207 469.625 906.988 469.188 906.551 468.898C906.105 468.602 905.445 468.453 904.57 468.453H902.812C901.938 468.453 901.277 468.602 900.832 468.898C900.395 469.188 900.176 469.625 900.176 470.211V479H898.125V470.211C898.125 469.234 898.516 468.5 899.297 468.008C900.078 467.523 901.25 467.281 902.812 467.281H904.57C906.133 467.281 907.305 467.523 908.086 468.008C908.867 468.5 909.258 469.234 909.258 470.211V479H907.207V470.211ZM903.621 466.109H903.246L900.352 464.27L898.781 465.09L900.188 466.098C899.789 466.543 899.453 466.766 899.18 466.766H899.156C898.898 466.766 898.637 466.664 898.371 466.461L896.953 465.348V464.691L901.066 462.594H901.535L904.043 464.176L905.848 462.594H906.316L908.648 464.023C908.992 464.234 909.359 464.34 909.75 464.34H910.418C909.973 465.52 909.48 466.109 908.941 466.109C908.395 466.109 907.855 465.949 907.324 465.629L905.473 464.469L903.621 466.109ZM928.676 479H927.504C925.84 479 924.594 478.758 923.766 478.273C922.938 477.781 922.523 477.047 922.523 476.07V468.148L920.473 466.848V466.098L923.203 462.594L924.832 463.602C925.309 463.906 925.711 464.059 926.039 464.059H926.625C925.977 465.23 925.457 465.816 925.066 465.816C924.684 465.816 924.281 465.684 923.859 465.418L922.934 464.844L921.797 466.297L924.574 468.055V476.07C924.574 476.656 924.816 477.094 925.301 477.383C925.793 477.68 926.527 477.828 927.504 477.828H928.676C929.652 477.828 930.387 477.68 930.879 477.383C931.363 477.094 931.605 476.656 931.605 476.07V468.148L929.555 466.848V466.098L932.285 462.594L933.914 463.602C934.391 463.906 934.793 464.059 935.121 464.059H935.707C935.059 465.23 934.539 465.816 934.148 465.816C933.766 465.816 933.363 465.684 932.941 465.418L932.016 464.844L930.879 466.297L933.656 468.055V476.07C933.656 477.047 933.242 477.781 932.414 478.273C931.578 478.758 930.332 479 928.676 479ZM933.668 481.93C933.668 482.477 933.531 482.961 933.258 483.383C933.336 483.68 933.555 483.906 933.914 484.062C934.273 484.211 934.773 484.285 935.414 484.285C935.414 484.668 935.258 484.957 934.945 485.152C934.625 485.348 934.148 485.445 933.516 485.445C933.062 485.445 932.668 485.383 932.332 485.258C932.004 485.133 931.738 484.949 931.535 484.707C930.934 484.949 930.207 485.133 929.355 485.258C928.504 485.383 927.523 485.445 926.414 485.445C925.211 485.445 924.188 485.32 923.344 485.07C922.5 484.812 921.84 484.43 921.363 483.922C922.809 484.156 924.5 484.273 926.438 484.273C928.156 484.273 929.449 484.078 930.316 483.688C931.176 483.297 931.605 482.711 931.605 481.93C931.605 481.539 931.312 481.344 930.727 481.344C930.727 480.953 930.852 480.66 931.102 480.465C931.352 480.27 931.723 480.172 932.215 480.172C932.699 480.172 933.062 480.32 933.305 480.617C933.547 480.906 933.668 481.344 933.668 481.93ZM949.77 469.906C949.48 470.234 949.262 470.52 949.113 470.762C948.965 471.004 948.891 471.211 948.891 471.383C948.891 471.477 948.965 471.551 949.113 471.605C949.262 471.652 949.48 471.676 949.77 471.676V469.906ZM958.852 479V466.531L953.238 464.48L950.238 466.402L949.84 466.391L944.121 464.281L941.531 465.5L942.738 466.695V476.07C942.738 476.656 942.934 477.094 943.324 477.383C943.715 477.68 944.301 477.828 945.082 477.828H947.426C948.207 477.828 948.793 477.68 949.184 477.383C949.574 477.094 949.77 476.656 949.77 476.07V472.848C949.09 472.848 948.578 472.727 948.234 472.484C947.891 472.242 947.719 471.879 947.719 471.395C947.719 471.074 947.812 470.727 948 470.352C948.188 469.977 948.473 469.582 948.855 469.168L949.77 468.16H951.82V476.07C951.82 477.047 951.453 477.781 950.719 478.273C949.984 478.758 948.887 479 947.426 479H945.082C943.621 479 942.523 478.758 941.789 478.273C941.055 477.781 940.688 477.047 940.688 476.07V466.695L939.516 465.77V465.125L944.941 462.594H945.469L950.871 464.609L954.035 462.594L960.902 465.113V479H958.852ZM977.027 470.211C977.027 469.625 976.809 469.188 976.371 468.898C975.926 468.602 975.266 468.453 974.391 468.453H972.633C971.758 468.453 971.098 468.602 970.652 468.898C970.215 469.188 969.996 469.625 969.996 470.211V479H967.945V470.211C967.945 469.234 968.336 468.5 969.117 468.008C969.898 467.523 971.07 467.281 972.633 467.281H974.391C975.953 467.281 977.125 467.523 977.906 468.008C978.688 468.5 979.078 469.234 979.078 470.211V479H977.027V470.211ZM973.441 466.109H973.066L970.172 464.27L968.602 465.09L970.008 466.098C969.609 466.543 969.273 466.766 969 466.766H968.977C968.719 466.766 968.457 466.664 968.191 466.461L966.773 465.348V464.691L970.887 462.594H971.355L973.863 464.176L975.668 462.594H976.137L978.469 464.023C978.812 464.234 979.18 464.34 979.57 464.34H980.238C979.793 465.52 979.301 466.109 978.762 466.109C978.215 466.109 977.676 465.949 977.145 465.629L975.293 464.469L973.441 466.109ZM974.414 455.562V459.43L973.512 460.25L972.633 459.43V455.562H974.414ZM988.172 465.453V473.434C988.852 473.434 989.363 473.582 989.707 473.879C990.051 474.168 990.223 474.605 990.223 475.191C990.223 475.668 990.125 476.141 989.93 476.609C989.727 477.078 989.43 477.539 989.039 477.992L988.16 479H986.109V462.594H987.48L989.098 463.625C989.457 463.852 989.844 463.965 990.258 463.965H990.891C990.438 465.332 990.016 466.016 989.625 466.016C989.242 466.016 988.836 465.879 988.406 465.605L988.172 465.453ZM988.172 477.184C988.461 476.855 988.68 476.523 988.828 476.188C988.969 475.852 989.039 475.516 989.039 475.18C989.039 474.992 988.969 474.852 988.828 474.758C988.68 474.664 988.461 474.617 988.172 474.617V477.184ZM1004.25 470.797C1003.78 470.797 1003.55 471.027 1003.55 471.488H1004.25C1004.86 471.488 1005.16 471.371 1005.16 471.137C1005.16 470.91 1004.86 470.797 1004.25 470.797ZM1004.3 466.016C1004.3 465.266 1004 464.703 1003.42 464.328C1002.82 463.953 1001.94 463.766 1000.77 463.766C999.598 463.766 998.719 463.953 998.133 464.328C997.547 464.703 997.254 465.266 997.254 466.016V468.746C997.254 469.66 997.547 470.348 998.133 470.809C998.727 471.262 999.609 471.488 1000.78 471.488H1001.5C1001.5 470.863 1001.73 470.395 1002.19 470.082C1002.65 469.77 1003.34 469.613 1004.25 469.613C1004.95 469.613 1005.46 469.742 1005.81 470C1006.16 470.25 1006.34 470.625 1006.34 471.125C1006.34 471.641 1006.16 472.023 1005.81 472.273C1005.46 472.531 1004.95 472.66 1004.25 472.66H1003.55V475.461C1003.55 476.641 1003.29 477.527 1002.79 478.121C1002.27 478.707 1001.5 479 1000.48 479C999.406 479 998.602 478.828 998.062 478.484C997.523 478.148 997.254 477.637 997.254 476.949V475.473C997.254 475.082 996.965 474.887 996.387 474.887C996.387 474.496 996.516 474.203 996.773 474.008C997.039 473.812 997.438 473.715 997.969 473.715C998.414 473.715 998.75 473.863 998.977 474.16C999.195 474.449 999.305 474.887 999.305 475.473V476.949C999.305 477.238 999.402 477.457 999.598 477.605C999.793 477.746 1000.09 477.816 1000.48 477.816C1000.82 477.816 1001.08 477.621 1001.25 477.23C1001.41 476.84 1001.5 476.254 1001.5 475.473V472.66H1000.78C998.922 472.66 997.527 472.336 996.598 471.688C995.668 471.031 995.203 470.051 995.203 468.746V466.016C995.203 464.875 995.668 464.02 996.598 463.449C997.527 462.879 998.918 462.594 1000.77 462.594C1002.62 462.594 1004.01 462.879 1004.94 463.449C1005.87 464.02 1006.34 464.875 1006.34 466.016C1006.34 467.25 1005.52 467.867 1003.9 467.867C1002.8 467.867 1002.25 467.574 1002.25 466.988C1002.25 466.402 1002.63 466.109 1003.41 466.109C1003.41 466.492 1003.55 466.684 1003.85 466.684C1004.15 466.684 1004.3 466.461 1004.3 466.016ZM1015.42 487.789H1013.37L1009.85 485.527L1006.34 487.789H1004.29V483.688H1004.2C1003.66 483.688 1003.25 483.617 1002.97 483.477C1002.68 483.328 1002.53 483.109 1002.53 482.82C1002.53 482.531 1002.6 482.238 1002.75 481.941C1002.89 481.652 1003.11 481.359 1003.41 481.062L1004.29 480.172H1006.34V486.395L1009.85 484.133L1013.37 486.395V468.148L1011.32 466.848V466.098L1014.05 462.594L1015.68 463.602C1016.15 463.906 1016.55 464.059 1016.88 464.059H1017.47C1016.82 465.23 1016.3 465.816 1015.91 465.816C1015.53 465.816 1015.12 465.684 1014.7 465.418L1013.78 464.844L1012.64 466.297L1015.42 468.055V487.789ZM1004.29 482.527L1004.3 481.637C1003.91 482.027 1003.71 482.273 1003.71 482.375C1003.71 482.477 1003.9 482.527 1004.29 482.527ZM1006.05 458.445C1006.05 457.43 1006.33 456.668 1006.89 456.16C1007.45 455.652 1008.29 455.398 1009.41 455.398C1010.06 455.398 1010.78 455.57 1011.56 455.914C1012.34 456.258 1013.18 456.766 1014.09 457.438V454.977H1015.43V459.664H1008.06C1007.39 459.664 1006.89 459.562 1006.56 459.359C1006.22 459.156 1006.05 458.852 1006.05 458.445ZM1009.41 457.238C1008.96 457.238 1008.62 457.336 1008.4 457.531C1008.17 457.742 1008.06 458.047 1008.06 458.445H1013.29C1012.75 458.047 1012.16 457.742 1011.52 457.531C1010.88 457.336 1010.17 457.238 1009.41 457.238ZM1028.89 464.586C1028.89 464.789 1028.95 464.945 1029.07 465.055C1029.2 465.172 1029.38 465.23 1029.62 465.23C1029.86 465.23 1030.04 465.172 1030.16 465.055C1030.28 464.945 1030.34 464.781 1030.34 464.562C1030.34 464.359 1030.28 464.203 1030.16 464.094C1030.04 463.984 1029.86 463.926 1029.62 463.918C1029.38 463.926 1029.2 463.984 1029.07 464.094C1028.95 464.211 1028.89 464.375 1028.89 464.586ZM1022.46 470.199C1022.16 470.52 1021.95 470.805 1021.8 471.055C1021.66 471.305 1021.58 471.512 1021.58 471.676C1021.58 471.777 1021.66 471.852 1021.8 471.898C1021.95 471.945 1022.16 471.969 1022.46 471.969V470.199ZM1033.59 479H1031.54L1028.03 476.738L1024.51 479H1022.46V473.141C1021.77 473.141 1021.26 473.02 1020.93 472.777C1020.58 472.535 1020.41 472.172 1020.41 471.688C1020.41 471.359 1020.5 471.012 1020.69 470.645C1020.89 470.277 1021.17 469.883 1021.55 469.461L1022.46 468.453H1024.51V477.605L1028.03 475.344L1031.54 477.605V467.527L1029.11 466.402H1025.98C1024.8 466.402 1023.93 466.246 1023.34 465.934C1022.75 465.621 1022.46 465.094 1022.46 464.352V462.582C1022.46 462.301 1022.36 462.086 1022.17 461.938C1021.97 461.789 1021.68 461.715 1021.29 461.715C1021.29 461.223 1021.41 460.855 1021.65 460.613C1021.9 460.371 1022.27 460.25 1022.75 460.25C1023.35 460.25 1023.79 460.445 1024.08 460.836C1024.38 461.227 1024.52 461.809 1024.52 462.582V464.352C1024.52 464.664 1024.64 464.887 1024.89 465.02C1025.13 465.16 1025.49 465.23 1025.98 465.23H1027.64C1027.52 465.074 1027.45 464.855 1027.45 464.574C1027.45 463.926 1027.64 463.434 1028 463.098C1028.36 462.762 1028.9 462.594 1029.62 462.594C1030.34 462.594 1030.88 462.762 1031.24 463.098C1031.6 463.434 1031.78 463.938 1031.78 464.609C1031.78 465.031 1031.55 465.469 1031.09 465.922L1033.59 466.836V479ZM1040.62 474.605H1040.33C1040.14 474.605 1039.99 474.656 1039.89 474.758C1039.79 474.852 1039.75 474.996 1039.75 475.191C1039.75 475.355 1039.82 475.586 1039.97 475.883C1040.11 476.18 1040.33 476.539 1040.62 476.961V474.605ZM1042.68 479H1040.62L1039.59 477.523C1039.26 477.031 1039 476.59 1038.83 476.199C1038.66 475.816 1038.57 475.48 1038.57 475.191C1038.57 474.605 1038.72 474.164 1039.02 473.867C1039.31 473.578 1039.75 473.434 1040.33 473.434H1040.62V468.148L1038.57 466.848V466.074L1040.38 462.594L1041.39 463.168C1042.07 463.566 1042.56 463.766 1042.84 463.766C1042.98 463.766 1043.09 463.691 1043.16 463.543C1043.23 463.395 1043.26 463.176 1043.26 462.887C1043.26 462.395 1043.11 462.027 1042.82 461.785C1042.53 461.543 1042.09 461.422 1041.5 461.422C1041.5 461.031 1041.6 460.738 1041.8 460.543C1041.99 460.348 1042.29 460.25 1042.68 460.25C1043.26 460.25 1043.7 460.469 1043.99 460.906C1044.29 461.344 1044.43 462.004 1044.43 462.887C1044.43 463.863 1044.29 464.594 1044 465.078C1043.71 465.57 1043.28 465.816 1042.7 465.816C1042.43 465.816 1042.11 465.746 1041.74 465.605C1041.36 465.473 1040.93 465.266 1040.44 464.984L1039.79 466.238L1042.68 468.055V479ZM1035.66 458.492C1035.66 457.516 1035.93 456.781 1036.49 456.289C1037.05 455.805 1037.89 455.562 1039.01 455.562C1039.66 455.562 1040.39 455.73 1041.2 456.066C1041.99 456.402 1042.85 456.906 1043.78 457.578L1045.03 458.492V459.664H1037.66C1037 459.664 1036.5 459.566 1036.16 459.371C1035.82 459.176 1035.66 458.883 1035.66 458.492ZM1039.01 457.32C1038.56 457.32 1038.23 457.418 1038 457.613C1037.77 457.809 1037.66 458.102 1037.66 458.492H1042.89C1042.36 458.102 1041.77 457.809 1041.12 457.613C1040.48 457.418 1039.77 457.32 1039.01 457.32ZM1069.93 482.516C1069.93 483.688 1069.59 484.566 1068.89 485.152C1068.2 485.738 1067.15 486.031 1065.75 486.031C1064.44 486.031 1063.28 485.883 1062.27 485.586C1061.26 485.297 1060.41 484.859 1059.71 484.273C1058.79 483.492 1057.84 482.906 1056.87 482.516C1055.9 482.125 1054.91 481.93 1053.9 481.93C1053.09 481.93 1052.34 482.016 1051.64 482.188C1050.94 482.367 1050.3 482.633 1049.72 482.984V482.398C1049.72 482.008 1049.86 481.723 1050.15 481.543C1050.44 481.371 1050.94 481.195 1051.64 481.016C1052.34 480.844 1053.09 480.758 1053.9 480.758C1055.48 480.758 1056.93 480.977 1058.24 481.414C1059.55 481.852 1060.73 482.512 1061.78 483.395C1062.36 483.887 1062.98 484.254 1063.64 484.496C1064.3 484.738 1065.01 484.859 1065.75 484.859C1066.46 484.859 1067 484.664 1067.36 484.273C1067.71 483.883 1067.89 483.297 1067.89 482.516C1067.89 482.125 1067.77 481.832 1067.52 481.637C1067.28 481.441 1066.91 481.344 1066.43 481.344C1066.43 480.953 1066.55 480.66 1066.79 480.465C1067.04 480.27 1067.4 480.172 1067.89 480.172C1068.57 480.172 1069.08 480.367 1069.42 480.758C1069.76 481.148 1069.93 481.734 1069.93 482.516ZM1051.77 477.348L1052.54 476.586C1052.77 476.352 1052.94 476.121 1053.06 475.895C1053.18 475.66 1053.23 475.426 1053.23 475.191C1053.23 474.996 1053.16 474.852 1053.01 474.758C1052.86 474.656 1052.64 474.605 1052.36 474.605H1051.77V477.348ZM1069.93 479H1067.88V466.906L1063.49 464.457L1060.85 465.922V479H1058.8V465.465L1057.42 464.234L1055.3 466.32L1053.16 464.234L1051.77 465.453V473.434H1052.36C1053.04 473.434 1053.55 473.578 1053.89 473.867C1054.23 474.164 1054.41 474.605 1054.41 475.191C1054.41 475.59 1054.33 475.969 1054.17 476.328C1054.02 476.688 1053.78 477.02 1053.47 477.324L1051.77 479H1049.72V465.711L1053.2 462.594L1055.3 464.645L1057.38 462.594L1060.05 465.031L1064.37 462.594L1069.93 465.734V479Z" fill="white"/>
<path d="M595.519 386.123C595.035 386.389 594.858 386.997 595.123 387.481L599.454 395.371C599.72 395.855 600.327 396.032 600.812 395.766C601.296 395.501 601.473 394.893 601.207 394.409L597.358 387.395L604.371 383.546C604.855 383.28 605.032 382.673 604.766 382.188C604.501 381.704 603.893 381.527 603.409 381.793L595.519 386.123ZM802.28 446.04L800.372 445.484L799.813 447.405L801.72 447.96L802.28 446.04ZM796.557 444.373L792.743 443.262L792.183 445.182L795.998 446.293L796.557 444.373ZM788.928 442.151L785.113 441.04L784.554 442.96L788.369 444.071L788.928 442.151ZM781.298 439.929L777.483 438.818L776.924 440.738L780.739 441.849L781.298 439.929ZM773.669 437.707L769.854 436.595L769.294 438.516L773.109 439.627L773.669 437.707ZM766.039 435.484L762.224 434.373L761.665 436.293L765.48 437.405L766.039 435.484ZM758.409 433.262L754.594 432.151L754.035 434.071L757.85 435.182L758.409 433.262ZM750.78 431.04L746.965 429.929L746.406 431.849L750.22 432.96L750.78 431.04ZM743.15 428.818L739.335 427.707L738.776 429.627L742.591 430.738L743.15 428.818ZM735.52 426.595L731.706 425.484L731.146 427.405L734.961 428.516L735.52 426.595ZM727.891 424.373L724.076 423.262L723.517 425.182L727.331 426.293L727.891 424.373ZM720.261 422.151L716.446 421.04L715.887 422.96L719.702 424.071L720.261 422.151ZM712.631 419.929L708.817 418.818L708.257 420.738L712.072 421.849L712.631 419.929ZM705.002 417.707L701.187 416.595L700.628 418.516L704.443 419.627L705.002 417.707ZM697.372 415.484L693.557 414.373L692.998 416.293L696.813 417.405L697.372 415.484ZM689.743 413.262L685.928 412.151L685.368 414.071L689.183 415.182L689.743 413.262ZM682.113 411.04L678.298 409.929L677.739 411.849L681.554 412.96L682.113 411.04ZM674.483 408.818L670.668 407.707L670.109 409.627L673.924 410.738L674.483 408.818ZM666.854 406.595L663.039 405.484L662.48 407.405L666.294 408.516L666.854 406.595ZM659.224 404.373L655.409 403.262L654.85 405.182L658.665 406.293L659.224 404.373ZM651.594 402.151L647.78 401.04L647.22 402.96L651.035 404.071L651.594 402.151ZM643.965 399.929L640.15 398.818L639.591 400.738L643.406 401.849L643.965 399.929ZM636.335 397.707L632.52 396.595L631.961 398.516L635.776 399.627L636.335 397.707ZM628.706 395.484L624.891 394.373L624.332 396.293L628.146 397.405L628.706 395.484ZM621.076 393.262L617.261 392.151L616.702 394.071L620.517 395.182L621.076 393.262ZM613.446 391.04L609.632 389.929L609.072 391.849L612.887 392.96L613.446 391.04ZM605.817 388.818L602.002 387.707L601.443 389.627L605.257 390.738L605.817 388.818ZM598.187 386.595L596.28 386.04L595.72 387.96L597.628 388.516L598.187 386.595ZM595.038 385.247C594.069 385.778 593.715 386.994 594.247 387.962L602.908 403.742C603.439 404.71 604.655 405.064 605.623 404.533C606.591 404.001 606.946 402.785 606.414 401.817L598.716 387.791L612.742 380.092C613.71 379.561 614.064 378.345 613.533 377.377C613.001 376.408 611.785 376.054 610.817 376.586L595.038 385.247ZM802.559 445.08L800.652 444.524L799.533 448.365L801.441 448.92L802.559 445.08ZM796.837 443.413L793.022 442.302L791.904 446.142L795.718 447.254L796.837 443.413ZM789.207 441.191L785.393 440.08L784.274 443.92L788.089 445.031L789.207 441.191ZM781.578 438.969L777.763 437.858L776.644 441.698L780.459 442.809L781.578 438.969ZM773.948 436.746L770.133 435.635L769.015 439.476L772.83 440.587L773.948 436.746ZM766.319 434.524L762.504 433.413L761.385 437.254L765.2 438.365L766.319 434.524ZM758.689 432.302L754.874 431.191L753.756 435.031L757.57 436.142L758.689 432.302ZM751.059 430.08L747.244 428.969L746.126 432.809L749.941 433.92L751.059 430.08ZM743.43 427.858L739.615 426.746L738.496 430.587L742.311 431.698L743.43 427.858ZM735.8 425.635L731.985 424.524L730.867 428.365L734.681 429.476L735.8 425.635ZM728.17 423.413L724.356 422.302L723.237 426.142L727.052 427.254L728.17 423.413ZM720.541 421.191L716.726 420.08L715.607 423.92L719.422 425.031L720.541 421.191ZM712.911 418.969L709.096 417.858L707.978 421.698L711.793 422.809L712.911 418.969ZM705.281 416.746L701.467 415.635L700.348 419.476L704.163 420.587L705.281 416.746ZM697.652 414.524L693.837 413.413L692.718 417.254L696.533 418.365L697.652 414.524ZM690.022 412.302L686.207 411.191L685.089 415.031L688.904 416.142L690.022 412.302ZM682.393 410.08L678.578 408.969L677.459 412.809L681.274 413.92L682.393 410.08ZM674.763 407.858L670.948 406.746L669.83 410.587L673.644 411.698L674.763 407.858ZM667.133 405.635L663.319 404.524L662.2 408.365L666.015 409.476L667.133 405.635ZM659.504 403.413L655.689 402.302L654.57 406.142L658.385 407.254L659.504 403.413ZM651.874 401.191L648.059 400.08L646.941 403.92L650.756 405.031L651.874 401.191ZM644.244 398.969L640.43 397.858L639.311 401.698L643.126 402.809L644.244 398.969ZM636.615 396.746L632.8 395.635L631.681 399.476L635.496 400.587L636.615 396.746ZM628.985 394.524L625.17 393.413L624.052 397.254L627.867 398.365L628.985 394.524ZM621.356 392.302L617.541 391.191L616.422 395.031L620.237 396.142L621.356 392.302ZM613.726 390.08L609.911 388.969L608.793 392.809L612.607 393.92L613.726 390.08ZM606.096 387.858L602.282 386.746L601.163 390.587L604.978 391.698L606.096 387.858ZM598.467 385.635L596.559 385.08L595.441 388.92L597.348 389.476L598.467 385.635Z" fill="#ED2C25"/>
<defs>
<clipPath id="clip0_202_123">
<rect width="80" height="80" fill="white" transform="translate(620 302)"/>
</clipPath>
<clipPath id="clip1_202_123">
<rect width="80" height="80" fill="white" transform="translate(452 382) rotate(-180)"/>
</clipPath>
<clipPath id="clip2_202_123">
<rect width="80" height="80" fill="white" transform="translate(496 258) rotate(-90)"/>
</clipPath>
<clipPath id="clip3_202_123">
<rect width="80" height="80" fill="white" transform="translate(576 426) rotate(90)"/>
</clipPath>
<clipPath id="clip4_202_123">
<rect width="40" height="40" fill="white" transform="translate(663 60) rotate(-90)"/>
</clipPath>
<clipPath id="clip5_202_123">
<rect width="40" height="40" fill="white" transform="translate(773 20) rotate(90)"/>
</clipPath>
<clipPath id="clip6_202_123">
<rect width="40" height="40" fill="white" transform="translate(105.846 347) rotate(180)"/>
</clipPath>
</defs>
</svg>
