<svg viewBox="0 0 1370 525" fill="none" xmlns="http://www.w3.org/2000/svg">
<circle opacity="0.8" cx="710" cy="341" r="180" fill="#232323"/>
<g clip-path="url(#clip0_16592_15927)">
<path d="M846.603 343.395C846.836 343.163 847.02 342.888 847.146 342.585C847.272 342.281 847.336 341.956 847.336 341.628V340.363C847.328 339.673 847.051 339.05 846.603 338.595L829.471 321.495C829.316 321.338 829.132 321.214 828.929 321.129C828.726 321.044 828.507 321 828.287 321C828.067 321 827.849 321.044 827.646 321.129C827.442 321.214 827.258 321.338 827.103 321.495L824.736 323.863C824.58 324.014 824.456 324.196 824.372 324.396C824.287 324.596 824.244 324.812 824.244 325.029C824.244 325.246 824.287 325.462 824.372 325.662C824.456 325.862 824.58 326.044 824.736 326.195L839.571 340.995L824.736 355.795C824.579 355.95 824.455 356.134 824.37 356.337C824.285 356.541 824.241 356.759 824.241 356.979C824.241 357.199 824.285 357.417 824.37 357.62C824.455 357.824 824.579 358.008 824.736 358.163L827.103 360.495C827.258 360.652 827.442 360.777 827.646 360.862C827.849 360.947 828.067 360.99 828.287 360.99C828.507 360.99 828.726 360.947 828.929 360.862C829.132 360.777 829.316 360.652 829.471 360.495L846.603 343.395Z" fill="white"/>
</g>
<g clip-path="url(#clip1_16592_15927)">
<path d="M573.397 338.605C573.164 338.837 572.98 339.112 572.854 339.415C572.728 339.719 572.664 340.044 572.664 340.372L572.664 341.637C572.672 342.327 572.949 342.95 573.397 343.405L590.529 360.505C590.684 360.662 590.868 360.786 591.071 360.871C591.274 360.956 591.493 361 591.713 361C591.933 361 592.151 360.956 592.354 360.871C592.558 360.786 592.742 360.662 592.897 360.505L595.264 358.137C595.42 357.986 595.544 357.804 595.628 357.604C595.713 357.404 595.756 357.189 595.756 356.971C595.756 356.754 595.713 356.538 595.628 356.338C595.544 356.138 595.42 355.956 595.264 355.805L580.429 341.005L595.264 326.205C595.421 326.05 595.545 325.866 595.63 325.663C595.715 325.459 595.759 325.241 595.759 325.021C595.759 324.801 595.715 324.583 595.63 324.38C595.545 324.176 595.421 323.992 595.264 323.837L592.897 321.505C592.742 321.348 592.558 321.223 592.354 321.138C592.151 321.053 591.933 321.01 591.713 321.01C591.493 321.01 591.274 321.053 591.071 321.138C590.868 321.223 590.684 321.348 590.529 321.505L573.397 338.605Z" fill="white"/>
</g>
<g clip-path="url(#clip2_16592_15927)">
<path d="M712.395 204.4C712.163 204.168 711.888 203.984 711.585 203.858C711.281 203.732 710.956 203.668 710.628 203.668L709.363 203.668C708.673 203.675 708.05 203.953 707.595 204.4L690.495 221.533C690.338 221.688 690.214 221.872 690.129 222.075C690.044 222.278 690 222.496 690 222.717C690 222.937 690.044 223.155 690.129 223.358C690.214 223.562 690.338 223.746 690.495 223.9L692.863 226.268C693.014 226.424 693.196 226.548 693.396 226.632C693.596 226.717 693.812 226.76 694.029 226.76C694.246 226.76 694.462 226.717 694.662 226.632C694.862 226.548 695.044 226.424 695.195 226.268L709.995 211.433L724.795 226.268C724.95 226.425 725.134 226.549 725.337 226.634C725.541 226.719 725.759 226.763 725.979 226.763C726.199 226.763 726.417 226.719 726.62 226.634C726.824 226.549 727.008 226.425 727.163 226.268L729.495 223.9C729.652 223.746 729.777 223.562 729.862 223.358C729.947 223.155 729.99 222.937 729.99 222.717C729.99 222.496 729.947 222.278 729.862 222.075C729.777 221.872 729.652 221.688 729.495 221.533L712.395 204.4Z" fill="white"/>
</g>
<g clip-path="url(#clip3_16592_15927)">
<path d="M707.605 477.6C707.837 477.832 708.112 478.016 708.415 478.142C708.719 478.268 709.044 478.332 709.372 478.332L710.637 478.332C711.327 478.325 711.95 478.047 712.405 477.6L729.505 460.467C729.662 460.312 729.786 460.128 729.871 459.925C729.956 459.722 730 459.504 730 459.283C730 459.063 729.956 458.845 729.871 458.642C729.786 458.438 729.662 458.254 729.505 458.1L727.137 455.732C726.986 455.576 726.804 455.452 726.604 455.368C726.404 455.283 726.189 455.24 725.971 455.24C725.754 455.24 725.538 455.283 725.338 455.368C725.138 455.452 724.956 455.576 724.805 455.732L710.005 470.567L695.205 455.732C695.05 455.575 694.866 455.451 694.663 455.366C694.459 455.281 694.241 455.237 694.021 455.237C693.801 455.237 693.583 455.281 693.38 455.366C693.176 455.451 692.992 455.575 692.837 455.732L690.505 458.1C690.348 458.254 690.223 458.438 690.138 458.642C690.053 458.845 690.01 459.063 690.01 459.283C690.01 459.504 690.053 459.722 690.138 459.925C690.223 460.128 690.348 460.312 690.505 460.467L707.605 477.6Z" fill="white"/>
</g>
<circle cx="710" cy="341" r="60" fill="white"/>
<path d="M709.409 341.364C709.409 343.902 708.928 346.061 707.966 347.841C707.011 349.621 705.708 350.981 704.057 351.92C702.413 352.852 700.564 353.318 698.511 353.318C696.443 353.318 694.587 352.848 692.943 351.909C691.299 350.97 690 349.61 689.045 347.83C688.091 346.049 687.614 343.894 687.614 341.364C687.614 338.826 688.091 336.667 689.045 334.886C690 333.106 691.299 331.75 692.943 330.818C694.587 329.879 696.443 329.409 698.511 329.409C700.564 329.409 702.413 329.879 704.057 330.818C705.708 331.75 707.011 333.106 707.966 334.886C708.928 336.667 709.409 338.826 709.409 341.364ZM704.42 341.364C704.42 339.72 704.174 338.333 703.682 337.205C703.197 336.076 702.511 335.22 701.625 334.636C700.739 334.053 699.701 333.761 698.511 333.761C697.322 333.761 696.284 334.053 695.398 334.636C694.511 335.22 693.822 336.076 693.33 337.205C692.845 338.333 692.602 339.72 692.602 341.364C692.602 343.008 692.845 344.394 693.33 345.523C693.822 346.652 694.511 347.508 695.398 348.091C696.284 348.674 697.322 348.966 698.511 348.966C699.701 348.966 700.739 348.674 701.625 348.091C702.511 347.508 703.197 346.652 703.682 345.523C704.174 344.394 704.42 343.008 704.42 341.364ZM713.44 353V329.727H718.36V339.989H718.667L727.042 329.727H732.94L724.303 340.148L733.042 353H727.156L720.781 343.432L718.36 346.386V353H713.44Z" fill="#090909"/>
<rect x="0.5" y="301.5" width="409" height="79" rx="3.5" fill="black" fill-opacity="0.6"/>
<rect x="0.5" y="301.5" width="409" height="79" rx="3.5" stroke="white"/>
<path opacity="0.8" d="M25.9176 350V332.545H32.3097C33.5483 332.545 34.5739 332.75 35.3864 333.159C36.1989 333.562 36.8068 334.111 37.2102 334.804C37.6136 335.491 37.8153 336.267 37.8153 337.131C37.8153 337.858 37.6818 338.472 37.4148 338.972C37.1477 339.466 36.7898 339.864 36.3409 340.165C35.8977 340.46 35.4091 340.676 34.875 340.812V340.983C35.4545 341.011 36.0199 341.199 36.571 341.545C37.1278 341.886 37.5881 342.372 37.9517 343.003C38.3153 343.634 38.4972 344.401 38.4972 345.304C38.4972 346.196 38.2869 346.997 37.8665 347.707C37.4517 348.412 36.8097 348.972 35.9403 349.386C35.071 349.795 33.9602 350 32.608 350H25.9176ZM28.5511 347.741H32.3523C33.6136 347.741 34.517 347.497 35.0625 347.009C35.608 346.52 35.8807 345.909 35.8807 345.176C35.8807 344.625 35.7415 344.119 35.4631 343.659C35.1847 343.199 34.7869 342.832 34.2699 342.56C33.7585 342.287 33.1506 342.151 32.446 342.151H28.5511V347.741ZM28.5511 340.097H32.0795C32.6705 340.097 33.2017 339.983 33.6733 339.756C34.1506 339.528 34.5284 339.21 34.8068 338.801C35.0909 338.386 35.233 337.898 35.233 337.335C35.233 336.614 34.9801 336.009 34.4744 335.52C33.9688 335.031 33.1932 334.787 32.1477 334.787H28.5511V340.097ZM45.2259 350.29C44.3963 350.29 43.6463 350.136 42.9759 349.83C42.3054 349.517 41.7741 349.065 41.3821 348.474C40.9957 347.884 40.8026 347.159 40.8026 346.301C40.8026 345.562 40.9446 344.955 41.2287 344.477C41.5128 344 41.8963 343.622 42.3793 343.344C42.8622 343.065 43.402 342.855 43.9986 342.713C44.5952 342.571 45.2031 342.463 45.8224 342.389C46.6065 342.298 47.2429 342.224 47.7315 342.168C48.2202 342.105 48.5753 342.006 48.7969 341.869C49.0185 341.733 49.1293 341.511 49.1293 341.205V341.145C49.1293 340.401 48.919 339.824 48.4986 339.415C48.0838 339.006 47.4645 338.801 46.6406 338.801C45.7827 338.801 45.1065 338.991 44.6122 339.372C44.1236 339.747 43.7855 340.165 43.598 340.625L41.2031 340.08C41.4872 339.284 41.902 338.642 42.4474 338.153C42.9986 337.659 43.6321 337.301 44.348 337.08C45.0639 336.852 45.8168 336.739 46.6065 336.739C47.1293 336.739 47.6832 336.801 48.2685 336.926C48.8594 337.045 49.4105 337.267 49.9219 337.591C50.4389 337.915 50.8622 338.378 51.1918 338.98C51.5213 339.577 51.6861 340.352 51.6861 341.307V350H49.1974V348.21H49.0952C48.9304 348.54 48.6832 348.864 48.3537 349.182C48.0241 349.5 47.6009 349.764 47.0838 349.974C46.5668 350.185 45.9474 350.29 45.2259 350.29ZM45.7798 348.244C46.4844 348.244 47.0866 348.105 47.5866 347.827C48.0923 347.548 48.4759 347.185 48.7372 346.736C49.0043 346.281 49.1378 345.795 49.1378 345.278V343.591C49.0469 343.682 48.8707 343.767 48.6094 343.847C48.3537 343.92 48.0611 343.986 47.7315 344.043C47.402 344.094 47.081 344.142 46.7685 344.188C46.456 344.227 46.1946 344.261 45.9844 344.29C45.4901 344.352 45.0384 344.457 44.6293 344.605C44.2259 344.753 43.902 344.966 43.6577 345.244C43.419 345.517 43.2997 345.881 43.2997 346.335C43.2997 346.966 43.5327 347.443 43.9986 347.767C44.4645 348.085 45.0582 348.244 45.7798 348.244ZM42.3281 335.341L45.7884 332.384H47.6889L51.1577 335.341H48.652L46.7599 333.653L44.8509 335.341H42.3281ZM50.2457 333.449L52.027 330.338H54.6264L52.1122 333.449H50.2457ZM55.0803 350V336.909H57.5263V339.04H57.6882C57.9609 338.318 58.407 337.756 59.0263 337.352C59.6456 336.943 60.3871 336.739 61.2507 336.739C62.1257 336.739 62.8587 336.943 63.4496 337.352C64.0462 337.761 64.4865 338.324 64.7706 339.04H64.907C65.2195 338.341 65.7166 337.784 66.3984 337.369C67.0803 336.949 67.8928 336.739 68.8359 336.739C70.0234 336.739 70.9922 337.111 71.7422 337.855C72.4979 338.599 72.8757 339.722 72.8757 341.222V350H70.3274V341.46C70.3274 340.574 70.0859 339.932 69.603 339.534C69.12 339.136 68.5433 338.938 67.8729 338.938C67.0433 338.938 66.3984 339.193 65.9382 339.705C65.478 340.21 65.2479 340.861 65.2479 341.656V350H62.7081V341.298C62.7081 340.588 62.4865 340.017 62.0433 339.585C61.6001 339.153 61.0234 338.938 60.3132 338.938C59.8303 338.938 59.3842 339.065 58.9751 339.321C58.5717 339.571 58.245 339.92 57.995 340.369C57.7507 340.818 57.6286 341.338 57.6286 341.929V350H55.0803Z" fill="white"/>
<path d="M88.6987 342.2C88.4642 341.966 88.3323 341.648 88.332 341.317V340.684C88.3359 340.353 88.4672 340.037 88.6987 339.8L97.2654 331.25C97.3428 331.172 97.435 331.11 97.5366 331.068C97.6381 331.026 97.747 331.004 97.857 331.004C97.967 331.004 98.076 331.026 98.1775 331.068C98.2791 331.11 98.3712 331.172 98.4487 331.25L99.632 332.434C99.7096 332.51 99.7713 332.601 99.8134 332.701C99.8555 332.801 99.8772 332.908 99.8772 333.017C99.8772 333.126 99.8555 333.233 99.8134 333.333C99.7713 333.434 99.7096 333.524 99.632 333.6L92.2154 341L99.632 348.4C99.7101 348.478 99.7721 348.57 99.8144 348.672C99.8567 348.773 99.8785 348.882 99.8785 348.992C99.8785 349.102 99.8567 349.211 99.8144 349.313C99.7721 349.414 99.7101 349.506 99.632 349.584L98.4487 350.75C98.3712 350.829 98.2791 350.891 98.1775 350.933C98.076 350.975 97.967 350.997 97.857 350.997C97.747 350.997 97.6381 350.975 97.5366 350.933C97.435 350.891 97.3428 350.829 97.2654 350.75L88.6987 342.2Z" fill="white"/>
<path opacity="0.8" d="M121.614 350.256C120.557 350.256 119.614 349.986 118.784 349.446C117.96 348.901 117.313 348.125 116.841 347.119C116.375 346.108 116.142 344.895 116.142 343.48C116.142 342.065 116.378 340.855 116.849 339.849C117.327 338.844 117.98 338.074 118.81 337.54C119.639 337.006 120.58 336.739 121.631 336.739C122.443 336.739 123.097 336.875 123.591 337.148C124.091 337.415 124.477 337.727 124.75 338.085C125.028 338.443 125.244 338.759 125.398 339.031H125.551V332.545H128.099V350H125.611V347.963H125.398C125.244 348.241 125.023 348.56 124.733 348.918C124.449 349.276 124.057 349.588 123.557 349.855C123.057 350.122 122.409 350.256 121.614 350.256ZM122.176 348.082C122.909 348.082 123.528 347.889 124.034 347.503C124.545 347.111 124.932 346.568 125.193 345.875C125.46 345.182 125.594 344.375 125.594 343.455C125.594 342.545 125.463 341.75 125.202 341.068C124.94 340.386 124.557 339.855 124.051 339.474C123.545 339.094 122.92 338.903 122.176 338.903C121.409 338.903 120.77 339.102 120.259 339.5C119.747 339.898 119.361 340.44 119.099 341.128C118.844 341.815 118.716 342.591 118.716 343.455C118.716 344.33 118.847 345.116 119.108 345.815C119.369 346.514 119.756 347.068 120.267 347.477C120.784 347.881 121.42 348.082 122.176 348.082ZM122.014 335.861V334.097H129.847V335.861H122.014ZM137.379 350.264C136.089 350.264 134.978 349.989 134.046 349.438C133.12 348.881 132.404 348.099 131.898 347.094C131.398 346.082 131.148 344.898 131.148 343.54C131.148 342.199 131.398 341.017 131.898 339.994C132.404 338.972 133.109 338.173 134.012 337.599C134.921 337.026 135.984 336.739 137.2 336.739C137.938 336.739 138.654 336.861 139.347 337.105C140.04 337.349 140.663 337.733 141.214 338.256C141.765 338.778 142.2 339.457 142.518 340.293C142.836 341.122 142.995 342.131 142.995 343.318V344.222H132.589V342.312H140.498C140.498 341.642 140.362 341.048 140.089 340.531C139.816 340.009 139.433 339.597 138.938 339.295C138.45 338.994 137.876 338.844 137.217 338.844C136.501 338.844 135.876 339.02 135.342 339.372C134.813 339.719 134.404 340.173 134.114 340.736C133.83 341.293 133.688 341.898 133.688 342.551V344.043C133.688 344.918 133.842 345.662 134.148 346.276C134.461 346.889 134.896 347.358 135.452 347.682C136.009 348 136.66 348.159 137.404 348.159C137.887 348.159 138.327 348.091 138.725 347.955C139.123 347.812 139.467 347.602 139.756 347.324C140.046 347.045 140.268 346.702 140.421 346.293L142.833 346.727C142.64 347.437 142.293 348.06 141.793 348.594C141.299 349.122 140.677 349.534 139.927 349.83C139.183 350.119 138.333 350.264 137.379 350.264ZM138.214 332.58L141.495 335.537H139.254L137.072 333.602L134.915 335.537H132.674L135.947 332.58H138.214ZM141.981 333.943H140.396L140.344 332.477C140.822 332.443 141.174 332.378 141.401 332.281C141.629 332.185 141.742 332.02 141.742 331.787C141.742 331.514 141.594 331.327 141.299 331.224C141.004 331.116 140.631 331.062 140.183 331.062L140.259 329.852C141.327 329.852 142.137 330.026 142.688 330.372C143.239 330.713 143.515 331.179 143.515 331.77C143.515 332.253 143.356 332.611 143.038 332.844C142.719 333.071 142.367 333.21 141.981 333.261V333.943ZM154.185 336.909L157.075 342.006L159.989 336.909H162.776L158.694 343.455L162.81 350H160.023L157.075 345.108L154.134 350H151.339L155.413 343.455L151.39 336.909H154.185ZM170.519 350.264C169.229 350.264 168.119 349.989 167.187 349.438C166.261 348.881 165.545 348.099 165.039 347.094C164.539 346.082 164.289 344.898 164.289 343.54C164.289 342.199 164.539 341.017 165.039 339.994C165.545 338.972 166.249 338.173 167.153 337.599C168.062 337.026 169.124 336.739 170.34 336.739C171.079 336.739 171.795 336.861 172.488 337.105C173.181 337.349 173.803 337.733 174.354 338.256C174.906 338.778 175.34 339.457 175.658 340.293C175.977 341.122 176.136 342.131 176.136 343.318V344.222H165.729V342.312H173.638C173.638 341.642 173.502 341.048 173.229 340.531C172.957 340.009 172.573 339.597 172.079 339.295C171.59 338.994 171.016 338.844 170.357 338.844C169.641 338.844 169.016 339.02 168.482 339.372C167.954 339.719 167.545 340.173 167.255 340.736C166.971 341.293 166.829 341.898 166.829 342.551V344.043C166.829 344.918 166.982 345.662 167.289 346.276C167.602 346.889 168.036 347.358 168.593 347.682C169.15 348 169.8 348.159 170.545 348.159C171.028 348.159 171.468 348.091 171.866 347.955C172.263 347.812 172.607 347.602 172.897 347.324C173.187 347.045 173.408 346.702 173.562 346.293L175.974 346.727C175.781 347.437 175.434 348.06 174.934 348.594C174.44 349.122 173.817 349.534 173.067 349.83C172.323 350.119 171.474 350.264 170.519 350.264ZM178.963 350V336.909H181.409V339.04H181.571C181.844 338.318 182.29 337.756 182.909 337.352C183.528 336.943 184.27 336.739 185.134 336.739C186.009 336.739 186.741 336.943 187.332 337.352C187.929 337.761 188.369 338.324 188.653 339.04H188.79C189.102 338.341 189.599 337.784 190.281 337.369C190.963 336.949 191.776 336.739 192.719 336.739C193.906 336.739 194.875 337.111 195.625 337.855C196.381 338.599 196.759 339.722 196.759 341.222V350H194.21V341.46C194.21 340.574 193.969 339.932 193.486 339.534C193.003 339.136 192.426 338.938 191.756 338.938C190.926 338.938 190.281 339.193 189.821 339.705C189.361 340.21 189.131 340.861 189.131 341.656V350H186.591V341.298C186.591 340.588 186.369 340.017 185.926 339.585C185.483 339.153 184.906 338.938 184.196 338.938C183.713 338.938 183.267 339.065 182.858 339.321C182.455 339.571 182.128 339.92 181.878 340.369C181.634 340.818 181.511 341.338 181.511 341.929V350H178.963ZM211.426 350.256C210.369 350.256 209.426 349.986 208.597 349.446C207.773 348.901 207.125 348.125 206.653 347.119C206.188 346.108 205.955 344.895 205.955 343.48C205.955 342.065 206.19 340.855 206.662 339.849C207.139 338.844 207.793 338.074 208.622 337.54C209.452 337.006 210.392 336.739 211.443 336.739C212.256 336.739 212.909 336.875 213.403 337.148C213.903 337.415 214.29 337.727 214.562 338.085C214.841 338.443 215.057 338.759 215.21 339.031H215.364V332.545H217.912V350H215.423V347.963H215.21C215.057 348.241 214.835 348.56 214.545 348.918C214.261 349.276 213.869 349.588 213.369 349.855C212.869 350.122 212.222 350.256 211.426 350.256ZM211.989 348.082C212.722 348.082 213.341 347.889 213.847 347.503C214.358 347.111 214.744 346.568 215.006 345.875C215.273 345.182 215.406 344.375 215.406 343.455C215.406 342.545 215.276 341.75 215.014 341.068C214.753 340.386 214.369 339.855 213.864 339.474C213.358 339.094 212.733 338.903 211.989 338.903C211.222 338.903 210.582 339.102 210.071 339.5C209.56 339.898 209.173 340.44 208.912 341.128C208.656 341.815 208.528 342.591 208.528 343.455C208.528 344.33 208.659 345.116 208.92 345.815C209.182 346.514 209.568 347.068 210.08 347.477C210.597 347.881 211.233 348.082 211.989 348.082ZM225.359 350.29C224.529 350.29 223.779 350.136 223.109 349.83C222.438 349.517 221.907 349.065 221.515 348.474C221.129 347.884 220.935 347.159 220.935 346.301C220.935 345.562 221.077 344.955 221.362 344.477C221.646 344 222.029 343.622 222.512 343.344C222.995 343.065 223.535 342.855 224.131 342.713C224.728 342.571 225.336 342.463 225.955 342.389C226.739 342.298 227.376 342.224 227.864 342.168C228.353 342.105 228.708 342.006 228.93 341.869C229.151 341.733 229.262 341.511 229.262 341.205V341.145C229.262 340.401 229.052 339.824 228.631 339.415C228.217 339.006 227.597 338.801 226.773 338.801C225.915 338.801 225.239 338.991 224.745 339.372C224.256 339.747 223.918 340.165 223.731 340.625L221.336 340.08C221.62 339.284 222.035 338.642 222.58 338.153C223.131 337.659 223.765 337.301 224.481 337.08C225.197 336.852 225.95 336.739 226.739 336.739C227.262 336.739 227.816 336.801 228.401 336.926C228.992 337.045 229.543 337.267 230.055 337.591C230.572 337.915 230.995 338.378 231.325 338.98C231.654 339.577 231.819 340.352 231.819 341.307V350H229.33V348.21H229.228C229.063 348.54 228.816 348.864 228.487 349.182C228.157 349.5 227.734 349.764 227.217 349.974C226.7 350.185 226.08 350.29 225.359 350.29ZM225.913 348.244C226.617 348.244 227.219 348.105 227.719 347.827C228.225 347.548 228.609 347.185 228.87 346.736C229.137 346.281 229.271 345.795 229.271 345.278V343.591C229.18 343.682 229.004 343.767 228.742 343.847C228.487 343.92 228.194 343.986 227.864 344.043C227.535 344.094 227.214 344.142 226.901 344.188C226.589 344.227 226.327 344.261 226.117 344.29C225.623 344.352 225.171 344.457 224.762 344.605C224.359 344.753 224.035 344.966 223.79 345.244C223.552 345.517 223.433 345.881 223.433 346.335C223.433 346.966 223.665 347.443 224.131 347.767C224.597 348.085 225.191 348.244 225.913 348.244ZM237.761 342.227V350H235.213V336.909H237.659V339.04H237.821C238.122 338.347 238.594 337.79 239.236 337.369C239.884 336.949 240.699 336.739 241.682 336.739C242.574 336.739 243.355 336.926 244.026 337.301C244.696 337.67 245.216 338.222 245.585 338.955C245.955 339.687 246.139 340.594 246.139 341.673V350H243.591V341.98C243.591 341.031 243.344 340.29 242.849 339.756C242.355 339.216 241.676 338.946 240.812 338.946C240.222 338.946 239.696 339.074 239.236 339.33C238.781 339.585 238.42 339.96 238.153 340.455C237.892 340.943 237.761 341.534 237.761 342.227ZM252.105 342.227V350H249.557V332.545H252.071V339.04H252.233C252.54 338.335 253.009 337.776 253.639 337.361C254.27 336.946 255.094 336.739 256.111 336.739C257.009 336.739 257.793 336.923 258.463 337.293C259.139 337.662 259.662 338.213 260.031 338.946C260.406 339.673 260.594 340.582 260.594 341.673V350H258.045V341.98C258.045 341.02 257.798 340.276 257.304 339.747C256.81 339.213 256.122 338.946 255.241 338.946C254.639 338.946 254.099 339.074 253.622 339.33C253.151 339.585 252.778 339.96 252.506 340.455C252.239 340.943 252.105 341.534 252.105 342.227ZM280.156 340.105L277.846 340.514C277.749 340.219 277.596 339.937 277.386 339.67C277.181 339.403 276.903 339.185 276.55 339.014C276.198 338.844 275.758 338.759 275.229 338.759C274.508 338.759 273.906 338.92 273.423 339.244C272.94 339.562 272.698 339.974 272.698 340.48C272.698 340.918 272.86 341.27 273.184 341.537C273.508 341.804 274.031 342.023 274.752 342.193L276.832 342.67C278.036 342.949 278.934 343.378 279.525 343.957C280.116 344.537 280.411 345.29 280.411 346.216C280.411 347 280.184 347.699 279.729 348.312C279.281 348.92 278.653 349.398 277.846 349.744C277.045 350.091 276.116 350.264 275.059 350.264C273.593 350.264 272.397 349.952 271.471 349.327C270.545 348.696 269.977 347.801 269.766 346.642L272.229 346.267C272.383 346.909 272.698 347.395 273.175 347.724C273.653 348.048 274.275 348.21 275.042 348.21C275.877 348.21 276.545 348.037 277.045 347.69C277.545 347.338 277.795 346.909 277.795 346.403C277.795 345.994 277.641 345.651 277.335 345.372C277.033 345.094 276.57 344.884 275.945 344.741L273.729 344.256C272.508 343.977 271.604 343.534 271.019 342.926C270.44 342.318 270.15 341.548 270.15 340.616C270.15 339.844 270.366 339.168 270.798 338.588C271.229 338.009 271.826 337.557 272.587 337.233C273.349 336.903 274.221 336.739 275.204 336.739C276.619 336.739 277.732 337.045 278.545 337.659C279.357 338.267 279.894 339.082 280.156 340.105ZM287.023 350.29C286.193 350.29 285.443 350.136 284.773 349.83C284.102 349.517 283.571 349.065 283.179 348.474C282.793 347.884 282.599 347.159 282.599 346.301C282.599 345.562 282.741 344.955 283.026 344.477C283.31 344 283.693 343.622 284.176 343.344C284.659 343.065 285.199 342.855 285.795 342.713C286.392 342.571 287 342.463 287.619 342.389C288.403 342.298 289.04 342.224 289.528 342.168C290.017 342.105 290.372 342.006 290.594 341.869C290.815 341.733 290.926 341.511 290.926 341.205V341.145C290.926 340.401 290.716 339.824 290.295 339.415C289.881 339.006 289.261 338.801 288.438 338.801C287.58 338.801 286.903 338.991 286.409 339.372C285.92 339.747 285.582 340.165 285.395 340.625L283 340.08C283.284 339.284 283.699 338.642 284.244 338.153C284.795 337.659 285.429 337.301 286.145 337.08C286.861 336.852 287.614 336.739 288.403 336.739C288.926 336.739 289.48 336.801 290.065 336.926C290.656 337.045 291.207 337.267 291.719 337.591C292.236 337.915 292.659 338.378 292.989 338.98C293.318 339.577 293.483 340.352 293.483 341.307V350H290.994V348.21H290.892C290.727 348.54 290.48 348.864 290.151 349.182C289.821 349.5 289.398 349.764 288.881 349.974C288.364 350.185 287.744 350.29 287.023 350.29ZM287.577 348.244C288.281 348.244 288.884 348.105 289.384 347.827C289.889 347.548 290.273 347.185 290.534 346.736C290.801 346.281 290.935 345.795 290.935 345.278V343.591C290.844 343.682 290.668 343.767 290.406 343.847C290.151 343.92 289.858 343.986 289.528 344.043C289.199 344.094 288.878 344.142 288.565 344.188C288.253 344.227 287.991 344.261 287.781 344.29C287.287 344.352 286.835 344.457 286.426 344.605C286.023 344.753 285.699 344.966 285.455 345.244C285.216 345.517 285.097 345.881 285.097 346.335C285.097 346.966 285.33 347.443 285.795 347.767C286.261 348.085 286.855 348.244 287.577 348.244ZM287.483 335.162L289.477 331.233H292.162L289.52 335.162H287.483ZM302.391 350.264C301.124 350.264 300.033 349.977 299.119 349.403C298.21 348.824 297.511 348.026 297.022 347.009C296.533 345.991 296.289 344.827 296.289 343.514C296.289 342.185 296.539 341.011 297.039 339.994C297.539 338.972 298.244 338.173 299.153 337.599C300.062 337.026 301.133 336.739 302.366 336.739C303.36 336.739 304.246 336.923 305.025 337.293C305.803 337.656 306.431 338.168 306.908 338.827C307.391 339.486 307.678 340.256 307.769 341.136H305.289C305.153 340.523 304.84 339.994 304.352 339.551C303.869 339.108 303.221 338.886 302.408 338.886C301.698 338.886 301.076 339.074 300.542 339.449C300.013 339.818 299.602 340.347 299.306 341.034C299.011 341.716 298.863 342.523 298.863 343.455C298.863 344.409 299.008 345.233 299.298 345.926C299.587 346.619 299.996 347.156 300.525 347.537C301.059 347.918 301.687 348.108 302.408 348.108C302.891 348.108 303.329 348.02 303.721 347.844C304.119 347.662 304.451 347.403 304.718 347.068C304.991 346.733 305.181 346.33 305.289 345.858H307.769C307.678 346.705 307.403 347.46 306.942 348.125C306.482 348.79 305.866 349.312 305.093 349.693C304.326 350.074 303.425 350.264 302.391 350.264ZM313.043 342.227V350H310.494V332.545H313.009V339.04H313.17C313.477 338.335 313.946 337.776 314.577 337.361C315.207 336.946 316.031 336.739 317.048 336.739C317.946 336.739 318.73 336.923 319.401 337.293C320.077 337.662 320.599 338.213 320.969 338.946C321.344 339.673 321.531 340.582 321.531 341.673V350H318.983V341.98C318.983 341.02 318.736 340.276 318.241 339.747C317.747 339.213 317.06 338.946 316.179 338.946C315.577 338.946 315.037 339.074 314.56 339.33C314.088 339.585 313.716 339.96 313.443 340.455C313.176 340.943 313.043 341.534 313.043 342.227ZM333.627 345.56L333.61 342.449H334.053L339.269 336.909H342.32L336.371 343.216H335.971L333.627 345.56ZM331.283 350V332.545H333.832V350H331.283ZM339.55 350L334.863 343.778L336.619 341.997L342.678 350H339.55ZM349.746 350.264C348.456 350.264 347.345 349.989 346.413 349.438C345.487 348.881 344.771 348.099 344.266 347.094C343.766 346.082 343.516 344.898 343.516 343.54C343.516 342.199 343.766 341.017 344.266 339.994C344.771 338.972 345.476 338.173 346.379 337.599C347.288 337.026 348.351 336.739 349.567 336.739C350.305 336.739 351.021 336.861 351.714 337.105C352.408 337.349 353.03 337.733 353.581 338.256C354.132 338.778 354.567 339.457 354.885 340.293C355.203 341.122 355.362 342.131 355.362 343.318V344.222H344.956V342.312H352.865C352.865 341.642 352.729 341.048 352.456 340.531C352.183 340.009 351.8 339.597 351.305 339.295C350.817 338.994 350.243 338.844 349.584 338.844C348.868 338.844 348.243 339.02 347.709 339.372C347.18 339.719 346.771 340.173 346.482 340.736C346.197 341.293 346.055 341.898 346.055 342.551V344.043C346.055 344.918 346.209 345.662 346.516 346.276C346.828 346.889 347.263 347.358 347.82 347.682C348.376 348 349.027 348.159 349.771 348.159C350.254 348.159 350.695 348.091 351.092 347.955C351.49 347.812 351.834 347.602 352.124 347.324C352.413 347.045 352.635 346.702 352.788 346.293L355.2 346.727C355.007 347.437 354.661 348.06 354.161 348.594C353.666 349.122 353.044 349.534 352.294 349.83C351.55 350.119 350.7 350.264 349.746 350.264ZM351.22 335.341L349.473 333.057L347.717 335.341H345.416V335.213L348.408 331.599H350.53L353.53 335.213V335.341H351.22ZM360.738 342.227V350H358.19V336.909H360.636V339.04H360.798C361.099 338.347 361.57 337.79 362.212 337.369C362.86 336.949 363.675 336.739 364.658 336.739C365.55 336.739 366.332 336.926 367.002 337.301C367.673 337.67 368.192 338.222 368.562 338.955C368.931 339.687 369.116 340.594 369.116 341.673V350H366.567V341.98C366.567 341.031 366.32 340.29 365.826 339.756C365.332 339.216 364.653 338.946 363.789 338.946C363.198 338.946 362.673 339.074 362.212 339.33C361.758 339.585 361.397 339.96 361.13 340.455C360.869 340.943 360.738 341.534 360.738 342.227ZM375.082 342.227V350H372.533V332.545H375.048V339.04H375.21C375.516 338.335 375.985 337.776 376.616 337.361C377.246 336.946 378.07 336.739 379.087 336.739C379.985 336.739 380.769 336.923 381.44 337.293C382.116 337.662 382.638 338.213 383.008 338.946C383.383 339.673 383.57 340.582 383.57 341.673V350H381.022V341.98C381.022 341.02 380.775 340.276 380.281 339.747C379.786 339.213 379.099 338.946 378.218 338.946C377.616 338.946 377.076 339.074 376.599 339.33C376.127 339.585 375.755 339.96 375.482 340.455C375.215 340.943 375.082 341.534 375.082 342.227Z" fill="white"/>
<rect x="949.5" y="445.5" width="420" height="79" rx="3.5" fill="black" fill-opacity="0.6"/>
<rect x="949.5" y="445.5" width="420" height="79" rx="3.5" stroke="white"/>
<path opacity="0.8" d="M974.918 494V476.545H981.31C982.548 476.545 983.574 476.75 984.386 477.159C985.199 477.562 985.807 478.111 986.21 478.804C986.614 479.491 986.815 480.267 986.815 481.131C986.815 481.858 986.682 482.472 986.415 482.972C986.148 483.466 985.79 483.864 985.341 484.165C984.898 484.46 984.409 484.676 983.875 484.812V484.983C984.455 485.011 985.02 485.199 985.571 485.545C986.128 485.886 986.588 486.372 986.952 487.003C987.315 487.634 987.497 488.401 987.497 489.304C987.497 490.196 987.287 490.997 986.866 491.707C986.452 492.412 985.81 492.972 984.94 493.386C984.071 493.795 982.96 494 981.608 494H974.918ZM977.551 491.741H981.352C982.614 491.741 983.517 491.497 984.062 491.009C984.608 490.52 984.881 489.909 984.881 489.176C984.881 488.625 984.741 488.119 984.463 487.659C984.185 487.199 983.787 486.832 983.27 486.56C982.759 486.287 982.151 486.151 981.446 486.151H977.551V491.741ZM977.551 484.097H981.08C981.67 484.097 982.202 483.983 982.673 483.756C983.151 483.528 983.528 483.21 983.807 482.801C984.091 482.386 984.233 481.898 984.233 481.335C984.233 480.614 983.98 480.009 983.474 479.52C982.969 479.031 982.193 478.787 981.148 478.787H977.551V484.097ZM994.226 494.29C993.396 494.29 992.646 494.136 991.976 493.83C991.305 493.517 990.774 493.065 990.382 492.474C989.996 491.884 989.803 491.159 989.803 490.301C989.803 489.562 989.945 488.955 990.229 488.477C990.513 488 990.896 487.622 991.379 487.344C991.862 487.065 992.402 486.855 992.999 486.713C993.595 486.571 994.203 486.463 994.822 486.389C995.607 486.298 996.243 486.224 996.732 486.168C997.22 486.105 997.575 486.006 997.797 485.869C998.018 485.733 998.129 485.511 998.129 485.205V485.145C998.129 484.401 997.919 483.824 997.499 483.415C997.084 483.006 996.464 482.801 995.641 482.801C994.783 482.801 994.107 482.991 993.612 483.372C993.124 483.747 992.786 484.165 992.598 484.625L990.203 484.08C990.487 483.284 990.902 482.642 991.447 482.153C991.999 481.659 992.632 481.301 993.348 481.08C994.064 480.852 994.817 480.739 995.607 480.739C996.129 480.739 996.683 480.801 997.268 480.926C997.859 481.045 998.411 481.267 998.922 481.591C999.439 481.915 999.862 482.378 1000.19 482.98C1000.52 483.577 1000.69 484.352 1000.69 485.307V494H998.197V492.21H998.095C997.93 492.54 997.683 492.864 997.354 493.182C997.024 493.5 996.601 493.764 996.084 493.974C995.567 494.185 994.947 494.29 994.226 494.29ZM994.78 492.244C995.484 492.244 996.087 492.105 996.587 491.827C997.092 491.548 997.476 491.185 997.737 490.736C998.004 490.281 998.138 489.795 998.138 489.278V487.591C998.047 487.682 997.871 487.767 997.609 487.847C997.354 487.92 997.061 487.986 996.732 488.043C996.402 488.094 996.081 488.142 995.768 488.188C995.456 488.227 995.195 488.261 994.984 488.29C994.49 488.352 994.038 488.457 993.629 488.605C993.226 488.753 992.902 488.966 992.658 489.244C992.419 489.517 992.3 489.881 992.3 490.335C992.3 490.966 992.533 491.443 992.999 491.767C993.464 492.085 994.058 492.244 994.78 492.244ZM991.328 479.341L994.788 476.384H996.689L1000.16 479.341H997.652L995.76 477.653L993.851 479.341H991.328ZM999.246 477.449L1001.03 474.338H1003.63L1001.11 477.449H999.246ZM1004.08 494V480.909H1006.53V483.04H1006.69C1006.96 482.318 1007.41 481.756 1008.03 481.352C1008.65 480.943 1009.39 480.739 1010.25 480.739C1011.13 480.739 1011.86 480.943 1012.45 481.352C1013.05 481.761 1013.49 482.324 1013.77 483.04H1013.91C1014.22 482.341 1014.72 481.784 1015.4 481.369C1016.08 480.949 1016.89 480.739 1017.84 480.739C1019.02 480.739 1019.99 481.111 1020.74 481.855C1021.5 482.599 1021.88 483.722 1021.88 485.222V494H1019.33V485.46C1019.33 484.574 1019.09 483.932 1018.6 483.534C1018.12 483.136 1017.54 482.938 1016.87 482.938C1016.04 482.938 1015.4 483.193 1014.94 483.705C1014.48 484.21 1014.25 484.861 1014.25 485.656V494H1011.71V485.298C1011.71 484.588 1011.49 484.017 1011.04 483.585C1010.6 483.153 1010.02 482.938 1009.31 482.938C1008.83 482.938 1008.38 483.065 1007.98 483.321C1007.57 483.571 1007.25 483.92 1007 484.369C1006.75 484.818 1006.63 485.338 1006.63 485.929V494H1004.08Z" fill="white"/>
<rect x="1032" y="459" width="52" height="52" rx="26" fill="white"/>
<path opacity="0.8" d="M1057.9 485.273C1057.9 487.176 1057.54 488.795 1056.81 490.131C1056.1 491.466 1055.12 492.486 1053.88 493.19C1052.65 493.889 1051.26 494.239 1049.72 494.239C1048.17 494.239 1046.78 493.886 1045.55 493.182C1044.31 492.477 1043.34 491.457 1042.62 490.122C1041.91 488.787 1041.55 487.17 1041.55 485.273C1041.55 483.369 1041.91 481.75 1042.62 480.415C1043.34 479.08 1044.31 478.062 1045.55 477.364C1046.78 476.659 1048.17 476.307 1049.72 476.307C1051.26 476.307 1052.65 476.659 1053.88 477.364C1055.12 478.062 1056.1 479.08 1056.81 480.415C1057.54 481.75 1057.9 483.369 1057.9 485.273ZM1054.16 485.273C1054.16 484.04 1053.97 483 1053.6 482.153C1053.24 481.307 1052.72 480.665 1052.06 480.227C1051.39 479.79 1050.62 479.571 1049.72 479.571C1048.83 479.571 1048.05 479.79 1047.39 480.227C1046.72 480.665 1046.21 481.307 1045.84 482.153C1045.47 483 1045.29 484.04 1045.29 485.273C1045.29 486.506 1045.47 487.545 1045.84 488.392C1046.21 489.239 1046.72 489.881 1047.39 490.318C1048.05 490.756 1048.83 490.974 1049.72 490.974C1050.62 490.974 1051.39 490.756 1052.06 490.318C1052.72 489.881 1053.24 489.239 1053.6 488.392C1053.97 487.545 1054.16 486.506 1054.16 485.273ZM1060.63 494V476.545H1064.32V484.241H1064.55L1070.83 476.545H1075.26L1068.78 484.361L1075.33 494H1070.92L1066.14 486.824L1064.32 489.04V494H1060.63Z" fill="#090909"/>
<path opacity="0.8" d="M1098.61 494.256C1097.56 494.256 1096.61 493.986 1095.78 493.446C1094.96 492.901 1094.31 492.125 1093.84 491.119C1093.38 490.108 1093.14 488.895 1093.14 487.48C1093.14 486.065 1093.38 484.855 1093.85 483.849C1094.33 482.844 1094.98 482.074 1095.81 481.54C1096.64 481.006 1097.58 480.739 1098.63 480.739C1099.44 480.739 1100.1 480.875 1100.59 481.148C1101.09 481.415 1101.48 481.727 1101.75 482.085C1102.03 482.443 1102.24 482.759 1102.4 483.031H1102.55V476.545H1105.1V494H1102.61V491.963H1102.4C1102.24 492.241 1102.02 492.56 1101.73 492.918C1101.45 493.276 1101.06 493.588 1100.56 493.855C1100.06 494.122 1099.41 494.256 1098.61 494.256ZM1099.18 492.082C1099.91 492.082 1100.53 491.889 1101.03 491.503C1101.55 491.111 1101.93 490.568 1102.19 489.875C1102.46 489.182 1102.59 488.375 1102.59 487.455C1102.59 486.545 1102.46 485.75 1102.2 485.068C1101.94 484.386 1101.56 483.855 1101.05 483.474C1100.55 483.094 1099.92 482.903 1099.18 482.903C1098.41 482.903 1097.77 483.102 1097.26 483.5C1096.75 483.898 1096.36 484.44 1096.1 485.128C1095.84 485.815 1095.72 486.591 1095.72 487.455C1095.72 488.33 1095.85 489.116 1096.11 489.815C1096.37 490.514 1096.76 491.068 1097.27 491.477C1097.78 491.881 1098.42 492.082 1099.18 492.082ZM1099.01 479.861V478.097H1106.85V479.861H1099.01ZM1114.38 494.264C1113.09 494.264 1111.98 493.989 1111.05 493.438C1110.12 492.881 1109.4 492.099 1108.9 491.094C1108.4 490.082 1108.15 488.898 1108.15 487.54C1108.15 486.199 1108.4 485.017 1108.9 483.994C1109.4 482.972 1110.11 482.173 1111.01 481.599C1111.92 481.026 1112.98 480.739 1114.2 480.739C1114.94 480.739 1115.65 480.861 1116.35 481.105C1117.04 481.349 1117.66 481.733 1118.21 482.256C1118.76 482.778 1119.2 483.457 1119.52 484.293C1119.84 485.122 1120 486.131 1120 487.318V488.222H1109.59V486.312H1117.5C1117.5 485.642 1117.36 485.048 1117.09 484.531C1116.82 484.009 1116.43 483.597 1115.94 483.295C1115.45 482.994 1114.88 482.844 1114.22 482.844C1113.5 482.844 1112.88 483.02 1112.34 483.372C1111.81 483.719 1111.4 484.173 1111.11 484.736C1110.83 485.293 1110.69 485.898 1110.69 486.551V488.043C1110.69 488.918 1110.84 489.662 1111.15 490.276C1111.46 490.889 1111.9 491.358 1112.45 491.682C1113.01 492 1113.66 492.159 1114.4 492.159C1114.89 492.159 1115.33 492.091 1115.73 491.955C1116.12 491.812 1116.47 491.602 1116.76 491.324C1117.05 491.045 1117.27 490.702 1117.42 490.293L1119.83 490.727C1119.64 491.437 1119.29 492.06 1118.79 492.594C1118.3 493.122 1117.68 493.534 1116.93 493.83C1116.18 494.119 1115.33 494.264 1114.38 494.264ZM1115.21 476.58L1118.5 479.537H1116.25L1114.07 477.602L1111.92 479.537H1109.67L1112.95 476.58H1115.21ZM1118.98 477.943H1117.4L1117.34 476.477C1117.82 476.443 1118.17 476.378 1118.4 476.281C1118.63 476.185 1118.74 476.02 1118.74 475.787C1118.74 475.514 1118.59 475.327 1118.3 475.224C1118 475.116 1117.63 475.062 1117.18 475.062L1117.26 473.852C1118.33 473.852 1119.14 474.026 1119.69 474.372C1120.24 474.713 1120.51 475.179 1120.51 475.77C1120.51 476.253 1120.36 476.611 1120.04 476.844C1119.72 477.071 1119.37 477.21 1118.98 477.261V477.943ZM1135.28 480.909V482.955H1128.13V480.909H1135.28ZM1130.05 477.773H1132.6V490.156C1132.6 490.651 1132.67 491.023 1132.82 491.273C1132.97 491.517 1133.16 491.685 1133.39 491.776C1133.63 491.861 1133.89 491.903 1134.17 491.903C1134.37 491.903 1134.55 491.889 1134.71 491.861C1134.86 491.832 1134.98 491.81 1135.06 491.793L1135.52 493.898C1135.38 493.955 1135.17 494.011 1134.89 494.068C1134.62 494.131 1134.28 494.165 1133.87 494.17C1133.2 494.182 1132.57 494.062 1132 493.812C1131.42 493.562 1130.95 493.176 1130.59 492.653C1130.23 492.131 1130.05 491.474 1130.05 490.685V477.773ZM1146.4 488.571V480.909H1148.95V494H1146.45V491.733H1146.31C1146.01 492.432 1145.53 493.014 1144.86 493.48C1144.2 493.94 1143.38 494.17 1142.4 494.17C1141.56 494.17 1140.81 493.986 1140.17 493.616C1139.52 493.241 1139.02 492.688 1138.65 491.955C1138.29 491.222 1138.1 490.315 1138.1 489.236V480.909H1140.65V488.929C1140.65 489.821 1140.9 490.531 1141.39 491.06C1141.89 491.588 1142.53 491.852 1143.32 491.852C1143.8 491.852 1144.27 491.733 1144.74 491.494C1145.22 491.256 1145.62 490.895 1145.93 490.412C1146.25 489.929 1146.4 489.315 1146.4 488.571ZM1156.19 494.29C1155.36 494.29 1154.61 494.136 1153.94 493.83C1153.27 493.517 1152.74 493.065 1152.34 492.474C1151.96 491.884 1151.76 491.159 1151.76 490.301C1151.76 489.562 1151.91 488.955 1152.19 488.477C1152.47 488 1152.86 487.622 1153.34 487.344C1153.82 487.065 1154.36 486.855 1154.96 486.713C1155.56 486.571 1156.16 486.463 1156.78 486.389C1157.57 486.298 1158.2 486.224 1158.69 486.168C1159.18 486.105 1159.54 486.006 1159.76 485.869C1159.98 485.733 1160.09 485.511 1160.09 485.205V485.145C1160.09 484.401 1159.88 483.824 1159.46 483.415C1159.04 483.006 1158.43 482.801 1157.6 482.801C1156.74 482.801 1156.07 482.991 1155.57 483.372C1155.08 483.747 1154.75 484.165 1154.56 484.625L1152.16 484.08C1152.45 483.284 1152.86 482.642 1153.41 482.153C1153.96 481.659 1154.59 481.301 1155.31 481.08C1156.02 480.852 1156.78 480.739 1157.57 480.739C1158.09 480.739 1158.64 480.801 1159.23 480.926C1159.82 481.045 1160.37 481.267 1160.88 481.591C1161.4 481.915 1161.82 482.378 1162.15 482.98C1162.48 483.577 1162.65 484.352 1162.65 485.307V494H1160.16V492.21H1160.06C1159.89 492.54 1159.64 492.864 1159.31 493.182C1158.99 493.5 1158.56 493.764 1158.04 493.974C1157.53 494.185 1156.91 494.29 1156.19 494.29ZM1156.74 492.244C1157.45 492.244 1158.05 492.105 1158.55 491.827C1159.05 491.548 1159.44 491.185 1159.7 490.736C1159.97 490.281 1160.1 489.795 1160.1 489.278V487.591C1160.01 487.682 1159.83 487.767 1159.57 487.847C1159.31 487.92 1159.02 487.986 1158.69 488.043C1158.36 488.094 1158.04 488.142 1157.73 488.188C1157.42 488.227 1157.16 488.261 1156.95 488.29C1156.45 488.352 1156 488.457 1155.59 488.605C1155.19 488.753 1154.86 488.966 1154.62 489.244C1154.38 489.517 1154.26 489.881 1154.26 490.335C1154.26 490.966 1154.49 491.443 1154.96 491.767C1155.43 492.085 1156.02 492.244 1156.74 492.244ZM1174.94 476.545V494H1172.39V476.545H1174.94ZM1182.18 494.29C1181.35 494.29 1180.6 494.136 1179.93 493.83C1179.26 493.517 1178.73 493.065 1178.34 492.474C1177.95 491.884 1177.76 491.159 1177.76 490.301C1177.76 489.562 1177.9 488.955 1178.18 488.477C1178.47 488 1178.85 487.622 1179.33 487.344C1179.82 487.065 1180.36 486.855 1180.95 486.713C1181.55 486.571 1182.16 486.463 1182.78 486.389C1183.56 486.298 1184.2 486.224 1184.68 486.168C1185.17 486.105 1185.53 486.006 1185.75 485.869C1185.97 485.733 1186.08 485.511 1186.08 485.205V485.145C1186.08 484.401 1185.87 483.824 1185.45 483.415C1185.04 483.006 1184.42 482.801 1183.59 482.801C1182.74 482.801 1182.06 482.991 1181.57 483.372C1181.08 483.747 1180.74 484.165 1180.55 484.625L1178.16 484.08C1178.44 483.284 1178.86 482.642 1179.4 482.153C1179.95 481.659 1180.59 481.301 1181.3 481.08C1182.02 480.852 1182.77 480.739 1183.56 480.739C1184.08 480.739 1184.64 480.801 1185.22 480.926C1185.81 481.045 1186.36 481.267 1186.88 481.591C1187.39 481.915 1187.82 482.378 1188.14 482.98C1188.47 483.577 1188.64 484.352 1188.64 485.307V494H1186.15V492.21H1186.05C1185.88 492.54 1185.64 492.864 1185.31 493.182C1184.98 493.5 1184.55 493.764 1184.04 493.974C1183.52 494.185 1182.9 494.29 1182.18 494.29ZM1182.73 492.244C1183.44 492.244 1184.04 492.105 1184.54 491.827C1185.05 491.548 1185.43 491.185 1185.69 490.736C1185.96 490.281 1186.09 489.795 1186.09 489.278V487.591C1186 487.682 1185.82 487.767 1185.56 487.847C1185.31 487.92 1185.01 487.986 1184.68 488.043C1184.36 488.094 1184.03 488.142 1183.72 488.188C1183.41 488.227 1183.15 488.261 1182.94 488.29C1182.44 488.352 1181.99 488.457 1181.58 488.605C1181.18 488.753 1180.86 488.966 1180.61 489.244C1180.37 489.517 1180.25 489.881 1180.25 490.335C1180.25 490.966 1180.49 491.443 1180.95 491.767C1181.42 492.085 1182.01 492.244 1182.73 492.244ZM1183.58 498.517C1183.14 498.517 1182.76 498.369 1182.44 498.074C1182.13 497.778 1181.97 497.42 1181.97 497C1181.97 496.58 1182.13 496.222 1182.44 495.926C1182.76 495.631 1183.14 495.483 1183.58 495.483C1184.02 495.483 1184.4 495.631 1184.71 495.926C1185.03 496.222 1185.19 496.58 1185.19 497C1185.19 497.42 1185.03 497.778 1184.71 498.074C1184.4 498.369 1184.02 498.517 1183.58 498.517ZM1192.03 494V480.909H1194.58V494H1192.03ZM1193.32 478.889C1192.88 478.889 1192.5 478.741 1192.18 478.446C1191.87 478.145 1191.71 477.787 1191.71 477.372C1191.71 476.952 1191.87 476.594 1192.18 476.298C1192.5 475.997 1192.88 475.847 1193.32 475.847C1193.76 475.847 1194.14 475.997 1194.45 476.298C1194.77 476.594 1194.93 476.952 1194.93 477.372C1194.93 477.787 1194.77 478.145 1194.45 478.446C1194.14 478.741 1193.76 478.889 1193.32 478.889ZM1206.91 486.227V494H1204.36V476.545H1206.88V483.04H1207.04C1207.34 482.335 1207.81 481.776 1208.44 481.361C1209.07 480.946 1209.9 480.739 1210.92 480.739C1211.81 480.739 1212.6 480.923 1213.27 481.293C1213.94 481.662 1214.47 482.213 1214.84 482.946C1215.21 483.673 1215.4 484.582 1215.4 485.673V494H1212.85V485.98C1212.85 485.02 1212.6 484.276 1212.11 483.747C1211.61 483.213 1210.93 482.946 1210.05 482.946C1209.44 482.946 1208.9 483.074 1208.43 483.33C1207.96 483.585 1207.58 483.96 1207.31 484.455C1207.04 484.943 1206.91 485.534 1206.91 486.227ZM1224.31 494.264C1223.09 494.264 1222.01 493.983 1221.1 493.42C1220.19 492.858 1219.48 492.071 1218.97 491.06C1218.46 490.048 1218.21 488.866 1218.21 487.514C1218.21 486.156 1218.46 484.969 1218.97 483.952C1219.48 482.935 1220.19 482.145 1221.1 481.582C1222.01 481.02 1223.09 480.739 1224.31 480.739C1225.54 480.739 1226.61 481.02 1227.53 481.582C1228.44 482.145 1229.15 482.935 1229.66 483.952C1230.16 484.969 1230.42 486.156 1230.42 487.514C1230.42 488.866 1230.16 490.048 1229.66 491.06C1229.15 492.071 1228.44 492.858 1227.53 493.42C1226.61 493.983 1225.54 494.264 1224.31 494.264ZM1224.32 492.125C1225.12 492.125 1225.78 491.915 1226.3 491.494C1226.82 491.074 1227.21 490.514 1227.46 489.815C1227.71 489.116 1227.84 488.347 1227.84 487.506C1227.84 486.67 1227.71 485.903 1227.46 485.205C1227.21 484.5 1226.82 483.935 1226.3 483.509C1225.78 483.082 1225.12 482.869 1224.32 482.869C1223.52 482.869 1222.86 483.082 1222.33 483.509C1221.8 483.935 1221.42 484.5 1221.16 485.205C1220.91 485.903 1220.78 486.67 1220.78 487.506C1220.78 488.347 1220.91 489.116 1221.16 489.815C1221.42 490.514 1221.8 491.074 1222.33 491.494C1222.86 491.915 1223.52 492.125 1224.32 492.125ZM1237.07 494.29C1236.24 494.29 1235.49 494.136 1234.82 493.83C1234.15 493.517 1233.62 493.065 1233.23 492.474C1232.84 491.884 1232.65 491.159 1232.65 490.301C1232.65 489.562 1232.79 488.955 1233.07 488.477C1233.36 488 1233.74 487.622 1234.22 487.344C1234.71 487.065 1235.25 486.855 1235.84 486.713C1236.44 486.571 1237.05 486.463 1237.67 486.389C1238.45 486.298 1239.09 486.224 1239.58 486.168C1240.06 486.105 1240.42 486.006 1240.64 485.869C1240.86 485.733 1240.97 485.511 1240.97 485.205V485.145C1240.97 484.401 1240.76 483.824 1240.34 483.415C1239.93 483.006 1239.31 482.801 1238.48 482.801C1237.63 482.801 1236.95 482.991 1236.46 483.372C1235.97 483.747 1235.63 484.165 1235.44 484.625L1233.05 484.08C1233.33 483.284 1233.75 482.642 1234.29 482.153C1234.84 481.659 1235.48 481.301 1236.19 481.08C1236.91 480.852 1237.66 480.739 1238.45 480.739C1238.97 480.739 1239.53 480.801 1240.11 480.926C1240.7 481.045 1241.25 481.267 1241.77 481.591C1242.28 481.915 1242.71 482.378 1243.04 482.98C1243.37 483.577 1243.53 484.352 1243.53 485.307V494H1241.04V492.21H1240.94C1240.77 492.54 1240.53 492.864 1240.2 493.182C1239.87 493.5 1239.44 493.764 1238.93 493.974C1238.41 494.185 1237.79 494.29 1237.07 494.29ZM1237.62 492.244C1238.33 492.244 1238.93 492.105 1239.43 491.827C1239.94 491.548 1240.32 491.185 1240.58 490.736C1240.85 490.281 1240.98 489.795 1240.98 489.278V487.591C1240.89 487.682 1240.71 487.767 1240.45 487.847C1240.2 487.92 1239.9 487.986 1239.58 488.043C1239.25 488.094 1238.92 488.142 1238.61 488.188C1238.3 488.227 1238.04 488.261 1237.83 488.29C1237.33 488.352 1236.88 488.457 1236.47 488.605C1236.07 488.753 1235.75 488.966 1235.5 489.244C1235.26 489.517 1235.14 489.881 1235.14 490.335C1235.14 490.966 1235.38 491.443 1235.84 491.767C1236.31 492.085 1236.9 492.244 1237.62 492.244ZM1240.26 476.477H1242.35C1242.35 477.437 1242.01 478.219 1241.33 478.821C1240.65 479.418 1239.74 479.716 1238.59 479.716C1237.44 479.716 1236.53 479.418 1235.85 478.821C1235.17 478.219 1234.84 477.437 1234.84 476.477H1236.92C1236.92 476.903 1237.05 477.281 1237.3 477.611C1237.55 477.935 1237.98 478.097 1238.59 478.097C1239.18 478.097 1239.61 477.935 1239.87 477.611C1240.13 477.287 1240.26 476.909 1240.26 476.477ZM1238.47 498.517C1238.03 498.517 1237.65 498.369 1237.33 498.074C1237.02 497.778 1236.86 497.42 1236.86 497C1236.86 496.58 1237.02 496.222 1237.33 495.926C1237.65 495.631 1238.03 495.483 1238.47 495.483C1238.91 495.483 1239.29 495.631 1239.6 495.926C1239.92 496.222 1240.08 496.58 1240.08 497C1240.08 497.42 1239.92 497.778 1239.6 498.074C1239.29 498.369 1238.91 498.517 1238.47 498.517ZM1252.44 494.264C1251.17 494.264 1250.08 493.977 1249.17 493.403C1248.26 492.824 1247.56 492.026 1247.07 491.009C1246.58 489.991 1246.34 488.827 1246.34 487.514C1246.34 486.185 1246.59 485.011 1247.09 483.994C1247.59 482.972 1248.29 482.173 1249.2 481.599C1250.11 481.026 1251.18 480.739 1252.41 480.739C1253.41 480.739 1254.29 480.923 1255.07 481.293C1255.85 481.656 1256.48 482.168 1256.96 482.827C1257.44 483.486 1257.73 484.256 1257.82 485.136H1255.34C1255.2 484.523 1254.89 483.994 1254.4 483.551C1253.92 483.108 1253.27 482.886 1252.46 482.886C1251.75 482.886 1251.12 483.074 1250.59 483.449C1250.06 483.818 1249.65 484.347 1249.35 485.034C1249.06 485.716 1248.91 486.523 1248.91 487.455C1248.91 488.409 1249.05 489.233 1249.34 489.926C1249.63 490.619 1250.04 491.156 1250.57 491.537C1251.11 491.918 1251.73 492.108 1252.46 492.108C1252.94 492.108 1253.38 492.02 1253.77 491.844C1254.17 491.662 1254.5 491.403 1254.76 491.068C1255.04 490.733 1255.23 490.33 1255.34 489.858H1257.82C1257.73 490.705 1257.45 491.46 1256.99 492.125C1256.53 492.79 1255.91 493.312 1255.14 493.693C1254.37 494.074 1253.47 494.264 1252.44 494.264ZM1268.9 480.909L1271.79 486.006L1274.71 480.909H1277.5L1273.41 487.455L1277.53 494H1274.74L1271.79 489.108L1268.85 494H1266.06L1270.13 487.455L1266.11 480.909H1268.9ZM1285.24 494.264C1283.95 494.264 1282.84 493.989 1281.91 493.438C1280.98 492.881 1280.26 492.099 1279.76 491.094C1279.26 490.082 1279.01 488.898 1279.01 487.54C1279.01 486.199 1279.26 485.017 1279.76 483.994C1280.26 482.972 1280.97 482.173 1281.87 481.599C1282.78 481.026 1283.84 480.739 1285.06 480.739C1285.8 480.739 1286.51 480.861 1287.21 481.105C1287.9 481.349 1288.52 481.733 1289.07 482.256C1289.62 482.778 1290.06 483.457 1290.38 484.293C1290.7 485.122 1290.85 486.131 1290.85 487.318V488.222H1280.45V486.312H1288.36C1288.36 485.642 1288.22 485.048 1287.95 484.531C1287.68 484.009 1287.29 483.597 1286.8 483.295C1286.31 482.994 1285.74 482.844 1285.08 482.844C1284.36 482.844 1283.74 483.02 1283.2 483.372C1282.67 483.719 1282.26 484.173 1281.97 484.736C1281.69 485.293 1281.55 485.898 1281.55 486.551V488.043C1281.55 488.918 1281.7 489.662 1282.01 490.276C1282.32 490.889 1282.75 491.358 1283.31 491.682C1283.87 492 1284.52 492.159 1285.26 492.159C1285.75 492.159 1286.19 492.091 1286.58 491.955C1286.98 491.812 1287.33 491.602 1287.62 491.324C1287.91 491.045 1288.13 490.702 1288.28 490.293L1290.69 490.727C1290.5 491.437 1290.15 492.06 1289.65 492.594C1289.16 493.122 1288.54 493.534 1287.79 493.83C1287.04 494.119 1286.19 494.264 1285.24 494.264ZM1293.68 494V480.909H1296.13V483.04H1296.29C1296.56 482.318 1297.01 481.756 1297.63 481.352C1298.25 480.943 1298.99 480.739 1299.85 480.739C1300.73 480.739 1301.46 480.943 1302.05 481.352C1302.65 481.761 1303.09 482.324 1303.37 483.04H1303.51C1303.82 482.341 1304.32 481.784 1305 481.369C1305.68 480.949 1306.49 480.739 1307.44 480.739C1308.62 480.739 1309.59 481.111 1310.34 481.855C1311.1 482.599 1311.48 483.722 1311.48 485.222V494H1308.93V485.46C1308.93 484.574 1308.69 483.932 1308.2 483.534C1307.72 483.136 1307.14 482.938 1306.47 482.938C1305.64 482.938 1305 483.193 1304.54 483.705C1304.08 484.21 1303.85 484.861 1303.85 485.656V494H1301.31V485.298C1301.31 484.588 1301.09 484.017 1300.64 483.585C1300.2 483.153 1299.63 482.938 1298.91 482.938C1298.43 482.938 1297.99 483.065 1297.58 483.321C1297.17 483.571 1296.85 483.92 1296.6 484.369C1296.35 484.818 1296.23 485.338 1296.23 485.929V494H1293.68ZM1323.79 476.545V494H1321.24V476.545H1323.79ZM1331.03 494.29C1330.2 494.29 1329.45 494.136 1328.78 493.83C1328.11 493.517 1327.58 493.065 1327.19 492.474C1326.8 491.884 1326.61 491.159 1326.61 490.301C1326.61 489.562 1326.75 488.955 1327.03 488.477C1327.32 488 1327.7 487.622 1328.18 487.344C1328.67 487.065 1329.21 486.855 1329.8 486.713C1330.4 486.571 1331.01 486.463 1331.63 486.389C1332.41 486.298 1333.05 486.224 1333.54 486.168C1334.02 486.105 1334.38 486.006 1334.6 485.869C1334.82 485.733 1334.93 485.511 1334.93 485.205V485.145C1334.93 484.401 1334.72 483.824 1334.3 483.415C1333.89 483.006 1333.27 482.801 1332.45 482.801C1331.59 482.801 1330.91 482.991 1330.42 483.372C1329.93 483.747 1329.59 484.165 1329.4 484.625L1327.01 484.08C1327.29 483.284 1327.71 482.642 1328.25 482.153C1328.8 481.659 1329.44 481.301 1330.15 481.08C1330.87 480.852 1331.62 480.739 1332.41 480.739C1332.93 480.739 1333.49 480.801 1334.07 480.926C1334.66 481.045 1335.22 481.267 1335.73 481.591C1336.24 481.915 1336.67 482.378 1337 482.98C1337.33 483.577 1337.49 484.352 1337.49 485.307V494H1335V492.21H1334.9C1334.74 492.54 1334.49 492.864 1334.16 493.182C1333.83 493.5 1333.41 493.764 1332.89 493.974C1332.37 494.185 1331.75 494.29 1331.03 494.29ZM1331.58 492.244C1332.29 492.244 1332.89 492.105 1333.39 491.827C1333.9 491.548 1334.28 491.185 1334.54 490.736C1334.81 490.281 1334.94 489.795 1334.94 489.278V487.591C1334.85 487.682 1334.68 487.767 1334.41 487.847C1334.16 487.92 1333.87 487.986 1333.54 488.043C1333.21 488.094 1332.89 488.142 1332.57 488.188C1332.26 488.227 1332 488.261 1331.79 488.29C1331.29 488.352 1330.84 488.457 1330.43 488.605C1330.03 488.753 1329.71 488.966 1329.46 489.244C1329.22 489.517 1329.1 489.881 1329.1 490.335C1329.1 490.966 1329.34 491.443 1329.8 491.767C1330.27 492.085 1330.86 492.244 1331.58 492.244ZM1332.43 498.517C1331.99 498.517 1331.61 498.369 1331.29 498.074C1330.98 497.778 1330.82 497.42 1330.82 497C1330.82 496.58 1330.98 496.222 1331.29 495.926C1331.61 495.631 1331.99 495.483 1332.43 495.483C1332.87 495.483 1333.25 495.631 1333.56 495.926C1333.88 496.222 1334.04 496.58 1334.04 497C1334.04 497.42 1333.88 497.778 1333.56 498.074C1333.25 498.369 1332.87 498.517 1332.43 498.517ZM1340.88 494V480.909H1343.43V494H1340.88ZM1342.17 478.889C1341.73 478.889 1341.35 478.741 1341.03 478.446C1340.72 478.145 1340.56 477.787 1340.56 477.372C1340.56 476.952 1340.72 476.594 1341.03 476.298C1341.35 475.997 1341.73 475.847 1342.17 475.847C1342.62 475.847 1342.99 475.997 1343.31 476.298C1343.62 476.594 1343.78 476.952 1343.78 477.372C1343.78 477.787 1343.62 478.145 1343.31 478.446C1342.99 478.741 1342.62 478.889 1342.17 478.889Z" fill="white"/>
<rect x="453.5" y="0.5" width="513" height="79" rx="3.5" fill="black" fill-opacity="0.6"/>
<rect x="453.5" y="0.5" width="513" height="79" rx="3.5" stroke="white"/>
<path opacity="0.8" d="M478.918 49V31.5455H485.31C486.548 31.5455 487.574 31.75 488.386 32.1591C489.199 32.5625 489.807 33.1108 490.21 33.804C490.614 34.4915 490.815 35.267 490.815 36.1307C490.815 36.858 490.682 37.4716 490.415 37.9716C490.148 38.4659 489.79 38.8636 489.341 39.1648C488.898 39.4602 488.409 39.6761 487.875 39.8125V39.983C488.455 40.0114 489.02 40.1989 489.571 40.5455C490.128 40.8864 490.588 41.3722 490.952 42.0028C491.315 42.6335 491.497 43.4006 491.497 44.304C491.497 45.196 491.287 45.9972 490.866 46.7074C490.452 47.4119 489.81 47.9716 488.94 48.3864C488.071 48.7955 486.96 49 485.608 49H478.918ZM481.551 46.7415H485.352C486.614 46.7415 487.517 46.4972 488.062 46.0085C488.608 45.5199 488.881 44.9091 488.881 44.1761C488.881 43.625 488.741 43.1193 488.463 42.6591C488.185 42.1989 487.787 41.8324 487.27 41.5597C486.759 41.2869 486.151 41.1506 485.446 41.1506H481.551V46.7415ZM481.551 39.0966H485.08C485.67 39.0966 486.202 38.983 486.673 38.7557C487.151 38.5284 487.528 38.2102 487.807 37.8011C488.091 37.3864 488.233 36.8977 488.233 36.3352C488.233 35.6136 487.98 35.0085 487.474 34.5199C486.969 34.0312 486.193 33.7869 485.148 33.7869H481.551V39.0966ZM498.226 49.2898C497.396 49.2898 496.646 49.1364 495.976 48.8295C495.305 48.517 494.774 48.0653 494.382 47.4744C493.996 46.8835 493.803 46.1591 493.803 45.3011C493.803 44.5625 493.945 43.9545 494.229 43.4773C494.513 43 494.896 42.6222 495.379 42.3438C495.862 42.0653 496.402 41.8551 496.999 41.7131C497.595 41.571 498.203 41.4631 498.822 41.3892C499.607 41.2983 500.243 41.2244 500.732 41.1676C501.22 41.1051 501.575 41.0057 501.797 40.8693C502.018 40.733 502.129 40.5114 502.129 40.2045V40.1449C502.129 39.4006 501.919 38.8239 501.499 38.4148C501.084 38.0057 500.464 37.8011 499.641 37.8011C498.783 37.8011 498.107 37.9915 497.612 38.3722C497.124 38.7472 496.786 39.1648 496.598 39.625L494.203 39.0795C494.487 38.2841 494.902 37.642 495.447 37.1534C495.999 36.6591 496.632 36.3011 497.348 36.0795C498.064 35.8523 498.817 35.7386 499.607 35.7386C500.129 35.7386 500.683 35.8011 501.268 35.9261C501.859 36.0455 502.411 36.267 502.922 36.5909C503.439 36.9148 503.862 37.3778 504.192 37.9801C504.521 38.5767 504.686 39.3523 504.686 40.3068V49H502.197V47.2102H502.095C501.93 47.5398 501.683 47.8636 501.354 48.1818C501.024 48.5 500.601 48.7642 500.084 48.9744C499.567 49.1847 498.947 49.2898 498.226 49.2898ZM498.78 47.2443C499.484 47.2443 500.087 47.1051 500.587 46.8267C501.092 46.5483 501.476 46.1847 501.737 45.7358C502.004 45.2812 502.138 44.7955 502.138 44.2784V42.5909C502.047 42.6818 501.871 42.767 501.609 42.8466C501.354 42.9205 501.061 42.9858 500.732 43.0426C500.402 43.0937 500.081 43.142 499.768 43.1875C499.456 43.2273 499.195 43.2614 498.984 43.2898C498.49 43.3523 498.038 43.4574 497.629 43.6051C497.226 43.7528 496.902 43.9659 496.658 44.2443C496.419 44.517 496.3 44.8807 496.3 45.3352C496.3 45.9659 496.533 46.4432 496.999 46.767C497.464 47.0852 498.058 47.2443 498.78 47.2443ZM495.328 34.3409L498.788 31.3835H500.689L504.158 34.3409H501.652L499.76 32.6534L497.851 34.3409H495.328ZM503.246 32.4489L505.027 29.3381H507.626L505.112 32.4489H503.246ZM508.08 49V35.9091H510.526V38.0398H510.688C510.961 37.3182 511.407 36.7557 512.026 36.3523C512.646 35.9432 513.387 35.7386 514.251 35.7386C515.126 35.7386 515.859 35.9432 516.45 36.3523C517.046 36.7614 517.487 37.3239 517.771 38.0398H517.907C518.219 37.3409 518.717 36.7841 519.398 36.3693C520.08 35.9489 520.893 35.7386 521.836 35.7386C523.023 35.7386 523.992 36.1108 524.742 36.8551C525.498 37.5994 525.876 38.7216 525.876 40.2216V49H523.327V40.4602C523.327 39.5739 523.086 38.9318 522.603 38.5341C522.12 38.1364 521.543 37.9375 520.873 37.9375C520.043 37.9375 519.398 38.1932 518.938 38.7045C518.478 39.2102 518.248 39.8608 518.248 40.6562V49H515.708V40.2983C515.708 39.5881 515.487 39.017 515.043 38.5852C514.6 38.1534 514.023 37.9375 513.313 37.9375C512.83 37.9375 512.384 38.0653 511.975 38.321C511.572 38.571 511.245 38.9205 510.995 39.3693C510.751 39.8182 510.629 40.3381 510.629 40.929V49H508.08Z" fill="white"/>
<g clip-path="url(#clip4_16592_15927)">
<path d="M553.198 33.6983C553.082 33.582 552.944 33.4898 552.792 33.427C552.641 33.3641 552.478 33.3319 552.314 33.332L551.681 33.332C551.336 33.3358 551.025 33.4745 550.798 33.6983L542.248 42.2645C542.169 42.3419 542.107 42.434 542.064 42.5356C542.022 42.6372 542 42.7463 542 42.8564C542 42.9665 542.022 43.0756 542.064 43.1772C542.107 43.2788 542.169 43.3709 542.248 43.4483L543.431 44.632C543.507 44.7099 543.598 44.7719 543.698 44.8141C543.798 44.8564 543.906 44.8782 544.014 44.8782C544.123 44.8782 544.231 44.8564 544.331 44.8141C544.431 44.7719 544.522 44.7099 544.598 44.632L551.998 37.2145L559.398 44.632C559.475 44.7105 559.567 44.7727 559.669 44.8152C559.77 44.8577 559.879 44.8796 559.989 44.8796C560.1 44.8796 560.209 44.8577 560.31 44.8152C560.412 44.7727 560.504 44.7105 560.581 44.632L561.748 43.4483C561.826 43.3709 561.888 43.2788 561.931 43.1772C561.973 43.0756 561.995 42.9665 561.995 42.8564C561.995 42.7463 561.973 42.6372 561.931 42.5356C561.888 42.434 561.826 42.3419 561.748 42.2645L553.198 33.6983Z" fill="white"/>
</g>
<path opacity="0.8" d="M580.261 41.2273V49H577.713V31.5455H580.227V38.0398H580.389C580.696 37.3352 581.165 36.7756 581.795 36.3608C582.426 35.946 583.25 35.7386 584.267 35.7386C585.165 35.7386 585.949 35.9233 586.619 36.2926C587.295 36.6619 587.818 37.2131 588.188 37.946C588.562 38.6733 588.75 39.5824 588.75 40.6733V49H586.202V40.9801C586.202 40.0199 585.955 39.2756 585.46 38.7472C584.966 38.2131 584.278 37.946 583.398 37.946C582.795 37.946 582.256 38.0739 581.778 38.3295C581.307 38.5852 580.935 38.9602 580.662 39.4545C580.395 39.9432 580.261 40.5341 580.261 41.2273ZM597.665 49.2642C596.438 49.2642 595.366 48.983 594.452 48.4205C593.537 47.858 592.827 47.071 592.321 46.0597C591.815 45.0483 591.562 43.8665 591.562 42.5142C591.562 41.1562 591.815 39.9687 592.321 38.9517C592.827 37.9347 593.537 37.1449 594.452 36.5824C595.366 36.0199 596.438 35.7386 597.665 35.7386C598.892 35.7386 599.963 36.0199 600.878 36.5824C601.793 37.1449 602.503 37.9347 603.009 38.9517C603.514 39.9687 603.767 41.1562 603.767 42.5142C603.767 43.8665 603.514 45.0483 603.009 46.0597C602.503 47.071 601.793 47.858 600.878 48.4205C599.963 48.983 598.892 49.2642 597.665 49.2642ZM597.673 47.125C598.469 47.125 599.128 46.9148 599.651 46.4943C600.173 46.0739 600.56 45.5142 600.81 44.8153C601.065 44.1165 601.193 43.3466 601.193 42.5057C601.193 41.6705 601.065 40.9034 600.81 40.2045C600.56 39.5 600.173 38.9347 599.651 38.5085C599.128 38.0824 598.469 37.8693 597.673 37.8693C596.872 37.8693 596.207 38.0824 595.679 38.5085C595.156 38.9347 594.767 39.5 594.511 40.2045C594.261 40.9034 594.136 41.6705 594.136 42.5057C594.136 43.3466 594.261 44.1165 594.511 44.8153C594.767 45.5142 595.156 46.0739 595.679 46.4943C596.207 46.9148 596.872 47.125 597.673 47.125ZM610.421 49.2898C609.592 49.2898 608.842 49.1364 608.171 48.8295C607.501 48.517 606.969 48.0653 606.577 47.4744C606.191 46.8835 605.998 46.1591 605.998 45.3011C605.998 44.5625 606.14 43.9545 606.424 43.4773C606.708 43 607.092 42.6222 607.575 42.3438C608.058 42.0653 608.597 41.8551 609.194 41.7131C609.79 41.571 610.398 41.4631 611.018 41.3892C611.802 41.2983 612.438 41.2244 612.927 41.1676C613.415 41.1051 613.771 41.0057 613.992 40.8693C614.214 40.733 614.325 40.5114 614.325 40.2045V40.1449C614.325 39.4006 614.114 38.8239 613.694 38.4148C613.279 38.0057 612.66 37.8011 611.836 37.8011C610.978 37.8011 610.302 37.9915 609.808 38.3722C609.319 38.7472 608.981 39.1648 608.793 39.625L606.398 39.0795C606.683 38.2841 607.097 37.642 607.643 37.1534C608.194 36.6591 608.827 36.3011 609.543 36.0795C610.259 35.8523 611.012 35.7386 611.802 35.7386C612.325 35.7386 612.879 35.8011 613.464 35.9261C614.055 36.0455 614.606 36.267 615.117 36.5909C615.634 36.9148 616.058 37.3778 616.387 37.9801C616.717 38.5767 616.881 39.3523 616.881 40.3068V49H614.393V47.2102H614.29C614.126 47.5398 613.879 47.8636 613.549 48.1818C613.219 48.5 612.796 48.7642 612.279 48.9744C611.762 49.1847 611.143 49.2898 610.421 49.2898ZM610.975 47.2443C611.68 47.2443 612.282 47.1051 612.782 46.8267C613.288 46.5483 613.671 46.1847 613.933 45.7358C614.2 45.2812 614.333 44.7955 614.333 44.2784V42.5909C614.242 42.6818 614.066 42.767 613.805 42.8466C613.549 42.9205 613.256 42.9858 612.927 43.0426C612.597 43.0937 612.276 43.142 611.964 43.1875C611.651 43.2273 611.39 43.2614 611.18 43.2898C610.685 43.3523 610.234 43.4574 609.825 43.6051C609.421 43.7528 609.097 43.9659 608.853 44.2443C608.614 44.517 608.495 44.8807 608.495 45.3352C608.495 45.9659 608.728 46.4432 609.194 46.767C609.66 47.0852 610.254 47.2443 610.975 47.2443ZM613.609 31.4773H615.705C615.705 32.4375 615.364 33.2188 614.683 33.821C614.006 34.4176 613.092 34.7159 611.938 34.7159C610.79 34.7159 609.879 34.4176 609.202 33.821C608.526 33.2188 608.188 32.4375 608.188 31.4773H610.276C610.276 31.9034 610.401 32.2812 610.651 32.6108C610.901 32.9347 611.33 33.0966 611.938 33.0966C612.535 33.0966 612.961 32.9347 613.217 32.6108C613.478 32.2869 613.609 31.9091 613.609 31.4773ZM611.819 53.517C611.381 53.517 611.004 53.3693 610.685 53.0739C610.367 52.7784 610.208 52.4205 610.208 52C610.208 51.5795 610.367 51.2216 610.685 50.9261C611.004 50.6307 611.381 50.483 611.819 50.483C612.262 50.483 612.64 50.6307 612.952 50.9261C613.271 51.2216 613.43 51.5795 613.43 52C613.43 52.4205 613.271 52.7784 612.952 53.0739C612.64 53.3693 612.262 53.517 611.819 53.517ZM625.79 49.2642C624.523 49.2642 623.432 48.9773 622.517 48.4034C621.608 47.8239 620.909 47.0256 620.42 46.0085C619.932 44.9915 619.688 43.8267 619.688 42.5142C619.688 41.1847 619.938 40.0114 620.438 38.9943C620.938 37.9716 621.642 37.1733 622.551 36.5994C623.46 36.0256 624.531 35.7386 625.764 35.7386C626.759 35.7386 627.645 35.9233 628.423 36.2926C629.202 36.6562 629.83 37.1676 630.307 37.8267C630.79 38.4858 631.077 39.2557 631.168 40.1364H628.688C628.551 39.5227 628.239 38.9943 627.75 38.5511C627.267 38.108 626.619 37.8864 625.807 37.8864C625.097 37.8864 624.474 38.0739 623.94 38.4489C623.412 38.8182 623 39.3466 622.705 40.0341C622.409 40.7159 622.261 41.5227 622.261 42.4545C622.261 43.4091 622.406 44.233 622.696 44.9261C622.986 45.6193 623.395 46.1562 623.923 46.5369C624.457 46.9176 625.085 47.108 625.807 47.108C626.29 47.108 626.727 47.0199 627.119 46.8438C627.517 46.6619 627.849 46.4034 628.116 46.0682C628.389 45.733 628.58 45.3295 628.688 44.858H631.168C631.077 45.7045 630.801 46.4602 630.341 47.125C629.881 47.7898 629.264 48.3125 628.491 48.6932C627.724 49.0739 626.824 49.2642 625.79 49.2642Z" fill="white"/>
<g clip-path="url(#clip5_16592_15927)">
<path d="M657.802 46.3017C657.918 46.418 658.056 46.5102 658.208 46.573C658.359 46.6359 658.522 46.6681 658.686 46.668L659.319 46.668C659.664 46.6642 659.975 46.5255 660.202 46.3017L668.752 37.7355C668.831 37.6581 668.893 37.566 668.936 37.4644C668.978 37.3628 669 37.2537 669 37.1436C669 37.0335 668.978 36.9244 668.936 36.8228C668.893 36.7212 668.831 36.6291 668.752 36.5517L667.569 35.368C667.493 35.2901 667.402 35.2281 667.302 35.1859C667.202 35.1436 667.094 35.1218 666.986 35.1218C666.877 35.1218 666.769 35.1436 666.669 35.1859C666.569 35.2281 666.478 35.2901 666.402 35.368L659.002 42.7855L651.602 35.368C651.525 35.2895 651.433 35.2273 651.331 35.1848C651.23 35.1423 651.121 35.1204 651.011 35.1204C650.9 35.1204 650.791 35.1423 650.69 35.1848C650.588 35.2273 650.496 35.2895 650.419 35.368L649.252 36.5517C649.174 36.6291 649.112 36.7212 649.069 36.8228C649.027 36.9244 649.005 37.0335 649.005 37.1436C649.005 37.2537 649.027 37.3628 649.069 37.4644C649.112 37.566 649.174 37.6581 649.252 37.7355L657.802 46.3017Z" fill="white"/>
</g>
<path opacity="0.8" d="M689.614 49.2557C688.557 49.2557 687.614 48.9858 686.784 48.446C685.96 47.9006 685.313 47.125 684.841 46.1193C684.375 45.108 684.142 43.8949 684.142 42.4801C684.142 41.0653 684.378 39.8551 684.849 38.8494C685.327 37.8437 685.98 37.0739 686.81 36.5398C687.639 36.0057 688.58 35.7386 689.631 35.7386C690.443 35.7386 691.097 35.875 691.591 36.1477C692.091 36.4148 692.477 36.7273 692.75 37.0852C693.028 37.4432 693.244 37.7585 693.398 38.0312H693.551V31.5455H696.099V49H693.611V46.9631H693.398C693.244 47.2415 693.023 47.5597 692.733 47.9176C692.449 48.2756 692.057 48.5881 691.557 48.8551C691.057 49.1222 690.409 49.2557 689.614 49.2557ZM690.176 47.0824C690.909 47.0824 691.528 46.8892 692.034 46.5028C692.545 46.1108 692.932 45.5682 693.193 44.875C693.46 44.1818 693.594 43.375 693.594 42.4545C693.594 41.5455 693.463 40.75 693.202 40.0682C692.94 39.3864 692.557 38.8551 692.051 38.4744C691.545 38.0937 690.92 37.9034 690.176 37.9034C689.409 37.9034 688.77 38.1023 688.259 38.5C687.747 38.8977 687.361 39.4403 687.099 40.1278C686.844 40.8153 686.716 41.5909 686.716 42.4545C686.716 43.3295 686.847 44.1165 687.108 44.8153C687.369 45.5142 687.756 46.0682 688.267 46.4773C688.784 46.8807 689.42 47.0824 690.176 47.0824ZM690.014 34.8608V33.0966H697.847V34.8608H690.014ZM705.379 49.2642C704.089 49.2642 702.978 48.9886 702.046 48.4375C701.12 47.8807 700.404 47.0994 699.898 46.0938C699.398 45.0824 699.148 43.8977 699.148 42.5398C699.148 41.1989 699.398 40.017 699.898 38.9943C700.404 37.9716 701.109 37.1733 702.012 36.5994C702.921 36.0256 703.984 35.7386 705.2 35.7386C705.938 35.7386 706.654 35.8608 707.347 36.1051C708.04 36.3494 708.663 36.733 709.214 37.2557C709.765 37.7784 710.2 38.4574 710.518 39.2926C710.836 40.1222 710.995 41.1307 710.995 42.3182V43.2216H700.589V41.3125H708.498C708.498 40.642 708.362 40.0483 708.089 39.5312C707.816 39.0085 707.433 38.5966 706.938 38.2955C706.45 37.9943 705.876 37.8438 705.217 37.8438C704.501 37.8438 703.876 38.0199 703.342 38.3722C702.813 38.7187 702.404 39.1733 702.114 39.7358C701.83 40.2926 701.688 40.8977 701.688 41.5511V43.0426C701.688 43.9176 701.842 44.6619 702.148 45.2756C702.461 45.8892 702.896 46.358 703.452 46.6818C704.009 47 704.66 47.1591 705.404 47.1591C705.887 47.1591 706.327 47.0909 706.725 46.9545C707.123 46.8125 707.467 46.6023 707.756 46.3239C708.046 46.0455 708.268 45.7017 708.421 45.2926L710.833 45.7273C710.64 46.4375 710.293 47.0597 709.793 47.5938C709.299 48.1222 708.677 48.5341 707.927 48.8295C707.183 49.1193 706.333 49.2642 705.379 49.2642ZM706.214 31.5795L709.495 34.5369H707.254L705.072 32.6023L702.915 34.5369H700.674L703.947 31.5795H706.214ZM709.981 32.9432H708.396L708.344 31.4773C708.822 31.4432 709.174 31.3778 709.401 31.2812C709.629 31.1847 709.742 31.0199 709.742 30.7869C709.742 30.5142 709.594 30.3267 709.299 30.2244C709.004 30.1165 708.631 30.0625 708.183 30.0625L708.259 28.8523C709.327 28.8523 710.137 29.0256 710.688 29.3722C711.239 29.7131 711.515 30.179 711.515 30.7699C711.515 31.2528 711.356 31.6108 711.038 31.8438C710.719 32.071 710.367 32.2102 709.981 32.2614V32.9432Z" fill="white"/>
<path opacity="0.8" d="M726.227 49.2642C724.96 49.2642 723.869 48.9773 722.955 48.4034C722.045 47.8239 721.347 47.0256 720.858 46.0085C720.369 44.9915 720.125 43.8267 720.125 42.5142C720.125 41.1847 720.375 40.0114 720.875 38.9943C721.375 37.9716 722.08 37.1733 722.989 36.5994C723.898 36.0256 724.969 35.7386 726.202 35.7386C727.196 35.7386 728.082 35.9233 728.861 36.2926C729.639 36.6562 730.267 37.1676 730.744 37.8267C731.227 38.4858 731.514 39.2557 731.605 40.1364H729.125C728.989 39.5227 728.676 38.9943 728.188 38.5511C727.705 38.108 727.057 37.8864 726.244 37.8864C725.534 37.8864 724.912 38.0739 724.378 38.4489C723.849 38.8182 723.438 39.3466 723.142 40.0341C722.847 40.7159 722.699 41.5227 722.699 42.4545C722.699 43.4091 722.844 44.233 723.134 44.9261C723.423 45.6193 723.832 46.1562 724.361 46.5369C724.895 46.9176 725.523 47.108 726.244 47.108C726.727 47.108 727.165 47.0199 727.557 46.8438C727.955 46.6619 728.287 46.4034 728.554 46.0682C728.827 45.733 729.017 45.3295 729.125 44.858H731.605C731.514 45.7045 731.239 46.4602 730.778 47.125C730.318 47.7898 729.702 48.3125 728.929 48.6932C728.162 49.0739 727.261 49.2642 726.227 49.2642ZM736.879 41.2273V49H734.33V31.5455H736.844V38.0398H737.006C737.313 37.3352 737.782 36.7756 738.413 36.3608C739.043 35.946 739.867 35.7386 740.884 35.7386C741.782 35.7386 742.566 35.9233 743.237 36.2926C743.913 36.6619 744.435 37.2131 744.805 37.946C745.18 38.6733 745.367 39.5824 745.367 40.6733V49H742.819V40.9801C742.819 40.0199 742.572 39.2756 742.077 38.7472C741.583 38.2131 740.896 37.946 740.015 37.946C739.413 37.946 738.873 38.0739 738.396 38.3295C737.924 38.5852 737.552 38.9602 737.279 39.4545C737.012 39.9432 736.879 40.5341 736.879 41.2273ZM757.06 43.571V35.9091H759.617V49H757.112V46.733H756.975C756.674 47.4318 756.191 48.0142 755.526 48.4801C754.867 48.9403 754.046 49.1705 753.063 49.1705C752.222 49.1705 751.478 48.9858 750.83 48.6165C750.188 48.2415 749.683 47.6875 749.313 46.9545C748.95 46.2216 748.768 45.3153 748.768 44.2358V35.9091H751.316V43.929C751.316 44.821 751.563 45.5312 752.058 46.0597C752.552 46.5881 753.194 46.8523 753.984 46.8523C754.461 46.8523 754.935 46.733 755.407 46.4943C755.884 46.2557 756.279 45.8949 756.592 45.4119C756.91 44.929 757.066 44.3153 757.06 43.571ZM764.652 53.9091C764.271 53.9091 763.925 53.8778 763.612 53.8153C763.3 53.7585 763.067 53.696 762.913 53.6278L763.527 51.5398C763.993 51.6648 764.408 51.7188 764.771 51.7017C765.135 51.6847 765.456 51.5483 765.734 51.2926C766.018 51.0369 766.268 50.6193 766.484 50.0398L766.8 49.1705L762.01 35.9091H764.737L768.053 46.0682H768.189L771.504 35.9091H774.24L768.845 50.7472C768.595 51.429 768.277 52.0057 767.891 52.4773C767.504 52.9545 767.044 53.3125 766.51 53.5511C765.976 53.7898 765.357 53.9091 764.652 53.9091ZM781.832 49.2642C780.542 49.2642 779.431 48.9886 778.499 48.4375C777.573 47.8807 776.857 47.0994 776.352 46.0938C775.852 45.0824 775.602 43.8977 775.602 42.5398C775.602 41.1989 775.852 40.017 776.352 38.9943C776.857 37.9716 777.562 37.1733 778.465 36.5994C779.374 36.0256 780.437 35.7386 781.653 35.7386C782.391 35.7386 783.107 35.8608 783.8 36.1051C784.494 36.3494 785.116 36.733 785.667 37.2557C786.218 37.7784 786.653 38.4574 786.971 39.2926C787.289 40.1222 787.448 41.1307 787.448 42.3182V43.2216H777.042V41.3125H784.951C784.951 40.642 784.815 40.0483 784.542 39.5312C784.269 39.0085 783.886 38.5966 783.391 38.2955C782.903 37.9943 782.329 37.8438 781.67 37.8438C780.954 37.8438 780.329 38.0199 779.795 38.3722C779.266 38.7187 778.857 39.1733 778.567 39.7358C778.283 40.2926 778.141 40.8977 778.141 41.5511V43.0426C778.141 43.9176 778.295 44.6619 778.602 45.2756C778.914 45.8892 779.349 46.358 779.906 46.6818C780.462 47 781.113 47.1591 781.857 47.1591C782.34 47.1591 782.781 47.0909 783.178 46.9545C783.576 46.8125 783.92 46.6023 784.21 46.3239C784.499 46.0455 784.721 45.7017 784.874 45.2926L787.286 45.7273C787.093 46.4375 786.746 47.0597 786.246 47.5938C785.752 48.1222 785.13 48.5341 784.38 48.8295C783.636 49.1193 782.786 49.2642 781.832 49.2642ZM782.667 31.5795L785.948 34.5369H783.707L781.525 32.6023L779.369 34.5369H777.127L780.4 31.5795H782.667ZM786.434 32.9432H784.849L784.798 31.4773C785.275 31.4432 785.627 31.3778 785.854 31.2812C786.082 31.1847 786.195 31.0199 786.195 30.7869C786.195 30.5142 786.048 30.3267 785.752 30.2244C785.457 30.1165 785.085 30.0625 784.636 30.0625L784.712 28.8523C785.781 28.8523 786.59 29.0256 787.141 29.3722C787.692 29.7131 787.968 30.179 787.968 30.7699C787.968 31.2528 787.809 31.6108 787.491 31.8438C787.173 32.071 786.82 32.2102 786.434 32.2614V32.9432ZM792.824 41.2273V49H790.276V35.9091H792.722V38.0398H792.884C793.185 37.3466 793.656 36.7898 794.298 36.3693C794.946 35.9489 795.761 35.7386 796.744 35.7386C797.636 35.7386 798.418 35.9261 799.088 36.3011C799.759 36.6705 800.278 37.2216 800.648 37.9545C801.017 38.6875 801.202 39.5937 801.202 40.6733V49H798.653V40.9801C798.653 40.0312 798.406 39.2898 797.912 38.7557C797.418 38.2159 796.739 37.946 795.875 37.946C795.284 37.946 794.759 38.0739 794.298 38.3295C793.844 38.5852 793.483 38.9602 793.216 39.4545C792.955 39.9432 792.824 40.5341 792.824 41.2273ZM813.315 44.5597L813.298 41.4489H813.741L818.957 35.9091H822.008L816.059 42.2159H815.658L813.315 44.5597ZM810.971 49V31.5455H813.519V49H810.971ZM819.238 49L814.55 42.7784L816.306 40.9972L822.366 49H819.238ZM829.433 49.2642C828.143 49.2642 827.033 48.9886 826.101 48.4375C825.175 47.8807 824.459 47.0994 823.953 46.0938C823.453 45.0824 823.203 43.8977 823.203 42.5398C823.203 41.1989 823.453 40.017 823.953 38.9943C824.459 37.9716 825.163 37.1733 826.067 36.5994C826.976 36.0256 828.038 35.7386 829.254 35.7386C829.993 35.7386 830.709 35.8608 831.402 36.1051C832.095 36.3494 832.717 36.733 833.268 37.2557C833.82 37.7784 834.254 38.4574 834.572 39.2926C834.891 40.1222 835.05 41.1307 835.05 42.3182V43.2216H824.643V41.3125H832.553C832.553 40.642 832.416 40.0483 832.143 39.5312C831.871 39.0085 831.487 38.5966 830.993 38.2955C830.504 37.9943 829.93 37.8438 829.271 37.8438C828.555 37.8438 827.93 38.0199 827.396 38.3722C826.868 38.7187 826.459 39.1733 826.169 39.7358C825.885 40.2926 825.743 40.8977 825.743 41.5511V43.0426C825.743 43.9176 825.896 44.6619 826.203 45.2756C826.516 45.8892 826.95 46.358 827.507 46.6818C828.064 47 828.714 47.1591 829.459 47.1591C829.942 47.1591 830.382 47.0909 830.78 46.9545C831.178 46.8125 831.521 46.6023 831.811 46.3239C832.101 46.0455 832.322 45.7017 832.476 45.2926L834.888 45.7273C834.695 46.4375 834.348 47.0597 833.848 47.5938C833.354 48.1222 832.732 48.5341 831.982 48.8295C831.237 49.1193 830.388 49.2642 829.433 49.2642ZM830.908 34.3409L829.161 32.0568L827.405 34.3409H825.104V34.2131L828.095 30.5994H830.217L833.217 34.2131V34.3409H830.908ZM840.425 41.2273V49H837.877V35.9091H840.323V38.0398H840.485C840.786 37.3466 841.258 36.7898 841.9 36.3693C842.548 35.9489 843.363 35.7386 844.346 35.7386C845.238 35.7386 846.019 35.9261 846.69 36.3011C847.36 36.6705 847.88 37.2216 848.249 37.9545C848.619 38.6875 848.803 39.5937 848.803 40.6733V49H846.255V40.9801C846.255 40.0312 846.008 39.2898 845.513 38.7557C845.019 38.2159 844.34 37.946 843.477 37.946C842.886 37.946 842.36 38.0739 841.9 38.3295C841.445 38.5852 841.085 38.9602 840.817 39.4545C840.556 39.9432 840.425 40.5341 840.425 41.2273ZM854.769 41.2273V49H852.221V31.5455H854.735V38.0398H854.897C855.204 37.3352 855.673 36.7756 856.303 36.3608C856.934 35.946 857.758 35.7386 858.775 35.7386C859.673 35.7386 860.457 35.9233 861.127 36.2926C861.803 36.6619 862.326 37.2131 862.695 37.946C863.07 38.6733 863.258 39.5824 863.258 40.6733V49H860.71V40.9801C860.71 40.0199 860.462 39.2756 859.968 38.7472C859.474 38.2131 858.786 37.946 857.906 37.946C857.303 37.946 856.763 38.0739 856.286 38.3295C855.815 38.5852 855.442 38.9602 855.17 39.4545C854.903 39.9432 854.769 40.5341 854.769 41.2273ZM875.558 41.2273V49H873.01V35.9091H875.456V38.0398H875.618C875.919 37.3466 876.391 36.7898 877.033 36.3693C877.68 35.9489 878.496 35.7386 879.479 35.7386C880.371 35.7386 881.152 35.9261 881.822 36.3011C882.493 36.6705 883.013 37.2216 883.382 37.9545C883.751 38.6875 883.936 39.5937 883.936 40.6733V49H881.388V40.9801C881.388 40.0312 881.141 39.2898 880.646 38.7557C880.152 38.2159 879.473 37.946 878.609 37.946C878.018 37.946 877.493 38.0739 877.033 38.3295C876.578 38.5852 876.217 38.9602 875.95 39.4545C875.689 39.9432 875.558 40.5341 875.558 41.2273ZM889.902 41.2273V49H887.354V31.5455H889.868V38.0398H890.03C890.337 37.3352 890.805 36.7756 891.436 36.3608C892.067 35.946 892.891 35.7386 893.908 35.7386C894.805 35.7386 895.589 35.9233 896.26 36.2926C896.936 36.6619 897.459 37.2131 897.828 37.946C898.203 38.6733 898.391 39.5824 898.391 40.6733V49H895.842V40.9801C895.842 40.0199 895.595 39.2756 895.101 38.7472C894.607 38.2131 893.919 37.946 893.038 37.946C892.436 37.946 891.896 38.0739 891.419 38.3295C890.947 38.5852 890.575 38.9602 890.303 39.4545C890.036 39.9432 889.902 40.5341 889.902 41.2273ZM905.601 49.2898C904.771 49.2898 904.021 49.1364 903.351 48.8295C902.68 48.517 902.149 48.0653 901.757 47.4744C901.371 46.8835 901.178 46.1591 901.178 45.3011C901.178 44.5625 901.32 43.9545 901.604 43.4773C901.888 43 902.271 42.6222 902.754 42.3438C903.237 42.0653 903.777 41.8551 904.374 41.7131C904.97 41.571 905.578 41.4631 906.197 41.3892C906.982 41.2983 907.618 41.2244 908.107 41.1676C908.595 41.1051 908.95 41.0057 909.172 40.8693C909.393 40.733 909.504 40.5114 909.504 40.2045V40.1449C909.504 39.4006 909.294 38.8239 908.874 38.4148C908.459 38.0057 907.839 37.8011 907.016 37.8011C906.158 37.8011 905.482 37.9915 904.987 38.3722C904.499 38.7472 904.161 39.1648 903.973 39.625L901.578 39.0795C901.862 38.2841 902.277 37.642 902.822 37.1534C903.374 36.6591 904.007 36.3011 904.723 36.0795C905.439 35.8523 906.192 35.7386 906.982 35.7386C907.504 35.7386 908.058 35.8011 908.643 35.9261C909.234 36.0455 909.786 36.267 910.297 36.5909C910.814 36.9148 911.237 37.3778 911.567 37.9801C911.896 38.5767 912.061 39.3523 912.061 40.3068V49H909.572V47.2102H909.47C909.305 47.5398 909.058 47.8636 908.729 48.1818C908.399 48.5 907.976 48.7642 907.459 48.9744C906.942 49.1847 906.322 49.2898 905.601 49.2898ZM906.155 47.2443C906.859 47.2443 907.462 47.1051 907.962 46.8267C908.467 46.5483 908.851 46.1847 909.112 45.7358C909.379 45.2812 909.513 44.7955 909.513 44.2784V42.5909C909.422 42.6818 909.246 42.767 908.984 42.8466C908.729 42.9205 908.436 42.9858 908.107 43.0426C907.777 43.0937 907.456 43.142 907.143 43.1875C906.831 43.2273 906.57 43.2614 906.359 43.2898C905.865 43.3523 905.413 43.4574 905.004 43.6051C904.601 43.7528 904.277 43.9659 904.033 44.2443C903.794 44.517 903.675 44.8807 903.675 45.3352C903.675 45.9659 903.908 46.4432 904.374 46.767C904.839 47.0852 905.433 47.2443 906.155 47.2443ZM918.004 41.2273V49H915.455V35.9091H917.901V38.0398H918.063C918.364 37.3466 918.836 36.7898 919.478 36.3693C920.126 35.9489 920.941 35.7386 921.924 35.7386C922.816 35.7386 923.597 35.9261 924.268 36.3011C924.938 36.6705 925.458 37.2216 925.827 37.9545C926.197 38.6875 926.381 39.5937 926.381 40.6733V49H923.833V40.9801C923.833 40.0312 923.586 39.2898 923.092 38.7557C922.597 38.2159 921.918 37.946 921.055 37.946C920.464 37.946 919.938 38.0739 919.478 38.3295C919.023 38.5852 918.663 38.9602 918.396 39.4545C918.134 39.9432 918.004 40.5341 918.004 41.2273ZM932.347 41.2273V49H929.799V31.5455H932.313V38.0398H932.475C932.782 37.3352 933.251 36.7756 933.881 36.3608C934.512 35.946 935.336 35.7386 936.353 35.7386C937.251 35.7386 938.035 35.9233 938.705 36.2926C939.381 36.6619 939.904 37.2131 940.273 37.946C940.648 38.6733 940.836 39.5824 940.836 40.6733V49H938.288V40.9801C938.288 40.0199 938.04 39.2756 937.546 38.7472C937.052 38.2131 936.364 37.946 935.484 37.946C934.881 37.946 934.342 38.0739 933.864 38.3295C933.393 38.5852 933.021 38.9602 932.748 39.4545C932.481 39.9432 932.347 40.5341 932.347 41.2273Z" fill="white"/>
<path d="M410 342L555 342" stroke="white" stroke-width="2"/>
<path d="M770 391L874 485" stroke="white" stroke-width="2"/>
<path d="M949 485L874 485" stroke="white" stroke-width="2"/>
<path d="M710 79V190" stroke="white" stroke-width="2"/>
<defs>
<clipPath id="clip0_16592_15927">
<rect width="80" height="80" fill="white" transform="translate(794 301)"/>
</clipPath>
<clipPath id="clip1_16592_15927">
<rect width="80" height="80" fill="white" transform="translate(626 381) rotate(-180)"/>
</clipPath>
<clipPath id="clip2_16592_15927">
<rect width="80" height="80" fill="white" transform="translate(670 257) rotate(-90)"/>
</clipPath>
<clipPath id="clip3_16592_15927">
<rect width="80" height="80" fill="white" transform="translate(750 425) rotate(90)"/>
</clipPath>
<clipPath id="clip4_16592_15927">
<rect width="40" height="40" fill="white" transform="translate(532 60) rotate(-90)"/>
</clipPath>
<clipPath id="clip5_16592_15927">
<rect width="40" height="40" fill="white" transform="translate(679 20) rotate(90)"/>
</clipPath>
</defs>
</svg>
