<svg viewBox="0 0 1103 522" fill="none" xmlns="http://www.w3.org/2000/svg">
<circle opacity="0.8" cx="531" cy="342" r="180" fill="#232323"/>
<g clip-path="url(#clip0_7_181)">
<path d="M667.601 344.395C667.833 344.163 668.018 343.888 668.143 343.585C668.269 343.281 668.334 342.956 668.333 342.628V341.363C668.326 340.673 668.048 340.05 667.601 339.595L650.468 322.495C650.314 322.338 650.129 322.214 649.926 322.129C649.723 322.044 649.505 322 649.284 322C649.064 322 648.846 322.044 648.643 322.129C648.44 322.214 648.255 322.338 648.101 322.495L645.733 324.863C645.577 325.014 645.454 325.196 645.369 325.396C645.284 325.596 645.241 325.812 645.241 326.029C645.241 326.246 645.284 326.462 645.369 326.662C645.454 326.862 645.577 327.044 645.733 327.195L660.568 341.995L645.733 356.795C645.576 356.95 645.452 357.134 645.367 357.337C645.282 357.541 645.238 357.759 645.238 357.979C645.238 358.199 645.282 358.417 645.367 358.62C645.452 358.824 645.576 359.008 645.733 359.163L648.101 361.495C648.255 361.652 648.44 361.777 648.643 361.862C648.846 361.947 649.064 361.99 649.284 361.99C649.505 361.99 649.723 361.947 649.926 361.862C650.129 361.777 650.314 361.652 650.468 361.495L667.601 344.395Z" fill="white"/>
</g>
<g clip-path="url(#clip1_7_181)">
<path d="M394.399 339.605C394.167 339.837 393.982 340.112 393.857 340.415C393.731 340.719 393.666 341.044 393.667 341.372L393.667 342.637C393.674 343.327 393.952 343.95 394.399 344.405L411.532 361.505C411.686 361.662 411.871 361.786 412.074 361.871C412.277 361.956 412.495 362 412.716 362C412.936 362 413.154 361.956 413.357 361.871C413.56 361.786 413.745 361.662 413.899 361.505L416.267 359.137C416.423 358.986 416.546 358.804 416.631 358.604C416.716 358.404 416.759 358.189 416.759 357.971C416.759 357.754 416.716 357.538 416.631 357.338C416.546 357.138 416.423 356.956 416.267 356.805L401.432 342.005L416.267 327.205C416.424 327.05 416.548 326.866 416.633 326.663C416.718 326.459 416.762 326.241 416.762 326.021C416.762 325.801 416.718 325.583 416.633 325.38C416.548 325.176 416.424 324.992 416.267 324.837L413.899 322.505C413.745 322.348 413.56 322.223 413.357 322.138C413.154 322.053 412.936 322.01 412.716 322.01C412.495 322.01 412.277 322.053 412.074 322.138C411.871 322.223 411.686 322.348 411.532 322.505L394.399 339.605Z" fill="white"/>
</g>
<g clip-path="url(#clip2_7_181)">
<path d="M533.395 205.399C533.163 205.167 532.888 204.982 532.585 204.857C532.281 204.731 531.956 204.666 531.628 204.667L530.363 204.667C529.673 204.674 529.05 204.952 528.595 205.399L511.495 222.532C511.338 222.686 511.214 222.871 511.129 223.074C511.044 223.277 511 223.495 511 223.716C511 223.936 511.044 224.154 511.129 224.357C511.214 224.56 511.338 224.745 511.495 224.899L513.863 227.267C514.014 227.423 514.196 227.546 514.396 227.631C514.596 227.716 514.812 227.759 515.029 227.759C515.246 227.759 515.462 227.716 515.662 227.631C515.862 227.546 516.044 227.423 516.195 227.267L530.995 212.432L545.795 227.267C545.95 227.424 546.134 227.548 546.337 227.633C546.541 227.718 546.759 227.762 546.979 227.762C547.199 227.762 547.417 227.718 547.62 227.633C547.824 227.548 548.008 227.424 548.163 227.267L550.495 224.899C550.652 224.745 550.777 224.56 550.862 224.357C550.947 224.154 550.99 223.936 550.99 223.716C550.99 223.495 550.947 223.277 550.862 223.074C550.777 222.871 550.652 222.686 550.495 222.532L533.395 205.399Z" fill="white"/>
</g>
<g clip-path="url(#clip3_7_181)">
<path d="M528.605 478.601C528.837 478.833 529.112 479.018 529.415 479.143C529.719 479.269 530.044 479.334 530.372 479.333L531.637 479.333C532.327 479.326 532.95 479.048 533.405 478.601L550.505 461.468C550.662 461.314 550.786 461.129 550.871 460.926C550.956 460.723 551 460.505 551 460.284C551 460.064 550.956 459.846 550.871 459.643C550.786 459.44 550.662 459.255 550.505 459.101L548.137 456.733C547.986 456.577 547.804 456.454 547.604 456.369C547.404 456.284 547.189 456.241 546.971 456.241C546.754 456.241 546.538 456.284 546.338 456.369C546.138 456.454 545.956 456.577 545.805 456.733L531.005 471.568L516.205 456.733C516.05 456.576 515.866 456.452 515.663 456.367C515.459 456.282 515.241 456.238 515.021 456.238C514.801 456.238 514.583 456.282 514.38 456.367C514.176 456.452 513.992 456.576 513.837 456.733L511.505 459.101C511.348 459.255 511.223 459.44 511.138 459.643C511.053 459.846 511.01 460.064 511.01 460.284C511.01 460.505 511.053 460.723 511.138 460.926C511.223 461.129 511.348 461.314 511.505 461.468L528.605 478.601Z" fill="white"/>
</g>
<circle cx="531" cy="342" r="60" fill="white"/>
<path d="M530.409 347.364C530.409 349.902 529.928 352.061 528.966 353.841C528.011 355.621 526.708 356.981 525.057 357.92C523.413 358.852 521.564 359.318 519.511 359.318C517.443 359.318 515.587 358.848 513.943 357.909C512.299 356.97 511 355.61 510.045 353.83C509.091 352.049 508.614 349.894 508.614 347.364C508.614 344.826 509.091 342.667 510.045 340.886C511 339.106 512.299 337.75 513.943 336.818C515.587 335.879 517.443 335.409 519.511 335.409C521.564 335.409 523.413 335.879 525.057 336.818C526.708 337.75 528.011 339.106 528.966 340.886C529.928 342.667 530.409 344.826 530.409 347.364ZM525.42 347.364C525.42 345.72 525.174 344.333 524.682 343.205C524.197 342.076 523.511 341.22 522.625 340.636C521.739 340.053 520.701 339.761 519.511 339.761C518.322 339.761 517.284 340.053 516.398 340.636C515.511 341.22 514.822 342.076 514.33 343.205C513.845 344.333 513.602 345.72 513.602 347.364C513.602 349.008 513.845 350.394 514.33 351.523C514.822 352.652 515.511 353.508 516.398 354.091C517.284 354.674 518.322 354.966 519.511 354.966C520.701 354.966 521.739 354.674 522.625 354.091C523.511 353.508 524.197 352.652 524.682 351.523C525.174 350.394 525.42 349.008 525.42 347.364ZM534.44 359V335.727H539.36V345.989H539.667L548.042 335.727H553.94L545.303 346.148L554.042 359H548.156L541.781 349.432L539.36 352.386V359H534.44Z" fill="#090909"/>
<mask id="path-8-inside-1_7_181" fill="white">
<path d="M591 4C591 1.79086 592.791 0 595 0H873C875.209 0 877 1.79086 877 4V116C877 118.209 875.209 120 873 120H595C592.791 120 591 118.209 591 116V4Z"/>
</mask>
<path d="M591 4C591 1.79086 592.791 0 595 0H873C875.209 0 877 1.79086 877 4V116C877 118.209 875.209 120 873 120H595C592.791 120 591 118.209 591 116V4Z" fill="#313131" fill-opacity="0.6"/>
<path d="M595 1H873V-1H595V1ZM876 4V116H878V4H876ZM873 119H595V121H873V119ZM592 116V4H590V116H592ZM595 119C593.343 119 592 117.657 592 116H590C590 118.761 592.239 121 595 121V119ZM876 116C876 117.657 874.657 119 873 119V121C875.761 121 878 118.761 878 116H876ZM873 1C874.657 1 876 2.34314 876 4H878C878 1.23858 875.761 -1 873 -1V1ZM595 -1C592.239 -1 590 1.23858 590 4H592C592 2.34315 593.343 1 595 1V-1Z" fill="white" mask="url(#path-8-inside-1_7_181)"/>
<path opacity="0.8" d="M620.114 49V31.5455H626.011C627.381 31.5455 628.5 31.7926 629.369 32.2869C630.244 32.7756 630.892 33.4375 631.312 34.2727C631.733 35.108 631.943 36.0398 631.943 37.0682C631.943 38.0966 631.733 39.0312 631.312 39.8722C630.898 40.7131 630.256 41.3835 629.386 41.8835C628.517 42.3778 627.403 42.625 626.045 42.625H621.818V40.75H625.977C626.915 40.75 627.668 40.5881 628.236 40.2642C628.804 39.9403 629.216 39.5028 629.472 38.9517C629.733 38.3949 629.864 37.767 629.864 37.0682C629.864 36.3693 629.733 35.7443 629.472 35.1932C629.216 34.642 628.801 34.2102 628.227 33.8977C627.653 33.5795 626.892 33.4205 625.943 33.4205H622.227V49H620.114ZM635.075 49V35.9091H637.018V37.8864H637.155C637.393 37.2386 637.825 36.7131 638.45 36.3097C639.075 35.9062 639.78 35.7045 640.564 35.7045C640.712 35.7045 640.896 35.7074 641.118 35.7131C641.339 35.7187 641.507 35.7273 641.621 35.7386V37.7841C641.553 37.767 641.396 37.7415 641.152 37.7074C640.913 37.6676 640.661 37.6477 640.393 37.6477C639.757 37.6477 639.189 37.7812 638.689 38.0483C638.195 38.3097 637.803 38.6733 637.513 39.1392C637.229 39.5994 637.087 40.125 637.087 40.7159V49H635.075ZM649.095 49.2727C647.834 49.2727 646.746 48.9943 645.831 48.4375C644.922 47.875 644.22 47.0909 643.726 46.0852C643.237 45.0739 642.993 43.8977 642.993 42.5568C642.993 41.2159 643.237 40.0341 643.726 39.0114C644.22 37.983 644.908 37.1818 645.788 36.608C646.675 36.0284 647.709 35.7386 648.891 35.7386C649.572 35.7386 650.246 35.8523 650.911 36.0795C651.575 36.3068 652.18 36.6761 652.726 37.1875C653.271 37.6932 653.706 38.3636 654.03 39.1989C654.354 40.0341 654.516 41.0625 654.516 42.2841V43.1364H644.425V41.3977H652.47C652.47 40.6591 652.322 40 652.027 39.4205C651.737 38.8409 651.322 38.3835 650.783 38.0483C650.249 37.7131 649.618 37.5455 648.891 37.5455C648.089 37.5455 647.396 37.7443 646.811 38.142C646.232 38.5341 645.786 39.0455 645.473 39.6761C645.161 40.3068 645.004 40.983 645.004 41.7045V42.8636C645.004 43.8523 645.175 44.6903 645.516 45.3778C645.862 46.0597 646.342 46.5795 646.956 46.9375C647.57 47.2898 648.283 47.4659 649.095 47.4659C649.624 47.4659 650.101 47.392 650.527 47.2443C650.959 47.0909 651.331 46.8636 651.643 46.5625C651.956 46.2557 652.197 45.875 652.368 45.4205L654.311 45.9659C654.107 46.625 653.763 47.2045 653.28 47.7045C652.797 48.1989 652.2 48.5852 651.49 48.8636C650.78 49.1364 649.982 49.2727 649.095 49.2727ZM666.848 38.8409L665.041 39.3523C664.928 39.0511 664.76 38.7585 664.538 38.4744C664.322 38.1847 664.027 37.946 663.652 37.7585C663.277 37.571 662.797 37.4773 662.212 37.4773C661.411 37.4773 660.743 37.6619 660.209 38.0312C659.68 38.3949 659.416 38.858 659.416 39.4205C659.416 39.9205 659.598 40.3153 659.962 40.6051C660.325 40.8949 660.893 41.1364 661.666 41.3295L663.609 41.8068C664.78 42.0909 665.652 42.5256 666.226 43.1108C666.8 43.6903 667.087 44.4375 667.087 45.3523C667.087 46.1023 666.871 46.7727 666.439 47.3636C666.013 47.9545 665.416 48.4205 664.649 48.7614C663.882 49.1023 662.99 49.2727 661.973 49.2727C660.638 49.2727 659.533 48.983 658.658 48.4034C657.783 47.8239 657.229 46.9773 656.996 45.8636L658.905 45.3864C659.087 46.0909 659.43 46.6193 659.936 46.9716C660.447 47.3239 661.115 47.5 661.939 47.5C662.876 47.5 663.621 47.3011 664.172 46.9034C664.729 46.5 665.007 46.017 665.007 45.4545C665.007 45 664.848 44.6193 664.53 44.3125C664.212 44 663.723 43.767 663.064 43.6136L660.882 43.1023C659.683 42.8182 658.803 42.3778 658.24 41.7812C657.683 41.179 657.405 40.4261 657.405 39.5227C657.405 38.7841 657.612 38.1307 658.027 37.5625C658.447 36.9943 659.018 36.5483 659.74 36.2244C660.467 35.9006 661.291 35.7386 662.212 35.7386C663.507 35.7386 664.524 36.0227 665.263 36.5909C666.007 37.1591 666.536 37.9091 666.848 38.8409ZM679.387 38.8409L677.58 39.3523C677.467 39.0511 677.299 38.7585 677.077 38.4744C676.862 38.1847 676.566 37.946 676.191 37.7585C675.816 37.571 675.336 37.4773 674.751 37.4773C673.95 37.4773 673.282 37.6619 672.748 38.0312C672.219 38.3949 671.955 38.858 671.955 39.4205C671.955 39.9205 672.137 40.3153 672.501 40.6051C672.864 40.8949 673.433 41.1364 674.205 41.3295L676.148 41.8068C677.319 42.0909 678.191 42.5256 678.765 43.1108C679.339 43.6903 679.626 44.4375 679.626 45.3523C679.626 46.1023 679.41 46.7727 678.978 47.3636C678.552 47.9545 677.955 48.4205 677.188 48.7614C676.421 49.1023 675.529 49.2727 674.512 49.2727C673.177 49.2727 672.072 48.983 671.197 48.4034C670.322 47.8239 669.768 46.9773 669.535 45.8636L671.444 45.3864C671.626 46.0909 671.969 46.6193 672.475 46.9716C672.987 47.3239 673.654 47.5 674.478 47.5C675.415 47.5 676.16 47.3011 676.711 46.9034C677.268 46.5 677.546 46.017 677.546 45.4545C677.546 45 677.387 44.6193 677.069 44.3125C676.751 44 676.262 43.767 675.603 43.6136L673.421 43.1023C672.222 42.8182 671.342 42.3778 670.779 41.7812C670.222 41.179 669.944 40.4261 669.944 39.5227C669.944 38.7841 670.151 38.1307 670.566 37.5625C670.987 36.9943 671.558 36.5483 672.279 36.2244C673.006 35.9006 673.83 35.7386 674.751 35.7386C676.046 35.7386 677.063 36.0227 677.802 36.5909C678.546 37.1591 679.075 37.9091 679.387 38.8409Z" fill="white"/>
<g clip-path="url(#clip4_7_181)">
<path d="M703.198 33.6996C703.082 33.5834 702.944 33.4912 702.792 33.4283C702.641 33.3655 702.478 33.3332 702.314 33.3334L701.681 33.3334C701.336 33.3371 701.025 33.4759 700.798 33.6996L692.248 42.2659C692.169 42.3432 692.107 42.4354 692.064 42.537C692.022 42.6386 692 42.7476 692 42.8578C692 42.9679 692.022 43.0769 692.064 43.1785C692.107 43.2801 692.169 43.3723 692.248 43.4496L693.431 44.6334C693.507 44.7113 693.598 44.7732 693.698 44.8155C693.798 44.8578 693.906 44.8795 694.014 44.8795C694.123 44.8795 694.231 44.8578 694.331 44.8155C694.431 44.7732 694.522 44.7113 694.598 44.6334L701.998 37.2159L709.398 44.6334C709.475 44.7118 709.567 44.7741 709.669 44.8166C709.77 44.8591 709.879 44.881 709.989 44.881C710.1 44.881 710.209 44.8591 710.31 44.8166C710.412 44.7741 710.504 44.7118 710.581 44.6334L711.748 43.4496C711.826 43.3723 711.888 43.2801 711.931 43.1785C711.973 43.0769 711.995 42.9679 711.995 42.8578C711.995 42.7476 711.973 42.6386 711.931 42.537C711.888 42.4354 711.826 42.3432 711.748 42.2659L703.198 33.6996Z" fill="white"/>
</g>
<path opacity="0.8" d="M729.159 49.2727C727.977 49.2727 726.94 48.9915 726.048 48.429C725.162 47.8665 724.469 47.0795 723.969 46.0682C723.474 45.0568 723.227 43.875 723.227 42.5227C723.227 41.1591 723.474 39.9687 723.969 38.9517C724.469 37.9347 725.162 37.1449 726.048 36.5824C726.94 36.0199 727.977 35.7386 729.159 35.7386C730.341 35.7386 731.375 36.0199 732.261 36.5824C733.153 37.1449 733.847 37.9347 734.341 38.9517C734.841 39.9687 735.091 41.1591 735.091 42.5227C735.091 43.875 734.841 45.0568 734.341 46.0682C733.847 47.0795 733.153 47.8665 732.261 48.429C731.375 48.9915 730.341 49.2727 729.159 49.2727ZM729.159 47.4659C730.057 47.4659 730.795 47.2358 731.375 46.7756C731.955 46.3153 732.384 45.7102 732.662 44.9602C732.94 44.2102 733.08 43.3977 733.08 42.5227C733.08 41.6477 732.94 40.8324 732.662 40.0767C732.384 39.321 731.955 38.7102 731.375 38.2443C730.795 37.7784 730.057 37.5455 729.159 37.5455C728.261 37.5455 727.523 37.7784 726.943 38.2443C726.364 38.7102 725.935 39.321 725.656 40.0767C725.378 40.8324 725.239 41.6477 725.239 42.5227C725.239 43.3977 725.378 44.2102 725.656 44.9602C725.935 45.7102 726.364 46.3153 726.943 46.7756C727.523 47.2358 728.261 47.4659 729.159 47.4659ZM738.161 49V35.9091H740.104V37.8864H740.241C740.479 37.2386 740.911 36.7131 741.536 36.3097C742.161 35.9062 742.866 35.7045 743.65 35.7045C743.798 35.7045 743.982 35.7074 744.204 35.7131C744.425 35.7187 744.593 35.7273 744.707 35.7386V37.7841C744.638 37.767 744.482 37.7415 744.238 37.7074C743.999 37.6676 743.746 37.6477 743.479 37.6477C742.843 37.6477 742.275 37.7812 741.775 38.0483C741.281 38.3097 740.888 38.6733 740.599 39.1392C740.315 39.5994 740.173 40.125 740.173 40.7159V49H738.161Z" fill="white"/>
<g clip-path="url(#clip5_7_181)">
<path d="M764.802 46.3004C764.918 46.4166 765.056 46.5088 765.208 46.5717C765.359 46.6345 765.522 46.6668 765.686 46.6666L766.319 46.6666C766.664 46.6629 766.975 46.5241 767.202 46.3004L775.752 37.7341C775.831 37.6568 775.893 37.5646 775.936 37.463C775.978 37.3614 776 37.2524 776 37.1422C776 37.0321 775.978 36.9231 775.936 36.8215C775.893 36.7199 775.831 36.6277 775.752 36.5504L774.569 35.3666C774.493 35.2887 774.402 35.2268 774.302 35.1845C774.202 35.1422 774.094 35.1205 773.986 35.1205C773.877 35.1205 773.769 35.1422 773.669 35.1845C773.569 35.2268 773.478 35.2887 773.402 35.3666L766.002 42.7841L758.602 35.3666C758.525 35.2882 758.433 35.2259 758.331 35.1834C758.23 35.1409 758.121 35.119 758.011 35.119C757.9 35.119 757.791 35.1409 757.69 35.1834C757.588 35.2259 757.496 35.2882 757.419 35.3666L756.252 36.5504C756.174 36.6277 756.112 36.7199 756.069 36.8215C756.027 36.9231 756.005 37.0321 756.005 37.1422C756.005 37.2524 756.027 37.3614 756.069 37.463C756.112 37.5646 756.174 37.6568 756.252 37.7341L764.802 46.3004Z" fill="white"/>
</g>
<path opacity="0.8" d="M793.534 35.9091V37.6136H786.75V35.9091H793.534ZM788.727 32.7727H790.739V45.25C790.739 45.8182 790.821 46.2443 790.986 46.5284C791.156 46.8068 791.372 46.9943 791.634 47.0909C791.901 47.1818 792.182 47.2273 792.477 47.2273C792.699 47.2273 792.881 47.2159 793.023 47.1932C793.165 47.1648 793.278 47.142 793.364 47.125L793.773 48.9318C793.636 48.983 793.446 49.0341 793.202 49.0852C792.957 49.142 792.648 49.1705 792.273 49.1705C791.705 49.1705 791.148 49.0483 790.602 48.804C790.063 48.5597 789.614 48.1875 789.256 47.6875C788.903 47.1875 788.727 46.5568 788.727 45.7955V32.7727ZM801.737 49.2727C800.555 49.2727 799.518 48.9915 798.626 48.429C797.74 47.8665 797.047 47.0795 796.547 46.0682C796.053 45.0568 795.805 43.875 795.805 42.5227C795.805 41.1591 796.053 39.9687 796.547 38.9517C797.047 37.9347 797.74 37.1449 798.626 36.5824C799.518 36.0199 800.555 35.7386 801.737 35.7386C802.919 35.7386 803.953 36.0199 804.839 36.5824C805.732 37.1449 806.425 37.9347 806.919 38.9517C807.419 39.9687 807.669 41.1591 807.669 42.5227C807.669 43.875 807.419 45.0568 806.919 46.0682C806.425 47.0795 805.732 47.8665 804.839 48.429C803.953 48.9915 802.919 49.2727 801.737 49.2727ZM801.737 47.4659C802.635 47.4659 803.374 47.2358 803.953 46.7756C804.533 46.3153 804.962 45.7102 805.24 44.9602C805.518 44.2102 805.658 43.3977 805.658 42.5227C805.658 41.6477 805.518 40.8324 805.24 40.0767C804.962 39.321 804.533 38.7102 803.953 38.2443C803.374 37.7784 802.635 37.5455 801.737 37.5455C800.839 37.5455 800.101 37.7784 799.521 38.2443C798.942 38.7102 798.513 39.321 798.234 40.0767C797.956 40.8324 797.817 41.6477 797.817 42.5227C797.817 43.3977 797.956 44.2102 798.234 44.9602C798.513 45.7102 798.942 46.3153 799.521 46.7756C800.101 47.2358 800.839 47.4659 801.737 47.4659Z" fill="white"/>
<path opacity="0.8" d="M634.918 73.6562H631.185C631.116 73.1733 630.977 72.7443 630.767 72.3693C630.557 71.9886 630.287 71.6648 629.957 71.3977C629.628 71.1307 629.247 70.9261 628.815 70.7841C628.389 70.642 627.926 70.571 627.426 70.571C626.523 70.571 625.736 70.7955 625.065 71.2443C624.395 71.6875 623.875 72.3352 623.506 73.1875C623.136 74.0341 622.952 75.0625 622.952 76.2727C622.952 77.517 623.136 78.5625 623.506 79.4091C623.881 80.2557 624.403 80.8949 625.074 81.3267C625.744 81.7585 626.52 81.9744 627.401 81.9744C627.895 81.9744 628.352 81.9091 628.773 81.7784C629.199 81.6477 629.577 81.4574 629.906 81.2074C630.236 80.9517 630.509 80.642 630.724 80.2784C630.946 79.9148 631.099 79.5 631.185 79.0341L634.918 79.0511C634.821 79.8523 634.58 80.625 634.193 81.3693C633.813 82.108 633.298 82.7699 632.651 83.3551C632.009 83.9347 631.241 84.3949 630.349 84.7358C629.463 85.071 628.46 85.2386 627.341 85.2386C625.784 85.2386 624.392 84.8864 623.165 84.1818C621.943 83.4773 620.977 82.4574 620.267 81.1222C619.562 79.7869 619.21 78.1705 619.21 76.2727C619.21 74.3693 619.568 72.75 620.284 71.4148C621 70.0795 621.972 69.0625 623.199 68.3636C624.426 67.6591 625.807 67.3068 627.341 67.3068C628.352 67.3068 629.29 67.4489 630.153 67.733C631.023 68.017 631.793 68.4318 632.463 68.9773C633.134 69.517 633.679 70.179 634.099 70.9631C634.526 71.7472 634.798 72.6449 634.918 73.6562ZM641.126 77.4318V85H637.496V67.5455H641.024V74.2188H641.178C641.473 73.446 641.95 72.8409 642.609 72.4034C643.268 71.9602 644.095 71.7386 645.089 71.7386C645.999 71.7386 646.791 71.9375 647.467 72.3352C648.149 72.7273 648.678 73.2926 649.053 74.0312C649.433 74.7642 649.621 75.642 649.615 76.6648V85H645.984V77.3125C645.99 76.5057 645.786 75.8778 645.371 75.429C644.962 74.9801 644.388 74.7557 643.649 74.7557C643.155 74.7557 642.717 74.8608 642.337 75.071C641.962 75.2812 641.666 75.5881 641.45 75.9915C641.24 76.3892 641.132 76.8693 641.126 77.4318ZM656.205 85.2472C655.37 85.2472 654.626 85.1023 653.972 84.8125C653.319 84.517 652.802 84.0824 652.421 83.5085C652.046 82.929 651.859 82.2074 651.859 81.3438C651.859 80.6165 651.992 80.0057 652.259 79.5114C652.526 79.017 652.89 78.6193 653.35 78.3182C653.81 78.017 654.333 77.7898 654.918 77.6364C655.509 77.483 656.129 77.375 656.776 77.3125C657.538 77.233 658.151 77.1591 658.617 77.0909C659.083 77.017 659.421 76.9091 659.631 76.767C659.842 76.625 659.947 76.4148 659.947 76.1364V76.0852C659.947 75.5455 659.776 75.1278 659.435 74.8324C659.1 74.5369 658.623 74.3892 658.004 74.3892C657.35 74.3892 656.83 74.5341 656.444 74.8239C656.058 75.108 655.802 75.4659 655.677 75.8977L652.319 75.625C652.489 74.8295 652.825 74.142 653.325 73.5625C653.825 72.9773 654.469 72.5284 655.259 72.2159C656.055 71.8977 656.975 71.7386 658.021 71.7386C658.748 71.7386 659.444 71.8239 660.109 71.9943C660.779 72.1648 661.373 72.429 661.89 72.7869C662.413 73.1449 662.825 73.6051 663.126 74.1676C663.427 74.7244 663.577 75.392 663.577 76.1705V85H660.134V83.1847H660.032C659.822 83.5938 659.54 83.9545 659.188 84.267C658.836 84.5739 658.413 84.8153 657.918 84.9915C657.424 85.1619 656.853 85.2472 656.205 85.2472ZM657.245 82.7415C657.779 82.7415 658.251 82.6364 658.66 82.4261C659.069 82.2102 659.39 81.9205 659.623 81.5568C659.856 81.1932 659.972 80.7812 659.972 80.321V78.9318C659.859 79.0057 659.702 79.0739 659.504 79.1364C659.31 79.1932 659.092 79.2472 658.847 79.2983C658.603 79.3437 658.359 79.3864 658.114 79.4261C657.87 79.4602 657.648 79.4915 657.45 79.5199C657.023 79.5824 656.651 79.6818 656.333 79.8182C656.015 79.9545 655.768 80.1392 655.592 80.3722C655.415 80.5994 655.327 80.8835 655.327 81.2244C655.327 81.7188 655.506 82.0966 655.864 82.358C656.228 82.6136 656.688 82.7415 657.245 82.7415ZM670.025 77.4318V85H666.394V71.9091H669.854V74.2188H670.008C670.298 73.4574 670.783 72.8551 671.465 72.4119C672.147 71.9631 672.974 71.7386 673.945 71.7386C674.854 71.7386 675.647 71.9375 676.323 72.3352C676.999 72.733 677.525 73.3011 677.9 74.0398C678.275 74.7727 678.462 75.6477 678.462 76.6648V85H674.832V77.3125C674.837 76.5114 674.633 75.8864 674.218 75.4375C673.803 74.983 673.232 74.7557 672.505 74.7557C672.016 74.7557 671.585 74.8608 671.21 75.071C670.84 75.2812 670.55 75.5881 670.34 75.9915C670.136 76.3892 670.031 76.8693 670.025 77.4318ZM687.222 90.1818C686.045 90.1818 685.037 90.0199 684.196 89.696C683.361 89.3778 682.696 88.9432 682.202 88.392C681.707 87.8409 681.386 87.2216 681.239 86.5341L684.597 86.0824C684.699 86.3438 684.861 86.5881 685.082 86.8153C685.304 87.0426 685.597 87.2244 685.96 87.3608C686.33 87.5028 686.778 87.5739 687.307 87.5739C688.097 87.5739 688.747 87.3807 689.259 86.9943C689.776 86.6136 690.034 85.9744 690.034 85.0767V82.6818H689.881C689.722 83.0455 689.483 83.3892 689.165 83.7131C688.847 84.0369 688.438 84.3011 687.938 84.5057C687.438 84.7102 686.841 84.8125 686.148 84.8125C685.165 84.8125 684.27 84.5852 683.463 84.1307C682.662 83.6705 682.023 82.9687 681.545 82.0256C681.074 81.0767 680.838 79.8778 680.838 78.429C680.838 76.946 681.08 75.7074 681.562 74.7131C682.045 73.7187 682.688 72.9744 683.489 72.4801C684.295 71.9858 685.179 71.7386 686.139 71.7386C686.872 71.7386 687.486 71.8636 687.98 72.1136C688.474 72.358 688.872 72.6648 689.173 73.0341C689.48 73.3977 689.716 73.7557 689.881 74.108H690.017V71.9091H693.622V85.1278C693.622 86.2415 693.349 87.1733 692.804 87.9233C692.259 88.6733 691.503 89.2358 690.537 89.6108C689.577 89.9915 688.472 90.1818 687.222 90.1818ZM687.298 82.0852C687.884 82.0852 688.378 81.9403 688.781 81.6506C689.19 81.3551 689.503 80.9347 689.719 80.3892C689.94 79.8381 690.051 79.179 690.051 78.4119C690.051 77.6449 689.943 76.9801 689.727 76.4176C689.511 75.8494 689.199 75.4091 688.79 75.0966C688.381 74.7841 687.884 74.6278 687.298 74.6278C686.702 74.6278 686.199 74.7898 685.79 75.1136C685.381 75.4318 685.071 75.875 684.861 76.4432C684.651 77.0114 684.545 77.6676 684.545 78.4119C684.545 79.1676 684.651 79.821 684.861 80.3722C685.077 80.9176 685.386 81.3409 685.79 81.642C686.199 81.9375 686.702 82.0852 687.298 82.0852ZM702.477 85.2557C701.131 85.2557 699.972 84.983 699 84.4375C698.034 83.8864 697.29 83.108 696.767 82.1023C696.244 81.0909 695.983 79.8949 695.983 78.5142C695.983 77.1676 696.244 75.9858 696.767 74.9688C697.29 73.9517 698.026 73.1591 698.974 72.5909C699.929 72.0227 701.048 71.7386 702.332 71.7386C703.196 71.7386 704 71.8778 704.744 72.1562C705.494 72.429 706.148 72.8409 706.705 73.392C707.267 73.9432 707.705 74.6364 708.017 75.4716C708.33 76.3011 708.486 77.2727 708.486 78.3864V79.3835H697.432V77.1335H705.068C705.068 76.6108 704.955 76.1477 704.727 75.7443C704.5 75.3409 704.185 75.0256 703.781 74.7983C703.384 74.5653 702.92 74.4489 702.392 74.4489C701.841 74.4489 701.352 74.5767 700.926 74.8324C700.506 75.0824 700.176 75.4205 699.938 75.8466C699.699 76.267 699.577 76.7358 699.571 77.2528V79.392C699.571 80.0398 699.69 80.5994 699.929 81.071C700.173 81.5426 700.517 81.9062 700.96 82.1619C701.403 82.4176 701.929 82.5455 702.537 82.5455C702.94 82.5455 703.31 82.4886 703.645 82.375C703.98 82.2614 704.267 82.0909 704.506 81.8636C704.744 81.6364 704.926 81.358 705.051 81.0284L708.409 81.25C708.239 82.0568 707.889 82.7614 707.361 83.3636C706.838 83.9602 706.162 84.4261 705.332 84.7614C704.509 85.0909 703.557 85.2557 702.477 85.2557ZM722.325 85.2557C720.984 85.2557 719.83 84.9716 718.864 84.4034C717.904 83.8295 717.165 83.0341 716.648 82.017C716.137 81 715.881 79.8295 715.881 78.5057C715.881 77.1648 716.14 75.9886 716.657 74.9773C717.18 73.9602 717.921 73.1676 718.881 72.5994C719.842 72.0256 720.984 71.7386 722.308 71.7386C723.45 71.7386 724.45 71.946 725.308 72.3608C726.165 72.7756 726.844 73.358 727.344 74.108C727.844 74.858 728.12 75.7386 728.171 76.75H724.745C724.648 76.0966 724.393 75.571 723.978 75.1733C723.569 74.7699 723.032 74.5682 722.367 74.5682C721.805 74.5682 721.313 74.7216 720.893 75.0284C720.478 75.3295 720.154 75.7699 719.921 76.3494C719.688 76.929 719.572 77.6307 719.572 78.4545C719.572 79.2898 719.685 80 719.913 80.5852C720.146 81.1705 720.472 81.6165 720.893 81.9233C721.313 82.2301 721.805 82.3835 722.367 82.3835C722.782 82.3835 723.154 82.2983 723.484 82.1278C723.819 81.9574 724.094 81.7102 724.31 81.3864C724.532 81.0568 724.677 80.6619 724.745 80.2017H728.171C728.114 81.2017 727.842 82.0824 727.353 82.8438C726.87 83.5994 726.202 84.1903 725.35 84.6165C724.498 85.0426 723.489 85.2557 722.325 85.2557ZM734.126 77.4318V85H730.496V67.5455H734.024V74.2188H734.178C734.473 73.446 734.95 72.8409 735.609 72.4034C736.268 71.9602 737.095 71.7386 738.089 71.7386C738.999 71.7386 739.791 71.9375 740.467 72.3352C741.149 72.7273 741.678 73.2926 742.053 74.0312C742.433 74.7642 742.621 75.642 742.615 76.6648V85H738.984V77.3125C738.99 76.5057 738.786 75.8778 738.371 75.429C737.962 74.9801 737.388 74.7557 736.649 74.7557C736.155 74.7557 735.717 74.8608 735.337 75.071C734.962 75.2812 734.666 75.5881 734.45 75.9915C734.24 76.3892 734.132 76.8693 734.126 77.4318ZM749.205 85.2472C748.37 85.2472 747.626 85.1023 746.972 84.8125C746.319 84.517 745.802 84.0824 745.421 83.5085C745.046 82.929 744.859 82.2074 744.859 81.3438C744.859 80.6165 744.992 80.0057 745.259 79.5114C745.526 79.017 745.89 78.6193 746.35 78.3182C746.81 78.017 747.333 77.7898 747.918 77.6364C748.509 77.483 749.129 77.375 749.776 77.3125C750.538 77.233 751.151 77.1591 751.617 77.0909C752.083 77.017 752.421 76.9091 752.631 76.767C752.842 76.625 752.947 76.4148 752.947 76.1364V76.0852C752.947 75.5455 752.776 75.1278 752.435 74.8324C752.1 74.5369 751.623 74.3892 751.004 74.3892C750.35 74.3892 749.83 74.5341 749.444 74.8239C749.058 75.108 748.802 75.4659 748.677 75.8977L745.319 75.625C745.489 74.8295 745.825 74.142 746.325 73.5625C746.825 72.9773 747.469 72.5284 748.259 72.2159C749.055 71.8977 749.975 71.7386 751.021 71.7386C751.748 71.7386 752.444 71.8239 753.109 71.9943C753.779 72.1648 754.373 72.429 754.89 72.7869C755.413 73.1449 755.825 73.6051 756.126 74.1676C756.427 74.7244 756.577 75.392 756.577 76.1705V85H753.134V83.1847H753.032C752.822 83.5938 752.54 83.9545 752.188 84.267C751.836 84.5739 751.413 84.8153 750.918 84.9915C750.424 85.1619 749.853 85.2472 749.205 85.2472ZM750.245 82.7415C750.779 82.7415 751.251 82.6364 751.66 82.4261C752.069 82.2102 752.39 81.9205 752.623 81.5568C752.856 81.1932 752.972 80.7812 752.972 80.321V78.9318C752.859 79.0057 752.702 79.0739 752.504 79.1364C752.31 79.1932 752.092 79.2472 751.847 79.2983C751.603 79.3437 751.359 79.3864 751.114 79.4261C750.87 79.4602 750.648 79.4915 750.45 79.5199C750.023 79.5824 749.651 79.6818 749.333 79.8182C749.015 79.9545 748.768 80.1392 748.592 80.3722C748.415 80.5994 748.327 80.8835 748.327 81.2244C748.327 81.7188 748.506 82.0966 748.864 82.358C749.228 82.6136 749.688 82.7415 750.245 82.7415ZM763.025 77.4318V85H759.394V71.9091H762.854V74.2188H763.008C763.298 73.4574 763.783 72.8551 764.465 72.4119C765.147 71.9631 765.974 71.7386 766.945 71.7386C767.854 71.7386 768.647 71.9375 769.323 72.3352C769.999 72.733 770.525 73.3011 770.9 74.0398C771.275 74.7727 771.462 75.6477 771.462 76.6648V85H767.832V77.3125C767.837 76.5114 767.633 75.8864 767.218 75.4375C766.803 74.983 766.232 74.7557 765.505 74.7557C765.016 74.7557 764.585 74.8608 764.21 75.071C763.84 75.2812 763.55 75.5881 763.34 75.9915C763.136 76.3892 763.031 76.8693 763.025 77.4318ZM777.955 77.4318V85H774.324V71.9091H777.784V74.2188H777.938C778.227 73.4574 778.713 72.8551 779.395 72.4119C780.077 71.9631 780.903 71.7386 781.875 71.7386C782.784 71.7386 783.577 71.9375 784.253 72.3352C784.929 72.733 785.455 73.3011 785.83 74.0398C786.205 74.7727 786.392 75.6477 786.392 76.6648V85H782.761V77.3125C782.767 76.5114 782.563 75.8864 782.148 75.4375C781.733 74.983 781.162 74.7557 780.435 74.7557C779.946 74.7557 779.514 74.8608 779.139 75.071C778.77 75.2812 778.48 75.5881 778.27 75.9915C778.065 76.3892 777.96 76.8693 777.955 77.4318ZM795.219 85.2557C793.873 85.2557 792.714 84.983 791.742 84.4375C790.776 83.8864 790.032 83.108 789.509 82.1023C788.987 81.0909 788.725 79.8949 788.725 78.5142C788.725 77.1676 788.987 75.9858 789.509 74.9688C790.032 73.9517 790.768 73.1591 791.717 72.5909C792.671 72.0227 793.79 71.7386 795.075 71.7386C795.938 71.7386 796.742 71.8778 797.487 72.1562C798.237 72.429 798.89 72.8409 799.447 73.392C800.009 73.9432 800.447 74.6364 800.759 75.4716C801.072 76.3011 801.228 77.2727 801.228 78.3864V79.3835H790.174V77.1335H797.81C797.81 76.6108 797.697 76.1477 797.469 75.7443C797.242 75.3409 796.927 75.0256 796.523 74.7983C796.126 74.5653 795.663 74.4489 795.134 74.4489C794.583 74.4489 794.094 74.5767 793.668 74.8324C793.248 75.0824 792.918 75.4205 792.68 75.8466C792.441 76.267 792.319 76.7358 792.313 77.2528V79.392C792.313 80.0398 792.433 80.5994 792.671 81.071C792.915 81.5426 793.259 81.9062 793.702 82.1619C794.146 82.4176 794.671 82.5455 795.279 82.5455C795.683 82.5455 796.052 82.4886 796.387 82.375C796.722 82.2614 797.009 82.0909 797.248 81.8636C797.487 81.6364 797.668 81.358 797.793 81.0284L801.151 81.25C800.981 82.0568 800.631 82.7614 800.103 83.3636C799.58 83.9602 798.904 84.4261 798.075 84.7614C797.251 85.0909 796.299 85.2557 795.219 85.2557ZM807.228 67.5455V85H803.597V67.5455H807.228Z" fill="white"/>
<path d="M562.001 193.949C561.973 194.5 562.397 194.97 562.949 194.999L571.937 195.46C572.489 195.488 572.959 195.064 572.987 194.512C573.015 193.961 572.591 193.491 572.039 193.462L564.05 193.053L564.46 185.063C564.488 184.511 564.064 184.041 563.512 184.013C562.961 183.985 562.491 184.409 562.462 184.961L562.001 193.949ZM644.33 119.258L642.866 120.579L644.206 122.064L645.67 120.742L644.33 119.258ZM639.937 123.222L637.009 125.865L638.349 127.35L641.277 124.707L639.937 123.222ZM634.08 128.508L631.151 131.15L632.491 132.635L635.42 129.992L634.08 128.508ZM628.223 133.793L625.294 136.436L626.634 137.921L629.563 135.278L628.223 133.793ZM622.366 139.079L619.437 141.722L620.777 143.207L623.706 140.564L622.366 139.079ZM616.509 144.365L613.58 147.008L614.92 148.492L617.849 145.85L616.509 144.365ZM610.651 149.65L607.723 152.293L609.063 153.778L611.991 151.135L610.651 149.65ZM604.794 154.936L601.866 157.579L603.206 159.064L606.134 156.421L604.794 154.936ZM598.937 160.222L596.009 162.865L597.349 164.35L600.277 161.707L598.937 160.222ZM593.08 165.508L590.151 168.15L591.491 169.635L594.42 166.992L593.08 165.508ZM587.223 170.793L584.294 173.436L585.634 174.921L588.563 172.278L587.223 170.793ZM581.366 176.079L578.437 178.722L579.777 180.207L582.706 177.564L581.366 176.079ZM575.509 181.365L572.58 184.008L573.92 185.492L576.849 182.85L575.509 181.365ZM569.651 186.65L566.723 189.293L568.063 190.778L570.991 188.135L569.651 186.65ZM563.794 191.936L562.33 193.258L563.67 194.742L565.134 193.421L563.794 191.936ZM561.003 193.898C560.946 195.001 561.794 195.941 562.898 195.997L580.874 196.919C581.977 196.976 582.917 196.127 582.974 195.024C583.03 193.921 582.182 192.981 581.079 192.925L565.1 192.105L565.919 176.126C565.976 175.023 565.127 174.083 564.024 174.026C562.921 173.97 561.981 174.818 561.924 175.921L561.003 193.898ZM643.66 118.515L642.196 119.837L644.876 122.806L646.34 121.485L643.66 118.515ZM639.267 122.48L636.339 125.122L639.018 128.092L641.947 125.449L639.267 122.48ZM633.41 127.765L630.481 130.408L633.161 133.378L636.09 130.735L633.41 127.765ZM627.553 133.051L624.624 135.694L627.304 138.663L630.233 136.021L627.553 133.051ZM621.696 138.337L618.767 140.98L621.447 143.949L624.376 141.306L621.696 138.337ZM615.839 143.622L612.91 146.265L615.59 149.235L618.518 146.592L615.839 143.622ZM609.981 148.908L607.053 151.551L609.733 154.521L612.661 151.878L609.981 148.908ZM604.124 154.194L601.196 156.837L603.876 159.806L606.804 157.163L604.124 154.194ZM598.267 159.48L595.339 162.122L598.018 165.092L600.947 162.449L598.267 159.48ZM592.41 164.765L589.481 167.408L592.161 170.378L595.09 167.735L592.41 164.765ZM586.553 170.051L583.624 172.694L586.304 175.663L589.233 173.021L586.553 170.051ZM580.696 175.337L577.767 177.98L580.447 180.949L583.376 178.306L580.696 175.337ZM574.839 180.622L571.91 183.265L574.59 186.235L577.519 183.592L574.839 180.622ZM568.982 185.908L566.053 188.551L568.733 191.52L571.661 188.878L568.982 185.908ZM563.124 191.194L561.66 192.515L564.34 195.485L565.804 194.163L563.124 191.194Z" fill="#ED2C25"/>
<mask id="path-18-inside-2_7_181" fill="white">
<path d="M0 287C0 284.791 1.79086 283 4 283H254C256.209 283 258 284.791 258 287V399C258 401.209 256.209 403 254 403H4C1.79086 403 0 401.209 0 399V287Z"/>
</mask>
<path d="M0 287C0 284.791 1.79086 283 4 283H254C256.209 283 258 284.791 258 287V399C258 401.209 256.209 403 254 403H4C1.79086 403 0 401.209 0 399V287Z" fill="#313131" fill-opacity="0.6"/>
<path d="M4 284H254V282H4V284ZM257 287V399H259V287H257ZM254 402H4V404H254V402ZM1 399V287H-1V399H1ZM4 402C2.34315 402 1 400.657 1 399H-1C-1 401.761 1.23858 404 4 404V402ZM257 399C257 400.657 255.657 402 254 402V404C256.761 404 259 401.761 259 399H257ZM254 284C255.657 284 257 285.343 257 287H259C259 284.239 256.761 282 254 282V284ZM4 282C1.23858 282 -1 284.239 -1 287H1C1 285.343 2.34315 284 4 284V282Z" fill="white" mask="url(#path-18-inside-2_7_181)"/>
<path opacity="0.8" d="M29.1136 334V316.545H35.0114C36.3807 316.545 37.5 316.793 38.3693 317.287C39.2443 317.776 39.892 318.438 40.3125 319.273C40.733 320.108 40.9432 321.04 40.9432 322.068C40.9432 323.097 40.733 324.031 40.3125 324.872C39.8977 325.713 39.2557 326.384 38.3864 326.884C37.517 327.378 36.4034 327.625 35.0455 327.625H30.8182V325.75H34.9773C35.9148 325.75 36.6676 325.588 37.2358 325.264C37.804 324.94 38.2159 324.503 38.4716 323.952C38.733 323.395 38.8636 322.767 38.8636 322.068C38.8636 321.369 38.733 320.744 38.4716 320.193C38.2159 319.642 37.8011 319.21 37.2273 318.898C36.6534 318.58 35.892 318.42 34.9432 318.42H31.2273V334H29.1136ZM44.0753 334V320.909H46.0185V322.886H46.1548C46.3935 322.239 46.8253 321.713 47.4503 321.31C48.0753 320.906 48.7798 320.705 49.5639 320.705C49.7116 320.705 49.8963 320.707 50.1179 320.713C50.3395 320.719 50.5071 320.727 50.6207 320.739V322.784C50.5526 322.767 50.3963 322.741 50.152 322.707C49.9134 322.668 49.6605 322.648 49.3935 322.648C48.7571 322.648 48.1889 322.781 47.6889 323.048C47.1946 323.31 46.8026 323.673 46.5128 324.139C46.2287 324.599 46.0866 325.125 46.0866 325.716V334H44.0753ZM58.0952 334.273C56.8338 334.273 55.7457 333.994 54.831 333.438C53.9219 332.875 53.2202 332.091 52.7259 331.085C52.2372 330.074 51.9929 328.898 51.9929 327.557C51.9929 326.216 52.2372 325.034 52.7259 324.011C53.2202 322.983 53.9077 322.182 54.7884 321.608C55.6747 321.028 56.7088 320.739 57.8906 320.739C58.5724 320.739 59.2457 320.852 59.9105 321.08C60.5753 321.307 61.1804 321.676 61.7259 322.188C62.2713 322.693 62.706 323.364 63.0298 324.199C63.3537 325.034 63.5156 326.062 63.5156 327.284V328.136H53.4247V326.398H61.4702C61.4702 325.659 61.3224 325 61.027 324.42C60.7372 323.841 60.3224 323.384 59.7827 323.048C59.2486 322.713 58.6179 322.545 57.8906 322.545C57.0895 322.545 56.3963 322.744 55.8111 323.142C55.2315 323.534 54.7855 324.045 54.473 324.676C54.1605 325.307 54.0043 325.983 54.0043 326.705V327.864C54.0043 328.852 54.1747 329.69 54.5156 330.378C54.8622 331.06 55.3423 331.58 55.956 331.938C56.5696 332.29 57.2827 332.466 58.0952 332.466C58.6236 332.466 59.1009 332.392 59.527 332.244C59.9588 332.091 60.331 331.864 60.6435 331.562C60.956 331.256 61.1974 330.875 61.3679 330.42L63.3111 330.966C63.1065 331.625 62.7628 332.205 62.2798 332.705C61.7969 333.199 61.2003 333.585 60.4901 333.864C59.7798 334.136 58.9815 334.273 58.0952 334.273ZM75.848 323.841L74.0412 324.352C73.9276 324.051 73.7599 323.759 73.5384 323.474C73.3224 323.185 73.027 322.946 72.652 322.759C72.277 322.571 71.7969 322.477 71.2116 322.477C70.4105 322.477 69.7429 322.662 69.2088 323.031C68.6804 323.395 68.4162 323.858 68.4162 324.42C68.4162 324.92 68.598 325.315 68.9616 325.605C69.3253 325.895 69.8935 326.136 70.6662 326.33L72.6094 326.807C73.7798 327.091 74.652 327.526 75.2259 328.111C75.7997 328.69 76.0866 329.437 76.0866 330.352C76.0866 331.102 75.8707 331.773 75.4389 332.364C75.0128 332.955 74.4162 333.42 73.6491 333.761C72.8821 334.102 71.9901 334.273 70.973 334.273C69.6378 334.273 68.5327 333.983 67.6577 333.403C66.7827 332.824 66.2287 331.977 65.9957 330.864L67.9048 330.386C68.0866 331.091 68.4304 331.619 68.9361 331.972C69.4474 332.324 70.1151 332.5 70.9389 332.5C71.8764 332.5 72.6207 332.301 73.1719 331.903C73.7287 331.5 74.0071 331.017 74.0071 330.455C74.0071 330 73.848 329.619 73.5298 329.312C73.2116 329 72.723 328.767 72.0639 328.614L69.8821 328.102C68.6832 327.818 67.8026 327.378 67.2401 326.781C66.6832 326.179 66.4048 325.426 66.4048 324.523C66.4048 323.784 66.6122 323.131 67.027 322.562C67.4474 321.994 68.0185 321.548 68.7401 321.224C69.4673 320.901 70.2912 320.739 71.2116 320.739C72.5071 320.739 73.5241 321.023 74.2628 321.591C75.0071 322.159 75.5355 322.909 75.848 323.841ZM88.3871 323.841L86.5803 324.352C86.4666 324.051 86.299 323.759 86.0774 323.474C85.8615 323.185 85.5661 322.946 85.1911 322.759C84.8161 322.571 84.3359 322.477 83.7507 322.477C82.9496 322.477 82.282 322.662 81.7479 323.031C81.2195 323.395 80.9553 323.858 80.9553 324.42C80.9553 324.92 81.1371 325.315 81.5007 325.605C81.8643 325.895 82.4325 326.136 83.2053 326.33L85.1484 326.807C86.3189 327.091 87.1911 327.526 87.7649 328.111C88.3388 328.69 88.6257 329.437 88.6257 330.352C88.6257 331.102 88.4098 331.773 87.978 332.364C87.5518 332.955 86.9553 333.42 86.1882 333.761C85.4212 334.102 84.5291 334.273 83.5121 334.273C82.1768 334.273 81.0717 333.983 80.1967 333.403C79.3217 332.824 78.7678 331.977 78.5348 330.864L80.4439 330.386C80.6257 331.091 80.9695 331.619 81.4751 331.972C81.9865 332.324 82.6541 332.5 83.478 332.5C84.4155 332.5 85.1598 332.301 85.7109 331.903C86.2678 331.5 86.5462 331.017 86.5462 330.455C86.5462 330 86.3871 329.619 86.0689 329.312C85.7507 329 85.2621 328.767 84.603 328.614L82.4212 328.102C81.2223 327.818 80.3416 327.378 79.7791 326.781C79.2223 326.179 78.9439 325.426 78.9439 324.523C78.9439 323.784 79.1513 323.131 79.5661 322.562C79.9865 321.994 80.5575 321.548 81.2791 321.224C82.0064 320.901 82.8303 320.739 83.7507 320.739C85.0462 320.739 86.0632 321.023 86.8018 321.591C87.5462 322.159 88.0746 322.909 88.3871 323.841Z" fill="white"/>
<g clip-path="url(#clip6_7_181)">
<path d="M113.7 325.802C113.583 325.918 113.491 326.056 113.428 326.208C113.365 326.359 113.333 326.522 113.333 326.686L113.333 327.319C113.337 327.664 113.476 327.975 113.7 328.202L122.266 336.752C122.343 336.831 122.435 336.893 122.537 336.936C122.639 336.978 122.748 337 122.858 337C122.968 337 123.077 336.978 123.179 336.936C123.28 336.893 123.372 336.831 123.45 336.752L124.633 335.569C124.711 335.493 124.773 335.402 124.815 335.302C124.858 335.202 124.88 335.094 124.88 334.986C124.88 334.877 124.858 334.769 124.815 334.669C124.773 334.569 124.711 334.478 124.633 334.402L117.216 327.002L124.633 319.602C124.712 319.525 124.774 319.433 124.817 319.331C124.859 319.23 124.881 319.121 124.881 319.011C124.881 318.9 124.859 318.791 124.817 318.69C124.774 318.588 124.712 318.496 124.633 318.419L123.45 317.252C123.372 317.174 123.28 317.112 123.179 317.069C123.077 317.027 122.968 317.005 122.858 317.005C122.748 317.005 122.639 317.027 122.537 317.069C122.435 317.112 122.343 317.174 122.266 317.252L113.7 325.802Z" fill="white"/>
</g>
<path opacity="0.8" d="M156.534 322.909V324.614H149.75V322.909H156.534ZM151.727 319.773H153.739V332.25C153.739 332.818 153.821 333.244 153.986 333.528C154.156 333.807 154.372 333.994 154.634 334.091C154.901 334.182 155.182 334.227 155.477 334.227C155.699 334.227 155.881 334.216 156.023 334.193C156.165 334.165 156.278 334.142 156.364 334.125L156.773 335.932C156.636 335.983 156.446 336.034 156.202 336.085C155.957 336.142 155.648 336.17 155.273 336.17C154.705 336.17 154.148 336.048 153.602 335.804C153.063 335.56 152.614 335.188 152.256 334.688C151.903 334.188 151.727 333.557 151.727 332.795V319.773ZM164.737 336.273C163.555 336.273 162.518 335.991 161.626 335.429C160.74 334.866 160.047 334.08 159.547 333.068C159.053 332.057 158.805 330.875 158.805 329.523C158.805 328.159 159.053 326.969 159.547 325.952C160.047 324.935 160.74 324.145 161.626 323.582C162.518 323.02 163.555 322.739 164.737 322.739C165.919 322.739 166.953 323.02 167.839 323.582C168.732 324.145 169.425 324.935 169.919 325.952C170.419 326.969 170.669 328.159 170.669 329.523C170.669 330.875 170.419 332.057 169.919 333.068C169.425 334.08 168.732 334.866 167.839 335.429C166.953 335.991 165.919 336.273 164.737 336.273ZM164.737 334.466C165.635 334.466 166.374 334.236 166.953 333.776C167.533 333.315 167.962 332.71 168.24 331.96C168.518 331.21 168.658 330.398 168.658 329.523C168.658 328.648 168.518 327.832 168.24 327.077C167.962 326.321 167.533 325.71 166.953 325.244C166.374 324.778 165.635 324.545 164.737 324.545C163.839 324.545 163.101 324.778 162.521 325.244C161.942 325.71 161.513 326.321 161.234 327.077C160.956 327.832 160.817 328.648 160.817 329.523C160.817 330.398 160.956 331.21 161.234 331.96C161.513 332.71 161.942 333.315 162.521 333.776C163.101 334.236 163.839 334.466 164.737 334.466ZM191.194 322.909L186.353 336H184.308L179.467 322.909H181.648L185.262 333.341H185.398L189.012 322.909H191.194ZM193.849 336V322.909H195.86V336H193.849ZM194.871 320.727C194.479 320.727 194.141 320.594 193.857 320.327C193.579 320.06 193.44 319.739 193.44 319.364C193.44 318.989 193.579 318.668 193.857 318.401C194.141 318.134 194.479 318 194.871 318C195.263 318 195.599 318.134 195.877 318.401C196.161 318.668 196.303 318.989 196.303 319.364C196.303 319.739 196.161 320.06 195.877 320.327C195.599 320.594 195.263 320.727 194.871 320.727ZM205.033 336.273C203.771 336.273 202.683 335.994 201.768 335.438C200.859 334.875 200.158 334.091 199.663 333.085C199.175 332.074 198.93 330.898 198.93 329.557C198.93 328.216 199.175 327.034 199.663 326.011C200.158 324.983 200.845 324.182 201.726 323.608C202.612 323.028 203.646 322.739 204.828 322.739C205.51 322.739 206.183 322.852 206.848 323.08C207.513 323.307 208.118 323.676 208.663 324.188C209.209 324.693 209.643 325.364 209.967 326.199C210.291 327.034 210.453 328.062 210.453 329.284V330.136H200.362V328.398H208.408C208.408 327.659 208.26 327 207.964 326.42C207.675 325.841 207.26 325.384 206.72 325.048C206.186 324.713 205.555 324.545 204.828 324.545C204.027 324.545 203.334 324.744 202.749 325.142C202.169 325.534 201.723 326.045 201.411 326.676C201.098 327.307 200.942 327.983 200.942 328.705V329.864C200.942 330.852 201.112 331.69 201.453 332.378C201.8 333.06 202.28 333.58 202.893 333.938C203.507 334.29 204.22 334.466 205.033 334.466C205.561 334.466 206.038 334.392 206.464 334.244C206.896 334.091 207.268 333.864 207.581 333.562C207.893 333.256 208.135 332.875 208.305 332.42L210.249 332.966C210.044 333.625 209.7 334.205 209.217 334.705C208.734 335.199 208.138 335.585 207.428 335.864C206.717 336.136 205.919 336.273 205.033 336.273ZM216.479 336L212.49 322.909H214.604L217.433 332.932H217.57L220.365 322.909H222.513L225.274 332.898H225.411L228.24 322.909H230.354L226.365 336H224.388L221.524 325.943H221.32L218.456 336H216.479Z" fill="white"/>
<path opacity="0.8" d="M43.9176 360.656H40.1847C40.1165 360.173 39.9773 359.744 39.767 359.369C39.5568 358.989 39.2869 358.665 38.9574 358.398C38.6278 358.131 38.2472 357.926 37.8153 357.784C37.3892 357.642 36.9261 357.571 36.4261 357.571C35.5227 357.571 34.7358 357.795 34.0653 358.244C33.3949 358.687 32.875 359.335 32.5057 360.188C32.1364 361.034 31.9517 362.062 31.9517 363.273C31.9517 364.517 32.1364 365.562 32.5057 366.409C32.8807 367.256 33.4034 367.895 34.0739 368.327C34.7443 368.759 35.5199 368.974 36.4006 368.974C36.8949 368.974 37.3523 368.909 37.7727 368.778C38.1989 368.648 38.5767 368.457 38.9062 368.207C39.2358 367.952 39.5085 367.642 39.7244 367.278C39.946 366.915 40.0994 366.5 40.1847 366.034L43.9176 366.051C43.821 366.852 43.5795 367.625 43.1932 368.369C42.8125 369.108 42.2983 369.77 41.6506 370.355C41.0085 370.935 40.2415 371.395 39.3494 371.736C38.4631 372.071 37.4602 372.239 36.3409 372.239C34.7841 372.239 33.392 371.886 32.1648 371.182C30.9432 370.477 29.9773 369.457 29.267 368.122C28.5625 366.787 28.2102 365.17 28.2102 363.273C28.2102 361.369 28.5682 359.75 29.2841 358.415C30 357.08 30.9716 356.062 32.1989 355.364C33.4261 354.659 34.8068 354.307 36.3409 354.307C37.3523 354.307 38.2898 354.449 39.1534 354.733C40.0227 355.017 40.7926 355.432 41.4631 355.977C42.1335 356.517 42.679 357.179 43.0994 357.963C43.5256 358.747 43.7983 359.645 43.9176 360.656ZM50.1264 364.432V372H46.4957V354.545H50.0241V361.219H50.1776C50.473 360.446 50.9503 359.841 51.6094 359.403C52.2685 358.96 53.0952 358.739 54.0895 358.739C54.9986 358.739 55.7912 358.938 56.4673 359.335C57.1491 359.727 57.6776 360.293 58.0526 361.031C58.4332 361.764 58.6207 362.642 58.6151 363.665V372H54.9844V364.312C54.9901 363.506 54.7855 362.878 54.3707 362.429C53.9616 361.98 53.3878 361.756 52.6491 361.756C52.1548 361.756 51.7173 361.861 51.3366 362.071C50.9616 362.281 50.6662 362.588 50.4503 362.991C50.2401 363.389 50.1321 363.869 50.1264 364.432ZM65.2053 372.247C64.37 372.247 63.6257 372.102 62.9723 371.812C62.3189 371.517 61.8018 371.082 61.4212 370.509C61.0462 369.929 60.8587 369.207 60.8587 368.344C60.8587 367.616 60.9922 367.006 61.2592 366.511C61.5263 366.017 61.8899 365.619 62.3501 365.318C62.8104 365.017 63.3331 364.79 63.9183 364.636C64.5092 364.483 65.1286 364.375 65.7763 364.312C66.5376 364.233 67.1513 364.159 67.6172 364.091C68.0831 364.017 68.4212 363.909 68.6314 363.767C68.8416 363.625 68.9467 363.415 68.9467 363.136V363.085C68.9467 362.545 68.7763 362.128 68.4354 361.832C68.1001 361.537 67.6229 361.389 67.0036 361.389C66.3501 361.389 65.8303 361.534 65.4439 361.824C65.0575 362.108 64.8018 362.466 64.6768 362.898L61.3189 362.625C61.4893 361.83 61.8246 361.142 62.3246 360.562C62.8246 359.977 63.4695 359.528 64.2592 359.216C65.0547 358.898 65.9751 358.739 67.0206 358.739C67.7479 358.739 68.4439 358.824 69.1087 358.994C69.7791 359.165 70.3729 359.429 70.8899 359.787C71.4126 360.145 71.8246 360.605 72.1257 361.168C72.4268 361.724 72.5774 362.392 72.5774 363.17V372H69.1342V370.185H69.032C68.8217 370.594 68.5405 370.955 68.1882 371.267C67.8359 371.574 67.4126 371.815 66.9183 371.991C66.424 372.162 65.853 372.247 65.2053 372.247ZM66.245 369.741C66.7791 369.741 67.2507 369.636 67.6598 369.426C68.0689 369.21 68.3899 368.92 68.6229 368.557C68.8558 368.193 68.9723 367.781 68.9723 367.321V365.932C68.8587 366.006 68.7024 366.074 68.5036 366.136C68.3104 366.193 68.0916 366.247 67.8473 366.298C67.603 366.344 67.3587 366.386 67.1143 366.426C66.87 366.46 66.6484 366.491 66.4496 366.52C66.0234 366.582 65.6513 366.682 65.3331 366.818C65.0149 366.955 64.7678 367.139 64.5916 367.372C64.4155 367.599 64.3274 367.884 64.3274 368.224C64.3274 368.719 64.5064 369.097 64.8643 369.358C65.228 369.614 65.6882 369.741 66.245 369.741ZM79.0249 364.432V372H75.3942V358.909H78.8544V361.219H79.0078C79.2976 360.457 79.7834 359.855 80.4652 359.412C81.147 358.963 81.9737 358.739 82.9453 358.739C83.8544 358.739 84.647 358.938 85.3232 359.335C85.9993 359.733 86.5249 360.301 86.8999 361.04C87.2749 361.773 87.4624 362.648 87.4624 363.665V372H83.8317V364.312C83.8374 363.511 83.6328 362.886 83.218 362.438C82.8033 361.983 82.2322 361.756 81.505 361.756C81.0163 361.756 80.5845 361.861 80.2095 362.071C79.8402 362.281 79.5504 362.588 79.3402 362.991C79.1357 363.389 79.0305 363.869 79.0249 364.432ZM93.9545 364.432V372H90.3239V358.909H93.7841V361.219H93.9375C94.2273 360.457 94.7131 359.855 95.3949 359.412C96.0767 358.963 96.9034 358.739 97.875 358.739C98.7841 358.739 99.5767 358.938 100.253 359.335C100.929 359.733 101.455 360.301 101.83 361.04C102.205 361.773 102.392 362.648 102.392 363.665V372H98.7614V364.312C98.767 363.511 98.5625 362.886 98.1477 362.438C97.733 361.983 97.1619 361.756 96.4347 361.756C95.946 361.756 95.5142 361.861 95.1392 362.071C94.7699 362.281 94.4801 362.588 94.2699 362.991C94.0653 363.389 93.9602 363.869 93.9545 364.432ZM111.219 372.256C109.873 372.256 108.714 371.983 107.742 371.438C106.776 370.886 106.032 370.108 105.509 369.102C104.987 368.091 104.725 366.895 104.725 365.514C104.725 364.168 104.987 362.986 105.509 361.969C106.032 360.952 106.768 360.159 107.717 359.591C108.671 359.023 109.79 358.739 111.075 358.739C111.938 358.739 112.742 358.878 113.487 359.156C114.237 359.429 114.89 359.841 115.447 360.392C116.009 360.943 116.447 361.636 116.759 362.472C117.072 363.301 117.228 364.273 117.228 365.386V366.384H106.174V364.134H113.81C113.81 363.611 113.697 363.148 113.469 362.744C113.242 362.341 112.927 362.026 112.523 361.798C112.126 361.565 111.663 361.449 111.134 361.449C110.583 361.449 110.094 361.577 109.668 361.832C109.248 362.082 108.918 362.42 108.68 362.847C108.441 363.267 108.319 363.736 108.313 364.253V366.392C108.313 367.04 108.433 367.599 108.671 368.071C108.915 368.543 109.259 368.906 109.702 369.162C110.146 369.418 110.671 369.545 111.279 369.545C111.683 369.545 112.052 369.489 112.387 369.375C112.722 369.261 113.009 369.091 113.248 368.864C113.487 368.636 113.668 368.358 113.793 368.028L117.151 368.25C116.981 369.057 116.631 369.761 116.103 370.364C115.58 370.96 114.904 371.426 114.075 371.761C113.251 372.091 112.299 372.256 111.219 372.256ZM123.228 354.545V372H119.597V354.545H123.228ZM135.322 354.545V372H131.691V354.545H135.322ZM138.23 372V358.909H141.861V372H138.23ZM140.054 357.222C139.514 357.222 139.051 357.043 138.665 356.685C138.284 356.321 138.094 355.886 138.094 355.381C138.094 354.881 138.284 354.452 138.665 354.094C139.051 353.73 139.514 353.548 140.054 353.548C140.594 353.548 141.054 353.73 141.435 354.094C141.821 354.452 142.014 354.881 142.014 355.381C142.014 355.886 141.821 356.321 141.435 356.685C141.054 357.043 140.594 357.222 140.054 357.222ZM155.661 362.642L152.337 362.847C152.281 362.562 152.158 362.307 151.971 362.08C151.783 361.847 151.536 361.662 151.229 361.526C150.928 361.384 150.567 361.312 150.147 361.312C149.585 361.312 149.11 361.432 148.724 361.67C148.337 361.903 148.144 362.216 148.144 362.608C148.144 362.92 148.269 363.185 148.519 363.401C148.769 363.616 149.198 363.79 149.806 363.92L152.175 364.398C153.448 364.659 154.397 365.08 155.022 365.659C155.647 366.239 155.96 367 155.96 367.943C155.96 368.801 155.707 369.554 155.201 370.202C154.701 370.849 154.013 371.355 153.138 371.719C152.269 372.077 151.266 372.256 150.13 372.256C148.397 372.256 147.016 371.895 145.988 371.173C144.965 370.446 144.366 369.457 144.19 368.207L147.761 368.02C147.869 368.548 148.13 368.952 148.545 369.23C148.96 369.503 149.491 369.639 150.138 369.639C150.775 369.639 151.286 369.517 151.673 369.273C152.065 369.023 152.263 368.702 152.269 368.31C152.263 367.98 152.124 367.71 151.852 367.5C151.579 367.284 151.158 367.119 150.59 367.006L148.323 366.554C147.045 366.298 146.093 365.855 145.468 365.224C144.849 364.594 144.539 363.79 144.539 362.812C144.539 361.972 144.766 361.247 145.221 360.639C145.681 360.031 146.326 359.562 147.156 359.233C147.991 358.903 148.968 358.739 150.087 358.739C151.741 358.739 153.042 359.088 153.991 359.787C154.945 360.486 155.502 361.437 155.661 362.642ZM165.209 358.909V361.636H157.325V358.909H165.209ZM159.115 355.773H162.746V367.977C162.746 368.312 162.797 368.574 162.899 368.761C163.001 368.943 163.143 369.071 163.325 369.145C163.513 369.219 163.729 369.256 163.973 369.256C164.143 369.256 164.314 369.241 164.484 369.213C164.655 369.179 164.786 369.153 164.876 369.136L165.447 371.838C165.266 371.895 165.01 371.96 164.68 372.034C164.351 372.114 163.95 372.162 163.479 372.179C162.604 372.213 161.837 372.097 161.178 371.83C160.524 371.562 160.016 371.148 159.652 370.585C159.288 370.023 159.109 369.312 159.115 368.455V355.773Z" fill="white"/>
<path d="M380.707 343.707C381.098 343.317 381.098 342.683 380.707 342.293L374.343 335.929C373.953 335.538 373.319 335.538 372.929 335.929C372.538 336.319 372.538 336.953 372.929 337.343L378.586 343L372.929 348.657C372.538 349.047 372.538 349.681 372.929 350.071C373.319 350.462 373.953 350.462 374.343 350.071L380.707 343.707ZM258 344H260.033V342H258V344ZM264.1 344H268.167V342H264.1V344ZM272.233 344H276.3V342H272.233V344ZM280.367 344H284.433V342H280.367V344ZM288.5 344H292.567V342H288.5V344ZM296.633 344H300.7V342H296.633V344ZM304.767 344H308.833V342H304.767V344ZM312.9 344H316.967V342H312.9V344ZM321.033 344H325.1V342H321.033V344ZM329.167 344H333.233V342H329.167V344ZM337.3 344H341.367V342H337.3V344ZM345.433 344H349.5V342H345.433V344ZM353.567 344H357.633V342H353.567V344ZM361.7 344H365.767V342H361.7V344ZM369.833 344H373.9V342H369.833V344ZM377.967 344H380V342H377.967V344ZM381.414 344.414C382.195 343.633 382.195 342.367 381.414 341.586L368.686 328.858C367.905 328.077 366.639 328.077 365.858 328.858C365.077 329.639 365.077 330.905 365.858 331.686L377.172 343L365.858 354.314C365.077 355.095 365.077 356.361 365.858 357.142C366.639 357.923 367.905 357.923 368.686 357.142L381.414 344.414ZM258 345H260.033V341H258V345ZM264.1 345H268.167V341H264.1V345ZM272.233 345H276.3V341H272.233V345ZM280.367 345H284.433V341H280.367V345ZM288.5 345H292.567V341H288.5V345ZM296.633 345H300.7V341H296.633V345ZM304.767 345H308.833V341H304.767V345ZM312.9 345H316.967V341H312.9V345ZM321.033 345H325.1V341H321.033V345ZM329.167 345H333.233V341H329.167V345ZM337.3 345H341.367V341H337.3V345ZM345.433 345H349.5V341H345.433V345ZM353.567 345H357.633V341H353.567V345ZM361.7 345H365.767V341H361.7V345ZM369.833 345H373.9V341H369.833V345ZM377.967 345H380V341H377.967V345Z" fill="#ED2C25"/>
<mask id="path-26-inside-3_7_181" fill="white">
<path d="M818 391C818 388.791 819.791 387 822 387H1099C1101.21 387 1103 388.791 1103 391V503C1103 505.209 1101.21 507 1099 507H822C819.791 507 818 505.209 818 503V391Z"/>
</mask>
<path d="M818 391C818 388.791 819.791 387 822 387H1099C1101.21 387 1103 388.791 1103 391V503C1103 505.209 1101.21 507 1099 507H822C819.791 507 818 505.209 818 503V391Z" fill="#313131" fill-opacity="0.6"/>
<path d="M822 388H1099V386H822V388ZM1102 391V503H1104V391H1102ZM1099 506H822V508H1099V506ZM819 503V391H817V503H819ZM822 506C820.343 506 819 504.657 819 503H817C817 505.761 819.239 508 822 508V506ZM1102 503C1102 504.657 1100.66 506 1099 506V508C1101.76 508 1104 505.761 1104 503H1102ZM1099 388C1100.66 388 1102 389.343 1102 391H1104C1104 388.239 1101.76 386 1099 386V388ZM822 386C819.239 386 817 388.239 817 391H819C819 389.343 820.343 388 822 388V386Z" fill="white" mask="url(#path-26-inside-3_7_181)"/>
<path opacity="0.8" d="M847.114 440V422.545H853.011C854.381 422.545 855.5 422.793 856.369 423.287C857.244 423.776 857.892 424.438 858.312 425.273C858.733 426.108 858.943 427.04 858.943 428.068C858.943 429.097 858.733 430.031 858.312 430.872C857.898 431.713 857.256 432.384 856.386 432.884C855.517 433.378 854.403 433.625 853.045 433.625H848.818V431.75H852.977C853.915 431.75 854.668 431.588 855.236 431.264C855.804 430.94 856.216 430.503 856.472 429.952C856.733 429.395 856.864 428.767 856.864 428.068C856.864 427.369 856.733 426.744 856.472 426.193C856.216 425.642 855.801 425.21 855.227 424.898C854.653 424.58 853.892 424.42 852.943 424.42H849.227V440H847.114ZM862.075 440V426.909H864.018V428.886H864.155C864.393 428.239 864.825 427.713 865.45 427.31C866.075 426.906 866.78 426.705 867.564 426.705C867.712 426.705 867.896 426.707 868.118 426.713C868.339 426.719 868.507 426.727 868.621 426.739V428.784C868.553 428.767 868.396 428.741 868.152 428.707C867.913 428.668 867.661 428.648 867.393 428.648C866.757 428.648 866.189 428.781 865.689 429.048C865.195 429.31 864.803 429.673 864.513 430.139C864.229 430.599 864.087 431.125 864.087 431.716V440H862.075ZM876.095 440.273C874.834 440.273 873.746 439.994 872.831 439.438C871.922 438.875 871.22 438.091 870.726 437.085C870.237 436.074 869.993 434.898 869.993 433.557C869.993 432.216 870.237 431.034 870.726 430.011C871.22 428.983 871.908 428.182 872.788 427.608C873.675 427.028 874.709 426.739 875.891 426.739C876.572 426.739 877.246 426.852 877.911 427.08C878.575 427.307 879.18 427.676 879.726 428.188C880.271 428.693 880.706 429.364 881.03 430.199C881.354 431.034 881.516 432.062 881.516 433.284V434.136H871.425V432.398H879.47C879.47 431.659 879.322 431 879.027 430.42C878.737 429.841 878.322 429.384 877.783 429.048C877.249 428.713 876.618 428.545 875.891 428.545C875.089 428.545 874.396 428.744 873.811 429.142C873.232 429.534 872.786 430.045 872.473 430.676C872.161 431.307 872.004 431.983 872.004 432.705V433.864C872.004 434.852 872.175 435.69 872.516 436.378C872.862 437.06 873.342 437.58 873.956 437.938C874.57 438.29 875.283 438.466 876.095 438.466C876.624 438.466 877.101 438.392 877.527 438.244C877.959 438.091 878.331 437.864 878.643 437.562C878.956 437.256 879.197 436.875 879.368 436.42L881.311 436.966C881.107 437.625 880.763 438.205 880.28 438.705C879.797 439.199 879.2 439.585 878.49 439.864C877.78 440.136 876.982 440.273 876.095 440.273ZM893.848 429.841L892.041 430.352C891.928 430.051 891.76 429.759 891.538 429.474C891.322 429.185 891.027 428.946 890.652 428.759C890.277 428.571 889.797 428.477 889.212 428.477C888.411 428.477 887.743 428.662 887.209 429.031C886.68 429.395 886.416 429.858 886.416 430.42C886.416 430.92 886.598 431.315 886.962 431.605C887.325 431.895 887.893 432.136 888.666 432.33L890.609 432.807C891.78 433.091 892.652 433.526 893.226 434.111C893.8 434.69 894.087 435.437 894.087 436.352C894.087 437.102 893.871 437.773 893.439 438.364C893.013 438.955 892.416 439.42 891.649 439.761C890.882 440.102 889.99 440.273 888.973 440.273C887.638 440.273 886.533 439.983 885.658 439.403C884.783 438.824 884.229 437.977 883.996 436.864L885.905 436.386C886.087 437.091 886.43 437.619 886.936 437.972C887.447 438.324 888.115 438.5 888.939 438.5C889.876 438.5 890.621 438.301 891.172 437.903C891.729 437.5 892.007 437.017 892.007 436.455C892.007 436 891.848 435.619 891.53 435.312C891.212 435 890.723 434.767 890.064 434.614L887.882 434.102C886.683 433.818 885.803 433.378 885.24 432.781C884.683 432.179 884.405 431.426 884.405 430.523C884.405 429.784 884.612 429.131 885.027 428.562C885.447 427.994 886.018 427.548 886.74 427.224C887.467 426.901 888.291 426.739 889.212 426.739C890.507 426.739 891.524 427.023 892.263 427.591C893.007 428.159 893.536 428.909 893.848 429.841ZM906.387 429.841L904.58 430.352C904.467 430.051 904.299 429.759 904.077 429.474C903.862 429.185 903.566 428.946 903.191 428.759C902.816 428.571 902.336 428.477 901.751 428.477C900.95 428.477 900.282 428.662 899.748 429.031C899.219 429.395 898.955 429.858 898.955 430.42C898.955 430.92 899.137 431.315 899.501 431.605C899.864 431.895 900.433 432.136 901.205 432.33L903.148 432.807C904.319 433.091 905.191 433.526 905.765 434.111C906.339 434.69 906.626 435.437 906.626 436.352C906.626 437.102 906.41 437.773 905.978 438.364C905.552 438.955 904.955 439.42 904.188 439.761C903.421 440.102 902.529 440.273 901.512 440.273C900.177 440.273 899.072 439.983 898.197 439.403C897.322 438.824 896.768 437.977 896.535 436.864L898.444 436.386C898.626 437.091 898.969 437.619 899.475 437.972C899.987 438.324 900.654 438.5 901.478 438.5C902.415 438.5 903.16 438.301 903.711 437.903C904.268 437.5 904.546 437.017 904.546 436.455C904.546 436 904.387 435.619 904.069 435.312C903.751 435 903.262 434.767 902.603 434.614L900.421 434.102C899.222 433.818 898.342 433.378 897.779 432.781C897.222 432.179 896.944 431.426 896.944 430.523C896.944 429.784 897.151 429.131 897.566 428.562C897.987 427.994 898.558 427.548 899.279 427.224C900.006 426.901 900.83 426.739 901.751 426.739C903.046 426.739 904.063 427.023 904.802 427.591C905.546 428.159 906.075 428.909 906.387 429.841Z" fill="white"/>
<path opacity="0.8" d="M938.397 431.273C938.397 433.176 938.036 434.795 937.314 436.131C936.598 437.466 935.621 438.486 934.382 439.19C933.15 439.889 931.763 440.239 930.223 440.239C928.672 440.239 927.28 439.886 926.047 439.182C924.814 438.477 923.84 437.457 923.124 436.122C922.408 434.787 922.05 433.17 922.05 431.273C922.05 429.369 922.408 427.75 923.124 426.415C923.84 425.08 924.814 424.062 926.047 423.364C927.28 422.659 928.672 422.307 930.223 422.307C931.763 422.307 933.15 422.659 934.382 423.364C935.621 424.062 936.598 425.08 937.314 426.415C938.036 427.75 938.397 429.369 938.397 431.273ZM934.655 431.273C934.655 430.04 934.471 429 934.101 428.153C933.738 427.307 933.223 426.665 932.559 426.227C931.894 425.79 931.115 425.571 930.223 425.571C929.331 425.571 928.553 425.79 927.888 426.227C927.223 426.665 926.706 427.307 926.337 428.153C925.973 429 925.792 430.04 925.792 431.273C925.792 432.506 925.973 433.545 926.337 434.392C926.706 435.239 927.223 435.881 927.888 436.318C928.553 436.756 929.331 436.974 930.223 436.974C931.115 436.974 931.894 436.756 932.559 436.318C933.223 435.881 933.738 435.239 934.101 434.392C934.471 433.545 934.655 432.506 934.655 431.273ZM941.13 440V422.545H944.821V430.241H945.051L951.332 422.545H955.755L949.278 430.361L955.832 440H951.417L946.636 432.824L944.821 435.04V440H941.13Z" fill="white"/>
<path opacity="0.8" d="M975.534 426.909V428.614H968.75V426.909H975.534ZM970.727 423.773H972.739V436.25C972.739 436.818 972.821 437.244 972.986 437.528C973.156 437.807 973.372 437.994 973.634 438.091C973.901 438.182 974.182 438.227 974.477 438.227C974.699 438.227 974.881 438.216 975.023 438.193C975.165 438.165 975.278 438.142 975.364 438.125L975.773 439.932C975.636 439.983 975.446 440.034 975.202 440.085C974.957 440.142 974.648 440.17 974.273 440.17C973.705 440.17 973.148 440.048 972.602 439.804C972.063 439.56 971.614 439.188 971.256 438.688C970.903 438.188 970.727 437.557 970.727 436.795V423.773ZM983.737 440.273C982.555 440.273 981.518 439.991 980.626 439.429C979.74 438.866 979.047 438.08 978.547 437.068C978.053 436.057 977.805 434.875 977.805 433.523C977.805 432.159 978.053 430.969 978.547 429.952C979.047 428.935 979.74 428.145 980.626 427.582C981.518 427.02 982.555 426.739 983.737 426.739C984.919 426.739 985.953 427.02 986.839 427.582C987.732 428.145 988.425 428.935 988.919 429.952C989.419 430.969 989.669 432.159 989.669 433.523C989.669 434.875 989.419 436.057 988.919 437.068C988.425 438.08 987.732 438.866 986.839 439.429C985.953 439.991 984.919 440.273 983.737 440.273ZM983.737 438.466C984.635 438.466 985.374 438.236 985.953 437.776C986.533 437.315 986.962 436.71 987.24 435.96C987.518 435.21 987.658 434.398 987.658 433.523C987.658 432.648 987.518 431.832 987.24 431.077C986.962 430.321 986.533 429.71 985.953 429.244C985.374 428.778 984.635 428.545 983.737 428.545C982.839 428.545 982.101 428.778 981.521 429.244C980.942 429.71 980.513 430.321 980.234 431.077C979.956 431.832 979.817 432.648 979.817 433.523C979.817 434.398 979.956 435.21 980.234 435.96C980.513 436.71 980.942 437.315 981.521 437.776C982.101 438.236 982.839 438.466 983.737 438.466Z" fill="white"/>
<path opacity="0.8" d="M855.986 463.565C855.918 462.878 855.625 462.344 855.108 461.963C854.591 461.582 853.889 461.392 853.003 461.392C852.401 461.392 851.892 461.477 851.477 461.648C851.063 461.812 850.744 462.043 850.523 462.338C850.307 462.634 850.199 462.969 850.199 463.344C850.188 463.656 850.253 463.929 850.395 464.162C850.543 464.395 850.744 464.597 851 464.767C851.256 464.932 851.551 465.077 851.886 465.202C852.222 465.321 852.58 465.423 852.96 465.509L854.528 465.884C855.29 466.054 855.989 466.281 856.625 466.565C857.261 466.849 857.813 467.199 858.278 467.614C858.744 468.028 859.105 468.517 859.361 469.08C859.622 469.642 859.756 470.287 859.761 471.014C859.756 472.082 859.483 473.009 858.943 473.793C858.409 474.571 857.636 475.176 856.625 475.608C855.619 476.034 854.406 476.247 852.986 476.247C851.577 476.247 850.349 476.031 849.304 475.599C848.264 475.168 847.452 474.528 846.866 473.682C846.287 472.83 845.983 471.776 845.955 470.52H849.526C849.565 471.105 849.733 471.594 850.028 471.986C850.33 472.372 850.73 472.665 851.23 472.864C851.736 473.057 852.307 473.153 852.943 473.153C853.568 473.153 854.111 473.062 854.571 472.881C855.037 472.699 855.398 472.446 855.653 472.122C855.909 471.798 856.037 471.426 856.037 471.006C856.037 470.614 855.92 470.284 855.688 470.017C855.46 469.75 855.125 469.523 854.682 469.335C854.244 469.148 853.707 468.977 853.071 468.824L851.17 468.347C849.699 467.989 848.537 467.429 847.685 466.668C846.832 465.906 846.409 464.881 846.415 463.591C846.409 462.534 846.69 461.611 847.259 460.821C847.832 460.031 848.619 459.415 849.619 458.972C850.619 458.528 851.756 458.307 853.028 458.307C854.324 458.307 855.455 458.528 856.42 458.972C857.392 459.415 858.148 460.031 858.688 460.821C859.227 461.611 859.506 462.526 859.523 463.565H855.986ZM868.141 476.256C866.795 476.256 865.636 475.983 864.664 475.438C863.698 474.886 862.954 474.108 862.431 473.102C861.908 472.091 861.647 470.895 861.647 469.514C861.647 468.168 861.908 466.986 862.431 465.969C862.954 464.952 863.69 464.159 864.638 463.591C865.593 463.023 866.712 462.739 867.996 462.739C868.86 462.739 869.664 462.878 870.408 463.156C871.158 463.429 871.812 463.841 872.369 464.392C872.931 464.943 873.369 465.636 873.681 466.472C873.994 467.301 874.15 468.273 874.15 469.386V470.384H863.096V468.134H870.732C870.732 467.611 870.619 467.148 870.391 466.744C870.164 466.341 869.849 466.026 869.445 465.798C869.048 465.565 868.585 465.449 868.056 465.449C867.505 465.449 867.016 465.577 866.59 465.832C866.17 466.082 865.84 466.42 865.602 466.847C865.363 467.267 865.241 467.736 865.235 468.253V470.392C865.235 471.04 865.354 471.599 865.593 472.071C865.837 472.543 866.181 472.906 866.624 473.162C867.067 473.418 867.593 473.545 868.201 473.545C868.604 473.545 868.974 473.489 869.309 473.375C869.644 473.261 869.931 473.091 870.17 472.864C870.408 472.636 870.59 472.358 870.715 472.028L874.073 472.25C873.903 473.057 873.553 473.761 873.025 474.364C872.502 474.96 871.826 475.426 870.996 475.761C870.173 476.091 869.221 476.256 868.141 476.256ZM882.485 476.256C881.138 476.256 879.979 475.983 879.008 475.438C878.042 474.886 877.298 474.108 876.775 473.102C876.252 472.091 875.991 470.895 875.991 469.514C875.991 468.168 876.252 466.986 876.775 465.969C877.298 464.952 878.033 464.159 878.982 463.591C879.937 463.023 881.056 462.739 882.34 462.739C883.204 462.739 884.008 462.878 884.752 463.156C885.502 463.429 886.156 463.841 886.712 464.392C887.275 464.943 887.712 465.636 888.025 466.472C888.337 467.301 888.494 468.273 888.494 469.386V470.384H877.44V468.134H885.076C885.076 467.611 884.962 467.148 884.735 466.744C884.508 466.341 884.192 466.026 883.789 465.798C883.391 465.565 882.928 465.449 882.4 465.449C881.849 465.449 881.36 465.577 880.934 465.832C880.513 466.082 880.184 466.42 879.945 466.847C879.707 467.267 879.585 467.736 879.579 468.253V470.392C879.579 471.04 879.698 471.599 879.937 472.071C880.181 472.543 880.525 472.906 880.968 473.162C881.411 473.418 881.937 473.545 882.545 473.545C882.948 473.545 883.317 473.489 883.653 473.375C883.988 473.261 884.275 473.091 884.513 472.864C884.752 472.636 884.934 472.358 885.059 472.028L888.417 472.25C888.246 473.057 887.897 473.761 887.369 474.364C886.846 474.96 886.17 475.426 885.34 475.761C884.516 476.091 883.565 476.256 882.485 476.256ZM894.153 472.233L894.161 467.878H894.69L898.883 462.909H903.05L897.417 469.489H896.556L894.153 472.233ZM890.863 476V458.545H894.494V476H890.863ZM899.045 476L895.192 470.298L897.613 467.733L903.298 476H899.045ZM916.097 476.273C914.915 476.273 913.878 475.991 912.986 475.429C912.099 474.866 911.406 474.08 910.906 473.068C910.412 472.057 910.165 470.875 910.165 469.523C910.165 468.159 910.412 466.969 910.906 465.952C911.406 464.935 912.099 464.145 912.986 463.582C913.878 463.02 914.915 462.739 916.097 462.739C917.278 462.739 918.313 463.02 919.199 463.582C920.091 464.145 920.784 464.935 921.278 465.952C921.778 466.969 922.028 468.159 922.028 469.523C922.028 470.875 921.778 472.057 921.278 473.068C920.784 474.08 920.091 474.866 919.199 475.429C918.313 475.991 917.278 476.273 916.097 476.273ZM916.097 474.466C916.994 474.466 917.733 474.236 918.312 473.776C918.892 473.315 919.321 472.71 919.599 471.96C919.878 471.21 920.017 470.398 920.017 469.523C920.017 468.648 919.878 467.832 919.599 467.077C919.321 466.321 918.892 465.71 918.312 465.244C917.733 464.778 916.994 464.545 916.097 464.545C915.199 464.545 914.46 464.778 913.881 465.244C913.301 465.71 912.872 466.321 912.594 467.077C912.315 467.832 912.176 468.648 912.176 469.523C912.176 470.398 912.315 471.21 912.594 471.96C912.872 472.71 913.301 473.315 913.881 473.776C914.46 474.236 915.199 474.466 916.097 474.466ZM925.099 476V462.909H927.042V464.886H927.178C927.417 464.239 927.849 463.713 928.474 463.31C929.099 462.906 929.803 462.705 930.587 462.705C930.735 462.705 930.92 462.707 931.141 462.713C931.363 462.719 931.531 462.727 931.644 462.739V464.784C931.576 464.767 931.42 464.741 931.175 464.707C930.937 464.668 930.684 464.648 930.417 464.648C929.781 464.648 929.212 464.781 928.712 465.048C928.218 465.31 927.826 465.673 927.536 466.139C927.252 466.599 927.11 467.125 927.11 467.716V476H925.099ZM939.259 476V458.545H946.146C947.464 458.545 948.589 458.781 949.521 459.253C950.458 459.719 951.171 460.381 951.66 461.239C952.154 462.091 952.401 463.094 952.401 464.247C952.401 465.406 952.151 466.403 951.651 467.239C951.151 468.068 950.427 468.705 949.478 469.148C948.535 469.591 947.393 469.812 946.052 469.812H941.441V466.847H945.455C946.16 466.847 946.745 466.75 947.211 466.557C947.677 466.364 948.023 466.074 948.251 465.688C948.484 465.301 948.6 464.821 948.6 464.247C948.6 463.668 948.484 463.179 948.251 462.781C948.023 462.384 947.674 462.082 947.202 461.878C946.737 461.668 946.148 461.562 945.438 461.562H942.95V476H939.259ZM948.685 468.057L953.023 476H948.95L944.705 468.057H948.685ZM960.696 476.256C959.349 476.256 958.19 475.983 957.219 475.438C956.253 474.886 955.509 474.108 954.986 473.102C954.463 472.091 954.202 470.895 954.202 469.514C954.202 468.168 954.463 466.986 954.986 465.969C955.509 464.952 956.244 464.159 957.193 463.591C958.148 463.023 959.267 462.739 960.551 462.739C961.415 462.739 962.219 462.878 962.963 463.156C963.713 463.429 964.366 463.841 964.923 464.392C965.486 464.943 965.923 465.636 966.236 466.472C966.548 467.301 966.705 468.273 966.705 469.386V470.384H955.651V468.134H963.287C963.287 467.611 963.173 467.148 962.946 466.744C962.719 466.341 962.403 466.026 962 465.798C961.602 465.565 961.139 465.449 960.611 465.449C960.06 465.449 959.571 465.577 959.145 465.832C958.724 466.082 958.395 466.42 958.156 466.847C957.918 467.267 957.795 467.736 957.79 468.253V470.392C957.79 471.04 957.909 471.599 958.148 472.071C958.392 472.543 958.736 472.906 959.179 473.162C959.622 473.418 960.148 473.545 960.756 473.545C961.159 473.545 961.528 473.489 961.864 473.375C962.199 473.261 962.486 473.091 962.724 472.864C962.963 472.636 963.145 472.358 963.27 472.028L966.628 472.25C966.457 473.057 966.108 473.761 965.58 474.364C965.057 474.96 964.381 475.426 963.551 475.761C962.727 476.091 961.776 476.256 960.696 476.256ZM969.074 480.909V462.909H972.653V465.108H972.815C972.974 464.756 973.205 464.398 973.506 464.034C973.813 463.665 974.21 463.358 974.699 463.114C975.193 462.864 975.807 462.739 976.54 462.739C977.494 462.739 978.375 462.989 979.182 463.489C979.989 463.983 980.634 464.73 981.116 465.73C981.599 466.724 981.841 467.972 981.841 469.472C981.841 470.932 981.605 472.165 981.134 473.17C980.668 474.17 980.031 474.929 979.224 475.446C978.423 475.957 977.526 476.213 976.531 476.213C975.827 476.213 975.227 476.097 974.733 475.864C974.244 475.631 973.844 475.338 973.531 474.986C973.219 474.628 972.98 474.267 972.815 473.903H972.705V480.909H969.074ZM972.628 469.455C972.628 470.233 972.736 470.912 972.952 471.491C973.168 472.071 973.48 472.523 973.889 472.847C974.298 473.165 974.795 473.324 975.381 473.324C975.972 473.324 976.472 473.162 976.881 472.838C977.29 472.509 977.599 472.054 977.81 471.474C978.026 470.889 978.134 470.216 978.134 469.455C978.134 468.699 978.028 468.034 977.818 467.46C977.608 466.886 977.298 466.437 976.889 466.114C976.48 465.79 975.977 465.628 975.381 465.628C974.79 465.628 974.29 465.784 973.881 466.097C973.477 466.409 973.168 466.852 972.952 467.426C972.736 468 972.628 468.676 972.628 469.455ZM987.892 458.545V476H984.261V458.545H987.892ZM994.533 476.247C993.698 476.247 992.954 476.102 992.3 475.812C991.647 475.517 991.13 475.082 990.749 474.509C990.374 473.929 990.187 473.207 990.187 472.344C990.187 471.616 990.32 471.006 990.587 470.511C990.854 470.017 991.218 469.619 991.678 469.318C992.138 469.017 992.661 468.79 993.246 468.636C993.837 468.483 994.457 468.375 995.104 468.312C995.866 468.233 996.479 468.159 996.945 468.091C997.411 468.017 997.749 467.909 997.96 467.767C998.17 467.625 998.275 467.415 998.275 467.136V467.085C998.275 466.545 998.104 466.128 997.763 465.832C997.428 465.537 996.951 465.389 996.332 465.389C995.678 465.389 995.158 465.534 994.772 465.824C994.386 466.108 994.13 466.466 994.005 466.898L990.647 466.625C990.817 465.83 991.153 465.142 991.653 464.562C992.153 463.977 992.798 463.528 993.587 463.216C994.383 462.898 995.303 462.739 996.349 462.739C997.076 462.739 997.772 462.824 998.437 462.994C999.107 463.165 999.701 463.429 1000.22 463.787C1000.74 464.145 1001.15 464.605 1001.45 465.168C1001.75 465.724 1001.91 466.392 1001.91 467.17V476H998.462V474.185H998.36C998.15 474.594 997.869 474.955 997.516 475.267C997.164 475.574 996.741 475.815 996.246 475.991C995.752 476.162 995.181 476.247 994.533 476.247ZM995.573 473.741C996.107 473.741 996.579 473.636 996.988 473.426C997.397 473.21 997.718 472.92 997.951 472.557C998.184 472.193 998.3 471.781 998.3 471.321V469.932C998.187 470.006 998.031 470.074 997.832 470.136C997.638 470.193 997.42 470.247 997.175 470.298C996.931 470.344 996.687 470.386 996.442 470.426C996.198 470.46 995.977 470.491 995.778 470.52C995.352 470.582 994.979 470.682 994.661 470.818C994.343 470.955 994.096 471.139 993.92 471.372C993.744 471.599 993.656 471.884 993.656 472.224C993.656 472.719 993.835 473.097 994.192 473.358C994.556 473.614 995.016 473.741 995.573 473.741ZM1006.5 480.909C1006.03 480.909 1005.6 480.872 1005.2 480.798C1004.8 480.73 1004.47 480.642 1004.21 480.534L1005.03 477.824C1005.46 477.955 1005.84 478.026 1006.18 478.037C1006.53 478.048 1006.82 477.969 1007.07 477.798C1007.33 477.628 1007.54 477.338 1007.7 476.929L1007.91 476.375L1003.21 462.909H1007.03L1009.74 472.523H1009.88L1012.61 462.909H1016.46L1011.37 477.415C1011.13 478.119 1010.79 478.733 1010.37 479.256C1009.96 479.784 1009.43 480.19 1008.8 480.474C1008.16 480.764 1007.39 480.909 1006.5 480.909Z" fill="white"/>
<path d="M590.511 386.128C590.029 386.397 589.858 387.007 590.128 387.489L594.526 395.341C594.796 395.823 595.405 395.994 595.887 395.725C596.369 395.455 596.541 394.845 596.271 394.363L592.361 387.384L599.341 383.474C599.823 383.204 599.994 382.595 599.725 382.113C599.455 381.631 598.845 381.459 598.363 381.729L590.511 386.128ZM818.271 450.038L816.314 449.486L815.772 451.411L817.729 451.962L818.271 450.038ZM812.401 448.382L808.487 447.279L807.944 449.204L811.858 450.307L812.401 448.382ZM804.573 446.175L800.659 445.072L800.117 446.997L804.03 448.1L804.573 446.175ZM796.745 443.969L792.832 442.865L792.289 444.79L796.203 445.894L796.745 443.969ZM788.918 441.762L785.004 440.658L784.461 442.583L788.375 443.687L788.918 441.762ZM781.09 439.555L777.177 438.451L776.634 440.376L780.548 441.48L781.09 439.555ZM773.263 437.348L769.349 436.244L768.806 438.169L772.72 439.273L773.263 437.348ZM765.435 435.141L761.521 434.038L760.979 435.962L764.892 437.066L765.435 435.141ZM757.608 432.934L753.694 431.831L753.151 433.756L757.065 434.859L757.608 432.934ZM749.78 430.727L745.866 429.624L745.323 431.549L749.237 432.652L749.78 430.727ZM741.952 428.52L738.039 427.417L737.496 429.342L741.41 430.445L741.952 428.52ZM734.125 426.313L730.211 425.21L729.668 427.135L733.582 428.238L734.125 426.313ZM726.297 424.106L722.383 423.003L721.841 424.928L725.755 426.031L726.297 424.106ZM718.47 421.9L714.556 420.796L714.013 422.721L717.927 423.825L718.47 421.9ZM710.642 419.693L706.728 418.589L706.186 420.514L710.099 421.618L710.642 419.693ZM702.814 417.486L698.901 416.382L698.358 418.307L702.272 419.411L702.814 417.486ZM694.987 415.279L691.073 414.175L690.53 416.1L694.444 417.204L694.987 415.279ZM687.159 413.072L683.246 411.969L682.703 413.894L686.617 414.997L687.159 413.072ZM679.332 410.865L675.418 409.762L674.875 411.687L678.789 412.79L679.332 410.865ZM671.504 408.658L667.59 407.555L667.048 409.48L670.961 410.583L671.504 408.658ZM663.677 406.451L659.763 405.348L659.22 407.273L663.134 408.376L663.677 406.451ZM655.849 404.244L651.935 403.141L651.392 405.066L655.306 406.169L655.849 404.244ZM648.021 402.038L644.108 400.934L643.565 402.859L647.479 403.962L648.021 402.038ZM640.194 399.831L636.28 398.727L635.737 400.652L639.651 401.756L640.194 399.831ZM632.366 397.624L628.452 396.52L627.91 398.445L631.823 399.549L632.366 397.624ZM624.539 395.417L620.625 394.313L620.082 396.238L623.996 397.342L624.539 395.417ZM616.711 393.21L612.797 392.106L612.254 394.031L616.168 395.135L616.711 393.21ZM608.883 391.003L604.97 389.9L604.427 391.825L608.341 392.928L608.883 391.003ZM601.056 388.796L597.142 387.693L596.599 389.618L600.513 390.721L601.056 388.796ZM593.228 386.589L591.271 386.038L590.729 387.962L592.685 388.514L593.228 386.589ZM590.023 385.255C589.059 385.795 588.715 387.014 589.255 387.977L598.052 403.682C598.591 404.645 599.81 404.989 600.774 404.449C601.738 403.909 602.081 402.69 601.541 401.727L593.722 387.768L607.682 379.948C608.645 379.409 608.989 378.19 608.449 377.226C607.909 376.262 606.69 375.919 605.727 376.459L590.023 385.255ZM818.543 449.075L816.586 448.523L815.5 452.373L817.457 452.925L818.543 449.075ZM812.672 447.42L808.758 446.316L807.673 450.166L811.587 451.27L812.672 447.42ZM804.844 445.213L800.931 444.11L799.845 447.959L803.759 449.063L804.844 445.213ZM797.017 443.006L793.103 441.903L792.018 445.753L795.931 446.856L797.017 443.006ZM789.189 440.799L785.275 439.696L784.19 443.546L788.104 444.649L789.189 440.799ZM781.362 438.592L777.448 437.489L776.362 441.339L780.276 442.442L781.362 438.592ZM773.534 436.385L769.62 435.282L768.535 439.132L772.449 440.235L773.534 436.385ZM765.707 434.178L761.793 433.075L760.707 436.925L764.621 438.028L765.707 434.178ZM757.879 431.972L753.965 430.868L752.88 434.718L756.793 435.822L757.879 431.972ZM750.051 429.765L746.138 428.661L745.052 432.511L748.966 433.615L750.051 429.765ZM742.224 427.558L738.31 426.454L737.225 430.304L741.138 431.408L742.224 427.558ZM734.396 425.351L730.482 424.247L729.397 428.097L733.311 429.201L734.396 425.351ZM726.569 423.144L722.655 422.041L721.569 425.89L725.483 426.994L726.569 423.144ZM718.741 420.937L714.827 419.834L713.742 423.684L717.656 424.787L718.741 420.937ZM710.913 418.73L707 417.627L705.914 421.477L709.828 422.58L710.913 418.73ZM703.086 416.523L699.172 415.42L698.087 419.27L702 420.373L703.086 416.523ZM695.258 414.316L691.344 413.213L690.259 417.063L694.173 418.166L695.258 414.316ZM687.431 412.11L683.517 411.006L682.431 414.856L686.345 415.959L687.431 412.11ZM679.603 409.903L675.689 408.799L674.604 412.649L678.518 413.753L679.603 409.903ZM671.775 407.696L667.862 406.592L666.776 410.442L670.69 411.546L671.775 407.696ZM663.948 405.489L660.034 404.385L658.949 408.235L662.862 409.339L663.948 405.489ZM656.12 403.282L652.206 402.178L651.121 406.028L655.035 407.132L656.12 403.282ZM648.293 401.075L644.379 399.972L643.293 403.822L647.207 404.925L648.293 401.075ZM640.465 398.868L636.551 397.765L635.466 401.615L639.38 402.718L640.465 398.868ZM632.638 396.661L628.724 395.558L627.638 399.408L631.552 400.511L632.638 396.661ZM624.81 394.454L620.896 393.351L619.811 397.201L623.724 398.304L624.81 394.454ZM616.982 392.247L613.069 391.144L611.983 394.994L615.897 396.097L616.982 392.247ZM609.155 390.041L605.241 388.937L604.155 392.787L608.069 393.89L609.155 390.041ZM601.327 387.834L597.413 386.73L596.328 390.58L600.242 391.684L601.327 387.834ZM593.5 385.627L591.543 385.075L590.457 388.925L592.414 389.477L593.5 385.627Z" fill="#ED2C25"/>
<defs>
<clipPath id="clip0_7_181">
<rect width="80" height="80" fill="white" transform="translate(615 302)"/>
</clipPath>
<clipPath id="clip1_7_181">
<rect width="80" height="80" fill="white" transform="translate(447 382) rotate(-180)"/>
</clipPath>
<clipPath id="clip2_7_181">
<rect width="80" height="80" fill="white" transform="translate(491 258) rotate(-90)"/>
</clipPath>
<clipPath id="clip3_7_181">
<rect width="80" height="80" fill="white" transform="translate(571 426) rotate(90)"/>
</clipPath>
<clipPath id="clip4_7_181">
<rect width="40" height="40" fill="white" transform="translate(682 60) rotate(-90)"/>
</clipPath>
<clipPath id="clip5_7_181">
<rect width="40" height="40" fill="white" transform="translate(786 20) rotate(90)"/>
</clipPath>
<clipPath id="clip6_7_181">
<rect width="40" height="40" fill="white" transform="translate(140 347) rotate(180)"/>
</clipPath>
</defs>
</svg>
