<svg viewBox="0 0 1103 522" fill="none" xmlns="http://www.w3.org/2000/svg">
<circle opacity="0.8" cx="531" cy="342" r="180" fill="#232323"/>
<g clip-path="url(#clip0_3_15)">
<path d="M667.601 344.395C667.833 344.163 668.018 343.888 668.143 343.585C668.269 343.281 668.334 342.956 668.333 342.628V341.363C668.326 340.673 668.048 340.05 667.601 339.595L650.468 322.495C650.314 322.338 650.129 322.214 649.926 322.129C649.723 322.044 649.505 322 649.284 322C649.064 322 648.846 322.044 648.643 322.129C648.44 322.214 648.255 322.338 648.101 322.495L645.733 324.863C645.577 325.014 645.454 325.196 645.369 325.396C645.284 325.596 645.241 325.812 645.241 326.029C645.241 326.246 645.284 326.462 645.369 326.662C645.454 326.862 645.577 327.044 645.733 327.195L660.568 341.995L645.733 356.795C645.576 356.95 645.452 357.134 645.367 357.337C645.282 357.541 645.238 357.759 645.238 357.979C645.238 358.199 645.282 358.417 645.367 358.62C645.452 358.824 645.576 359.008 645.733 359.163L648.101 361.495C648.255 361.652 648.44 361.777 648.643 361.862C648.846 361.947 649.064 361.99 649.284 361.99C649.505 361.99 649.723 361.947 649.926 361.862C650.129 361.777 650.314 361.652 650.468 361.495L667.601 344.395Z" fill="white"/>
</g>
<g clip-path="url(#clip1_3_15)">
<path d="M394.399 339.605C394.167 339.837 393.982 340.112 393.857 340.415C393.731 340.719 393.666 341.044 393.667 341.372L393.667 342.637C393.674 343.327 393.952 343.95 394.399 344.405L411.532 361.505C411.686 361.662 411.871 361.786 412.074 361.871C412.277 361.956 412.495 362 412.716 362C412.936 362 413.154 361.956 413.357 361.871C413.56 361.786 413.745 361.662 413.899 361.505L416.267 359.137C416.423 358.986 416.546 358.804 416.631 358.604C416.716 358.404 416.759 358.189 416.759 357.971C416.759 357.754 416.716 357.538 416.631 357.338C416.546 357.138 416.423 356.956 416.267 356.805L401.432 342.005L416.267 327.205C416.424 327.05 416.548 326.866 416.633 326.663C416.718 326.459 416.762 326.241 416.762 326.021C416.762 325.801 416.718 325.583 416.633 325.38C416.548 325.176 416.424 324.992 416.267 324.837L413.899 322.505C413.745 322.348 413.56 322.223 413.357 322.138C413.154 322.053 412.936 322.01 412.716 322.01C412.495 322.01 412.277 322.053 412.074 322.138C411.871 322.223 411.686 322.348 411.532 322.505L394.399 339.605Z" fill="white"/>
</g>
<g clip-path="url(#clip2_3_15)">
<path d="M533.395 205.399C533.163 205.167 532.888 204.982 532.585 204.857C532.281 204.731 531.956 204.666 531.628 204.667L530.363 204.667C529.673 204.674 529.05 204.952 528.595 205.399L511.495 222.532C511.338 222.686 511.214 222.871 511.129 223.074C511.044 223.277 511 223.495 511 223.716C511 223.936 511.044 224.154 511.129 224.357C511.214 224.56 511.338 224.745 511.495 224.899L513.863 227.267C514.014 227.423 514.196 227.546 514.396 227.631C514.596 227.716 514.812 227.759 515.029 227.759C515.246 227.759 515.462 227.716 515.662 227.631C515.862 227.546 516.044 227.423 516.195 227.267L530.995 212.432L545.795 227.267C545.95 227.424 546.134 227.548 546.337 227.633C546.541 227.718 546.759 227.762 546.979 227.762C547.199 227.762 547.417 227.718 547.62 227.633C547.824 227.548 548.008 227.424 548.163 227.267L550.495 224.899C550.652 224.745 550.777 224.56 550.862 224.357C550.947 224.154 550.99 223.936 550.99 223.716C550.99 223.495 550.947 223.277 550.862 223.074C550.777 222.871 550.652 222.686 550.495 222.532L533.395 205.399Z" fill="white"/>
</g>
<g clip-path="url(#clip3_3_15)">
<path d="M528.605 478.601C528.837 478.833 529.112 479.018 529.415 479.143C529.719 479.269 530.044 479.334 530.372 479.333L531.637 479.333C532.327 479.326 532.95 479.048 533.405 478.601L550.505 461.468C550.662 461.314 550.786 461.129 550.871 460.926C550.956 460.723 551 460.505 551 460.284C551 460.064 550.956 459.846 550.871 459.643C550.786 459.44 550.662 459.255 550.505 459.101L548.137 456.733C547.986 456.577 547.804 456.454 547.604 456.369C547.404 456.284 547.189 456.241 546.971 456.241C546.754 456.241 546.538 456.284 546.338 456.369C546.138 456.454 545.956 456.577 545.805 456.733L531.005 471.568L516.205 456.733C516.05 456.576 515.866 456.452 515.663 456.367C515.459 456.282 515.241 456.238 515.021 456.238C514.801 456.238 514.583 456.282 514.38 456.367C514.176 456.452 513.992 456.576 513.837 456.733L511.505 459.101C511.348 459.255 511.223 459.44 511.138 459.643C511.053 459.846 511.01 460.064 511.01 460.284C511.01 460.505 511.053 460.723 511.138 460.926C511.223 461.129 511.348 461.314 511.505 461.468L528.605 478.601Z" fill="white"/>
</g>
<circle cx="531" cy="342" r="60" fill="white"/>
<path d="M530.409 347.364C530.409 349.902 529.928 352.061 528.966 353.841C528.011 355.621 526.708 356.981 525.057 357.92C523.413 358.852 521.564 359.318 519.511 359.318C517.443 359.318 515.587 358.848 513.943 357.909C512.299 356.97 511 355.61 510.045 353.83C509.091 352.049 508.614 349.894 508.614 347.364C508.614 344.826 509.091 342.667 510.045 340.886C511 339.106 512.299 337.75 513.943 336.818C515.587 335.879 517.443 335.409 519.511 335.409C521.564 335.409 523.413 335.879 525.057 336.818C526.708 337.75 528.011 339.106 528.966 340.886C529.928 342.667 530.409 344.826 530.409 347.364ZM525.42 347.364C525.42 345.72 525.174 344.333 524.682 343.205C524.197 342.076 523.511 341.22 522.625 340.636C521.739 340.053 520.701 339.761 519.511 339.761C518.322 339.761 517.284 340.053 516.398 340.636C515.511 341.22 514.822 342.076 514.33 343.205C513.845 344.333 513.602 345.72 513.602 347.364C513.602 349.008 513.845 350.394 514.33 351.523C514.822 352.652 515.511 353.508 516.398 354.091C517.284 354.674 518.322 354.966 519.511 354.966C520.701 354.966 521.739 354.674 522.625 354.091C523.511 353.508 524.197 352.652 524.682 351.523C525.174 350.394 525.42 349.008 525.42 347.364ZM534.44 359V335.727H539.36V345.989H539.667L548.042 335.727H553.94L545.303 346.148L554.042 359H548.156L541.781 349.432L539.36 352.386V359H534.44Z" fill="#090909"/>
<mask id="path-8-inside-1_3_15" fill="white">
<path d="M591 4C591 1.79086 592.791 0 595 0H873C875.209 0 877 1.79086 877 4V116C877 118.209 875.209 120 873 120H595C592.791 120 591 118.209 591 116V4Z"/>
</mask>
<path d="M591 4C591 1.79086 592.791 0 595 0H873C875.209 0 877 1.79086 877 4V116C877 118.209 875.209 120 873 120H595C592.791 120 591 118.209 591 116V4Z" fill="#313131" fill-opacity="0.6"/>
<path d="M595 1H873V-1H595V1ZM876 4V116H878V4H876ZM873 119H595V121H873V119ZM592 116V4H590V116H592ZM595 119C593.343 119 592 117.657 592 116H590C590 118.761 592.239 121 595 121V119ZM876 116C876 117.657 874.657 119 873 119V121C875.761 121 878 118.761 878 116H876ZM873 1C874.657 1 876 2.34314 876 4H878C878 1.23858 875.761 -1 873 -1V1ZM595 -1C592.239 -1 590 1.23858 590 4H592C592 2.34315 593.343 1 595 1V-1Z" fill="white" mask="url(#path-8-inside-1_3_15)"/>
<path opacity="0.8" d="M620.114 49V31.5455H626.216C627.432 31.5455 628.435 31.7557 629.224 32.1761C630.014 32.5909 630.602 33.1506 630.989 33.8551C631.375 34.554 631.568 35.3295 631.568 36.1818C631.568 36.9318 631.435 37.5511 631.168 38.0398C630.906 38.5284 630.56 38.9148 630.128 39.1989C629.702 39.483 629.239 39.6932 628.739 39.8295V40C629.273 40.0341 629.81 40.2216 630.349 40.5625C630.889 40.9034 631.341 41.392 631.705 42.0284C632.068 42.6648 632.25 43.4432 632.25 44.3636C632.25 45.2386 632.051 46.0256 631.653 46.7244C631.256 47.4233 630.628 47.9773 629.77 48.3864C628.912 48.7955 627.795 49 626.42 49H620.114ZM622.227 47.125H626.42C627.801 47.125 628.781 46.858 629.361 46.3239C629.946 45.7841 630.239 45.1307 630.239 44.3636C630.239 43.7727 630.088 43.2273 629.787 42.7273C629.486 42.2216 629.057 41.8182 628.5 41.517C627.943 41.2102 627.284 41.0568 626.523 41.0568H622.227V47.125ZM622.227 39.2159H626.148C626.784 39.2159 627.358 39.0909 627.869 38.8409C628.386 38.5909 628.795 38.2386 629.097 37.7841C629.403 37.3295 629.557 36.7955 629.557 36.1818C629.557 35.4148 629.29 34.7642 628.756 34.2301C628.222 33.6903 627.375 33.4205 626.216 33.4205H622.227V39.2159ZM639.303 49.3068C638.473 49.3068 637.72 49.1506 637.044 48.8381C636.368 48.5199 635.831 48.0625 635.433 47.4659C635.036 46.8636 634.837 46.1364 634.837 45.2841C634.837 44.5341 634.984 43.9261 635.28 43.4602C635.575 42.9886 635.97 42.6193 636.464 42.3523C636.959 42.0852 637.504 41.8864 638.101 41.7557C638.703 41.6193 639.308 41.5114 639.916 41.4318C640.712 41.3295 641.357 41.2528 641.851 41.2017C642.351 41.1449 642.714 41.0511 642.942 40.9205C643.175 40.7898 643.291 40.5625 643.291 40.2386V40.1705C643.291 39.3295 643.061 38.6761 642.601 38.2102C642.146 37.7443 641.456 37.5114 640.53 37.5114C639.57 37.5114 638.817 37.7216 638.271 38.142C637.726 38.5625 637.342 39.0114 637.121 39.4886L635.212 38.8068C635.553 38.0114 636.007 37.392 636.575 36.9489C637.149 36.5 637.774 36.1875 638.45 36.0114C639.132 35.8295 639.803 35.7386 640.462 35.7386C640.882 35.7386 641.365 35.7898 641.911 35.892C642.462 35.9886 642.993 36.1903 643.504 36.4972C644.021 36.804 644.45 37.267 644.791 37.8864C645.132 38.5057 645.303 39.3352 645.303 40.375V49H643.291V47.2273H643.189C643.053 47.5114 642.825 47.8153 642.507 48.1392C642.189 48.4631 641.766 48.7386 641.237 48.9659C640.709 49.1932 640.064 49.3068 639.303 49.3068ZM639.609 47.5C640.405 47.5 641.075 47.3438 641.621 47.0312C642.172 46.7188 642.587 46.3153 642.865 45.821C643.149 45.3267 643.291 44.8068 643.291 44.2614V42.4205C643.206 42.5227 643.018 42.6165 642.729 42.7017C642.445 42.7812 642.115 42.8523 641.74 42.9148C641.371 42.9716 641.01 43.0227 640.658 43.0682C640.311 43.108 640.03 43.142 639.814 43.1705C639.291 43.2386 638.803 43.3494 638.348 43.5028C637.899 43.6506 637.536 43.875 637.257 44.1761C636.984 44.4716 636.848 44.875 636.848 45.3864C636.848 46.0852 637.107 46.6136 637.624 46.9716C638.146 47.3239 638.808 47.5 639.609 47.5ZM636.2 34.2727L639.678 31.1705H641.553L645.03 34.2727H642.575L640.632 32.4659L638.689 34.2727H636.2ZM644.109 32.1932L645.78 29.125H648.268L645.882 32.1932H644.109ZM648.974 49V35.9091H650.917V37.9545H651.087C651.36 37.2557 651.8 36.7131 652.408 36.3267C653.016 35.9347 653.746 35.7386 654.599 35.7386C655.462 35.7386 656.181 35.9347 656.755 36.3267C657.335 36.7131 657.786 37.2557 658.11 37.9545H658.246C658.582 37.2784 659.085 36.7415 659.755 36.3438C660.425 35.9403 661.229 35.7386 662.167 35.7386C663.337 35.7386 664.295 36.1051 665.039 36.8381C665.783 37.5653 666.156 38.6989 666.156 40.2386V49H664.144V40.2386C664.144 39.2727 663.88 38.5824 663.352 38.1676C662.823 37.7528 662.201 37.5455 661.485 37.5455C660.565 37.5455 659.852 37.8239 659.346 38.3807C658.84 38.9318 658.587 39.6307 658.587 40.4773V49H656.542V40.0341C656.542 39.2898 656.3 38.6903 655.817 38.2358C655.335 37.7756 654.712 37.5455 653.951 37.5455C653.428 37.5455 652.94 37.6847 652.485 37.9631C652.036 38.2415 651.673 38.6278 651.394 39.1222C651.121 39.6108 650.985 40.1761 650.985 40.8182V49H648.974Z" fill="white"/>
<g clip-path="url(#clip4_3_15)">
<path d="M690.198 33.6997C690.082 33.5834 689.944 33.4912 689.792 33.4284C689.641 33.3655 689.478 33.3332 689.314 33.3334L688.681 33.3334C688.336 33.3372 688.025 33.4759 687.798 33.6997L679.248 42.2659C679.169 42.3432 679.107 42.4354 679.064 42.537C679.022 42.6386 679 42.7476 679 42.8578C679 42.9679 679.022 43.077 679.064 43.1786C679.107 43.2802 679.169 43.3723 679.248 43.4497L680.431 44.6334C680.507 44.7113 680.598 44.7732 680.698 44.8155C680.798 44.8578 680.906 44.8796 681.014 44.8796C681.123 44.8796 681.231 44.8578 681.331 44.8155C681.431 44.7732 681.522 44.7113 681.598 44.6334L688.998 37.2159L696.398 44.6334C696.475 44.7118 696.567 44.7741 696.669 44.8166C696.77 44.8591 696.879 44.881 696.989 44.881C697.1 44.881 697.209 44.8591 697.31 44.8166C697.412 44.7741 697.504 44.7118 697.581 44.6334L698.748 43.4497C698.826 43.3723 698.888 43.2802 698.931 43.1786C698.973 43.077 698.995 42.9679 698.995 42.8578C698.995 42.7476 698.973 42.6386 698.931 42.537C698.888 42.4354 698.826 42.3432 698.748 42.2659L690.198 33.6997Z" fill="white"/>
</g>
<path opacity="0.8" d="M712.852 41.125V49H710.841V31.5455H712.852V37.9545H713.023C713.33 37.2784 713.79 36.7415 714.403 36.3438C715.023 35.9403 715.847 35.7386 716.875 35.7386C717.767 35.7386 718.548 35.9176 719.219 36.2756C719.889 36.6278 720.409 37.1705 720.778 37.9034C721.153 38.6307 721.341 39.5568 721.341 40.6818V49H719.33V40.8182C719.33 39.7784 719.06 38.9744 718.52 38.4062C717.986 37.8324 717.244 37.5455 716.295 37.5455C715.636 37.5455 715.045 37.6847 714.523 37.9631C714.006 38.2415 713.597 38.6477 713.295 39.1818C713 39.7159 712.852 40.3636 712.852 41.125ZM730.339 49.2727C729.157 49.2727 728.12 48.9915 727.228 48.429C726.342 47.8665 725.648 47.0795 725.148 46.0682C724.654 45.0568 724.407 43.875 724.407 42.5227C724.407 41.1591 724.654 39.9687 725.148 38.9517C725.648 37.9347 726.342 37.1449 727.228 36.5824C728.12 36.0199 729.157 35.7386 730.339 35.7386C731.521 35.7386 732.555 36.0199 733.441 36.5824C734.333 37.1449 735.026 37.9347 735.521 38.9517C736.021 39.9687 736.271 41.1591 736.271 42.5227C736.271 43.875 736.021 45.0568 735.521 46.0682C735.026 47.0795 734.333 47.8665 733.441 48.429C732.555 48.9915 731.521 49.2727 730.339 49.2727ZM730.339 47.4659C731.237 47.4659 731.975 47.2358 732.555 46.7756C733.134 46.3153 733.563 45.7102 733.842 44.9602C734.12 44.2102 734.259 43.3977 734.259 42.5227C734.259 41.6477 734.12 40.8324 733.842 40.0767C733.563 39.321 733.134 38.7102 732.555 38.2443C731.975 37.7784 731.237 37.5455 730.339 37.5455C729.441 37.5455 728.702 37.7784 728.123 38.2443C727.543 38.7102 727.114 39.321 726.836 40.0767C726.558 40.8324 726.418 41.6477 726.418 42.5227C726.418 43.3977 726.558 44.2102 726.836 44.9602C727.114 45.7102 727.543 46.3153 728.123 46.7756C728.702 47.2358 729.441 47.4659 730.339 47.4659ZM743.193 49.3068C742.364 49.3068 741.611 49.1506 740.935 48.8381C740.259 48.5199 739.722 48.0625 739.324 47.4659C738.926 46.8636 738.727 46.1364 738.727 45.2841C738.727 44.5341 738.875 43.9261 739.17 43.4602C739.466 42.9886 739.861 42.6193 740.355 42.3523C740.849 42.0852 741.395 41.8864 741.991 41.7557C742.594 41.6193 743.199 41.5114 743.807 41.4318C744.602 41.3295 745.247 41.2528 745.741 41.2017C746.241 41.1449 746.605 41.0511 746.832 40.9205C747.065 40.7898 747.182 40.5625 747.182 40.2386V40.1705C747.182 39.3295 746.952 38.6761 746.491 38.2102C746.037 37.7443 745.347 37.5114 744.42 37.5114C743.46 37.5114 742.707 37.7216 742.162 38.142C741.616 38.5625 741.233 39.0114 741.011 39.4886L739.102 38.8068C739.443 38.0114 739.898 37.392 740.466 36.9489C741.04 36.5 741.665 36.1875 742.341 36.0114C743.023 35.8295 743.693 35.7386 744.352 35.7386C744.773 35.7386 745.256 35.7898 745.801 35.892C746.352 35.9886 746.884 36.1903 747.395 36.4972C747.912 36.804 748.341 37.267 748.682 37.8864C749.023 38.5057 749.193 39.3352 749.193 40.375V49H747.182V47.2273H747.08C746.943 47.5114 746.716 47.8153 746.398 48.1392C746.08 48.4631 745.656 48.7386 745.128 48.9659C744.599 49.1932 743.955 49.3068 743.193 49.3068ZM743.5 47.5C744.295 47.5 744.966 47.3438 745.511 47.0312C746.063 46.7188 746.477 46.3153 746.756 45.821C747.04 45.3267 747.182 44.8068 747.182 44.2614V42.4205C747.097 42.5227 746.909 42.6165 746.619 42.7017C746.335 42.7812 746.006 42.8523 745.631 42.9148C745.261 42.9716 744.901 43.0227 744.548 43.0682C744.202 43.108 743.92 43.142 743.705 43.1705C743.182 43.2386 742.693 43.3494 742.239 43.5028C741.79 43.6506 741.426 43.875 741.148 44.1761C740.875 44.4716 740.739 44.875 740.739 45.3864C740.739 46.0852 740.997 46.6136 741.514 46.9716C742.037 47.3239 742.699 47.5 743.5 47.5ZM746.159 31.5455H748.034C748.034 32.4659 747.716 33.2188 747.08 33.804C746.443 34.3892 745.58 34.6818 744.489 34.6818C743.415 34.6818 742.56 34.3892 741.923 33.804C741.293 33.2188 740.977 32.4659 740.977 31.5455H742.852C742.852 31.9886 742.974 32.3778 743.219 32.7131C743.469 33.0483 743.892 33.2159 744.489 33.2159C745.085 33.2159 745.511 33.0483 745.767 32.7131C746.028 32.3778 746.159 31.9886 746.159 31.5455ZM744.386 53.3295C743.994 53.3295 743.656 53.196 743.372 52.929C743.094 52.6619 742.955 52.3409 742.955 51.9659C742.955 51.5909 743.094 51.2699 743.372 51.0028C743.656 50.7358 743.994 50.6023 744.386 50.6023C744.778 50.6023 745.114 50.7358 745.392 51.0028C745.676 51.2699 745.818 51.5909 745.818 51.9659C745.818 52.3409 745.676 52.6619 745.392 52.929C745.114 53.196 744.778 53.3295 744.386 53.3295ZM758.183 49.2727C756.955 49.2727 755.898 48.983 755.012 48.4034C754.126 47.8239 753.444 47.0256 752.967 46.0085C752.489 44.9915 752.251 43.8295 752.251 42.5227C752.251 41.1932 752.495 40.0199 752.984 39.0028C753.478 37.9801 754.165 37.1818 755.046 36.608C755.933 36.0284 756.967 35.7386 758.148 35.7386C759.069 35.7386 759.898 35.9091 760.637 36.25C761.376 36.5909 761.981 37.0682 762.452 37.6818C762.924 38.2955 763.217 39.0114 763.33 39.8295H761.319C761.165 39.233 760.825 38.7045 760.296 38.2443C759.773 37.7784 759.069 37.5455 758.183 37.5455C757.398 37.5455 756.711 37.75 756.12 38.1591C755.535 38.5625 755.077 39.1335 754.748 39.8722C754.424 40.6051 754.262 41.4659 754.262 42.4545C754.262 43.4659 754.421 44.3466 754.739 45.0966C755.063 45.8466 755.518 46.429 756.103 46.8438C756.694 47.2585 757.387 47.4659 758.183 47.4659C758.705 47.4659 759.18 47.375 759.606 47.1932C760.032 47.0114 760.393 46.75 760.688 46.4091C760.984 46.0682 761.194 45.6591 761.319 45.1818H763.33C763.217 45.9545 762.935 46.6506 762.487 47.2699C762.043 47.8835 761.455 48.3722 760.722 48.7358C759.995 49.0938 759.148 49.2727 758.183 49.2727Z" fill="white"/>
<g clip-path="url(#clip5_3_15)">
<path d="M786.802 46.3003C786.918 46.4166 787.056 46.5088 787.208 46.5716C787.359 46.6345 787.522 46.6668 787.686 46.6666L788.319 46.6666C788.664 46.6628 788.975 46.5241 789.202 46.3003L797.752 37.7341C797.831 37.6568 797.893 37.5646 797.936 37.463C797.978 37.3614 798 37.2524 798 37.1422C798 37.0321 797.978 36.923 797.936 36.8214C797.893 36.7198 797.831 36.6277 797.752 36.5503L796.569 35.3666C796.493 35.2887 796.402 35.2268 796.302 35.1845C796.202 35.1422 796.094 35.1204 795.986 35.1204C795.877 35.1204 795.769 35.1422 795.669 35.1845C795.569 35.2268 795.478 35.2887 795.402 35.3666L788.002 42.7841L780.602 35.3666C780.525 35.2882 780.433 35.2259 780.331 35.1834C780.23 35.1409 780.121 35.119 780.011 35.119C779.9 35.119 779.791 35.1409 779.69 35.1834C779.588 35.2259 779.496 35.2882 779.419 35.3666L778.252 36.5503C778.174 36.6277 778.112 36.7198 778.069 36.8214C778.027 36.923 778.005 37.0321 778.005 37.1422C778.005 37.2524 778.027 37.3614 778.069 37.463C778.112 37.5646 778.174 37.6568 778.252 37.7341L786.802 46.3003Z" fill="white"/>
</g>
<path opacity="0.8" d="M814.784 49.2727C813.693 49.2727 812.73 48.9972 811.895 48.446C811.06 47.8892 810.406 47.1051 809.935 46.0938C809.463 45.0767 809.227 43.875 809.227 42.4886C809.227 41.1136 809.463 39.9205 809.935 38.9091C810.406 37.8977 811.063 37.1165 811.903 36.5653C812.744 36.0142 813.716 35.7386 814.818 35.7386C815.67 35.7386 816.344 35.8807 816.838 36.1648C817.338 36.4432 817.719 36.7614 817.98 37.1193C818.247 37.4716 818.455 37.7614 818.602 37.9886H818.773V31.5455H820.784V49H818.841V46.9886H818.602C818.455 47.2273 818.244 47.5284 817.972 47.892C817.699 48.25 817.31 48.571 816.804 48.8551C816.298 49.1335 815.625 49.2727 814.784 49.2727ZM815.057 47.4659C815.864 47.4659 816.545 47.2557 817.102 46.8352C817.659 46.4091 818.082 45.821 818.372 45.071C818.662 44.3153 818.807 43.4432 818.807 42.4545C818.807 41.4773 818.665 40.6222 818.381 39.8892C818.097 39.1506 817.676 38.5767 817.119 38.1676C816.563 37.7528 815.875 37.5455 815.057 37.5455C814.205 37.5455 813.494 37.7642 812.926 38.2017C812.364 38.6335 811.94 39.2216 811.656 39.9659C811.378 40.7045 811.239 41.5341 811.239 42.4545C811.239 43.3864 811.381 44.233 811.665 44.9943C811.955 45.75 812.381 46.3523 812.943 46.8011C813.511 47.2443 814.216 47.4659 815.057 47.4659ZM815.159 34.7841V33.2159H822.659V34.7841H815.159ZM830.236 49.2727C828.974 49.2727 827.886 48.9943 826.972 48.4375C826.062 47.875 825.361 47.0909 824.866 46.0852C824.378 45.0739 824.134 43.8977 824.134 42.5568C824.134 41.2159 824.378 40.0341 824.866 39.0114C825.361 37.983 826.048 37.1818 826.929 36.608C827.815 36.0284 828.849 35.7386 830.031 35.7386C830.713 35.7386 831.386 35.8523 832.051 36.0795C832.716 36.3068 833.321 36.6761 833.866 37.1875C834.412 37.6932 834.847 38.3636 835.17 39.1989C835.494 40.0341 835.656 41.0625 835.656 42.2841V43.1364H825.565V41.3977H833.611C833.611 40.6591 833.463 40 833.168 39.4205C832.878 38.8409 832.463 38.3835 831.923 38.0483C831.389 37.7131 830.759 37.5455 830.031 37.5455C829.23 37.5455 828.537 37.7443 827.952 38.142C827.372 38.5341 826.926 39.0455 826.614 39.6761C826.301 40.3068 826.145 40.983 826.145 41.7045V42.8636C826.145 43.8523 826.315 44.6903 826.656 45.3778C827.003 46.0597 827.483 46.5795 828.097 46.9375C828.71 47.2898 829.423 47.4659 830.236 47.4659C830.764 47.4659 831.241 47.392 831.668 47.2443C832.099 47.0909 832.472 46.8636 832.784 46.5625C833.097 46.2557 833.338 45.875 833.509 45.4205L835.452 45.9659C835.247 46.625 834.903 47.2045 834.42 47.7045C833.938 48.1989 833.341 48.5852 832.631 48.8636C831.92 49.1364 831.122 49.2727 830.236 49.2727ZM831.088 31.4091L834.327 34.5114H832.213L829.895 32.3636L827.611 34.5114H825.497L828.736 31.4091H831.088ZM834.668 32.875H833.236V31.3068C833.713 31.2727 834.065 31.2102 834.293 31.1193C834.52 31.0227 834.634 30.8466 834.634 30.5909C834.634 30.3182 834.48 30.125 834.173 30.0114C833.872 29.8977 833.491 29.8409 833.031 29.8409L833.099 28.7159C834.122 28.7159 834.895 28.8892 835.418 29.2358C835.94 29.5824 836.202 30.0455 836.202 30.625C836.202 31.1364 836.043 31.5085 835.724 31.7415C835.412 31.9688 835.06 32.108 834.668 32.1591V32.875Z" fill="white"/>
<path opacity="0.8" d="M634.918 73.6562H631.185C631.116 73.1733 630.977 72.7443 630.767 72.3693C630.557 71.9886 630.287 71.6648 629.957 71.3977C629.628 71.1307 629.247 70.9261 628.815 70.7841C628.389 70.642 627.926 70.571 627.426 70.571C626.523 70.571 625.736 70.7955 625.065 71.2443C624.395 71.6875 623.875 72.3352 623.506 73.1875C623.136 74.0341 622.952 75.0625 622.952 76.2727C622.952 77.517 623.136 78.5625 623.506 79.4091C623.881 80.2557 624.403 80.8949 625.074 81.3267C625.744 81.7585 626.52 81.9744 627.401 81.9744C627.895 81.9744 628.352 81.9091 628.773 81.7784C629.199 81.6477 629.577 81.4574 629.906 81.2074C630.236 80.9517 630.509 80.642 630.724 80.2784C630.946 79.9148 631.099 79.5 631.185 79.0341L634.918 79.0511C634.821 79.8523 634.58 80.625 634.193 81.3693C633.813 82.108 633.298 82.7699 632.651 83.3551C632.009 83.9347 631.241 84.3949 630.349 84.7358C629.463 85.071 628.46 85.2386 627.341 85.2386C625.784 85.2386 624.392 84.8864 623.165 84.1818C621.943 83.4773 620.977 82.4574 620.267 81.1222C619.562 79.7869 619.21 78.1705 619.21 76.2727C619.21 74.3693 619.568 72.75 620.284 71.4148C621 70.0795 621.972 69.0625 623.199 68.3636C624.426 67.6591 625.807 67.3068 627.341 67.3068C628.352 67.3068 629.29 67.4489 630.153 67.733C631.023 68.017 631.793 68.4318 632.463 68.9773C633.134 69.517 633.679 70.179 634.099 70.9631C634.526 71.7472 634.798 72.6449 634.918 73.6562ZM641.126 77.4318V85H637.496V67.5455H641.024V74.2188H641.178C641.473 73.446 641.95 72.8409 642.609 72.4034C643.268 71.9602 644.095 71.7386 645.089 71.7386C645.999 71.7386 646.791 71.9375 647.467 72.3352C648.149 72.7273 648.678 73.2926 649.053 74.0312C649.433 74.7642 649.621 75.642 649.615 76.6648V85H645.984V77.3125C645.99 76.5057 645.786 75.8778 645.371 75.429C644.962 74.9801 644.388 74.7557 643.649 74.7557C643.155 74.7557 642.717 74.8608 642.337 75.071C641.962 75.2812 641.666 75.5881 641.45 75.9915C641.24 76.3892 641.132 76.8693 641.126 77.4318ZM660.867 79.4261V71.9091H664.498V85H661.012V82.6222H660.876C660.58 83.3892 660.089 84.0057 659.401 84.4716C658.719 84.9375 657.887 85.1705 656.904 85.1705C656.029 85.1705 655.259 84.9716 654.594 84.5739C653.93 84.1761 653.41 83.6108 653.035 82.8778C652.665 82.1449 652.478 81.267 652.472 80.2443V71.9091H656.103V79.5966C656.109 80.3693 656.316 80.9801 656.725 81.429C657.134 81.8778 657.683 82.1023 658.37 82.1023C658.808 82.1023 659.217 82.0028 659.597 81.804C659.978 81.5994 660.285 81.2983 660.518 80.9006C660.756 80.5028 660.873 80.0114 660.867 79.4261ZM669.643 89.9091C669.183 89.9091 668.751 89.8722 668.348 89.7983C667.95 89.7301 667.621 89.642 667.359 89.5341L668.178 86.8239C668.604 86.9545 668.987 87.0256 669.328 87.0369C669.675 87.0483 669.973 86.9688 670.223 86.7983C670.479 86.6278 670.686 86.3381 670.845 85.929L671.058 85.375L666.362 71.9091H670.18L672.891 81.5227H673.027L675.763 71.9091H679.607L674.518 86.4148C674.274 87.1193 673.942 87.733 673.521 88.2557C673.107 88.7841 672.581 89.1903 671.945 89.4744C671.308 89.7642 670.541 89.9091 669.643 89.9091ZM687.009 85.2557C685.662 85.2557 684.503 84.983 683.531 84.4375C682.565 83.8864 681.821 83.108 681.298 82.1023C680.776 81.0909 680.514 79.8949 680.514 78.5142C680.514 77.1676 680.776 75.9858 681.298 74.9688C681.821 73.9517 682.557 73.1591 683.506 72.5909C684.46 72.0227 685.58 71.7386 686.864 71.7386C687.727 71.7386 688.531 71.8778 689.276 72.1562C690.026 72.429 690.679 72.8409 691.236 73.392C691.798 73.9432 692.236 74.6364 692.548 75.4716C692.861 76.3011 693.017 77.2727 693.017 78.3864V79.3835H681.963V77.1335H689.599C689.599 76.6108 689.486 76.1477 689.259 75.7443C689.031 75.3409 688.716 75.0256 688.312 74.7983C687.915 74.5653 687.452 74.4489 686.923 74.4489C686.372 74.4489 685.884 74.5767 685.457 74.8324C685.037 75.0824 684.707 75.4205 684.469 75.8466C684.23 76.267 684.108 76.7358 684.102 77.2528V79.392C684.102 80.0398 684.222 80.5994 684.46 81.071C684.705 81.5426 685.048 81.9062 685.491 82.1619C685.935 82.4176 686.46 82.5455 687.068 82.5455C687.472 82.5455 687.841 82.4886 688.176 82.375C688.511 82.2614 688.798 82.0909 689.037 81.8636C689.276 81.6364 689.457 81.358 689.582 81.0284L692.94 81.25C692.77 82.0568 692.42 82.7614 691.892 83.3636C691.369 83.9602 690.693 84.4261 689.864 84.7614C689.04 85.0909 688.088 85.2557 687.009 85.2557ZM687.793 67.9205L691.151 70.571H688.653L686.761 69.0795L684.844 70.571H682.347L685.705 67.9205H687.793ZM691.926 69.0795H690.043L689.881 67.8011C690.369 67.7784 690.724 67.7159 690.946 67.6136C691.168 67.5114 691.278 67.3608 691.278 67.1619C691.278 66.9006 691.139 66.7244 690.861 66.6335C690.582 66.5426 690.236 66.4972 689.821 66.4972L689.906 65.125C691.06 65.125 691.94 65.2955 692.548 65.6364C693.156 65.9716 693.46 66.446 693.46 67.0597C693.46 67.4858 693.298 67.8125 692.974 68.0398C692.656 68.2614 692.307 68.4034 691.926 68.4659V69.0795ZM699.017 77.4318V85H695.386V71.9091H698.847V74.2188H699C699.29 73.4574 699.776 72.8551 700.457 72.4119C701.139 71.9631 701.966 71.7386 702.938 71.7386C703.847 71.7386 704.639 71.9375 705.315 72.3352C705.991 72.733 706.517 73.3011 706.892 74.0398C707.267 74.7727 707.455 75.6477 707.455 76.6648V85H703.824V77.3125C703.83 76.5114 703.625 75.8864 703.21 75.4375C702.795 74.983 702.224 74.7557 701.497 74.7557C701.009 74.7557 700.577 74.8608 700.202 75.071C699.832 75.2812 699.543 75.5881 699.332 75.9915C699.128 76.3892 699.023 76.8693 699.017 77.4318ZM719.161 81.233L719.169 76.8778H719.697L723.891 71.9091H728.058L722.425 78.4886H721.564L719.161 81.233ZM715.871 85V67.5455H719.501V85H715.871ZM724.053 85L720.2 79.2983L722.621 76.733L728.305 85H724.053ZM735.266 85.2557C733.92 85.2557 732.761 84.983 731.789 84.4375C730.823 83.8864 730.079 83.108 729.556 82.1023C729.033 81.0909 728.772 79.8949 728.772 78.5142C728.772 77.1676 729.033 75.9858 729.556 74.9688C730.079 73.9517 730.815 73.1591 731.763 72.5909C732.718 72.0227 733.837 71.7386 735.121 71.7386C735.985 71.7386 736.789 71.8778 737.533 72.1562C738.283 72.429 738.937 72.8409 739.494 73.392C740.056 73.9432 740.494 74.6364 740.806 75.4716C741.119 76.3011 741.275 77.2727 741.275 78.3864V79.3835H730.221V77.1335H737.857C737.857 76.6108 737.744 76.1477 737.516 75.7443C737.289 75.3409 736.974 75.0256 736.57 74.7983C736.173 74.5653 735.71 74.4489 735.181 74.4489C734.63 74.4489 734.141 74.5767 733.715 74.8324C733.295 75.0824 732.965 75.4205 732.727 75.8466C732.488 76.267 732.366 76.7358 732.36 77.2528V79.392C732.36 80.0398 732.479 80.5994 732.718 81.071C732.962 81.5426 733.306 81.9062 733.749 82.1619C734.192 82.4176 734.718 82.5455 735.326 82.5455C735.729 82.5455 736.099 82.4886 736.434 82.375C736.769 82.2614 737.056 82.0909 737.295 81.8636C737.533 81.6364 737.715 81.358 737.84 81.0284L741.198 81.25C741.028 82.0568 740.678 82.7614 740.15 83.3636C739.627 83.9602 738.951 84.4261 738.121 84.7614C737.298 85.0909 736.346 85.2557 735.266 85.2557ZM736.749 70.3409L735.036 68.2614L733.323 70.3409H730.229V70.2216L733.681 66.4716H736.383L739.843 70.2216V70.3409H736.749ZM747.275 77.4318V85H743.644V71.9091H747.104V74.2188H747.258C747.548 73.4574 748.033 72.8551 748.715 72.4119C749.397 71.9631 750.224 71.7386 751.195 71.7386C752.104 71.7386 752.897 71.9375 753.573 72.3352C754.249 72.733 754.775 73.3011 755.15 74.0398C755.525 74.7727 755.712 75.6477 755.712 76.6648V85H752.082V77.3125C752.087 76.5114 751.883 75.8864 751.468 75.4375C751.053 74.983 750.482 74.7557 749.755 74.7557C749.266 74.7557 748.835 74.8608 748.46 75.071C748.09 75.2812 747.8 75.5881 747.59 75.9915C747.386 76.3892 747.281 76.8693 747.275 77.4318ZM762.205 77.4318V85H758.574V67.5455H762.102V74.2188H762.256C762.551 73.446 763.028 72.8409 763.688 72.4034C764.347 71.9602 765.173 71.7386 766.168 71.7386C767.077 71.7386 767.869 71.9375 768.545 72.3352C769.227 72.7273 769.756 73.2926 770.131 74.0312C770.511 74.7642 770.699 75.642 770.693 76.6648V85H767.062V77.3125C767.068 76.5057 766.864 75.8778 766.449 75.429C766.04 74.9801 765.466 74.7557 764.727 74.7557C764.233 74.7557 763.795 74.8608 763.415 75.071C763.04 75.2812 762.744 75.5881 762.528 75.9915C762.318 76.3892 762.21 76.8693 762.205 77.4318ZM782.736 77.4318V85H779.105V71.9091H782.565V74.2188H782.719C783.009 73.4574 783.494 72.8551 784.176 72.4119C784.858 71.9631 785.685 71.7386 786.656 71.7386C787.565 71.7386 788.358 71.9375 789.034 72.3352C789.71 72.733 790.236 73.3011 790.611 74.0398C790.986 74.7727 791.173 75.6477 791.173 76.6648V85H787.543V77.3125C787.548 76.5114 787.344 75.8864 786.929 75.4375C786.514 74.983 785.943 74.7557 785.216 74.7557C784.727 74.7557 784.295 74.8608 783.92 75.071C783.551 75.2812 783.261 75.5881 783.051 75.9915C782.847 76.3892 782.741 76.8693 782.736 77.4318ZM797.665 77.4318V85H794.035V67.5455H797.563V74.2188H797.717C798.012 73.446 798.489 72.8409 799.148 72.4034C799.808 71.9602 800.634 71.7386 801.629 71.7386C802.538 71.7386 803.33 71.9375 804.006 72.3352C804.688 72.7273 805.217 73.2926 805.592 74.0312C805.972 74.7642 806.16 75.642 806.154 76.6648V85H802.523V77.3125C802.529 76.5057 802.325 75.8778 801.91 75.429C801.501 74.9801 800.927 74.7557 800.188 74.7557C799.694 74.7557 799.256 74.8608 798.876 75.071C798.501 75.2812 798.205 75.5881 797.989 75.9915C797.779 76.3892 797.671 76.8693 797.665 77.4318ZM812.744 85.2472C811.909 85.2472 811.165 85.1023 810.511 84.8125C809.858 84.517 809.341 84.0824 808.96 83.5085C808.585 82.929 808.398 82.2074 808.398 81.3438C808.398 80.6165 808.531 80.0057 808.798 79.5114C809.065 79.017 809.429 78.6193 809.889 78.3182C810.349 78.017 810.872 77.7898 811.457 77.6364C812.048 77.483 812.668 77.375 813.315 77.3125C814.077 77.233 814.69 77.1591 815.156 77.0909C815.622 77.017 815.96 76.9091 816.17 76.767C816.381 76.625 816.486 76.4148 816.486 76.1364V76.0852C816.486 75.5455 816.315 75.1278 815.974 74.8324C815.639 74.5369 815.162 74.3892 814.543 74.3892C813.889 74.3892 813.369 74.5341 812.983 74.8239C812.597 75.108 812.341 75.4659 812.216 75.8977L808.858 75.625C809.028 74.8295 809.364 74.142 809.864 73.5625C810.364 72.9773 811.009 72.5284 811.798 72.2159C812.594 71.8977 813.514 71.7386 814.56 71.7386C815.287 71.7386 815.983 71.8239 816.648 71.9943C817.318 72.1648 817.912 72.429 818.429 72.7869C818.952 73.1449 819.364 73.6051 819.665 74.1676C819.966 74.7244 820.116 75.392 820.116 76.1705V85H816.673V83.1847H816.571C816.361 83.5938 816.08 83.9545 815.727 84.267C815.375 84.5739 814.952 84.8153 814.457 84.9915C813.963 85.1619 813.392 85.2472 812.744 85.2472ZM813.784 82.7415C814.318 82.7415 814.79 82.6364 815.199 82.4261C815.608 82.2102 815.929 81.9205 816.162 81.5568C816.395 81.1932 816.511 80.7812 816.511 80.321V78.9318C816.398 79.0057 816.241 79.0739 816.043 79.1364C815.849 79.1932 815.631 79.2472 815.386 79.2983C815.142 79.3437 814.898 79.3864 814.653 79.4261C814.409 79.4602 814.188 79.4915 813.989 79.5199C813.563 79.5824 813.19 79.6818 812.872 79.8182C812.554 79.9545 812.307 80.1392 812.131 80.3722C811.955 80.5994 811.866 80.8835 811.866 81.2244C811.866 81.7188 812.045 82.0966 812.403 82.358C812.767 82.6136 813.227 82.7415 813.784 82.7415ZM826.564 77.4318V85H822.933V71.9091H826.393V74.2188H826.547C826.837 73.4574 827.322 72.8551 828.004 72.4119C828.686 71.9631 829.513 71.7386 830.484 71.7386C831.393 71.7386 832.186 71.9375 832.862 72.3352C833.538 72.733 834.064 73.3011 834.439 74.0398C834.814 74.7727 835.001 75.6477 835.001 76.6648V85H831.371V77.3125C831.376 76.5114 831.172 75.8864 830.757 75.4375C830.342 74.983 829.771 74.7557 829.044 74.7557C828.555 74.7557 828.124 74.8608 827.749 75.071C827.379 75.2812 827.089 75.5881 826.879 75.9915C826.675 76.3892 826.57 76.8693 826.564 77.4318ZM841.494 77.4318V85H837.863V67.5455H841.391V74.2188H841.545C841.84 73.446 842.317 72.8409 842.977 72.4034C843.636 71.9602 844.462 71.7386 845.457 71.7386C846.366 71.7386 847.158 71.9375 847.835 72.3352C848.516 72.7273 849.045 73.2926 849.42 74.0312C849.8 74.7642 849.988 75.642 849.982 76.6648V85H846.352V77.3125C846.357 76.5057 846.153 75.8778 845.738 75.429C845.329 74.9801 844.755 74.7557 844.016 74.7557C843.522 74.7557 843.085 74.8608 842.704 75.071C842.329 75.2812 842.033 75.5881 841.817 75.9915C841.607 76.3892 841.499 76.8693 841.494 77.4318Z" fill="white"/>
<path d="M562.001 193.949C561.973 194.5 562.397 194.97 562.949 194.999L571.937 195.46C572.489 195.488 572.959 195.064 572.987 194.512C573.015 193.961 572.591 193.491 572.039 193.462L564.05 193.053L564.46 185.063C564.488 184.511 564.064 184.041 563.512 184.013C562.961 183.985 562.491 184.409 562.462 184.961L562.001 193.949ZM644.33 119.258L642.866 120.579L644.206 122.064L645.67 120.742L644.33 119.258ZM639.937 123.222L637.009 125.865L638.349 127.35L641.277 124.707L639.937 123.222ZM634.08 128.508L631.151 131.15L632.491 132.635L635.42 129.992L634.08 128.508ZM628.223 133.793L625.294 136.436L626.634 137.921L629.563 135.278L628.223 133.793ZM622.366 139.079L619.437 141.722L620.777 143.207L623.706 140.564L622.366 139.079ZM616.509 144.365L613.58 147.008L614.92 148.492L617.849 145.85L616.509 144.365ZM610.651 149.65L607.723 152.293L609.063 153.778L611.991 151.135L610.651 149.65ZM604.794 154.936L601.866 157.579L603.206 159.064L606.134 156.421L604.794 154.936ZM598.937 160.222L596.009 162.865L597.349 164.35L600.277 161.707L598.937 160.222ZM593.08 165.508L590.151 168.15L591.491 169.635L594.42 166.992L593.08 165.508ZM587.223 170.793L584.294 173.436L585.634 174.921L588.563 172.278L587.223 170.793ZM581.366 176.079L578.437 178.722L579.777 180.207L582.706 177.564L581.366 176.079ZM575.509 181.365L572.58 184.008L573.92 185.492L576.849 182.85L575.509 181.365ZM569.651 186.65L566.723 189.293L568.063 190.778L570.991 188.135L569.651 186.65ZM563.794 191.936L562.33 193.258L563.67 194.742L565.134 193.421L563.794 191.936ZM561.003 193.898C560.946 195.001 561.794 195.941 562.898 195.997L580.874 196.919C581.977 196.976 582.917 196.127 582.974 195.024C583.03 193.921 582.182 192.981 581.079 192.925L565.1 192.105L565.919 176.126C565.976 175.023 565.127 174.083 564.024 174.026C562.921 173.97 561.981 174.818 561.924 175.921L561.003 193.898ZM643.66 118.515L642.196 119.837L644.876 122.806L646.34 121.485L643.66 118.515ZM639.267 122.479L636.339 125.122L639.018 128.092L641.947 125.449L639.267 122.479ZM633.41 127.765L630.481 130.408L633.161 133.378L636.09 130.735L633.41 127.765ZM627.553 133.051L624.624 135.694L627.304 138.663L630.233 136.021L627.553 133.051ZM621.696 138.337L618.767 140.98L621.447 143.949L624.376 141.306L621.696 138.337ZM615.839 143.622L612.91 146.265L615.59 149.235L618.518 146.592L615.839 143.622ZM609.981 148.908L607.053 151.551L609.733 154.521L612.661 151.878L609.981 148.908ZM604.124 154.194L601.196 156.837L603.876 159.806L606.804 157.163L604.124 154.194ZM598.267 159.48L595.339 162.122L598.018 165.092L600.947 162.449L598.267 159.48ZM592.41 164.765L589.481 167.408L592.161 170.378L595.09 167.735L592.41 164.765ZM586.553 170.051L583.624 172.694L586.304 175.663L589.233 173.021L586.553 170.051ZM580.696 175.337L577.767 177.98L580.447 180.949L583.376 178.306L580.696 175.337ZM574.839 180.622L571.91 183.265L574.59 186.235L577.519 183.592L574.839 180.622ZM568.982 185.908L566.053 188.551L568.733 191.52L571.661 188.878L568.982 185.908ZM563.124 191.194L561.66 192.515L564.34 195.485L565.804 194.163L563.124 191.194Z" fill="#ED2C25"/>
<mask id="path-18-inside-2_3_15" fill="white">
<path d="M0 287C0 284.791 1.79086 283 4 283H254C256.209 283 258 284.791 258 287V399C258 401.209 256.209 403 254 403H4C1.79086 403 0 401.209 0 399V287Z"/>
</mask>
<path d="M0 287C0 284.791 1.79086 283 4 283H254C256.209 283 258 284.791 258 287V399C258 401.209 256.209 403 254 403H4C1.79086 403 0 401.209 0 399V287Z" fill="#313131" fill-opacity="0.6"/>
<path d="M4 284H254V282H4V284ZM257 287V399H259V287H257ZM254 402H4V404H254V402ZM1 399V287H-1V399H1ZM4 402C2.34315 402 1 400.657 1 399H-1C-1 401.761 1.23858 404 4 404V402ZM257 399C257 400.657 255.657 402 254 402V404C256.761 404 259 401.761 259 399H257ZM254 284C255.657 284 257 285.343 257 287H259C259 284.239 256.761 282 254 282V284ZM4 282C1.23858 282 -1 284.239 -1 287H1C1 285.343 2.34315 284 4 284V282Z" fill="white" mask="url(#path-18-inside-2_3_15)"/>
<path opacity="0.8" d="M29.1136 336V318.545H35.2159C36.4318 318.545 37.4347 318.756 38.2244 319.176C39.0142 319.591 39.6023 320.151 39.9886 320.855C40.375 321.554 40.5682 322.33 40.5682 323.182C40.5682 323.932 40.4347 324.551 40.1676 325.04C39.9063 325.528 39.5597 325.915 39.1278 326.199C38.7017 326.483 38.2386 326.693 37.7386 326.83V327C38.2727 327.034 38.8097 327.222 39.3494 327.562C39.8892 327.903 40.3409 328.392 40.7045 329.028C41.0682 329.665 41.25 330.443 41.25 331.364C41.25 332.239 41.0511 333.026 40.6534 333.724C40.2557 334.423 39.6278 334.977 38.7699 335.386C37.9119 335.795 36.7955 336 35.4205 336H29.1136ZM31.2273 334.125H35.4205C36.8011 334.125 37.7813 333.858 38.3608 333.324C38.946 332.784 39.2386 332.131 39.2386 331.364C39.2386 330.773 39.0881 330.227 38.7869 329.727C38.4858 329.222 38.0568 328.818 37.5 328.517C36.9432 328.21 36.2841 328.057 35.5227 328.057H31.2273V334.125ZM31.2273 326.216H35.1477C35.7841 326.216 36.358 326.091 36.8693 325.841C37.3864 325.591 37.7955 325.239 38.0966 324.784C38.4034 324.33 38.5568 323.795 38.5568 323.182C38.5568 322.415 38.2898 321.764 37.7557 321.23C37.2216 320.69 36.375 320.42 35.2159 320.42H31.2273V326.216ZM48.3026 336.307C47.473 336.307 46.7202 336.151 46.044 335.838C45.3679 335.52 44.831 335.062 44.4332 334.466C44.0355 333.864 43.8366 333.136 43.8366 332.284C43.8366 331.534 43.9844 330.926 44.2798 330.46C44.5753 329.989 44.9702 329.619 45.4645 329.352C45.9588 329.085 46.5043 328.886 47.1009 328.756C47.7031 328.619 48.3082 328.511 48.9162 328.432C49.7116 328.33 50.3565 328.253 50.8509 328.202C51.3509 328.145 51.7145 328.051 51.9418 327.92C52.1747 327.79 52.2912 327.562 52.2912 327.239V327.17C52.2912 326.33 52.0611 325.676 51.6009 325.21C51.1463 324.744 50.456 324.511 49.5298 324.511C48.5696 324.511 47.8168 324.722 47.2713 325.142C46.7259 325.562 46.3423 326.011 46.1207 326.489L44.2116 325.807C44.5526 325.011 45.0071 324.392 45.5753 323.949C46.1491 323.5 46.7741 323.187 47.4503 323.011C48.1321 322.83 48.8026 322.739 49.4616 322.739C49.8821 322.739 50.3651 322.79 50.9105 322.892C51.4616 322.989 51.9929 323.19 52.5043 323.497C53.0213 323.804 53.4503 324.267 53.7912 324.886C54.1321 325.506 54.3026 326.335 54.3026 327.375V336H52.2912V334.227H52.1889C52.0526 334.511 51.8253 334.815 51.5071 335.139C51.1889 335.463 50.7656 335.739 50.2372 335.966C49.7088 336.193 49.0639 336.307 48.3026 336.307ZM48.6094 334.5C49.4048 334.5 50.0753 334.344 50.6207 334.031C51.1719 333.719 51.5866 333.315 51.8651 332.821C52.1491 332.327 52.2912 331.807 52.2912 331.261V329.42C52.206 329.523 52.0185 329.616 51.7287 329.702C51.4446 329.781 51.1151 329.852 50.7401 329.915C50.3707 329.972 50.0099 330.023 49.6577 330.068C49.3111 330.108 49.0298 330.142 48.8139 330.17C48.2912 330.239 47.8026 330.349 47.348 330.503C46.8991 330.651 46.5355 330.875 46.2571 331.176C45.9844 331.472 45.848 331.875 45.848 332.386C45.848 333.085 46.1065 333.614 46.6236 333.972C47.1463 334.324 47.8082 334.5 48.6094 334.5ZM45.2003 321.273L48.6776 318.17H50.5526L54.0298 321.273H51.5753L49.6321 319.466L47.6889 321.273H45.2003ZM53.1094 319.193L54.7798 316.125H57.2685L54.8821 319.193H53.1094ZM57.9737 336V322.909H59.9169V324.955H60.0874C60.3601 324.256 60.8004 323.713 61.4084 323.327C62.0163 322.935 62.7464 322.739 63.5987 322.739C64.4624 322.739 65.1811 322.935 65.755 323.327C66.3345 323.713 66.7862 324.256 67.1101 324.955H67.2464C67.5817 324.278 68.0845 323.741 68.755 323.344C69.4254 322.94 70.2294 322.739 71.1669 322.739C72.3374 322.739 73.2947 323.105 74.0391 323.838C74.7834 324.565 75.1555 325.699 75.1555 327.239V336H73.1442V327.239C73.1442 326.273 72.88 325.582 72.3516 325.168C71.8232 324.753 71.201 324.545 70.4851 324.545C69.5646 324.545 68.8516 324.824 68.3459 325.381C67.8402 325.932 67.5874 326.631 67.5874 327.477V336H65.5419V327.034C65.5419 326.29 65.3004 325.69 64.8175 325.236C64.3345 324.776 63.7124 324.545 62.951 324.545C62.4283 324.545 61.9396 324.685 61.4851 324.963C61.0362 325.241 60.6726 325.628 60.3942 326.122C60.1214 326.611 59.9851 327.176 59.9851 327.818V336H57.9737Z" fill="white"/>
<g clip-path="url(#clip6_3_15)">
<path d="M100.7 325.802C100.583 325.918 100.491 326.056 100.428 326.208C100.365 326.359 100.333 326.522 100.333 326.686L100.333 327.319C100.337 327.664 100.476 327.975 100.7 328.202L109.266 336.752C109.343 336.831 109.435 336.893 109.537 336.936C109.639 336.978 109.748 337 109.858 337C109.968 337 110.077 336.978 110.179 336.936C110.28 336.893 110.372 336.831 110.45 336.752L111.633 335.569C111.711 335.493 111.773 335.402 111.815 335.302C111.858 335.202 111.88 335.094 111.88 334.986C111.88 334.877 111.858 334.769 111.815 334.669C111.773 334.569 111.711 334.478 111.633 334.402L104.216 327.002L111.633 319.602C111.712 319.525 111.774 319.433 111.817 319.331C111.859 319.23 111.881 319.121 111.881 319.011C111.881 318.9 111.859 318.791 111.817 318.69C111.774 318.588 111.712 318.496 111.633 318.419L110.45 317.252C110.372 317.174 110.28 317.112 110.179 317.069C110.077 317.027 109.968 317.005 109.858 317.005C109.748 317.005 109.639 317.027 109.537 317.069C109.435 317.112 109.343 317.174 109.266 317.252L100.7 325.802Z" fill="white"/>
</g>
<path opacity="0.8" d="M142.784 336.273C141.693 336.273 140.73 335.997 139.895 335.446C139.06 334.889 138.406 334.105 137.935 333.094C137.463 332.077 137.227 330.875 137.227 329.489C137.227 328.114 137.463 326.92 137.935 325.909C138.406 324.898 139.063 324.116 139.903 323.565C140.744 323.014 141.716 322.739 142.818 322.739C143.67 322.739 144.344 322.881 144.838 323.165C145.338 323.443 145.719 323.761 145.98 324.119C146.247 324.472 146.455 324.761 146.602 324.989H146.773V318.545H148.784V336H146.841V333.989H146.602C146.455 334.227 146.244 334.528 145.972 334.892C145.699 335.25 145.31 335.571 144.804 335.855C144.298 336.134 143.625 336.273 142.784 336.273ZM143.057 334.466C143.864 334.466 144.545 334.256 145.102 333.835C145.659 333.409 146.082 332.821 146.372 332.071C146.662 331.315 146.807 330.443 146.807 329.455C146.807 328.477 146.665 327.622 146.381 326.889C146.097 326.151 145.676 325.577 145.119 325.168C144.563 324.753 143.875 324.545 143.057 324.545C142.205 324.545 141.494 324.764 140.926 325.202C140.364 325.634 139.94 326.222 139.656 326.966C139.378 327.705 139.239 328.534 139.239 329.455C139.239 330.386 139.381 331.233 139.665 331.994C139.955 332.75 140.381 333.352 140.943 333.801C141.511 334.244 142.216 334.466 143.057 334.466ZM143.159 321.784V320.216H150.659V321.784H143.159ZM158.236 336.273C156.974 336.273 155.886 335.994 154.972 335.438C154.062 334.875 153.361 334.091 152.866 333.085C152.378 332.074 152.134 330.898 152.134 329.557C152.134 328.216 152.378 327.034 152.866 326.011C153.361 324.983 154.048 324.182 154.929 323.608C155.815 323.028 156.849 322.739 158.031 322.739C158.713 322.739 159.386 322.852 160.051 323.08C160.716 323.307 161.321 323.676 161.866 324.188C162.412 324.693 162.847 325.364 163.17 326.199C163.494 327.034 163.656 328.062 163.656 329.284V330.136H153.565V328.398H161.611C161.611 327.659 161.463 327 161.168 326.42C160.878 325.841 160.463 325.384 159.923 325.048C159.389 324.713 158.759 324.545 158.031 324.545C157.23 324.545 156.537 324.744 155.952 325.142C155.372 325.534 154.926 326.045 154.614 326.676C154.301 327.307 154.145 327.983 154.145 328.705V329.864C154.145 330.852 154.315 331.69 154.656 332.378C155.003 333.06 155.483 333.58 156.097 333.938C156.71 334.29 157.423 334.466 158.236 334.466C158.764 334.466 159.241 334.392 159.668 334.244C160.099 334.091 160.472 333.864 160.784 333.562C161.097 333.256 161.338 332.875 161.509 332.42L163.452 332.966C163.247 333.625 162.903 334.205 162.42 334.705C161.938 335.199 161.341 335.585 160.631 335.864C159.92 336.136 159.122 336.273 158.236 336.273ZM159.088 318.409L162.327 321.511H160.213L157.895 319.364L155.611 321.511H153.497L156.736 318.409H159.088ZM162.668 319.875H161.236V318.307C161.713 318.273 162.065 318.21 162.293 318.119C162.52 318.023 162.634 317.847 162.634 317.591C162.634 317.318 162.48 317.125 162.173 317.011C161.872 316.898 161.491 316.841 161.031 316.841L161.099 315.716C162.122 315.716 162.895 315.889 163.418 316.236C163.94 316.582 164.202 317.045 164.202 317.625C164.202 318.136 164.043 318.509 163.724 318.741C163.412 318.969 163.06 319.108 162.668 319.159V319.875ZM174.966 322.909L178.102 328.261L181.239 322.909H183.557L179.33 329.455L183.557 336H181.239L178.102 330.92L174.966 336H172.648L176.807 329.455L172.648 322.909H174.966ZM191.376 336.273C190.115 336.273 189.027 335.994 188.112 335.438C187.203 334.875 186.501 334.091 186.007 333.085C185.518 332.074 185.274 330.898 185.274 329.557C185.274 328.216 185.518 327.034 186.007 326.011C186.501 324.983 187.189 324.182 188.07 323.608C188.956 323.028 189.99 322.739 191.172 322.739C191.854 322.739 192.527 322.852 193.192 323.08C193.857 323.307 194.462 323.676 195.007 324.188C195.553 324.693 195.987 325.364 196.311 326.199C196.635 327.034 196.797 328.062 196.797 329.284V330.136H186.706V328.398H194.751C194.751 327.659 194.604 327 194.308 326.42C194.018 325.841 193.604 325.384 193.064 325.048C192.53 324.713 191.899 324.545 191.172 324.545C190.371 324.545 189.678 324.744 189.092 325.142C188.513 325.534 188.067 326.045 187.754 326.676C187.442 327.307 187.286 327.983 187.286 328.705V329.864C187.286 330.852 187.456 331.69 187.797 332.378C188.143 333.06 188.624 333.58 189.237 333.938C189.851 334.29 190.564 334.466 191.376 334.466C191.905 334.466 192.382 334.392 192.808 334.244C193.24 334.091 193.612 333.864 193.925 333.562C194.237 333.256 194.479 332.875 194.649 332.42L196.592 332.966C196.388 333.625 196.044 334.205 195.561 334.705C195.078 335.199 194.482 335.585 193.771 335.864C193.061 336.136 192.263 336.273 191.376 336.273ZM199.857 336V322.909H201.8V324.955H201.97C202.243 324.256 202.683 323.713 203.291 323.327C203.899 322.935 204.629 322.739 205.482 322.739C206.345 322.739 207.064 322.935 207.638 323.327C208.217 323.713 208.669 324.256 208.993 324.955H209.129C209.464 324.278 209.967 323.741 210.638 323.344C211.308 322.94 212.112 322.739 213.05 322.739C214.22 322.739 215.178 323.105 215.922 323.838C216.666 324.565 217.038 325.699 217.038 327.239V336H215.027V327.239C215.027 326.273 214.763 325.582 214.234 325.168C213.706 324.753 213.084 324.545 212.368 324.545C211.447 324.545 210.734 324.824 210.229 325.381C209.723 325.932 209.47 326.631 209.47 327.477V336H207.425V327.034C207.425 326.29 207.183 325.69 206.7 325.236C206.217 324.776 205.595 324.545 204.834 324.545C204.311 324.545 203.822 324.685 203.368 324.963C202.919 325.241 202.555 325.628 202.277 326.122C202.004 326.611 201.868 327.176 201.868 327.818V336H199.857Z" fill="white"/>
<path opacity="0.8" d="M34.7045 372H28.517V354.545H34.7557C36.5114 354.545 38.0227 354.895 39.2898 355.594C40.5568 356.287 41.5313 357.284 42.2131 358.585C42.9006 359.886 43.2443 361.443 43.2443 363.256C43.2443 365.074 42.9006 366.636 42.2131 367.943C41.5313 369.25 40.5511 370.253 39.2727 370.952C38 371.651 36.4773 372 34.7045 372ZM32.2074 368.838H34.5511C35.642 368.838 36.5597 368.645 37.304 368.259C38.054 367.866 38.6165 367.261 38.9915 366.443C39.3722 365.619 39.5625 364.557 39.5625 363.256C39.5625 361.966 39.3722 360.912 38.9915 360.094C38.6165 359.276 38.0568 358.673 37.3125 358.287C36.5682 357.901 35.6506 357.707 34.5597 357.707H32.2074V368.838ZM49.6428 372.247C48.8075 372.247 48.0632 372.102 47.4098 371.812C46.7564 371.517 46.2393 371.082 45.8587 370.509C45.4837 369.929 45.2962 369.207 45.2962 368.344C45.2962 367.616 45.4297 367.006 45.6967 366.511C45.9638 366.017 46.3274 365.619 46.7876 365.318C47.2479 365.017 47.7706 364.79 48.3558 364.636C48.9467 364.483 49.5661 364.375 50.2138 364.312C50.9751 364.233 51.5888 364.159 52.0547 364.091C52.5206 364.017 52.8587 363.909 53.0689 363.767C53.2791 363.625 53.3842 363.415 53.3842 363.136V363.085C53.3842 362.545 53.2138 362.128 52.8729 361.832C52.5376 361.537 52.0604 361.389 51.4411 361.389C50.7876 361.389 50.2678 361.534 49.8814 361.824C49.495 362.108 49.2393 362.466 49.1143 362.898L45.7564 362.625C45.9268 361.83 46.2621 361.142 46.7621 360.562C47.2621 359.977 47.907 359.528 48.6967 359.216C49.4922 358.898 50.4126 358.739 51.4581 358.739C52.1854 358.739 52.8814 358.824 53.5462 358.994C54.2166 359.165 54.8104 359.429 55.3274 359.787C55.8501 360.145 56.2621 360.605 56.5632 361.168C56.8643 361.724 57.0149 362.392 57.0149 363.17V372H53.5717V370.185H53.4695C53.2592 370.594 52.978 370.955 52.6257 371.267C52.2734 371.574 51.8501 371.815 51.3558 371.991C50.8615 372.162 50.2905 372.247 49.6428 372.247ZM50.6825 369.741C51.2166 369.741 51.6882 369.636 52.0973 369.426C52.5064 369.21 52.8274 368.92 53.0604 368.557C53.2933 368.193 53.4098 367.781 53.4098 367.321V365.932C53.2962 366.006 53.1399 366.074 52.9411 366.136C52.7479 366.193 52.5291 366.247 52.2848 366.298C52.0405 366.344 51.7962 366.386 51.5518 366.426C51.3075 366.46 51.0859 366.491 50.8871 366.52C50.4609 366.582 50.0888 366.682 49.7706 366.818C49.4524 366.955 49.2053 367.139 49.0291 367.372C48.853 367.599 48.7649 367.884 48.7649 368.224C48.7649 368.719 48.9439 369.097 49.3018 369.358C49.6655 369.614 50.1257 369.741 50.6825 369.741ZM63.4624 364.432V372H59.8317V358.909H63.2919V361.219H63.4453C63.7351 360.457 64.2209 359.855 64.9027 359.412C65.5845 358.963 66.4112 358.739 67.3828 358.739C68.2919 358.739 69.0845 358.938 69.7607 359.335C70.4368 359.733 70.9624 360.301 71.3374 361.04C71.7124 361.773 71.8999 362.648 71.8999 363.665V372H68.2692V364.312C68.2749 363.511 68.0703 362.886 67.6555 362.438C67.2408 361.983 66.6697 361.756 65.9425 361.756C65.4538 361.756 65.022 361.861 64.647 362.071C64.2777 362.281 63.9879 362.588 63.7777 362.991C63.5732 363.389 63.468 363.869 63.4624 364.432ZM78.392 364.432V372H74.7614V354.545H78.2898V361.219H78.4432C78.7386 360.446 79.2159 359.841 79.875 359.403C80.5341 358.96 81.3608 358.739 82.3551 358.739C83.2642 358.739 84.0568 358.938 84.733 359.335C85.4148 359.727 85.9432 360.293 86.3182 361.031C86.6989 361.764 86.8864 362.642 86.8807 363.665V372H83.25V364.312C83.2557 363.506 83.0511 362.878 82.6364 362.429C82.2273 361.98 81.6534 361.756 80.9148 361.756C80.4205 361.756 79.983 361.861 79.6023 362.071C79.2273 362.281 78.9318 362.588 78.7159 362.991C78.5057 363.389 78.3977 363.869 78.392 364.432ZM106.185 362.642L102.861 362.847C102.804 362.562 102.682 362.307 102.494 362.08C102.307 361.847 102.06 361.662 101.753 361.526C101.452 361.384 101.091 361.312 100.67 361.312C100.108 361.312 99.6335 361.432 99.2472 361.67C98.8608 361.903 98.6676 362.216 98.6676 362.608C98.6676 362.92 98.7926 363.185 99.0426 363.401C99.2926 363.616 99.7216 363.79 100.33 363.92L102.699 364.398C103.972 364.659 104.92 365.08 105.545 365.659C106.17 366.239 106.483 367 106.483 367.943C106.483 368.801 106.23 369.554 105.724 370.202C105.224 370.849 104.537 371.355 103.662 371.719C102.793 372.077 101.79 372.256 100.653 372.256C98.9205 372.256 97.5398 371.895 96.5114 371.173C95.4886 370.446 94.8892 369.457 94.7131 368.207L98.2841 368.02C98.392 368.548 98.6534 368.952 99.0682 369.23C99.483 369.503 100.014 369.639 100.662 369.639C101.298 369.639 101.81 369.517 102.196 369.273C102.588 369.023 102.787 368.702 102.793 368.31C102.787 367.98 102.648 367.71 102.375 367.5C102.102 367.284 101.682 367.119 101.114 367.006L98.8466 366.554C97.5682 366.298 96.6165 365.855 95.9915 365.224C95.3722 364.594 95.0625 363.79 95.0625 362.812C95.0625 361.972 95.2898 361.247 95.7443 360.639C96.2045 360.031 96.8494 359.562 97.679 359.233C98.5142 358.903 99.4915 358.739 100.611 358.739C102.264 358.739 103.565 359.088 104.514 359.787C105.469 360.486 106.026 361.437 106.185 362.642ZM112.502 372.247C111.667 372.247 110.923 372.102 110.269 371.812C109.616 371.517 109.099 371.082 108.718 370.509C108.343 369.929 108.156 369.207 108.156 368.344C108.156 367.616 108.289 367.006 108.556 366.511C108.823 366.017 109.187 365.619 109.647 365.318C110.107 365.017 110.63 364.79 111.215 364.636C111.806 364.483 112.425 364.375 113.073 364.312C113.835 364.233 114.448 364.159 114.914 364.091C115.38 364.017 115.718 363.909 115.928 363.767C116.138 363.625 116.244 363.415 116.244 363.136V363.085C116.244 362.545 116.073 362.128 115.732 361.832C115.397 361.537 114.92 361.389 114.3 361.389C113.647 361.389 113.127 361.534 112.741 361.824C112.354 362.108 112.099 362.466 111.974 362.898L108.616 362.625C108.786 361.83 109.121 361.142 109.621 360.562C110.121 359.977 110.766 359.528 111.556 359.216C112.352 358.898 113.272 358.739 114.317 358.739C115.045 358.739 115.741 358.824 116.406 358.994C117.076 359.165 117.67 359.429 118.187 359.787C118.71 360.145 119.121 360.605 119.423 361.168C119.724 361.724 119.874 362.392 119.874 363.17V372H116.431V370.185H116.329C116.119 370.594 115.837 370.955 115.485 371.267C115.133 371.574 114.71 371.815 114.215 371.991C113.721 372.162 113.15 372.247 112.502 372.247ZM113.542 369.741C114.076 369.741 114.548 369.636 114.957 369.426C115.366 369.21 115.687 368.92 115.92 368.557C116.153 368.193 116.269 367.781 116.269 367.321V365.932C116.156 366.006 115.999 366.074 115.8 366.136C115.607 366.193 115.388 366.247 115.144 366.298C114.9 366.344 114.656 366.386 114.411 366.426C114.167 366.46 113.945 366.491 113.746 366.52C113.32 366.582 112.948 366.682 112.63 366.818C112.312 366.955 112.065 367.139 111.888 367.372C111.712 367.599 111.624 367.884 111.624 368.224C111.624 368.719 111.803 369.097 112.161 369.358C112.525 369.614 112.985 369.741 113.542 369.741ZM113.15 357.222L114.957 353.344H118.315L115.715 357.222H113.15ZM128.606 372.256C127.265 372.256 126.112 371.972 125.146 371.403C124.185 370.83 123.447 370.034 122.93 369.017C122.418 368 122.163 366.83 122.163 365.506C122.163 364.165 122.421 362.989 122.938 361.977C123.461 360.96 124.202 360.168 125.163 359.599C126.123 359.026 127.265 358.739 128.589 358.739C129.731 358.739 130.731 358.946 131.589 359.361C132.447 359.776 133.126 360.358 133.626 361.108C134.126 361.858 134.401 362.739 134.452 363.75H131.026C130.93 363.097 130.674 362.571 130.259 362.173C129.85 361.77 129.313 361.568 128.648 361.568C128.086 361.568 127.594 361.722 127.174 362.028C126.759 362.33 126.435 362.77 126.202 363.349C125.969 363.929 125.853 364.631 125.853 365.455C125.853 366.29 125.967 367 126.194 367.585C126.427 368.17 126.754 368.616 127.174 368.923C127.594 369.23 128.086 369.384 128.648 369.384C129.063 369.384 129.435 369.298 129.765 369.128C130.1 368.957 130.376 368.71 130.592 368.386C130.813 368.057 130.958 367.662 131.026 367.202H134.452C134.396 368.202 134.123 369.082 133.634 369.844C133.151 370.599 132.484 371.19 131.631 371.616C130.779 372.043 129.771 372.256 128.606 372.256ZM140.408 364.432V372H136.777V354.545H140.305V361.219H140.459C140.754 360.446 141.232 359.841 141.891 359.403C142.55 358.96 143.376 358.739 144.371 358.739C145.28 358.739 146.072 358.938 146.749 359.335C147.43 359.727 147.959 360.293 148.334 361.031C148.714 361.764 148.902 362.642 148.896 363.665V372H145.266V364.312C145.271 363.506 145.067 362.878 144.652 362.429C144.243 361.98 143.669 361.756 142.93 361.756C142.436 361.756 141.999 361.861 141.618 362.071C141.243 362.281 140.947 362.588 140.732 362.991C140.521 363.389 140.413 363.869 140.408 364.432ZM160.598 368.233L160.607 363.878H161.135L165.328 358.909H169.496L163.862 365.489H163.001L160.598 368.233ZM157.308 372V354.545H160.939V372H157.308ZM165.49 372L161.638 366.298L164.058 363.733L169.743 372H165.49ZM176.704 372.256C175.357 372.256 174.198 371.983 173.227 371.438C172.261 370.886 171.516 370.108 170.994 369.102C170.471 368.091 170.21 366.895 170.21 365.514C170.21 364.168 170.471 362.986 170.994 361.969C171.516 360.952 172.252 360.159 173.201 359.591C174.156 359.023 175.275 358.739 176.559 358.739C177.423 358.739 178.227 358.878 178.971 359.156C179.721 359.429 180.374 359.841 180.931 360.392C181.494 360.943 181.931 361.636 182.244 362.472C182.556 363.301 182.712 364.273 182.712 365.386V366.384H171.658V364.134H179.295C179.295 363.611 179.181 363.148 178.954 362.744C178.727 362.341 178.411 362.026 178.008 361.798C177.61 361.565 177.147 361.449 176.619 361.449C176.067 361.449 175.579 361.577 175.153 361.832C174.732 362.082 174.403 362.42 174.164 362.847C173.925 363.267 173.803 363.736 173.798 364.253V366.392C173.798 367.04 173.917 367.599 174.156 368.071C174.4 368.543 174.744 368.906 175.187 369.162C175.63 369.418 176.156 369.545 176.763 369.545C177.167 369.545 177.536 369.489 177.871 369.375C178.207 369.261 178.494 369.091 178.732 368.864C178.971 368.636 179.153 368.358 179.278 368.028L182.636 368.25C182.465 369.057 182.116 369.761 181.587 370.364C181.065 370.96 180.388 371.426 179.559 371.761C178.735 372.091 177.783 372.256 176.704 372.256ZM178.187 357.341L176.474 355.261L174.761 357.341H171.667V357.222L175.119 353.472H177.82L181.281 357.222V357.341H178.187ZM188.712 364.432V372H185.082V358.909H188.542V361.219H188.695C188.985 360.457 189.471 359.855 190.153 359.412C190.835 358.963 191.661 358.739 192.633 358.739C193.542 358.739 194.335 358.938 195.011 359.335C195.687 359.733 196.212 360.301 196.587 361.04C196.962 361.773 197.15 362.648 197.15 363.665V372H193.519V364.312C193.525 363.511 193.32 362.886 192.906 362.438C192.491 361.983 191.92 361.756 191.192 361.756C190.704 361.756 190.272 361.861 189.897 362.071C189.528 362.281 189.238 362.588 189.028 362.991C188.823 363.389 188.718 363.869 188.712 364.432ZM203.642 364.432V372H200.011V354.545H203.54V361.219H203.693C203.989 360.446 204.466 359.841 205.125 359.403C205.784 358.96 206.611 358.739 207.605 358.739C208.514 358.739 209.307 358.938 209.983 359.335C210.665 359.727 211.193 360.293 211.568 361.031C211.949 361.764 212.136 362.642 212.131 363.665V372H208.5V364.312C208.506 363.506 208.301 362.878 207.886 362.429C207.477 361.98 206.903 361.756 206.165 361.756C205.67 361.756 205.233 361.861 204.852 362.071C204.477 362.281 204.182 362.588 203.966 362.991C203.756 363.389 203.648 363.869 203.642 364.432Z" fill="white"/>
<path d="M380.707 343.707C381.098 343.317 381.098 342.683 380.707 342.293L374.343 335.929C373.953 335.538 373.319 335.538 372.929 335.929C372.538 336.319 372.538 336.953 372.929 337.343L378.586 343L372.929 348.657C372.538 349.047 372.538 349.681 372.929 350.071C373.319 350.462 373.953 350.462 374.343 350.071L380.707 343.707ZM258 344H260.033V342H258V344ZM264.1 344H268.167V342H264.1V344ZM272.233 344H276.3V342H272.233V344ZM280.367 344H284.433V342H280.367V344ZM288.5 344H292.567V342H288.5V344ZM296.633 344H300.7V342H296.633V344ZM304.767 344H308.833V342H304.767V344ZM312.9 344H316.967V342H312.9V344ZM321.033 344H325.1V342H321.033V344ZM329.167 344H333.233V342H329.167V344ZM337.3 344H341.367V342H337.3V344ZM345.433 344H349.5V342H345.433V344ZM353.567 344H357.633V342H353.567V344ZM361.7 344H365.767V342H361.7V344ZM369.833 344H373.9V342H369.833V344ZM377.967 344H380V342H377.967V344ZM381.414 344.414C382.195 343.633 382.195 342.367 381.414 341.586L368.686 328.858C367.905 328.077 366.639 328.077 365.858 328.858C365.077 329.639 365.077 330.905 365.858 331.686L377.172 343L365.858 354.314C365.077 355.095 365.077 356.361 365.858 357.142C366.639 357.923 367.905 357.923 368.686 357.142L381.414 344.414ZM258 345H260.033V341H258V345ZM264.1 345H268.167V341H264.1V345ZM272.233 345H276.3V341H272.233V345ZM280.367 345H284.433V341H280.367V345ZM288.5 345H292.567V341H288.5V345ZM296.633 345H300.7V341H296.633V345ZM304.767 345H308.833V341H304.767V345ZM312.9 345H316.967V341H312.9V345ZM321.033 345H325.1V341H321.033V345ZM329.167 345H333.233V341H329.167V345ZM337.3 345H341.367V341H337.3V345ZM345.433 345H349.5V341H345.433V345ZM353.567 345H357.633V341H353.567V345ZM361.7 345H365.767V341H361.7V345ZM369.833 345H373.9V341H369.833V345ZM377.967 345H380V341H377.967V345Z" fill="#ED2C25"/>
<mask id="path-26-inside-3_3_15" fill="white">
<path d="M818 391C818 388.791 819.791 387 822 387H1099C1101.21 387 1103 388.791 1103 391V503C1103 505.209 1101.21 507 1099 507H822C819.791 507 818 505.209 818 503V391Z"/>
</mask>
<path d="M818 391C818 388.791 819.791 387 822 387H1099C1101.21 387 1103 388.791 1103 391V503C1103 505.209 1101.21 507 1099 507H822C819.791 507 818 505.209 818 503V391Z" fill="#313131" fill-opacity="0.6"/>
<path d="M822 388H1099V386H822V388ZM1102 391V503H1104V391H1102ZM1099 506H822V508H1099V506ZM819 503V391H817V503H819ZM822 506C820.343 506 819 504.657 819 503H817C817 505.761 819.239 508 822 508V506ZM1102 503C1102 504.657 1100.66 506 1099 506V508C1101.76 508 1104 505.761 1104 503H1102ZM1099 388C1100.66 388 1102 389.343 1102 391H1104C1104 388.239 1101.76 386 1099 386V388ZM822 386C819.239 386 817 388.239 817 391H819C819 389.343 820.343 388 822 388V386Z" fill="white" mask="url(#path-26-inside-3_3_15)"/>
<path opacity="0.8" d="M847.114 440V422.545H853.216C854.432 422.545 855.435 422.756 856.224 423.176C857.014 423.591 857.602 424.151 857.989 424.855C858.375 425.554 858.568 426.33 858.568 427.182C858.568 427.932 858.435 428.551 858.168 429.04C857.906 429.528 857.56 429.915 857.128 430.199C856.702 430.483 856.239 430.693 855.739 430.83V431C856.273 431.034 856.81 431.222 857.349 431.562C857.889 431.903 858.341 432.392 858.705 433.028C859.068 433.665 859.25 434.443 859.25 435.364C859.25 436.239 859.051 437.026 858.653 437.724C858.256 438.423 857.628 438.977 856.77 439.386C855.912 439.795 854.795 440 853.42 440H847.114ZM849.227 438.125H853.42C854.801 438.125 855.781 437.858 856.361 437.324C856.946 436.784 857.239 436.131 857.239 435.364C857.239 434.773 857.088 434.227 856.787 433.727C856.486 433.222 856.057 432.818 855.5 432.517C854.943 432.21 854.284 432.057 853.523 432.057H849.227V438.125ZM849.227 430.216H853.148C853.784 430.216 854.358 430.091 854.869 429.841C855.386 429.591 855.795 429.239 856.097 428.784C856.403 428.33 856.557 427.795 856.557 427.182C856.557 426.415 856.29 425.764 855.756 425.23C855.222 424.69 854.375 424.42 853.216 424.42H849.227V430.216ZM866.303 440.307C865.473 440.307 864.72 440.151 864.044 439.838C863.368 439.52 862.831 439.062 862.433 438.466C862.036 437.864 861.837 437.136 861.837 436.284C861.837 435.534 861.984 434.926 862.28 434.46C862.575 433.989 862.97 433.619 863.464 433.352C863.959 433.085 864.504 432.886 865.101 432.756C865.703 432.619 866.308 432.511 866.916 432.432C867.712 432.33 868.357 432.253 868.851 432.202C869.351 432.145 869.714 432.051 869.942 431.92C870.175 431.79 870.291 431.562 870.291 431.239V431.17C870.291 430.33 870.061 429.676 869.601 429.21C869.146 428.744 868.456 428.511 867.53 428.511C866.57 428.511 865.817 428.722 865.271 429.142C864.726 429.562 864.342 430.011 864.121 430.489L862.212 429.807C862.553 429.011 863.007 428.392 863.575 427.949C864.149 427.5 864.774 427.187 865.45 427.011C866.132 426.83 866.803 426.739 867.462 426.739C867.882 426.739 868.365 426.79 868.911 426.892C869.462 426.989 869.993 427.19 870.504 427.497C871.021 427.804 871.45 428.267 871.791 428.886C872.132 429.506 872.303 430.335 872.303 431.375V440H870.291V438.227H870.189C870.053 438.511 869.825 438.815 869.507 439.139C869.189 439.463 868.766 439.739 868.237 439.966C867.709 440.193 867.064 440.307 866.303 440.307ZM866.609 438.5C867.405 438.5 868.075 438.344 868.621 438.031C869.172 437.719 869.587 437.315 869.865 436.821C870.149 436.327 870.291 435.807 870.291 435.261V433.42C870.206 433.523 870.018 433.616 869.729 433.702C869.445 433.781 869.115 433.852 868.74 433.915C868.371 433.972 868.01 434.023 867.658 434.068C867.311 434.108 867.03 434.142 866.814 434.17C866.291 434.239 865.803 434.349 865.348 434.503C864.899 434.651 864.536 434.875 864.257 435.176C863.984 435.472 863.848 435.875 863.848 436.386C863.848 437.085 864.107 437.614 864.624 437.972C865.146 438.324 865.808 438.5 866.609 438.5ZM863.2 425.273L866.678 422.17H868.553L872.03 425.273H869.575L867.632 423.466L865.689 425.273H863.2ZM871.109 423.193L872.78 420.125H875.268L872.882 423.193H871.109ZM875.974 440V426.909H877.917V428.955H878.087C878.36 428.256 878.8 427.713 879.408 427.327C880.016 426.935 880.746 426.739 881.599 426.739C882.462 426.739 883.181 426.935 883.755 427.327C884.335 427.713 884.786 428.256 885.11 428.955H885.246C885.582 428.278 886.085 427.741 886.755 427.344C887.425 426.94 888.229 426.739 889.167 426.739C890.337 426.739 891.295 427.105 892.039 427.838C892.783 428.565 893.156 429.699 893.156 431.239V440H891.144V431.239C891.144 430.273 890.88 429.582 890.352 429.168C889.823 428.753 889.201 428.545 888.485 428.545C887.565 428.545 886.852 428.824 886.346 429.381C885.84 429.932 885.587 430.631 885.587 431.477V440H883.542V431.034C883.542 430.29 883.3 429.69 882.817 429.236C882.335 428.776 881.712 428.545 880.951 428.545C880.428 428.545 879.94 428.685 879.485 428.963C879.036 429.241 878.673 429.628 878.394 430.122C878.121 430.611 877.985 431.176 877.985 431.818V440H875.974Z" fill="white"/>
<path opacity="0.8" d="M925.397 431.273C925.397 433.176 925.036 434.795 924.314 436.131C923.598 437.466 922.621 438.486 921.382 439.19C920.15 439.889 918.763 440.239 917.223 440.239C915.672 440.239 914.28 439.886 913.047 439.182C911.814 438.477 910.84 437.457 910.124 436.122C909.408 434.787 909.05 433.17 909.05 431.273C909.05 429.369 909.408 427.75 910.124 426.415C910.84 425.08 911.814 424.062 913.047 423.364C914.28 422.659 915.672 422.307 917.223 422.307C918.763 422.307 920.15 422.659 921.382 423.364C922.621 424.062 923.598 425.08 924.314 426.415C925.036 427.75 925.397 429.369 925.397 431.273ZM921.655 431.273C921.655 430.04 921.471 429 921.101 428.153C920.738 427.307 920.223 426.665 919.559 426.227C918.894 425.79 918.115 425.571 917.223 425.571C916.331 425.571 915.553 425.79 914.888 426.227C914.223 426.665 913.706 427.307 913.337 428.153C912.973 429 912.792 430.04 912.792 431.273C912.792 432.506 912.973 433.545 913.337 434.392C913.706 435.239 914.223 435.881 914.888 436.318C915.553 436.756 916.331 436.974 917.223 436.974C918.115 436.974 918.894 436.756 919.559 436.318C920.223 435.881 920.738 435.239 921.101 434.392C921.471 433.545 921.655 432.506 921.655 431.273ZM928.13 440V422.545H931.821V430.241H932.051L938.332 422.545H942.755L936.278 430.361L942.832 440H938.417L933.636 432.824L931.821 435.04V440H928.13Z" fill="white"/>
<path opacity="0.8" d="M961.784 440.273C960.693 440.273 959.73 439.997 958.895 439.446C958.06 438.889 957.406 438.105 956.935 437.094C956.463 436.077 956.227 434.875 956.227 433.489C956.227 432.114 956.463 430.92 956.935 429.909C957.406 428.898 958.063 428.116 958.903 427.565C959.744 427.014 960.716 426.739 961.818 426.739C962.67 426.739 963.344 426.881 963.838 427.165C964.338 427.443 964.719 427.761 964.98 428.119C965.247 428.472 965.455 428.761 965.602 428.989H965.773V422.545H967.784V440H965.841V437.989H965.602C965.455 438.227 965.244 438.528 964.972 438.892C964.699 439.25 964.31 439.571 963.804 439.855C963.298 440.134 962.625 440.273 961.784 440.273ZM962.057 438.466C962.864 438.466 963.545 438.256 964.102 437.835C964.659 437.409 965.082 436.821 965.372 436.071C965.662 435.315 965.807 434.443 965.807 433.455C965.807 432.477 965.665 431.622 965.381 430.889C965.097 430.151 964.676 429.577 964.119 429.168C963.563 428.753 962.875 428.545 962.057 428.545C961.205 428.545 960.494 428.764 959.926 429.202C959.364 429.634 958.94 430.222 958.656 430.966C958.378 431.705 958.239 432.534 958.239 433.455C958.239 434.386 958.381 435.233 958.665 435.994C958.955 436.75 959.381 437.352 959.943 437.801C960.511 438.244 961.216 438.466 962.057 438.466ZM962.159 425.784V424.216H969.659V425.784H962.159ZM977.236 440.273C975.974 440.273 974.886 439.994 973.972 439.438C973.062 438.875 972.361 438.091 971.866 437.085C971.378 436.074 971.134 434.898 971.134 433.557C971.134 432.216 971.378 431.034 971.866 430.011C972.361 428.983 973.048 428.182 973.929 427.608C974.815 427.028 975.849 426.739 977.031 426.739C977.713 426.739 978.386 426.852 979.051 427.08C979.716 427.307 980.321 427.676 980.866 428.188C981.412 428.693 981.847 429.364 982.17 430.199C982.494 431.034 982.656 432.062 982.656 433.284V434.136H972.565V432.398H980.611C980.611 431.659 980.463 431 980.168 430.42C979.878 429.841 979.463 429.384 978.923 429.048C978.389 428.713 977.759 428.545 977.031 428.545C976.23 428.545 975.537 428.744 974.952 429.142C974.372 429.534 973.926 430.045 973.614 430.676C973.301 431.307 973.145 431.983 973.145 432.705V433.864C973.145 434.852 973.315 435.69 973.656 436.378C974.003 437.06 974.483 437.58 975.097 437.938C975.71 438.29 976.423 438.466 977.236 438.466C977.764 438.466 978.241 438.392 978.668 438.244C979.099 438.091 979.472 437.864 979.784 437.562C980.097 437.256 980.338 436.875 980.509 436.42L982.452 436.966C982.247 437.625 981.903 438.205 981.42 438.705C980.938 439.199 980.341 439.585 979.631 439.864C978.92 440.136 978.122 440.273 977.236 440.273ZM978.088 422.409L981.327 425.511H979.213L976.895 423.364L974.611 425.511H972.497L975.736 422.409H978.088ZM981.668 423.875H980.236V422.307C980.713 422.273 981.065 422.21 981.293 422.119C981.52 422.023 981.634 421.847 981.634 421.591C981.634 421.318 981.48 421.125 981.173 421.011C980.872 420.898 980.491 420.841 980.031 420.841L980.099 419.716C981.122 419.716 981.895 419.889 982.418 420.236C982.94 420.582 983.202 421.045 983.202 421.625C983.202 422.136 983.043 422.509 982.724 422.741C982.412 422.969 982.06 423.108 981.668 423.159V423.875Z" fill="white"/>
<path opacity="0.8" d="M845.852 461.588V458.545H860.188V461.588H854.844V476H851.196V461.588H845.852ZM869.094 470.426V462.909H872.724V476H869.239V473.622H869.102C868.807 474.389 868.315 475.006 867.628 475.472C866.946 475.937 866.114 476.17 865.131 476.17C864.256 476.17 863.486 475.972 862.821 475.574C862.156 475.176 861.636 474.611 861.261 473.878C860.892 473.145 860.705 472.267 860.699 471.244V462.909H864.33V470.597C864.335 471.369 864.543 471.98 864.952 472.429C865.361 472.878 865.909 473.102 866.597 473.102C867.034 473.102 867.443 473.003 867.824 472.804C868.205 472.599 868.511 472.298 868.744 471.901C868.983 471.503 869.099 471.011 869.094 470.426ZM879.362 476.247C878.526 476.247 877.782 476.102 877.129 475.812C876.475 475.517 875.958 475.082 875.577 474.509C875.202 473.929 875.015 473.207 875.015 472.344C875.015 471.616 875.148 471.006 875.415 470.511C875.683 470.017 876.046 469.619 876.506 469.318C876.967 469.017 877.489 468.79 878.075 468.636C878.665 468.483 879.285 468.375 879.933 468.312C880.694 468.233 881.308 468.159 881.773 468.091C882.239 468.017 882.577 467.909 882.788 467.767C882.998 467.625 883.103 467.415 883.103 467.136V467.085C883.103 466.545 882.933 466.128 882.592 465.832C882.256 465.537 881.779 465.389 881.16 465.389C880.506 465.389 879.987 465.534 879.6 465.824C879.214 466.108 878.958 466.466 878.833 466.898L875.475 466.625C875.646 465.83 875.981 465.142 876.481 464.562C876.981 463.977 877.626 463.528 878.415 463.216C879.211 462.898 880.131 462.739 881.177 462.739C881.904 462.739 882.6 462.824 883.265 462.994C883.935 463.165 884.529 463.429 885.046 463.787C885.569 464.145 885.981 464.605 886.282 465.168C886.583 465.724 886.734 466.392 886.734 467.17V476H883.29V474.185H883.188C882.978 474.594 882.697 474.955 882.344 475.267C881.992 475.574 881.569 475.815 881.075 475.991C880.58 476.162 880.009 476.247 879.362 476.247ZM880.401 473.741C880.935 473.741 881.407 473.636 881.816 473.426C882.225 473.21 882.546 472.92 882.779 472.557C883.012 472.193 883.129 471.781 883.129 471.321V469.932C883.015 470.006 882.859 470.074 882.66 470.136C882.467 470.193 882.248 470.247 882.004 470.298C881.759 470.344 881.515 470.386 881.271 470.426C881.026 470.46 880.805 470.491 880.606 470.52C880.18 470.582 879.808 470.682 879.489 470.818C879.171 470.955 878.924 471.139 878.748 471.372C878.572 471.599 878.484 471.884 878.484 472.224C878.484 472.719 878.663 473.097 879.021 473.358C879.384 473.614 879.844 473.741 880.401 473.741ZM898.736 458.545V476H895.105V458.545H898.736ZM905.377 476.247C904.542 476.247 903.798 476.102 903.144 475.812C902.491 475.517 901.974 475.082 901.593 474.509C901.218 473.929 901.031 473.207 901.031 472.344C901.031 471.616 901.164 471.006 901.431 470.511C901.698 470.017 902.062 469.619 902.522 469.318C902.982 469.017 903.505 468.79 904.09 468.636C904.681 468.483 905.3 468.375 905.948 468.312C906.71 468.233 907.323 468.159 907.789 468.091C908.255 468.017 908.593 467.909 908.803 467.767C909.013 467.625 909.119 467.415 909.119 467.136V467.085C909.119 466.545 908.948 466.128 908.607 465.832C908.272 465.537 907.795 465.389 907.175 465.389C906.522 465.389 906.002 465.534 905.616 465.824C905.229 466.108 904.974 466.466 904.849 466.898L901.491 466.625C901.661 465.83 901.996 465.142 902.496 464.562C902.996 463.977 903.641 463.528 904.431 463.216C905.227 462.898 906.147 462.739 907.192 462.739C907.92 462.739 908.616 462.824 909.281 462.994C909.951 463.165 910.545 463.429 911.062 463.787C911.585 464.145 911.996 464.605 912.298 465.168C912.599 465.724 912.749 466.392 912.749 467.17V476H909.306V474.185H909.204C908.994 474.594 908.712 474.955 908.36 475.267C908.008 475.574 907.585 475.815 907.09 475.991C906.596 476.162 906.025 476.247 905.377 476.247ZM906.417 473.741C906.951 473.741 907.423 473.636 907.832 473.426C908.241 473.21 908.562 472.92 908.795 472.557C909.028 472.193 909.144 471.781 909.144 471.321V469.932C909.031 470.006 908.874 470.074 908.675 470.136C908.482 470.193 908.263 470.247 908.019 470.298C907.775 470.344 907.531 470.386 907.286 470.426C907.042 470.46 906.82 470.491 906.621 470.52C906.195 470.582 905.823 470.682 905.505 470.818C905.187 470.955 904.94 471.139 904.763 471.372C904.587 471.599 904.499 471.884 904.499 472.224C904.499 472.719 904.678 473.097 905.036 473.358C905.4 473.614 905.86 473.741 906.417 473.741ZM907.184 480.901C906.644 480.901 906.181 480.722 905.795 480.364C905.408 480.006 905.215 479.574 905.215 479.068C905.215 478.562 905.408 478.131 905.795 477.773C906.181 477.415 906.644 477.236 907.184 477.236C907.724 477.236 908.184 477.415 908.565 477.773C908.951 478.131 909.144 478.562 909.144 479.068C909.144 479.574 908.951 480.006 908.565 480.364C908.184 480.722 907.724 480.901 907.184 480.901ZM915.566 476V462.909H919.197V476H915.566ZM917.39 461.222C916.85 461.222 916.387 461.043 916.001 460.685C915.62 460.321 915.43 459.886 915.43 459.381C915.43 458.881 915.62 458.452 916.001 458.094C916.387 457.73 916.85 457.548 917.39 457.548C917.93 457.548 918.39 457.73 918.771 458.094C919.157 458.452 919.35 458.881 919.35 459.381C919.35 459.886 919.157 460.321 918.771 460.685C918.39 461.043 917.93 461.222 917.39 461.222ZM930.063 468.125V476H928.052V458.545H930.063V464.955H930.234C930.54 464.278 931.001 463.741 931.614 463.344C932.234 462.94 933.058 462.739 934.086 462.739C934.978 462.739 935.759 462.918 936.43 463.276C937.1 463.628 937.62 464.17 937.989 464.903C938.364 465.631 938.552 466.557 938.552 467.682V476H936.54V467.818C936.54 466.778 936.271 465.974 935.731 465.406C935.197 464.832 934.455 464.545 933.506 464.545C932.847 464.545 932.256 464.685 931.734 464.963C931.217 465.241 930.808 465.648 930.506 466.182C930.211 466.716 930.063 467.364 930.063 468.125ZM947.55 476.273C946.368 476.273 945.331 475.991 944.439 475.429C943.553 474.866 942.859 474.08 942.359 473.068C941.865 472.057 941.618 470.875 941.618 469.523C941.618 468.159 941.865 466.969 942.359 465.952C942.859 464.935 943.553 464.145 944.439 463.582C945.331 463.02 946.368 462.739 947.55 462.739C948.732 462.739 949.766 463.02 950.652 463.582C951.544 464.145 952.237 464.935 952.732 465.952C953.232 466.969 953.482 468.159 953.482 469.523C953.482 470.875 953.232 472.057 952.732 473.068C952.237 474.08 951.544 474.866 950.652 475.429C949.766 475.991 948.732 476.273 947.55 476.273ZM947.55 474.466C948.447 474.466 949.186 474.236 949.766 473.776C950.345 473.315 950.774 472.71 951.053 471.96C951.331 471.21 951.47 470.398 951.47 469.523C951.47 468.648 951.331 467.832 951.053 467.077C950.774 466.321 950.345 465.71 949.766 465.244C949.186 464.778 948.447 464.545 947.55 464.545C946.652 464.545 945.913 464.778 945.334 465.244C944.754 465.71 944.325 466.321 944.047 467.077C943.768 467.832 943.629 468.648 943.629 469.523C943.629 470.398 943.768 471.21 944.047 471.96C944.325 472.71 944.754 473.315 945.334 473.776C945.913 474.236 946.652 474.466 947.55 474.466ZM960.404 476.307C959.575 476.307 958.822 476.151 958.146 475.838C957.469 475.52 956.933 475.062 956.535 474.466C956.137 473.864 955.938 473.136 955.938 472.284C955.938 471.534 956.086 470.926 956.381 470.46C956.677 469.989 957.072 469.619 957.566 469.352C958.06 469.085 958.606 468.886 959.202 468.756C959.805 468.619 960.41 468.511 961.018 468.432C961.813 468.33 962.458 468.253 962.952 468.202C963.452 468.145 963.816 468.051 964.043 467.92C964.276 467.79 964.393 467.562 964.393 467.239V467.17C964.393 466.33 964.163 465.676 963.702 465.21C963.248 464.744 962.558 464.511 961.631 464.511C960.671 464.511 959.918 464.722 959.373 465.142C958.827 465.562 958.444 466.011 958.222 466.489L956.313 465.807C956.654 465.011 957.109 464.392 957.677 463.949C958.251 463.5 958.876 463.187 959.552 463.011C960.234 462.83 960.904 462.739 961.563 462.739C961.984 462.739 962.467 462.79 963.012 462.892C963.563 462.989 964.094 463.19 964.606 463.497C965.123 463.804 965.552 464.267 965.893 464.886C966.234 465.506 966.404 466.335 966.404 467.375V476H964.393V474.227H964.29C964.154 474.511 963.927 474.815 963.609 475.139C963.29 475.463 962.867 475.739 962.339 475.966C961.81 476.193 961.165 476.307 960.404 476.307ZM960.711 474.5C961.506 474.5 962.177 474.344 962.722 474.031C963.273 473.719 963.688 473.315 963.967 472.821C964.251 472.327 964.393 471.807 964.393 471.261V469.42C964.308 469.523 964.12 469.616 963.83 469.702C963.546 469.781 963.217 469.852 962.842 469.915C962.472 469.972 962.112 470.023 961.759 470.068C961.413 470.108 961.131 470.142 960.915 470.17C960.393 470.239 959.904 470.349 959.45 470.503C959.001 470.651 958.637 470.875 958.359 471.176C958.086 471.472 957.95 471.875 957.95 472.386C957.95 473.085 958.208 473.614 958.725 473.972C959.248 474.324 959.91 474.5 960.711 474.5ZM963.37 458.545H965.245C965.245 459.466 964.927 460.219 964.29 460.804C963.654 461.389 962.79 461.682 961.7 461.682C960.626 461.682 959.771 461.389 959.134 460.804C958.504 460.219 958.188 459.466 958.188 458.545H960.063C960.063 458.989 960.185 459.378 960.43 459.713C960.68 460.048 961.103 460.216 961.7 460.216C962.296 460.216 962.722 460.048 962.978 459.713C963.239 459.378 963.37 458.989 963.37 458.545ZM961.597 480.33C961.205 480.33 960.867 480.196 960.583 479.929C960.305 479.662 960.165 479.341 960.165 478.966C960.165 478.591 960.305 478.27 960.583 478.003C960.867 477.736 961.205 477.602 961.597 477.602C961.989 477.602 962.325 477.736 962.603 478.003C962.887 478.27 963.029 478.591 963.029 478.966C963.029 479.341 962.887 479.662 962.603 479.929C962.325 480.196 961.989 480.33 961.597 480.33ZM975.393 476.273C974.166 476.273 973.109 475.983 972.223 475.403C971.337 474.824 970.655 474.026 970.178 473.009C969.7 471.991 969.462 470.83 969.462 469.523C969.462 468.193 969.706 467.02 970.195 466.003C970.689 464.98 971.376 464.182 972.257 463.608C973.143 463.028 974.178 462.739 975.359 462.739C976.28 462.739 977.109 462.909 977.848 463.25C978.587 463.591 979.192 464.068 979.663 464.682C980.135 465.295 980.428 466.011 980.541 466.83H978.53C978.376 466.233 978.036 465.705 977.507 465.244C976.984 464.778 976.28 464.545 975.393 464.545C974.609 464.545 973.922 464.75 973.331 465.159C972.746 465.562 972.288 466.134 971.959 466.872C971.635 467.605 971.473 468.466 971.473 469.455C971.473 470.466 971.632 471.347 971.95 472.097C972.274 472.847 972.729 473.429 973.314 473.844C973.905 474.259 974.598 474.466 975.393 474.466C975.916 474.466 976.391 474.375 976.817 474.193C977.243 474.011 977.604 473.75 977.899 473.409C978.195 473.068 978.405 472.659 978.53 472.182H980.541C980.428 472.955 980.146 473.651 979.697 474.27C979.254 474.884 978.666 475.372 977.933 475.736C977.206 476.094 976.359 476.273 975.393 476.273ZM992.173 458.545L995.692 464.494H995.829L999.366 458.545H1003.53L998.207 467.273L1003.65 476H999.408L995.829 470.043H995.692L992.113 476H987.886L993.349 467.273L987.988 458.545H992.173ZM1011.09 476.256C1009.74 476.256 1008.58 475.983 1007.61 475.438C1006.64 474.886 1005.9 474.108 1005.38 473.102C1004.85 472.091 1004.59 470.895 1004.59 469.514C1004.59 468.168 1004.85 466.986 1005.38 465.969C1005.9 464.952 1006.63 464.159 1007.58 463.591C1008.54 463.023 1009.66 462.739 1010.94 462.739C1011.81 462.739 1012.61 462.878 1013.35 463.156C1014.1 463.429 1014.76 463.841 1015.31 464.392C1015.88 464.943 1016.31 465.636 1016.63 466.472C1016.94 467.301 1017.1 468.273 1017.1 469.386V470.384H1006.04V468.134H1013.68C1013.68 467.611 1013.56 467.148 1013.34 466.744C1013.11 466.341 1012.79 466.026 1012.39 465.798C1011.99 465.565 1011.53 465.449 1011 465.449C1010.45 465.449 1009.96 465.577 1009.54 465.832C1009.12 466.082 1008.79 466.42 1008.55 466.847C1008.31 467.267 1008.19 467.736 1008.18 468.253V470.392C1008.18 471.04 1008.3 471.599 1008.54 472.071C1008.78 472.543 1009.13 472.906 1009.57 473.162C1010.01 473.418 1010.54 473.545 1011.15 473.545C1011.55 473.545 1011.92 473.489 1012.25 473.375C1012.59 473.261 1012.88 473.091 1013.12 472.864C1013.35 472.636 1013.54 472.358 1013.66 472.028L1017.02 472.25C1016.85 473.057 1016.5 473.761 1015.97 474.364C1015.45 474.96 1014.77 475.426 1013.94 475.761C1013.12 476.091 1012.17 476.256 1011.09 476.256ZM1019.46 476V462.909H1022.92V465.219H1023.08C1023.35 464.452 1023.81 463.847 1024.44 463.403C1025.08 462.96 1025.84 462.739 1026.73 462.739C1027.62 462.739 1028.39 462.963 1029.02 463.412C1029.65 463.855 1030.07 464.457 1030.28 465.219H1030.42C1030.68 464.469 1031.17 463.869 1031.87 463.42C1032.57 462.966 1033.4 462.739 1034.36 462.739C1035.58 462.739 1036.58 463.128 1037.34 463.906C1038.1 464.679 1038.49 465.776 1038.49 467.196V476H1034.87V467.912C1034.87 467.185 1034.67 466.639 1034.29 466.276C1033.9 465.912 1033.42 465.73 1032.84 465.73C1032.18 465.73 1031.66 465.94 1031.29 466.361C1030.92 466.776 1030.74 467.324 1030.74 468.006V476H1027.22V467.835C1027.22 467.193 1027.04 466.682 1026.67 466.301C1026.3 465.92 1025.82 465.73 1025.23 465.73C1024.82 465.73 1024.46 465.832 1024.13 466.037C1023.82 466.236 1023.56 466.517 1023.38 466.881C1023.19 467.239 1023.1 467.659 1023.1 468.142V476H1019.46ZM1050.54 458.545V476H1046.91V458.545H1050.54ZM1057.18 476.247C1056.35 476.247 1055.6 476.102 1054.95 475.812C1054.3 475.517 1053.78 475.082 1053.4 474.509C1053.02 473.929 1052.84 473.207 1052.84 472.344C1052.84 471.616 1052.97 471.006 1053.24 470.511C1053.5 470.017 1053.87 469.619 1054.33 469.318C1054.79 469.017 1055.31 468.79 1055.89 468.636C1056.49 468.483 1057.11 468.375 1057.75 468.312C1058.51 468.233 1059.13 468.159 1059.59 468.091C1060.06 468.017 1060.4 467.909 1060.61 467.767C1060.82 467.625 1060.92 467.415 1060.92 467.136V467.085C1060.92 466.545 1060.75 466.128 1060.41 465.832C1060.08 465.537 1059.6 465.389 1058.98 465.389C1058.33 465.389 1057.81 465.534 1057.42 465.824C1057.03 466.108 1056.78 466.466 1056.65 466.898L1053.3 466.625C1053.47 465.83 1053.8 465.142 1054.3 464.562C1054.8 463.977 1055.45 463.528 1056.24 463.216C1057.03 462.898 1057.95 462.739 1059 462.739C1059.72 462.739 1060.42 462.824 1061.09 462.994C1061.76 463.165 1062.35 463.429 1062.87 463.787C1063.39 464.145 1063.8 464.605 1064.1 465.168C1064.4 465.724 1064.55 466.392 1064.55 467.17V476H1061.11V474.185H1061.01C1060.8 474.594 1060.52 474.955 1060.16 475.267C1059.81 475.574 1059.39 475.815 1058.89 475.991C1058.4 476.162 1057.83 476.247 1057.18 476.247ZM1058.22 473.741C1058.76 473.741 1059.23 473.636 1059.64 473.426C1060.05 473.21 1060.37 472.92 1060.6 472.557C1060.83 472.193 1060.95 471.781 1060.95 471.321V469.932C1060.84 470.006 1060.68 470.074 1060.48 470.136C1060.29 470.193 1060.07 470.247 1059.82 470.298C1059.58 470.344 1059.34 470.386 1059.09 470.426C1058.85 470.46 1058.62 470.491 1058.43 470.52C1058 470.582 1057.63 470.682 1057.31 470.818C1056.99 470.955 1056.74 471.139 1056.57 471.372C1056.39 471.599 1056.3 471.884 1056.3 472.224C1056.3 472.719 1056.48 473.097 1056.84 473.358C1057.2 473.614 1057.66 473.741 1058.22 473.741ZM1058.99 480.901C1058.45 480.901 1057.99 480.722 1057.6 480.364C1057.21 480.006 1057.02 479.574 1057.02 479.068C1057.02 478.562 1057.21 478.131 1057.6 477.773C1057.99 477.415 1058.45 477.236 1058.99 477.236C1059.53 477.236 1059.99 477.415 1060.37 477.773C1060.76 478.131 1060.95 478.562 1060.95 479.068C1060.95 479.574 1060.76 480.006 1060.37 480.364C1059.99 480.722 1059.53 480.901 1058.99 480.901ZM1067.37 476V462.909H1071V476H1067.37ZM1069.19 461.222C1068.65 461.222 1068.19 461.043 1067.81 460.685C1067.42 460.321 1067.23 459.886 1067.23 459.381C1067.23 458.881 1067.42 458.452 1067.81 458.094C1068.19 457.73 1068.65 457.548 1069.19 457.548C1069.73 457.548 1070.19 457.73 1070.58 458.094C1070.96 458.452 1071.15 458.881 1071.15 459.381C1071.15 459.886 1070.96 460.321 1070.58 460.685C1070.19 461.043 1069.73 461.222 1069.19 461.222Z" fill="white"/>
<path d="M590.511 386.128C590.029 386.397 589.858 387.007 590.128 387.489L594.526 395.341C594.796 395.823 595.405 395.994 595.887 395.725C596.369 395.455 596.541 394.845 596.271 394.363L592.361 387.384L599.341 383.474C599.823 383.204 599.994 382.595 599.725 382.113C599.455 381.631 598.845 381.459 598.363 381.729L590.511 386.128ZM818.271 450.038L816.314 449.486L815.772 451.411L817.729 451.962L818.271 450.038ZM812.401 448.382L808.487 447.279L807.944 449.204L811.858 450.307L812.401 448.382ZM804.573 446.175L800.659 445.072L800.117 446.997L804.03 448.1L804.573 446.175ZM796.745 443.969L792.832 442.865L792.289 444.79L796.203 445.894L796.745 443.969ZM788.918 441.762L785.004 440.658L784.461 442.583L788.375 443.687L788.918 441.762ZM781.09 439.555L777.177 438.451L776.634 440.376L780.548 441.48L781.09 439.555ZM773.263 437.348L769.349 436.244L768.806 438.169L772.72 439.273L773.263 437.348ZM765.435 435.141L761.521 434.038L760.979 435.962L764.892 437.066L765.435 435.141ZM757.608 432.934L753.694 431.831L753.151 433.756L757.065 434.859L757.608 432.934ZM749.78 430.727L745.866 429.624L745.323 431.549L749.237 432.652L749.78 430.727ZM741.952 428.52L738.039 427.417L737.496 429.342L741.41 430.445L741.952 428.52ZM734.125 426.313L730.211 425.21L729.668 427.135L733.582 428.238L734.125 426.313ZM726.297 424.106L722.383 423.003L721.841 424.928L725.755 426.031L726.297 424.106ZM718.47 421.9L714.556 420.796L714.013 422.721L717.927 423.825L718.47 421.9ZM710.642 419.693L706.728 418.589L706.186 420.514L710.099 421.618L710.642 419.693ZM702.814 417.486L698.901 416.382L698.358 418.307L702.272 419.411L702.814 417.486ZM694.987 415.279L691.073 414.175L690.53 416.1L694.444 417.204L694.987 415.279ZM687.159 413.072L683.246 411.969L682.703 413.894L686.617 414.997L687.159 413.072ZM679.332 410.865L675.418 409.762L674.875 411.687L678.789 412.79L679.332 410.865ZM671.504 408.658L667.59 407.555L667.048 409.48L670.961 410.583L671.504 408.658ZM663.677 406.451L659.763 405.348L659.22 407.273L663.134 408.376L663.677 406.451ZM655.849 404.244L651.935 403.141L651.392 405.066L655.306 406.169L655.849 404.244ZM648.021 402.038L644.108 400.934L643.565 402.859L647.479 403.962L648.021 402.038ZM640.194 399.831L636.28 398.727L635.737 400.652L639.651 401.756L640.194 399.831ZM632.366 397.624L628.452 396.52L627.91 398.445L631.823 399.549L632.366 397.624ZM624.539 395.417L620.625 394.313L620.082 396.238L623.996 397.342L624.539 395.417ZM616.711 393.21L612.797 392.106L612.254 394.031L616.168 395.135L616.711 393.21ZM608.883 391.003L604.97 389.9L604.427 391.825L608.341 392.928L608.883 391.003ZM601.056 388.796L597.142 387.693L596.599 389.618L600.513 390.721L601.056 388.796ZM593.228 386.589L591.271 386.038L590.729 387.962L592.685 388.514L593.228 386.589ZM590.023 385.255C589.059 385.795 588.715 387.014 589.255 387.977L598.052 403.682C598.591 404.645 599.81 404.989 600.774 404.449C601.738 403.909 602.081 402.69 601.541 401.727L593.722 387.768L607.682 379.948C608.645 379.409 608.989 378.19 608.449 377.226C607.909 376.262 606.69 375.919 605.727 376.459L590.023 385.255ZM818.543 449.075L816.586 448.523L815.5 452.373L817.457 452.925L818.543 449.075ZM812.672 447.42L808.758 446.316L807.673 450.166L811.587 451.27L812.672 447.42ZM804.844 445.213L800.931 444.11L799.845 447.959L803.759 449.063L804.844 445.213ZM797.017 443.006L793.103 441.903L792.018 445.753L795.931 446.856L797.017 443.006ZM789.189 440.799L785.275 439.696L784.19 443.546L788.104 444.649L789.189 440.799ZM781.362 438.592L777.448 437.489L776.362 441.339L780.276 442.442L781.362 438.592ZM773.534 436.385L769.62 435.282L768.535 439.132L772.449 440.235L773.534 436.385ZM765.707 434.178L761.793 433.075L760.707 436.925L764.621 438.028L765.707 434.178ZM757.879 431.972L753.965 430.868L752.88 434.718L756.793 435.822L757.879 431.972ZM750.051 429.765L746.138 428.661L745.052 432.511L748.966 433.615L750.051 429.765ZM742.224 427.558L738.31 426.454L737.225 430.304L741.138 431.408L742.224 427.558ZM734.396 425.351L730.482 424.247L729.397 428.097L733.311 429.201L734.396 425.351ZM726.569 423.144L722.655 422.041L721.569 425.89L725.483 426.994L726.569 423.144ZM718.741 420.937L714.827 419.834L713.742 423.684L717.656 424.787L718.741 420.937ZM710.913 418.73L707 417.627L705.914 421.477L709.828 422.58L710.913 418.73ZM703.086 416.523L699.172 415.42L698.087 419.27L702 420.373L703.086 416.523ZM695.258 414.316L691.344 413.213L690.259 417.063L694.173 418.166L695.258 414.316ZM687.431 412.11L683.517 411.006L682.431 414.856L686.345 415.959L687.431 412.11ZM679.603 409.903L675.689 408.799L674.604 412.649L678.518 413.753L679.603 409.903ZM671.775 407.696L667.862 406.592L666.776 410.442L670.69 411.546L671.775 407.696ZM663.948 405.489L660.034 404.385L658.949 408.235L662.862 409.339L663.948 405.489ZM656.12 403.282L652.206 402.178L651.121 406.028L655.035 407.132L656.12 403.282ZM648.293 401.075L644.379 399.972L643.293 403.821L647.207 404.925L648.293 401.075ZM640.465 398.868L636.551 397.765L635.466 401.615L639.38 402.718L640.465 398.868ZM632.638 396.661L628.724 395.558L627.638 399.408L631.552 400.511L632.638 396.661ZM624.81 394.454L620.896 393.351L619.811 397.201L623.724 398.304L624.81 394.454ZM616.982 392.247L613.069 391.144L611.983 394.994L615.897 396.097L616.982 392.247ZM609.155 390.041L605.241 388.937L604.155 392.787L608.069 393.89L609.155 390.041ZM601.327 387.834L597.413 386.73L596.328 390.58L600.242 391.684L601.327 387.834ZM593.5 385.627L591.543 385.075L590.457 388.925L592.414 389.477L593.5 385.627Z" fill="#ED2C25"/>
<defs>
<clipPath id="clip0_3_15">
<rect width="80" height="80" fill="white" transform="translate(615 302)"/>
</clipPath>
<clipPath id="clip1_3_15">
<rect width="80" height="80" fill="white" transform="translate(447 382) rotate(-180)"/>
</clipPath>
<clipPath id="clip2_3_15">
<rect width="80" height="80" fill="white" transform="translate(491 258) rotate(-90)"/>
</clipPath>
<clipPath id="clip3_3_15">
<rect width="80" height="80" fill="white" transform="translate(571 426) rotate(90)"/>
</clipPath>
<clipPath id="clip4_3_15">
<rect width="40" height="40" fill="white" transform="translate(669 60) rotate(-90)"/>
</clipPath>
<clipPath id="clip5_3_15">
<rect width="40" height="40" fill="white" transform="translate(808 20) rotate(90)"/>
</clipPath>
<clipPath id="clip6_3_15">
<rect width="40" height="40" fill="white" transform="translate(127 347) rotate(180)"/>
</clipPath>
</defs>
</svg>
