<svg viewBox="0 0 1306 525" fill="none" xmlns="http://www.w3.org/2000/svg">
<circle opacity="0.8" cx="672" cy="341" r="180" fill="#232323"/>
<g clip-path="url(#clip0_16684_9646)">
<path d="M808.603 343.395C808.836 343.163 809.02 342.888 809.146 342.585C809.272 342.281 809.336 341.956 809.336 341.628V340.363C809.328 339.673 809.051 339.05 808.603 338.595L791.471 321.495C791.316 321.338 791.132 321.214 790.929 321.129C790.726 321.044 790.507 321 790.287 321C790.067 321 789.849 321.044 789.646 321.129C789.442 321.214 789.258 321.338 789.103 321.495L786.736 323.863C786.58 324.014 786.456 324.196 786.372 324.396C786.287 324.596 786.244 324.812 786.244 325.029C786.244 325.246 786.287 325.462 786.372 325.662C786.456 325.862 786.58 326.044 786.736 326.195L801.571 340.995L786.736 355.795C786.579 355.95 786.455 356.134 786.37 356.337C786.285 356.541 786.241 356.759 786.241 356.979C786.241 357.199 786.285 357.417 786.37 357.62C786.455 357.824 786.579 358.008 786.736 358.163L789.103 360.495C789.258 360.652 789.442 360.777 789.646 360.862C789.849 360.947 790.067 360.99 790.287 360.99C790.507 360.99 790.726 360.947 790.929 360.862C791.132 360.777 791.316 360.652 791.471 360.495L808.603 343.395Z" fill="white"/>
</g>
<g clip-path="url(#clip1_16684_9646)">
<path d="M535.397 338.605C535.164 338.837 534.98 339.112 534.854 339.415C534.728 339.719 534.664 340.044 534.664 340.372L534.664 341.637C534.672 342.327 534.949 342.95 535.397 343.405L552.529 360.505C552.684 360.662 552.868 360.786 553.071 360.871C553.274 360.956 553.493 361 553.713 361C553.933 361 554.151 360.956 554.354 360.871C554.558 360.786 554.742 360.662 554.897 360.505L557.264 358.137C557.42 357.986 557.544 357.804 557.628 357.604C557.713 357.404 557.756 357.189 557.756 356.971C557.756 356.754 557.713 356.538 557.628 356.338C557.544 356.138 557.42 355.956 557.264 355.805L542.429 341.005L557.264 326.205C557.421 326.05 557.545 325.866 557.63 325.663C557.715 325.459 557.759 325.241 557.759 325.021C557.759 324.801 557.715 324.583 557.63 324.38C557.545 324.176 557.421 323.992 557.264 323.837L554.897 321.505C554.742 321.348 554.558 321.223 554.354 321.138C554.151 321.053 553.933 321.01 553.713 321.01C553.493 321.01 553.274 321.053 553.071 321.138C552.868 321.223 552.684 321.348 552.529 321.505L535.397 338.605Z" fill="white"/>
</g>
<g clip-path="url(#clip2_16684_9646)">
<path d="M674.395 204.4C674.163 204.168 673.888 203.984 673.585 203.858C673.281 203.732 672.956 203.668 672.628 203.668L671.363 203.668C670.673 203.675 670.05 203.953 669.595 204.4L652.495 221.533C652.338 221.688 652.214 221.872 652.129 222.075C652.044 222.278 652 222.496 652 222.717C652 222.937 652.044 223.155 652.129 223.358C652.214 223.562 652.338 223.746 652.495 223.9L654.863 226.268C655.014 226.424 655.196 226.548 655.396 226.632C655.596 226.717 655.812 226.76 656.029 226.76C656.246 226.76 656.462 226.717 656.662 226.632C656.862 226.548 657.044 226.424 657.195 226.268L671.995 211.433L686.795 226.268C686.95 226.425 687.134 226.549 687.337 226.634C687.541 226.719 687.759 226.763 687.979 226.763C688.199 226.763 688.417 226.719 688.62 226.634C688.824 226.549 689.008 226.425 689.163 226.268L691.495 223.9C691.652 223.746 691.777 223.562 691.862 223.358C691.947 223.155 691.99 222.937 691.99 222.717C691.99 222.496 691.947 222.278 691.862 222.075C691.777 221.872 691.652 221.688 691.495 221.533L674.395 204.4Z" fill="white"/>
</g>
<g clip-path="url(#clip3_16684_9646)">
<path d="M669.605 477.6C669.837 477.832 670.112 478.016 670.415 478.142C670.719 478.268 671.044 478.332 671.372 478.332L672.637 478.332C673.327 478.325 673.95 478.047 674.405 477.6L691.505 460.467C691.662 460.312 691.786 460.128 691.871 459.925C691.956 459.722 692 459.504 692 459.283C692 459.063 691.956 458.845 691.871 458.642C691.786 458.438 691.662 458.254 691.505 458.1L689.137 455.732C688.986 455.576 688.804 455.452 688.604 455.368C688.404 455.283 688.189 455.24 687.971 455.24C687.754 455.24 687.538 455.283 687.338 455.368C687.138 455.452 686.956 455.576 686.805 455.732L672.005 470.567L657.205 455.732C657.05 455.575 656.866 455.451 656.663 455.366C656.459 455.281 656.241 455.237 656.021 455.237C655.801 455.237 655.583 455.281 655.38 455.366C655.176 455.451 654.992 455.575 654.837 455.732L652.505 458.1C652.348 458.254 652.223 458.438 652.138 458.642C652.053 458.845 652.01 459.063 652.01 459.283C652.01 459.504 652.053 459.722 652.138 459.925C652.223 460.128 652.348 460.312 652.505 460.467L669.605 477.6Z" fill="white"/>
</g>
<circle cx="672" cy="341" r="60" fill="white"/>
<path d="M671.409 341.364C671.409 343.902 670.928 346.061 669.966 347.841C669.011 349.621 667.708 350.981 666.057 351.92C664.413 352.852 662.564 353.318 660.511 353.318C658.443 353.318 656.587 352.848 654.943 351.909C653.299 350.97 652 349.61 651.045 347.83C650.091 346.049 649.614 343.894 649.614 341.364C649.614 338.826 650.091 336.667 651.045 334.886C652 333.106 653.299 331.75 654.943 330.818C656.587 329.879 658.443 329.409 660.511 329.409C662.564 329.409 664.413 329.879 666.057 330.818C667.708 331.75 669.011 333.106 669.966 334.886C670.928 336.667 671.409 338.826 671.409 341.364ZM666.42 341.364C666.42 339.72 666.174 338.333 665.682 337.205C665.197 336.076 664.511 335.22 663.625 334.636C662.739 334.053 661.701 333.761 660.511 333.761C659.322 333.761 658.284 334.053 657.398 334.636C656.511 335.22 655.822 336.076 655.33 337.205C654.845 338.333 654.602 339.72 654.602 341.364C654.602 343.008 654.845 344.394 655.33 345.523C655.822 346.652 656.511 347.508 657.398 348.091C658.284 348.674 659.322 348.966 660.511 348.966C661.701 348.966 662.739 348.674 663.625 348.091C664.511 347.508 665.197 346.652 665.682 345.523C666.174 344.394 666.42 343.008 666.42 341.364ZM675.44 353V329.727H680.36V339.989H680.667L689.042 329.727H694.94L686.303 340.148L695.042 353H689.156L682.781 343.432L680.36 346.386V353H675.44Z" fill="#090909"/>
<rect x="0.5" y="301.5" width="371" height="79" rx="3.5" fill="black" fill-opacity="0.6"/>
<rect x="0.5" y="301.5" width="371" height="79" rx="3.5" stroke="white"/>
<path opacity="0.8" d="M25.9176 350V332.545H32.1392C33.4972 332.545 34.6222 332.793 35.5142 333.287C36.4063 333.781 37.0739 334.457 37.517 335.315C37.9602 336.168 38.1818 337.128 38.1818 338.196C38.1818 339.27 37.9574 340.236 37.5085 341.094C37.0653 341.946 36.3949 342.622 35.4972 343.122C34.6051 343.616 33.483 343.864 32.1307 343.864H27.8523V341.631H31.892C32.75 341.631 33.446 341.483 33.9801 341.188C34.5142 340.886 34.9062 340.477 35.1562 339.96C35.4062 339.443 35.5312 338.855 35.5312 338.196C35.5312 337.537 35.4062 336.952 35.1562 336.44C34.9062 335.929 34.5114 335.528 33.9716 335.239C33.4375 334.949 32.733 334.804 31.858 334.804H28.5511V350H25.9176ZM41.0646 350V336.909H43.5277V338.989H43.6641C43.9027 338.284 44.3232 337.73 44.9254 337.327C45.5334 336.918 46.2209 336.713 46.9879 336.713C47.147 336.713 47.3345 336.719 47.5504 336.73C47.772 336.741 47.9453 336.756 48.0703 336.773V339.21C47.968 339.182 47.7862 339.151 47.5249 339.116C47.2635 339.077 47.0021 339.057 46.7408 339.057C46.1385 339.057 45.6016 339.185 45.13 339.44C44.6641 339.69 44.2947 340.04 44.022 340.489C43.7493 340.932 43.6129 341.437 43.6129 342.006V350H41.0646ZM55.4489 350.264C54.1591 350.264 53.0483 349.989 52.1165 349.438C51.1903 348.881 50.4744 348.099 49.9688 347.094C49.4688 346.082 49.2188 344.898 49.2188 343.54C49.2188 342.199 49.4688 341.017 49.9688 339.994C50.4744 338.972 51.179 338.173 52.0824 337.599C52.9915 337.026 54.054 336.739 55.2699 336.739C56.0085 336.739 56.7244 336.861 57.4176 337.105C58.1108 337.349 58.733 337.733 59.2841 338.256C59.8352 338.778 60.2699 339.457 60.5881 340.293C60.9063 341.122 61.0653 342.131 61.0653 343.318V344.222H50.6591V342.312H58.5682C58.5682 341.642 58.4318 341.048 58.1591 340.531C57.8864 340.009 57.5028 339.597 57.0085 339.295C56.5199 338.994 55.946 338.844 55.2869 338.844C54.571 338.844 53.946 339.02 53.4119 339.372C52.8835 339.719 52.4744 340.173 52.1847 340.736C51.9006 341.293 51.7585 341.898 51.7585 342.551V344.043C51.7585 344.918 51.9119 345.662 52.2188 346.276C52.5312 346.889 52.9659 347.358 53.5227 347.682C54.0795 348 54.7301 348.159 55.4744 348.159C55.9574 348.159 56.3977 348.091 56.7955 347.955C57.1932 347.812 57.5369 347.602 57.8267 347.324C58.1165 347.045 58.3381 346.702 58.4915 346.293L60.9034 346.727C60.7102 347.437 60.3636 348.06 59.8636 348.594C59.3693 349.122 58.7472 349.534 57.9972 349.83C57.2528 350.119 56.4034 350.264 55.4489 350.264ZM73.7024 340.105L71.3928 340.514C71.2962 340.219 71.1428 339.937 70.9325 339.67C70.728 339.403 70.4496 339.185 70.0973 339.014C69.745 338.844 69.3047 338.759 68.7763 338.759C68.0547 338.759 67.4524 338.92 66.9695 339.244C66.4865 339.562 66.245 339.974 66.245 340.48C66.245 340.918 66.407 341.27 66.7308 341.537C67.0547 341.804 67.5774 342.023 68.299 342.193L70.3786 342.67C71.5831 342.949 72.4808 343.378 73.0717 343.957C73.6626 344.537 73.9581 345.29 73.9581 346.216C73.9581 347 73.7308 347.699 73.2763 348.312C72.8274 348.92 72.1996 349.398 71.3928 349.744C70.5916 350.091 69.6626 350.264 68.6058 350.264C67.1399 350.264 65.9439 349.952 65.0178 349.327C64.0916 348.696 63.5234 347.801 63.3132 346.642L65.7763 346.267C65.9297 346.909 66.245 347.395 66.7223 347.724C67.1996 348.048 67.8217 348.21 68.5888 348.21C69.424 348.21 70.0916 348.037 70.5916 347.69C71.0916 347.338 71.3416 346.909 71.3416 346.403C71.3416 345.994 71.1882 345.651 70.8814 345.372C70.5803 345.094 70.1172 344.884 69.4922 344.741L67.2763 344.256C66.0547 343.977 65.1513 343.534 64.5661 342.926C63.9865 342.318 63.6967 341.548 63.6967 340.616C63.6967 339.844 63.9126 339.168 64.3445 338.588C64.7763 338.009 65.3729 337.557 66.1342 337.233C66.8956 336.903 67.7678 336.739 68.7507 336.739C70.1655 336.739 71.2791 337.045 72.0916 337.659C72.9041 338.267 73.4411 339.082 73.7024 340.105ZM86.5696 340.105L84.2599 340.514C84.1634 340.219 84.0099 339.937 83.7997 339.67C83.5952 339.403 83.3168 339.185 82.9645 339.014C82.6122 338.844 82.1719 338.759 81.6435 338.759C80.9219 338.759 80.3196 338.92 79.8366 339.244C79.3537 339.562 79.1122 339.974 79.1122 340.48C79.1122 340.918 79.2741 341.27 79.598 341.537C79.9219 341.804 80.4446 342.023 81.1662 342.193L83.2457 342.67C84.4503 342.949 85.348 343.378 85.9389 343.957C86.5298 344.537 86.8253 345.29 86.8253 346.216C86.8253 347 86.598 347.699 86.1435 348.312C85.6946 348.92 85.0668 349.398 84.2599 349.744C83.4588 350.091 82.5298 350.264 81.473 350.264C80.0071 350.264 78.8111 349.952 77.8849 349.327C76.9588 348.696 76.3906 347.801 76.1804 346.642L78.6435 346.267C78.7969 346.909 79.1122 347.395 79.5895 347.724C80.0668 348.048 80.6889 348.21 81.456 348.21C82.2912 348.21 82.9588 348.037 83.4588 347.69C83.9588 347.338 84.2088 346.909 84.2088 346.403C84.2088 345.994 84.0554 345.651 83.7486 345.372C83.4474 345.094 82.9844 344.884 82.3594 344.741L80.1435 344.256C78.9219 343.977 78.0185 343.534 77.4332 342.926C76.8537 342.318 76.5639 341.548 76.5639 340.616C76.5639 339.844 76.7798 339.168 77.2116 338.588C77.6435 338.009 78.2401 337.557 79.0014 337.233C79.7628 336.903 80.6349 336.739 81.6179 336.739C83.0327 336.739 84.1463 337.045 84.9588 337.659C85.7713 338.267 86.3082 339.082 86.5696 340.105Z" fill="white"/>
<path d="M101.699 342.2C101.464 341.966 101.332 341.648 101.332 341.317V340.684C101.336 340.353 101.467 340.037 101.699 339.8L110.265 331.25C110.343 331.172 110.435 331.11 110.537 331.068C110.638 331.026 110.747 331.004 110.857 331.004C110.967 331.004 111.076 331.026 111.178 331.068C111.279 331.11 111.371 331.172 111.449 331.25L112.632 332.434C112.71 332.51 112.771 332.601 112.813 332.701C112.855 332.801 112.877 332.908 112.877 333.017C112.877 333.126 112.855 333.233 112.813 333.333C112.771 333.434 112.71 333.524 112.632 333.6L105.215 341L112.632 348.4C112.71 348.478 112.772 348.57 112.814 348.672C112.857 348.773 112.879 348.882 112.879 348.992C112.879 349.102 112.857 349.211 112.814 349.313C112.772 349.414 112.71 349.506 112.632 349.584L111.449 350.75C111.371 350.829 111.279 350.891 111.178 350.933C111.076 350.975 110.967 350.997 110.857 350.997C110.747 350.997 110.638 350.975 110.537 350.933C110.435 350.891 110.343 350.829 110.265 350.75L101.699 342.2Z" fill="white"/>
<path opacity="0.8" d="M135.824 336.909V338.955H128.673V336.909H135.824ZM130.591 333.773H133.139V346.156C133.139 346.651 133.213 347.023 133.361 347.273C133.509 347.517 133.699 347.685 133.932 347.776C134.17 347.861 134.429 347.903 134.707 347.903C134.912 347.903 135.091 347.889 135.244 347.861C135.398 347.832 135.517 347.81 135.602 347.793L136.062 349.898C135.915 349.955 135.705 350.011 135.432 350.068C135.159 350.131 134.818 350.165 134.409 350.17C133.739 350.182 133.114 350.062 132.534 349.812C131.955 349.562 131.486 349.176 131.128 348.653C130.77 348.131 130.591 347.474 130.591 346.685V333.773ZM144.016 350.264C142.789 350.264 141.718 349.983 140.803 349.42C139.888 348.858 139.178 348.071 138.673 347.06C138.167 346.048 137.914 344.866 137.914 343.514C137.914 342.156 138.167 340.969 138.673 339.952C139.178 338.935 139.888 338.145 140.803 337.582C141.718 337.02 142.789 336.739 144.016 336.739C145.244 336.739 146.315 337.02 147.229 337.582C148.144 338.145 148.854 338.935 149.36 339.952C149.866 340.969 150.119 342.156 150.119 343.514C150.119 344.866 149.866 346.048 149.36 347.06C148.854 348.071 148.144 348.858 147.229 349.42C146.315 349.983 145.244 350.264 144.016 350.264ZM144.025 348.125C144.82 348.125 145.479 347.915 146.002 347.494C146.525 347.074 146.911 346.514 147.161 345.815C147.417 345.116 147.545 344.347 147.545 343.506C147.545 342.67 147.417 341.903 147.161 341.205C146.911 340.5 146.525 339.935 146.002 339.509C145.479 339.082 144.82 338.869 144.025 338.869C143.224 338.869 142.559 339.082 142.031 339.509C141.508 339.935 141.119 340.5 140.863 341.205C140.613 341.903 140.488 342.67 140.488 343.506C140.488 344.347 140.613 345.116 140.863 345.815C141.119 346.514 141.508 347.074 142.031 347.494C142.559 347.915 143.224 348.125 144.025 348.125ZM170.513 336.909L165.766 350H163.039L158.283 336.909H161.019L164.335 346.983H164.471L167.778 336.909H170.513ZM172.908 350V336.909H175.457V350H172.908ZM174.195 334.889C173.752 334.889 173.371 334.741 173.053 334.446C172.741 334.145 172.585 333.787 172.585 333.372C172.585 332.952 172.741 332.594 173.053 332.298C173.371 331.997 173.752 331.847 174.195 331.847C174.638 331.847 175.016 331.997 175.329 332.298C175.647 332.594 175.806 332.952 175.806 333.372C175.806 333.787 175.647 334.145 175.329 334.446C175.016 334.741 174.638 334.889 174.195 334.889ZM184.527 350.264C183.237 350.264 182.126 349.989 181.195 349.438C180.268 348.881 179.553 348.099 179.047 347.094C178.547 346.082 178.297 344.898 178.297 343.54C178.297 342.199 178.547 341.017 179.047 339.994C179.553 338.972 180.257 338.173 181.161 337.599C182.07 337.026 183.132 336.739 184.348 336.739C185.087 336.739 185.803 336.861 186.496 337.105C187.189 337.349 187.811 337.733 188.362 338.256C188.913 338.778 189.348 339.457 189.666 340.293C189.984 341.122 190.143 342.131 190.143 343.318V344.222H179.737V342.312H187.646C187.646 341.642 187.51 341.048 187.237 340.531C186.964 340.009 186.581 339.597 186.087 339.295C185.598 338.994 185.024 338.844 184.365 338.844C183.649 338.844 183.024 339.02 182.49 339.372C181.962 339.719 181.553 340.173 181.263 340.736C180.979 341.293 180.837 341.898 180.837 342.551V344.043C180.837 344.918 180.99 345.662 181.297 346.276C181.609 346.889 182.044 347.358 182.601 347.682C183.158 348 183.808 348.159 184.553 348.159C185.036 348.159 185.476 348.091 185.874 347.955C186.271 347.812 186.615 347.602 186.905 347.324C187.195 347.045 187.416 346.702 187.57 346.293L189.982 346.727C189.788 347.437 189.442 348.06 188.942 348.594C188.447 349.122 187.825 349.534 187.075 349.83C186.331 350.119 185.482 350.264 184.527 350.264ZM195.786 350L191.933 336.909H194.567L197.132 346.523H197.26L199.834 336.909H202.467L205.024 346.48H205.152L207.7 336.909H210.334L206.49 350H203.891L201.232 340.548H201.036L198.376 350H195.786ZM224.618 350.264C223.351 350.264 222.26 349.977 221.345 349.403C220.436 348.824 219.737 348.026 219.249 347.009C218.76 345.991 218.516 344.827 218.516 343.514C218.516 342.185 218.766 341.011 219.266 339.994C219.766 338.972 220.47 338.173 221.379 337.599C222.288 337.026 223.359 336.739 224.592 336.739C225.587 336.739 226.473 336.923 227.251 337.293C228.03 337.656 228.658 338.168 229.135 338.827C229.618 339.486 229.905 340.256 229.996 341.136H227.516C227.379 340.523 227.067 339.994 226.578 339.551C226.095 339.108 225.447 338.886 224.635 338.886C223.925 338.886 223.303 339.074 222.768 339.449C222.24 339.818 221.828 340.347 221.533 341.034C221.237 341.716 221.089 342.523 221.089 343.455C221.089 344.409 221.234 345.233 221.524 345.926C221.814 346.619 222.223 347.156 222.751 347.537C223.286 347.918 223.913 348.108 224.635 348.108C225.118 348.108 225.555 348.02 225.947 347.844C226.345 347.662 226.678 347.403 226.945 347.068C227.217 346.733 227.408 346.33 227.516 345.858H229.996C229.905 346.705 229.629 347.46 229.169 348.125C228.709 348.79 228.092 349.312 227.32 349.693C226.553 350.074 225.652 350.264 224.618 350.264ZM235.269 342.227V350H232.721V332.545H235.235V339.04H235.397C235.704 338.335 236.173 337.776 236.803 337.361C237.434 336.946 238.258 336.739 239.275 336.739C240.173 336.739 240.957 336.923 241.627 337.293C242.303 337.662 242.826 338.213 243.195 338.946C243.57 339.673 243.758 340.582 243.758 341.673V350H241.21V341.98C241.21 341.02 240.962 340.276 240.468 339.747C239.974 339.213 239.286 338.946 238.406 338.946C237.803 338.946 237.263 339.074 236.786 339.33C236.315 339.585 235.942 339.96 235.67 340.455C235.403 340.943 235.269 341.534 235.269 342.227ZM250.968 350.29C250.138 350.29 249.388 350.136 248.718 349.83C248.048 349.517 247.516 349.065 247.124 348.474C246.738 347.884 246.545 347.159 246.545 346.301C246.545 345.562 246.687 344.955 246.971 344.477C247.255 344 247.638 343.622 248.121 343.344C248.604 343.065 249.144 342.855 249.741 342.713C250.337 342.571 250.945 342.463 251.565 342.389C252.349 342.298 252.985 342.224 253.474 342.168C253.962 342.105 254.317 342.006 254.539 341.869C254.761 341.733 254.871 341.511 254.871 341.205V341.145C254.871 340.401 254.661 339.824 254.241 339.415C253.826 339.006 253.207 338.801 252.383 338.801C251.525 338.801 250.849 338.991 250.354 339.372C249.866 339.747 249.528 340.165 249.34 340.625L246.945 340.08C247.229 339.284 247.644 338.642 248.19 338.153C248.741 337.659 249.374 337.301 250.09 337.08C250.806 336.852 251.559 336.739 252.349 336.739C252.871 336.739 253.425 336.801 254.011 336.926C254.602 337.045 255.153 337.267 255.664 337.591C256.181 337.915 256.604 338.378 256.934 338.98C257.263 339.577 257.428 340.352 257.428 341.307V350H254.94V348.21H254.837C254.673 348.54 254.425 348.864 254.096 349.182C253.766 349.5 253.343 349.764 252.826 349.974C252.309 350.185 251.69 350.29 250.968 350.29ZM251.522 348.244C252.227 348.244 252.829 348.105 253.329 347.827C253.835 347.548 254.218 347.185 254.479 346.736C254.746 346.281 254.88 345.795 254.88 345.278V343.591C254.789 343.682 254.613 343.767 254.352 343.847C254.096 343.92 253.803 343.986 253.474 344.043C253.144 344.094 252.823 344.142 252.511 344.188C252.198 344.227 251.937 344.261 251.727 344.29C251.232 344.352 250.781 344.457 250.371 344.605C249.968 344.753 249.644 344.966 249.4 345.244C249.161 345.517 249.042 345.881 249.042 346.335C249.042 346.966 249.275 347.443 249.741 347.767C250.207 348.085 250.8 348.244 251.522 348.244ZM263.371 342.227V350H260.822V336.909H263.268V339.04H263.43C263.732 338.347 264.203 337.79 264.845 337.369C265.493 336.949 266.308 336.739 267.291 336.739C268.183 336.739 268.964 336.926 269.635 337.301C270.305 337.67 270.825 338.222 271.195 338.955C271.564 339.687 271.749 340.594 271.749 341.673V350H269.2V341.98C269.2 341.031 268.953 340.29 268.459 339.756C267.964 339.216 267.286 338.946 266.422 338.946C265.831 338.946 265.305 339.074 264.845 339.33C264.391 339.585 264.03 339.96 263.763 340.455C263.501 340.943 263.371 341.534 263.371 342.227ZM277.714 342.227V350H275.166V336.909H277.612V339.04H277.774C278.075 338.347 278.547 337.79 279.189 337.369C279.837 336.949 280.652 336.739 281.635 336.739C282.527 336.739 283.308 336.926 283.979 337.301C284.649 337.67 285.169 338.222 285.538 338.955C285.908 339.687 286.092 340.594 286.092 341.673V350H283.544V341.98C283.544 341.031 283.297 340.29 282.803 339.756C282.308 339.216 281.629 338.946 280.766 338.946C280.175 338.946 279.649 339.074 279.189 339.33C278.734 339.585 278.374 339.96 278.107 340.455C277.845 340.943 277.714 341.534 277.714 342.227ZM295.152 350.264C293.862 350.264 292.751 349.989 291.82 349.438C290.893 348.881 290.178 348.099 289.672 347.094C289.172 346.082 288.922 344.898 288.922 343.54C288.922 342.199 289.172 341.017 289.672 339.994C290.178 338.972 290.882 338.173 291.786 337.599C292.695 337.026 293.757 336.739 294.973 336.739C295.712 336.739 296.428 336.861 297.121 337.105C297.814 337.349 298.436 337.733 298.987 338.256C299.538 338.778 299.973 339.457 300.291 340.293C300.609 341.122 300.768 342.131 300.768 343.318V344.222H290.362V342.312H298.271C298.271 341.642 298.135 341.048 297.862 340.531C297.589 340.009 297.206 339.597 296.712 339.295C296.223 338.994 295.649 338.844 294.99 338.844C294.274 338.844 293.649 339.02 293.115 339.372C292.587 339.719 292.178 340.173 291.888 340.736C291.604 341.293 291.462 341.898 291.462 342.551V344.043C291.462 344.918 291.615 345.662 291.922 346.276C292.234 346.889 292.669 347.358 293.226 347.682C293.783 348 294.433 348.159 295.178 348.159C295.661 348.159 296.101 348.091 296.499 347.955C296.896 347.812 297.24 347.602 297.53 347.324C297.82 347.045 298.041 346.702 298.195 346.293L300.607 346.727C300.413 347.437 300.067 348.06 299.567 348.594C299.072 349.122 298.45 349.534 297.7 349.83C296.956 350.119 296.107 350.264 295.152 350.264ZM306.144 332.545V350H303.596V332.545H306.144ZM318.472 332.545V350H315.924V332.545H318.472ZM321.901 350V336.909H324.449V350H321.901ZM323.188 334.889C322.744 334.889 322.364 334.741 322.045 334.446C321.733 334.145 321.577 333.787 321.577 333.372C321.577 332.952 321.733 332.594 322.045 332.298C322.364 331.997 322.744 331.847 323.188 331.847C323.631 331.847 324.009 331.997 324.321 332.298C324.639 332.594 324.798 332.952 324.798 333.372C324.798 333.787 324.639 334.145 324.321 334.446C324.009 334.741 323.631 334.889 323.188 334.889ZM337.687 340.105L335.377 340.514C335.281 340.219 335.127 339.937 334.917 339.67C334.712 339.403 334.434 339.185 334.082 339.014C333.729 338.844 333.289 338.759 332.761 338.759C332.039 338.759 331.437 338.92 330.954 339.244C330.471 339.562 330.229 339.974 330.229 340.48C330.229 340.918 330.391 341.27 330.715 341.537C331.039 341.804 331.562 342.023 332.283 342.193L334.363 342.67C335.567 342.949 336.465 343.378 337.056 343.957C337.647 344.537 337.942 345.29 337.942 346.216C337.942 347 337.715 347.699 337.261 348.312C336.812 348.92 336.184 349.398 335.377 349.744C334.576 350.091 333.647 350.264 332.59 350.264C331.124 350.264 329.928 349.952 329.002 349.327C328.076 348.696 327.508 347.801 327.298 346.642L329.761 346.267C329.914 346.909 330.229 347.395 330.707 347.724C331.184 348.048 331.806 348.21 332.573 348.21C333.408 348.21 334.076 348.037 334.576 347.69C335.076 347.338 335.326 346.909 335.326 346.403C335.326 345.994 335.173 345.651 334.866 345.372C334.565 345.094 334.102 344.884 333.477 344.741L331.261 344.256C330.039 343.977 329.136 343.534 328.55 342.926C327.971 342.318 327.681 341.548 327.681 340.616C327.681 339.844 327.897 339.168 328.329 338.588C328.761 338.009 329.357 337.557 330.119 337.233C330.88 336.903 331.752 336.739 332.735 336.739C334.15 336.739 335.263 337.045 336.076 337.659C336.888 338.267 337.425 339.082 337.687 340.105ZM346.855 336.909V338.955H339.705V336.909H346.855ZM341.622 333.773H344.17V346.156C344.17 346.651 344.244 347.023 344.392 347.273C344.54 347.517 344.73 347.685 344.963 347.776C345.202 347.861 345.46 347.903 345.739 347.903C345.943 347.903 346.122 347.889 346.276 347.861C346.429 347.832 346.548 347.81 346.634 347.793L347.094 349.898C346.946 349.955 346.736 350.011 346.463 350.068C346.19 350.131 345.849 350.165 345.44 350.17C344.77 350.182 344.145 350.062 343.565 349.812C342.986 349.562 342.517 349.176 342.159 348.653C341.801 348.131 341.622 347.474 341.622 346.685V333.773Z" fill="white"/>
<rect x="911.5" y="445.5" width="394" height="79" rx="3.5" fill="black" fill-opacity="0.6"/>
<rect x="911.5" y="445.5" width="394" height="79" rx="3.5" stroke="white"/>
<path opacity="0.8" d="M936.918 494V476.545H943.139C944.497 476.545 945.622 476.793 946.514 477.287C947.406 477.781 948.074 478.457 948.517 479.315C948.96 480.168 949.182 481.128 949.182 482.196C949.182 483.27 948.957 484.236 948.509 485.094C948.065 485.946 947.395 486.622 946.497 487.122C945.605 487.616 944.483 487.864 943.131 487.864H938.852V485.631H942.892C943.75 485.631 944.446 485.483 944.98 485.188C945.514 484.886 945.906 484.477 946.156 483.96C946.406 483.443 946.531 482.855 946.531 482.196C946.531 481.537 946.406 480.952 946.156 480.44C945.906 479.929 945.511 479.528 944.972 479.239C944.438 478.949 943.733 478.804 942.858 478.804H939.551V494H936.918ZM952.065 494V480.909H954.528V482.989H954.664C954.903 482.284 955.323 481.73 955.925 481.327C956.533 480.918 957.221 480.713 957.988 480.713C958.147 480.713 958.335 480.719 958.55 480.73C958.772 480.741 958.945 480.756 959.07 480.773V483.21C958.968 483.182 958.786 483.151 958.525 483.116C958.263 483.077 958.002 483.057 957.741 483.057C957.138 483.057 956.602 483.185 956.13 483.44C955.664 483.69 955.295 484.04 955.022 484.489C954.749 484.932 954.613 485.437 954.613 486.006V494H952.065ZM966.449 494.264C965.159 494.264 964.048 493.989 963.116 493.438C962.19 492.881 961.474 492.099 960.969 491.094C960.469 490.082 960.219 488.898 960.219 487.54C960.219 486.199 960.469 485.017 960.969 483.994C961.474 482.972 962.179 482.173 963.082 481.599C963.991 481.026 965.054 480.739 966.27 480.739C967.009 480.739 967.724 480.861 968.418 481.105C969.111 481.349 969.733 481.733 970.284 482.256C970.835 482.778 971.27 483.457 971.588 484.293C971.906 485.122 972.065 486.131 972.065 487.318V488.222H961.659V486.312H969.568C969.568 485.642 969.432 485.048 969.159 484.531C968.886 484.009 968.503 483.597 968.009 483.295C967.52 482.994 966.946 482.844 966.287 482.844C965.571 482.844 964.946 483.02 964.412 483.372C963.884 483.719 963.474 484.173 963.185 484.736C962.901 485.293 962.759 485.898 962.759 486.551V488.043C962.759 488.918 962.912 489.662 963.219 490.276C963.531 490.889 963.966 491.358 964.523 491.682C965.08 492 965.73 492.159 966.474 492.159C966.957 492.159 967.398 492.091 967.795 491.955C968.193 491.812 968.537 491.602 968.827 491.324C969.116 491.045 969.338 490.702 969.491 490.293L971.903 490.727C971.71 491.437 971.364 492.06 970.864 492.594C970.369 493.122 969.747 493.534 968.997 493.83C968.253 494.119 967.403 494.264 966.449 494.264ZM984.702 484.105L982.393 484.514C982.296 484.219 982.143 483.937 981.933 483.67C981.728 483.403 981.45 483.185 981.097 483.014C980.745 482.844 980.305 482.759 979.776 482.759C979.055 482.759 978.452 482.92 977.969 483.244C977.487 483.562 977.245 483.974 977.245 484.48C977.245 484.918 977.407 485.27 977.731 485.537C978.055 485.804 978.577 486.023 979.299 486.193L981.379 486.67C982.583 486.949 983.481 487.378 984.072 487.957C984.663 488.537 984.958 489.29 984.958 490.216C984.958 491 984.731 491.699 984.276 492.312C983.827 492.92 983.2 493.398 982.393 493.744C981.592 494.091 980.663 494.264 979.606 494.264C978.14 494.264 976.944 493.952 976.018 493.327C975.092 492.696 974.523 491.801 974.313 490.642L976.776 490.267C976.93 490.909 977.245 491.395 977.722 491.724C978.2 492.048 978.822 492.21 979.589 492.21C980.424 492.21 981.092 492.037 981.592 491.69C982.092 491.338 982.342 490.909 982.342 490.403C982.342 489.994 982.188 489.651 981.881 489.372C981.58 489.094 981.117 488.884 980.492 488.741L978.276 488.256C977.055 487.977 976.151 487.534 975.566 486.926C974.987 486.318 974.697 485.548 974.697 484.616C974.697 483.844 974.913 483.168 975.344 482.588C975.776 482.009 976.373 481.557 977.134 481.233C977.896 480.903 978.768 480.739 979.751 480.739C981.165 480.739 982.279 481.045 983.092 481.659C983.904 482.267 984.441 483.082 984.702 484.105ZM997.57 484.105L995.26 484.514C995.163 484.219 995.01 483.937 994.8 483.67C994.595 483.403 994.317 483.185 993.964 483.014C993.612 482.844 993.172 482.759 992.643 482.759C991.922 482.759 991.32 482.92 990.837 483.244C990.354 483.562 990.112 483.974 990.112 484.48C990.112 484.918 990.274 485.27 990.598 485.537C990.922 485.804 991.445 486.023 992.166 486.193L994.246 486.67C995.45 486.949 996.348 487.378 996.939 487.957C997.53 488.537 997.825 489.29 997.825 490.216C997.825 491 997.598 491.699 997.143 492.312C996.695 492.92 996.067 493.398 995.26 493.744C994.459 494.091 993.53 494.264 992.473 494.264C991.007 494.264 989.811 493.952 988.885 493.327C987.959 492.696 987.391 491.801 987.18 490.642L989.643 490.267C989.797 490.909 990.112 491.395 990.589 491.724C991.067 492.048 991.689 492.21 992.456 492.21C993.291 492.21 993.959 492.037 994.459 491.69C994.959 491.338 995.209 490.909 995.209 490.403C995.209 489.994 995.055 489.651 994.749 489.372C994.447 489.094 993.984 488.884 993.359 488.741L991.143 488.256C989.922 487.977 989.018 487.534 988.433 486.926C987.854 486.318 987.564 485.548 987.564 484.616C987.564 483.844 987.78 483.168 988.212 482.588C988.643 482.009 989.24 481.557 990.001 481.233C990.763 480.903 991.635 480.739 992.618 480.739C994.033 480.739 995.146 481.045 995.959 481.659C996.771 482.267 997.308 483.082 997.57 484.105Z" fill="white"/>
<rect x="1007" y="459" width="52" height="52" rx="26" fill="white"/>
<path opacity="0.8" d="M1032.9 485.273C1032.9 487.176 1032.54 488.795 1031.81 490.131C1031.1 491.466 1030.12 492.486 1028.88 493.19C1027.65 493.889 1026.26 494.239 1024.72 494.239C1023.17 494.239 1021.78 493.886 1020.55 493.182C1019.31 492.477 1018.34 491.457 1017.62 490.122C1016.91 488.787 1016.55 487.17 1016.55 485.273C1016.55 483.369 1016.91 481.75 1017.62 480.415C1018.34 479.08 1019.31 478.062 1020.55 477.364C1021.78 476.659 1023.17 476.307 1024.72 476.307C1026.26 476.307 1027.65 476.659 1028.88 477.364C1030.12 478.062 1031.1 479.08 1031.81 480.415C1032.54 481.75 1032.9 483.369 1032.9 485.273ZM1029.16 485.273C1029.16 484.04 1028.97 483 1028.6 482.153C1028.24 481.307 1027.72 480.665 1027.06 480.227C1026.39 479.79 1025.62 479.571 1024.72 479.571C1023.83 479.571 1023.05 479.79 1022.39 480.227C1021.72 480.665 1021.21 481.307 1020.84 482.153C1020.47 483 1020.29 484.04 1020.29 485.273C1020.29 486.506 1020.47 487.545 1020.84 488.392C1021.21 489.239 1021.72 489.881 1022.39 490.318C1023.05 490.756 1023.83 490.974 1024.72 490.974C1025.62 490.974 1026.39 490.756 1027.06 490.318C1027.72 489.881 1028.24 489.239 1028.6 488.392C1028.97 487.545 1029.16 486.506 1029.16 485.273ZM1035.63 494V476.545H1039.32V484.241H1039.55L1045.83 476.545H1050.26L1043.78 484.361L1050.33 494H1045.92L1041.14 486.824L1039.32 489.04V494H1035.63Z" fill="#090909"/>
<path opacity="0.8" d="M1074.82 480.909V482.955H1067.67V480.909H1074.82ZM1069.59 477.773H1072.14V490.156C1072.14 490.651 1072.21 491.023 1072.36 491.273C1072.51 491.517 1072.7 491.685 1072.93 491.776C1073.17 491.861 1073.43 491.903 1073.71 491.903C1073.91 491.903 1074.09 491.889 1074.24 491.861C1074.4 491.832 1074.52 491.81 1074.6 491.793L1075.06 493.898C1074.91 493.955 1074.7 494.011 1074.43 494.068C1074.16 494.131 1073.82 494.165 1073.41 494.17C1072.74 494.182 1072.11 494.062 1071.53 493.812C1070.95 493.562 1070.49 493.176 1070.13 492.653C1069.77 492.131 1069.59 491.474 1069.59 490.685V477.773ZM1083.02 494.264C1081.79 494.264 1080.72 493.983 1079.8 493.42C1078.89 492.858 1078.18 492.071 1077.67 491.06C1077.17 490.048 1076.91 488.866 1076.91 487.514C1076.91 486.156 1077.17 484.969 1077.67 483.952C1078.18 482.935 1078.89 482.145 1079.8 481.582C1080.72 481.02 1081.79 480.739 1083.02 480.739C1084.24 480.739 1085.31 481.02 1086.23 481.582C1087.14 482.145 1087.85 482.935 1088.36 483.952C1088.87 484.969 1089.12 486.156 1089.12 487.514C1089.12 488.866 1088.87 490.048 1088.36 491.06C1087.85 492.071 1087.14 492.858 1086.23 493.42C1085.31 493.983 1084.24 494.264 1083.02 494.264ZM1083.02 492.125C1083.82 492.125 1084.48 491.915 1085 491.494C1085.52 491.074 1085.91 490.514 1086.16 489.815C1086.42 489.116 1086.54 488.347 1086.54 487.506C1086.54 486.67 1086.42 485.903 1086.16 485.205C1085.91 484.5 1085.52 483.935 1085 483.509C1084.48 483.082 1083.82 482.869 1083.02 482.869C1082.22 482.869 1081.56 483.082 1081.03 483.509C1080.51 483.935 1080.12 484.5 1079.86 485.205C1079.61 485.903 1079.49 486.67 1079.49 487.506C1079.49 488.347 1079.61 489.116 1079.86 489.815C1080.12 490.514 1080.51 491.074 1081.03 491.494C1081.56 491.915 1082.22 492.125 1083.02 492.125ZM1098.31 494V480.909H1100.78V482.989H1100.91C1101.15 482.284 1101.57 481.73 1102.18 481.327C1102.78 480.918 1103.47 480.713 1104.24 480.713C1104.4 480.713 1104.58 480.719 1104.8 480.73C1105.02 480.741 1105.2 480.756 1105.32 480.773V483.21C1105.22 483.182 1105.04 483.151 1104.77 483.116C1104.51 483.077 1104.25 483.057 1103.99 483.057C1103.39 483.057 1102.85 483.185 1102.38 483.44C1101.91 483.69 1101.54 484.04 1101.27 484.489C1101 484.932 1100.86 485.437 1100.86 486.006V494H1098.31ZM1112.7 494.264C1111.41 494.264 1110.3 493.989 1109.37 493.438C1108.44 492.881 1107.72 492.099 1107.22 491.094C1106.72 490.082 1106.47 488.898 1106.47 487.54C1106.47 486.199 1106.72 485.017 1107.22 483.994C1107.72 482.972 1108.43 482.173 1109.33 481.599C1110.24 481.026 1111.3 480.739 1112.52 480.739C1113.26 480.739 1113.97 480.861 1114.67 481.105C1115.36 481.349 1115.98 481.733 1116.53 482.256C1117.09 482.778 1117.52 483.457 1117.84 484.293C1118.16 485.122 1118.32 486.131 1118.32 487.318V488.222H1107.91V486.312H1115.82C1115.82 485.642 1115.68 485.048 1115.41 484.531C1115.14 484.009 1114.75 483.597 1114.26 483.295C1113.77 482.994 1113.2 482.844 1112.54 482.844C1111.82 482.844 1111.2 483.02 1110.66 483.372C1110.13 483.719 1109.72 484.173 1109.43 484.736C1109.15 485.293 1109.01 485.898 1109.01 486.551V488.043C1109.01 488.918 1109.16 489.662 1109.47 490.276C1109.78 490.889 1110.22 491.358 1110.77 491.682C1111.33 492 1111.98 492.159 1112.72 492.159C1113.21 492.159 1113.65 492.091 1114.05 491.955C1114.44 491.812 1114.79 491.602 1115.08 491.324C1115.37 491.045 1115.59 490.702 1115.74 490.293L1118.15 490.727C1117.96 491.437 1117.61 492.06 1117.11 492.594C1116.62 493.122 1116 493.534 1115.25 493.83C1114.5 494.119 1113.65 494.264 1112.7 494.264ZM1123.96 494L1120.11 480.909H1122.74L1125.3 490.523H1125.43L1128.01 480.909H1130.64L1133.2 490.48H1133.32L1135.87 480.909H1138.51L1134.66 494H1132.06L1129.4 484.548H1129.21L1126.55 494H1123.96ZM1140.92 494V480.909H1143.47V494H1140.92ZM1142.21 478.889C1141.77 478.889 1141.39 478.741 1141.07 478.446C1140.76 478.145 1140.6 477.787 1140.6 477.372C1140.6 476.952 1140.76 476.594 1141.07 476.298C1141.39 475.997 1141.77 475.847 1142.21 475.847C1142.65 475.847 1143.03 475.997 1143.34 476.298C1143.66 476.594 1143.82 476.952 1143.82 477.372C1143.82 477.787 1143.66 478.145 1143.34 478.446C1143.03 478.741 1142.65 478.889 1142.21 478.889ZM1149.45 486.227V494H1146.9V480.909H1149.35V483.04H1149.51C1149.81 482.347 1150.28 481.79 1150.92 481.369C1151.57 480.949 1152.39 480.739 1153.37 480.739C1154.26 480.739 1155.04 480.926 1155.71 481.301C1156.38 481.67 1156.9 482.222 1157.27 482.955C1157.64 483.687 1157.83 484.594 1157.83 485.673V494H1155.28V485.98C1155.28 485.031 1155.03 484.29 1154.54 483.756C1154.04 483.216 1153.36 482.946 1152.5 482.946C1151.91 482.946 1151.38 483.074 1150.92 483.33C1150.47 483.585 1150.11 483.96 1149.84 484.455C1149.58 484.943 1149.45 485.534 1149.45 486.227ZM1166.14 494.256C1165.09 494.256 1164.14 493.986 1163.32 493.446C1162.49 492.901 1161.84 492.125 1161.37 491.119C1160.91 490.108 1160.67 488.895 1160.67 487.48C1160.67 486.065 1160.91 484.855 1161.38 483.849C1161.86 482.844 1162.51 482.074 1163.34 481.54C1164.17 481.006 1165.11 480.739 1166.16 480.739C1166.97 480.739 1167.63 480.875 1168.12 481.148C1168.62 481.415 1169.01 481.727 1169.28 482.085C1169.56 482.443 1169.78 482.759 1169.93 483.031H1170.08V476.545H1172.63V494H1170.14V491.963H1169.93C1169.78 492.241 1169.55 492.56 1169.26 492.918C1168.98 493.276 1168.59 493.588 1168.09 493.855C1167.59 494.122 1166.94 494.256 1166.14 494.256ZM1166.71 492.082C1167.44 492.082 1168.06 491.889 1168.57 491.503C1169.08 491.111 1169.46 490.568 1169.72 489.875C1169.99 489.182 1170.12 488.375 1170.12 487.455C1170.12 486.545 1169.99 485.75 1169.73 485.068C1169.47 484.386 1169.09 483.855 1168.58 483.474C1168.08 483.094 1167.45 482.903 1166.71 482.903C1165.94 482.903 1165.3 483.102 1164.79 483.5C1164.28 483.898 1163.89 484.44 1163.63 485.128C1163.38 485.815 1163.25 486.591 1163.25 487.455C1163.25 488.33 1163.38 489.116 1163.64 489.815C1163.9 490.514 1164.29 491.068 1164.8 491.477C1165.32 491.881 1165.95 492.082 1166.71 492.082ZM1188.13 494.264C1186.91 494.264 1185.84 493.983 1184.92 493.42C1184.01 492.858 1183.3 492.071 1182.79 491.06C1182.28 490.048 1182.03 488.866 1182.03 487.514C1182.03 486.156 1182.28 484.969 1182.79 483.952C1183.3 482.935 1184.01 482.145 1184.92 481.582C1185.84 481.02 1186.91 480.739 1188.13 480.739C1189.36 480.739 1190.43 481.02 1191.35 481.582C1192.26 482.145 1192.97 482.935 1193.48 483.952C1193.98 484.969 1194.24 486.156 1194.24 487.514C1194.24 488.866 1193.98 490.048 1193.48 491.06C1192.97 492.071 1192.26 492.858 1191.35 493.42C1190.43 493.983 1189.36 494.264 1188.13 494.264ZM1188.14 492.125C1188.94 492.125 1189.6 491.915 1190.12 491.494C1190.64 491.074 1191.03 490.514 1191.28 489.815C1191.53 489.116 1191.66 488.347 1191.66 487.506C1191.66 486.67 1191.53 485.903 1191.28 485.205C1191.03 484.5 1190.64 483.935 1190.12 483.509C1189.6 483.082 1188.94 482.869 1188.14 482.869C1187.34 482.869 1186.68 483.082 1186.15 483.509C1185.63 483.935 1185.24 484.5 1184.98 485.205C1184.73 485.903 1184.61 486.67 1184.61 487.506C1184.61 488.347 1184.73 489.116 1184.98 489.815C1185.24 490.514 1185.63 491.074 1186.15 491.494C1186.68 491.915 1187.34 492.125 1188.14 492.125ZM1197.08 494V480.909H1199.54V482.989H1199.68C1199.92 482.284 1200.34 481.73 1200.94 481.327C1201.55 480.918 1202.24 480.713 1203 480.713C1203.16 480.713 1203.35 480.719 1203.57 480.73C1203.79 480.741 1203.96 480.756 1204.09 480.773V483.21C1203.98 483.182 1203.8 483.151 1203.54 483.116C1203.28 483.077 1203.02 483.057 1202.76 483.057C1202.15 483.057 1201.62 483.185 1201.15 483.44C1200.68 483.69 1200.31 484.04 1200.04 484.489C1199.76 484.932 1199.63 485.437 1199.63 486.006V494H1197.08ZM1212.64 494V480.909H1215.11V482.989H1215.24C1215.48 482.284 1215.9 481.73 1216.5 481.327C1217.11 480.918 1217.8 480.713 1218.57 480.713C1218.73 480.713 1218.91 480.719 1219.13 480.73C1219.35 480.741 1219.52 480.756 1219.65 480.773V483.21C1219.55 483.182 1219.36 483.151 1219.1 483.116C1218.84 483.077 1218.58 483.057 1218.32 483.057C1217.72 483.057 1217.18 483.185 1216.71 483.44C1216.24 483.69 1215.87 484.04 1215.6 484.489C1215.33 484.932 1215.19 485.437 1215.19 486.006V494H1212.64ZM1227.03 494.264C1225.74 494.264 1224.63 493.989 1223.69 493.438C1222.77 492.881 1222.05 492.099 1221.55 491.094C1221.05 490.082 1220.8 488.898 1220.8 487.54C1220.8 486.199 1221.05 485.017 1221.55 483.994C1222.05 482.972 1222.76 482.173 1223.66 481.599C1224.57 481.026 1225.63 480.739 1226.85 480.739C1227.59 480.739 1228.3 480.861 1229 481.105C1229.69 481.349 1230.31 481.733 1230.86 482.256C1231.41 482.778 1231.85 483.457 1232.17 484.293C1232.48 485.122 1232.64 486.131 1232.64 487.318V488.222H1222.24V486.312H1230.15C1230.15 485.642 1230.01 485.048 1229.74 484.531C1229.46 484.009 1229.08 483.597 1228.59 483.295C1228.1 482.994 1227.52 482.844 1226.87 482.844C1226.15 482.844 1225.52 483.02 1224.99 483.372C1224.46 483.719 1224.05 484.173 1223.76 484.736C1223.48 485.293 1223.34 485.898 1223.34 486.551V488.043C1223.34 488.918 1223.49 489.662 1223.8 490.276C1224.11 490.889 1224.54 491.358 1225.1 491.682C1225.66 492 1226.31 492.159 1227.05 492.159C1227.54 492.159 1227.98 492.091 1228.37 491.955C1228.77 491.812 1229.12 491.602 1229.4 491.324C1229.69 491.045 1229.92 490.702 1230.07 490.293L1232.48 490.727C1232.29 491.437 1231.94 492.06 1231.44 492.594C1230.95 493.122 1230.33 493.534 1229.58 493.83C1228.83 494.119 1227.98 494.264 1227.03 494.264ZM1235.47 498.909V480.909H1237.96V483.031H1238.17C1238.32 482.759 1238.53 482.443 1238.81 482.085C1239.09 481.727 1239.48 481.415 1239.97 481.148C1240.47 480.875 1241.12 480.739 1241.93 480.739C1242.99 480.739 1243.93 481.006 1244.76 481.54C1245.59 482.074 1246.24 482.844 1246.71 483.849C1247.19 484.855 1247.43 486.065 1247.43 487.48C1247.43 488.895 1247.19 490.108 1246.72 491.119C1246.25 492.125 1245.6 492.901 1244.78 493.446C1243.95 493.986 1243.01 494.256 1241.96 494.256C1241.16 494.256 1240.51 494.122 1240 493.855C1239.5 493.588 1239.11 493.276 1238.83 492.918C1238.54 492.56 1238.33 492.241 1238.17 491.963H1238.02V498.909H1235.47ZM1237.97 487.455C1237.97 488.375 1238.1 489.182 1238.37 489.875C1238.64 490.568 1239.02 491.111 1239.53 491.503C1240.03 491.889 1240.65 492.082 1241.39 492.082C1242.15 492.082 1242.78 491.881 1243.29 491.477C1243.81 491.068 1244.19 490.514 1244.45 489.815C1244.72 489.116 1244.85 488.33 1244.85 487.455C1244.85 486.591 1244.72 485.815 1244.46 485.128C1244.21 484.44 1243.82 483.898 1243.3 483.5C1242.79 483.102 1242.15 482.903 1241.39 482.903C1240.65 482.903 1240.02 483.094 1239.51 483.474C1239 483.855 1238.62 484.386 1238.36 485.068C1238.1 485.75 1237.97 486.545 1237.97 487.455ZM1252.83 476.545V494H1250.28V476.545H1252.83ZM1260.07 494.29C1259.24 494.29 1258.49 494.136 1257.82 493.83C1257.15 493.517 1256.62 493.065 1256.23 492.474C1255.84 491.884 1255.65 491.159 1255.65 490.301C1255.65 489.562 1255.79 488.955 1256.07 488.477C1256.36 488 1256.74 487.622 1257.22 487.344C1257.71 487.065 1258.25 486.855 1258.84 486.713C1259.44 486.571 1260.05 486.463 1260.67 486.389C1261.45 486.298 1262.09 486.224 1262.58 486.168C1263.06 486.105 1263.42 486.006 1263.64 485.869C1263.86 485.733 1263.97 485.511 1263.97 485.205V485.145C1263.97 484.401 1263.76 483.824 1263.34 483.415C1262.93 483.006 1262.31 482.801 1261.48 482.801C1260.63 482.801 1259.95 482.991 1259.46 483.372C1258.97 483.747 1258.63 484.165 1258.44 484.625L1256.05 484.08C1256.33 483.284 1256.75 482.642 1257.29 482.153C1257.84 481.659 1258.48 481.301 1259.19 481.08C1259.91 480.852 1260.66 480.739 1261.45 480.739C1261.97 480.739 1262.53 480.801 1263.11 480.926C1263.7 481.045 1264.25 481.267 1264.77 481.591C1265.28 481.915 1265.71 482.378 1266.04 482.98C1266.37 483.577 1266.53 484.352 1266.53 485.307V494H1264.04V492.21H1263.94C1263.77 492.54 1263.53 492.864 1263.2 493.182C1262.87 493.5 1262.44 493.764 1261.93 493.974C1261.41 494.185 1260.79 494.29 1260.07 494.29ZM1260.62 492.244C1261.33 492.244 1261.93 492.105 1262.43 491.827C1262.94 491.548 1263.32 491.185 1263.58 490.736C1263.85 490.281 1263.98 489.795 1263.98 489.278V487.591C1263.89 487.682 1263.71 487.767 1263.45 487.847C1263.2 487.92 1262.9 487.986 1262.58 488.043C1262.25 488.094 1261.92 488.142 1261.61 488.188C1261.3 488.227 1261.04 488.261 1260.83 488.29C1260.33 488.352 1259.88 488.457 1259.47 488.605C1259.07 488.753 1258.75 488.966 1258.5 489.244C1258.26 489.517 1258.14 489.881 1258.14 490.335C1258.14 490.966 1258.38 491.443 1258.84 491.767C1259.31 492.085 1259.9 492.244 1260.62 492.244ZM1271.07 498.909C1270.69 498.909 1270.34 498.878 1270.03 498.815C1269.71 498.759 1269.48 498.696 1269.33 498.628L1269.94 496.54C1270.41 496.665 1270.82 496.719 1271.19 496.702C1271.55 496.685 1271.87 496.548 1272.15 496.293C1272.43 496.037 1272.68 495.619 1272.9 495.04L1273.21 494.17L1268.42 480.909H1271.15L1274.47 491.068H1274.6L1277.92 480.909H1280.65L1275.26 495.747C1275.01 496.429 1274.69 497.006 1274.3 497.477C1273.92 497.955 1273.46 498.313 1272.92 498.551C1272.39 498.79 1271.77 498.909 1271.07 498.909Z" fill="white"/>
<rect x="449.5" y="0.5" width="444" height="79" rx="3.5" fill="black" fill-opacity="0.6"/>
<rect x="449.5" y="0.5" width="444" height="79" rx="3.5" stroke="white"/>
<path opacity="0.8" d="M475.114 49V31.5455H481.011C482.381 31.5455 483.5 31.7926 484.369 32.2869C485.244 32.7756 485.892 33.4375 486.312 34.2727C486.733 35.108 486.943 36.0398 486.943 37.0682C486.943 38.0966 486.733 39.0312 486.312 39.8722C485.898 40.7131 485.256 41.3835 484.386 41.8835C483.517 42.3778 482.403 42.625 481.045 42.625H476.818V40.75H480.977C481.915 40.75 482.668 40.5881 483.236 40.2642C483.804 39.9403 484.216 39.5028 484.472 38.9517C484.733 38.3949 484.864 37.767 484.864 37.0682C484.864 36.3693 484.733 35.7443 484.472 35.1932C484.216 34.642 483.801 34.2102 483.227 33.8977C482.653 33.5795 481.892 33.4205 480.943 33.4205H477.227V49H475.114ZM490.075 49V35.9091H492.018V37.8864H492.155C492.393 37.2386 492.825 36.7131 493.45 36.3097C494.075 35.9062 494.78 35.7045 495.564 35.7045C495.712 35.7045 495.896 35.7074 496.118 35.7131C496.339 35.7187 496.507 35.7273 496.621 35.7386V37.7841C496.553 37.767 496.396 37.7415 496.152 37.7074C495.913 37.6676 495.661 37.6477 495.393 37.6477C494.757 37.6477 494.189 37.7812 493.689 38.0483C493.195 38.3097 492.803 38.6733 492.513 39.1392C492.229 39.5994 492.087 40.125 492.087 40.7159V49H490.075ZM504.095 49.2727C502.834 49.2727 501.746 48.9943 500.831 48.4375C499.922 47.875 499.22 47.0909 498.726 46.0852C498.237 45.0739 497.993 43.8977 497.993 42.5568C497.993 41.2159 498.237 40.0341 498.726 39.0114C499.22 37.983 499.908 37.1818 500.788 36.608C501.675 36.0284 502.709 35.7386 503.891 35.7386C504.572 35.7386 505.246 35.8523 505.911 36.0795C506.575 36.3068 507.18 36.6761 507.726 37.1875C508.271 37.6932 508.706 38.3636 509.03 39.1989C509.354 40.0341 509.516 41.0625 509.516 42.2841V43.1364H499.425V41.3977H507.47C507.47 40.6591 507.322 40 507.027 39.4205C506.737 38.8409 506.322 38.3835 505.783 38.0483C505.249 37.7131 504.618 37.5455 503.891 37.5455C503.089 37.5455 502.396 37.7443 501.811 38.142C501.232 38.5341 500.786 39.0455 500.473 39.6761C500.161 40.3068 500.004 40.983 500.004 41.7045V42.8636C500.004 43.8523 500.175 44.6903 500.516 45.3778C500.862 46.0597 501.342 46.5795 501.956 46.9375C502.57 47.2898 503.283 47.4659 504.095 47.4659C504.624 47.4659 505.101 47.392 505.527 47.2443C505.959 47.0909 506.331 46.8636 506.643 46.5625C506.956 46.2557 507.197 45.875 507.368 45.4205L509.311 45.9659C509.107 46.625 508.763 47.2045 508.28 47.7045C507.797 48.1989 507.2 48.5852 506.49 48.8636C505.78 49.1364 504.982 49.2727 504.095 49.2727ZM521.848 38.8409L520.041 39.3523C519.928 39.0511 519.76 38.7585 519.538 38.4744C519.322 38.1847 519.027 37.946 518.652 37.7585C518.277 37.571 517.797 37.4773 517.212 37.4773C516.411 37.4773 515.743 37.6619 515.209 38.0312C514.68 38.3949 514.416 38.858 514.416 39.4205C514.416 39.9205 514.598 40.3153 514.962 40.6051C515.325 40.8949 515.893 41.1364 516.666 41.3295L518.609 41.8068C519.78 42.0909 520.652 42.5256 521.226 43.1108C521.8 43.6903 522.087 44.4375 522.087 45.3523C522.087 46.1023 521.871 46.7727 521.439 47.3636C521.013 47.9545 520.416 48.4205 519.649 48.7614C518.882 49.1023 517.99 49.2727 516.973 49.2727C515.638 49.2727 514.533 48.983 513.658 48.4034C512.783 47.8239 512.229 46.9773 511.996 45.8636L513.905 45.3864C514.087 46.0909 514.43 46.6193 514.936 46.9716C515.447 47.3239 516.115 47.5 516.939 47.5C517.876 47.5 518.621 47.3011 519.172 46.9034C519.729 46.5 520.007 46.017 520.007 45.4545C520.007 45 519.848 44.6193 519.53 44.3125C519.212 44 518.723 43.767 518.064 43.6136L515.882 43.1023C514.683 42.8182 513.803 42.3778 513.24 41.7812C512.683 41.179 512.405 40.4261 512.405 39.5227C512.405 38.7841 512.612 38.1307 513.027 37.5625C513.447 36.9943 514.018 36.5483 514.74 36.2244C515.467 35.9006 516.291 35.7386 517.212 35.7386C518.507 35.7386 519.524 36.0227 520.263 36.5909C521.007 37.1591 521.536 37.9091 521.848 38.8409ZM534.387 38.8409L532.58 39.3523C532.467 39.0511 532.299 38.7585 532.077 38.4744C531.862 38.1847 531.566 37.946 531.191 37.7585C530.816 37.571 530.336 37.4773 529.751 37.4773C528.95 37.4773 528.282 37.6619 527.748 38.0312C527.219 38.3949 526.955 38.858 526.955 39.4205C526.955 39.9205 527.137 40.3153 527.501 40.6051C527.864 40.8949 528.433 41.1364 529.205 41.3295L531.148 41.8068C532.319 42.0909 533.191 42.5256 533.765 43.1108C534.339 43.6903 534.626 44.4375 534.626 45.3523C534.626 46.1023 534.41 46.7727 533.978 47.3636C533.552 47.9545 532.955 48.4205 532.188 48.7614C531.421 49.1023 530.529 49.2727 529.512 49.2727C528.177 49.2727 527.072 48.983 526.197 48.4034C525.322 47.8239 524.768 46.9773 524.535 45.8636L526.444 45.3864C526.626 46.0909 526.969 46.6193 527.475 46.9716C527.987 47.3239 528.654 47.5 529.478 47.5C530.415 47.5 531.16 47.3011 531.711 46.9034C532.268 46.5 532.546 46.017 532.546 45.4545C532.546 45 532.387 44.6193 532.069 44.3125C531.751 44 531.262 43.767 530.603 43.6136L528.421 43.1023C527.222 42.8182 526.342 42.3778 525.779 41.7812C525.222 41.179 524.944 40.4261 524.944 39.5227C524.944 38.7841 525.151 38.1307 525.566 37.5625C525.987 36.9943 526.558 36.5483 527.279 36.2244C528.006 35.9006 528.83 35.7386 529.751 35.7386C531.046 35.7386 532.063 36.0227 532.802 36.5909C533.546 37.1591 534.075 37.9091 534.387 38.8409Z" fill="white"/>
<g clip-path="url(#clip4_16684_9646)">
<path d="M561.198 33.7022C561.082 33.5859 560.944 33.4937 560.792 33.4309C560.641 33.368 560.478 33.3358 560.314 33.3359L559.681 33.3359C559.336 33.3397 559.025 33.4784 558.798 33.7022L550.248 42.2684C550.169 42.3458 550.107 42.4379 550.064 42.5395C550.022 42.6411 550 42.7502 550 42.8603C550 42.9705 550.022 43.0795 550.064 43.1811C550.107 43.2827 550.169 43.3749 550.248 43.4522L551.431 44.6359C551.507 44.7138 551.598 44.7758 551.698 44.818C551.798 44.8603 551.906 44.8821 552.014 44.8821C552.123 44.8821 552.231 44.8603 552.331 44.818C552.431 44.7758 552.522 44.7138 552.598 44.6359L559.998 37.2184L567.398 44.6359C567.475 44.7144 567.567 44.7766 567.669 44.8191C567.77 44.8616 567.879 44.8835 567.989 44.8835C568.1 44.8835 568.209 44.8616 568.31 44.8191C568.412 44.7766 568.504 44.7144 568.581 44.6359L569.748 43.4522C569.826 43.3749 569.888 43.2827 569.931 43.1811C569.973 43.0795 569.995 42.9705 569.995 42.8603C569.995 42.7502 569.973 42.6411 569.931 42.5395C569.888 42.4379 569.826 42.3458 569.748 42.2684L561.198 33.7022Z" fill="white"/>
</g>
<path opacity="0.8" d="M591.159 49.2727C589.977 49.2727 588.94 48.9915 588.048 48.429C587.162 47.8665 586.469 47.0795 585.969 46.0682C585.474 45.0568 585.227 43.875 585.227 42.5227C585.227 41.1591 585.474 39.9687 585.969 38.9517C586.469 37.9347 587.162 37.1449 588.048 36.5824C588.94 36.0199 589.977 35.7386 591.159 35.7386C592.341 35.7386 593.375 36.0199 594.261 36.5824C595.153 37.1449 595.847 37.9347 596.341 38.9517C596.841 39.9687 597.091 41.1591 597.091 42.5227C597.091 43.875 596.841 45.0568 596.341 46.0682C595.847 47.0795 595.153 47.8665 594.261 48.429C593.375 48.9915 592.341 49.2727 591.159 49.2727ZM591.159 47.4659C592.057 47.4659 592.795 47.2358 593.375 46.7756C593.955 46.3153 594.384 45.7102 594.662 44.9602C594.94 44.2102 595.08 43.3977 595.08 42.5227C595.08 41.6477 594.94 40.8324 594.662 40.0767C594.384 39.321 593.955 38.7102 593.375 38.2443C592.795 37.7784 592.057 37.5455 591.159 37.5455C590.261 37.5455 589.523 37.7784 588.943 38.2443C588.364 38.7102 587.935 39.321 587.656 40.0767C587.378 40.8324 587.239 41.6477 587.239 42.5227C587.239 43.3977 587.378 44.2102 587.656 44.9602C587.935 45.7102 588.364 46.3153 588.943 46.7756C589.523 47.2358 590.261 47.4659 591.159 47.4659ZM600.161 49V35.9091H602.104V37.8864H602.241C602.479 37.2386 602.911 36.7131 603.536 36.3097C604.161 35.9062 604.866 35.7045 605.65 35.7045C605.798 35.7045 605.982 35.7074 606.204 35.7131C606.425 35.7187 606.593 35.7273 606.707 35.7386V37.7841C606.638 37.767 606.482 37.7415 606.238 37.7074C605.999 37.6676 605.746 37.6477 605.479 37.6477C604.843 37.6477 604.275 37.7812 603.775 38.0483C603.281 38.3097 602.888 38.6733 602.599 39.1392C602.315 39.5994 602.173 40.125 602.173 40.7159V49H600.161Z" fill="white"/>
<g clip-path="url(#clip5_16684_9646)">
<path d="M630.802 46.2978C630.918 46.4141 631.056 46.5063 631.208 46.5691C631.359 46.632 631.522 46.6642 631.686 46.6641L632.319 46.6641C632.664 46.6603 632.975 46.5216 633.202 46.2978L641.752 37.7316C641.831 37.6542 641.893 37.5621 641.936 37.4605C641.978 37.3589 642 37.2498 642 37.1397C642 37.0295 641.978 36.9205 641.936 36.8189C641.893 36.7173 641.831 36.6251 641.752 36.5478L640.569 35.3641C640.493 35.2862 640.402 35.2242 640.302 35.182C640.202 35.1397 640.094 35.1179 639.986 35.1179C639.877 35.1179 639.769 35.1397 639.669 35.182C639.569 35.2242 639.478 35.2862 639.402 35.3641L632.002 42.7816L624.602 35.3641C624.525 35.2856 624.433 35.2234 624.331 35.1809C624.23 35.1384 624.121 35.1165 624.011 35.1165C623.9 35.1165 623.791 35.1384 623.69 35.1809C623.588 35.2234 623.496 35.2856 623.419 35.3641L622.252 36.5478C622.174 36.6251 622.112 36.7173 622.069 36.8189C622.027 36.9205 622.005 37.0295 622.005 37.1397C622.005 37.2498 622.027 37.3589 622.069 37.4605C622.112 37.5621 622.174 37.6542 622.252 37.7316L630.802 46.2978Z" fill="white"/>
</g>
<path opacity="0.8" d="M665.534 35.9091V37.6136H658.75V35.9091H665.534ZM660.727 32.7727H662.739V45.25C662.739 45.8182 662.821 46.2443 662.986 46.5284C663.156 46.8068 663.372 46.9943 663.634 47.0909C663.901 47.1818 664.182 47.2273 664.477 47.2273C664.699 47.2273 664.881 47.2159 665.023 47.1932C665.165 47.1648 665.278 47.142 665.364 47.125L665.773 48.9318C665.636 48.983 665.446 49.0341 665.202 49.0852C664.957 49.142 664.648 49.1705 664.273 49.1705C663.705 49.1705 663.148 49.0483 662.602 48.804C662.063 48.5597 661.614 48.1875 661.256 47.6875C660.903 47.1875 660.727 46.5568 660.727 45.7955V32.7727ZM673.737 49.2727C672.555 49.2727 671.518 48.9915 670.626 48.429C669.74 47.8665 669.047 47.0795 668.547 46.0682C668.053 45.0568 667.805 43.875 667.805 42.5227C667.805 41.1591 668.053 39.9687 668.547 38.9517C669.047 37.9347 669.74 37.1449 670.626 36.5824C671.518 36.0199 672.555 35.7386 673.737 35.7386C674.919 35.7386 675.953 36.0199 676.839 36.5824C677.732 37.1449 678.425 37.9347 678.919 38.9517C679.419 39.9687 679.669 41.1591 679.669 42.5227C679.669 43.875 679.419 45.0568 678.919 46.0682C678.425 47.0795 677.732 47.8665 676.839 48.429C675.953 48.9915 674.919 49.2727 673.737 49.2727ZM673.737 47.4659C674.635 47.4659 675.374 47.2358 675.953 46.7756C676.533 46.3153 676.962 45.7102 677.24 44.9602C677.518 44.2102 677.658 43.3977 677.658 42.5227C677.658 41.6477 677.518 40.8324 677.24 40.0767C676.962 39.321 676.533 38.7102 675.953 38.2443C675.374 37.7784 674.635 37.5455 673.737 37.5455C672.839 37.5455 672.101 37.7784 671.521 38.2443C670.942 38.7102 670.513 39.321 670.234 40.0767C669.956 40.8324 669.817 41.6477 669.817 42.5227C669.817 43.3977 669.956 44.2102 670.234 44.9602C670.513 45.7102 670.942 46.3153 671.521 46.7756C672.101 47.2358 672.839 47.4659 673.737 47.4659ZM698.762 38.8409L696.955 39.3523C696.842 39.0511 696.674 38.7585 696.452 38.4744C696.237 38.1847 695.941 37.946 695.566 37.7585C695.191 37.571 694.711 37.4773 694.126 37.4773C693.325 37.4773 692.657 37.6619 692.123 38.0312C691.594 38.3949 691.33 38.858 691.33 39.4205C691.33 39.9205 691.512 40.3153 691.876 40.6051C692.239 40.8949 692.808 41.1364 693.58 41.3295L695.523 41.8068C696.694 42.0909 697.566 42.5256 698.14 43.1108C698.714 43.6903 699.001 44.4375 699.001 45.3523C699.001 46.1023 698.785 46.7727 698.353 47.3636C697.927 47.9545 697.33 48.4205 696.563 48.7614C695.796 49.1023 694.904 49.2727 693.887 49.2727C692.552 49.2727 691.447 48.983 690.572 48.4034C689.697 47.8239 689.143 46.9773 688.91 45.8636L690.819 45.3864C691.001 46.0909 691.344 46.6193 691.85 46.9716C692.362 47.3239 693.029 47.5 693.853 47.5C694.79 47.5 695.535 47.3011 696.086 46.9034C696.643 46.5 696.921 46.017 696.921 45.4545C696.921 45 696.762 44.6193 696.444 44.3125C696.126 44 695.637 43.767 694.978 43.6136L692.796 43.1023C691.597 42.8182 690.717 42.3778 690.154 41.7812C689.597 41.179 689.319 40.4261 689.319 39.5227C689.319 38.7841 689.526 38.1307 689.941 37.5625C690.362 36.9943 690.933 36.5483 691.654 36.2244C692.381 35.9006 693.205 35.7386 694.126 35.7386C695.421 35.7386 696.438 36.0227 697.177 36.5909C697.921 37.1591 698.45 37.9091 698.762 38.8409ZM704.994 49L701.006 35.9091H703.119L705.949 45.9318H706.085L708.881 35.9091H711.028L713.79 45.8977H713.926L716.756 35.9091H718.869L714.881 49H712.903L710.04 38.9432H709.835L706.972 49H704.994ZM721.528 49V35.9091H723.54V49H721.528ZM722.551 33.7273C722.159 33.7273 721.821 33.5938 721.537 33.3267C721.259 33.0597 721.119 32.7386 721.119 32.3636C721.119 31.9886 721.259 31.6676 721.537 31.4006C721.821 31.1335 722.159 31 722.551 31C722.943 31 723.278 31.1335 723.557 31.4006C723.841 31.6676 723.983 31.9886 723.983 32.3636C723.983 32.7386 723.841 33.0597 723.557 33.3267C723.278 33.5938 722.943 33.7273 722.551 33.7273ZM732.917 35.9091V37.6136H726.133V35.9091H732.917ZM728.11 32.7727H730.121V45.25C730.121 45.8182 730.204 46.2443 730.369 46.5284C730.539 46.8068 730.755 46.9943 731.016 47.0909C731.283 47.1818 731.565 47.2273 731.86 47.2273C732.082 47.2273 732.263 47.2159 732.406 47.1932C732.548 47.1648 732.661 47.142 732.746 47.125L733.156 48.9318C733.019 48.983 732.829 49.0341 732.585 49.0852C732.34 49.142 732.031 49.1705 731.656 49.1705C731.087 49.1705 730.531 49.0483 729.985 48.804C729.445 48.5597 728.996 48.1875 728.638 47.6875C728.286 47.1875 728.11 46.5568 728.11 45.7955V32.7727ZM741.12 49.2727C739.893 49.2727 738.836 48.983 737.95 48.4034C737.063 47.8239 736.381 47.0256 735.904 46.0085C735.427 44.9915 735.188 43.8295 735.188 42.5227C735.188 41.1932 735.433 40.0199 735.921 39.0028C736.415 37.9801 737.103 37.1818 737.984 36.608C738.87 36.0284 739.904 35.7386 741.086 35.7386C742.006 35.7386 742.836 35.9091 743.575 36.25C744.313 36.5909 744.918 37.0682 745.39 37.6818C745.862 38.2955 746.154 39.0114 746.268 39.8295H744.256C744.103 39.233 743.762 38.7045 743.234 38.2443C742.711 37.7784 742.006 37.5455 741.12 37.5455C740.336 37.5455 739.648 37.75 739.058 38.1591C738.472 38.5625 738.015 39.1335 737.685 39.8722C737.362 40.6051 737.2 41.4659 737.2 42.4545C737.2 43.4659 737.359 44.3466 737.677 45.0966C738.001 45.8466 738.455 46.429 739.04 46.8438C739.631 47.2585 740.325 47.4659 741.12 47.4659C741.643 47.4659 742.117 47.375 742.543 47.1932C742.969 47.0114 743.33 46.75 743.626 46.4091C743.921 46.0682 744.131 45.6591 744.256 45.1818H746.268C746.154 45.9545 745.873 46.6506 745.424 47.2699C744.981 47.8835 744.393 48.3722 743.66 48.7358C742.933 49.0938 742.086 49.2727 741.12 49.2727ZM751.219 41.125V49H749.208V31.5455H751.219V37.9545H751.39C751.697 37.2784 752.157 36.7415 752.771 36.3438C753.39 35.9403 754.214 35.7386 755.242 35.7386C756.134 35.7386 756.915 35.9176 757.586 36.2756C758.256 36.6278 758.776 37.1705 759.146 37.9034C759.521 38.6307 759.708 39.5568 759.708 40.6818V49H757.697V40.8182C757.697 39.7784 757.427 38.9744 756.887 38.4062C756.353 37.8324 755.612 37.5455 754.663 37.5455C754.004 37.5455 753.413 37.6847 752.89 37.9631C752.373 38.2415 751.964 38.6477 751.663 39.1818C751.367 39.7159 751.219 40.3636 751.219 41.125ZM775.456 49.2727C774.229 49.2727 773.172 48.983 772.286 48.4034C771.399 47.8239 770.717 47.0256 770.24 46.0085C769.763 44.9915 769.524 43.8295 769.524 42.5227C769.524 41.1932 769.768 40.0199 770.257 39.0028C770.751 37.9801 771.439 37.1818 772.32 36.608C773.206 36.0284 774.24 35.7386 775.422 35.7386C776.342 35.7386 777.172 35.9091 777.911 36.25C778.649 36.5909 779.254 37.0682 779.726 37.6818C780.197 38.2955 780.49 39.0114 780.604 39.8295H778.592C778.439 39.233 778.098 38.7045 777.57 38.2443C777.047 37.7784 776.342 37.5455 775.456 37.5455C774.672 37.5455 773.984 37.75 773.393 38.1591C772.808 38.5625 772.351 39.1335 772.021 39.8722C771.697 40.6051 771.536 41.4659 771.536 42.4545C771.536 43.4659 771.695 44.3466 772.013 45.0966C772.337 45.8466 772.791 46.429 773.376 46.8438C773.967 47.2585 774.661 47.4659 775.456 47.4659C775.979 47.4659 776.453 47.375 776.879 47.1932C777.305 47.0114 777.666 46.75 777.962 46.4091C778.257 46.0682 778.467 45.6591 778.592 45.1818H780.604C780.49 45.9545 780.209 46.6506 779.76 47.2699C779.317 47.8835 778.729 48.3722 777.996 48.7358C777.268 49.0938 776.422 49.2727 775.456 49.2727ZM785.555 41.125V49H783.544V31.5455H785.555V37.9545H785.726C786.033 37.2784 786.493 36.7415 787.107 36.3438C787.726 35.9403 788.55 35.7386 789.578 35.7386C790.47 35.7386 791.251 35.9176 791.922 36.2756C792.592 36.6278 793.112 37.1705 793.482 37.9034C793.857 38.6307 794.044 39.5568 794.044 40.6818V49H792.033V40.8182C792.033 39.7784 791.763 38.9744 791.223 38.4062C790.689 37.8324 789.947 37.5455 788.999 37.5455C788.339 37.5455 787.749 37.6847 787.226 37.9631C786.709 38.2415 786.3 38.6477 785.999 39.1818C785.703 39.7159 785.555 40.3636 785.555 41.125ZM801.576 49.3068C800.746 49.3068 799.994 49.1506 799.317 48.8381C798.641 48.5199 798.104 48.0625 797.707 47.4659C797.309 46.8636 797.11 46.1364 797.11 45.2841C797.11 44.5341 797.258 43.9261 797.553 43.4602C797.849 42.9886 798.244 42.6193 798.738 42.3523C799.232 42.0852 799.778 41.8864 800.374 41.7557C800.977 41.6193 801.582 41.5114 802.19 41.4318C802.985 41.3295 803.63 41.2528 804.124 41.2017C804.624 41.1449 804.988 41.0511 805.215 40.9205C805.448 40.7898 805.565 40.5625 805.565 40.2386V40.1705C805.565 39.3295 805.335 38.6761 804.874 38.2102C804.42 37.7443 803.729 37.5114 802.803 37.5114C801.843 37.5114 801.09 37.7216 800.545 38.142C799.999 38.5625 799.616 39.0114 799.394 39.4886L797.485 38.8068C797.826 38.0114 798.281 37.392 798.849 36.9489C799.423 36.5 800.048 36.1875 800.724 36.0114C801.406 35.8295 802.076 35.7386 802.735 35.7386C803.156 35.7386 803.638 35.7898 804.184 35.892C804.735 35.9886 805.266 36.1903 805.778 36.4972C806.295 36.804 806.724 37.267 807.065 37.8864C807.406 38.5057 807.576 39.3352 807.576 40.375V49H805.565V47.2273H805.462C805.326 47.5114 805.099 47.8153 804.781 48.1392C804.462 48.4631 804.039 48.7386 803.511 48.9659C802.982 49.1932 802.337 49.3068 801.576 49.3068ZM801.883 47.5C802.678 47.5 803.349 47.3438 803.894 47.0312C804.445 46.7188 804.86 46.3153 805.138 45.821C805.423 45.3267 805.565 44.8068 805.565 44.2614V42.4205C805.479 42.5227 805.292 42.6165 805.002 42.7017C804.718 42.7812 804.388 42.8523 804.013 42.9148C803.644 42.9716 803.283 43.0227 802.931 43.0682C802.585 43.108 802.303 43.142 802.087 43.1705C801.565 43.2386 801.076 43.3494 800.621 43.5028C800.173 43.6506 799.809 43.875 799.531 44.1761C799.258 44.4716 799.121 44.875 799.121 45.3864C799.121 46.0852 799.38 46.6136 799.897 46.9716C800.42 47.3239 801.082 47.5 801.883 47.5ZM813.259 41.125V49H811.247V35.9091H813.19V37.9545H813.361C813.668 37.2898 814.134 36.7557 814.759 36.3523C815.384 35.9432 816.19 35.7386 817.179 35.7386C818.065 35.7386 818.841 35.9205 819.506 36.2841C820.17 36.642 820.688 37.1875 821.057 37.9205C821.426 38.6477 821.611 39.5682 821.611 40.6818V49H819.599V40.8182C819.599 39.7898 819.332 38.9886 818.798 38.4148C818.264 37.8352 817.531 37.5455 816.599 37.5455C815.957 37.5455 815.384 37.6847 814.878 37.9631C814.378 38.2415 813.983 38.6477 813.693 39.1818C813.403 39.7159 813.259 40.3636 813.259 41.125ZM827.298 41.125V49H825.286V35.9091H827.229V37.9545H827.4C827.707 37.2898 828.173 36.7557 828.798 36.3523C829.423 35.9432 830.229 35.7386 831.218 35.7386C832.104 35.7386 832.88 35.9205 833.545 36.2841C834.21 36.642 834.727 37.1875 835.096 37.9205C835.465 38.6477 835.65 39.5682 835.65 40.6818V49H833.638V40.8182C833.638 39.7898 833.371 38.9886 832.837 38.4148C832.303 37.8352 831.57 37.5455 830.638 37.5455C829.996 37.5455 829.423 37.6847 828.917 37.9631C828.417 38.2415 828.022 38.6477 827.732 39.1818C827.442 39.7159 827.298 40.3636 827.298 41.125ZM844.814 49.2727C843.553 49.2727 842.464 48.9943 841.55 48.4375C840.641 47.875 839.939 47.0909 839.445 46.0852C838.956 45.0739 838.712 43.8977 838.712 42.5568C838.712 41.2159 838.956 40.0341 839.445 39.0114C839.939 37.983 840.626 37.1818 841.507 36.608C842.393 36.0284 843.428 35.7386 844.609 35.7386C845.291 35.7386 845.964 35.8523 846.629 36.0795C847.294 36.3068 847.899 36.6761 848.445 37.1875C848.99 37.6932 849.425 38.3636 849.749 39.1989C850.072 40.0341 850.234 41.0625 850.234 42.2841V43.1364H840.143V41.3977H848.189C848.189 40.6591 848.041 40 847.746 39.4205C847.456 38.8409 847.041 38.3835 846.501 38.0483C845.967 37.7131 845.337 37.5455 844.609 37.5455C843.808 37.5455 843.115 37.7443 842.53 38.142C841.95 38.5341 841.504 39.0455 841.192 39.6761C840.879 40.3068 840.723 40.983 840.723 41.7045V42.8636C840.723 43.8523 840.893 44.6903 841.234 45.3778C841.581 46.0597 842.061 46.5795 842.675 46.9375C843.288 47.2898 844.001 47.4659 844.814 47.4659C845.342 47.4659 845.82 47.392 846.246 47.2443C846.678 47.0909 847.05 46.8636 847.362 46.5625C847.675 46.2557 847.916 45.875 848.087 45.4205L850.03 45.9659C849.825 46.625 849.482 47.2045 848.999 47.7045C848.516 48.1989 847.919 48.5852 847.209 48.8636C846.499 49.1364 845.7 49.2727 844.814 49.2727ZM855.305 31.5455V49H853.294V31.5455H855.305ZM868.262 38.8409L866.455 39.3523C866.342 39.0511 866.174 38.7585 865.952 38.4744C865.737 38.1847 865.441 37.946 865.066 37.7585C864.691 37.571 864.211 37.4773 863.626 37.4773C862.825 37.4773 862.157 37.6619 861.623 38.0312C861.094 38.3949 860.83 38.858 860.83 39.4205C860.83 39.9205 861.012 40.3153 861.376 40.6051C861.739 40.8949 862.308 41.1364 863.08 41.3295L865.023 41.8068C866.194 42.0909 867.066 42.5256 867.64 43.1108C868.214 43.6903 868.501 44.4375 868.501 45.3523C868.501 46.1023 868.285 46.7727 867.853 47.3636C867.427 47.9545 866.83 48.4205 866.063 48.7614C865.296 49.1023 864.404 49.2727 863.387 49.2727C862.052 49.2727 860.947 48.983 860.072 48.4034C859.197 47.8239 858.643 46.9773 858.41 45.8636L860.319 45.3864C860.501 46.0909 860.844 46.6193 861.35 46.9716C861.862 47.3239 862.529 47.5 863.353 47.5C864.29 47.5 865.035 47.3011 865.586 46.9034C866.143 46.5 866.421 46.017 866.421 45.4545C866.421 45 866.262 44.6193 865.944 44.3125C865.626 44 865.137 43.767 864.478 43.6136L862.296 43.1023C861.097 42.8182 860.217 42.3778 859.654 41.7812C859.097 41.179 858.819 40.4261 858.819 39.5227C858.819 38.7841 859.026 38.1307 859.441 37.5625C859.862 36.9943 860.433 36.5483 861.154 36.2244C861.881 35.9006 862.705 35.7386 863.626 35.7386C864.921 35.7386 865.938 36.0227 866.677 36.5909C867.421 37.1591 867.95 37.9091 868.262 38.8409Z" fill="white"/>
<path d="M372 342L517 342" stroke="white" stroke-width="2"/>
<path d="M732 391L836 485" stroke="white" stroke-width="2"/>
<path d="M911 485L836 485" stroke="white" stroke-width="2"/>
<path d="M672 79V190" stroke="white" stroke-width="2"/>
<defs>
<clipPath id="clip0_16684_9646">
<rect width="80" height="80" fill="white" transform="translate(756 301)"/>
</clipPath>
<clipPath id="clip1_16684_9646">
<rect width="80" height="80" fill="white" transform="translate(588 381) rotate(-180)"/>
</clipPath>
<clipPath id="clip2_16684_9646">
<rect width="80" height="80" fill="white" transform="translate(632 257) rotate(-90)"/>
</clipPath>
<clipPath id="clip3_16684_9646">
<rect width="80" height="80" fill="white" transform="translate(712 425) rotate(90)"/>
</clipPath>
<clipPath id="clip4_16684_9646">
<rect width="40" height="40" fill="white" transform="translate(540 60) rotate(-90)"/>
</clipPath>
<clipPath id="clip5_16684_9646">
<rect width="40" height="40" fill="white" transform="translate(652 20) rotate(90)"/>
</clipPath>
</defs>
</svg>
