<svg viewBox="0 0 32 32" fill="none" xmlns="http://www.w3.org/2000/svg">
<path d="M2 15.4375C2 11.7391 2 9.88987 3.30141 8.64523C3.53965 8.41738 3.80584 8.20845 4.09615 8.02145C5.68191 7 8.03794 7 12.75 7C17.4621 7 19.8181 7 21.4039 8.02145C21.6942 8.20845 21.9603 8.41738 22.1986 8.64523C23.5 9.88987 23.5 11.7391 23.5 15.4375V16.5625C23.5 20.2609 23.5 22.1101 22.1986 23.3548C21.9603 23.5826 21.6942 23.7916 21.4039 23.9785C19.8181 25 17.4621 25 12.75 25C8.03794 25 5.68191 25 4.09615 23.9785C3.80584 23.7916 3.53965 23.5826 3.30141 23.3548C2 22.1101 2 20.2609 2 16.5625V15.4375Z" stroke="white" stroke-width="2.5"/>
<path d="M23.668 12.6663L24.5458 12.2274C27.1403 10.9301 28.4376 10.2815 29.3861 10.8677C30.3346 11.4539 30.3346 12.9043 30.3346 15.8051V16.1941C30.3346 19.0949 30.3346 20.5453 29.3861 21.1315C28.4376 21.7177 27.1403 21.0691 24.5458 19.7718L23.668 19.3329V12.6663Z" stroke="white" stroke-width="2.5"/>
</svg>
