<svg viewBox="0 0 48 48" fill="none" xmlns="http://www.w3.org/2000/svg">
<g clip-path="url(#clip0)">
<path d="M12 18V38C12 39.1 12.9 40 14 40H32C33.1 40 34 39.1 34 38V18H12ZM18 36H16V22H18V36ZM22 36H20V22H22V36ZM26 36H24V22H26V36ZM30 36H28V22H30V36Z" fill="white" fill-opacity="0.87"/>
<path d="M34.5 12H28V9.5C27.9984 9.10266 27.8399 8.72205 27.5589 8.44109C27.278 8.16012 26.8973 8.00158 26.5 8H19.5C19.1027 8.00158 18.722 8.16012 18.4411 8.44109C18.1601 8.72205 18.0016 9.10266 18 9.5V12H11.5C11.1025 12.0011 10.7216 12.1594 10.4405 12.4405C10.1594 12.7216 10.0011 13.1025 10 13.5V16H36V13.5C35.9989 13.1025 35.8406 12.7216 35.5595 12.4405C35.2784 12.1594 34.8975 12.0011 34.5 12ZM26 12H20V10.026H26V12Z" fill="white" fill-opacity="0.87"/>
</g>
<defs>
<clipPath id="clip0">
<rect width="32" height="32" fill="white" transform="translate(8 8)"/>
</clipPath>
</defs>
</svg>
