<svg viewBox="0 0 64 64" fill="none" xmlns="http://www.w3.org/2000/svg">
<path fill-rule="evenodd" clip-rule="evenodd" d="M32.3523 25.8248H20.0059V44.2892H44.9411V25.8248H32.3644C32.3604 25.8248 32.3563 25.8248 32.3523 25.8248ZM29.1041 23.8248L22.9591 19.655L24.0821 18L32.2275 23.5273L35.8516 19.8126L37.2831 21.2093L34.7314 23.8248H45.9411C46.4934 23.8248 46.9411 24.2725 46.9411 24.8248V45.2892C46.9411 45.8415 46.4934 46.2892 45.9411 46.2892H19.0059C18.4536 46.2892 18.0059 45.8415 18.0059 45.2892V24.8248C18.0059 24.2725 18.4536 23.8248 19.0059 23.8248H29.1041ZM22.5206 29.7693C22.5206 29.2171 22.9683 28.7693 23.5206 28.7693H41.4264C41.9787 28.7693 42.4264 29.2171 42.4264 29.7693V40.3447C42.4264 40.8969 41.9787 41.3447 41.4264 41.3447H23.5206C22.9683 41.3447 22.5206 40.8969 22.5206 40.3447V29.7693ZM24.5206 30.7693V39.3447H40.4264V30.7693H24.5206Z" fill="#ED2C25"/>
</svg>
