<svg viewBox="0 0 48 48" fill="none" xmlns="http://www.w3.org/2000/svg">
<path d="M11.4 11.5556C10.9226 11.5556 10.4648 11.7429 10.1272 12.0763C9.78964 12.4097 9.6 12.8618 9.6 13.3333V29.3333C9.6 29.8048 9.78964 30.257 10.1272 30.5904C10.4648 30.9238 10.9226 31.1111 11.4 31.1111H36.6C37.0774 31.1111 37.5352 30.9238 37.8728 30.5904C38.2104 30.257 38.4 29.8048 38.4 29.3333V13.3333C38.4 12.8618 38.2104 12.4097 37.8728 12.0763C37.5352 11.7429 37.0774 11.5556 36.6 11.5556H11.4ZM11.4 8H36.6C38.0322 8 39.4057 8.5619 40.4184 9.5621C41.4311 10.5623 42 11.9188 42 13.3333V29.3333C42 30.7478 41.4311 32.1044 40.4184 33.1046C39.4057 34.1048 38.0322 34.6667 36.6 34.6667H11.4C9.96783 34.6667 8.59432 34.1048 7.58162 33.1046C6.56893 32.1044 6 30.7478 6 29.3333V13.3333C6 11.9188 6.56893 10.5623 7.58162 9.5621C8.59432 8.5619 9.96783 8 11.4 8ZM18.6 36.4444H29.4C29.8774 36.4444 30.3352 36.6317 30.6728 36.9651C31.0104 37.2985 31.2 37.7507 31.2 38.2222C31.2 38.6937 31.0104 39.1459 30.6728 39.4793C30.3352 39.8127 29.8774 40 29.4 40H18.6C18.1226 40 17.6648 39.8127 17.3272 39.4793C16.9896 39.1459 16.8 38.6937 16.8 38.2222C16.8 37.7507 16.9896 37.2985 17.3272 36.9651C17.6648 36.6317 18.1226 36.4444 18.6 36.4444Z" fill="white" fill-opacity="0.87"/>
</svg>
