<svg viewBox="0 0 64 64" fill="none" xmlns="http://www.w3.org/2000/svg">
    <path d="M21.8011 32.5149C21.8011 29.1374 23.4532 26.1396 25.9914 24.2811L25.3185 21.9961C21.8411 24.2078 19.5361 28.0915 19.5361 32.5149C19.5361 37.1981 22.1209 41.2751 25.9381 43.4069L26.7174 41.2351C23.773 39.4431 21.8011 36.2055 21.8011 32.5149ZM38.6819 21.9961L38.0091 24.2877C40.5472 26.1463 42.1993 29.1441 42.1993 32.5216C42.1993 36.2122 40.2274 39.4498 37.283 41.2418L38.0624 43.4135C41.8796 41.2818 44.4643 37.2048 44.4643 32.5216C44.4643 28.0915 42.1593 24.2078 38.6819 21.9961Z" fill="white" fill-opacity="0.6"/>
    <path d="M42.6485 44L42.3539 44.7992L42.0592 44H41.8782V45H42.0482V44.4003L42.2699 45H42.4378L42.6595 44.4003V45H42.8296V44H42.6485ZM41 44.1584H41.2972V45H41.465V44.1584H41.7623V44.0006H41V44.1584Z" fill="white" fill-opacity="0.6"/>
    <path d="M27.2832 45.0004L28.1359 42.6621H35.8702L36.7229 45.0004H27.2832Z" fill="white" fill-opacity="0.6"/>
    <path d="M29.2092 29.2184C29.2092 29.2184 30.0619 32.3094 30.4816 34.9541C30.7547 34.9541 31.2277 34.9674 31.2277 34.9674C31.2277 34.9674 29.7554 25.8275 26.1514 19.2591C26.5511 19.0659 27.3572 18.6795 28.6229 18.3797C28.7961 19.2324 31.9805 34.9674 31.9805 34.9674H32.7266L29.3424 18.2265C29.3424 18.2265 30.395 18.0067 31.7273 18C31.674 19.9053 31.8406 28.299 33.4793 34.9608H34.2321C34.2321 34.9608 32.3802 28.2258 32.4534 18C33.1862 18.0133 34.3054 18.1332 34.845 18.2531C34.8423 18.2665 34.8376 18.2885 34.8311 18.319C34.6122 19.3408 32.3548 29.8791 35.5245 41.5292H28.483C28.483 41.5292 30.3283 36.0666 29.2092 29.2184Z" fill="white" fill-opacity="0.6"/>
    <path d="M37.8052 19.3596C37.3871 20.3008 35.0171 25.6354 34.5178 31.5636C34.5157 31.5114 34.5127 31.4457 34.5091 31.367C34.4448 29.9478 34.1895 24.3198 35.4771 18.3867C35.5079 18.3953 35.5439 18.4051 35.5845 18.4161C36.0177 18.534 36.9783 18.7954 37.8553 19.2461C37.8447 19.2707 37.8278 19.3087 37.8052 19.3596Z" fill="white" fill-opacity="0.6"/>
</svg>
