<svg viewBox="0 0 64 64" fill="none" xmlns="http://www.w3.org/2000/svg">
    <mask id="mask0_7668_6225" style="mask-type:luminance" maskUnits="userSpaceOnUse" x="19" y="18" width="26" height="28">
        <path d="M44.5 18H19.5V46H44.5V18Z" fill="white" fill-opacity="0.6"/>
    </mask>
    <g mask="url(#mask0_7668_6225)">
        <path d="M28.0661 42.496H35.9443L33.7983 35.8256L38.0861 20.1231L34.9703 18.1587L31.5814 37.4817L27.2615 20.185L26.624 22.2621L30.1755 36.0513L28.0661 42.496ZM27.6954 43.6288L26.931 45.9641H37.0601L36.3087 43.6288H27.6954ZM33.6911 18L28.3129 19.4927L31.4336 32.5519L33.6911 18Z" fill="white"/>
        <path d="M21.7916 37.593V29.261L25.951 25.1545L25.2148 22.6816L19.5 28.3238V38.5302L25.7517 44.7022L26.6053 42.3454L21.7916 37.593Z" fill="white"/>
        <path d="M42.1701 37.593V29.261L38.0107 25.1545L38.7469 22.6816L44.4617 28.3238V38.5302L38.21 44.7022L37.3564 42.3454L42.1701 37.593Z" fill="white"/>
        <path d="M42.9077 44.9688L42.5998 45.7654L42.292 44.9688H42.103V45.9655H42.2806V45.3676L42.5122 45.9655H42.6876L42.9191 45.3676V45.9655H43.0967V44.9688H42.9077ZM41.1895 45.126H41.5003V45.9655H41.6756V45.126H41.9864V44.9688H41.1895V45.126Z" fill="white"/>
    </g>
</svg>
