<svg viewBox="0 0 24 24" fill="none" xmlns="http://www.w3.org/2000/svg">
<path d="M16.1408 7.94152C16.1877 7.988 16.2249 8.0433 16.2502 8.10423C16.2756 8.16516 16.2887 8.23051 16.2887 8.29652C16.2887 8.36252 16.2756 8.42788 16.2502 8.48881C16.2249 8.54974 16.1877 8.60504 16.1408 8.65152L15.9408 8.85152C15.8942 8.89983 15.8383 8.93808 15.7764 8.96388C15.7144 8.98968 15.6479 9.00249 15.5808 9.00152H8.42079C8.35371 9.00249 8.28715 8.98968 8.22522 8.96388C8.1633 8.93808 8.10733 8.89983 8.06079 8.85152L7.86079 8.65152C7.81393 8.60504 7.77673 8.54974 7.75134 8.48881C7.72596 8.42788 7.71289 8.36252 7.71289 8.29652C7.71289 8.23051 7.72596 8.16516 7.75134 8.10423C7.77673 8.0433 7.81393 7.988 7.86079 7.94152L11.6508 4.15152C11.6957 4.10369 11.7499 4.06557 11.8101 4.03951C11.8703 4.01344 11.9352 4 12.0008 4C12.0664 4 12.1313 4.01344 12.1915 4.03951C12.2517 4.06557 12.3059 4.10369 12.3508 4.15152L16.1408 7.94152Z" fill="white"/>
<path d="M16.1408 16.0604C16.1877 16.014 16.2249 15.9587 16.2502 15.8977C16.2756 15.8368 16.2887 15.7714 16.2887 15.7054C16.2887 15.6394 16.2756 15.5741 16.2502 15.5131C16.2249 15.4522 16.1877 15.3969 16.1408 15.3504L15.9408 15.1504C15.8942 15.1021 15.8383 15.0639 15.7764 15.0381C15.7144 15.0123 15.6479 14.9995 15.5808 15.0004H8.42079C8.35371 14.9995 8.28715 15.0123 8.22522 15.0381C8.1633 15.0639 8.10733 15.1021 8.06079 15.1504L7.86079 15.3504C7.81393 15.3969 7.77673 15.4522 7.75134 15.5131C7.72596 15.5741 7.71289 15.6394 7.71289 15.7054C7.71289 15.7714 7.72596 15.8368 7.75134 15.8977C7.77673 15.9587 7.81393 16.014 7.86079 16.0604L11.6508 19.8504C11.6957 19.8983 11.7499 19.9364 11.8101 19.9624C11.8703 19.9885 11.9352 20.002 12.0008 20.002C12.0664 20.002 12.1313 19.9885 12.1915 19.9624C12.2517 19.9364 12.3059 19.8983 12.3508 19.8504L16.1408 16.0604Z" fill="white"/>
</svg>
