<svg viewBox="0 0 57 34" fill="none" xmlns="http://www.w3.org/2000/svg">
<path d="M24.8051 1.8518C25.4608 1.1953 26.3505 0.825995 27.2784 0.825195L29.0518 0.825195C29.9777 0.835895 30.8637 1.2037 31.5251 1.8518L55.4651 25.8385C55.6838 26.0554 55.8574 26.3135 55.9758 26.5978C56.0943 26.8822 56.1553 27.1871 56.1553 27.4952C56.1553 27.8032 56.0943 28.1082 55.9758 28.3925C55.8574 28.6769 55.6838 28.9349 55.4651 29.1518L52.1518 32.4652C51.9389 32.6825 51.6847 32.8551 51.4043 32.973C51.1238 33.0908 50.8227 33.1515 50.5184 33.1515C50.2142 33.1515 49.9131 33.0908 49.6326 32.973C49.3521 32.8551 49.098 32.6825 48.8851 32.4652L28.1651 11.6985L7.44507 32.4652C7.22817 32.6839 6.97007 32.8575 6.68577 32.9759C6.40137 33.0944 6.09647 33.1554 5.78837 33.1554C5.48037 33.1554 5.17537 33.0944 4.89107 32.9759C4.60677 32.8575 4.34867 32.6839 4.13177 32.4652L0.86507 29.1518C0.64637 28.9349 0.472775 28.6769 0.354275 28.3925C0.235875 28.1082 0.174877 27.8032 0.174877 27.4952C0.174877 27.1871 0.235875 26.8822 0.354275 26.5978C0.472775 26.3135 0.64637 26.0554 0.86507 25.8385L24.8051 1.8518Z" fill="white"/>
</svg>
