<svg viewBox="0 0 64 64" fill="none" xmlns="http://www.w3.org/2000/svg">
    <g clip-path="url(#clip0_7668_6245)">
        <mask id="mask0_7668_6245" style="mask-type:luminance" maskUnits="userSpaceOnUse" x="-266" y="-195" width="614" height="436">
            <path d="M-265.274 -194.135H347.09V240.054H-265.274V-194.135Z" fill="white" fill-opacity="0.6" />
        </mask>
        <g mask="url(#mask0_7668_6245)">
            <path d="M16.3506 24.807C19.2869 24.2597 27.0997 23.2509 29.6779 23.0721C32.4506 22.7948 32.7488 24.4185 31.2888 26.1078C30.1324 27.341 17.0142 35.2148 19.3688 38.3107C14.1579 32.9107 26.047 27.0418 27.7179 25.2321C29.716 23.1469 20.7924 24.4549 16.3506 24.807Z" fill="white"/>
            <path d="M19.3687 38.3105C20.1669 39.5437 29.156 36.373 32.9433 33.1659C33.2342 32.9269 34.7687 31.7374 34.5233 31.3105C29.2833 34.0032 21.4342 36.0885 20.3596 34.9154C19.9051 35.4317 19.0487 36.5372 19.0851 37.5242C19.0924 37.8015 19.1906 38.0624 19.3687 38.3105Z" fill="white"/>
            <path d="M34.524 31.3105C35.7094 31.3635 35.664 33.2936 33.1076 34.5268C29.0004 36.6503 24.0367 40.1257 26.264 43.7835C20.0113 40.642 27.7785 35.3113 31.1694 33.6074C32.0349 33.144 34.844 32.0056 34.524 31.3105Z" fill="white"/>
            <path d="M47.7765 20.0879C43.2529 31.5884 32.1456 41.8995 25.7202 41.6824C25.6529 42.4085 25.8692 43.1473 26.2638 43.784C33.562 46.0498 45.9438 28.6732 47.7765 20.0879Z" fill="white"/>
            <path d="M43.9169 22.57C43.9078 22.5317 43.9005 22.5098 43.9005 22.5098C43.9078 22.5317 43.9169 22.57 43.9169 22.57ZM43.5205 23.9911V23.9984C43.5587 23.9601 43.7296 23.7813 43.8787 23.4602C43.886 23.4438 43.8932 23.4292 43.9005 23.4146C43.9005 23.4146 43.9005 23.4073 43.9078 23.4073C43.9605 23.2577 43.9751 23.13 43.9678 22.9148C43.9605 22.8162 43.9387 22.6739 43.9169 22.57C43.946 22.7196 43.9987 23.0935 43.8932 23.3927C43.7969 23.6846 43.5732 23.9309 43.5205 23.9911Z" fill="white"/>
            <path fill-rule="evenodd" clip-rule="evenodd" d="M42.8203 22.4121C42.8421 22.3829 42.873 22.3519 42.9021 22.3227C43.073 22.1512 43.2894 21.9925 43.513 21.9268C43.7003 21.8739 43.8858 21.8739 44.0567 21.9706C43.9676 21.9487 43.8421 21.9487 43.6621 22.0016C43.2603 22.1202 42.984 22.4942 42.8803 22.6821L42.8203 22.4121ZM42.7676 22.4121L42.8349 22.6967L42.4694 22.5015L42.4021 22.2333L42.7676 22.4121ZM42.0458 21.9925C42.2312 21.8137 42.433 21.6787 42.6567 21.6112C42.8876 21.5456 43.2221 21.5291 43.6858 21.6641C43.6112 21.6277 43.5203 21.6039 43.4385 21.5748C43.1403 21.4927 42.8803 21.4927 42.6421 21.5675C42.4094 21.6423 42.2021 21.7773 42.0149 21.956L41.6421 21.7773C41.664 21.7535 41.7094 21.7025 41.7912 21.6277C41.8058 21.6204 41.8221 21.5966 41.8367 21.5893C41.8512 21.582 41.8658 21.5675 41.873 21.5602C41.8967 21.5456 41.9112 21.5291 41.933 21.5145C41.9403 21.5145 41.9476 21.5073 41.9549 21.5C41.964 21.5 41.9712 21.4854 41.9785 21.4854C42.0458 21.4398 42.1203 21.396 42.2167 21.3577C42.3512 21.2902 42.5585 21.2227 42.813 21.2227C43.0821 21.2227 43.3949 21.2975 43.7367 21.5073C43.7894 21.5364 43.924 21.6423 44.0203 21.7535C44.1167 21.8739 44.1767 21.9633 44.2058 22.0162L44.1912 22.0089C43.9821 21.8283 43.7367 21.8137 43.5058 21.8812C43.2676 21.956 43.044 22.1129 42.873 22.2844C42.8421 22.3154 42.813 22.3446 42.7912 22.3756L42.4021 22.1877C42.4621 22.0837 42.5821 21.956 42.8058 21.821C42.9549 21.7243 43.1112 21.6641 43.2367 21.635C43.0967 21.6277 42.924 21.6495 42.7385 21.7316C42.433 21.8666 42.1876 22.195 42.1421 22.3008L42.0458 21.9925ZM42.5367 23.047L42.753 22.8463L42.7603 23.2714L42.5512 23.4739L42.5367 23.047ZM42.5294 23.8843C42.284 23.8187 42.0676 23.7129 41.8876 23.556C41.7549 23.4283 41.6058 23.2276 41.493 22.9211V22.9065H41.4858V22.8901C41.4567 22.8153 41.433 22.7332 41.4112 22.6438C41.4112 22.7332 41.433 22.8153 41.4567 22.8974C41.5385 23.1966 41.673 23.421 41.8585 23.5943C42.0385 23.7585 42.2603 23.8625 42.5221 23.93L42.5367 24.3568C42.5076 24.3495 42.4403 24.3404 42.3203 24.2966C42.3058 24.2966 42.284 24.2893 42.2676 24.282C42.253 24.2748 42.2385 24.2656 42.224 24.2583C42.2021 24.251 42.1785 24.2437 42.1567 24.2364C42.1494 24.2291 42.1421 24.2291 42.1349 24.2218C42.1276 24.2218 42.113 24.2145 42.104 24.2073C42.0385 24.1762 41.9549 24.1325 41.873 24.065C41.6203 23.9008 41.2185 23.4593 41.2476 22.673C41.2476 22.6219 41.2694 22.4486 41.3221 22.3081C41.404 22.091 41.4785 21.9779 41.4858 21.9779C41.404 22.2771 41.524 22.5471 41.724 22.7113C41.9185 22.8755 42.1949 22.9722 42.493 23.0543L42.5076 23.4885C42.3949 23.4958 42.224 23.4593 41.9858 23.3316C41.8367 23.2495 41.7167 23.1601 41.6276 23.0707C41.6949 23.1893 41.7912 23.317 41.9476 23.4283C42.2167 23.6162 42.6185 23.6691 42.7385 23.6527L42.5294 23.8843ZM42.5076 23.0105C42.2167 22.9357 41.9476 22.8317 41.7549 22.673C41.6058 22.5471 41.5076 22.3829 41.493 22.1512C41.524 22.2406 41.5821 22.3446 41.724 22.4723C42.0294 22.7642 42.5003 22.8226 42.7076 22.8153L42.5076 23.0105ZM42.5676 23.9154L42.7749 23.6837L42.7821 24.0796L42.5821 24.3185L42.5676 23.9154ZM44.273 22.2771L44.1621 22.3446L43.9312 22.4869L43.6258 22.4413L43.9676 22.226L44.273 22.2771ZM43.3112 23.8095C43.3494 23.556 43.2967 23.2714 43.2076 22.9722L43.5876 22.7642C43.6476 22.8609 43.693 23.0251 43.7003 23.2878C43.7076 23.452 43.6858 23.6016 43.6549 23.7202C43.7221 23.6089 43.7821 23.4593 43.804 23.2641C43.833 22.9503 43.6858 22.5909 43.6112 22.4869L43.9003 22.5325C43.9912 22.8317 44.0058 23.078 43.9458 23.3097C43.8858 23.5195 43.7603 23.7202 43.5803 23.9373L43.5658 23.9591L43.5512 23.9664L43.544 23.9829L43.4385 24.1087C43.7003 23.8935 43.924 23.556 43.9912 23.317C44.0494 23.0853 44.0421 22.8317 43.953 22.5325L44.3185 22.3081C44.333 22.3373 44.3567 22.3975 44.3712 22.5015C44.3785 22.5234 44.3858 22.5471 44.3858 22.5617C44.3858 22.5763 44.393 22.5909 44.393 22.6146C44.393 22.6365 44.4003 22.6511 44.4003 22.6821V22.704C44.4003 22.7186 44.4076 22.7332 44.4076 22.7332C44.4076 22.8153 44.4076 22.9065 44.4003 23.0105C44.3785 23.317 44.1985 23.877 43.5058 24.251V24.2437C43.453 24.2748 43.2967 24.3404 43.1476 24.3641C42.9167 24.4006 42.7749 24.3933 42.7749 24.3933C43.0821 24.3039 43.2676 24.065 43.3112 23.8095ZM43.1858 22.9357L42.924 22.8755L43.2821 22.6511L43.544 22.7332L43.1858 22.9357ZM42.9021 22.9138L43.1621 22.9795C43.2458 23.2714 43.2967 23.556 43.2603 23.8023C43.2294 24.0048 43.1258 24.1835 42.9094 24.3112C42.9767 24.251 43.0512 24.1398 43.0967 23.9373C43.193 23.5268 43.0149 23.0999 42.9021 22.9138ZM41.6494 21.8283L42.0003 22.0016L42.0967 22.2917L41.7476 22.1129L41.6494 21.8283Z" fill="white"/>
        </g>
    </g>
    <defs>
        <clipPath id="clip0_7668_6245">
            <rect width="64" height="64" fill="white"/>
        </clipPath>
    </defs>
</svg>
